<?xml version="1.0" standalone="no"?>
<!DOCTYPE svg PUBLIC "-//W3C//DTD SVG 20010904//EN"
 "http://www.w3.org/TR/2001/REC-SVG-20010904/DTD/svg10.dtd">
<svg version="1.0" xmlns="http://www.w3.org/2000/svg"
 width="300.000000pt" height="242.000000pt" viewBox="0 0 300.000000 242.000000"
 preserveAspectRatio="xMidYMid meet">
<metadata>
Created by potrace 1.10, written by Peter Selinger 2001-2011
</metadata>
<g transform="translate(0.000000,242.000000) scale(0.100000,-0.100000)"
fill="#000000" stroke="none">
<path d="M1480 2300 c-21 -6 -23 -8 -7 -15 22 -9 23 -37 0 -28 -14 6 -14 3 3
-19 17 -24 20 -25 37 -11 21 20 22 37 2 29 -17 -6 -20 15 -4 31 15 15 -1 21
-31 13z"/>
<path d="M1417 2230 c3 -11 14 -20 24 -20 22 0 24 11 7 28 -19 19 -37 14 -31
-8z"/>
<path d="M1553 2243 c-7 -2 -13 -13 -13 -24 0 -29 20 -23 49 14 12 15 11 17
-5 16 -11 0 -25 -3 -31 -6z"/>
<path d="M1464 2175 c-3 -8 -2 -20 2 -26 5 -9 10 -6 15 9 11 28 27 28 38 0 8
-20 10 -21 16 -6 4 9 4 22 0 28 -9 15 -65 12 -71 -5z"/>
<path d="M1430 2115 c0 -8 5 -15 10 -15 6 0 10 -7 10 -16 0 -14 -2 -15 -17 -3
-17 13 -17 13 -3 -6 14 -19 14 -19 -2 -6 -10 7 -15 17 -12 22 6 10 -43 24 -71
20 -11 -2 -26 -8 -32 -13 -21 -17 -15 -95 11 -151 13 -29 26 -59 29 -67 2 -9
17 -22 33 -30 42 -22 72 -50 96 -89 l21 -34 19 36 c10 20 28 43 40 51 12 9 18
16 13 16 -5 0 8 9 30 20 21 11 40 19 41 17 2 -1 -22 -22 -52 -45 -29 -23 -54
-47 -54 -53 0 -8 6 -7 18 3 18 16 76 48 87 48 4 0 -3 -12 -14 -26 -22 -28 -30
-104 -10 -104 5 0 8 4 4 10 -7 12 17 71 39 93 10 10 31 16 49 16 24 -1 26 -3
9 -6 -12 -2 -27 -14 -33 -25 -10 -18 -9 -20 5 -15 10 4 15 3 12 -2 -11 -17 22
-32 60 -28 29 3 40 9 42 23 4 26 -38 64 -80 73 l-33 8 40 11 c55 16 91 15 132
-5 68 -32 96 -123 51 -170 -32 -34 -2 -28 33 6 33 33 37 71 15 126 -15 35 -67
75 -98 75 -10 0 -18 5 -18 10 0 13 37 12 120 -1 36 -6 75 -12 86 -14 50 -8
141 -75 150 -111 7 -28 19 -31 28 -8 8 21 -7 46 -45 78 -33 28 -29 32 19 15
22 -7 35 -21 44 -45 6 -19 16 -34 20 -34 14 0 9 22 -9 44 -12 14 -9 13 10 -4
25 -22 28 -31 25 -72 -2 -36 0 -44 10 -36 6 6 12 22 12 37 0 17 3 22 9 13 4
-7 14 -12 22 -10 9 2 15 -7 17 -25 3 -23 7 -27 25 -22 18 5 19 4 7 -4 -13 -9
-12 -12 7 -17 12 -3 25 -15 28 -25 10 -29 38 -24 33 6 -4 21 -2 23 13 15 27
-15 62 -12 89 7 14 10 33 16 43 15 11 -2 17 3 17 16 0 11 7 33 15 48 21 41 19
79 -7 108 -25 27 -68 44 -68 27 0 -6 17 -30 38 -53 20 -24 29 -37 20 -30 -9 8
-25 12 -35 10 -15 -4 -13 -7 9 -18 26 -12 44 -38 33 -48 -3 -3 -15 4 -28 15
-12 11 -28 18 -34 16 -18 -6 -16 -23 1 -23 40 0 29 -52 -15 -70 -50 -21 -104
-7 -154 39 -25 23 -50 41 -57 41 -7 0 -34 19 -59 43 -48 44 -131 77 -236 93
-24 4 -43 10 -43 15 0 9 34 5 122 -17 61 -14 131 -46 161 -72 21 -19 105 -26
124 -10 20 16 16 66 -6 78 -29 15 -30 13 -20 -22 12 -43 12 -43 -8 -27 -13 11
-17 11 -20 2 -10 -28 -63 -13 -117 31 -68 55 -129 76 -231 77 -118 2 -209 -18
-307 -67 -72 -36 -80 -25 -41 53 38 75 42 122 13 148 -24 21 -75 24 -93 5 -10
-10 -9 -11 3 -4 8 4 0 -7 -17 -25 -18 -18 -33 -39 -33 -46 0 -7 -2 -19 -5 -27
-3 -7 -1 -19 4 -27 8 -12 12 -12 26 2 20 20 32 21 38 5 4 -9 6 -8 6 3 1 8 -5
21 -11 28 -11 10 -9 12 7 9 12 -2 21 -13 23 -26 6 -41 -63 -162 -91 -162 -6 0
0 11 13 25 13 14 20 26 17 26 -39 6 -52 1 -57 -21 l-6 -25 -12 23 c-8 14 -22
22 -39 22 l-26 0 23 -25 c18 -19 20 -25 8 -25 -52 0 -117 177 -72 194 9 4 14
9 11 13 -4 3 -13 0 -21 -6 -8 -7 -20 -9 -27 -5 -18 11 -2 -63 22 -105 22 -37
17 -56 -6 -25 -27 36 -56 126 -50 156 6 27 30 48 56 48 10 0 10 -3 1 -12 -9
-9 -5 -15 17 -24 16 -7 35 -22 41 -34 10 -19 10 -21 -8 -16 -21 7 -51 -19 -37
-32 4 -4 10 -2 12 5 3 9 11 6 26 -7 30 -28 44 -11 29 36 -9 30 -8 41 5 60 8
13 13 31 9 39 -7 19 -36 20 -36 0z m234 -31 c9 -8 16 -30 16 -49 0 -53 -58
-170 -76 -153 -4 5 0 16 9 25 16 19 30 50 40 93 6 23 3 25 -31 27 -20 1 -42
-3 -49 -9 -9 -7 -13 -7 -13 0 0 14 49 52 68 52 12 0 12 3 2 15 -18 21 13 21
34 -1z m126 -325 c0 -11 -3 -11 -35 1 -14 5 -23 15 -20 20 4 6 11 8 16 5 5 -3
6 2 3 12 -4 14 -1 12 15 -6 12 -13 21 -27 21 -32z"/>
<path d="M1518 2108 c-2 -13 -9 -23 -16 -23 -27 0 -42 -54 -23 -84 8 -13 12
-13 26 -1 12 10 15 24 12 46 -7 39 3 52 18 25 10 -20 11 -20 24 2 13 20 13 21
-2 8 -15 -12 -17 -11 -17 3 0 9 7 16 16 16 14 0 14 3 4 15 -18 22 -38 18 -42
-7z"/>
<path d="M1217 1994 c-14 -14 -6 -24 53 -64 33 -22 60 -36 60 -30 0 5 -4 10
-10 10 -5 0 -10 7 -10 16 0 11 -5 14 -16 10 -12 -5 -14 -1 -9 16 6 18 4 20
-14 15 -16 -4 -21 -1 -19 11 3 17 -23 28 -35 16z"/>
<path d="M1745 1981 c5 -16 2 -18 -16 -14 -19 5 -21 3 -17 -15 4 -15 2 -19 -8
-15 -9 3 -14 -1 -14 -12 0 -9 -4 -14 -9 -10 -5 3 -12 1 -15 -4 -16 -24 14 -16
53 15 24 19 48 34 52 34 5 0 9 9 9 20 0 14 -7 20 -21 20 -15 0 -19 -4 -14 -19z"/>
<path d="M900 1956 c-67 -15 -89 -26 -162 -82 -51 -40 -59 -43 -84 -34 -15 6
-33 9 -40 6 -8 -3 -14 6 -16 25 -3 28 -4 29 -23 16 -16 -13 -18 -20 -9 -44 9
-26 13 -28 59 -26 l50 2 -25 -21 c-51 -41 -167 -5 -157 50 5 25 -11 25 -27 -1
-8 -12 -5 -22 14 -42 52 -55 140 -52 208 9 20 17 49 39 63 48 29 19 145 54
202 62 62 8 41 -10 -25 -22 -148 -27 -218 -62 -218 -108 0 -35 14 -30 28 10
10 28 21 37 58 50 l46 15 -42 -40 c-28 -27 -40 -47 -38 -61 4 -26 28 -37 28
-12 0 20 62 81 111 108 34 19 34 19 17 -1 -26 -28 -22 -40 5 -15 12 11 33 25
47 30 40 15 180 26 180 14 0 -5 -15 -13 -33 -16 -53 -10 -89 -56 -95 -119 -4
-50 -2 -55 28 -80 43 -37 58 -34 25 4 -21 25 -25 38 -20 63 19 93 117 139 215
101 20 -8 27 -14 17 -14 -10 -1 -31 -8 -47 -16 -17 -9 -30 -11 -30 -6 0 5 10
11 22 14 34 9 14 20 -21 12 -31 -7 -61 -29 -61 -45 0 -4 9 -6 20 -3 17 5 20 0
20 -27 0 -23 4 -31 14 -27 7 3 18 1 24 -5 18 -18 62 0 62 25 0 18 2 19 10 7 8
-13 10 -13 10 1 0 23 -24 41 -44 33 -9 -3 -14 -10 -11 -14 7 -11 -5 -40 -17
-40 -5 0 -6 5 -2 12 5 7 2 9 -8 5 -29 -11 -8 31 22 43 42 18 72 9 97 -29 24
-35 32 -88 12 -76 -6 4 -8 14 -4 24 5 12 3 13 -5 5 -22 -21 -7 -49 27 -52 26
-3 34 2 46 23 l14 27 17 -34 17 -33 -4 30 c-5 27 -4 28 9 10 12 -17 19 -55 12
-70 -2 -3 -319 -6 -704 -6 -654 0 -702 -1 -697 -17 4 -16 98 -17 1416 -17 930
0 1415 3 1419 10 4 6 8 13 8 17 0 4 -319 6 -710 5 l-710 -2 0 31 c0 16 7 39
16 50 8 10 13 14 10 9 -2 -6 -1 -17 5 -25 7 -12 9 -10 9 7 0 32 15 36 29 7 9
-21 17 -25 43 -22 36 3 50 31 27 52 -9 8 -10 8 -5 -2 9 -15 -10 -42 -30 -42
-24 0 -33 33 -19 72 11 34 11 36 -4 29 -9 -5 -29 -23 -45 -40 -17 -17 -36 -31
-44 -31 -8 0 -34 18 -60 40 -48 42 -61 46 -42 10 13 -24 10 -72 -5 -77 -7 -2
-9 12 -7 36 3 32 -2 44 -29 76 l-33 37 38 -16 c20 -8 52 -25 69 -37 30 -21 29
-19 -8 20 -102 108 -378 191 -525 157z"/>
<path d="M1390 1944 c0 -10 6 -14 15 -10 10 4 15 -1 15 -14 0 -11 7 -20 15
-20 8 0 15 9 15 21 0 11 -4 18 -9 15 -5 -3 -14 1 -21 9 -16 20 -30 19 -30 -1z"/>
<path d="M1576 1944 c-4 -10 -12 -14 -22 -10 -11 4 -14 1 -12 -11 5 -24 25
-27 33 -4 3 11 9 20 13 18 4 -1 8 2 10 8 6 17 -15 17 -22 -1z"/>
<path d="M682 1908 c-7 -7 -12 -16 -12 -20 0 -13 37 -9 49 5 20 24 -14 38 -37
15z"/>
<path d="M2270 1906 c0 -17 34 -31 50 -21 16 10 -8 35 -31 35 -11 0 -19 -6
-19 -14z"/>
<path d="M336 1855 c-35 -33 -34 -68 4 -95 20 -14 30 -30 30 -47 0 -20 4 -24
19 -20 12 3 27 -3 38 -15 14 -16 27 -19 64 -16 41 4 46 3 41 -14 -6 -24 15
-23 30 2 7 11 21 20 32 20 15 0 16 3 7 14 -10 12 -8 13 9 9 18 -5 21 -2 18 18
-2 18 1 23 15 21 10 -2 17 3 17 12 0 8 4 17 8 20 5 3 7 -7 4 -23 -2 -15 2 -32
10 -38 10 -9 13 -2 13 38 0 27 -2 49 -5 49 -3 0 -24 -10 -48 -22 -32 -17 -42
-28 -38 -41 3 -11 2 -16 -1 -13 -4 3 -15 -1 -25 -11 -28 -25 -123 -30 -149 -7
l-20 18 23 18 c22 16 22 18 6 35 -14 13 -20 15 -30 5 -17 -17 -33 -15 -18 3 7
8 19 15 26 15 17 0 18 16 3 26 -15 9 -57 -15 -61 -35 -3 -11 -6 -9 -10 7 -5
17 -2 25 10 28 34 11 47 22 50 43 5 30 -37 28 -72 -4z"/>
<path d="M2488 1868 c18 -18 15 -56 -6 -67 -37 -20 -90 -23 -121 -8 -17 9 -33
12 -36 8 -6 -11 64 -31 106 -31 42 0 99 33 99 58 0 11 -8 26 -18 35 -21 19
-42 23 -24 5z"/>
<path d="M1781 1817 c42 -28 69 -39 69 -27 0 16 -52 50 -78 50 -24 0 -24 -1 9
-23z"/>
<path d="M2731 1759 c-45 -9 -66 -19 -40 -19 9 -1 6 -5 -7 -13 -11 -7 -41 -29
-65 -50 -37 -32 -39 -37 -17 -28 16 6 39 18 53 27 17 11 34 14 56 9 29 -7 31
-5 26 14 -3 12 -2 19 3 16 4 -2 10 -19 14 -37 5 -25 9 -29 18 -20 10 10 10 17
0 32 -7 11 -8 20 -3 20 6 0 13 -5 16 -10 4 -6 11 -8 16 -4 14 8 0 24 -22 24
-10 0 -19 4 -19 9 0 5 -12 12 -27 14 -26 4 -26 4 4 6 40 1 109 -25 117 -46 8
-20 -4 -39 -14 -23 -8 13 -30 6 -30 -10 0 -14 32 -21 47 -9 21 18 12 59 -17
80 -34 24 -58 28 -109 18z"/>
<path d="M158 1730 c-32 -32 -34 -56 -6 -74 20 -12 45 5 33 24 -5 8 -11 8 -22
-2 -13 -10 -14 -8 -11 12 4 32 48 53 110 54 60 1 37 16 -25 16 -41 0 -53 -5
-79 -30z"/>
<path d="M228 1723 c-27 -4 -35 -13 -21 -26 3 -4 12 -2 20 5 12 10 12 7 2 -15
-13 -28 -8 -44 10 -32 6 3 11 17 11 30 0 12 7 26 16 29 14 5 15 4 5 -8 -18
-22 -5 -39 19 -26 15 8 29 6 57 -7 21 -9 46 -20 57 -25 10 -4 -4 12 -30 37
-50 45 -67 50 -146 38z"/>
<path d="M85 760 c-4 -7 80 -10 246 -10 230 0 250 -1 238 -16 -8 -10 -15 -12
-17 -5 -8 23 -24 10 -19 -15 4 -20 1 -24 -12 -18 -28 14 -80 8 -100 -10 -14
-13 -24 -15 -37 -8 -15 9 -14 11 12 25 16 9 23 16 16 17 -7 0 -33 -11 -57 -25
-31 -18 -51 -24 -69 -19 -18 4 -26 2 -27 -7 0 -8 -4 -4 -9 9 -12 28 -26 28
-33 0 -8 -29 -1 -38 31 -39 15 0 21 -3 14 -6 -20 -8 -80 6 -97 23 -20 20 -21
52 -1 35 16 -13 32 2 21 19 -10 17 -34 11 -45 -11 -9 -16 -8 -26 5 -45 32 -50
84 -52 162 -8 23 13 44 20 47 15 3 -5 -3 -11 -14 -14 -12 -3 -20 -14 -20 -25
0 -12 -4 -23 -9 -27 -12 -7 28 -84 52 -99 12 -8 22 -8 34 0 29 18 26 34 -10
49 -36 15 -57 49 -39 67 6 6 12 0 16 -16 7 -29 32 -34 62 -11 16 12 16 14 3
15 -22 0 -41 24 -33 43 3 8 22 23 42 33 31 14 43 15 80 5 25 -6 53 -23 64 -37
11 -13 42 -36 68 -49 49 -25 67 -41 56 -52 -3 -4 -15 3 -26 15 -25 27 -31 28
-23 5 5 -15 3 -16 -8 -5 -20 18 -57 15 -69 -7 -16 -31 -12 -55 11 -69 21 -13
21 -13 14 24 -6 34 -5 37 10 24 10 -8 19 -10 23 -4 14 19 49 7 103 -34 95 -71
137 -85 265 -84 124 0 196 16 283 63 39 21 58 26 71 19 10 -5 21 -6 25 -2 4 4
6 3 3 -3 -2 -5 -11 -26 -20 -45 -9 -19 -19 -48 -22 -65 -6 -29 -5 -30 31 -32
32 -2 34 0 16 7 -16 6 -23 18 -23 35 0 27 32 98 58 128 14 15 13 17 -4 17 -11
0 -30 -7 -42 -16 -13 -9 -25 -14 -27 -12 -3 2 15 18 39 35 25 18 50 41 56 52
9 18 4 17 -37 -9 -60 -38 -69 -38 -41 1 16 21 23 45 23 74 0 39 2 43 15 29 13
-13 13 -20 -2 -59 -18 -51 -15 -50 45 4 24 22 38 49 19 37 -4 -2 -9 5 -9 16
-2 21 -2 20 18 -1 24 -26 19 -51 -22 -103 -29 -37 -29 -38 -8 -38 l22 0 -21
-23 c-12 -13 -22 -26 -22 -30 0 -11 54 -4 62 7 5 7 11 7 20 -2 6 -6 23 -12 37
-12 l25 0 -29 30 -29 30 31 0 30 0 -33 36 c-35 37 -45 81 -19 81 8 0 12 -4 10
-8 -5 -7 55 -63 61 -56 2 1 -2 19 -8 40 -11 37 0 67 24 67 6 0 5 -7 -2 -15
-19 -23 -4 -78 30 -110 23 -22 42 -29 83 -33 59 -5 127 18 127 42 0 10 -6 13
-15 10 -10 -4 -15 0 -15 14 0 12 -5 24 -10 27 -6 3 -10 1 -10 -5 0 -7 -6 -8
-19 0 -14 7 -28 7 -48 -2 -15 -6 -31 -11 -35 -10 -12 3 -9 -13 4 -26 18 -18
42 -14 56 9 9 15 17 18 24 11 15 -15 1 -30 -41 -43 -29 -8 -43 -8 -59 0 -21
11 -62 78 -62 101 0 17 18 11 23 -7 4 -17 4 -17 12 0 5 12 2 24 -8 35 -23 22
-69 6 -78 -28 l-6 -25 -11 27 c-14 33 -32 45 -33 21 0 -16 -1 -16 -9 2 -5 11
-9 28 -9 38 -1 16 27 17 454 17 399 0 454 -2 449 -15 -4 -8 1 -17 10 -21 16
-6 23 -25 9 -23 -21 3 -24 -3 -12 -18 13 -16 12 -17 -3 -5 -23 18 -36 8 -31
-22 5 -24 -17 -50 -25 -28 -2 7 -8 12 -13 12 -6 0 -8 -4 -5 -9 3 -4 -1 -17 -9
-27 -12 -17 -13 -15 -8 21 4 29 1 44 -10 53 -13 11 -14 7 -10 -30 3 -29 0 -49
-11 -63 -15 -20 -15 -20 -9 3 3 12 1 22 -5 22 -5 0 -13 -15 -16 -34 -5 -28
-14 -37 -46 -50 -57 -22 -60 -20 -19 14 42 34 53 62 33 87 -13 17 -13 17 -14
-3 0 -22 -58 -82 -102 -105 -52 -28 -257 -37 -333 -14 -60 17 -196 84 -229
113 -16 14 -16 11 3 -16 13 -18 41 -45 62 -59 46 -30 46 -42 1 -16 -17 10 -33
15 -36 12 -3 -3 7 -30 24 -60 34 -62 37 -85 13 -111 -9 -10 -11 -18 -5 -18 6
0 14 5 17 11 4 6 14 8 22 5 18 -7 12 18 -21 87 -32 66 -8 54 27 -13 49 -96 28
-170 -45 -156 -31 5 -32 5 -14 -9 11 -8 28 -15 38 -15 24 0 68 44 68 68 0 33
-29 119 -50 145 -30 38 -4 40 66 6 92 -45 152 -59 265 -62 133 -3 178 11 268
79 43 33 81 54 96 54 17 0 24 -4 19 -12 -5 -8 0 -9 15 -5 21 5 23 3 19 -24 -5
-34 -4 -35 24 -10 15 15 19 27 14 45 -7 29 -50 46 -69 27 -6 -6 -16 -11 -21
-11 -6 1 0 10 13 20 42 35 9 21 -43 -18 -28 -22 -65 -46 -81 -55 -58 -30 -233
-68 -221 -48 3 5 27 12 53 16 85 13 171 45 213 80 23 19 62 44 87 55 35 15 44
24 39 37 -4 10 -4 14 0 10 4 -4 16 1 26 10 37 33 115 36 155 7 38 -28 41 -52
9 -60 -33 -8 -33 -17 -1 -34 20 -11 27 -11 40 0 8 7 15 19 15 26 0 8 5 14 11
14 6 0 9 -10 7 -22 -2 -15 -16 -30 -40 -41 -56 -28 -44 -68 15 -53 25 6 72 92
56 102 -5 3 -9 14 -9 25 0 10 -7 19 -15 19 -8 0 -15 6 -15 14 0 11 10 9 43 -9
58 -34 125 -34 156 -1 25 27 25 53 -1 70 -13 8 -21 7 -29 -1 -17 -17 -1 -37
17 -22 11 9 14 7 14 -10 0 -24 -51 -52 -92 -50 -18 1 -16 3 10 10 35 10 45 25
11 16 -17 -4 -19 -3 -10 6 16 16 14 37 -4 37 -9 0 -15 -10 -16 -27 -1 -19 -3
-22 -6 -10 -4 14 -11 17 -30 12 -17 -4 -39 2 -70 20 -25 14 -51 25 -57 25 -6
-1 2 -8 18 -17 24 -12 26 -17 14 -24 -10 -5 -29 -1 -54 11 -35 18 -49 19 -92
2 -8 -3 -13 1 -12 9 1 8 2 21 1 29 -1 13 -2 13 -11 0 -8 -13 -10 -12 -10 3 0
16 18 17 240 17 153 0 240 4 240 10 0 14 -2836 14 -2845 0z m1405 -35 c0 -17
-4 -23 -15 -19 -9 4 -17 -1 -20 -10 -16 -51 -17 -52 -27 -23 -12 33 -53 47
-75 24 -10 -10 -13 -22 -8 -34 6 -16 8 -15 17 7 18 45 21 1 3 -46 -19 -50 -39
-65 -87 -63 -27 1 -29 3 -8 6 24 5 40 19 40 36 0 5 -4 5 -10 2 -5 -3 -10 0
-10 8 0 17 -45 31 -63 20 -7 -4 -19 -8 -27 -8 -9 0 -15 -9 -14 -23 0 -17 -4
-21 -18 -16 -13 4 -16 1 -12 -9 9 -25 60 -40 121 -35 50 4 54 3 37 -9 -10 -8
-49 -23 -86 -34 -55 -17 -85 -20 -160 -16 -123 7 -148 11 -176 26 -37 20 -102
82 -102 97 0 18 -16 18 -23 0 -8 -21 15 -58 52 -83 40 -27 39 -28 -21 -8 -44
16 -68 44 -68 81 0 8 -5 12 -10 9 -7 -4 -6 -14 2 -28 10 -19 9 -20 -4 -9 -20
16 -28 60 -17 89 5 14 5 23 -1 23 -19 0 -31 -49 -18 -73 10 -20 10 -21 -5 -8
-10 7 -17 20 -17 28 0 12 -3 13 -14 4 -17 -14 -29 0 -20 23 6 16 -2 19 -36 17
-10 0 -11 1 -2 5 18 8 15 24 -5 24 -17 1 -17 1 0 11 9 5 17 17 17 24 0 13 63
15 445 15 l445 0 0 -25z m-238 -112 c-6 -2 -10 -9 -6 -14 10 -17 -7 -31 -22
-18 -17 14 -1 39 25 38 10 0 12 -2 3 -6z m-513 -87 c17 -15 129 -50 196 -62
40 -7 80 -23 58 -24 -65 -1 -249 56 -274 86 -15 18 0 18 20 0z"/>
<path d="M1049 681 c-32 -33 -36 -56 -15 -106 23 -53 96 -81 171 -66 22 5 33
9 25 10 -74 6 -170 73 -170 119 0 14 10 36 22 49 32 34 2 28 -33 -6z"/>
<path d="M1918 693 c32 -22 30 -72 -5 -105 -40 -37 -87 -58 -130 -58 -28 0
-34 -3 -23 -10 23 -15 127 -12 159 5 16 8 36 30 45 49 28 59 20 98 -25 121
-37 20 -50 18 -21 -2z"/>
<path d="M535 598 c-37 -10 -56 -25 -79 -60 -18 -27 -18 -28 0 -28 11 0 27 14
36 30 21 37 60 53 111 47 46 -6 43 2 -5 12 -18 4 -46 4 -63 -1z"/>
<path d="M2433 590 c54 -9 75 -23 88 -57 9 -25 39 -32 39 -9 0 8 -16 28 -35
45 -31 27 -43 31 -88 30 l-52 -1 48 -8z"/>
<path d="M291 546 c-18 -46 0 -86 51 -112 28 -15 28 -15 24 12 -3 15 -15 37
-26 49 -12 12 -25 35 -29 51 l-8 29 -12 -29z"/>
<path d="M2697 541 c-4 -18 -18 -42 -32 -55 -29 -27 -41 -66 -20 -66 7 0 27
12 44 26 24 20 31 34 31 62 0 52 -15 73 -23 33z"/>
<path d="M2280 485 c-10 -12 -9 -16 4 -21 22 -8 46 2 46 21 0 19 -34 20 -50 0z"/>
<path d="M672 478 c7 -21 36 -34 49 -21 6 6 8 16 5 22 -10 15 -59 14 -54 -1z"/>
<path d="M1285 449 c-71 -52 -78 -60 -67 -71 15 -15 43 -2 36 16 -4 11 0 13
16 9 19 -5 21 -3 15 15 -5 17 -3 21 9 16 10 -4 16 -1 16 9 0 8 6 17 13 20 6 2
10 7 7 10 -3 3 -23 -8 -45 -24z"/>
<path d="M1334 434 c-45 -76 -43 -164 3 -176 20 -5 88 10 80 18 -3 3 6 22 19
41 23 34 33 93 16 93 -4 0 -18 -7 -30 -16 -12 -8 -22 -10 -22 -5 0 17 40 52
50 46 6 -4 10 0 10 8 0 23 -28 29 -35 8 -3 -11 -14 -21 -25 -24 -28 -7 -12
-61 19 -65 l23 -4 -23 -24 c-12 -13 -31 -24 -41 -24 -23 0 -23 -16 0 -29 15
-9 15 -10 -4 -11 -62 -1 -75 69 -29 159 32 63 25 67 -11 5z"/>
<path d="M1470 460 c0 -6 7 -13 16 -17 13 -5 13 -7 2 -14 -10 -7 -9 -9 3 -9
14 0 35 28 27 35 -12 11 -48 14 -48 5z"/>
<path d="M1696 453 c-12 -12 -6 -25 9 -19 11 4 15 0 13 -12 -2 -11 3 -16 15
-15 12 0 17 -4 13 -13 -6 -16 17 -29 33 -20 6 4 8 13 5 20 -7 18 -80 67 -88
59z"/>
<path d="M1475 401 c-3 -7 3 -11 14 -11 12 0 21 -4 21 -10 0 -5 -7 -7 -15 -4
-11 5 -15 -1 -16 -22 -1 -16 0 -33 1 -39 1 -5 3 -15 3 -21 1 -21 26 -10 36 15
13 34 0 95 -21 99 -9 2 -19 -2 -23 -7z"/>
<path d="M1537 396 c-3 -8 3 -31 14 -52 23 -46 23 -50 4 -34 -8 7 -15 8 -15 4
0 -26 89 -41 97 -16 3 7 -4 12 -15 12 -17 0 -52 28 -52 42 0 3 9 8 20 11 25 6
27 32 3 33 -10 1 -25 4 -34 8 -10 5 -19 2 -22 -8z"/>
<path d="M1435 299 c-13 -15 -14 -19 -3 -11 10 8 18 9 22 3 4 -5 -1 -14 -10
-19 -9 -5 -14 -14 -11 -20 8 -12 74 -8 67 4 -2 5 -10 8 -16 6 -6 -1 -15 12
-20 29 l-9 31 -20 -23z"/>
<path d="M1526 273 c-7 -17 11 -35 28 -30 18 6 16 22 -3 34 -16 10 -20 9 -25
-4z"/>
<path d="M1462 198 c2 -19 9 -23 38 -23 28 0 35 4 35 19 0 11 -6 21 -12 24 -7
2 -13 -3 -13 -12 0 -9 -7 -16 -15 -16 -8 0 -15 7 -15 15 0 8 -5 15 -11 15 -6
0 -9 -10 -7 -22z"/>
<path d="M1440 163 c-9 -2 -21 -12 -28 -23 -10 -17 -10 -20 7 -20 20 0 45 24
39 38 -1 4 -10 6 -18 5z"/>
<path d="M1544 159 c-8 -14 15 -39 38 -39 15 0 17 3 9 19 -13 23 -38 34 -47
20z"/>
<path d="M1476 133 c-17 -23 -17 -26 -3 -20 20 7 23 -13 5 -31 -9 -9 -5 -12
20 -12 l32 0 -17 27 c-16 24 -16 26 -1 21 24 -10 30 3 11 24 -21 23 -24 23
-47 -9z"/>
</g>
</svg>
