<?xml version="1.0" encoding="UTF-8"?>
<svg id="Layer_1" data-name="Layer 1" xmlns="http://www.w3.org/2000/svg" version="1.1" viewBox="0 0 1024 1024">
  <defs>
    <style>
      .cls-1 {
        fill: #000;
        stroke-width: 0px;
      }
    </style>
  </defs>
  <path class="cls-1" d="M509,8.9c-3.2,11.6-8,20.7-13.7,26.1-2.4,2.2-10.9,8.2-18.8,13.1-23.4,14.3-34.2,24.9-42.4,40.8-5.9,11.8-7.2,18.8-6.7,35,.5,12.5,1,15.6,4.2,24.3,4.4,11.9,12.3,26.9,22.6,42.7,12.9,19.9,15.7,28.2,10.6,31-2.9,1.7-5.1-.5-10.9-11.3-8.6-15.8-17.9-23.3-33.9-26.8-29.3-6.4-63.4,7-75.5,29.5-6.1,11.7-9.2,28.7-5.3,30.1.9.4,3.6-.6,5.7-2.1,10.1-7.1,18.1-7.4,32.5-1.1,15.4,6.8,28.9,21.3,40,42.6,8.4,16.3,16.5,36.7,34.9,88,27.1,75.9,35,95.1,48.9,118l6.4,10.6-.7-11.6c-.8-14.2-5.3-42.8-9.8-62.8-1.8-8.2-3.2-15-3.1-15.2.3-.2,4,8.5,8.8,20.3,1.3,3.4,2.6,6,3,5.6s1.3-28.1,2-61.6c1.1-48.9,1.1-66.6,0-88.5-2.4-44.7-1.8-68.9,2-82.9,1.1-3.8,1.6-4.5,2.4-3,4.5,7.3,5.6,46.7,2.6,86.1-1.6,19.2-1.6,31-.5,86.6.9,47,1,65.5.1,68.4-.7,2.3-1.1,4.4-.9,4.6.6.5,17.6-37.8,22.7-51.2,4.9-12.8,10.6-32.7,11.7-42l.8-5.8-4.5,8.5c-5.2,9.8-15.7,24.7-14.6,20.7,6.1-22.4,7.2-37,4.7-59.1-4.2-36.6-1.3-52.7,12.3-66.8,6.8-7.2,15.5-12.1,32.6-18.4,8-3,19.9-8.1,26.2-11.3,16.7-8.6,22.3-10.4,35-10.9l10.9-.5-.3-5.5-.3-5.4,5.5,5.5c3.1,3,7.1,8,9.1,11.2l3.4,5.6h-12.6c-11.5.1-13.7.4-21.4,3.3-24.6,9.1-43.1,28.1-53.4,54.9-4.8,12.5-8.5,28.1-14.2,59.7-10.3,57.3-14.1,69.4-32.7,105.7-12.2,23.7-19.1,43.3-19.1,54.2s16.4-26,23.1-41.4c3.9-9,17-44.2,29.2-78.1,23.2-64.8,30.4-83.2,39.2-98.8,13.1-23.7,31-39.2,49.4-43,7.6-1.6,13.2-.5,20,3.8,8.2,5.2,9.2,4.9,9.2-2.6,0-12.5-5.6-26-14.7-35.4-18.7-19.3-54.4-25.6-79.5-14-10,4.6-16,10.6-23.5,23.8-6.1,10.6-9.4,13-12.1,8.4-2.2-3.8,1.5-12.3,13.3-30.4,19.4-29.4,26.4-45.9,27.7-65.2.9-13.9-1.6-25.2-8.5-38.3-7.1-13.6-20-25.6-41.5-38.8-8.3-5.1-17-11.3-19.3-13.6-5.2-5.2-9.1-13.1-12.6-25-1.5-4.9-2.9-9.1-3-9.4-.2-.1-1.6,3.8-3,8.9ZM513.4,51.9c0,8.1,3.7,46,8.6,89.6,10,88.9,10.7,106.2,4.8,140.8-1.3,7.1-1.4,4.8-1.4-21.8s-.7-34.7-1.5-41.4c-.8-6.5-3.6-28.9-6.1-49.9-6.2-52.1-5.9-49.8-7-38.8-1.8,16.3-8.8,73.5-10.8,88.2-1.4,10.1-2.1,22.6-2.1,42.2-.1,15.3-.2,27.7-.3,27.6-.7-.7-3-20-3.8-32.6-1.3-20.3,0-40.2,6.3-98.2,6.9-64.5,10.9-104.9,10.9-110.3s.3-4.1,1.1-3c.6.9,1.1,4.4,1.1,7.7ZM525.1,52.1c1,1.4,7.5,6,14.4,10.3,17.2,10.9,29.7,22.6,35.1,32.8,6.5,12.2,8,19.4,7.5,34.5-.5,9.6-1.1,14.1-3,18.5-2.6,6.3-7.7,13.9-9.3,13.9s-1.3-5.1-1.6-11.5c-.9-13.5-4-25.5-9.3-35.8-4.1-8.1-8.3-13.2-22.4-27.6-5.2-5.2-10.7-11.9-12.2-14.9-3.7-6.8-5.4-15.7-4.5-21.8.7-4,1-4.5,2.1-2.8.7,1.1,2.2,3,3.2,4.3ZM427.6,193.5c6.7,2.6,12.3,7.9,20.2,19.1,4,5.8,11.8,15.1,17.2,20.4,16,15.8,22.1,27.2,24.2,44.7,1,8.4.8,13.1-2.4,44.5-1.7,17.3-.3,31,4.6,46.5,3.8,11.9,2.5,11.3-4.5-2.1-6.4-12.2-7.9-18.7-9.8-42-.9-12.4-2.5-24-3.9-28.9-4.2-15.3-12.4-28.9-25.8-43.4-8-8.6-9.5-12.6-7.7-20.8,2.6-12.5,1-19.3-6.5-27.2-5.3-5.3-14.4-10.4-18.6-10.4s-2.1-.5-1.7-1.1c1-1.6,10.1-1.3,14.7.5Z"/>
  <path class="cls-1" d="M369.8,257.8c-29.2,5.6-48.5,36.1-40.8,64.3.9,3.5,4.7,11.9,8.3,18.6,7.4,14,8.8,20.4,5.2,22.2-2,1-2.9.7-4.8-1.2-1.3-1.3-2.3-2.8-2.3-3.3s-3.1-6.9-6.9-14.1c-11.3-21.6-24.3-31.9-47.9-37.8-13-3.2-34.1-3.2-47.4,0-19.6,4.9-38.5,15.7-50.6,29.3-7.9,8.8-16.3,23.8-18.8,33.6-2.2,9-2.3,27.7,0,34.6,2.2,6.8,7.5,14.2,11.9,16.7s5.3,1.1,3.6-5.7c-2.9-11.2,2.2-22,16-34.2,20.9-18.4,41.6-26.2,69.4-26.2s25.8,1.7,42.1,6.6c21.2,6.4,50,21.6,65.1,34.2l7.1,6.1.8-3.8c2-10.1-2.1-19.6-16.7-38.7-11.9-15.6-16.5-23.7-19.2-33-2.4-8.7-1.7-19.1,1.6-25.5,1.4-2.7,2.3-3.8,1.8-2.7-1.6,5.2-.5,18.5,2.2,25.3,3.8,9.6,7.1,14.5,20.2,29.8,6.2,7.4,13.2,16.2,15.4,19.6,4.6,7,8.8,17.9,8.8,22.5s-3.4,11.9-7.4,13.5q-3.6,1.4-.6,1.5c7.1.1,40.8,37.3,61,67.4,10,14.8,25.5,42.7,32.5,58.6,5.9,13.1,15.6,38.9,15.3,40.1-.2.5-3.1-5.6-6.5-13.7-21.9-52.3-54.9-100.3-94.9-138.4-22.5-21.4-39.5-32.9-65.5-44.3-38.7-16.9-74-19.8-101.9-8.2-9.2,3.7-10.3,5.3-4.7,6.2,9.3,1.5,19.6,4.9,27.3,9.1,22.4,12.4,37.9,28.4,68.9,70.6,25.4,34.5,29.3,38.7,52.8,56.1,35,26,49,38.5,60.2,53.8,7.1,9.7,34.2,61,42.5,80.3,6.2,14.5,28.9,65.4,35.8,80,1.1,2.6,2.8,4.5,3.6,4.3,1.5-.5,6.1-10.4,30.7-66.7,18.4-41.9,42.6-88.5,52.4-101,10.6-13.2,31.2-31.2,60.3-52.6,19.4-14.2,26-21.4,50-54.2,18.8-25.9,27-35.7,41.2-49.2,18.3-17.4,37.7-28.1,53.6-29.6,3.9-.3,6.7-1.1,6.4-1.7-.7-2-14.9-8.1-23.2-9.9-37-8-82.8,4.3-124.8,33.6-10.1,7-10.7,7.3-11.5,5-.6-1.9-.7-1.8-.8,1.1-.1,3.2-.5,3.5-3.8,3.6-3,.1-3.2.3-1,.6,2.4.4,1.6,1.5-8.7,10.7-38.6,34.7-72.2,82.8-95.1,135.4-3.7,8.6-6.9,15.5-7.1,15.3-.6-.4,7.8-22.7,13.6-35.9,18-42,43.4-79.3,77.3-113.9,5.7-5.8,11.7-11.1,13.4-11.6l3-1.1-3.2-2.6c-4.5-3.5-6.1-9.5-4.6-16.8,2.1-10.2,8.6-20.3,25.8-39.9,16.2-18.4,22.3-32,21-47.3l-.6-7.4,2.4,4.8c2,3.7,2.4,6.7,2.3,13.8-.1,14.9-4.8,24.8-21.7,45.8-13.7,17.1-18.3,28.3-15.4,38l1.3,4.4,3.4-3.7c7.6-8,34.5-24.4,52.3-32,11.1-4.7,27.9-9.5,38.6-11.1,13.2-2,37.2-.9,47.4,2.1,23.7,7,47,23.6,54.7,38.8,3.7,7.1,4,11.2,2,23.3-.7,3.7,2.6,3,7.7-1.8,15.6-15.1,14-49.1-3.4-73.5-13.6-18.8-33.4-31.6-59-37.9-12.9-3.2-34.2-3.2-46.6.1-26.2,6.8-39.9,18.9-51.1,45.3-2.1,4.7-4.1,9.1-4.8,9.8-1.7,1.9-6.3,1.7-7.1-.3-1.5-3.5-.5-6.7,6.3-19.7,8.3-16,10.2-22.2,10.2-32.8,0-15.3-5.3-27.4-16.5-37.7-12.6-11.8-28.3-16.4-42.6-12.5-1.7.5-1,1,3.1,2.1,3.9,1.1,6,2.3,7.7,5,4.6,6.8,7.1,15.6,7.1,24.3.1,11.4-3.2,17.6-13.7,26-13.6,10.8-25.6,21.9-30.7,27.8-15.4,18.5-30.7,47.5-56.8,108.4-19.8,45.6-31,77.8-31,88s1.1,8.5,2.4,14c11.7,49.8,11.7,101.9,0,130.8-2.4,5.7-11.3,19.7-12.1,18.9s1.4-9.8,3.6-21.1c3.9-19.7,4.1-22,4.2-46.2,0-19.9-.3-27.6-1.8-35.2-3.7-17.9-20.3-75.9-27.8-96.4-20.7-57.3-53.9-128.1-71.9-153.7-7-10-18.3-21-35.8-35.4-11.7-9.6-14.1-14.2-14-26.4.2-15.1,6-26.6,14.4-28.8,2.5-.7,4.1-1.7,3.6-2.2-1.5-1.4-11.7-1.9-17.5-.9ZM697.2,405c-8.5,8.3-10.5,13.3-11.7,29.8-1.6,20.7-5.9,32-17.7,46.2-9.5,11.5-20.9,20.2-47.7,37-17.2,10.7-25.7,17.7-33.8,27.8-6.1,7.7-24.6,41.6-31.5,57.9-4,9.5-11.7,30.5-13.2,36.1-1,3.9-.8-10.8.3-27.3,2.1-27.3,6-41.7,16.9-62,12.3-22.5,39.4-60.9,59.7-84.5,14.7-17.2,42-42.7,55.1-51.5,9-6.1,26.1-15.3,28.4-15.4.6,0-1.6,2.7-4.9,5.8ZM358.3,419.7c47.8,35.3,105,117.1,131.2,187.8,12.4,33.7,19.2,69.7,16,85.5-.8,4-.9,3.8-2.3-4.8-3.9-24.4-11.4-49.6-20.4-69.1-2.9-6.2-13.7-26.8-24-45.8-21-38.8-24.6-43.6-37.4-49.8-13.7-6.6-16.3-10.8-14.8-23.7,1.3-10.7-.2-18.9-4.9-27.7-4.8-9.1-11-15.9-27.3-29.6-13.7-11.6-31.9-31.6-28.8-31.6s6.4,4,13,8.8Z"/>
  <path class="cls-1" d="M134.7,450c-5.6,2.4-10.7,8.4-14.4,17-2.1,4.9-2.5,8.1-2.5,18.2-.1,11.5.1,12.5,3.3,18.6,7.1,13.2,26.9,27.4,43.1,31.1,2.9.6,6.2,1.5,7.5,1.7,1.3.3-2.1.3-7.5.1-6-.2-16.1-1.8-26.1-4.1-20.8-4.9-30.7-5.7-40.2-3.5-17.5,4.3-28.1,12-45.5,33.5-14,17.3-17.6,19.9-28.3,19.9-8.6-.1-13.3-1.9-19.9-7.8-3.9-3.4-4.4-3.6-4.4-1.6,0,3.6,4.1,14.8,7.4,19.9,8.4,13.3,32.7,23.7,53.5,22.7,9.9-.4,20.6-4.4,28-10.5,4.4-3.5,4.4-3.4-1.8,5-24,32.6-35.9,70.9-32.2,103.3,3.6,30,14.6,52.7,34.7,71.5,16.8,15.6,34.6,24.7,57.8,29,10.8,2.1,31,2.1,41.1.2,30-6,56.5-27.9,63.6-52.8,2.2-7.4,2.2-27,0-36.6-.9-4.1-3.6-10.9-5.9-15.3-10.6-19.8-34.5-32.2-55.8-28.9-19.8,3-32.3,15.4-32.4,32.1,0,16.7,14.4,29.3,30.8,27.1,13.6-1.9,19.1-18.4,9.1-26.9-7-5.8-2.3-10.3,6-5.6,10,5.7,13.4,23.6,7,36.7-4,8.3-10.7,14.5-19.5,18.3-6.2,2.7-8.3,3-18.5,3s-12.1-.2-19.2-3.5c-15.4-7-28.6-24.7-32.6-43.8-6.1-28.7,8.6-62.2,37-84.3,28.5-22.2,68.9-33.6,104.3-29.5,18.7,2.2,61,13.2,78.2,20.4l5.7,2.3-7,.9c-19.1,2.1-39,15.1-47.2,30.5-3,5.5-3.2,7.1-3.2,17.7s.1,12,4.1,19.7c5.3,10.3,15.6,20.7,25.4,25.5,5.6,2.8,8.8,3.6,15.5,4,9.1.5,10.9-.6,4.5-2.8-5.3-1.8-11.8-8.7-12.9-13.5-1.6-7.9,2.9-15.5,11.9-20.4,4.6-2.6,6.9-3,16.4-3.3,9.8-.4,12.6,0,24,2.9,15.3,3.9,36.8,11.8,52.7,19.1,22.5,10.5,39.7,22,60,40.2,7.4,6.6,14.2,12,15.3,12,2.2,0,5.3-5.8,5.3-10.1s2-3.1,2.8,1.5c.3,2.3,1.8,5.5,3.3,7l2.6,2.9,8.5-8.2c26.1-25.1,58.3-43.9,98.8-57.7,24.3-8.3,32-10,43.5-9.6,12.7.4,19.6,3.3,24.5,10.3,3,4.3,3.3,5.6,3,10.9-.6,7.4-4.7,13-11.9,15.9-2.8,1.1-5.1,2.3-5.1,2.7s4,.4,9,.1c11.6-.6,20.6-4.9,30.1-14.2,24.5-24.2,20.2-56.2-9.9-73.7-8.4-4.9-22.4-9.6-28.7-9.6s-4.1-1.3,8.7-5.6c59.7-20.5,92.6-23.3,131-11.4,50.6,15.7,85,56.7,82.2,98.4-1.1,17.5-11,37.5-23.1,46.7-20,15.1-50,12.8-63.3-5.2-10.3-13.9-10-32.5.7-41.6,5.1-4.1,9.5-4.9,11.4-1.7.9,1.7.6,2.6-2.2,4.6-4.6,3.6-5.9,6.3-5.9,12.3,0,14,15.8,20.4,30.5,12.4,20.8-11.3,17.8-41.2-5.2-52.1-28.6-13.4-65.1,5.4-74.2,38.3-2.5,9.5-2.4,32.5.5,40.7,8.2,24.2,31.2,43.4,61,50.3,8.3,1.9,11.8,2.2,25.3,1.7,17.9-.6,28.7-2.9,43.2-9.1,33.7-14.6,55.6-41.6,64.3-78.7,3-12.5,3-40.5.1-53.1-4.7-20.3-14.6-42.2-27.7-61-3.2-4.7-6.4-9.4-7-10.2s1.3.2,3.9,2.6c14.8,12.2,35.8,13.4,59.3,3.4,10.8-4.6,19.1-11.8,23.5-20.2,3.1-5.8,6.2-16.5,5.1-17.5s-2,1.1-3.8,3c-4.2,4.3-14.4,8.6-20,8.6s-11.9-2.4-16.2-6.2c-1.7-1.6-6.9-7.7-11.4-13.5-11.6-15.1-22.6-25-33.1-29.5-16.8-7.3-26.4-7.5-54.6-1.2-16.7,3.7-32.6,6-32.6,4.6s2.3-1.1,5.2-1.4c15.7-2.2,38.2-18.5,45.6-33.2,3.2-6.5,3.7-8.4,3.7-16.4s-3.4-22.3-8.8-28.9c-4.1-5-12.1-9.4-17.2-9.4h-3.3l3,3.7c4.7,5.7,6.4,10.4,6.4,17.9s-4.1,15.2-12.9,19.9c-14.1,7.5-26.1,9.4-67,10.6-28.8.9-32,1.2-44.8,4.1-56.4,13-103.5,34.6-131.5,60.5-6.5,6.1-15.7,13.9-20.2,17.3-22.3,16.8-39.2,39.6-56.2,75.8-6.7,14.3-11.3,25.1-24.1,57.5-8.3,20.7-11.7,26.7-16,27.7-6.9,1.6-9.2-2-23.7-37.8-27.8-68.6-46.2-98.4-73.8-120.5-4.5-3.5-13.9-11.8-21-18.3-26.4-24.3-63.4-42.8-115.3-57.5-25.5-7.1-30.1-7.8-64.3-8.8-18.5-.5-35.1-1.6-40.2-2.6-24.9-4.5-37.7-12.9-38.8-25.6-.7-8.2.5-12.3,4.9-18.5l4-5.4h-3.1c-1.8,0-5.4,1-8,2ZM285.6,535.1c40.1,7.2,77.9,26.8,109,56.5,18.3,17.5,34.9,38.8,55,70.6,10.7,16.9,29.6,50.4,26.4,46.8-1-1.2-12.9-17.4-26.2-36.1-30.7-42.9-38.7-52.6-59.4-71.8-25.8-24-48.7-37.7-77.8-46.5-17.9-5.5-31.4-7.5-54.3-8.3-32-1.1-51.3,2.2-74.2,12.5-57.8,26-95.3,69.7-109,127-3.9,16.4-4.1,16.7-3.3,4.7,1.7-27.4,12.9-58.6,28.8-80.6,7.4-10.1,26.2-28.8,38.1-37.8,43.1-32.4,96.5-45.9,146.8-36.9ZM802.2,535.7c37.2,6.9,68,22,96.2,47.3,14.5,12.9,24.7,25,32.2,38,11.7,20.6,20.1,47.2,21,66.6l.5,11.7-2.3-10.1c-6.2-26.1-19.1-53.7-34-73-18.3-23.6-52.6-48.6-83-60.4-20.8-8.2-38.8-10.7-68.4-9.8-32,1-50.6,5.1-75.8,16.7-20.6,9.5-37.1,20.7-55.7,38.2-17.9,16.7-27.6,28.2-53.9,64.4-11.6,15.7-22.1,29.6-23.3,30.8-3.4,3.1,10.8-22.1,23.7-41.8,27.6-42.4,48.6-65.5,78.2-86,27.8-19.2,60.4-31.9,91.3-35.3,14.6-1.6,37.2-.5,53.4,2.6ZM263.3,579.9c23.5,4,48.2,13,70.4,25.7,12.1,6.9,19.2,12.1,9.6,7-35.4-18.9-83.3-29.2-117.9-25.5-57.3,6.2-102.9,40.2-115.9,86.7-6.5,23.4-4.6,50.5,4.9,68.3,14.8,27.8,53.4,40.2,82.6,26.5,15.6-7.3,27.2-22.8,27.3-36.7.1-3.9-.2-8.6-.8-10.3-.8-3-.7-3.1.8-1.2,2.5,3,4.5,13,3.6,18.5-3,18.6-17.7,34-37.8,39.7-6.3,1.8-10.9,2.3-20.2,2.3-21.9-.1-37.2-6-52.4-20-10.7-10-16.2-19.1-20.1-33.6-3.4-12.8-2.6-38.2,1.6-53.5,13.9-49.1,50.5-80.9,107.3-93.1,21.6-4.7,34.3-4.9,57-1.1ZM813.2,580.2c16.9,3.3,28.5,6.9,43,13.5,40.5,18.5,66.5,54.9,71.9,100.7,2.4,19.9-1.4,39.1-10.6,54.1-6.2,10-18.4,20.4-29.7,25.5-12.9,5.6-20,7.1-33.9,7-20.7,0-36.9-6.9-47.9-20.4-10-12.2-12.9-28.7-6.8-39,2.1-3.7,2.3-3.8,1.5-1.1-.5,1.7-.8,6.8-.8,11.2,0,10.9,4.5,19.4,14.8,28.5,11.5,9.9,22.5,13.9,38,14,30.1,0,53.6-17.6,62.2-46.8,1.6-5.3,2.1-10.9,2.1-25,0-21.1-2.1-30.7-10.3-46.9-6.7-13.3-13.1-21.7-24-31.9-19.4-18-46.6-30.8-75.3-35.6-12.1-2-41.6-1.8-54.6.5-23.4,4-48.8,12.2-68.3,22-4.7,2.4-8,3.9-7.5,3.3,2.6-2.4,19.5-12,30.3-17.1,37-17.5,72.2-23.2,105.9-16.7ZM660.1,637.1c-9,6.3-13.1,10.9-18.5,20.8-8.8,16.3-13.2,19.6-43.4,32.4-20.6,8.8-36.4,17.9-49.8,28.5-4.4,3.5-8.3,6.3-8.5,6-.8-.7,16.7-19.2,29.1-30.7,31.5-28.8,66.5-52.2,90.6-60,8.7-2.9,8.7-2.7.6,3.1Z"/>
  <path class="cls-1" d="M415.7,725.6c-5.3,1.4-7.1,3-3.3,3s5.7.7,9.2,1.7l6.2,1.8-9.8,1.8c-5.4,1.1-12.1,2.9-14.7,4.1-16.3,7.8-27.9,26.7-26.3,42.8.7,6.5,4.8,17.9,6.5,17.9s1.1-1.9,1.6-4.1c.8-5.1,3-6.8,3-2.6s3.3,10.3,6.5,13.7c7.7,8.2,25.2,14.1,36.9,12.5l5.1-.7-4.4-2.2c-2.4-1.3-5.6-3.9-7.1-6-3.6-4.8-3.1-12.6,1-18.7l2.8-4.1.6,5.8c.3,3.2,1.3,6.9,2.1,8.2,1.8,3.1,6.9,6.7,9.4,6.7s1.8-.6.9-5.6c-1.7-10.4,1.5-20.7,8-25.1,1.8-1.2,5.7-2.7,8.6-3.4,7.1-1.6,29.6-.7,36.2,1.4,2.6,1,4.8,1.4,4.7,1-.1-2.1-12.5-23.2-15.8-27-9.2-10.5-22.6-18-39.6-22-9.6-2.2-21.6-2.7-28.3-.9ZM458.4,741.2c3.4,1.3,7.4,3,8.6,3.8,2,1.5,1.7,1.6-3.6.9-13.3-1.9-27.4,0-33.3,4.5l-3.4,2.7,6.8-2.1c12.6-3.9,26.1-1.9,34.2,5.1l4.5,3.9h-14.1c-22.9.1-40.2,4.8-49.3,13.5-5.2,5-7.2,9.9-7.2,18.2v6.2c-.1,0-1.7-3.5-1.7-3.5-.9-2-1.5-7.1-1.5-12.3s-.1-8.7-.3-8.7c-.3,0-3.3,1.3-6.8,2.9-3.6,1.6-6.7,2.6-7.1,2.2-1.4-1.4,3.2-14.1,6.8-18.8,7-8.9,24-17.7,39.4-20.3,8.3-1.4,20.9-.5,28.1,2Z"/>
  <path class="cls-1" d="M581.7,726c-4.4.9-12.9,3.7-18.7,6.4-15.3,6.8-23.4,14.7-31.8,30.5-3.4,6.6-6.1,11.9-6,12s3.6-.4,7.7-1.3c9-1.7,27.6-1.9,33.9-.3,6.1,1.6,12.6,7.8,14.4,13.7.8,2.9,1.1,7.9.8,12.4-.6,6.9-.5,7.8,1.4,7.8s7.7-3.6,9.5-6.7c.8-1.3,1.7-5,2.1-8.2l.6-5.8,2.9,4.3c2.2,3.2,2.9,5.7,2.9,10.3,0,7-2.4,10.7-9.1,14.2l-4.4,2.2,4.2.7c9.8,1.7,25.7-2.9,33.9-9.7,6.7-5.5,8.8-8.8,9.9-15.2.7-3.8,1-4.1,2-2.6.7,1.1,1.6,3.4,2,5.2l.8,3.2,2.5-5c5.9-11.9,5.5-23.2-1.3-35.9-6.9-13-20.7-22.1-37.1-24.8-4.1-.6-7.5-1.5-7.5-1.8,0-1,9.8-3.2,14.1-3.2h3.7c0-.1-3.3-1.8-3.3-1.8-4.8-2.3-20.1-2.8-30-.7ZM605.1,742c15.2,4.7,27.2,13.8,32,24,.7,1.6,1.6,5.3,2.1,8.3l.8,5.3-5.1-2.6q-9.6-4.9-9.3,3.9c.2,4.6-.3,9.6-1.4,12.4l-1.6,4.8v-5.7c-.5-15.8-9.5-24.8-30.9-30-6.8-1.7-12.7-2.2-24.3-2.3h-15.4c0-.1,4.9-4.1,4.9-4.1,8.7-7.2,24.3-9.2,36.2-4.7,5.9,2.3,3.6-.2-2.5-2.8-9.4-3.8-25.4-4.5-34.2-1.3-2,.7-2.1.6-.8-.9,1.8-2.1,11.5-6,17.8-7.2,7.6-1.5,22.2-.2,31.7,2.8Z"/>
  <path class="cls-1" d="M509.4,761.2c-3.3,4.1-3.3,4.3-5.2,2.1-1.1-1.2-2.5-1.8-3.2-1.4-1.7,1-1.7,9.4,0,12.9,1.5,3.2,3.3,3.4,6,.6,1.1-1.2,3.7-2.4,5.6-2.9,3-.5,3.9-.2,6.2,2.3,1.8,2.2,2.9,2.8,3.8,1.9,1.8-1.7,3.4-9,2.6-11.9-.7-2.6-1.3-2.8-3.8-1.3s-2.5.1-5.3-2.9l-3.4-3.8-3.3,4.3Z"/>
  <path class="cls-1" d="M462.3,778.4c-9,2.1-12.6,5.4-14.4,12.4l-.8,3.4,21.9.4c18.6.4,23.4.9,31.9,3.1,9.2,2.3,10.5,2.3,16.7,1.1,3.7-.7,9.8-2,13.6-2.9,4.4-.9,14-1.5,26.2-1.5h19.2v-2.6c0-3.7-4.7-9.5-9.8-11.8-6.5-3.1-26.4-3-38.5.2-14.5,3.7-18.8,3.9-30.4.9-10.9-3-29.3-4.4-35.6-2.8Z"/>
  <path class="cls-1" d="M449.4,800.5c-2.8.4-3.2,2.3-1.6,6.1,2.1,4.9-3.8,27.2-10.5,39.3-14.1,25.8-51.1,35-75.5,18.7-6.3-4.4-8.6-7.9-9.3-14.9l-.6-5.8-5.2-.3c-10.6-.5-17.1,5.2-18.3,15.8l-.7,6.7-4.5-3.6c-7.8-6.5-9.4-14.1-3.8-18.9,1.4-1.2,5.5-2.9,9.2-3.7,3.8-1,7.1-2,7.5-2.3,1.4-1.2-5.7-5.7-11.8-7.7-8.3-2.6-17.5-2.1-24.9,1-8.7,3.7-12.9,7.4-16.9,14.9-3.1,5.5-3.6,7.7-3.6,14.7,0,26.2,21.1,50.5,52.3,59.9,16.2,4.9,38.8,4,61.7-2.1,1.7-.4,1.5.3-1.1,5-4,7.2-4.8,19-2,28.1,1.5,4.9,3.2,7.4,8.5,12.3s7.9,6.5,14.9,8.5c9.4,2.6,17.9,2.3,24.2-.6l3.8-1.8-7.4-3.6c-13.2-6.5-18-14.3-14.2-23.4,1-2.6,2.2-4.7,2.5-4.7s2.1,1,3.8,2.1c12.1,8,25.5,8.5,31.9,1.3.7-1,1.4-2.4,1.4-3.5s-.8-1.7-4.9-1.3c-6.4.7-11.4-1.6-13.9-6.5-4.5-8.7-1.4-15,11-22.7,10.6-6.7,14.4-9.9,20.9-17.5,14-16.3,22.6-41.6,24.3-71.4.9-16.3,1.1-15.9-10.6-17.5-7.7-1-31.8-1.3-36.9-.3ZM472.8,819.1c-1.1,24.4-12.6,46.3-33.3,64.3-9.6,8.3-15.7,12.1-27.4,17.3-27.6,12.2-61.9,13.3-85.6,2.6-7-3.2-16.1-10.4-19.2-15.4-1.8-3-1.3-2.7,3.1,1.8,17,17.4,56,21.8,89.2,9.9,37.7-13.4,67.6-49,71.8-85.2,1.3-11.2,2.1-8.4,1.4,4.8ZM432.7,866.8c-10.1,11.6-30.8,20.5-47.4,20.4-13.8-.1-27.1-6.7-33.2-16.4l-2.3-3.6,3.8,3c13.2,10.3,35.5,13.4,55.1,7.7,8.8-2.7,20.4-8.8,24.8-13.2,3.7-3.8,3.1-2.4-.8,2.1ZM408.4,915.4c-4.2,3.7-7,5.5-7.4,4.7-.6-1.7,1.5-4,7.1-7.9,7.4-4.9,7.5-3.3.2,3.2Z"/>
  <path class="cls-1" d="M535.2,800.9c-3.4.5-6.7,1.4-7.2,1.9s-.9,6.9-.9,14.2-.3,13.5-.6,13.5c-.3,0-2.2-.7-4.2-1.8-2.2-1-6.3-1.7-10-1.7-6.4,0-14.9,2.6-14.9,4.5s9.9,2.6,20.6,1.8l10-.6,2,9.6c6.1,29.2,19.8,50.7,40.7,63.9,9.4,6,13,10,13.8,15.7,1.3,8.9-5.9,15.8-15.4,14.6-4.1-.5-4.9-.3-4.9,1.3.1,2.2,3.2,6,6.5,7.5,6,2.9,18.6.6,26.1-4.7,2.1-1.5,4.1-2.7,4.5-2.7,1.4,0,4.2,6.3,4.2,9.2-.1,3.9-3.6,10.8-7,13.8-1.5,1.3-5.9,3.7-9.6,5.5l-6.9,3.2,4.6,1.8c3.1,1.3,7.5,1.9,13.3,1.9,16.4.1,29.7-8.7,34.3-22.5,1.3-3.7,2.3-8.8,2.3-11.3,0-6.1-3.1-15.3-6.4-19.4l-2.8-3.4,6.2,2c9.2,2.9,22.6,4.6,36.3,4.6s13.6-.5,21.2-2.9c25.6-8.1,44-23.9,51.2-44.3,7-20,1-36.4-16.4-44.5-5.6-2.6-8.5-3.2-14.2-3.2-8.5,0-18.4,3.1-22.2,6.8l-2.6,2.6,4.4,1.2c2.5.6,5.2,1.2,6,1.2,3.6,0,8.2,3.3,9.4,6.9,2,5.3.5,9.7-5.1,14.8l-4.7,4.4-.7-6.2c-1.1-10-7.1-15.6-17.5-16.5l-6.2-.4-.7,6.6c-.8,8.5-4.6,13.1-14.7,17.9-25.4,12-56.6,2.2-70.4-22-5.5-9.8-10.1-25.9-10.3-36.8l-.2-8.5h-17.1c-9.5-.2-20.1.1-23.5.6ZM556.7,831.7c10.9,33.8,40.9,61.4,77.5,71.3,11.7,3.2,38.4,4,49.6,1.6,11.1-2.4,21.9-7.7,28.6-13.8,3.1-2.9,5.1-4.1,4.2-2.8-2.5,4.4-10.8,11.1-18,14.7-11.4,5.5-22.7,7.9-39.4,8-16.4,0-27.9-2.1-43.1-8-38-14.9-65.3-50.6-64.8-84.8l.2-9,1,6.9c.6,3.8,2.4,10.9,4,15.9ZM605.2,874.1c10,5.1,19.2,6.8,33.3,6.2,14.5-.5,22.7-3.2,30.7-9.7l5.4-4.4-2.3,3.5c-5.4,8.7-13.3,13.8-26,16.8-8.5,2-14.9,1.5-26.5-2.4-13-4.3-21.9-9.8-28.6-17.6l-3.8-4.5,5.7,4.4c3.2,2.4,8.6,6,12.1,7.8ZM619.7,916.1c3.7,5.3.8,4.7-5.3-1.2l-6.3-6,4.8,2.2c2.8,1.3,5.7,3.4,6.8,4.9Z"/>
  <path class="cls-1" d="M506.7,804.2c-4.2,3.9,1.6,12.3,7.8,10.9,4-1,5.7-2.6,5.7-5.3,0-4.9-9.9-9-13.6-5.6ZM514.5,807.2c0,.5-.8,1.1-1.7,1.1s-1.7-.5-1.7-1.1.8-1.1,1.7-1.1,1.7.4,1.7,1.1Z"/>
  <path class="cls-1" d="M498.7,818.8c.6,2.3,7.9,5.4,13.3,5.4s12.9-2.6,12.9-4.7-.7-1.8-21-2.1c-4-.1-5.4.3-5.2,1.4Z"/>
  <path class="cls-1" d="M501.5,841.1c-6.1,6.4-9,13.6-11.1,28.3-1.3,8.4-1.5,8.6-8,14.9-8.7,8.3-11.7,13.9-11.7,21.9s5.1,16.3,17.8,21.9c4.2,1.8,4.4,2.1,3.8,5.6-.8,4.7,2.3,9.8,7.4,12.2l3.6,1.7-6.3,6.3c-14.1,14.2-15.4,35.1-2.5,45.4,2.3,1.9,5.5,3.8,7.1,4.1,2.8.6,2.8.7.9,2.7-1.3,1.3-2,3.8-2,7s.5,5.3,3.6,8c2.8,2.2,4.8,3,8.4,3,9.4,0,15.7-10.1,10.6-17-1.3-1.7-1.5-2.7-.6-3,3.2-1,9.1-5.3,11.4-8.6,8.8-12.2,4.9-32.7-8.4-43.6-4.6-3.7-4.9-4.3-2.9-4.9,1.3-.3,3.9-2.3,5.9-4.5,3.2-3.4,3.6-4.3,3-8.3-.8-4.5-.8-4.6,4.1-6.3,11.9-4.5,18.8-13.4,17.9-23.3-.7-7.5-3.4-12.4-11.7-20.8l-7.1-7.1-1.4-9.8c-2-13.3-5.1-20.5-11.4-26.6-6.3-6.1-7.1-5-4,4.9,5.2,15.6,6.1,27.1,2.8,33.2-3.8,7.1-14.5,6.6-17.6-.9-1.7-4-.5-19.2,2.4-29.3,1.4-4.6,2.3-9.4,2.1-10.5-.3-1.8-1.1-1.3-5.9,3.4ZM543.5,894.2c4.1,6.1,4.2,10.9.3,14.5-1.5,1.5-3.6,2.7-4.6,2.7-4.9,0-13.2-6.7-13.2-10.5s1.7-2.7,3.9-3.6c3.1-1.3,4.4-2.8,5.4-6.1,1.6-5,2.9-4.6,8.2,3.1ZM488.4,891.7c1,2.1,3.8,4.8,6,6,2.2,1.3,4,2.7,4,3.2,0,1.8-7,8.2-10.3,9.5-6.7,2.6-12.5-2.8-11-9.9.7-3,7.2-12.4,8.7-12.4s1.6,1.7,2.6,3.7ZM517.4,898.8l2.8,1.4-4.6,3.6-4.6,3.5-4.1-3.8-4.1-3.7,3.1-1.2c1.6-.5,3.7-2.2,4.4-3.7l1.4-2.8,1.5,2.7c.8,1.5,2.8,3.3,4.4,4ZM514.9,920c.8,5.3,6.2,13.8,9.8,15.3,1.4.5,2.5,1.3,2.5,1.6,0,1.1-10.1,6.4-13.4,7-3.6.6-11.3-2.2-15.6-5.7-1.8-1.5-1.8-1.7.6-2.8,4.1-1.9,9.2-9.5,9.8-14.9.6-4.1,1-4.9,3.2-4.9s2.6.7,3.2,4.4ZM517.3,958.4c7.1,8.8,9.1,13.8,8.5,21.7-.6,8.9-2.9,11.2-12.1,11.7-8,.5-11.6-1.1-14.5-6.1-3.9-6.9-1-16.7,8.2-27.9,2.3-2.8,4.5-5,4.8-5s2.5,2.6,5.1,5.6ZM519.1,1011.7c0,3.4-3,5.6-5.5,4.1-2.5-1.4-3.2-4.6-1-4.6s2.3-.7,3.1-1.6c1.8-2,3.4-1.1,3.4,2Z"/>
</svg>