<svg xmlns="http://www.w3.org/2000/svg" version="1.0" preserveAspectRatio="xMidYMid meet" viewBox="10 19.94 289.85 89.63">
<metadata>
Created by potrace 1.10, written by Peter Selinger 2001-2011
</metadata>
<g transform="translate(0.000000,125.000000) scale(0.100000,-0.100000)" fill="#000000" stroke="none">
<path d="M2995 720 c0 -294 1 -415 2 -267 2 147 2 387 0 535 -1 147 -2 26 -2 -268z"/>
<path d="M100 845 c0 -13 34 -15 249 -15 244 0 249 0 244 -20 -4 -14 0 -20 12 -20 12 0 16 6 12 20 -5 20 0 20 434 20 l439 0 0 -32 c0 -26 -3 -30 -11 -18 -8 12 -10 10 -5 -10 4 -23 4 -23 -8 -7 -12 16 -14 14 -21 -15 -6 -26 -9 -29 -12 -13 -8 30 -23 45 -48 45 -29 0 -50 -24 -40 -47 8 -17 8 -17 12 0 5 19 23 23 23 5 0 -7 -10 -31 -23 -53 -19 -33 -28 -40 -57 -43 -34 -3 -34 -2 -11 10 14 7 26 19 29 27 3 8 0 11 -7 7 -6 -4 -11 -1 -11 8 0 32 -97 30 -108 -2 -6 -18 44 -62 78 -69 44 -8 24 -23 -41 -29 -40 -4 -63 -1 -89 13 -63 33 -93 121 -55 163 16 17 16 20 2 20 -23 0 -57 -48 -57 -82 0 -36 21 -88 43 -107 9 -7 34 -19 54 -27 38 -13 38 -13 -37 -13 -76 -1 -160 25 -160 49 0 5 -5 10 -12 10 -6 0 -1 -12 13 -26 l24 -27 -33 17 c-44 22 -110 82 -117 107 -4 11 -11 17 -16 14 -19 -12 -8 -48 25 -81 19 -19 30 -34 25 -34 -24 0 -59 26 -75 56 -10 19 -22 34 -26 34 -13 0 -9 -12 9 -32 9 -10 11 -18 6 -18 -21 0 -35 31 -36 81 -1 45 -2 49 -14 32 -8 -10 -11 -29 -8 -43 4 -21 3 -23 -7 -10 -7 8 -20 15 -28 15 -9 0 -15 9 -15 25 0 19 -5 24 -19 22 -10 -2 -15 1 -12 7 4 5 -3 15 -14 21 -11 6 -20 17 -20 24 0 7 -7 13 -16 13 -11 0 -14 -7 -11 -23 3 -20 1 -22 -14 -14 -27 15 -62 12 -89 -7 -14 -10 -31 -18 -39 -18 -7 0 -22 -26 -33 -60 -24 -74 -15 -109 34 -130 18 -7 34 -12 36 -10 6 6 -20 50 -42 70 -12 11 -17 17 -12 13 6 -5 19 -8 31 -8 17 0 16 4 -12 25 -20 16 -30 31 -26 40 4 12 9 10 24 -10 12 -14 26 -22 34 -18 21 7 19 20 -5 26 -28 7 -25 32 8 57 37 30 116 24 142 -10 10 -13 22 -20 29 -16 6 4 9 2 5 -7 -3 -9 6 -19 27 -28 18 -7 54 -32 81 -56 47 -42 65 -49 203 -83 48 -13 61 -18 40 -19 -74 -2 -211 49 -264 98 -17 16 -44 34 -61 41 -58 24 -160 -7 -160 -50 0 -19 39 -54 49 -43 3 3 0 8 -6 10 -19 7 -16 51 4 61 37 19 84 22 119 7 44 -18 44 -28 -1 -19 -43 8 -65 -8 -65 -47 0 -19 7 -32 21 -40 21 -11 21 -10 15 27 -7 34 -6 37 9 24 11 -9 19 -10 23 -3 16 25 50 17 105 -25 78 -60 140 -82 235 -82 107 0 203 23 297 69 73 36 172 108 162 117 -2 3 -24 -7 -48 -21 -56 -32 -64 -31 -39 3 11 15 23 42 26 59 6 28 3 34 -17 43 l-24 10 24 -3 c38 -3 48 -30 28 -72 -17 -35 -16 -35 2 -25 11 5 33 23 49 40 17 16 36 30 42 30 6 0 25 -14 42 -30 16 -17 38 -35 48 -40 18 -10 18 -9 4 25 -16 38 -6 75 20 75 20 0 39 -27 30 -42 -5 -10 -4 -10 5 -2 23 21 9 49 -27 52 -28 3 -34 -1 -47 -30 -8 -18 -14 -26 -15 -17 0 9 -7 22 -15 29 -8 7 -12 17 -8 23 3 6 1 7 -5 3 -9 -5 -9 -13 -1 -29 9 -17 9 -19 -1 -11 -6 6 -15 28 -20 48 l-8 36 445 0 c332 0 442 -3 437 -12 -4 -6 1 -17 11 -25 18 -12 18 -13 1 -13 -11 0 -16 -5 -13 -14 4 -10 0 -12 -14 -9 -18 5 -19 2 -13 -22 6 -23 4 -27 -9 -22 -14 5 -34 -20 -23 -30 8 -8 47 18 75 49 30 34 102 49 140 29 24 -13 28 -39 6 -47 -8 -4 -15 -12 -15 -19 0 -17 31 -28 44 -15 16 16 30 12 16 -5 -7 -8 -19 -15 -27 -15 -8 0 -13 -5 -11 -12 8 -22 27 -20 52 5 20 20 26 22 30 10 9 -21 9 -20 -29 -33 -27 -9 -35 -17 -35 -36 0 -34 34 -32 71 5 37 37 37 54 0 87 -17 15 -31 36 -33 48 -2 11 -10 21 -18 21 -8 0 -26 8 -40 18 -27 19 -62 22 -89 7 -15 -8 -17 -6 -13 15 4 26 -12 35 -21 13 -4 -10 -8 -9 -16 2 -9 13 19 15 235 18 189 2 245 5 241 15 -3 9 -303 13 -1395 15 -1233 2 -1392 0 -1392 -13z m1155 -158 c10 -8 15 -19 11 -25 -9 -14 -36 -16 -36 -3 0 5 -3 16 -6 25 -8 20 6 21 31 3z"/>
<path d="M165 784 c-8 -9 -15 -20 -15 -25 0 -43 70 -85 124 -74 50 10 68 16 63 22 -6 5 58 64 88 81 36 20 -5 13 -47 -9 -24 -12 -50 -18 -64 -15 -26 7 -43 -12 -23 -25 10 -7 8 -8 -8 -6 -11 2 -28 8 -35 15 -14 11 -28 7 -28 -9 0 -7 27 -18 75 -29 29 -7 28 -7 -10 -9 -48 -1 -109 27 -113 52 -3 15 0 18 17 12 15 -4 21 -2 21 8 0 22 -27 28 -45 11z"/>
<path d="M2588 780 c17 -11 32 -24 32 -30 0 -5 9 -14 21 -21 26 -14 89 -19 89 -8 0 5 9 9 20 9 12 0 20 7 20 16 0 14 -3 14 -15 4 -13 -11 -14 -8 -8 21 6 31 5 33 -10 20 -9 -7 -14 -17 -11 -23 7 -11 -14 -38 -30 -38 -6 0 -3 5 7 11 25 15 10 31 -21 24 -17 -3 -41 2 -64 15 -49 26 -73 26 -30 0z"/>
<path d="M2790 790 c-12 -7 -12 -12 -2 -22 10 -10 15 -10 22 2 8 12 10 9 10 -12 0 -22 -7 -29 -45 -43 -29 -12 -58 -16 -82 -12 -26 5 -33 3 -23 -3 8 -5 39 -10 68 -10 43 0 58 5 77 25 27 26 32 54 13 73 -14 14 -18 15 -38 2z"/>
<path d="M240 782 c0 -5 7 -17 15 -28 14 -18 14 -18 15 9 0 17 -5 27 -15 27 -8 0 -15 -4 -15 -8z"/>
<path d="M1921 761 c16 -22 19 -36 14 -60 -16 -73 -89 -119 -168 -107 -66 10 -71 20 -19 38 47 17 47 17 22 -2 -28 -22 -18 -25 29 -9 17 6 36 20 42 30 9 18 7 19 -15 13 -24 -6 -26 -3 -26 24 0 25 -5 30 -31 36 -36 7 -73 -10 -65 -29 3 -9 0 -12 -10 -8 -14 5 -14 3 -2 -16 15 -25 44 -24 40 2 -2 12 4 17 20 18 22 0 22 1 3 10 -20 9 -20 9 0 6 24 -3 22 -35 -3 -54 -43 -34 -100 -2 -125 72 -9 25 -16 33 -19 24 -9 -23 18 -91 44 -112 23 -18 22 -18 -17 -2 -22 9 -52 24 -67 35 -20 15 -26 16 -22 5 17 -42 186 -136 290 -160 38 -9 83 -19 99 -24 48 -12 177 4 226 29 24 12 65 40 91 61 42 35 50 38 74 29 15 -6 33 -9 40 -6 8 3 14 -6 16 -25 3 -28 4 -29 23 -16 16 13 18 20 9 44 -9 25 -15 28 -51 27 -30 0 -40 3 -36 13 12 31 109 29 145 -4 12 -11 18 -26 15 -41 -5 -26 11 -25 27 1 9 13 5 22 -15 43 -40 39 -105 47 -169 20 -12 -5 -16 1 -18 26 -3 41 -11 68 -20 68 -4 0 -6 -20 -4 -45 3 -37 1 -44 -11 -39 -10 3 -18 -5 -25 -26 -8 -21 -23 -35 -46 -45 -54 -23 -60 -18 -21 16 34 30 46 71 25 84 -5 3 -10 0 -10 -8 0 -30 -120 -130 -137 -114 -2 3 -20 -1 -38 -9 -21 -8 -65 -14 -112 -13 -70 1 -74 2 -42 11 56 15 91 57 97 118 4 43 1 55 -18 75 -34 36 -56 33 -29 -4z m364 -138 c-57 -47 -184 -93 -255 -92 -23 0 4 10 79 29 96 24 120 35 145 61 17 17 24 28 16 25 -8 -4 -6 0 4 8 14 12 23 13 30 5 8 -7 2 -18 -19 -36z"/>
<path d="M520 715 c-7 -8 -8 -15 -2 -15 5 0 15 7 22 15 7 8 8 15 2 15 -5 0 -15 -7 -22 -15z"/>
<path d="M1482 693 c-16 -36 -51 -74 -88 -95 -16 -9 -29 -20 -30 -25 0 -4 -13 -33 -27 -63 -32 -66 -35 -129 -9 -153 23 -21 62 -22 88 -1 10 8 12 12 4 8 -10 -5 -9 -1 4 14 10 12 23 19 27 16 14 -8 10 -34 -6 -40 -19 -8 -9 -24 14 -24 10 0 21 9 24 20 3 11 2 20 -2 20 -16 0 -27 37 -19 68 7 25 14 32 33 32 14 0 25 5 25 11 0 7 -10 9 -27 5 -15 -4 -29 -3 -33 3 -4 7 -14 4 -27 -8 -16 -15 -23 -17 -33 -8 -10 10 -12 8 -6 -6 3 -10 6 -21 6 -23 0 -2 9 -4 21 -4 29 0 19 -22 -19 -40 -33 -16 -41 -34 -19 -44 6 -3 1 -3 -13 0 -32 8 -50 31 -50 63 0 32 55 151 70 151 14 0 13 -7 -5 -33 -8 -12 -21 -42 -30 -66 -13 -37 -13 -42 0 -37 8 3 17 1 20 -4 4 -6 16 -10 28 -9 l22 0 -21 9 c-30 12 -35 23 -27 60 5 26 8 29 15 16 5 -9 14 -13 20 -10 7 5 5 11 -6 20 -15 10 -16 15 -4 36 19 34 50 68 61 68 6 0 0 -11 -13 -25 l-23 -25 31 0 c26 0 32 4 33 23 l0 22 16 -22 c9 -14 26 -23 41 -23 l25 0 -23 25 c-18 19 -20 25 -8 25 20 0 40 -25 66 -81 29 -60 29 -97 0 -109 -26 -10 -5 -13 29 -4 19 5 21 11 16 38 -3 17 -14 46 -24 64 -22 38 -23 46 -8 36 18 -11 59 -106 59 -137 0 -16 -5 -37 -10 -48 -13 -23 -40 -26 -40 -4 0 8 -8 15 -19 15 -10 0 -26 12 -35 26 -13 18 -14 25 -4 23 29 -4 38 2 37 24 0 12 -3 16 -6 9 -4 -10 -10 -10 -29 3 -22 14 -25 14 -30 1 -3 -9 -2 -28 4 -43 6 -21 5 -37 -6 -61 -12 -25 -13 -35 -4 -44 19 -19 40 6 23 26 -24 29 0 40 26 12 29 -31 66 -33 93 -6 26 26 25 72 0 129 -24 52 -24 51 -5 51 8 0 14 -5 13 -11 -2 -6 3 -14 10 -16 21 -8 13 21 -9 36 -16 9 -24 10 -29 1 -5 -8 -11 -6 -20 5 -10 12 -10 15 0 15 7 0 1 9 -13 20 -14 11 -28 20 -33 20 -9 0 -64 58 -84 88 l-15 23 -13 -28z"/>
<path d="M1160 655 c0 -17 50 -45 81 -45 19 0 17 3 -12 23 -48 33 -69 39 -69 22z"/>
<path d="M690 556 c0 -15 37 -32 47 -22 3 3 3 12 0 21 -8 19 -47 20 -47 1z"/>
<path d="M2264 559 c-9 -15 10 -31 29 -24 8 4 18 13 21 21 7 17 -39 20 -50 3z"/>
<path d="M1308 546 c-21 -15 -24 -40 -5 -33 6 2 11 10 10 16 -2 6 4 11 12 11 8 0 15 5 15 10 0 13 -11 12 -32 -4z"/>
<path d="M1427 536 c-4 -9 2 -13 19 -13 20 0 22 2 13 13 -6 8 -15 14 -19 14 -4 0 -10 -6 -13 -14z"/>
<path d="M1546 535 c-3 -9 0 -15 8 -15 7 0 19 -7 26 -15 13 -15 30 -12 30 7 0 5 -7 8 -15 4 -10 -4 -15 1 -15 14 0 23 -25 27 -34 5z"/>
<path d="M1245 495 c-23 -18 -27 -26 -18 -36 16 -16 44 -4 37 16 -4 11 -2 14 9 9 20 -7 30 11 14 24 -9 8 -21 5 -42 -13z"/>
<path d="M1713 505 c-8 -22 4 -30 22 -15 13 11 15 9 13 -10 -4 -27 19 -39 29 -15 4 12 -2 24 -18 36 -29 23 -38 23 -46 4z"/>
<path d="M1487 453 c-13 -12 -7 -61 9 -74 13 -10 17 -10 25 2 24 39 -5 101 -34 72z"/>
<path d="M1460 291 c0 -12 9 -20 27 -24 36 -7 53 1 53 24 0 24 -9 24 -26 2 -13 -17 -15 -17 -28 0 -17 22 -26 22 -26 -2z"/>
<path d="M1433 253 c-7 -2 -13 -11 -13 -18 0 -7 -6 -16 -12 -19 -7 -3 1 -4 17 -3 23 1 31 7 33 25 3 22 -2 25 -25 15z"/>
<path d="M1486 228 c-15 -20 -15 -23 -1 -26 18 -4 20 -18 4 -28 -19 -11 7 -27 26 -16 12 6 14 11 6 16 -16 11 -13 26 4 20 20 -8 19 3 -4 32 l-19 25 -16 -23z"/>
<path d="M1540 230 c6 -11 19 -20 29 -20 14 0 18 5 14 20 -4 13 -14 20 -30 20 -21 0 -22 -3 -13 -20z"/>
</g>
</svg>