<svg xmlns="http://www.w3.org/2000/svg"
 viewBox="0 0 9076.15033144636 9076.15033144636"
width="9076.15033144636mm" height="9076.15033144636mm">
<defs><style>.seam{stroke: #000; stroke-width:1px; fill:white} .sewinguide{stroke-width:1px;}</style></defs>
<g><path class="seam" d="M 8541.102009548871,5236.6979334162825 8541.099304645288,5236.694958022342 8541.096599741706,5236.691982628402 8541.093353857408,5236.689007234461 8541.090648953825,5236.6857613501625 8541.087944050243,5236.682785956223 8541.085239146661,5236.679810562282 8541.08253424308,5236.676564677983 8541.079829339496,5236.673589284043 8541.077124435915,5236.670613890103 8541.074419532333,5236.667638496162 8541.07171462875,5236.664663102222 8541.069009725168,5236.661417217923 8541.066304821587,5236.658441823983 8541.063599918003,5236.655466430042 8541.060895014421,5236.652220545744 8541.057649130124,5236.649245151803 8541.05494422654,5236.646269757863 8541.052239322958,5236.643294363923 8541.04899343866,5236.640318969982 8541.046288535077,5236.637073085683 8541.043583631495,5236.634097691744 8541.040878727914,5236.631122297803 8541.038173824332,5236.627876413504 8541.035468920749,5236.624901019564 8541.032764017167,5236.621925625624 8541.186402540634,5239.095289461159 8541.339500083384,5241.568382806337 8541.492597626137,5244.041476151515 8541.646236149603,5246.51483998705 8541.799333692354,5248.987933332228 8541.952431235104,5251.461026677405 8542.106069758573,5253.934390512942 8542.259167301323,5256.407483858119 8542.412264844073,5258.8805772032965 8542.56590336754,5261.353941038832 8542.719000910292,5263.8270343840095 8542.872098453043,5266.300127729188 8543.02573697651,5268.773491564723 8543.17883451926,5271.246584909901 8543.331932062012,5273.719678255078 8543.485570585479,5276.193042090615 8543.639209108946,5278.66640592615 8543.792306651696,5281.139499271328 8543.945404194448,5283.612592616505 8544.099042717915,5286.0859564520415 8544.252681241382,5288.559049797219 8544.405778784132,5291.032143142396 8544.558876326882,5293.505506977932 8544.712514850351,5295.978600323109 8544.866153373818,5298.451693668288 8545.019250916568,5300.925057503823 8545.172348459319,5303.398150849001 8545.325986982787,5305.871244194178 8545.479084525537,5308.344608029714 8545.632182068288,5310.817701374892 8545.785820591755,5313.290794720069 8545.93837715379,5315.764429045963 8550.755269452917,5394.809285446987 8555.571620771329,5473.854682828727 8560.38797208974,5552.9000802104665 8565.21352008033,5632.087755520629 8570.036904148055,5711.256496505715 8574.853255466465,5790.30270535853 8579.66906580416,5869.348643720987 8584.485958103287,5948.394582083442 8589.063195945035,6023.512729954231 8593.639892806066,6098.631418805735 8598.216589667096,6173.749296186165 8602.800860258158,6248.980779517045 8607.382966926352,6324.188730186762 8611.9602047681,6399.304984625042 8616.537442609848,6474.421509553681 8621.11846731661,6548.927267253466 8625.703819869103,6623.469000170893 8630.283762614432,6697.938512162677 8636.009502517169,6777.3006537538895 8638.98273253469,6837.418353074218 8641.954880590778,6897.5173885598315 8638.27134289258,6956.70378957682 8634.587264213664,7015.877477546973 8630.905349457615,7075.002882988183 8617.288323844257,7144.70392045496 8603.674544115198,7214.374257266079 8590.069961058318,7283.999286942198 8576.646065560728,7355.580232398583 8563.225415947436,7427.141837794355 8549.813422025605,7498.660029487633 8546.915929308387,7565.253673719214 8544.0162726683,7631.8575965844075 8541.121484854662,7698.412560694763 8545.49531394703,7760.197292092784 8549.87347088513,7822.032064207075 8554.25000488108,7883.845467583066 8560.159137246688,7943.418669812305 8566.07367941946,8003.037855402441 8571.986598650083,8062.641555419568 8577.315258706956,8124.972744963777 8582.648246609562,8187.354245714614 8587.979611570017,8249.716676895196 8592.886306668073,8318.172241507564 8597.797870592576,8386.684744340335 8602.707270594214,8455.173444021584 8612.838216470873,8524.298235591476 8622.978900000426,8593.474995121438 8633.116878626397,8662.639176849743 8653.298705233681,8726.629283760896 8673.495679301024,8790.657935548095 8693.694817291233,8854.699131325657 8719.995135801384,8915.187571493218 8746.313847655892,8975.716779629456 8747.134515402724,8977.613432662802 8747.95572413027,8979.510077243325 8748.7763918771,8981.406721823847 8749.59705962393,8983.303366404369 8750.418268351477,8985.200010984892 8751.238936098307,8987.096655565414 8752.059603845137,8988.993300145938 8752.880812572685,8990.889953179283 8753.70202130023,8992.786606212629 8754.52268904706,8994.683250793152 8755.343356793892,8996.579895373674 8756.164565521438,8998.476539954198 8756.985774248984,9000.37318453472 8757.806441995815,9002.269829115241 8758.627109742645,9004.166473695765 8759.448318470191,9006.06312672911 8760.269527197739,9007.959771309634 8761.090194944569,9009.856420116568 8761.910862691399,9011.7530689235 8762.732071418945,9013.649713504024 8763.553280146492,9015.546358084546 8764.373947893322,9017.44300689148 8765.194615640152,9019.339655698415 8766.0158243677,9021.236300278937 8766.837033095246,9023.13294485946 8767.657700842075,9025.029593666395 8768.478368588907,9026.92624247333 8769.299577316453,9028.822887053851 8770.120786043999,9030.719531634373 8770.94145379083,9032.616176214897 8771.76212153766,9034.512820795419 6735.134723282523,3449.89732344283 6735.1341823018065,3449.894618539248 6735.133100340374,3449.891372654949 6735.132018378941,3449.8881267706506 6735.130936417509,3449.8848808863518 6735.129854456075,3449.8816350020534 6735.128772494642,3449.878389117755 6735.12769053321,3449.875143233456 6735.126608571777,3449.8718973491577 6735.1255266103435,3449.868651464859 6735.124444648911,3449.8654055805605 6735.123362687478,3449.8621596962616 6735.122280726046,3449.8594547926796 6735.121198764612,3449.8567498890975 6735.120116803179,3449.8535040047987 6735.119034841747,3449.8502581205003 6735.11849386103,3449.8470122362014 6735.117952880314,3449.843766351903 6735.1168709188805,3449.840520467604 6735.115788957448,3449.8372745833058 6735.114706996015,3449.8340286990074 6735.113625034583,3449.8307828147085 6735.112543073149,3449.82753693041 6735.111461111716,3449.8242910461113 6735.110379150284,3449.821586142529 6735.109297188851,3449.818881238947 6735.1082152274175,3449.8156353546483 6735.107133265985,3449.81238947035 6735.106051304552,3449.809143586051 6735.10496934312,3449.8058977017527 6735.103887381686,3449.802651817454 6735.102805420253,3449.7994059331554 6735.102264439537,3449.796160048857 6736.284307304945,3450.720155112526 6737.46689115107,3451.644150176195 6738.649474997194,3452.568145239864 6739.832058843319,3453.4921403035332 6741.0146426894435,3454.4161353672025 6742.197226535568,3455.3401304308713 6743.379810381693,3456.2641254945406 6744.562394227817,3457.187579577493 6745.744978073942,3458.111033660446 6746.927561920066,3459.035028724115 6748.110145766191,3459.959023787784 6749.292729612315,3460.883018851453 6750.47531345844,3461.8070139151223 6751.657897304563,3462.7310089787916 6752.840481150688,3463.6550040424604 6754.022524016096,3464.5789991061297 6755.204566881504,3465.502994169799 6756.387150727629,3466.426989233468 6757.5697345737535,3467.350984297137 6758.752318419878,3468.274979360806 6759.934902266003,3469.198974424475 6761.117486112127,3470.1229694881445 6762.300069958252,3471.0469645518133 6763.482653804376,3471.9704186347662 6764.665237650501,3472.8938727177188 6765.847821496625,3473.817867781388 6767.03040534275,3474.741862845057 6768.212989188874,3475.665857908726 6769.395573034999,3476.5898529723954 6770.5781568811235,3477.5138480360642 6771.760740727248,3478.4378430997335 6772.944947515522,3479.3629201248355 6806.37701481042,3506.6034631201483 6835.831791878098,3531.387953662851 6866.319301133446,3557.0066364702952 6901.280179932987,3585.9620883367033 6934.373052318682,3613.3227290510645 6960.241668217119,3634.6076153391564 6986.900656942265,3656.8251523823806 7021.856666915358,3686.7538285576534 7057.896261263469,3718.217808006166 7086.839811554115,3743.744524091816 7109.662165038312,3764.700494104316 7131.0395590289145,3786.110346937904 7156.636061626985,3813.1826449304062 7189.339427896847,3848.223047895263 7226.885653540226,3888.5207014624243 7265.623659701908,3929.8602838894376 7300.327572661143,3966.49874389064 7327.006577672798,3994.339234500478 7348.348807916832,4016.628721978988 7368.512782160473,4038.241442581239 7391.554773815542,4064.329155669831 7421.817776073571,4100.929747020883 7462.833852032157,4152.835223820567 7514.996294672146,4218.911690487237 7565.34536995065,4279.847758386352 7600.148282380992,4319.6217426200055 7624.446431259621,4346.322386860317 7647.051310495812,4370.432274449627 7669.156323550017,4392.65305737715 7689.602148746921,4412.263608347878 7708.257327772427,4429.2747469761425 7725.129434356568,4443.849308457588 7740.207648885013,4456.126865817057 7753.569331600214,4466.318401533955 7765.946970392222,4475.078502275169 7778.469592016234,4483.187803214513 7792.398763502974,4491.402054412845 7808.755315464354,4500.093450603073 7859.65619107362,4520.627455656754 7933.290699329587,4516.823820239507 8006.982551541498,4513.030463455872 8057.266709134029,4456.960517101081 8107.577374781666,4400.868390536915 8129.6488470314525,4340.153583750822 8135.806289545903,4316.190301935665 8139.960480467399,4296.249752727912 8143.383806440993,4276.829626969367 8146.212053626509,4257.613991921635 8148.483090674099,4238.846829887826 8150.266163115465,4220.349617231518 8151.638631193058,4199.848071020822 8152.409528713976,4175.241563133826 8152.266709804838,4147.725660953849 8151.160945220447,4119.153223434676 8149.176086971851,4090.254033562777 8146.420872183053,4061.316975040727 8142.932628523487,4032.0461314166378 8138.43275092419,4000.693593995711 8131.751098095515,3960.141138511109 8120.11027503929,3904.835056927922 8103.236004532284,3841.819459154835 8082.957342376759,3779.794938054255 8060.700854721951,3721.919739048723 8037.439765876727,3668.9052517803498 8013.298501405863,3618.6562579343863 7987.939489342308,3568.3180022702118 7960.016228682855,3513.469590373127 7929.12622977448,3452.2981958623636 7900.187007329564,3396.3018228850065 7879.049267796342,3356.759919378703 7863.229368705665,3328.184776955948 7848.4816933949605,3301.893655117977 7830.560625201655,3270.0347597464674 7805.068531881857,3224.99432823833 7767.086275781032,3159.2435319629535 7740.366156234929,3114.912867154777 7713.645495708109,3070.582743327317 7683.472296249008,3022.7995395868597 7653.298014828474,2975.017958788552 7624.708265926375,2931.913697264531 7596.121221927859,2888.8110586826597 7570.864455219708,2851.912927937569 7545.607688511559,2815.0180430767764 7503.201833092455,2752.7581953645476 7467.872546425022,2697.6192768227384 7432.833225421598,2638.538772780992 7405.200471406871,2591.4404506275396 7377.567717392143,2544.343751416237 7347.6082053160335,2493.8486113442964 7317.62651303055,2443.3183075257875 7287.689181163814,2392.860495123281 7254.662849406241,2333.228731731488 7221.615419400727,2273.5585587088285 7188.615054717542,2213.9738606393653 7162.387227623393,2156.022383352816 7136.14641699205,2098.034660358266 7109.942393049425,2040.1297074133302 7090.457349604909,1981.9120676142954 7070.9631094882125,1923.6625099529913 7051.497000368771,1865.4946403798685 7039.133427075391,1805.2613064314014 7026.767689859145,1744.9965956013807 7014.420345987258,1684.8184416859897 7009.992959803963,1610.2913152479057 7005.568819504966,1535.7820411734642 7016.443072886004,1488.7686529924922 7027.308670575579,1441.771494233013 7070.2858016312375,1381.5565536289046 7113.245080323254,1321.3605473498712 7173.128940728905,1265.8580897666184 7233.0501288039895,1210.3161405910657 7292.8733993694,1154.8661581373071 7356.793516900365,1104.1530028366435 7420.823453516765,1053.3532906213507 7484.79658715794,1002.5968568633725 7550.024255080525,955.8766802307076 7615.25192300311,909.1581265401921 7669.629681676897,873.4074158946576 7724.006899369968,837.6556232876901 7793.508314952381,793.8729719452614 7863.008648573361,750.0897796221162 7937.094334746835,704.8188903287778 8011.180561901025,659.547460054723 8074.89727068261,621.1037474027804 8138.612897502762,582.6600347508379 8197.551664596804,543.7905702750619 8256.495300517292,504.9146140306887 8310.867649383914,454.8890452206127 8365.251899826299,404.8440011047451 8389.125378842527,350.3456037311936 8413.003185704487,295.8174524182382 8404.847901404246,253.60797299919926 8396.680715528242,211.37198552505507 8367.448822515737,179.8544489856158 8338.199077139589,148.30769948748912 8280.131829979722,135.3674407503901 8222.027796131139,122.41149357251454 8149.547199743324,136.71664665717628 8077.041718242554,151.01963581897226 8010.8700389697915,175.59963565086315 7944.690785966999,200.1780125406047 7876.060890318761,228.85648228019883 7807.4293717283745,257.5338700583601 7727.233849343495,290.5439723944405 7647.039949900766,323.5546157112373 7571.009979032429,353.91769940180666 7494.980549144809,384.28078309237594 7433.020404749484,409.1258634753194 7371.061883296309,433.97310778112865 7313.360339100753,458.091110081185 7255.606319775701,482.2312925906151 7197.955086786773,506.3271146812976 7127.319234641998,535.9972020741151 7056.557874971011,565.7181416542774 6985.805170991486,595.4369173115739 6915.166613943129,625.1075456851078 6842.590804949223,653.2012152702368 6769.891652351968,681.3424911584121 6697.202778388327,709.479439200856 6624.623182529405,737.5747317281343 6562.047402078779,758.6388978839212 6499.433211997286,779.716588557619 6436.909365695437,800.7629023497636 6376.408246292335,816.8002756884467 6315.918487484279,832.8311572585326 6262.406297956786,838.6732080153023 6208.914124715801,844.5071440613256 6167.351658233618,837.9266546266235 6125.797847442896,831.3326406740107 6064.719501615359,800.7304435067775 6002.560817297104,750.8395788950936 5959.987257855905,702.766950471344 5917.416403318288,654.7137973533861 5859.967497117306,595.9210950527822 5802.467197748263,537.074294680535 5744.992865453609,478.2529204019601 5676.3099536951595,437.55980993108545 5607.627582917428,396.8661584794943 5538.877048569425,356.128687589872 5470.111366761363,315.3863478738018 5401.427914022197,274.6916144607778 5332.743920302316,233.99579908632091 5256.174050678977,215.40553774678625 5179.604181055639,196.81473542653512 5102.968852765613,178.2028348583431 5026.313508189078,159.59147527086748 4949.744179546456,141.00121393133279 4873.174850903833,122.40987063036525 4793.930372618446,137.06936608429118 4714.6399109721615,151.73535330681432 4635.339170692265,166.40566837506893 4556.093610445444,181.06516382899488 4498.174321511523,212.07255555283697 4440.217434417809,243.10537337035143 4382.230522894334,274.15009276362747 4324.310692979697,305.15748448746956 4322.500841992866,306.12638095060265 4320.690720515679,307.0952774137358 4318.880599038491,308.0647148575854 4317.070477561303,309.0336113207185 4315.260356084115,310.0025077838516 4313.450505097286,310.97194522770116 4311.640654110456,311.9408416908343 4309.830532633268,312.9097381539674 4308.020411156081,313.87863461710054 4306.210560169251,314.84753108023364 4304.400709182421,315.8164275433668 4302.590587705234,316.7853240064999 4300.780466228045,317.754220469633 4298.9706152412155,318.7231169327661 4297.160764254386,319.6925543766157 4295.350642777198,320.6614508397488 4293.54052130001,321.63034730288194 4291.730670313181,322.5997847467315 4289.920819326351,323.5686812098646 4288.110697849163,324.5375776729977 4286.300576371976,325.50647413613086 4284.490725385146,326.475370599264 4282.6808743983165,327.4442670623971 4280.870752921129,328.41316352553025 4279.060631443941,329.38205998866334 4277.250780457111,330.3509564517965 4275.440929470282,331.320393895646 4273.630807993093,332.28929035877917 4271.820686515905,333.25818682191226 4270.010565038718,334.22762426576185 4268.20044356153,335.19652072889494 4186.5610436444895,336.16487621131165 4184.750922167302,335.1959797481785 4182.941071180472,334.226542304329 4181.131220193643,333.2576458411958 4179.321098716455,332.28874937806273 4177.510977239267,331.3198529149296 4175.700855762079,330.3509564517965 4173.890734284891,329.38205998866334 4172.080883298061,328.41316352553025 4170.2710323112315,327.4442670623971 4168.460910834044,326.475370599264 4166.650789356856,325.5059331554144 4164.840667879668,324.53703669228133 4163.0305464024805,323.5681402291482 4161.220695415651,322.59870278529866 4159.410844428821,321.6298063221655 4157.6007229516335,320.66090985903236 4155.790601474446,319.69201339589927 4153.980750487616,318.7231169327661 4152.170899500787,317.7536794889166 4150.360778023599,316.78478302578344 4148.55065654641,315.81588656265035 4146.740805559581,314.84644911880076 4144.930954572751,313.87755265566767 4143.120833095563,312.9086561925345 4141.3107116183755,311.93975972940143 4139.500860631546,310.9708632662683 4137.691009644716,310.0019668031352 4135.880888167529,309.03307034000204 4134.070766690341,308.06417387686895 4132.260645213153,307.0952774137358 4130.450523735965,306.1258399698863 4128.640672749136,305.1569435067531 4070.7205723441393,274.1490108021946 4012.7431279832017,243.10483238963502 3954.777585198025,212.07201457212054 3896.857484793029,181.064081867562 3817.612195036567,166.40458641363608 3738.3306595721037,151.74076311397866 3659.0207226200273,137.0682841228583 3579.77624433464,122.40878866893237 3503.206915692018,141.00013196989994 3426.6373165590376,159.59147527086748 3350.00820954725,178.20121191619378 3273.3471846731923,196.81419444581869 3196.777315049854,215.40499676606981 3120.2074454265157,233.9952581056045 3051.522910725918,274.69053249934495 2982.838646515678,315.38526591236894 2914.09352197484,356.11840895625977 2845.3235123210457,396.864535537345 2776.6408710529554,437.5587279696526 2707.958229784865,478.25237942124375 2650.4909302395245,537.0672619312213 2592.983057140451,595.9210950527822 2535.535232900902,654.7137973533861 2492.966542286151,702.7799340085385 2450.3840566631307,750.8590542008852 2388.2318641134725,800.7293615453448 2327.133501999427,831.3391324426079 2285.5737404208253,837.918539915877 2244.036970522672,844.5060620998927 2190.5288383505526,838.6650933045559 2137.0332839800903,832.8306162778161 2076.535680951645,816.7948658812824 2016.042000033394,800.7629023497636 1953.5180184863666,779.7160475769026 1890.8997710495003,758.6372749417719 1828.3283184446057,737.5741907474179 1755.7487225856837,709.4788982201395 1683.0566027377436,681.33978625483 1610.3604255344303,653.200133308804 1537.7846165405233,625.1064637236749 1467.1459242469873,595.435835350141 1396.3914620801343,565.716518712128 1325.631995841654,535.9955791319658 1254.9972256583121,506.32657370058115 1197.34504595313,482.23021062918224 1139.5926495702288,458.0916510619014 1081.889752922881,433.9720258196958 1019.9306904889894,409.125322494603 957.9708165840233,384.27970113094307 881.9407780930965,353.9171584210902 805.9110100925278,323.55299276908806 725.7162991787241,290.5434314137241 645.5220616230472,257.5327880969272 576.8919631070405,228.85485933804955 508.25993734723164,200.17638959845542 442.088460942238,175.59855368943028 375.90930937332996,151.01909483825582 303.4274957789035,136.71448273431054 230.92348506945584,122.41041161108167 172.85290749705433,135.3512113288971 114.75300707925734,148.30661752605624 85.51895859670928,179.8257770076448 56.27035435175968,211.37036258290576 48.11575473023781,253.57605513692965 39.948040552754264,295.814747514656 63.81915277834806,350.3093580231925 87.69878967663753,404.84237816259576 142.07112163761255,454.8684879533882 196.45513540093307,504.9140730499723 255.39410536274275,543.7835375257482 314.3379610566477,582.6594937701215 378.05389217845305,621.1015834799148 441.77063477133305,659.5458371125737 515.8571662271763,704.8172673866285 589.9425142877025,750.0886976606834 659.4437946249363,793.872430964545 728.9435196426105,837.6545413262572 783.3231041263152,873.4074158946576 837.7000513290272,909.1581265401921 902.9288012130453,955.8777621921405 968.1538994772274,1002.5957749019396 1032.1316990770815,1053.3532906213507 1096.1570373573923,1104.1513798944943 1160.077560623894,1154.8650761758743 1219.9004254537672,1210.315058629633 1279.8328388787181,1265.8624176123499 1339.7056091796821,1321.3589244077218 1382.6815230287289,1381.5744059925469 1425.6420189273572,1441.7704122715802 1436.5178952505444,1488.7886692790003 1447.3826814690447,1535.7815001927477 1442.9548895502123,1610.3118725151303 1438.530884496395,1684.8184416859897 1426.1827291534328,1744.9960546206644 1413.810905904127,1805.2715850650136 1401.4540948697017,1865.4935584184357 1381.9871742791859,1923.6614279915584 1362.4888768071169,1981.9196413443256 1343.0077554727948,2040.1291664326136 1316.8035962849901,2098.0341193775494 1290.558593053095,2156.027252179264 1264.335499540215,2213.973319658649 1231.335540592568,2273.5585587088285 1198.2847294575758,2333.2319776157865 1165.2612378487636,2392.859413161848 1135.3230945109533,2443.3183075257875 1105.3414698480594,2493.8491523250127 1075.3818901493603,2544.343751416237 1047.7504209638344,2591.4404506275396 1020.1166526102636,2638.5382318002753 985.0780754553248,2697.6192768227384 949.745475281004,2752.7576543838313 907.3403637103846,2815.01750209606 882.0852199443843,2851.912927937569 856.8285884814137,2888.8105177019434 828.2415444828969,2931.9120743223816 799.6518632033875,2975.017417807835 769.4795428379507,3022.7979166447103 739.3046528141108,3070.5816613658844 712.5850742487239,3114.911244212628 685.8644813444936,3159.2413680400878 647.8816842629527,3224.993787257614 622.3899290561021,3270.0331368043185 604.4686579950275,3301.891491195111 589.721253174681,3328.183694994515 573.9010159710566,3356.759378397987 552.7631750039503,3396.3018228850065 523.8243244832776,3452.2971139009305 492.9336831603009,3513.4685084116945 465.0099491427216,3568.315838347346 439.6503284758599,3618.6535530308042 415.5098754760716,3668.902005896051 392.24959810192126,3721.9159521837078 369.9930766358192,3779.79115118924 349.713400141451,3841.813508366954 332.83990729422453,3904.829106140041 321.1986108798729,3960.137351646094 314.5168904286082,4000.692512034278 310.01694520672146,4032.0428855323394 306.5284310567974,4061.313188175712 303.7732500792943,4090.2524106206274 301.78818896292967,4119.149977550377 300.68184958652756,4147.721874088834 300.5394364129263,4175.237235288095 301.31019868866554,4199.845366117241 302.6836134825121,4220.34637134722 304.4661449431618,4238.843584003528 306.73714817945654,4257.61020505662 309.56532774238343,4276.82475814292 312.98919469669363,4296.2470478243295 317.14294607135747,4316.187056051366 323.3013014907672,4340.148714924374 345.3721989485428,4400.850538173273 395.6543616746824,4456.918320605199 445.9671912451847,4513.029922475156 519.606669761485,4516.833557892403 593.281988250249,4520.639357232516 644.1913166832093,4500.093991583789 660.5506411707602,4491.401513432129 674.4774458668659,4483.189426156662 686.9991207746241,4475.079043255885 699.377503415117,4466.317860553238 712.7392537529075,4456.126324836339 727.8174006587637,4443.849849438305 744.6882900362924,4429.274205995426 763.3450920039485,4412.263067367162 783.7908495782618,4392.65305737715 805.8941044451392,4370.43335641106 828.5016209623225,4346.321845879601 852.7994317280036,4319.622824581438 887.6022765357563,4279.848299367069 937.9511489464911,4218.9106085258045 990.1153497738095,4152.832518916985 1031.1316962227534,4100.926501136585 1061.395374706678,4064.327532727682 1084.437839719874,4038.2409016005226 1104.6026254345898,4016.627640017555 1125.944044207549,3994.338693519762 1152.6228463514349,3966.4976619292074 1187.3262183299532,3929.8602838894376 1226.064359736815,3888.520160481708 1263.6105853801937,3848.2214249531135 1296.3132754241606,3813.181021988257 1321.910319002947,3786.1098059571877 1343.2892006905195,3764.699412142883 1366.1112836843583,3743.744524091816 1395.054698729826,3718.217267025449 1431.0940225875781,3686.7527465962203 1466.0508440317458,3656.825693363097 1492.7090212858177,3634.6065333777237 1518.5766904680004,3613.3205651281987 1551.6692923633368,3585.9620883367033 1586.6311178791316,3557.0066364702952 1617.1183566441225,3531.385248759269 1646.5734042021575,3506.6002172358494 1680.013586207803,3479.357510317671 8541.102009548871,5236.6979334162825 M 8933.822632798332,7681.003260259204 8920.061706314404,7410.3232883011415 6539.089803415473,2312.1191231955204 8933.822632798332,7681.003260259204 M 8541.11877995108,5236.716326760641 8541.116075047497,5236.7133513667 8541.113370143916,5236.7101054824025 8541.110665240334,5236.707130088462 8541.10796033675,5236.704154694521 8541.105255433169,5236.700908810223 8541.11877995108,5236.716326760641 M 8900.299139762355,6947.761513579347 8888.842250149719,6923.454979499613 8900.299139762355,6947.761513579347 M 8900.710285106845,7496.039518897228 8900.710285106845,7496.039518897228 M 8898.001053678945,6991.286117120037 8898.001053678945,6991.286117120037 M 8541.121484854662,5236.719302154582 8541.121484854662,5236.719302154582 M 4626.734331416667,787.6122021139719 4626.734331416667,787.6122021139719 M 2242.2213039931407,2324.021239937783 2242.2213039931407,2324.021239937783 M 8984.22851105206,8728.585368597638 8984.22851105206,8728.585368597638 M 8893.896092002644,7511.941376566444 8893.896092002644,7511.941376566444 M 2110.6680477839677,2478.885625708451 2110.6680477839677,2478.885625708451 "/><path class="sewinguide" stroke="#ff4a00" d="M 8462.851143783098,5282.7227427341495 8619.214384251236,5190.521108517098 "/>
<path class="sewinguide" stroke="#ff00f7" d="M 8455.345095512344,5321.287435368613 8636.531658795237,5310.240881742597 "/>
<path class="sewinguide" stroke="#ffa300" d="M 8455.345095512344,5321.287435368613 8636.531658795237,5310.240881742597 "/>
<path class="sewinguide" stroke="#00a9ff" d="M 8551.194993794317,6896.975847942885 8732.714767387239,6898.058388196062 "/>
<path class="sewinguide" stroke="#0800ff" d="M 8540.951219626988,7062.924025098694 8720.859479288241,7087.082281858388 "/>
<path class="sewinguide" stroke="#00ff5b" d="M 8663.078072814422,9011.90311922331 8829.549622497363,8939.53032169607 "/>
<path class="sewinguide" stroke="#ff0002" d="M 8663.078072814422,9011.90311922331 8829.549622497363,8939.53032169607 "/>
<path class="sewinguide" stroke="#6000ff" d="M 6787.861966696118,3523.7721370236027 6682.407479868929,3376.022509862057 "/>
<path class="sewinguide" stroke="#00ff5b" d="M 6817.306219998295,3488.2690138104854 6652.898308880779,3411.323306287228 "/>
<path class="sewinguide" stroke="#20ff00" d="M 7847.571643377181,4610.580858544543 7871.740738770058,4430.674052768965 "/>
<path class="sewinguide" stroke="#ef00ff" d="M 8046.447885144366,4594.762573943192 7967.517217938629,4431.298352968553 "/>
<path class="sewinguide" stroke="#94ff00" d="M 8184.727108110432,4448.676018711437 8030.4276414528995,4353.060762362393 "/>
<path class="sewinguide" stroke="#0015ff" d="M 8437.911053661832,459.23422346706906 8292.592745990767,350.4537787424211 "/>
<path class="sewinguide" stroke="#ff0085" d="M 8502.58917815758,310.3776388163889 8323.417193251393,281.25726602008746 "/>
<path class="sewinguide" stroke="#ff7800" d="M 8477.629663447464,170.32423683608684 8315.731767609022,252.41973421402326 "/>
<path class="sewinguide" stroke="#e800ff" d="M 8379.401567445517,67.43739663992005 8296.99658683366,229.17800233505815 "/>
<path class="sewinguide" stroke="#9cff00" d="M 8221.0900945497,31.654835754705445 8222.96549771258,213.16815139032363 "/>
<path class="sewinguide" stroke="#ffa300" d="M 5801.203703473737,406.9928948499523 5688.78202743348,549.512945953968 "/>
<path class="sewinguide" stroke="#99ff00" d="M 5367.041816667837,149.9642331581519 5298.4460239367945,318.02736501449 "/>
<path class="sewinguide" stroke="#00ff26" d="M 4875.464422352277,31.677252643142676 4870.8852794553895,213.14248861758782 "/>
<path class="sewinguide" stroke="#003cff" d="M 4527.423232171332,94.95094893491071 4584.763988719557,267.179378723079 "/>
<path class="sewinguide" stroke="#003dff" d="M 3925.5280680481164,94.9499261432437 3868.1869015379416,267.1782375918803 "/>
<path class="sewinguide" stroke="#00ffd7" d="M 3577.486672886196,31.676170681709806 3582.0658157830835,213.14140665615494 "/>
<path class="sewinguide" stroke="#7400ff" d="M 3085.9099294380603,149.96354002660897 3154.504961414971,318.0269761846 "/>
<path class="sewinguide" stroke="#00ff25" d="M 2651.7474551609143,406.9923031522937 2764.1690044088155,549.5124556901937 "/>
<path class="sewinguide" stroke="#00ffa7" d="M 231.87103405842444,31.65385522715691 229.97593608048726,213.16696799500644 "/>
<path class="sewinguide" stroke="#ff002b" d="M 73.5660192519851,67.42842819398042 155.9399949065296,229.18480685813205 "/>
<path class="sewinguide" stroke="#00eeff" d="M -24.676040814705278,170.31757601101575 137.21674951822465,252.42314915479577 "/>
<path class="sewinguide" stroke="#7fff00" d="M -49.640648351097724,310.35831143501196 129.53672945660625,281.2711835943001 "/>
<path class="sewinguide" stroke="#00ffc2" d="M 15.033794939932339,459.22479856864993 160.36378441334273,350.45995775654166 "/>
<path class="sewinguide" stroke="#ffa100" d="M 268.2207074324484,4448.655330425446 422.5236904646372,4353.0457459211 "/>
<path class="sewinguide" stroke="#ff00a0" d="M 406.4679829513612,4594.74565984298 485.4663995390083,4431.314185107332 "/>
<path class="sewinguide" stroke="#8eff00" d="M 605.3683628132081,4610.592506535594 581.1956136872899,4430.686207929437 "/>
</g>
<g><path class="seam" d="M 4290.398234808604,8837.250880278514 4290.396882356813,8837.25045763733 4290.39580039538,8837.250034996145 4290.3944479435895,8837.24961235496 4290.393095491798,8837.249189713775 4290.392013530365,8837.248767072591 4290.390661078574,8837.248344431406 4290.389308626783,8837.247921790222 4290.38822666535,8837.247499149036 4290.386874213559,8837.247076507852 4290.385521761768,8837.246653866667 4290.384439800335,8837.246231225483 4290.383087348544,8837.245808584297 4290.381734896753,8837.245385943113 4290.3806529353205,8837.244963301928 4290.379300483529,8837.244523755096 4290.377948031738,8837.24410111391 4292.230806985524,8838.17004032703 4294.083395448952,8839.095996445796 4295.93598391238,8840.021952564563 4297.788842866166,8840.947908683329 4299.641431329594,8841.873864802095 4301.494019793022,8842.799820920862 4303.346878746808,8843.725777039628 4305.1994672102355,8844.651733158393 4307.052055673664,8845.57768927716 4308.90491462745,8846.503645395926 4310.757503090877,8847.429601514692 4312.610091554306,8848.355557633458 4314.462950508092,8849.281513752225 4316.315538971519,8850.207469870991 4318.168127434948,8851.133425989758 4320.020986388734,8852.059382108522 4321.873574852161,8852.985338227289 4323.7261633155895,8853.911294346055 4325.579022269376,8854.837250464821 4327.431610732803,8855.763206583588 4329.284199196231,8856.689162702354 4331.137058150018,8857.61511882112 4332.989646613445,8858.541074939887 4334.842235076873,8859.467014153004 4336.69509403066,8860.392953366123 4338.547682494087,8861.31890948489 4340.400270957515,8862.244865603656 4342.253129911302,8863.170821722422 4344.10571837473,8864.096777841189 4345.958306838157,8865.022733959955 4347.8111657919435,8865.948690078721 4349.66402474573,8866.874646197488 4408.834602076762,8896.545849363032 4468.064957776961,8926.251709105723 4527.282329939966,8955.946106819487 4586.452366290282,8985.617208551146 4666.6743967302655,8998.259040347719 4746.931590916818,9010.903855991055 4827.217998062057,9023.556025591006 4907.4389465406075,9036.197747500872 4984.103487789323,9015.432198474144 5060.768029038037,8994.666674805887 5137.492078165558,8973.880124738691 5214.249127116783,8953.089703278243 5290.913668365497,8932.324133119457 5367.578750594928,8911.558537602199 5435.793714033661,8868.778526395092 5504.00921845311,8825.998515187985 5572.284771732085,8783.177152767363 5640.584669143298,8740.343753525802 5708.799091601314,8697.564858091422 5777.012432097898,8654.785928845746 5833.735883158142,8594.320886094172 5890.500989733552,8533.81445831779 5947.206047449437,8473.371223851345 5989.284068554383,8424.216431126959 6031.375073196523,8375.049804449402 6092.970055608254,8323.510165859207 6153.389486923175,8291.079927228553 6195.374459344894,8282.771545385562 6237.341038422254,8274.456401283614 6292.085041041067,8277.411643692314 6346.816601103401,8280.359650483932 6408.90495792852,8293.559106606792 6470.986822985042,8306.754978732404 6534.8225475242425,8326.738333039346 6598.756730553834,8346.752185134177 6662.641143357514,8366.75068690118 6736.277274555631,8396.264430866946 6810.028093665633,8425.82429343879 6883.782158659933,8455.385305594657 6957.413962012319,8484.897494240866 7028.682220614604,8517.143326069805 7100.067872032357,8549.442376876721 7171.456769334408,8581.743050625788 7242.720700090962,8613.986887588335 7300.503391393984,8640.849183628976 7358.387246090979,8667.758714048421 7416.221871542779,8694.644508938933 7477.893132235527,8723.590764133161 7539.563310966843,8752.537661741992 7614.923006727518,8790.56525878911 7690.280538565328,8828.593143232238 7768.1979911533035,8872.71441469186 7846.119230606294,8916.8336236625 7913.1148235101855,8951.482880663727 7980.122317989838,8986.135290568192 8049.189867037671,9004.985983405748 8118.273104526281,9023.839575561831 8192.55949454555,9030.018932021709 8266.865359870613,9036.195515955416 8324.358626490344,9021.049953554186 8381.876237242313,9005.889378938075 8411.336424117153,8975.060713718425 8440.810676490622,8944.208236894427 8451.003294168953,8902.804303120629 8461.211059307345,8861.371502953916 8443.122828072661,8804.735082166428 8425.031891934394,8748.062939746009 8379.931411566733,8688.699266110503 8334.821734526891,8629.316556716038 8281.819689814996,8581.150879609062 8228.806284508055,8532.974010963515 8163.566715009709,8495.029386833778 8098.320112762049,8457.07796663379 8019.180584735649,8414.925222567386 7940.043761612832,8372.770855558834 7867.288347021069,8329.141842739873 7794.536719294321,8285.51607580521 7739.079704091249,8248.604623409978 7683.625934772475,8211.695943540915 7617.968728161041,8162.491651080976 7552.314767433906,8113.291010240872 7488.44658405172,8059.365984804151 7424.5324173086365,8005.39991245557 7360.723200824541,7951.522358076716 7301.681106413661,7892.141812605118 7242.529733898061,7832.657060723015 7183.438951222703,7773.227083138452 7142.6116775341525,7708.419892477716 7101.802256209244,7643.630283690263 7090.905281638116,7596.528174671796 7080.009930009137,7549.454196650583 7087.574463367032,7477.077468560324 7095.136291821345,7404.724408376409 7108.527187495234,7346.375175018102 7121.942427301362,7287.938302783732 7135.343060628146,7229.5484958716925 7154.098321086193,7172.758368938148 7172.881171560778,7115.88682440678 7191.649956536736,7059.057476371294 7215.155568665789,7001.641840484373 7238.695262579978,6944.144110773732 7262.21764511124,6886.689118539691 7290.965360382538,6825.945775020805 7319.732009978911,6765.164292361411 7348.459167982984,6704.465174016094 7374.122752189892,6652.409034086883 7399.803647779726,6600.3185418821795 7425.449920603708,6548.299459132044 7449.548988578689,6500.062643060857 7473.649679495819,6451.826367970386 7505.181281533886,6391.948187862257 7537.9955488506175,6336.66942580525 7578.620495751222,6275.107713707579 7603.598657390407,6239.17415157989 7628.576278048878,6203.238966510052 7657.771925353382,6161.8498843474845 7686.969195600037,6120.459179242768 7718.781566629932,6075.042495646351 7750.594478640544,6029.625000578859 7779.551012468386,5987.72198673568 7808.507546296227,5945.819513873217 7850.665091566489,5883.834484364937 7879.298659906618,5841.264982279112 7899.528092816948,5811.108012241503 7916.216265957501,5786.206399373693 7934.177907704539,5759.128691574027 7958.329450809015,5721.625744387962 7991.600305850416,5668.471684094749 8027.36778689816,5610.414715568495 8059.7433188538635,5558.389952520838 8089.245702224586,5510.62946997047 8117.567124691334,5462.860872709357 8145.28968150499,5412.281069155294 8172.475585447943,5356.798898348908 8198.098596101117,5297.031619287648 8220.459493034197,5235.983568380231 8236.96265076973,5182.119470896699 8247.233710651944,5142.455035258123 8254.516934037294,5111.730035468259 8260.612163769354,5082.980426764454 8265.953807363423,5054.493734688836 8270.52942226302,5025.977288673814 8274.207550154055,4997.705636432978 8276.836716435924,4970.394224963812 8278.298987312444,4945.887798509357 8278.791820745115,4925.403022700871 8278.699313042605,4906.870375807635 8278.14643075041,4888.026394512093 8277.081780700468,4868.686333899582 8275.445314033255,4849.087954994972 8273.132080489784,4828.907751329838 8269.195363816294,4804.553069966342 8252.80797595408,4742.276992832621 8208.034247939144,4682.030134366242 8163.233470888385,4621.737022048609 8090.519170831072,4611.134611477579 8017.76970702719,4600.526250118668 7965.32811833752,4616.14815026713 7948.272619290508,4623.242571382444 7933.675336618972,4630.088141368199 7920.4835218487315,4636.961301370492 7907.372313205239,4644.492834904685 7893.149930170192,4653.350312174857 7877.031409724043,4664.119615296907 7858.946965354375,4677.0371528439155 7838.916072366977,4692.26116167544 7816.903567015281,4709.922559124858 7793.008989751112,4730.005115770676 7768.203941941185,4751.76146675314 7741.680739375864,4776.207573857713 7703.516713754317,4812.635051379507 7647.943928677928,4868.565695199817 7590.056287115918,4929.345419671882 7544.518153348661,4977.060730332428 7511.069315651553,5010.589362685209 7485.77359833182,5034.373850373585 7463.752978269377,5053.994409487567 7440.487020597705,5074.168391874462 7411.3698154970825,5099.303167431056 7373.39188724199,5132.310835353913 7330.870802930285,5169.471882727191 7289.526351676824,5205.601279874229 7253.406151201965,5236.917842077512 7225.0852697159335,5261.044229578674 7201.547198743894,5280.041037926609 7176.670741479398,5298.490914770229 7145.197565358706,5320.729009080677 7105.900185136231,5347.769389210909 7067.65338946507,5373.14598314775 7038.419332529698,5391.869325743527 7010.047598856322,5409.7852546200265 6973.696399615546,5432.614911343896 6935.383604296981,5456.789446128819 6901.60747326643,5477.715121221199 6868.0526033489,5496.423316356916 6828.990008757358,5514.4171464565825 6826.1947613955435,5515.542656837123 6823.399514033729,5516.668167217664 6820.604807652632,5517.793677598205 6817.809560290818,5518.919187978746 6815.0143129290045,5520.0446983592865 6812.219606547907,5521.170208739827 6809.424359186092,5522.29544863001 6806.629111824279,5523.42095901055 6803.833864462465,5524.546469391091 6801.03861710065,5525.671709281273 6798.243910719553,5526.797219661814 6795.448663357739,5527.922730042355 6792.653415995926,5529.048240422896 6789.858709614828,5530.173750803437 6787.063462253013,5531.299261183977 2533.687513263922,8104.307213973412 2578.4133644854533,8122.316056287959 2617.474336134847,8140.31076548129 2651.029206052376,8159.018352013702 2684.8050665925684,8179.94422997385 2723.116509459343,8204.117547552161 2759.4687906615522,8226.947610011568 2787.8397128638535,8244.86320077512 2817.075663231733,8263.587151974203 2855.322188412535,8288.96421926917 2894.619027654294,8316.003720305738 2926.0924742653438,8338.241544125829 2950.9686610394824,8356.692502930882 2974.5053795597305,8375.690122749891 3002.826802026478,8399.817051231768 3038.9461910302625,8431.131990492902 3080.2903717933655,8467.260373301098 3122.81145610507,8504.421420674376 3160.790466321596,8537.4286490504 3189.909023874009,8562.564067021594 3213.1738995842493,8582.737406993889 3235.1947901370495,8602.35887901283 3260.489966476066,8626.144651530407 3293.9385336828163,8659.67406154297 3339.4747740175653,8707.389236958335 3397.361874598859,8768.167169431777 3452.9338482041735,8824.09696796972 3491.0981443160777,8860.524191906801 3517.619453448892,8884.969960898427 3542.4263946913265,8906.727021918081 3566.321242445854,8926.81015335591 3588.3329363264747,8944.470604089074 3608.3632883331566,8959.69463827907 3626.448273683542,8972.61245476926 3642.566523639332,8983.381419778363 3656.789447655096,8992.238601199706 3669.9014677696628,8999.769974130248 3683.093012049545,9006.642969302478 3697.692458643947,9013.489295815954 3714.743359354869,9020.58086410327 3767.175210391643,9036.194603050457 3839.8851826032255,9025.592805309145 3912.653039751466,9014.995246658915 3957.4289316892678,8954.745780496427 4002.2288972689503,8894.472997219778 4018.6157441504497,8832.184832548173 4022.551919843223,8807.828477525587 4024.864612405978,8787.647174993372 4026.5016200539067,8768.047646504741 4027.565458632774,8748.70802543906 4028.118611415328,8729.863739841865 4028.2119305889123,8711.331363438989 4027.71774470445,8690.847669591936 4026.256285299004,8666.34195317467 4023.627119017135,8639.029561177957 4019.9492616164594,8610.757807503236 4015.3733762265033,8582.241361488213 4010.032273613151,8553.7546356013 4003.936502900374,8525.00455353937 3996.6538204957405,8494.27803224124 3986.381678652094,8454.615422412582 3969.8793323876357,8400.753759342273 3947.518976435273,8339.704896963782 3921.896236272456,8279.937076921806 3894.7103323295028,8224.454162266935 3866.9864230640565,8173.874358712872 3838.6647301069506,8126.104814735505 3809.1636991880187,8078.344196939958 3776.7873557612406,8026.318284308279 3741.021768146004,7968.261856762741 3707.7492901624532,7915.106444017737 3683.598017548336,7877.603767322031 3665.636646291656,7850.527141483798 3648.9479321703866,7825.624717144912 3628.7179582793406,7795.467070881408 3600.0857423910015,7752.898109776299 3557.9284676110983,7690.913215513198 3528.971663292899,7649.010201670019 3500.0143179939832,7607.107593562377 3468.201405983371,7561.689692759348 3436.3895759341917,7516.2738206340055 3407.1920351971794,7474.882168813035 3377.996928873391,7433.493898121543 3353.0171442920555,7397.557225354734 3328.0381711817945,7361.622987001149 3287.4107898679663,7300.061004413121 3254.6008503969665,7244.78116039468 3223.0697893396164,7184.906090925671 3198.970180383919,7136.667651912335 3174.8705714282214,7088.432864518834 3149.2245690945974,7036.413917013878 3123.543403014405,6984.3226133380995 3097.8795483171393,6932.267420125142 3069.152119822708,6871.568301779826 3040.3846587552603,6810.78397897167 3011.637754955037,6750.043069866008 2988.113478991267,6692.584696502489 2964.5762194903027,6635.090618411685 2941.0703368708914,6577.674982524763 2922.2991174817093,6520.840630417651 2903.5192424010647,6463.973819467551 2884.763981943018,6407.183827779186 2871.3573978283525,6348.785500420862 2857.947838319747,6290.357148632776 2844.5566721555006,6232.00778002929 2836.991868307247,6159.635109294404 2829.430310343292,6087.278127000295 2840.3262029529874,6040.180616317917 2851.2229070337576,5993.102039960615 2892.0496397415914,5928.293902583625 2932.8596020472155,5863.504970022067 2991.9628272790524,5804.068230178549 3051.101486747816,5744.590105310223 3110.1433106683376,5685.209627461214 3173.952797642791,5631.332275950129 3237.8729151737557,5577.36295771725 3301.735147768062,5523.440975297059 3367.392083889137,5474.237697175962 3433.0465855969883,5425.036312487373 3488.5033303097025,5388.12492771473 3543.957640609193,5351.21597735531 3616.7122437298813,5307.586964536348 3689.4644124373453,5263.960927111328 3768.603940463745,5221.808521157872 3847.7413045672783,5179.653951281552 3912.9797921041923,5141.709563830877 3978.226935332569,5103.757602650173 4031.229791515539,5055.591925543197 4084.2423853514047,5007.415158331533 4129.344218170858,4948.050368923301 4174.453083739624,4888.668538622501 4192.542126445383,4832.028669082945 4210.631169151142,4775.3606685461355 4200.437740001736,4733.953463529569 4190.231327315136,4692.523537322911 4160.772222401727,4661.696833158358 4131.296617576468,4630.842809467625 4073.8071378217533,4615.698054311058 4016.285740204769,4600.536258261923 3942.000161656573,4606.71534000503 3867.692943879719,4612.891716844557 3798.6256653222445,4631.742189908696 3729.5429688143513,4650.596179347492 3662.546023458669,4685.245723744725 3595.539610940449,4719.897973045541 3517.619453448892,4764.020089787532 3439.7006484091253,4808.138419664508 3364.3401411773752,4846.166388635871 3288.983691300998,4884.194087116876 3227.3116191371746,4913.140612801463 3165.642522367292,4942.08713848605 3107.808437896209,4968.973339112099 3049.9243127088557,4995.882801908954 2992.141350915476,5022.744928893121 2920.877149668563,5054.988732044373 2849.4852769725717,5087.291231603358 2778.1020599680432,5119.588862335895 2706.833801365757,5151.834288429296 2633.2019980133714,5181.346679943273 2559.4427937022656,5210.909653154236 2485.696843418712,5240.467757538752 2412.061523691669,5269.981231014162 2348.1692666676013,5289.98182908144 2284.2423868776814,5309.993787743763 2220.4067975836597,5329.977074428115 2158.3154653646,5343.177274399461 2096.236710947198,5356.372605544358 2041.4889214633704,5359.3282536885945 1986.7608777756925,5362.2755166317265 1944.7714422630631,5353.966864298376 1902.7903919515384,5345.64549891819 1842.3904359424093,5313.222090169083 1780.7888265169017,5261.6623000472 1738.7063423210457,5212.502570873776 1696.6262925384135,5163.361235044711 1639.921099577349,5102.918000578267 1583.1646486934023,5042.418233626957 1526.4326771868743,4981.946056692183 1458.2192014451114,4939.167465559456 1390.0055904581693,4896.388333446012 1321.7246273720311,4853.56348846203 1253.4295987872658,4810.7337746516 1185.2145001033537,4767.953560576723 1116.999130929083,4725.173346501846 1040.3341839448315,4704.407801701531 963.6691693379903,4683.6419864108575 886.9383579515128,4662.854261401168 810.1885446173707,4642.065183939688 733.5238005008877,4621.299639139373 656.8591240069943,4600.5340943390565 576.6386488865703,4613.175731720684 496.3719537261861,4625.82223792876 416.0943037062941,4638.472801492208 335.87305092609034,4651.114709364194 276.70240597246783,4680.785608228086 217.49385855740022,4710.480851224218 158.25494859962274,4740.186102363604 99.0841092310553,4769.857271717854 4290.459365629561,8837.271217772322 4290.45801317777,8837.270795131139 4290.456931216338,8837.270355584305 4290.455578764546,8837.269932943122 4290.454226312755,8837.269510301936 4290.453144351322,8837.269087660752 4290.451791899532,8837.268665019566 4290.45043944774,8837.268242378383 4290.449357486307,8837.267819737197 4290.448005034516,8837.267397096013 4290.446652582725,8837.266974454828 4290.445570621292,8837.266551813644 4290.444218169501,8837.266129172458 4290.44286571771,8837.265706531274 4290.441783756277,8837.265283890089 4290.440431304486,8837.264861248905 4290.439078852695,8837.264438607719 4290.437726400904,8837.264015966535 4290.436373949113,8837.26359332535 4290.43529198768,8837.263170684166 4290.433939535889,8837.26274804298 4290.432587084098,8837.262325401796 4290.431505122665,8837.261902760612 4290.430152670874,8837.261480119427 4290.428800219082,8837.261057478243 4290.427447767292,8837.260634837057 4290.426095315501,8837.260212195873 4290.425013354068,8837.259789554688 4290.423660902276,8837.259366913504 4290.422308450486,8837.258944272318 4290.421226489053,8837.258521631134 4290.419874037261,8837.258082084301 4290.41852158547,8837.257659443118 4290.41716913368,8837.257236801932 4290.415816681888,8837.2567972551 4290.414734720455,8837.256374613915 4290.4133822686645,8837.255951972731 4290.412029816874,8837.255529331545 4290.41094785544,8837.255106690362 4290.409595403649,8837.254684049176 4290.4082429518585,8837.254261407992 4290.407160990425,8837.253838766806 4290.405808538634,8837.253416125623 4290.404456086843,8837.252993484437 4290.403374125411,8837.252570843253 4290.402021673619,8837.252148202067 4290.400669221828,8837.251725560884 4290.3995872603955,8837.2513029197 4290.398234808604,8837.250880278514 M 1439.806381780567,5596.998664291293 1304.4251460219077,5602.870739477825 1705.354204927,6000.340632436859 1439.806381780567,5596.998664291293 M 9036.35470798405,4520.726996108578 9036.359576810497,4520.728078070011 9035.648187168386,4518.791367105177 9034.93625654556,4516.854115159627 9034.224325922733,4514.916863214078 9033.512395299906,4512.980152249244 9032.800464677079,4511.042900303694 9032.089075034968,4509.105648358145 9031.377685392858,4507.168937393311 9030.66575477003,4505.231685447761 9029.953824147204,4503.294433502212 9029.242434505093,4501.357722537378 9028.531044862983,4499.420470591828 9027.819114240156,4497.483218646279 9027.107183617329,4495.546507681445 9026.395793975218,4493.609255735895 9025.684404333108,4491.672003790346 9024.97247371028,4489.735292825512 9024.260543087454,4487.798581860679 9023.549153445343,4485.861329915129 9022.837763803233,4483.924077969579 9022.125833180406,4481.987367004746 9021.413902557579,4480.050115059196 9020.702512915468,4478.112863113646 9019.991123273358,4476.176152148813 9019.27919265053,4474.238900203263 9018.567262027704,4472.301648257713 9017.855872385593,4470.36493729288 9017.144482743483,4468.42768534733 9016.432552120656,4466.49043340178 9015.720621497829,4464.553722436947 9015.009231855718,4462.616470491397 9014.297842213608,4460.679218545847 9013.58591159078,4458.742507581014 8990.966966855962,4396.729888056196 8968.345317217561,4334.698334206302 8952.06342059505,4269.612403231423 8935.769622396778,4204.475620069198 8919.477447140654,4139.330722196228 8913.53747887421,4069.722733412677 8907.593182762033,4000.0579416539013 8901.65159155344,3930.4077563744686 8900.88556285897,3861.780565629813 8900.118993183783,3793.0965719099318 8899.354587431462,3724.4352993801403 8897.798726890998,3661.8968465989483 8896.241243408385,3599.307000649695 8894.684841887205,3536.736630006233 8892.381886977346,3476.9160643444047 8890.07839108677,3417.0478923795304 8887.774895196195,3357.196490816865 8887.138701873668,3295.2606905537805 8886.501967570426,3233.274038103351 8885.865233267183,3171.309565862295 8892.776261919626,3105.015624947619 8899.689454494935,3038.708700495748 8906.598319224513,2972.4520872505054 8924.313814745574,2901.820021970746 8942.029851247351,2831.200399247464 8959.73344519265,2760.628382827228 8977.535497628342,2691.8837992671065 8995.331058295435,2623.163559839224 9013.113094444616,2554.4941725986864 9020.36548192913,2495.633306727812 9027.618951375076,2436.784883413415 9034.863765129558,2377.9910991513784 9035.525384545757,2317.7945518916285 9036.189708865537,2257.6174799376704 9035.266254782586,2178.0467902802734 9035.189976501568,2103.4363528118583 9035.114239201266,2028.752882946725 9035.038501900966,1954.1067407510257 9035.00442011583,1878.8509132879053 9034.970879311411,1803.5956268055013 9034.93787948771,1728.2472916398708 9034.903797702575,1652.8767762648663 9034.870256898155,1577.6193258595965 9034.83617511302,1502.3618754543268 9034.802093327884,1427.1044250490572 9034.7663886006,1347.9118809124473 9034.730683873315,1268.7193367758373 9034.696061107463,1189.5267926392273 9034.660356380178,1110.2119868607033 9034.624651652894,1030.8771647956712 9034.588946925609,951.6846206590614 9034.553242198324,872.4931584838843 9034.518078451756,793.3011553279907 9034.519701393907,790.8261685503056 9034.52078335534,788.351722753337 9034.522406297488,785.8767359756519 9034.524029239637,783.4017491979668 9034.525652181786,780.9273034009981 9034.527275123935,778.452316623313 9034.528898066086,775.9773298456279 9034.530521008235,773.5028840486592 9034.532143950384,771.0284382516905 9034.533766892533,768.5534514740054 9034.534848853966,766.0784646963203 9034.536471796115,763.6040188993516 9034.538094738265,761.1295731023829 9034.539176699698,758.6545863246978 9034.540799641847,756.1795995470127 9034.542422583996,753.705153750044 9034.544045526145,751.2307079530754 9034.545668468294,748.7557211753902 9034.546750429728,746.2807343977051 9034.548373371877,743.8062886007365 9034.549996314026,741.3318428037678 9034.551078275459,738.8568560260827 9034.552701217608,736.3818692483975 9034.554324159757,733.9074234514288 9034.555947101908,731.4329776544602 9034.557570044057,728.957990876775 9034.55865200549,726.48300409909 9034.560274947638,724.0085583021213 9034.561897889787,721.5335715244362 9034.56297985122,719.0585847467511 9034.56460279337,716.5841389497824 9036.35470798405,4520.726996108578 M 9036.227036534972,4520.7042749184875 9036.232446342136,4520.70535687992 9036.2378561493,4520.706438841354 9036.243265956464,4520.707520802786 9036.248675763629,4520.708602764219 9036.253544590078,4520.709143744935 9036.258413416524,4520.709684725652 9036.26382322369,4520.710766687085 9036.269233030853,4520.711848648518 9036.274642838018,4520.7129306099505 9036.280052645183,4520.714012571383 9036.285462452346,4520.715094532817 9036.290872259511,4520.716176494249 9036.295741085958,4520.716717474966 9036.300609912407,4520.717258455682 9036.30601971957,4520.718340417115 9036.311429526735,4520.719422378548 9036.3168393339,4520.720504339981 9036.322249141063,4520.7215863014135 9036.327658948228,4520.722668262846 9036.333068755392,4520.72375022428 9036.338478562557,4520.724291204996 9036.343888369722,4520.724832185712 9036.349298176885,4520.725914147145 9036.227036534972,4520.7042749184875 M 8617.797386698421,1768.2923072124577 8652.716069002081,1949.119980506938 8617.797386698421,1768.2923072124577 M 1431.636220510624,5713.268674280492 1731.9064852058295,5952.768952156527 1431.636220510624,5713.268674280492 M 6597.610392415711,6578.885426877784 6596.508955677052,6238.296410367476 2252.802210580692,7143.186063809826 6597.610392415711,6578.885426877784 M 9036.205397306314,4520.701029034189 9036.210807113479,4520.702110995622 9036.216216920642,4520.703192957055 9036.221626727807,4520.703733937771 9036.205397306314,4520.701029034189 M 1431.636220510624,5713.268674280492 1431.636220510624,5713.268674280492 M 9036.194577691986,4520.698865111323 9036.19998749915,4520.699947072756 9036.194577691986,4520.698865111323 M 6597.610392415711,6578.885426877784 6597.610392415711,6578.885426877784 M 9036.189708865537,4520.698324130607 9036.189708865537,4520.698324130607 M 1833.49157364743,6388.750450847417 1833.49157364743,6388.750450847417 M 381.3505948531065,5218.957282291907 381.3505948531065,5218.957282291907 M 8717.023528726011,2047.509225366205 8748.655753177336,2274.606438356561 8717.023528726011,2047.509225366205 M 609.5683479636708,5328.602983408373 609.5683479636708,5328.602983408373 M 1740.2335308835386,6182.94759130769 1740.2335308835386,6182.94759130769 M 1734.3698408981113,6175.619196032519 1734.3698408981113,6175.619196032519 M 607.4284987398165,5336.953832237605 607.4284987398165,5336.953832237605 "/><path class="sewinguide" stroke="#ff4a00" d="M 4212.196327797669,8883.344867505495 4368.559568265807,8791.143233288443 "/>
<path class="sewinguide" stroke="#003cff" d="M 4560.089253866113,9072.465568088726 4612.815478714452,8898.768849013568 "/>
<path class="sewinguide" stroke="#00ff26" d="M 4912.132460368491,9126.837891596879 4902.745432712725,8945.55775555569 "/>
<path class="sewinguide" stroke="#99ff00" d="M 5404.034980396517,8994.676513892668 5331.1225207933385,8828.440628934322 "/>
<path class="sewinguide" stroke="#ffa300" d="M 5834.828507828101,8724.749798412473 5719.196356367696,8584.82192403384 "/>
<path class="sewinguide" stroke="#9cff00" d="M 8273.027461475824,9126.747742232179 8260.703258265403,8945.643577074658 "/>
<path class="sewinguide" stroke="#e800ff" d="M 8424.300756496134,9086.12534808433 8339.451717988492,8925.65340979182 "/>
<path class="sewinguide" stroke="#ff7800" d="M 8520.371797551597,8987.885346280209 8361.249555429647,8900.531414904652 "/>
<path class="sewinguide" stroke="#ff0085" d="M 8551.680946628501,8854.101436388646 8370.741171986188,8868.641062349763 "/>
<path class="sewinguide" stroke="#0015ff" d="M 8504.74011748612,8704.65489641765 8345.323666382668,8791.470780206597 "/>
<path class="sewinguide" stroke="#94ff00" d="M 8334.014117939845,4701.740432882975 8171.601833968312,4782.813552782265 "/>
<path class="sewinguide" stroke="#ef00ff" d="M 8210.117666112015,4544.022394965178 8116.349275664757,4699.451108151324 "/>
<path class="sewinguide" stroke="#20ff00" d="M 8014.137883176051,4509.837172626295 8021.401530878328,4691.214786630326 "/>
<path class="sewinguide" stroke="#8eff00" d="M 3763.543116050146,9126.883376241176 3770.8073047331395,8945.505779142793 "/>
<path class="sewinguide" stroke="#ff00a0" d="M 3959.5053340184727,9092.728761576891 3865.8007454844596,8937.26157113729 "/>
<path class="sewinguide" stroke="#ffa100" d="M 4083.4332557089174,8935.012900261194 3921.024538828983,8853.932654631531 "/>
<path class="sewinguide" stroke="#00ffc2" d="M 4254.157218124683,4932.083990850826 4094.7489493545654,4845.253086394175 "/>
<path class="sewinguide" stroke="#7fff00" d="M 4301.099966058042,4782.643923101273 4120.162372244241,4768.077413990999 "/>
<path class="sewinguide" stroke="#00eeff" d="M 4269.793141507654,4648.847814200215 4110.669513122617,4736.199260445607 "/>
<path class="sewinguide" stroke="#ff002b" d="M 4173.732860896753,4550.612774203602 4088.8603742561822,4711.072303750931 "/>
<path class="sewinguide" stroke="#00ffa7" d="M 4022.4568699539864,4509.984792739292 4010.1146104555514,4691.087723784553 "/>
<path class="sewinguide" stroke="#00ff25" d="M 1584.248626124721,4911.982026521807 1468.6167282490273,5051.910086862561 "/>
<path class="sewinguide" stroke="#7400ff" d="M 1153.45537763632,4642.055404022673 1080.5428842218462,4808.291288981019 "/>
<path class="sewinguide" stroke="#00ffd7" d="M 661.552693834834,4509.894034771287 652.1655541791545,4691.174153906827 "/>
<path class="sewinguide" stroke="#003dff" d="M 309.5099828792452,4564.26634137379 362.2361189729355,4737.963077354598 "/>
<path class="sewinguide" stroke="#ff00f7" d="M 4252.651854752969,8754.759021544729 4328.2668765061535,8919.783177320853 "/>
<path class="sewinguide" stroke="#00ff5b" d="M 9118.563532369255,4559.2009318316395 8954.15562125174,4482.255224308382 "/>
<path class="sewinguide" stroke="#6000ff" d="M 9098.850135892639,4427.6352372924 8928.32168728892,4489.849777869627 "/>
<path class="sewinguide" stroke="#ff0002" d="M 9098.850135892639,4427.6352372924 8928.32168728892,4489.849777869627 "/>
<path class="sewinguide" stroke="#0800ff" d="M 9102.17484277219,2571.9771584115947 8924.051346117043,2537.0111867857777 "/>
<path class="sewinguide" stroke="#00a9ff" d="M 9125.425568455566,2384.0085703016725 8944.301961803549,2371.9736280010843 "/>
<path class="sewinguide" stroke="#ffa300" d="M 9125.279571284718,793.2638793908284 8943.756585618794,793.3384312651532 "/>
<path class="sewinguide" stroke="#ff4a00" d="M 9125.279571284718,793.2638793908284 8943.756585618794,793.3384312651532 "/>
</g>
<g><path class="seam" d="M 597.7840297724119,5285.286927933868 576.5588542308964,5230.113927606923 602.1569121485263,5265.955793503177 597.7840297724119,5285.286927933868 "/></g>
<g><path class="seam" d="M 757.8907215530932,5377.838990862813 426.5732016175032,5029.370049236929 757.8907215530932,5377.838990862813 "/></g>
<g><path class="seam" d="M 436.5877013949485,4978.356108657928 426.5732016175032,5029.370049236929 468.1914905473642,5007.7724760947385 436.5877013949485,4978.356108657928 436.5877013949485,4978.356108657928 "/></g>
</svg>