<svg xmlns="http://www.w3.org/2000/svg" version="1.0" preserveAspectRatio="xMidYMid meet" viewBox="17.21 22.1 267.21 264.76">  <g transform="translate(0.000000,299.000000) scale(0.100000,-0.100000)" fill="#000000" stroke="none"> <path d="M1355 2763 c-170 -21 -398 -96 -520 -170 -153 -93 -302 -234 -384 -362 -51 -79 -32 -70 27 13 95 131 240 263 383 347 131 76 337 143 477 156 39 3 72 10 72 14 0 5 -6 8 -12 8 -7 -1 -26 -4 -43 -6z"/> <path d="M1455 2764 c22 -2 90 -9 150 -14 61 -6 144 -20 186 -30 149 -38 330 -125 459 -220 76 -56 215 -197 255 -257 15 -24 29 -43 31 -43 27 0 -105 161 -198 242 -116 100 -280 201 -398 244 -143 51 -255 74 -390 78 -74 2 -117 2 -95 0z"/> <path d="M1473 2713 c26 -2 67 -2 90 0 23 2 2 3 -48 3 -49 0 -68 -1 -42 -3z"/> <path d="M1875 2651 c127 -48 178 -74 292 -149 264 -174 422 -419 478 -739 38 -217 0 -528 -86 -707 -24 -51 -24 -72 0 -26 103 195 143 527 92 768 -75 358 -263 608 -591 785 -66 36 -249 107 -272 107 -7 0 32 -18 87 -39z"/> <path d="M1213 2663 c-13 -2 -23 -9 -23 -14 0 -5 -7 -9 -15 -9 -30 0 -104 -56 -158 -120 -30 -36 -69 -75 -86 -88 -18 -13 -29 -27 -26 -31 2 -5 -3 -8 -12 -7 -21 1 -95 -94 -87 -114 3 -8 2 -12 -1 -8 -4 3 -25 -15 -48 -40 -23 -26 -50 -53 -59 -62 -19 -17 -90 -177 -113 -254 -31 -103 -11 -191 51 -231 17 -11 43 -37 58 -57 15 -21 32 -38 38 -38 6 0 -1 15 -15 33 l-24 32 39 -4 c37 -3 40 -5 35 -30 -3 -14 -8 -33 -12 -41 -4 -11 10 -23 50 -43 30 -15 61 -27 67 -27 7 0 -8 10 -32 23 -36 17 -46 28 -48 52 -4 34 18 55 59 55 15 0 30 4 33 8 3 5 29 14 58 20 70 14 137 23 119 15 -7 -3 -22 -14 -32 -24 -19 -19 -18 -19 9 -19 15 0 42 9 60 20 48 29 65 27 60 -10 -3 -16 -1 -30 4 -30 4 0 8 -7 8 -15 0 -8 5 -15 10 -15 15 0 12 -26 -5 -40 -12 -10 -17 -8 -26 13 -6 14 -17 23 -25 20 -7 -2 -19 8 -28 24 -19 35 -20 17 -3 -64 8 -34 13 -71 12 -82 -2 -23 14 -28 32 -10 8 8 17 7 34 -5 13 -9 39 -16 59 -15 30 0 32 2 14 9 -12 5 -25 13 -29 19 -3 6 -11 11 -16 11 -6 0 -7 -4 -4 -10 3 -5 1 -10 -4 -10 -6 0 -11 4 -11 9 0 4 -12 8 -26 7 -22 -1 -28 6 -40 39 -7 22 -13 49 -13 60 1 14 3 12 9 -8 5 -16 17 -35 26 -42 15 -11 20 -9 35 9 15 18 21 19 38 9 15 -10 20 -10 24 0 6 18 -14 57 -26 50 -6 -4 -7 -1 -2 7 4 7 2 16 -5 20 -7 4 -18 23 -25 42 -9 29 -8 38 7 63 51 85 55 121 24 224 l-24 83 29 -28 c22 -21 29 -24 29 -12 0 9 -7 23 -15 32 -8 8 -15 21 -15 29 0 25 -29 85 -58 119 -15 18 -40 49 -54 69 -15 20 -37 39 -50 42 -13 3 -37 11 -55 18 -18 7 -35 10 -39 6 -7 -7 64 -77 78 -77 3 0 23 -23 44 -51 28 -38 40 -66 45 -107 4 -30 13 -60 20 -66 9 -8 10 -2 5 29 -4 26 -3 35 3 25 5 -8 12 -35 16 -59 4 -24 14 -59 21 -77 8 -19 12 -34 9 -34 -3 0 2 -11 11 -25 10 -15 12 -25 5 -25 -6 0 -11 -11 -11 -25 0 -30 -52 -91 -69 -81 -6 4 -9 16 -6 27 5 14 2 17 -9 13 -12 -5 -13 -10 -5 -25 8 -16 6 -19 -11 -19 -11 0 -79 -12 -151 -26 -162 -31 -269 -36 -269 -11 0 7 -14 23 -30 35 -17 13 -30 28 -30 35 0 8 4 7 11 -3 9 -12 9 -11 4 5 -4 11 -10 30 -12 43 -3 12 -10 22 -15 22 -5 0 -6 5 -3 10 3 6 2 10 -3 10 -11 0 1 78 17 108 6 12 16 20 20 18 4 -3 18 9 31 27 19 26 20 29 3 15 -11 -10 -26 -18 -34 -18 -8 1 1 14 21 30 22 19 29 30 19 30 -12 0 -15 7 -11 26 2 14 8 21 11 15 7 -11 34 1 30 15 -1 5 8 14 21 20 16 9 18 13 8 18 -7 3 -2 4 12 3 14 -1 25 3 25 10 0 6 3 15 8 19 4 4 7 0 7 -10 0 -25 63 -18 68 8 3 16 -1 18 -43 13 -26 -2 -51 -10 -56 -18 -4 -7 -11 -10 -15 -6 -22 21 75 96 133 102 46 6 65 16 53 30 -8 10 -19 9 -55 -4 -40 -14 -73 -10 -50 7 6 4 15 16 21 27 6 11 22 22 35 25 13 3 29 17 36 30 14 28 42 52 54 45 4 -3 10 -1 14 5 3 5 1 10 -5 10 -6 0 -9 4 -6 9 4 5 26 3 53 -5 25 -8 48 -12 51 -10 2 3 -11 9 -29 15 -25 6 -28 9 -12 10 12 1 24 5 28 10 3 5 -10 8 -30 6 -42 -4 -47 13 -7 21 25 5 28 10 24 32 -4 20 -2 24 11 19 8 -3 18 0 20 8 3 7 24 16 46 20 23 4 41 11 41 16 0 6 -4 7 -10 4 -15 -9 -12 11 4 24 8 6 20 10 27 9 8 -2 13 4 11 12 -3 12 -1 13 9 3 7 -7 26 -13 41 -13 15 0 28 -4 28 -10 0 -5 5 -10 12 -10 6 0 3 9 -7 20 -10 11 -13 20 -7 20 7 0 12 5 12 10 0 10 -34 11 -77 3z m-600 -882 c2 -10 1 -25 -4 -32 -6 -10 -9 -4 -9 19 0 36 5 42 13 13z m531 -227 c4 -9 4 -19 2 -21 -8 -8 -26 8 -26 23 0 19 16 18 24 -2z"/> <path d="M1300 2661 c0 -12 29 -35 36 -28 11 10 -5 37 -21 37 -8 0 -15 -4 -15 -9z"/> <path d="M1350 2660 c0 -6 18 -39 39 -73 47 -74 66 -135 56 -174 -7 -26 -8 -26 -15 -8 -9 20 -9 20 -9 0 0 -11 7 -36 14 -55 l13 -35 1 40 c1 30 4 36 11 25 5 -8 7 -24 3 -34 -3 -11 -6 -56 -7 -100 -2 -85 -12 -113 -54 -158 -30 -32 -16 -37 21 -8 47 37 62 85 60 190 -1 52 -4 106 -5 119 -2 13 2 26 9 28 15 5 26 -47 27 -124 1 -34 4 -65 9 -69 4 -4 7 -18 7 -32 0 -20 2 -22 15 -12 23 19 95 3 95 -21 0 -12 -7 -19 -20 -19 -24 0 -25 -4 -3 -30 18 -20 39 -28 28 -10 -3 5 3 27 15 49 l20 40 33 -18 c17 -11 58 -27 90 -37 31 -10 57 -21 57 -26 0 -4 -26 -6 -57 -4 -32 3 -48 3 -36 0 32 -8 44 -27 46 -78 1 -25 7 -46 12 -46 12 0 13 60 2 78 -5 6 -5 17 -1 23 11 18 24 -11 23 -51 0 -19 2 -45 6 -56 5 -16 0 -27 -19 -42 -30 -23 -34 -40 -8 -38 14 1 17 -7 17 -42 0 -50 9 -54 24 -10 9 25 8 36 -4 55 -14 21 -14 25 0 47 10 15 14 33 10 49 -5 18 -2 28 11 35 18 10 18 11 0 31 -11 12 -17 24 -14 27 10 10 64 -24 95 -60 21 -23 34 -31 41 -24 6 6 12 6 16 -1 4 -6 2 -11 -4 -11 -7 0 -9 -8 -5 -19 3 -11 -1 -25 -9 -34 -8 -8 -12 -17 -9 -21 3 -3 12 3 20 14 8 11 17 20 21 20 7 0 62 -82 62 -93 0 -4 -7 -4 -15 -1 -10 4 -15 0 -15 -15 0 -23 16 -29 23 -8 3 8 10 7 23 -7 19 -18 19 -19 -1 -12 -18 6 -17 5 3 -17 16 -17 20 -26 11 -29 -7 -2 -9 -10 -5 -17 6 -9 11 -9 22 0 17 14 29 6 18 -13 -10 -16 -5 -69 8 -85 6 -7 7 -30 4 -50 -3 -21 -7 -45 -7 -53 -1 -22 -45 -24 -53 -3 -4 10 -1 20 9 25 8 5 15 17 15 26 0 15 2 15 10 2 7 -11 10 -7 10 17 0 27 -3 30 -21 26 -11 -3 -18 -11 -16 -17 3 -6 -3 -22 -13 -34 -15 -19 -23 -21 -45 -12 -20 8 -32 6 -51 -7 -14 -9 -41 -16 -61 -15 -25 1 -40 -5 -53 -20 -17 -21 -17 -21 -14 13 2 19 1 26 -2 16 -5 -18 -7 -18 -25 -1 -10 9 -19 23 -19 29 0 18 -75 36 -89 22 -18 -18 -12 6 8 38 49 76 49 76 134 72 76 -3 108 5 67 18 -11 3 -20 11 -20 16 0 5 -5 9 -11 9 -5 0 -8 -4 -5 -9 7 -11 -28 -21 -80 -21 -46 0 -54 -7 -103 -89 -21 -35 -27 -52 -17 -48 9 4 13 1 10 -7 -2 -6 -22 -19 -44 -27 -35 -13 -37 -16 -25 -33 14 -18 15 -18 44 13 16 17 34 31 40 31 6 0 8 7 5 15 -7 17 4 19 26 5 13 -8 13 -11 1 -19 -19 -12 -4 -32 22 -30 36 3 57 0 57 -10 0 -14 -72 -10 -94 5 -24 16 -40 18 -31 4 3 -5 0 -10 -7 -10 -9 0 -9 -3 2 -10 25 -16 -4 -33 -66 -38 -51 -4 -55 -6 -39 -18 10 -8 33 -14 50 -14 17 0 36 -5 43 -12 6 -6 14 -9 17 -6 3 3 -1 12 -9 21 -13 13 -13 17 4 32 15 14 25 15 47 7 16 -5 49 -8 75 -7 31 1 45 -2 41 -9 -3 -6 3 -2 14 9 11 11 16 21 12 23 -26 10 -2 19 46 17 36 -2 58 2 63 10 4 8 19 11 40 8 27 -4 32 -9 30 -27 -2 -16 -10 -21 -33 -22 -16 0 -36 6 -44 13 -7 8 -16 11 -19 8 -4 -3 0 -10 8 -15 11 -7 9 -10 -12 -10 -15 0 -30 -5 -34 -12 -5 -7 -1 -9 13 -6 11 3 40 2 65 -2 40 -6 49 -3 78 22 19 15 36 25 38 23 3 -3 11 0 19 7 51 42 39 -133 -14 -195 l-18 -22 23 19 c31 26 37 15 10 -20 -12 -16 -15 -23 -8 -16 23 21 29 14 17 -23 -6 -20 -17 -35 -25 -35 -9 0 -13 -3 -9 -6 6 -6 -29 -84 -38 -84 -2 0 -20 9 -39 21 -37 22 -70 22 -72 1 -1 -6 -2 -17 -3 -24 -1 -7 -8 -5 -19 5 -17 16 -18 14 -13 -21 3 -20 6 -29 9 -19 2 9 9 17 16 17 20 0 27 -12 15 -27 -14 -17 3 -17 20 0 10 10 11 9 6 -6 -4 -9 -3 -17 3 -17 6 0 12 5 14 12 2 6 10 8 16 4 17 -10 15 -26 -3 -20 -18 7 -18 4 -5 -32 11 -29 4 -68 -11 -59 -5 3 -6 -1 -3 -9 3 -8 -3 -35 -15 -60 -24 -55 -76 -86 -113 -68 -21 10 -20 11 14 11 32 1 41 7 62 39 13 20 27 48 30 62 6 22 5 21 -10 -5 -9 -16 -27 -41 -40 -55 -24 -26 -59 -29 -174 -16 l-45 6 48 -15 c29 -10 45 -20 41 -26 -4 -8 -9 -8 -14 0 -5 9 -23 5 -63 -13 -47 -20 -56 -22 -61 -9 -5 13 -8 12 -22 -2 -19 -19 -79 -45 -104 -45 -10 0 -20 -6 -23 -14 -12 -32 -197 -85 -197 -56 0 6 5 10 10 10 6 0 -3 14 -20 30 -17 17 -29 34 -25 39 3 5 -7 20 -22 33 -21 17 -27 31 -26 53 2 28 2 29 -6 5 -8 -24 -8 -23 -13 10 l-5 35 -1 -39 c-1 -24 6 -51 19 -72 11 -19 18 -38 14 -44 -3 -5 -2 -10 3 -10 4 0 18 -18 31 -40 25 -45 59 -56 147 -47 44 4 60 12 82 35 18 19 49 36 87 47 33 9 94 30 135 47 81 33 96 35 152 20 32 -8 41 -6 72 15 19 14 40 39 46 57 6 17 20 48 31 68 10 20 19 47 19 58 0 12 8 34 19 48 84 119 156 374 132 466 -6 23 -15 69 -21 103 -26 151 -90 275 -199 383 -110 110 -264 182 -418 196 -68 6 -69 7 -65 33 2 14 -1 65 -6 113 -8 77 -15 96 -56 165 -42 71 -126 160 -126 133z m467 -1085 c-4 -8 -14 -14 -24 -14 -17 1 -17 2 0 6 9 2 17 12 17 20 0 9 3 14 6 10 4 -3 4 -13 1 -22z m53 -65 c0 -5 -7 -10 -15 -10 -8 0 -15 5 -15 10 0 6 7 10 15 10 8 0 15 -4 15 -10z m189 -345 c28 -14 41 -33 41 -61 0 -13 -4 -13 -27 0 -50 26 -64 41 -57 59 8 21 8 21 43 2z"/> <path d="M1184 2596 c3 -23 18 -36 42 -36 19 0 25 5 22 17 -3 19 -67 38 -64 19z"/> <path d="M894 2567 c-130 -75 -262 -188 -348 -297 -37 -47 -17 -30 80 68 113 113 166 155 300 239 34 21 10 13 -32 -10z"/> <path d="M1522 2531 c26 -28 52 -68 59 -89 16 -51 33 -67 24 -22 -11 55 -63 127 -110 152 -11 6 1 -12 27 -41z"/> <path d="M1334 2525 c-7 -18 3 -35 22 -35 8 0 14 10 14 25 0 27 -27 35 -36 10z"/> <path d="M1103 2506 c3 -8 -1 -17 -9 -20 -21 -8 -17 -26 6 -26 16 0 19 5 16 24 -2 14 1 27 7 30 7 2 4 5 -7 5 -12 1 -16 -4 -13 -13z"/> <path d="M1260 2510 c-20 -12 -10 -19 14 -10 11 3 15 9 10 13 -6 3 -16 2 -24 -3z"/> <path d="M1134 2475 c3 -8 9 -21 12 -29 3 -8 -4 -16 -18 -20 -14 -5 -18 -9 -10 -13 7 -3 20 1 28 8 13 11 19 9 35 -11 43 -56 54 -93 54 -177 0 -81 14 -132 16 -57 1 35 2 36 9 13 4 -15 6 -39 3 -55 -2 -16 -4 -36 -3 -44 1 -8 1 -46 2 -85 0 -68 1 -69 13 -35 8 23 11 69 8 135 -2 55 -5 124 -6 152 -1 29 -5 53 -9 53 -5 0 -8 5 -8 11 0 5 5 7 10 4 19 -12 40 -77 46 -144 3 -36 12 -79 20 -95 8 -16 14 -37 14 -47 0 -13 6 -16 21 -12 19 5 20 4 10 -15 -6 -11 -11 -30 -11 -41 0 -24 -19 -38 -30 -21 -5 9 -9 9 -14 1 -4 -6 -2 -11 4 -11 18 0 -3 -30 -31 -43 -13 -7 -25 -21 -26 -32 -2 -16 -1 -16 7 3 5 13 15 20 20 17 6 -4 26 5 44 19 27 20 35 23 40 11 3 -8 17 -17 31 -21 l26 -6 -22 -24 c-28 -30 -13 -32 18 -2 23 21 23 21 23 1 0 -12 -8 -24 -17 -28 -16 -6 -14 -8 7 -15 69 -19 82 -21 78 -8 -3 7 -15 15 -29 18 -19 5 -25 13 -27 40 -5 44 14 77 49 89 16 5 29 15 29 20 0 6 5 11 10 11 6 0 10 -7 10 -15 0 -8 -5 -15 -11 -15 -8 0 -8 -4 -1 -12 15 -20 25 -78 13 -78 -6 0 -11 5 -11 11 0 6 -6 9 -14 6 -8 -3 -17 1 -20 9 -8 22 -7 26 3 19 6 -3 9 4 8 15 -2 31 -22 23 -45 -18 -13 -24 -9 -42 11 -42 7 -1 19 -16 28 -35 14 -29 14 -37 3 -46 -8 -6 -11 -16 -8 -21 6 -9 64 48 64 64 0 4 15 8 33 8 17 0 39 5 47 10 10 6 11 10 3 10 -7 0 -13 5 -13 11 0 13 81 2 129 -17 23 -10 31 -19 27 -29 -3 -8 -1 -15 3 -15 17 0 21 32 7 52 -8 11 -15 15 -18 8 -2 -8 -11 -8 -33 1 -17 7 -34 11 -39 10 -5 -1 -16 1 -24 4 -13 5 -12 8 4 20 18 14 17 15 -11 9 -16 -4 -40 -10 -51 -15 -26 -9 -64 14 -64 39 0 12 3 13 12 4 7 -7 20 -12 31 -12 10 0 15 -5 12 -10 -4 -6 5 -5 20 2 18 8 22 14 13 20 -10 6 -8 8 5 8 9 0 17 -5 17 -11 0 -8 4 -8 14 0 12 10 18 7 31 -18 8 -17 20 -31 24 -31 13 0 73 61 67 68 -3 3 -12 -1 -21 -8 -13 -11 -15 -7 -15 28 0 74 -62 108 -113 63 -18 -15 -21 -14 -43 14 -13 17 -24 25 -24 19 0 -16 -46 -23 -61 -10 -9 8 -10 8 -5 -1 5 -9 -3 -13 -28 -13 -19 0 -37 -3 -39 -7 -6 -9 72 -8 107 1 15 4 29 0 40 -12 13 -16 14 -23 3 -45 -15 -33 -30 -34 -54 -3 -17 21 -21 22 -38 10 -14 -11 -21 -11 -26 -2 -4 6 -16 13 -26 14 -10 1 -29 6 -43 10 -24 7 -24 7 -7 -13 22 -25 22 -47 1 -39 -9 3 -19 6 -23 6 -4 0 -7 12 -6 28 0 23 8 31 59 55 32 15 65 34 73 42 8 8 19 15 24 15 5 0 9 5 9 10 0 16 -18 12 -40 -10 -12 -12 -22 -15 -26 -9 -4 7 -15 1 -28 -16 -15 -18 -34 -28 -63 -32 -56 -7 -73 7 -73 61 0 58 -18 148 -38 193 -9 21 -17 43 -17 48 -2 38 -71 105 -108 105 -8 0 -20 7 -27 15 -7 8 -17 15 -22 15 -6 0 -7 -7 -4 -15z m609 -449 c7 2 17 -7 24 -21 9 -20 8 -25 -3 -25 -8 0 -15 -8 -15 -17 -1 -17 -2 -17 -6 0 -5 20 -14 22 -31 5 -9 -9 -12 -8 -12 4 0 25 22 75 27 61 2 -7 10 -10 16 -7z m-49 -5 c3 -5 -6 -16 -20 -26 l-25 -16 16 25 c19 29 21 30 29 17z m-303 -54 c-8 -8 -11 -7 -11 4 0 9 3 19 7 23 4 4 9 2 11 -4 3 -7 -1 -17 -7 -23z m42 -23 c4 -1 10 -2 13 -3 4 0 1 -7 -5 -15 -13 -16 -51 -10 -51 8 0 18 11 27 24 18 6 -4 14 -7 19 -8z m354 -14 c2 -22 -12 -35 -22 -20 -3 5 -2 10 4 10 6 0 8 7 5 15 -4 8 -2 15 3 15 5 0 9 -9 10 -20z m-152 -60 c18 -20 17 -20 -8 -20 -20 0 -27 5 -27 20 0 11 4 20 8 20 5 0 17 -9 27 -20z m-65 -25 c7 -9 10 -18 7 -21 -6 -7 -47 18 -47 28 0 14 27 9 40 -7z"/> <path d="M1406 2481 c-4 -6 -3 -11 2 -11 6 0 8 -9 5 -20 -3 -11 -3 -20 0 -20 9 0 15 38 7 50 -5 9 -9 9 -14 1z"/> <path d="M956 2411 c-4 -6 -3 -11 2 -11 6 0 9 -8 8 -17 -1 -13 8 -19 32 -21 28 -3 33 0 30 15 -2 10 -14 19 -28 22 -14 1 -28 8 -31 13 -4 7 -9 6 -13 -1z"/> <path d="M1136 2401 c-14 -5 -16 -10 -8 -15 7 -4 19 0 28 8 17 17 11 19 -20 7z"/> <path d="M1137 2354 c-4 -4 -7 -18 -7 -31 0 -28 23 -27 28 1 4 20 -11 40 -21 30z"/> <path d="M1550 2350 c8 -5 22 -10 31 -10 15 0 49 -30 49 -43 0 -4 -13 -7 -30 -7 -16 0 -30 -4 -30 -10 0 -5 12 -10 28 -10 15 0 42 -4 60 -9 40 -12 40 -4 2 44 -16 21 -30 42 -30 46 0 5 -21 9 -47 9 -35 0 -44 -3 -33 -10z"/> <path d="M1323 2325 c8 -16 17 -37 21 -45 3 -8 4 -1 0 15 -3 17 -12 37 -21 45 -14 14 -14 12 0 -15z"/> <path d="M1685 2335 c17 -8 38 -14 47 -15 17 0 41 -9 138 -52 48 -21 170 -107 170 -119 0 -4 -37 12 -82 36 -91 47 -175 75 -222 74 -23 0 -11 -7 44 -23 155 -46 250 -105 352 -215 l66 -71 -2 39 c-5 104 -256 295 -452 345 -75 19 -100 19 -59 1z"/> <path d="M2281 2321 c-12 -16 -21 -33 -21 -38 0 -4 9 5 20 22 11 16 27 33 37 37 16 6 16 7 1 7 -9 1 -26 -12 -37 -28z"/> <path d="M2296 2308 c-20 -32 -35 -97 -46 -203 l-9 -90 4 105 c2 58 7 116 10 130 l6 25 -12 -25 c-20 -45 -23 -265 -5 -446 17 -168 62 -508 71 -531 2 -7 13 -13 24 -13 27 0 39 -72 31 -185 -4 -56 -1 -155 9 -259 l15 -169 -50 -44 c-241 -211 -463 -309 -774 -338 -77 -7 -263 9 -358 31 -112 26 -270 94 -290 124 -9 15 -35 53 -56 85 -80 120 -221 464 -295 720 -67 231 -74 276 -60 376 14 94 13 100 -50 294 -15 50 -45 142 -65 205 -36 114 -51 149 -59 140 -3 -3 26 -117 64 -255 38 -137 68 -257 66 -265 -1 -8 -42 107 -91 255 -124 377 -127 328 -5 -93 47 -162 60 -238 32 -187 -6 11 -45 130 -87 265 -42 134 -81 249 -87 255 -7 7 -8 1 -4 -20 22 -94 71 -286 101 -392 38 -136 39 -146 22 -141 -6 2 -24 47 -39 99 -15 52 -51 173 -81 269 -77 254 -74 169 6 -145 l63 -250 52 -55 52 -55 -40 53 c-43 57 -45 72 -6 72 13 0 48 9 76 20 28 12 54 18 58 14 3 -3 6 -54 7 -112 0 -59 4 -142 7 -185 9 -100 -5 -93 -39 21 -14 48 -31 92 -37 97 -7 7 -8 4 -4 -8 23 -63 78 -273 162 -607 52 -212 98 -389 100 -395 17 -36 -15 120 -75 359 -38 154 -68 281 -66 283 6 6 68 -209 91 -319 13 -62 35 -160 48 -218 14 -58 28 -138 31 -178 3 -40 13 -84 22 -98 9 -13 12 -24 6 -24 -14 0 -23 16 -33 54 l-7 31 -1 -28 c-2 -51 14 -67 67 -67 58 0 152 41 159 70 6 22 18 26 29 9 13 -22 156 -80 242 -99 82 -18 122 -23 281 -35 115 -8 319 28 470 84 140 51 339 181 412 269 l27 31 6 -92 c10 -130 30 -195 64 -208 42 -16 98 4 118 43 14 26 16 54 11 162 -5 119 -16 193 -62 401 -28 127 -34 168 -55 390 -27 290 -111 961 -125 1003 -7 19 -33 14 -49 -10z m43 -140 c25 -162 78 -593 91 -743 6 -66 13 -141 16 -167 5 -44 3 -48 -15 -48 -15 0 -21 6 -21 23 0 12 -13 60 -29 107 -16 47 -32 119 -36 160 -15 168 -30 256 -50 286 -8 13 -19 55 -25 94 -9 64 -8 88 5 175 3 17 7 57 11 89 7 68 20 110 33 102 4 -3 13 -38 20 -78z m-50 -430 c6 -29 18 -114 26 -188 16 -140 34 -213 66 -266 11 -17 19 -40 19 -50 -1 -12 -8 -5 -20 20 -11 21 -24 44 -29 50 -17 20 -39 130 -61 301 -21 169 -23 185 -16 185 3 0 9 -24 15 -52z m141 -559 c0 -6 -8 -49 -17 -94 -17 -81 -17 -87 5 -227 20 -123 22 -158 14 -253 l-9 -110 -2 135 c0 74 -8 176 -17 225 -19 108 -8 335 17 335 5 0 9 -5 9 -11z m30 -99 c0 -16 -4 -30 -9 -30 -5 0 -8 8 -6 18 2 9 4 23 4 30 2 26 11 11 11 -18z m-2 -67 c13 -26 4 -43 -24 -43 -18 0 -24 5 -24 23 0 40 32 52 48 20z m42 -104 c9 -24 19 -51 22 -59 37 -97 62 -437 35 -473 -6 -10 -29 -20 -50 -24 -30 -4 -37 -3 -37 11 0 9 -6 16 -13 16 -14 0 -37 53 -37 84 0 13 5 16 18 11 54 -23 92 -12 92 27 0 20 -47 118 -56 118 -14 0 7 -74 25 -91 22 -21 19 -44 -6 -54 -31 -11 -36 14 -38 177 0 90 -5 192 -9 226 -7 51 -6 66 5 73 22 14 32 6 49 -42z m-1631 -461 c22 -30 41 -64 41 -76 0 -45 -112 -69 -146 -31 -11 12 -19 46 -24 96 -7 68 -23 148 -60 284 -6 20 -10 52 -9 70 0 28 13 7 78 -127 43 -89 97 -186 120 -216z"/> <path d="M1203 2276 c0 -15 3 -29 8 -32 11 -7 11 27 0 45 -6 9 -8 5 -8 -13z"/> <path d="M950 2250 c-8 -5 -11 -12 -7 -16 4 -4 13 -2 19 4 6 6 10 14 7 16 -2 3 -11 1 -19 -4z"/> <path d="M1391 2183 c-13 -27 -13 -28 8 -9 11 10 18 23 15 27 -8 13 -10 12 -23 -18z"/> <path d="M2540 2189 c0 -4 16 -32 35 -64 109 -181 163 -413 152 -655 -8 -185 -52 -360 -132 -521 -35 -72 -39 -93 -10 -69 39 32 110 214 150 385 24 99 30 336 12 453 -7 51 -11 95 -7 97 8 5 52 -127 72 -215 16 -72 15 -275 -1 -370 -18 -101 -68 -247 -121 -348 -47 -92 -46 -72 -10 -267 28 -153 36 -277 21 -313 -22 -52 -88 -61 -117 -16 -20 29 -34 31 -34 4 0 -34 35 -60 83 -60 114 0 128 103 61 441 l-25 126 31 51 c42 69 96 205 123 310 18 74 22 114 21 262 0 159 -3 184 -28 275 -33 122 -89 242 -161 349 -55 82 -114 156 -115 145z"/> <path d="M974 2165 c-7 -18 3 -35 21 -35 18 0 26 15 19 34 -8 20 -33 21 -40 1z"/> <path d="M890 2110 c-14 -11 -20 -20 -14 -20 7 0 22 9 35 20 31 25 12 26 -21 0z"/> <path d="M1685 2120 c-3 -5 1 -10 10 -10 10 0 13 -5 9 -12 -4 -7 -3 -8 5 -4 9 6 9 11 0 22 -14 17 -16 17 -24 4z"/> <path d="M472 2103 c-14 -27 -22 -96 -13 -111 4 -7 12 13 20 54 12 68 10 90 -7 57z"/> <path d="M522 2089 c-19 -48 -34 -171 -26 -207 6 -32 10 -19 25 92 18 128 18 162 1 115z"/> <path d="M919 2087 c-7 -7 -28 -11 -50 -9 -24 3 -39 0 -39 -7 0 -6 5 -12 10 -12 6 -1 16 -2 23 -3 22 -3 65 15 71 30 7 17 1 18 -15 1z"/> <path d="M719 2060 c-13 -10 -19 -19 -13 -20 7 0 22 9 35 20 13 10 19 19 13 20 -7 0 -22 -9 -35 -20z"/> <path d="M990 2073 c0 -17 16 -28 42 -31 22 -2 26 1 22 13 -4 10 -13 13 -25 10 -11 -4 -19 -2 -19 4 0 6 -4 11 -10 11 -5 0 -10 -3 -10 -7z"/> <path d="M791 2050 c-10 -6 -8 -9 8 -15 11 -3 21 -11 21 -16 0 -6 5 -7 10 -4 6 3 10 10 10 15 0 15 -35 29 -49 20z"/> <path d="M916 2037 c-17 -12 -16 -14 13 -14 24 0 28 3 20 14 -6 7 -12 13 -13 13 -1 0 -10 -6 -20 -13z"/> <path d="M765 1985 c-19 -34 -17 -53 4 -40 6 3 11 16 11 29 0 12 5 27 12 34 7 7 8 12 2 12 -6 0 -19 -16 -29 -35z"/> <path d="M1922 1995 c14 -16 28 -41 31 -55 l4 -25 2 26 c1 17 -10 35 -31 55 l-33 29 27 -30z"/> <path d="M839 1990 c-13 -10 -19 -19 -13 -20 6 0 19 9 29 20 23 26 14 26 -16 0z"/> <path d="M946 1986 c-3 -14 -15 -28 -26 -31 -28 -9 -25 -23 4 -18 17 4 26 14 30 36 7 37 1 48 -8 13z"/> <path d="M899 1998 c0 -2 -2 -11 -4 -21 -3 -15 -1 -16 11 -6 16 13 19 29 4 29 -5 0 -10 -1 -11 -2z"/> <path d="M626 1926 c-3 -13 -9 -31 -12 -40 -4 -11 -2 -15 8 -11 9 4 15 20 16 40 2 41 -3 45 -12 11z"/> <path d="M830 1940 c0 -5 7 -10 15 -10 8 0 15 5 15 10 0 6 -7 10 -15 10 -8 0 -15 -4 -15 -10z"/> <path d="M872 1899 c-2 -22 1 -27 13 -23 18 7 20 40 2 47 -8 3 -14 -5 -15 -24z"/> <path d="M659 1918 c-8 -22 -7 -68 1 -73 5 -3 10 0 10 8 0 8 7 20 15 27 17 14 21 35 5 25 -5 -3 -10 -1 -10 4 0 9 -18 16 -21 9z"/> <path d="M1099 1904 c-7 -9 -33 -29 -57 -46 -24 -16 -41 -32 -38 -35 6 -7 51 21 86 54 14 13 28 23 32 23 5 0 8 5 8 10 0 15 -16 12 -31 -6z"/> <path d="M756 1888 c-12 -16 -13 -24 -4 -29 17 -11 31 1 19 15 -7 9 -7 16 1 24 7 7 9 12 6 12 -4 0 -14 -10 -22 -22z"/> <path d="M947 1903 c-12 -11 -8 -33 6 -33 7 0 13 9 13 20 0 20 -7 25 -19 13z"/> <path d="M1960 1868 c-3 -26 -1 -43 3 -39 5 5 7 26 5 47 l-3 39 -5 -47z"/> <path d="M2447 1845 c3 -33 7 -62 9 -64 7 -8 2 63 -7 94 -5 20 -6 9 -2 -30z"/> <path d="M685 1860 c-4 -11 1 -33 12 -50 16 -28 19 -29 30 -13 18 23 16 34 -4 31 -14 -2 -18 3 -16 25 2 31 -13 36 -22 7z"/> <path d="M1135 1849 c2 -29 12 -32 17 -6 3 14 0 24 -7 24 -6 0 -11 -8 -10 -18z"/> <path d="M807 1846 c-6 -15 1 -26 15 -26 4 0 8 9 8 20 0 23 -15 27 -23 6z"/> <path d="M920 1844 c0 -14 3 -14 15 -4 8 7 15 14 15 16 0 2 -7 4 -15 4 -8 0 -15 -7 -15 -16z"/> <path d="M933 1812 c-33 -17 -72 -62 -55 -62 5 0 20 12 34 28 14 15 34 32 44 39 29 18 13 15 -23 -5z"/> <path d="M1092 1818 c-13 -13 -4 -38 14 -38 15 0 19 35 6 44 -5 3 -14 0 -20 -6z"/> <path d="M1597 1795 c-26 -33 -27 -35 -7 -35 12 0 20 7 20 16 0 11 5 14 16 10 8 -3 33 3 56 15 23 12 54 19 73 17 19 -1 37 1 41 5 12 11 -95 8 -118 -4 -14 -8 -23 -8 -31 0 -16 16 -19 14 -50 -24z"/> <path d="M1160 1808 c0 -7 5 -20 10 -28 8 -12 10 -9 10 13 0 15 -4 27 -10 27 -5 0 -10 -6 -10 -12z"/> <path d="M803 1800 c-13 -5 -23 -17 -22 -27 0 -11 3 -13 6 -5 2 6 13 12 24 12 10 0 19 7 19 15 0 8 -1 15 -2 14 -2 0 -13 -4 -25 -9z"/> <path d="M1394 1796 c-3 -7 -4 -17 -3 -22 3 -19 -1 -34 -11 -34 -5 0 -10 12 -11 28 0 15 -3 21 -6 14 -2 -6 -10 -9 -16 -6 -8 5 -8 2 1 -7 6 -7 12 -23 12 -34 0 -26 -34 -60 -52 -52 -8 2 -24 -4 -37 -14 l-23 -19 33 0 c18 0 40 7 49 15 15 14 18 12 30 -11 12 -22 12 -27 0 -34 -12 -8 -10 -10 8 -10 12 0 24 1 27 3 2 1 11 -7 19 -18 9 -11 16 -15 16 -9 0 6 -9 19 -19 28 -29 26 -43 72 -26 86 17 14 28 -13 12 -29 -8 -8 -8 -11 1 -11 16 0 33 35 23 46 -14 15 -20 93 -7 98 7 3 7 5 -2 5 -7 1 -15 -5 -18 -13z"/> <path d="M1427 1784 c-3 -17 1 -28 10 -31 17 -7 34 14 26 33 -9 24 -31 23 -36 -2z"/> <path d="M2012 1789 c-7 -12 -11 -24 -8 -27 3 -3 6 0 6 7 0 9 8 11 25 7 24 -6 25 -5 13 14 -16 25 -20 25 -36 -1z"/> <path d="M985 1790 c-4 -6 -11 -8 -16 -5 -5 4 -9 1 -9 -4 0 -13 37 -15 45 -2 3 5 1 12 -4 15 -5 4 -12 2 -16 -4z"/> <path d="M1025 1789 c-4 -6 -5 -13 -2 -16 7 -7 27 6 27 18 0 12 -17 12 -25 -2z"/> <path d="M1480 1765 c-14 -18 -28 -31 -32 -28 -8 4 -9 2 -13 -34 -2 -18 0 -20 16 -10 10 6 17 13 17 16 -2 27 5 41 22 41 10 0 24 -8 29 -17 9 -16 10 -15 11 5 0 12 -7 25 -16 29 -11 4 -12 8 -4 13 7 4 8 10 4 13 -5 3 -20 -10 -34 -28z"/> <path d="M2462 1740 c0 -19 2 -27 5 -17 2 9 2 25 0 35 -3 9 -5 1 -5 -18z"/> <path d="M655 1750 c-3 -6 3 -10 14 -10 16 0 21 -6 21 -24 0 -32 17 -42 39 -22 10 9 26 16 37 17 10 0 28 5 39 10 18 8 17 9 -4 5 -13 -3 -38 2 -55 10 -28 14 -29 14 -12 -1 19 -15 19 -15 -2 -15 -11 0 -27 8 -34 18 -15 20 -35 26 -43 12z"/> <path d="M1266 1721 c-32 -33 -26 -43 7 -13 11 9 17 11 12 3 -6 -10 -2 -12 16 -6 41 12 58 27 27 22 -18 -3 -28 1 -30 10 -2 10 -12 5 -32 -16z"/> <path d="M886 1722 c-2 -4 13 -6 35 -4 21 2 39 6 39 8 0 7 -69 4 -74 -4z"/> <path d="M1607 1700 c-4 -16 -2 -18 13 -10 13 7 20 6 22 -2 3 -8 6 -9 11 -1 3 5 -4 15 -17 21 -20 9 -25 8 -29 -8z"/> <path d="M227 1683 c-10 -53 -5 -288 8 -368 24 -143 67 -275 129 -388 42 -79 211 -304 239 -319 11 -6 -2 16 -30 48 -123 143 -218 303 -272 456 -51 147 -63 225 -65 420 0 98 -2 178 -2 178 -1 0 -4 -12 -7 -27z"/> <path d="M1476 1685 c-3 -8 -12 -15 -20 -15 -10 0 -13 -6 -10 -15 5 -12 10 -13 20 -4 11 9 14 7 14 -10 0 -12 4 -20 9 -17 5 3 7 15 4 26 -4 15 0 20 15 20 16 0 24 -10 33 -42 l11 -43 13 41 c7 23 15 46 19 53 4 6 4 11 1 11 -3 0 -12 -15 -20 -32 -9 -21 -14 -26 -15 -15 0 36 -62 72 -74 42z"/> <path d="M1870 1695 c0 -18 19 -40 26 -32 4 4 0 15 -9 24 -9 10 -17 13 -17 8z"/> <path d="M1925 1680 c-11 -5 -15 -9 -8 -9 8 -1 7 -10 -3 -31 -9 -16 -12 -35 -8 -42 12 -20 -27 11 -58 46 -15 17 -28 26 -28 20 0 -7 19 -29 42 -49 l41 -38 19 23 c10 12 18 28 18 36 0 8 5 14 10 14 15 0 12 -23 -7 -49 -12 -18 -13 -23 -2 -19 35 11 46 88 12 88 -8 0 -11 5 -8 10 7 11 7 11 -20 0z"/> <path d="M2473 1655 c0 -22 2 -30 4 -17 2 12 2 30 0 40 -3 9 -5 -1 -4 -23z"/> <path d="M1217 1660 c-13 -15 -14 -20 -3 -20 7 0 16 9 19 20 3 11 4 20 3 20 -1 0 -9 -9 -19 -20z"/> <path d="M1660 1655 c-5 -13 -27 -36 -50 -51 -22 -15 -40 -31 -40 -35 0 -12 32 -11 50 2 12 8 9 9 -10 4 -18 -4 -14 0 13 15 20 11 37 22 37 23 0 1 4 17 9 35 11 38 5 43 -9 7z"/> <path d="M2036 1671 c-3 -5 2 -7 13 -4 10 3 22 0 25 -6 4 -6 24 -11 44 -11 21 0 32 4 27 9 -15 13 -102 23 -109 12z"/> <path d="M450 1648 c-14 -6 -42 -14 -63 -17 l-38 -6 55 -64 c30 -35 58 -77 61 -93 4 -16 9 -27 12 -24 11 10 -10 69 -42 115 l-34 49 40 18 c22 9 42 21 45 26 7 11 -5 9 -36 -4z"/> <path d="M542 1580 c-2 -61 3 -85 23 -127 13 -29 26 -53 29 -53 6 0 -9 41 -26 73 -7 12 -15 58 -18 102 l-7 80 -1 -75z"/> <path d="M626 1633 c-10 -37 -12 -242 -1 -232 6 7 18 249 12 249 -3 0 -8 -8 -11 -17z"/> <path d="M1304 1634 c-17 -14 -17 -15 -1 -10 10 3 25 6 33 6 9 0 12 5 9 10 -9 14 -18 13 -41 -6z"/> <path d="M1230 1613 c0 -14 19 -38 25 -32 8 8 -5 39 -16 39 -5 0 -9 -3 -9 -7z"/> <path d="M1290 1594 c0 -9 8 -18 18 -21 10 -2 24 -17 30 -31 11 -26 12 -26 7 7 -7 44 -55 84 -55 45z"/> <path d="M1510 1573 c-5 -21 -14 -45 -19 -53 -9 -12 -11 -12 -17 3 -3 9 -10 17 -15 17 -5 0 -2 -11 7 -25 13 -20 20 -23 36 -14 13 7 17 16 13 30 -4 10 -2 19 3 19 5 0 12 14 14 30 6 43 -9 37 -22 -7z"/> <path d="M2482 1580 c0 -19 2 -27 5 -17 2 9 2 25 0 35 -3 9 -5 1 -5 -18z"/> <path d="M1016 1570 c9 -52 12 -60 26 -60 8 0 9 3 3 8 -6 4 -11 20 -12 36 0 15 -6 33 -12 39 -8 8 -10 2 -5 -23z"/> <path d="M1357 1586 c-3 -8 1 -20 9 -26 19 -17 18 -37 -3 -49 -10 -5 -15 -13 -11 -17 4 -4 16 4 27 17 18 22 20 22 26 7 4 -10 13 -18 21 -18 8 0 14 -4 14 -10 0 -5 8 -10 18 -10 16 1 16 1 0 14 -10 7 -15 16 -11 20 4 4 0 4 -10 0 -12 -4 -17 -1 -17 13 0 11 -13 32 -29 47 -23 22 -30 24 -34 12z"/> <path d="M296 1460 c2 -58 8 -121 14 -140 8 -31 9 -29 3 15 -3 28 -9 91 -14 140 l-8 90 5 -105z"/> <path d="M753 1443 c16 -300 160 -518 420 -638 77 -36 107 -43 107 -25 0 6 -4 10 -8 10 -5 0 -14 11 -22 24 -7 14 -18 22 -26 19 -17 -6 -74 16 -74 28 0 5 5 9 10 9 6 0 10 4 10 10 0 5 -6 7 -14 4 -26 -10 -24 30 3 53 21 18 22 22 9 23 -9 0 -20 -4 -23 -10 -10 -17 -51 -11 -76 10 -21 17 -22 21 -9 30 11 7 6 10 -21 10 -41 0 -55 13 -75 67 -11 33 -13 35 -14 12 0 -15 -7 -32 -15 -39 -13 -11 -18 -10 -30 6 -19 25 -18 31 1 42 14 8 12 13 -10 47 -38 56 -33 128 13 162 9 6 13 15 8 19 -18 19 -87 -82 -69 -102 4 -3 1 -5 -7 -2 -18 5 -41 70 -43 119 -1 29 -5 36 -17 32 -14 -5 -14 -3 1 12 16 18 18 17 36 -5 11 -14 21 -19 25 -13 4 6 -2 18 -13 28 -22 20 -26 56 -9 86 9 19 9 19 -10 10 -21 -12 -51 -5 -51 11 0 5 5 6 10 3 6 -3 10 5 10 18 0 14 -7 28 -16 31 -15 6 -16 -4 -11 -101z m221 -421 c4 -10 40 -40 81 -67 50 -32 75 -54 75 -67 0 -20 -10 -18 -42 9 -11 10 -18 11 -23 3 -9 -15 -25 -2 -18 15 3 8 1 15 -5 15 -5 0 -21 12 -35 26 -16 15 -31 23 -38 18 -9 -5 -10 -2 -6 9 3 9 2 19 -3 22 -13 8 -13 35 -1 35 5 0 12 -8 15 -18z"/> <path d="M1060 1522 c0 -6 4 -13 10 -17 5 -3 7 -12 3 -21 -5 -13 -7 -13 -23 1 -22 20 -36 19 -15 -1 10 -11 13 -19 6 -23 -6 -4 -1 -12 12 -20 20 -13 21 -13 8 3 -13 16 -13 17 3 14 23 -4 31 45 10 63 -9 7 -14 8 -14 1z"/> <path d="M2493 1490 c0 -25 2 -35 4 -22 2 12 2 32 0 45 -2 12 -4 2 -4 -23z"/> <path d="M980 1513 c0 -7 -7 -13 -16 -13 -22 0 -12 -23 16 -37 l23 -11 -33 -17 c-33 -17 -120 -31 -120 -19 0 9 23 29 58 49 35 21 41 35 15 35 -9 0 -14 -3 -10 -6 3 -4 -10 -17 -30 -31 -41 -28 -55 -25 -22 6 19 17 20 21 6 21 -9 0 -24 -11 -33 -25 -14 -21 -15 -31 -6 -51 13 -27 64 -53 70 -34 2 6 30 23 62 38 l58 28 -19 40 c-10 21 -18 33 -19 27z"/> <path d="M1545 1510 c-8 -13 85 -13 105 0 11 7 -1 10 -42 10 -31 0 -60 -4 -63 -10z"/> <path d="M1350 1468 c0 -9 -5 -20 -12 -24 -6 -4 -8 -3 -5 3 4 6 -3 8 -18 5 -14 -2 -25 -9 -25 -16 0 -7 31 -11 93 -12 84 -1 89 -1 54 10 -29 9 -35 14 -25 24 8 8 8 12 1 12 -14 0 -34 -25 -26 -33 3 -4 3 -7 0 -7 -4 0 -13 12 -21 28 -10 18 -15 22 -16 10z"/> <path d="M1550 1466 l35 -13 -33 -8 c-21 -4 -38 -3 -45 4 -6 6 -17 11 -24 11 -11 0 -11 -5 -2 -21 8 -16 17 -20 37 -16 64 13 64 13 68 -16 2 -23 0 -28 -14 -22 -13 5 -14 3 -5 -6 8 -8 9 -18 0 -35 -8 -18 -7 -28 1 -36 9 -9 12 -9 12 1 0 7 7 28 16 47 16 32 15 47 -1 87 -6 13 -3 16 9 11 9 -3 16 -12 16 -20 0 -8 5 -15 10 -15 33 -4 70 -20 70 -29 0 -5 10 -14 23 -20 20 -10 20 -10 4 3 -16 14 -14 15 23 19 28 2 39 0 36 -8 -3 -7 4 -21 14 -32 24 -26 17 -32 -25 -22 -26 6 -35 4 -40 -8 -5 -13 -9 -12 -25 6 -11 12 -20 28 -20 37 0 8 -4 16 -10 16 -5 1 -14 2 -19 3 -5 0 -13 4 -17 9 -19 18 -22 3 -9 -40 18 -60 19 -72 1 -48 -11 16 -11 11 -2 -30 12 -51 13 -50 31 37 5 28 5 28 25 8 25 -25 25 -32 -1 -56 -12 -10 -27 -31 -35 -46 -10 -19 -24 -28 -46 -31 l-33 -4 36 -1 c36 -2 79 29 79 56 0 7 9 17 20 24 11 7 20 18 20 25 0 8 12 13 30 13 22 0 28 -4 23 -16 -3 -8 -11 -13 -17 -11 -7 3 -13 -4 -13 -14 -1 -10 2 -19 8 -19 5 0 9 -9 9 -21 0 -11 5 -17 10 -14 6 3 10 22 10 41 0 29 3 34 24 34 13 0 26 6 29 13 3 9 7 9 20 -2 24 -19 3 -45 -24 -30 -11 5 -18 6 -17 2 4 -15 -43 -94 -53 -88 -5 4 -16 22 -24 41 -11 26 -18 32 -31 27 -11 -4 -13 -8 -6 -11 7 -2 12 -10 12 -18 0 -8 4 -14 9 -14 11 0 2 -38 -11 -46 -5 -3 -6 5 -2 20 5 21 3 26 -12 26 -19 0 -54 -49 -54 -75 0 -14 32 -25 70 -24 17 1 11 4 -17 11 -25 5 -43 15 -43 23 0 12 4 12 28 0 15 -8 35 -12 45 -9 18 6 25 -20 7 -31 -16 -10 -11 -21 10 -22 11 -1 20 2 20 7 0 5 10 14 21 21 23 12 23 15 3 -49 -4 -14 0 -18 22 -17 21 0 29 -6 34 -24 3 -14 11 -26 18 -29 10 -3 9 6 -3 34 -9 22 -20 48 -25 59 -11 29 -47 58 -61 50 -7 -5 -10 -3 -7 6 3 8 13 16 24 17 10 2 24 9 29 14 7 8 5 9 -7 5 -28 -10 -21 8 7 21 14 6 25 17 25 23 0 6 7 9 15 5 11 -4 15 2 15 21 0 21 2 24 15 13 12 -10 15 -10 15 2 0 22 33 48 62 48 14 0 31 7 38 15 7 8 16 13 20 10 9 -6 65 104 57 112 -6 6 -63 -70 -80 -105 -9 -20 -16 -23 -44 -17 -20 4 -33 2 -33 -5 0 -15 -43 -12 -68 6 -12 8 -20 20 -17 25 4 5 2 9 -4 9 -5 0 -24 20 -41 45 -29 43 -56 61 -44 31 10 -25 -17 -29 -47 -7 -31 23 -141 61 -174 60 -13 0 -8 -5 15 -13z"/> <path d="M1811 1457 c-2 -30 17 -56 57 -77 l37 -21 -35 6 c-31 4 -32 4 -13 -6 12 -6 30 -8 40 -4 15 6 11 13 -28 48 -26 23 -49 49 -52 57 -4 11 -6 11 -6 -3z"/> <path d="M1993 1441 c-23 -15 -30 -25 -26 -40 3 -12 9 -18 14 -16 4 3 12 -3 18 -12 8 -15 10 -15 11 -2 0 8 -6 21 -12 27 -10 10 -6 18 17 37 36 29 23 33 -22 6z"/> <path d="M1910 1398 c27 -28 52 -49 55 -46 5 4 -7 20 -60 81 -8 9 -22 17 -30 17 -9 0 4 -21 35 -52z"/> <path d="M890 1430 c0 -12 8 -12 35 0 18 8 17 9 -7 9 -16 1 -28 -3 -28 -9z"/> <path d="M1038 1391 c-64 -33 -75 -41 -63 -51 8 -7 15 -8 15 -3 0 24 58 41 142 42 60 0 97 5 119 16 39 21 33 28 -12 15 -18 -6 -47 -10 -63 -10 -24 0 -27 2 -16 15 8 9 9 15 2 15 -6 0 -14 -4 -17 -10 -3 -5 -13 -10 -21 -10 -8 0 -12 5 -9 10 8 14 10 14 -77 -29z"/> <path d="M2503 1375 c0 -27 2 -38 4 -22 2 15 2 37 0 50 -2 12 -4 0 -4 -28z"/> <path d="M1271 1386 c-10 -11 -8 -16 7 -21 11 -3 24 -5 28 -3 5 1 19 -1 31 -5 13 -5 36 -2 59 8 20 8 39 13 41 11 4 -4 -52 -40 -77 -49 -12 -4 -11 -6 3 -6 10 -1 28 6 41 15 23 14 25 14 31 -6 7 -23 46 -52 67 -49 25 3 38 -1 38 -12 0 -8 -17 -10 -57 -4 -55 7 -128 8 -183 2 -23 -2 -25 2 -30 48 l-6 50 -8 -47 c-8 -47 -2 -73 14 -63 5 3 11 1 15 -5 4 -6 13 -7 23 -1 10 5 29 8 43 8 l27 -2 -24 -52 c-21 -48 -21 -66 0 -45 4 4 11 7 14 8 4 0 19 6 34 14 22 10 30 11 43 0 18 -15 19 -1 1 23 -17 22 -24 22 -46 -5 l-17 -22 0 27 c0 15 3 24 8 22 4 -3 10 4 14 15 3 11 15 20 25 20 13 0 17 -5 14 -15 -11 -28 89 -11 108 18 6 9 16 7 39 -6 29 -16 58 -15 33 1 -6 4 -15 17 -19 30 -6 21 -8 22 -19 7 -11 -15 -13 -15 -29 3 -10 11 -17 25 -15 32 2 7 -19 26 -46 42 -52 31 -51 31 -179 13 -25 -4 -36 -2 -32 5 9 15 -1 12 -14 -4z m247 -59 c2 -15 -1 -27 -7 -27 -6 0 -11 5 -11 11 0 6 -8 8 -19 4 -14 -4 -23 0 -31 15 -10 19 -9 20 14 14 17 -4 26 -2 26 6 0 23 25 3 28 -23z"/> <path d="M910 1350 c0 -14 69 -72 79 -66 15 10 14 27 -1 24 -19 -3 -57 24 -52 37 3 6 -2 12 -11 12 -8 0 -15 -3 -15 -7z"/> <path d="M1113 1331 c-29 -24 -29 -31 -2 -31 14 0 19 5 16 14 -3 7 0 19 6 25 18 18 4 12 -20 -8z"/> <path d="M1178 1324 c-46 -23 -47 -25 -44 -64 4 -47 12 -58 28 -42 9 9 9 12 0 12 -7 0 -11 14 -10 35 1 25 6 35 18 35 9 0 27 11 40 25 29 30 27 30 -32 -1z"/> <path d="M1030 1315 c0 -8 -4 -15 -10 -15 -5 0 -10 -7 -10 -15 0 -16 -1 -16 -38 -20 -27 -3 -42 -15 -19 -15 13 0 17 -9 17 -39 0 -21 6 -44 14 -50 20 -17 56 -22 56 -8 1 7 7 1 15 -13 l14 -25 1 34 c0 30 2 33 25 29 27 -6 30 5 15 52 l-8 25 -1 -27 c-1 -33 -15 -43 -33 -25 -11 11 -16 10 -34 -8 -11 -11 -18 -27 -16 -35 4 -11 -1 -9 -17 4 -16 15 -18 22 -10 33 9 9 8 17 0 27 -8 10 -8 16 2 25 8 6 17 8 20 4 4 -3 7 1 7 10 0 11 8 17 25 17 14 0 25 4 25 9 0 5 -9 7 -19 4 -16 -4 -19 -1 -14 16 3 12 3 21 -1 21 -3 0 -6 -7 -6 -15z"/> <path d="M1300 1295 c0 -9 6 -12 15 -9 8 4 12 10 9 15 -8 14 -24 10 -24 -6z"/> <path d="M911 1276 c-18 -19 -22 -33 -19 -72 2 -32 7 -48 15 -47 7 2 10 -3 7 -11 -3 -8 0 -17 7 -22 8 -4 10 -3 5 4 -11 19 5 14 20 -5 8 -11 13 -13 14 -6 0 7 -14 28 -30 47 -34 38 -35 73 -4 107 25 28 11 33 -15 5z"/> <path d="M2513 1260 c0 -25 2 -35 4 -22 2 12 2 32 0 45 -2 12 -4 2 -4 -23z"/> <path d="M2130 1281 c0 -6 -11 -23 -25 -36 -16 -17 -19 -25 -10 -25 16 0 50 58 41 68 -3 3 -6 0 -6 -7z"/> <path d="M1228 1221 c-3 -23 -2 -28 8 -20 8 7 14 6 18 -3 3 -7 4 0 3 16 -3 40 -24 44 -29 7z"/> <path d="M332 1230 c0 -8 6 -31 13 -50 7 -19 13 -28 13 -20 0 8 -6 31 -13 50 -7 19 -13 28 -13 20z"/> <path d="M1975 1209 c-16 -10 -25 -19 -20 -19 6 0 19 6 30 14 11 7 29 16 40 19 20 5 20 5 0 5 -11 0 -33 -8 -50 -19z"/> <path d="M2523 1165 c0 -22 2 -30 4 -17 2 12 2 30 0 40 -3 9 -5 -1 -4 -23z"/> <path d="M1506 1181 c-4 -5 3 -7 15 -4 12 4 25 0 29 -8 5 -7 12 -10 17 -6 9 10 -16 27 -39 27 -9 0 -19 -4 -22 -9z"/> <path d="M1860 1171 c-5 -11 -10 -32 -9 -48 l1 -28 9 27 c7 18 20 29 40 33 16 4 27 11 23 16 -3 5 -13 5 -24 -1 -27 -14 -34 -12 -20 5 8 10 9 15 2 15 -6 0 -16 -9 -22 -19z"/> <path d="M1135 1161 c-3 -11 -4 -30 -1 -43 2 -13 -4 -40 -14 -60 -14 -28 -14 -35 -3 -31 21 8 30 33 32 87 1 28 4 53 7 58 3 4 1 8 -5 8 -5 0 -12 -9 -16 -19z"/> <path d="M1395 1147 c-21 -31 -7 -40 26 -17 34 25 35 26 9 33 -13 3 -25 -2 -35 -16z"/> <path d="M1103 1135 c-9 -20 -8 -25 3 -25 8 0 14 10 14 25 0 31 -2 31 -17 0z"/> <path d="M1604 1135 c-10 -16 -26 -25 -41 -25 -23 0 -24 2 -12 17 12 14 9 13 -16 -2 -39 -24 -44 -30 -22 -22 9 4 27 3 40 -2 25 -10 58 10 70 42 9 25 0 21 -19 -8z"/> <path d="M1250 1142 c0 -15 40 -42 62 -42 10 0 18 -5 18 -11 0 -7 9 0 21 15 11 14 19 32 16 39 -2 7 -10 1 -17 -15 -11 -23 -16 -25 -39 -17 -14 6 -34 18 -43 26 -10 9 -18 11 -18 5z"/> <path d="M366 1121 c22 -83 132 -273 204 -351 l32 -35 -25 35 c-90 122 -126 182 -205 350 l-12 25 6 -24z"/> <path d="M1021 1118 c0 -9 -4 -25 -7 -35 -5 -14 -4 -15 5 -7 7 7 11 22 8 35 -2 13 -5 16 -6 7z"/> <path d="M1040 1079 c0 -16 5 -29 11 -29 6 0 8 7 5 16 -4 10 0 21 9 28 14 10 14 12 -4 13 -17 1 -21 -4 -21 -28z"/> <path d="M1881 1095 c0 -11 4 -29 9 -40 9 -20 9 -20 9 0 0 11 -4 29 -9 40 -9 20 -9 20 -9 0z"/> <path d="M740 1031 c93 -174 287 -324 497 -383 63 -17 105 -22 223 -22 80 -1 167 3 195 7 l50 9 -35 19 c-37 20 -83 17 -106 -6 -36 -35 -251 -23 -261 14 -3 11 -26 25 -61 36 -31 9 -79 29 -107 42 -112 56 -136 76 -216 187 -94 129 -105 126 -18 -4 70 -104 142 -171 212 -196 9 -3 17 -10 17 -15 0 -5 -17 0 -37 11 -21 11 -43 20 -50 20 -7 0 -13 5 -13 10 0 6 -5 10 -11 10 -35 0 -170 132 -243 238 -32 45 -60 82 -62 82 -3 0 9 -27 26 -59z"/> <path d="M1084 1079 c-3 -6 -1 -16 5 -22 8 -8 11 -5 11 11 0 24 -5 28 -16 11z"/> <path d="M1430 1081 c0 -7 -10 -9 -27 -6 -27 5 -27 5 -5 -6 17 -9 25 -10 34 -1 6 6 9 15 5 19 -4 3 -7 1 -7 -6z"/> <path d="M1677 1069 c-9 -6 -30 -12 -45 -13 -15 -2 -30 -4 -34 -5 -17 -2 -7 -21 11 -21 18 0 91 37 91 46 0 6 -3 5 -23 -7z"/> <path d="M692 1035 c0 -22 5 -58 13 -80 17 -52 17 -27 0 55 -11 56 -13 60 -13 25z"/> <path d="M1281 1063 c1 -4 -3 -21 -9 -36 -7 -16 -12 -33 -12 -38 0 -15 -39 -53 -46 -46 -7 7 -34 -37 -34 -54 0 -6 8 -5 19 1 17 9 20 6 24 -18 3 -22 4 -21 6 10 1 27 9 43 31 61 21 18 30 35 30 56 0 23 5 31 18 31 10 0 22 -4 28 -9 14 -13 87 -24 79 -12 -4 7 4 9 24 5 17 -4 44 -1 61 4 29 11 32 9 55 -28 23 -37 45 -52 45 -32 0 4 15 13 34 20 35 13 78 52 57 52 -7 0 -9 5 -5 12 4 7 -7 1 -25 -13 -61 -45 -60 -44 -73 -31 -11 11 -9 12 7 6 11 -4 17 -4 14 0 -4 4 -17 9 -29 11 -13 3 -26 9 -30 14 -7 12 -75 14 -152 5 -49 -5 -61 -3 -88 16 -17 12 -30 18 -29 13z"/> <path d="M1752 1038 c2 -6 10 -14 16 -16 7 -2 10 2 6 12 -7 18 -28 22 -22 4z"/> <path d="M1990 1008 c-7 -23 -19 -57 -28 -75 -9 -18 -13 -36 -9 -40 4 -4 10 3 14 15 3 12 9 19 14 16 5 -3 9 8 9 24 0 16 5 43 11 61 6 18 9 34 6 37 -3 3 -11 -14 -17 -38z"/> <path d="M1907 1033 c-4 -3 -7 -18 -6 -32 l0 -26 10 23 c5 13 15 22 21 19 12 -4 13 -23 3 -77 -8 -38 11 -2 20 38 5 26 3 36 -12 47 -21 16 -27 18 -36 8z"/> <path d="M1300 988 c0 -12 -8 -30 -17 -40 -16 -18 -16 -18 0 -12 9 3 17 7 17 8 0 0 4 16 9 34 6 20 6 32 0 32 -5 0 -9 -10 -9 -22z"/> <path d="M1425 971 c-9 -30 5 -50 38 -53 20 -2 31 -8 29 -16 -1 -8 2 -11 7 -7 11 6 3 35 -10 35 -4 0 -6 7 -3 15 7 17 -7 20 -23 4 -8 -8 -13 -7 -18 1 -4 7 -2 16 5 20 9 5 8 9 -4 13 -9 4 -17 -1 -21 -12z"/> <path d="M1350 969 c-23 -9 -23 -11 -7 -20 9 -6 15 -14 12 -20 -4 -5 1 -9 9 -9 8 0 17 8 19 18 3 11 5 8 6 -8 0 -15 -4 -31 -11 -38 -6 -6 -8 -15 -4 -19 4 -4 11 -1 16 7 13 21 23 5 11 -18 -18 -34 -44 -36 -67 -7 -14 17 -24 23 -28 16 -4 -6 -2 -11 3 -11 6 0 11 -6 11 -13 0 -19 46 -60 59 -53 5 3 12 -2 14 -11 3 -11 5 -7 4 7 -1 14 1 26 6 28 4 1 15 10 25 20 13 12 15 19 6 24 -6 4 -9 19 -6 34 4 22 2 26 -12 21 -12 -5 -16 0 -17 21 -1 15 -1 30 0 35 1 10 -18 8 -49 -4z"/> <path d="M2195 930 c-10 -11 -16 -22 -13 -25 3 -3 13 6 22 20 20 30 16 32 -9 5z"/> <path d="M1615 920 c10 -11 20 -20 22 -20 2 0 -1 9 -7 20 -6 11 -16 20 -22 20 -6 0 -3 -9 7 -20z"/> <path d="M1843 918 c-2 -5 7 -8 21 -8 14 0 27 3 29 8 3 4 -6 7 -20 7 -14 0 -27 -3 -30 -7z"/> <path d="M1457 903 c-11 -10 -8 -25 3 -18 6 3 10 -1 10 -9 0 -8 -4 -17 -9 -20 -5 -3 -18 -21 -29 -40 -17 -29 -18 -34 -5 -29 21 8 53 40 53 52 0 5 18 12 39 16 22 4 45 13 52 21 6 8 18 14 26 14 8 0 12 4 9 9 -4 5 -28 2 -56 -7 -46 -14 -51 -14 -68 1 -10 9 -22 14 -25 10z"/> <path d="M2090 818 c-41 -40 -57 -58 -35 -41 39 30 124 113 115 113 -3 -1 -39 -33 -80 -72z"/> <path d="M1609 844 c-13 -14 -17 -23 -9 -19 13 5 46 45 37 45 -2 0 -14 -11 -28 -26z"/> <path d="M1518 822 c-54 -28 -56 -45 -4 -28 19 6 32 15 29 20 -4 5 0 7 8 4 10 -4 15 1 16 13 1 10 1 18 0 18 -1 -1 -23 -13 -49 -27z"/> <path d="M1447 758 c-8 -30 -1 -35 12 -9 6 11 7 22 2 25 -5 3 -11 -4 -14 -16z"/> <path d="M1891 747 c-4 -4 -43 -25 -87 -47 -43 -22 -74 -40 -68 -40 19 0 150 55 186 79 l33 21 -28 -2 c-15 -1 -31 -6 -36 -11z"/> <path d="M2269 666 c-47 -46 -111 -101 -142 -121 -32 -21 -55 -40 -53 -43 14 -13 253 185 277 230 5 10 8 18 7 18 -2 0 -42 -38 -89 -84z"/> <path d="M693 435 c0 -22 2 -30 4 -17 2 12 2 30 0 40 -3 9 -5 -1 -4 -23z"/> <path d="M1001 446 c45 -26 179 -66 274 -81 113 -19 300 -18 385 0 36 8 49 12 30 9 -19 -2 -96 -7 -171 -10 -193 -9 -288 7 -524 90 -11 4 -8 0 6 -8z"/> <path d="M2288 371 c-116 -83 -316 -172 -443 -197 -22 -5 -42 -9 -45 -9 -21 -5 -126 -16 -175 -19 -139 -7 -358 34 -475 88 -30 14 -63 26 -74 26 -10 0 -41 -20 -68 -45 -76 -68 -138 -60 -138 19 0 31 -9 56 -21 56 -5 0 -9 -24 -9 -53 0 -64 27 -97 79 -97 39 0 118 51 131 85 l9 23 48 -24 c295 -141 675 -136 1000 11 68 32 205 117 263 164 23 19 23 21 5 20 -11 0 -50 -22 -87 -48z"/> </g> </svg>