<svg xmlns="http://www.w3.org/2000/svg" version="1.1" viewBox="0 0 254 206.19">
<path d="M0 0 C83.82 0 167.64 0 254 0 C254 67.98 254 135.96 254 206 C170.18 206 86.36 206 0 206 C0 138.02 0 70.04 0 0 Z " fill="#F6EEE1" transform="translate(0,0)"/>
<path d="M0 0 C2.05399393 1.94588898 3.49379937 3.71810186 5.125 6 C13.75102229 17.77868018 25.46247637 22.79069655 38.71264648 27.92358398 C46.70544952 31.07687801 54.61017002 34.90594576 61.375 40.25 C56.75442737 26.68962379 43.95602369 15.31870862 31.5625 9.0625 C30.61080933 8.61716919 30.61080933 8.61716919 29.63989258 8.1628418 C24.90365907 5.87204492 22.44707629 3.38706273 19.375 -0.75 C19.705 -1.41 20.035 -2.07 20.375 -2.75 C21.2 -1.925 22.025 -1.1 22.875 -0.25 C25.98594145 2.46420196 29.17846308 4.17250385 32.93188477 5.87231445 C46.57745654 12.07572573 56.32987672 21.99185461 63.375 35.25 C63.91769531 36.26707031 64.46039063 37.28414062 65.01953125 38.33203125 C71.46213259 51.29561108 75.73501561 68.48122247 71.3125 82.875 C68.25005437 88.20958271 64.03685563 91.82034933 58.375 94.25 C52.34427408 94.95358469 49.10960584 94.0069966 44.0390625 90.734375 C42.11768739 89.02047232 41.26420253 87.66093057 40.375 85.25 C40.81944444 78.80555556 40.81944444 78.80555556 43.375 76.25 C46 76.625 46 76.625 48.375 77.25 C47.694375 77.806875 47.01375 78.36375 46.3125 78.9375 C44.11989119 81.06682712 44.11989119 81.06682712 44.3125 83.75 C45.7665304 87.17124801 47.14647619 88.39531611 50.375 90.25 C55.16627195 90.85841549 57.31161695 90.78169152 61.625 88.625 C65.77031248 85.0449574 68.1379111 82.0347007 68.87109375 76.515625 C68.87721774 75.17695485 68.85683159 73.83794991 68.8125 72.5 C68.79856201 71.79552734 68.78462402 71.09105469 68.77026367 70.36523438 C68.39679354 59.74749077 64.99112489 51.63547904 58.125 43.625 C50.33937132 36.90104796 41.96356835 33.24615266 32.46923828 29.49755859 C19.23235664 24.20474825 8.8706606 18.11846931 0.1015625 6.48046875 C-5.54296119 -0.81143855 -12.69384394 -3.55638711 -21.625 -4.75 C-41.17102915 -6.23625051 -56.99568746 -1.97127352 -73.625 8.25 C-74.285 8.91 -74.945 9.57 -75.625 10.25 C-74.655625 10.105625 -73.68625 9.96125 -72.6875 9.8125 C-48.71009481 6.41736225 -24.89591936 7.56288981 -4.625 22.25 C3.83924312 29.13744671 10.86465223 36.43447249 15.9375 46.125 C16.51491943 47.22376465 16.51491943 47.22376465 17.10400391 48.34472656 C20.67980376 55.41187044 22.98344161 62.63317307 24.88720703 70.30126953 C25.34088527 72.11371183 25.8386374 73.91496508 26.33984375 75.71484375 C30.25376055 90.59494219 29.30245743 106.07707946 21.9609375 119.78125 C19.46466863 123.66706756 16.50907946 127.12821871 13.5234375 130.64453125 C9.98181096 134.93955834 7.16793159 139.37579805 5 144.5 C2.75604385 148.29746425 0.26208398 149.23447497 -3.625 151.25 C-4.90946919 153.81893838 -4.95477144 156.01576337 -5.1875 158.875 C-5.27128906 159.87789062 -5.35507813 160.88078125 -5.44140625 161.9140625 C-5.50199219 162.68492187 -5.56257812 163.45578125 -5.625 164.25 C-6.346875 164.09144531 -7.06875 163.93289062 -7.8125 163.76953125 C-14.87662896 162.46462965 -20.97401681 162.84698842 -27.75 165.25 C-38.7903096 168.9301032 -49.58726383 168.57376415 -60.28515625 164.1015625 C-64.07853182 162.72100178 -66.87408989 162.78860645 -70.625 164.25 C-73.52207582 165.89727649 -76.27292866 167.66006922 -79.01171875 169.55859375 C-83.43427346 172.42102453 -86.85646981 173.51889583 -92.125 173.4375 C-93.50171875 173.42783203 -93.50171875 173.42783203 -94.90625 173.41796875 C-97.56365687 173.25378988 -100.03126246 172.83734999 -102.625 172.25 C-102.98851562 172.72050781 -103.35203125 173.19101563 -103.7265625 173.67578125 C-106.96602595 177.68773213 -109.62250634 180.51444098 -114.625 182.25 C-120.15366924 182.73327528 -122.70559306 182.00176097 -127.0625 178.625 C-132.51439896 174.71700163 -137.80040487 172.41128767 -144.19311523 170.41748047 C-148.74342432 168.9156125 -151.09487477 167.3352266 -153.625 163.25 C-154.81712065 160.19022365 -155.02565745 157.50662591 -154.625 154.25 C-152.34506326 149.10126868 -149.01571276 144.71307673 -145.625 140.25 C-146.26308594 139.76789063 -146.90117187 139.28578125 -147.55859375 138.7890625 C-148.38488281 138.15742188 -149.21117187 137.52578125 -150.0625 136.875 C-150.88621094 136.24851563 -151.70992187 135.62203125 -152.55859375 134.9765625 C-155.51272356 132.50827256 -155.59024129 131.5380007 -156.0625 127.625 C-156.02888907 122.97828834 -154.02893978 120.65522312 -151.1484375 117.1796875 C-148.54214041 113.87837786 -147.16093214 110.15203368 -146.02734375 106.12890625 C-143.15338894 96.19913426 -136.52609993 89.87376928 -128.96362305 83.21777344 C-126.11545129 80.69859842 -123.71738118 78.20785474 -121.5 75.125 C-119.83762771 73.07715008 -119.11216313 72.34958583 -116.50390625 71.81640625 C-114.83309149 71.72818723 -113.16086694 71.66424088 -111.48828125 71.62109375 C-106.73217975 71.00468223 -102.75783057 68.75512954 -98.5078125 66.625 C-93.41166927 64.19431922 -88.24038422 63.31077203 -82.625 64.25 C-79.5625 66.75 -79.5625 66.75 -77.625 69.25 C-77.955 69.91 -78.285 70.57 -78.625 71.25 C-79.429375 70.755 -80.23375 70.26 -81.0625 69.75 C-86.44057238 67.48554847 -90.82434163 67.1540902 -96.3203125 69.3046875 C-99.92680159 71.08164568 -103.27937416 73.01958277 -106.625 75.25 C-108.35113597 75.36990928 -110.08224721 75.42529794 -111.8125 75.4375 C-118.23656152 75.90547799 -121.48707309 78.48480788 -125.625 83.25 C-127.72856857 85.74417159 -127.72856857 85.74417159 -128.625 88.25 C-127.68621532 95.00319299 -122.90777364 103.68675626 -117.875 108.25 C-113.32293001 111.05127384 -108.55061335 113.19035741 -103.625 115.25 C-104.25596871 112.20806665 -104.99465344 110.64511256 -106.6875 107.875 C-108.64667569 104.54297127 -109.24770376 102.16413791 -108.625 98.25 C-107.09765625 96.578125 -107.09765625 96.578125 -105.625 95.25 C-105.59921875 95.83007812 -105.5734375 96.41015625 -105.546875 97.0078125 C-105.142145 102.58204835 -104.2614307 105.95240008 -100.625 110.25 C-99.965 110.25 -99.305 110.25 -98.625 110.25 C-98.295 107.94 -97.965 105.63 -97.625 103.25 C-95.975 103.58 -94.325 103.91 -92.625 104.25 C-92.67140625 103.404375 -92.7178125 102.55875 -92.765625 101.6875 C-93.04926041 92.7732443 -92.47923698 87.53326701 -86.484375 80.87109375 C-77.72257585 72.28838798 -70.35737264 71.04610279 -58.5 71.0625 C-55.54012546 71.09963942 -52.58413112 71.1679707 -49.625 71.25 C-50.16769531 70.51394531 -50.71039063 69.77789062 -51.26953125 69.01953125 C-51.98496094 68.04371094 -52.70039062 67.06789063 -53.4375 66.0625 C-54.14519531 65.09957031 -54.85289063 64.13664062 -55.58203125 63.14453125 C-61.04438743 55.40532297 -61.04438743 55.40532297 -60.9375 50.5625 C-60.93363281 49.79550781 -60.92976563 49.02851562 -60.92578125 48.23828125 C-60.625 46.25 -60.625 46.25 -58.625 44.25 C-56.30734271 43.53072705 -53.97404126 42.8590107 -51.625 42.25 C-52.21505692 35.75937386 -55.74668153 31.85232065 -60.49609375 27.80078125 C-65.74402564 23.73434578 -71.09791195 19.69210179 -78.03515625 20.35546875 C-82.70786856 21.96942217 -86.47105353 24.98627979 -90.38671875 27.921875 C-100.43959853 35.14927711 -111.24183066 37.63830506 -123.4375 37.5 C-124.31188721 37.49250732 -125.18627441 37.48501465 -126.0871582 37.47729492 C-136.33181901 37.30767192 -146.25516341 36.80551618 -154.625 30.25 C-160.99879898 23.29537522 -160.91207183 16.5900357 -161.25 7.625 C-161.3015625 6.45453125 -161.353125 5.2840625 -161.40625 4.078125 C-161.47199219 2.41136719 -161.47199219 2.41136719 -161.5390625 0.7109375 C-161.5798291 -0.31209473 -161.6205957 -1.33512695 -161.66259766 -2.38916016 C-161.625 -4.75 -161.625 -4.75 -160.625 -5.75 C-155.41124321 -6.39028592 -152.5319694 -6.12088099 -148.1875 -3.0625 C-145.7887595 -1.06040163 -144.71540169 0.04540671 -143.4375 2.9375 C-143.625 5.25 -143.625 5.25 -145.0625 6.625 C-146.93360839 8.2688541 -146.93360839 8.2688541 -147.1875 11.4375 C-146.43743184 16.52129529 -144.42941393 19.80757322 -140.625 23.25 C-135.18218559 26.79952551 -130.37784669 27.94000387 -123.9375 27.8125 C-123.15366943 27.80299316 -122.36983887 27.79348633 -121.56225586 27.78369141 C-114.2188068 27.52418437 -108.19158904 25.53767809 -101.625 22.25 C-100.75230469 21.83878906 -99.87960938 21.42757812 -98.98046875 21.00390625 C-93.04403636 18.00453936 -87.75294229 14.25406315 -82.375 10.375 C-58.46176444 -6.81462729 -26.89534996 -17.9302333 0 0 Z " fill="#0D0C0C" transform="translate(177.625,23.75)"/>
<path d="M0 0 C0.495 0.99 0.495 0.99 1 2 C0.02417969 2.04898438 -0.95164063 2.09796875 -1.95703125 2.1484375 C-3.22933594 2.22320312 -4.50164062 2.29796875 -5.8125 2.375 C-7.70935547 2.47941406 -7.70935547 2.47941406 -9.64453125 2.5859375 C-13.12755234 2.76102939 -13.12755234 2.76102939 -16 5 C-15.34104736 4.98428955 -14.68209473 4.9685791 -14.00317383 4.95239258 C6.84280082 4.52102124 23.21341046 5.44662594 39.8125 19.6875 C51.3351381 30.77342003 57.99947702 44.23640337 58.3125 60.25 C58.35293823 69.49575149 55.27862293 75.64763234 50 83 C47.03824877 82.38722388 45.61941217 81.74627478 43 80 C39.79316945 79.40338036 37.80179434 79.524176 34.97265625 81.203125 C31.95668147 83.42719578 29.29475716 85.68067974 26.75 88.4375 C25.88375 89.2109375 25.88375 89.2109375 25 90 C22.75 89.75 22.75 89.75 21 89 C21.59927826 85.64404172 22.84622436 83.62198774 25 81 C21.37206002 82.86566488 21.37206002 82.86566488 19 86 C18.48183714 90.79937735 18.28792633 94.73409126 20.6875 99 C25.22045135 102.92039035 29.42674243 103.4961643 35.29296875 103.390625 C40.00194938 102.71111842 44.09057243 100.66893613 48 98 C50.10565503 94.84151745 50.17942794 94.14403204 50.25 90.5625 C50.68719039 84.92851821 52.83096291 80.76188561 55.52734375 75.859375 C60.38748912 66.42270017 60.43565861 54.96620714 58.3125 44.6640625 C57.3858857 41.96915925 56.31791917 39.52532958 55 37 C54.56429687 36.15308594 54.12859375 35.30617187 53.6796875 34.43359375 C47.52897732 23.42617526 39.14690871 16.15357064 29 9 C32 8 32 8 33.91015625 8.64453125 C53.3547034 19.19610947 62.95987344 39.69489369 69 60 C69.32226562 61.03640625 69.64453125 62.0728125 69.9765625 63.140625 C73.40891248 75.6510595 74.41418427 90.55941789 68.48828125 102.39453125 C67.99714844 103.25433594 67.50601563 104.11414063 67 105 C66.51917969 105.89074219 66.03835937 106.78148437 65.54296875 107.69921875 C61.53876564 114.76732397 57.0899855 122.40509899 49 125 C43.99266962 125.52436646 39.58637883 125.63455153 34.875 123.75 C32.81924111 121.8312917 32.28635841 120.76813126 32 118 C31.34 118 30.68 118 30 118 C29.566875 119.36125 29.566875 119.36125 29.125 120.75 C28.23158284 123.33098291 27.24772883 125.58842326 26 128 C24.18757948 128.02687279 22.37504767 128.04633715 20.5625 128.0625 C19.55316406 128.07410156 18.54382813 128.08570313 17.50390625 128.09765625 C15 128 15 128 14 127 C12.66975319 126.75354802 11.33558743 126.52814172 10 126.3125 C0.45465799 124.23152496 -7.39319034 116.89646102 -14 110 C-14 109.34 -14 108.68 -14 108 C-13.40832031 107.89042969 -12.81664063 107.78085938 -12.20703125 107.66796875 C-7.62074201 106.74771822 -3.81785484 105.86339113 0 103 C1.55931978 99.88136043 1.28319246 96.53485381 1.38671875 93.10546875 C1.41224319 92.3210994 1.43776764 91.53673004 1.46406555 90.72859192 C1.51610911 89.06677913 1.56553183 87.40488252 1.61254883 85.74291992 C1.68690833 83.20767263 1.77765643 80.67335134 1.86914062 78.13867188 C1.9176788 76.5234676 1.96523653 74.9082335 2.01171875 73.29296875 C2.04077805 72.53759323 2.06983734 71.78221771 2.09977722 71.00395203 C2.19823726 66.85549281 1.8784083 63.7251503 0 60 C1.7634375 60.495 1.7634375 60.495 3.5625 61 C11.53482066 62.74079154 21.1763097 63.8058546 28.75 60.25 C32.52869716 57.67575813 32.52869716 57.67575813 35 54 C35 52.68 35 51.36 35 50 C34.484375 50.825 33.96875 51.65 33.4375 52.5 C31 55 31 55 27.5625 55.6875 C23.89398832 54.9795416 22.38365309 54.2573508 20.18359375 51.2421875 C18.03616521 47.17412155 16.69500004 42.81259527 15.30859375 38.4375 C13.83121776 34.55663173 11.96948693 30.96948693 9 28 C8.26652344 28.01160156 7.53304687 28.02320312 6.77734375 28.03515625 C2.3021958 28.07824571 -0.82820775 28.07517079 -4.2265625 24.95703125 C-5.55175414 23.21210759 -6.84166374 21.43990705 -8.09765625 19.64453125 C-12.4006242 13.6627873 -18.71857076 7.96986246 -26.1484375 6.60546875 C-28.09261441 6.349656 -30.04631163 6.16842141 -32 6 C-32 5.34 -32 4.68 -32 4 C-21.08837733 1.00831888 -11.33920764 -0.59419429 0 0 Z " fill="#F3EBDE" transform="translate(131,35)"/>
<path d="M0 0 C2.05399393 1.94588898 3.49379937 3.71810186 5.125 6 C13.75102229 17.77868018 25.46247637 22.79069655 38.71264648 27.92358398 C46.70544952 31.07687801 54.61017002 34.90594576 61.375 40.25 C56.75442737 26.68962379 43.95602369 15.31870862 31.5625 9.0625 C30.61080933 8.61716919 30.61080933 8.61716919 29.63989258 8.1628418 C24.90365907 5.87204492 22.44707629 3.38706273 19.375 -0.75 C19.705 -1.41 20.035 -2.07 20.375 -2.75 C21.2 -1.925 22.025 -1.1 22.875 -0.25 C25.98594145 2.46420196 29.17846308 4.17250385 32.93188477 5.87231445 C46.57745654 12.07572573 56.32987672 21.99185461 63.375 35.25 C63.91769531 36.26707031 64.46039063 37.28414062 65.01953125 38.33203125 C71.46213259 51.29561108 75.73501561 68.48122247 71.3125 82.875 C68.25005437 88.20958271 64.03685563 91.82034933 58.375 94.25 C52.34427408 94.95358469 49.10960584 94.0069966 44.0390625 90.734375 C42.11768739 89.02047232 41.26420253 87.66093057 40.375 85.25 C40.81944444 78.80555556 40.81944444 78.80555556 43.375 76.25 C46 76.625 46 76.625 48.375 77.25 C47.694375 77.806875 47.01375 78.36375 46.3125 78.9375 C44.11989119 81.06682712 44.11989119 81.06682712 44.3125 83.75 C45.7665304 87.17124801 47.14647619 88.39531611 50.375 90.25 C55.16627195 90.85841549 57.31161695 90.78169152 61.625 88.625 C65.77031248 85.0449574 68.1379111 82.0347007 68.87109375 76.515625 C68.87721774 75.17695485 68.85683159 73.83794991 68.8125 72.5 C68.79856201 71.79552734 68.78462402 71.09105469 68.77026367 70.36523438 C68.39679354 59.74749077 64.99112489 51.63547904 58.125 43.625 C50.33937132 36.90104796 41.96356835 33.24615266 32.46923828 29.49755859 C19.23235664 24.20474825 8.8706606 18.11846931 0.1015625 6.48046875 C-5.54296119 -0.81143855 -12.69384394 -3.55638711 -21.625 -4.75 C-41.17102915 -6.23625051 -56.99568746 -1.97127352 -73.625 8.25 C-74.285 8.91 -74.945 9.57 -75.625 10.25 C-74.655625 10.105625 -73.68625 9.96125 -72.6875 9.8125 C-48.71009481 6.41736225 -24.89591936 7.56288981 -4.625 22.25 C3.83924312 29.13744671 10.86465223 36.43447249 15.9375 46.125 C16.51491943 47.22376465 16.51491943 47.22376465 17.10400391 48.34472656 C20.67980376 55.41187044 22.98344161 62.63317307 24.88720703 70.30126953 C25.34088527 72.11371183 25.8386374 73.91496508 26.33984375 75.71484375 C30.25376055 90.59494219 29.30245743 106.07707946 21.9609375 119.78125 C19.46466863 123.66706756 16.50907946 127.12821871 13.5234375 130.64453125 C9.98181096 134.93955834 7.16793159 139.37579805 5 144.5 C2.75604385 148.29746425 0.26208398 149.23447497 -3.625 151.25 C-4.90946919 153.81893838 -4.95477144 156.01576337 -5.1875 158.875 C-5.331875 160.64875 -5.47625 162.4225 -5.625 164.25 C-9.915 163.59 -14.205 162.93 -18.625 162.25 C-18.625 161.92 -18.625 161.59 -18.625 161.25 C-16.645 161.25 -14.665 161.25 -12.625 161.25 C-12.975625 160.71375 -13.32625 160.1775 -13.6875 159.625 C-14.91424249 156.51725237 -14.35356431 154.45568297 -13.625 151.25 C-14.945 151.58 -16.265 151.91 -17.625 152.25 C-17.295 153.57 -16.965 154.89 -16.625 156.25 C-24.82561679 163.34726108 -34.1982122 164.61144716 -44.6875 164.6875 C-45.50879395 164.69749023 -46.33008789 164.70748047 -47.17626953 164.71777344 C-51.54626025 164.65445335 -54.4019733 164.54290262 -57.625 161.25 C-56.4521573 157.73147191 -55.79413123 157.50274673 -52.6875 155.75 C-49.65807774 154.03461026 -48.63010078 153.25765117 -46.625 150.25 C-46.20296044 147.31439861 -46.20296044 147.31439861 -46.0625 144.125 C-45.72308917 138.34808917 -45.72308917 138.34808917 -44.625 137.25 C-42.62700428 137.15126184 -40.62542842 137.12028201 -38.625 137.125 C-37.531875 137.12242187 -36.43875 137.11984375 -35.3125 137.1171875 C-32.625 137.25 -32.625 137.25 -31.625 138.25 C-29.77608054 138.48363881 -27.92011969 138.66303635 -26.0625 138.8125 C-25.05058594 138.89628906 -24.03867188 138.98007813 -22.99609375 139.06640625 C-22.21363281 139.12699219 -21.43117187 139.18757812 -20.625 139.25 C-20.191875 137.6103125 -20.191875 137.6103125 -19.75 135.9375 C-18.625 132.25 -18.625 132.25 -16.625 129.25 C-15.965 129.25 -15.305 129.25 -14.625 129.25 C-14.150625 130.054375 -13.67625 130.85875 -13.1875 131.6875 C-11.82516328 134.5418076 -11.82516328 134.5418076 -8.625 135.25 C-2.72878179 135.82272183 2.80377413 136.0727952 7.83203125 132.62109375 C16.3749089 125.02982778 24.04005419 111.41106757 24.74609375 99.9921875 C25.44148928 72.49709984 15.65094852 47.43404295 -3.125 27.375 C-6.66655614 23.93114196 -11.49063165 20.25 -16.625 20.25 C-15.779375 20.86746094 -14.93375 21.48492187 -14.0625 22.12109375 C-1.32046976 31.56144629 10.03276694 43.04688527 13.375 59.25 C14.58868797 71.78478503 13.71972029 82.97840907 6.734375 93.7890625 C5.23772257 96.49851949 5.01888133 98.18623233 4.9375 101.25 C4.56558153 105.80769179 3.99278924 108.17487915 0.375 111.25 C-5.70256818 115.00816971 -11.5430985 116.23929459 -18.625 115.25 C-23.29085583 113.60830998 -26.21418725 111.60800767 -28.625 107.25 C-29.42741599 102.27993359 -29.36158793 98.51997919 -26.8125 94.125 C-24.625 92.25 -24.625 92.25 -21.625 92.25 C-21.934375 92.8275 -22.24375 93.405 -22.5625 94 C-23.55083364 96.09294184 -24.1418613 97.99535275 -24.625 100.25 C-22.25960948 100.12943404 -22.25960948 100.12943404 -19.625 99.25 C-18.25426214 97.61395804 -16.92444744 95.94321939 -15.625 94.25 C-12.49761125 91.73449166 -10.49062288 90.3711872 -6.5 89.8125 C-3.30943083 90.2980214 -2.06649359 91.22945358 0.375 93.25 C1.365 93.25 2.355 93.25 3.375 93.25 C4.78152748 91.69296376 4.78152748 91.69296376 5.9375 89.625 C6.35128906 88.95210938 6.76507813 88.27921875 7.19140625 87.5859375 C11.96706711 78.16070585 11.61953385 67.5074993 8.75 57.5 C2.89794858 40.8032379 -7.17197985 29.15525164 -23.125 21.4375 C-32.48325492 17.09894195 -42.11037408 16.9780489 -52.25 17.125 C-53.44496094 17.13402344 -54.63992187 17.14304687 -55.87109375 17.15234375 C-58.78927834 17.17568923 -61.70702776 17.20843344 -64.625 17.25 C-60.87989166 13.33465946 -58.40840421 13.058665 -53 12.6875 C-51.21722656 12.56181641 -51.21722656 12.56181641 -49.3984375 12.43359375 C-48.48320312 12.37300781 -47.56796875 12.31242187 -46.625 12.25 C-55.53412566 11.91729406 -63.25136198 12.23904929 -71.91796875 14.59375 C-74.625 15.25 -74.625 15.25 -78.625 15.25 C-78.625 15.91 -78.625 16.57 -78.625 17.25 C-76.9234375 17.0953125 -76.9234375 17.0953125 -75.1875 16.9375 C-67.48529721 16.99174086 -62.13158278 21.52537376 -56.8125 26.6875 C-54.20612784 29.3654021 -52.53045697 31.42648033 -50.75 34.75 C-48.89252913 37.49052078 -48.89252913 37.49052078 -46.12109375 37.625 C-45.15300781 37.66625 -44.18492187 37.7075 -43.1875 37.75 C-37.94354078 38.00070721 -37.94354078 38.00070721 -34.75 40.5 C-32.00443407 44.5984535 -30.47511616 49.41074638 -28.8359375 54.03125 C-27.18549569 58.41823082 -25.22423871 62.35114194 -22.625 66.25 C-22.625 67.91666667 -22.625 69.58333333 -22.625 71.25 C-29.31349957 73.12879201 -35.83181644 72.51220203 -42.49609375 70.796875 C-44.41166304 70.30480215 -46.36254847 69.95550026 -48.3125 69.625 C-53.04910963 67.65886015 -54.91814298 64.46613487 -57.625 60.25 C-58.24375 59.445625 -58.8625 58.64125 -59.5 57.8125 C-61.14428937 54.06717422 -61.23533635 50.28456108 -60.625 46.25 C-57.9394406 43.5644406 -55.24878672 43.18950026 -51.625 42.25 C-52.21505692 35.75937386 -55.74668153 31.85232065 -60.49609375 27.80078125 C-65.74402564 23.73434578 -71.09791195 19.69210179 -78.03515625 20.35546875 C-82.70786856 21.96942217 -86.47105353 24.98627979 -90.38671875 27.921875 C-100.43959853 35.14927711 -111.24183066 37.63830506 -123.4375 37.5 C-124.31188721 37.49250732 -125.18627441 37.48501465 -126.0871582 37.47729492 C-136.33181901 37.30767192 -146.25516341 36.80551618 -154.625 30.25 C-160.99879898 23.29537522 -160.91207183 16.5900357 -161.25 7.625 C-161.3015625 6.45453125 -161.353125 5.2840625 -161.40625 4.078125 C-161.47199219 2.41136719 -161.47199219 2.41136719 -161.5390625 0.7109375 C-161.5798291 -0.31209473 -161.6205957 -1.33512695 -161.66259766 -2.38916016 C-161.625 -4.75 -161.625 -4.75 -160.625 -5.75 C-155.41124321 -6.39028592 -152.5319694 -6.12088099 -148.1875 -3.0625 C-145.7887595 -1.06040163 -144.71540169 0.04540671 -143.4375 2.9375 C-143.625 5.25 -143.625 5.25 -145.0625 6.625 C-146.93360839 8.2688541 -146.93360839 8.2688541 -147.1875 11.4375 C-146.43743184 16.52129529 -144.42941393 19.80757322 -140.625 23.25 C-135.18218559 26.79952551 -130.37784669 27.94000387 -123.9375 27.8125 C-123.15366943 27.80299316 -122.36983887 27.79348633 -121.56225586 27.78369141 C-114.2188068 27.52418437 -108.19158904 25.53767809 -101.625 22.25 C-100.75230469 21.83878906 -99.87960938 21.42757812 -98.98046875 21.00390625 C-93.04403636 18.00453936 -87.75294229 14.25406315 -82.375 10.375 C-58.46176444 -6.81462729 -26.89534996 -17.9302333 0 0 Z " fill="#131211" transform="translate(177.625,23.75)"/>
<path d="M0 0 C8.46424312 6.88744671 15.48965223 14.18447249 20.5625 23.875 C21.13991943 24.97376465 21.13991943 24.97376465 21.72900391 26.09472656 C25.30480376 33.16187044 27.60844161 40.38317307 29.51220703 48.05126953 C29.96588527 49.86371183 30.4636374 51.66496508 30.96484375 53.46484375 C34.87876055 68.34494219 33.92745743 83.82707946 26.5859375 97.53125 C24.08966863 101.41706756 21.13407946 104.87821871 18.1484375 108.39453125 C14.60681096 112.68955834 11.79293159 117.12579805 9.625 122.25 C7.38104385 126.04746425 4.88708398 126.98447497 1 129 C-0.28446919 131.56893838 -0.32977144 133.76576337 -0.5625 136.625 C-0.706875 138.39875 -0.85125 140.1725 -1 142 C-5.29 141.34 -9.58 140.68 -14 140 C-14 139.67 -14 139.34 -14 139 C-12.02 139 -10.04 139 -8 139 C-8.350625 138.46375 -8.70125 137.9275 -9.0625 137.375 C-10.28924249 134.26725237 -9.72856431 132.20568297 -9 129 C-10.32 129.33 -11.64 129.66 -13 130 C-12.67 131.32 -12.34 132.64 -12 134 C-20.20061679 141.09726108 -29.5732122 142.36144716 -40.0625 142.4375 C-40.88379395 142.44749023 -41.70508789 142.45748047 -42.55126953 142.46777344 C-46.92126025 142.40445335 -49.7769733 142.29290262 -53 139 C-51.8271573 135.48147191 -51.16913123 135.25274673 -48.0625 133.5 C-45.03307774 131.78461026 -44.00510078 131.00765117 -42 128 C-41.57796044 125.06439861 -41.57796044 125.06439861 -41.4375 121.875 C-41.09808917 116.09808917 -41.09808917 116.09808917 -40 115 C-38.00200428 114.90126184 -36.00042842 114.87028201 -34 114.875 C-32.906875 114.87242187 -31.81375 114.86984375 -30.6875 114.8671875 C-28 115 -28 115 -27 116 C-25.15108054 116.23363881 -23.29511969 116.41303635 -21.4375 116.5625 C-20.42558594 116.64628906 -19.41367188 116.73007813 -18.37109375 116.81640625 C-17.58863281 116.87699219 -16.80617187 116.93757812 -16 117 C-15.71125 115.906875 -15.4225 114.81375 -15.125 113.6875 C-14 110 -14 110 -12 107 C-11.34 107 -10.68 107 -10 107 C-9.525625 107.804375 -9.05125 108.60875 -8.5625 109.4375 C-7.20016328 112.2918076 -7.20016328 112.2918076 -4 113 C1.89621821 113.57272183 7.42877413 113.8227952 12.45703125 110.37109375 C20.9999089 102.77982778 28.66505419 89.16106757 29.37109375 77.7421875 C30.06648928 50.24709984 20.27594852 25.18404295 1.5 5.125 C-2.04155614 1.68114196 -6.86563165 -2 -12 -2 C-11.154375 -1.38253906 -10.30875 -0.76507813 -9.4375 -0.12890625 C3.30453024 9.31144629 14.65776694 20.79688527 18 37 C19.21368797 49.53478503 18.34472029 60.72840907 11.359375 71.5390625 C9.86272257 74.24851949 9.64388133 75.93623233 9.5625 79 C9.19058153 83.55769179 8.61778924 85.92487915 5 89 C-1.07756818 92.75816971 -6.9180985 93.98929459 -14 93 C-18.66585583 91.35830998 -21.58918725 89.35800767 -24 85 C-24.80241599 80.02993359 -24.73658793 76.26997919 -22.1875 71.875 C-20 70 -20 70 -17 70 C-17.309375 70.5775 -17.61875 71.155 -17.9375 71.75 C-18.92583364 73.84294184 -19.5168613 75.74535275 -20 78 C-17.63460948 77.87943404 -17.63460948 77.87943404 -15 77 C-13.62926214 75.36395804 -12.29944744 73.69321939 -11 72 C-7.87261125 69.48449166 -5.86562288 68.1211872 -1.875 67.5625 C1.31556917 68.0480214 2.55850641 68.97945358 5 71 C5.99 71 6.98 71 8 71 C9.40652748 69.44296376 9.40652748 69.44296376 10.5625 67.375 C10.97628906 66.70210938 11.39007813 66.02921875 11.81640625 65.3359375 C16.59206711 55.91070585 16.24453385 45.2574993 13.375 35.25 C7.52294858 18.5532379 -2.54697985 6.90525164 -18.5 -0.8125 C-27.85825492 -5.15105805 -37.48537408 -5.2719511 -47.625 -5.125 C-48.81996094 -5.11597656 -50.01492187 -5.10695313 -51.24609375 -5.09765625 C-54.16427834 -5.07431077 -57.08202776 -5.04156656 -60 -5 C-56.25489166 -8.91534054 -53.78340421 -9.191335 -48.375 -9.5625 C-46.59222656 -9.68818359 -46.59222656 -9.68818359 -44.7734375 -9.81640625 C-43.85820312 -9.87699219 -42.94296875 -9.93757813 -42 -10 C-42.62567871 -9.98952637 -43.25135742 -9.97905273 -43.89599609 -9.96826172 C-46.7222901 -9.92676809 -49.54852011 -9.90069527 -52.375 -9.875 C-53.35984375 -9.85824219 -54.3446875 -9.84148438 -55.359375 -9.82421875 C-56.30039063 -9.81777344 -57.24140625 -9.81132813 -58.2109375 -9.8046875 C-59.51490479 -9.78897705 -59.51490479 -9.78897705 -60.84521484 -9.77294922 C-63 -10 -63 -10 -65 -12 C-43.14931045 -17.88287796 -18.29928063 -13.25857728 0 0 Z " fill="#0A0909" transform="translate(173,46)"/>
<path d="M0 0 C1.06340965 0.89863315 2.11822286 1.8075407 3.1640625 2.7265625 C5.88730446 5.33259773 5.88730446 5.33259773 9.75 5.375 C12.88252582 5.20113003 12.88252582 5.20113003 15 4 C15 1.36 15 -1.28 15 -4 C18.0580633 -1.61088804 18.93142525 -0.47145142 19.5 3.4375 C18.91729499 7.58927317 18.02399216 9.13946688 15 12 C10.46755675 14.44379869 6.19284913 14.23408556 1.1875 14.125 C0.00510742 14.11146484 0.00510742 14.11146484 -1.20117188 14.09765625 C-3.13424666 14.07422504 -5.0671638 14.03835838 -7 14 C-7.495 15.485 -7.495 15.485 -8 17 C-10.58587003 15.73412642 -13.16865501 14.46254151 -15.75 13.1875 C-16.47960937 12.83107422 -17.20921875 12.47464844 -17.9609375 12.10742188 C-21.55910218 10.32469483 -24.89632709 8.58911661 -28 6 C-24.51576419 10.66952725 -21.90476496 12.86748881 -16.4375 15.1875 C-5.42282262 20.30264832 2.13497662 28.42226472 9.3125 38 C9.79936279 38.64710937 10.28622559 39.29421875 10.7878418 39.9609375 C12.11328125 41.8125 12.11328125 41.8125 14 45 C13.67 45.99 13.34 46.98 13 48 C12.35675781 47.56429687 11.71351563 47.12859375 11.05078125 46.6796875 C2.84981341 41.27477003 -5.62416376 37.01952699 -14.80859375 33.5390625 C-27.24380411 28.82441687 -38.7306699 22.39799485 -46 10.8125 C-49.85571575 5.39039973 -55.67906264 2.73825777 -62 1 C-61.34 0.67 -60.68 0.34 -60 0 C-59.87625 -1.093125 -59.7525 -2.18625 -59.625 -3.3125 C-59 -7 -59 -7 -57.4375 -9.3125 C-40.5764187 -20.98555628 -14.80477601 -9.89483764 0 0 Z " fill="#F0E8DB" transform="translate(226,17)"/>
<path d="M0 0 C10.03878004 -0.76892783 17.31282324 1.40747721 25 8 C28.80042981 11.47467868 30.77249163 13.90480665 31.3359375 19.09375 C31.34882813 20.2178125 31.36171875 21.341875 31.375 22.5 C31.40335938 23.6240625 31.43171875 24.748125 31.4609375 25.90625 C30.89308591 29.71759285 29.86102071 30.5120754 27 33 C24.7644043 34.36865234 24.7644043 34.36865234 22.32421875 35.5859375 C21.4209082 36.03928467 20.51759766 36.49263184 19.58691406 36.9597168 C18.63010742 37.42676025 17.67330078 37.89380371 16.6875 38.375 C15.70362305 38.85815674 14.71974609 39.34131348 13.70605469 39.83911133 C-11.25906232 51.97323407 -11.25906232 51.97323407 -20 50 C-22.73444242 48.73924274 -24.85784446 47.14215554 -27 45 C-27.82498577 35.59516221 -24.04559368 30.01746248 -18.1875 23 C-16.47384987 20.98573175 -14.73935802 18.99240398 -13 17 C-12.27167969 16.15953125 -11.54335937 15.3190625 -10.79296875 14.453125 C-9.20377836 12.62765987 -7.60728537 10.80952658 -6 9 C-1.86281109 10.79046411 -0.33679861 13.16097371 2 17 C1.62095792 13.70924004 1.62095792 13.70924004 0 11 C-0.07226502 9.14712498 -0.0838122 7.29166122 -0.0625 5.4375 C-0.05347656 4.42558594 -0.04445313 3.41367188 -0.03515625 2.37109375 C-0.02355469 1.58863281 -0.01195313 0.80617187 0 0 Z " fill="#F4ECE0" transform="translate(98,144)"/>
<path d="M0 0 C0.99 0.33 1.98 0.66 3 1 C1.7639481 5.66952939 -0.71868861 7.66529573 -4.31640625 10.58984375 C-7.56726057 13.31271709 -9.2549021 15.82745174 -10 20 C-9.4121875 19.4121875 -9.4121875 19.4121875 -8.8125 18.8125 C-6.54166667 16.54166667 -4.27083333 14.27083333 -2 12 C-1.54625 11.401875 -1.0925 10.80375 -0.625 10.1875 C1 9 1 9 4.4375 9.1875 C5.613125 9.125625 6.78875 9.06375 8 9 C10.35322796 6.09587454 10.35322796 6.09587454 12 3 C12.66 3 13.32 3 14 3 C13.62872963 8.80772939 11.26010373 11.70120604 7.625 15.9375 C2.00858599 22.54117429 -1.62507502 27.93641218 -1 37 C-0.84144531 37.73605469 -0.68289062 38.47210938 -0.51953125 39.23046875 C0.62098548 45.05002848 0.62098548 45.05002848 -1.24609375 47.90625 C-4.19139772 50.68756155 -6.45776969 51.88169521 -10.4375 52.75 C-14.60454557 51.87272725 -16.47335839 50.31404872 -19.6953125 47.65625 C-24.62254396 44.11532434 -30.57460893 42.29055227 -36.21875 40.1640625 C-38.76352358 39.16124918 -40.87209013 38.10392677 -43 36.375 C-44.65323059 32.44857735 -44.18571799 29.03677023 -43 25 C-41.36883847 21.95141535 -39.33465235 19.53654025 -37 17 C-36.49082031 16.36835938 -35.98164062 15.73671875 -35.45703125 15.0859375 C-30.41496059 9.66311551 -24.72720454 8.74446727 -17.7355957 7.42358398 C-11.55572654 6.23719813 -4.61049965 4.61049965 0 0 Z " fill="#F2EADD" transform="translate(70,151)"/>
<path d="M0 0 C0.84143555 -0.01015137 1.68287109 -0.02030273 2.54980469 -0.03076172 C3.34676758 -0.01932129 4.14373047 -0.00788086 4.96484375 0.00390625 C5.68148193 0.01365479 6.39812012 0.02340332 7.13647461 0.03344727 C9.60707122 0.5517433 10.51852201 1.47525572 12.0625 3.4375 C12.5629677 6.7084139 12.27586728 9.98710634 12.13623047 13.28808594 C12.04867006 15.84067471 12.02863875 18.39135649 12.00390625 20.9453125 C11.96273728 22.92191331 11.91975513 24.89847714 11.875 26.875 C11.86678223 28.314198 11.86678223 28.314198 11.85839844 29.7824707 C11.71081895 34.3927078 11.55463544 36.75848839 8.7890625 40.57421875 C6.0011393 42.47943274 4.9228535 43.03588402 1.625 42.8125 C0.83867188 42.76867187 0.05234375 42.72484375 -0.7578125 42.6796875 C-2.42987492 42.49390279 -4.09361916 42.2319677 -5.75 41.9375 C-12.68308979 40.8499565 -20.07680534 40.91290119 -26.9375 42.4375 C-24.9375 39.4375 -24.9375 39.4375 -22.3125 38.75 C-21.136875 38.5953125 -21.136875 38.5953125 -19.9375 38.4375 C-19.9375 37.7775 -19.9375 37.1175 -19.9375 36.4375 C-24.3925 36.9325 -24.3925 36.9325 -28.9375 37.4375 C-28.25017043 34.68818173 -27.58189778 32.90331179 -25.24609375 31.21484375 C-23.50633675 30.23425344 -21.7237389 29.33061945 -19.9375 28.4375 C-23.65349191 28.23663557 -24.70958445 28.2855563 -27.9375 30.4375 C-28.9275 30.4375 -29.9175 30.4375 -30.9375 30.4375 C-31.55923098 17.83017739 -31.55923098 17.83017739 -29.375 12.9375 C-28.570625 12.1125 -27.76625 11.2875 -26.9375 10.4375 C-26.45152344 9.92960937 -25.96554688 9.42171875 -25.46484375 8.8984375 C-17.96525503 1.70025069 -10.1058818 0.08918071 0 0 Z " fill="#F3EBDF" transform="translate(118.9375,97.5625)"/>
<path d="M0 0 C3.20864502 1.56519269 4.24917071 3.61796626 5.9765625 6.66015625 C7.97986923 9.93156601 10.27028198 12.9133748 12.625 15.9375 C13.04869873 16.48374023 13.47239746 17.02998047 13.90893555 17.59277344 C15.86172681 20.0999669 17.83613311 22.57826713 19.87109375 25.01953125 C21.5625 27.25 21.5625 27.25 21.5625 29.25 C18.9225 29.25 16.2825 29.25 13.5625 29.25 C16.5325 30.24 19.5025 31.23 22.5625 32.25 C22.5625 32.91 22.5625 33.57 22.5625 34.25 C16.32776212 37.66023241 10.6045265 40.17811632 3.5625 41.25 C2.84449219 41.36085937 2.12648438 41.47171875 1.38671875 41.5859375 C-0.88819289 41.88494898 -3.14889061 42.08626209 -5.4375 42.25 C-6.38496094 42.32734375 -7.33242188 42.4046875 -8.30859375 42.484375 C-15.67823052 42.83670823 -15.67823052 42.83670823 -19.1875 40.125 C-20.74216084 36.54928007 -20.36065437 35.00292406 -19.4375 31.25 C-18.01953125 28.56640625 -18.01953125 28.56640625 -16.25 25.8125 C-12.64264249 19.90619129 -10.23626343 13.97856742 -7.89453125 7.5 C-6.13944114 3.58516094 -4.50604152 0.4621581 0 0 Z " fill="#F2EBDE" transform="translate(44.4375,116.75)"/>
<path d="M0 0 C8.39446196 2.28939872 13.13886266 10.21127113 17.42578125 17.21484375 C23.88452772 28.64185673 26.36156717 41.01806744 23.55322266 54.07763672 C22.11202958 58.89199387 20.08244028 63.3247948 17.359375 67.5390625 C15.86272257 70.24851949 15.64388133 71.93623233 15.5625 75 C15.19058153 79.55769179 14.61778924 81.92487915 11 85 C4.92243182 88.75816971 -0.9180985 89.98929459 -8 89 C-12.66585583 87.35830998 -15.58918725 85.35800767 -18 81 C-18.80241599 76.02993359 -18.73658793 72.26997919 -16.1875 67.875 C-14 66 -14 66 -11 66 C-11.309375 66.5775 -11.61875 67.155 -11.9375 67.75 C-12.92583364 69.84294184 -13.5168613 71.74535275 -14 74 C-11.63460948 73.87943404 -11.63460948 73.87943404 -9 73 C-7.62926214 71.36395804 -6.29944744 69.69321939 -5 68 C-1.87261125 65.48449166 0.13437712 64.1211872 4.125 63.5625 C7.31556917 64.0480214 8.55850641 64.97945358 11 67 C11.99 67 12.98 67 14 67 C15.40652748 65.44296376 15.40652748 65.44296376 16.5625 63.375 C17.18318359 62.36566406 17.18318359 62.36566406 17.81640625 61.3359375 C22.59206711 51.91070585 22.24453385 41.2574993 19.375 31.25 C15.54922307 20.3344966 9.85139282 9.56759521 0 3 C0 2.01 0 1.02 0 0 Z " fill="#121110" transform="translate(167,50)"/>
<path d="M0 0 C0.33 0 0.66 0 1 0 C1.43795472 4.37954716 1.32894381 6.4816643 -1.0625 10.25 C-6.26702211 15.6122349 -11.11670872 16.20080101 -18.375 16.375 C-24.54750125 16.26466731 -29.32997025 15.38738095 -35 13 C-34.26523438 13.98419922 -34.26523438 13.98419922 -33.515625 14.98828125 C-31.60353516 18.78782059 -31.62949737 22.03979055 -31.75 26.1875 C-31.76458252 26.96762451 -31.77916504 27.74774902 -31.79418945 28.55151367 C-31.83020729 30.19567022 -31.87439948 31.83966563 -31.92626953 33.48339844 C-31.99976148 35.99185856 -32.03055929 38.49848256 -32.05859375 41.0078125 C-32.09896694 42.60944253 -32.14185188 44.21101163 -32.1875 45.8125 C-32.19571777 46.93144653 -32.19571777 46.93144653 -32.20410156 48.07299805 C-32.36895295 52.03169575 -32.85913254 53.82793063 -35.3984375 56.9296875 C-39.91701075 60.5255491 -43.25965481 61.2669928 -49 61 C-44.0604472 67.29711201 -38.64375148 71.60421803 -32 76 C-30.65932809 76.99013969 -29.32341142 77.98690574 -28 79 C-30.475 79.495 -30.475 79.495 -33 80 C-33.01417969 80.79664063 -33.02835938 81.59328125 -33.04296875 82.4140625 C-33.48137656 92.15382529 -33.48137656 92.15382529 -36.1875 95.5625 C-39.00232909 98.00201854 -41.57255491 99.56525554 -45 101 C-44.67 101.99 -44.34 102.98 -44 104 C-36.56481088 107.71759456 -23.30342713 105.49743498 -15.5625 103.1875 C-11.84852841 101.92368437 -9.02835434 100.49857131 -6 98 C-6.33 96.35 -6.66 94.7 -7 93 C-5.35 93 -3.7 93 -2 93 C-2.04125 93.94875 -2.0825 94.8975 -2.125 95.875 C-2.34973818 99.10244856 -2.34973818 99.10244856 0 101 C-0.33 101.66 -0.66 102.32 -1 103 C-3.37109375 103.74609375 -3.37109375 103.74609375 -6.4375 104.4375 C-10.30223864 105.32657133 -13.96654897 106.32742824 -17.6875 107.6875 C-27.9621203 110.80303003 -38.87539209 110.01924476 -48.640625 105.83203125 C-54.21992825 103.8644955 -59.6532568 105.9949713 -65 108 C-62.18210812 104.92571236 -59.58731106 103.06701408 -55.83203125 101.2734375 C-54.85685547 100.7990625 -53.88167969 100.3246875 -52.87695312 99.8359375 C-51.86568359 99.35382813 -50.85441406 98.87171875 -49.8125 98.375 C-47.7955546 97.40910302 -45.78108395 96.43801552 -43.76953125 95.4609375 C-42.87854736 95.03603027 -41.98756348 94.61112305 -41.06958008 94.17333984 C-38.85312477 93.17084468 -38.85312477 93.17084468 -38 91 C-37.5171162 85.26872337 -37.17565754 79.88911814 -39.5 74.5625 C-46.90729687 66.97002071 -54.48059578 63.09577127 -65 62 C-65 61.01 -65 60.02 -65 59 C-65.66 58.34 -66.32 57.68 -67 57 C-66.23333008 57.02094727 -65.46666016 57.04189453 -64.67675781 57.06347656 C-61.2013054 57.14665158 -57.72606237 57.19866575 -54.25 57.25 C-53.0434375 57.28351563 -51.836875 57.31703125 -50.59375 57.3515625 C-49.43359375 57.36445313 -48.2734375 57.37734375 -47.078125 57.390625 C-45.47565918 57.4220459 -45.47565918 57.4220459 -43.84082031 57.45410156 C-40.25757474 56.88132425 -39.12103724 55.90924366 -37 53 C-36.36719364 50.70287131 -36.36719364 50.70287131 -36.390625 48.21875 C-36.35791504 47.29940674 -36.32520508 46.38006348 -36.29150391 45.43286133 C-36.27780762 44.46501709 -36.26411133 43.49717285 -36.25 42.5 C-36.22470215 41.51346436 -36.1994043 40.52692871 -36.17333984 39.51049805 C-36.12609293 37.55714369 -36.08665915 35.60358216 -36.05566406 33.64990234 C-36.00887359 31.42242954 -35.91249043 29.21137536 -35.7734375 26.98828125 C-35.72445312 25.94027344 -35.67546875 24.89226562 -35.625 23.8125 C-35.57601562 22.93207031 -35.52703125 22.05164063 -35.4765625 21.14453125 C-35.82408484 18.79990354 -35.82408484 18.79990354 -38.06640625 17.2734375 C-41.51248015 15.77753858 -44.58649962 15.26519163 -48.3125 14.8125 C-50.19388672 14.57466797 -50.19388672 14.57466797 -52.11328125 14.33203125 C-53.06589844 14.22246094 -54.01851562 14.11289063 -55 14 C-55 13.67 -55 13.34 -55 13 C-49.39 13 -43.78 13 -38 13 C-38.33 12.01 -38.66 11.02 -39 10 C-37.24970238 10.31082872 -35.49977306 10.62373179 -33.75 10.9375 C-32.77546875 11.11152344 -31.8009375 11.28554687 -30.796875 11.46484375 C-28 12 -28 12 -26.0625 12.5625 C-23.11015534 13.18875493 -20.26289703 13.09262897 -17.25 13.0625 C-16.07953125 13.05347656 -14.9090625 13.04445313 -13.703125 13.03515625 C-12.81109375 13.02355469 -11.9190625 13.01195313 -11 13 C-11.66 11.68 -12.32 10.36 -13 9 C-12 8 -12 8 -8.125 7.6875 C-4.71041768 7.31700396 -4.71041768 7.31700396 -2.0625 5.125 C-0.88951457 2.90424596 -0.88951457 2.90424596 0 0 Z " fill="#090908" transform="translate(166,82)"/>
<path d="M0 0 C4.84398754 2.22016095 7.62273702 4.50507845 10.875 8.75 C20.1983667 20.89538191 31.31525804 26.24155249 45.33764648 31.67358398 C53.33044952 34.82687801 61.23517002 38.65594576 68 44 C63.37942737 30.43962379 50.58102369 19.06870862 38.1875 12.8125 C37.55303955 12.51561279 36.9185791 12.21872559 36.26489258 11.9128418 C31.52865907 9.62204492 29.07207629 7.13706273 26 3 C26.33 2.34 26.66 1.68 27 1 C28.2375 2.2375 28.2375 2.2375 29.5 3.5 C32.61094145 6.21420196 35.80346308 7.92250385 39.55688477 9.62231445 C53.20245654 15.82572573 62.95487672 25.74185461 70 39 C70.54269531 40.01707031 71.08539063 41.03414062 71.64453125 42.08203125 C78.08713259 55.04561108 82.36001561 72.23122247 77.9375 86.625 C74.87505437 91.95958271 70.66185563 95.57034933 65 98 C58.96927408 98.70358469 55.73460584 97.7569966 50.6640625 94.484375 C48.74268739 92.77047232 47.88920253 91.41093057 47 89 C47.44444444 82.55555556 47.44444444 82.55555556 50 80 C52.625 80.375 52.625 80.375 55 81 C54.319375 81.556875 53.63875 82.11375 52.9375 82.6875 C50.74489119 84.81682712 50.74489119 84.81682712 50.9375 87.5 C52.3915304 90.92124801 53.77147619 92.14531611 57 94 C61.79127195 94.60841549 63.93661695 94.53169152 68.25 92.375 C72.39531248 88.7949574 74.7629111 85.7847007 75.49609375 80.265625 C75.50221774 78.92695485 75.48183159 77.58794991 75.4375 76.25 C75.42356201 75.54552734 75.40962402 74.84105469 75.39526367 74.11523438 C75.02179354 63.49749077 71.61612489 55.38547904 64.75 47.375 C56.96437132 40.65104796 48.58856835 36.99615266 39.09423828 33.24755859 C24.78289957 27.52512308 14.29675953 20.64616943 5 8 C4.0094068 6.8253357 3.01085498 5.65727409 2 4.5 C0 2 0 2 0 0 Z " fill="#0B0B0A" transform="translate(171,20)"/>
<path d="M0 0 C6.44057376 -0.41552089 10.7674694 0.34987576 16.640625 3.02734375 C19.08610395 4.03549649 21.39729302 4.56160077 24 5 C23.67 6.98 23.34 8.96 23 11 C24.98 12.32 26.96 13.64 29 15 C28.77727547 18.11814342 28.01871829 18.98374465 25.625 21.0625 C17.95072871 25.60955067 9.79379957 26.28566032 1.0625 26.375 C0.23339111 26.38885742 -0.59571777 26.40271484 -1.44995117 26.41699219 C-7.37502282 26.37099102 -7.37502282 26.37099102 -10.56640625 24.4765625 C-11.03949219 23.98929688 -11.51257813 23.50203125 -12 23 C-10.8271573 19.48147191 -10.16913123 19.25274673 -7.0625 17.5 C-4.03307774 15.78461026 -3.00510078 15.00765117 -1 12 C-0.54084493 9.03157342 -0.54084493 9.03157342 -0.375 5.8125 C-0.30023438 4.72582031 -0.22546875 3.63914063 -0.1484375 2.51953125 C-0.09945312 1.68808594 -0.05046875 0.85664063 0 0 Z " fill="#F1E9DD" transform="translate(132,162)"/>
<path d="M0 0 C0.66 0 1.32 0 2 0 C2.474375 0.804375 2.94875 1.60875 3.4375 2.4375 C4.79983672 5.2918076 4.79983672 5.2918076 8 6 C9.78967404 6.09419337 11.58285563 6.12990998 13.375 6.125 C14.31085938 6.12757813 15.24671875 6.13015625 16.2109375 6.1328125 C18.90729747 6.00441441 21.37271509 5.60188709 24 5 C25.23498212 8.70494636 24.65383111 9.50063222 23 12.9375 C20.39958791 17.95571097 18.05330146 19.66770702 13 22 C11.71553081 24.56893838 11.67022856 26.76576337 11.4375 29.625 C11.293125 31.39875 11.14875 33.1725 11 35 C6.71 34.34 2.42 33.68 -2 33 C-2 32.67 -2 32.34 -2 32 C-0.02 32 1.96 32 4 32 C3.649375 31.46375 3.29875 30.9275 2.9375 30.375 C1.71075751 27.26725237 2.27143569 25.20568297 3 22 C1.906875 22.04125 0.81375 22.0825 -0.3125 22.125 C-4 22 -4 22 -7 20 C-6.67 18.35 -6.34 16.7 -6 15 C-6.67546875 14.80664062 -7.3509375 14.61328125 -8.046875 14.4140625 C-8.93890625 14.15367187 -9.8309375 13.89328125 -10.75 13.625 C-12.07257813 13.24214844 -12.07257813 13.24214844 -13.421875 12.8515625 C-16 12 -16 12 -18.0625 10.9375 C-21.26015956 9.39024537 -24.48633592 9.35136641 -28 9 C-28 8.67 -28 8.34 -28 8 C-26.02090602 7.97313447 -24.04171029 7.95366625 -22.0625 7.9375 C-20.96035156 7.92589844 -19.85820312 7.91429687 -18.72265625 7.90234375 C-16 8 -16 8 -15 9 C-13.15108054 9.23363881 -11.29511969 9.41303635 -9.4375 9.5625 C-8.42558594 9.64628906 -7.41367188 9.73007813 -6.37109375 9.81640625 C-5.58863281 9.87699219 -4.80617187 9.93757812 -4 10 C-3.566875 8.3603125 -3.566875 8.3603125 -3.125 6.6875 C-2 3 -2 3 0 0 Z " fill="#0A0A09" transform="translate(161,153)"/>
<path d="M0 0 C3.25 0.375 3.25 0.375 5.875 2.1875 C8.5815042 5.81991353 9.78792528 9.18188809 11.21484375 13.4453125 C14.18775883 22.04230347 14.18775883 22.04230347 20.25 28.375 C20.25 29.035 20.25 29.695 20.25 30.375 C12.80872684 32.44852331 5.12410215 32.0243564 -1.75 28.375 C-7.49310651 24.11155849 -11.93015583 20.04415525 -14.75 13.375 C-15.0625 10.125 -15.0625 10.125 -14.75 7.375 C-12.75 5.375 -12.75 5.375 -10.3125 5.0078125 C-7.75 5.375 -7.75 5.375 -6.125 7.0546875 C-5.67125 7.77914062 -5.2175 8.50359375 -4.75 9.25 C-2.44183202 12.63451574 -0.89412484 14.3999118 3.25 15.375 C3.25 14.385 3.25 13.395 3.25 12.375 C2.46625 12.106875 1.6825 11.83875 0.875 11.5625 C-1.75 10.375 -1.75 10.375 -3.75 7.375 C-3.9375 4.25 -3.9375 4.25 -3.75 1.375 C-2.75 0.375 -2.75 0.375 0 0 Z " fill="#EEE7DA" transform="translate(134.75,64.625)"/>
<path d="M0 0 C2.40625 0.74609375 2.40625 0.74609375 5 2 C5.96875 3.84765625 5.96875 3.84765625 6.5 6.0625 C8.97948349 14.61671804 12.25029963 20.40758497 20 25 C33.63999967 29.54666656 50.26459139 24.18531585 62.92578125 18.7421875 C65 18 65 18 68 19 C56.22033743 27.72567598 45.1892969 30.19797427 30.8125 30.3125 C29.61818359 30.34150391 28.42386719 30.37050781 27.19335938 30.40039062 C18.36186852 30.46357686 12.47425177 28.91799029 5.125 24.125 C1.56139518 20.56139518 -0.16423976 16.94502549 -0.29296875 11.9140625 C-0.27329007 10.48407821 -0.23789785 9.05423139 -0.1875 7.625 C-0.17396484 6.88894531 -0.16042969 6.15289062 -0.14648438 5.39453125 C-0.11144869 3.59603257 -0.05765288 1.79791578 0 0 Z " fill="#E7E0D3" transform="translate(21,28)"/>
<path d="M0 0 C1.06340965 0.89863315 2.11822286 1.8075407 3.1640625 2.7265625 C5.88730446 5.33259773 5.88730446 5.33259773 9.75 5.375 C12.88252582 5.20113003 12.88252582 5.20113003 15 4 C15 1.36 15 -1.28 15 -4 C18.0580633 -1.61088804 18.93142525 -0.47145142 19.5 3.4375 C18.91729499 7.58927317 18.02399216 9.13946688 15 12 C8.65028279 15.23196038 0.94077118 15.00366547 -6 14 C-12.71302954 11.78455206 -18.48587 8.48144357 -23 3 C-22.67 2.34 -22.34 1.68 -22 1 C-21.11957031 1.55429687 -20.23914063 2.10859375 -19.33203125 2.6796875 C-18.15898514 3.41166827 -16.9858007 4.14342739 -15.8125 4.875 C-15.23435547 5.23980469 -14.65621094 5.60460937 -14.06054688 5.98046875 C-9.18163746 9.01255935 -5.12967855 11.28950546 0.6875 11.25 C1.45449219 11.25515625 2.22148437 11.2603125 3.01171875 11.265625 C5.23085027 11.17398016 5.23085027 11.17398016 7 9 C6.46632813 8.72027344 5.93265625 8.44054687 5.3828125 8.15234375 C1.04442345 5.81802023 -3.01360596 3.33669566 -7 0.4375 C-16.9387598 -6.63963546 -27.02092148 -9.35685296 -39.125 -9.375 C-39.99253906 -9.39949219 -40.86007813 -9.42398437 -41.75390625 -9.44921875 C-47.35457831 -9.4747926 -50.57543343 -8.75541916 -55 -5 C-57.32277416 -2.3908613 -57.32277416 -2.3908613 -59 0 C-59.48137536 -6.25787966 -59.48137536 -6.25787966 -57.5 -9.3125 C-40.42648828 -20.83712041 -14.96416793 -10.00136793 0 0 Z " fill="#0F0E0D" transform="translate(226,17)"/>
<path d="M0 0 C6.14837595 0.86020856 10.28233599 6.40172412 14 11 C27.07898147 29.59229212 35.77725985 55.69039018 32.50390625 78.44921875 C29.65347198 92.05722419 22.98380203 102.36594899 13 112 C12.34 111.01 11.68 110.02 11 109 C11.7425 108.46375 12.485 107.9275 13.25 107.375 C18.11218489 103.17584032 20.90523046 97.54687524 24 92 C24.53625 91.07058594 25.0725 90.14117187 25.625 89.18359375 C33.96429965 72.52868565 28.18707715 52.86598707 22.765625 36.20703125 C18.35049115 23.97940405 11.37602673 13.05729494 2 4 C1.34 3.34 0.68 2.68 0 2 C0 1.34 0 0.68 0 0 Z " fill="#1B1A18" transform="translate(173,48)"/>
<path d="M0 0 C1.4540625 0.495 1.4540625 0.495 2.9375 1 C3.4909764 3.07553648 3.9375 4.84365964 3.9375 7 C5.2575 7 6.5775 7 7.9375 7 C7.52193583 11.84824868 5.56301755 13.88036862 1.9375 17 C-2.95810815 20.03718857 -8.50097967 19.76378212 -14.0625 19 C-16.70713098 17.59961422 -18.0306617 16.25759811 -20.0625 14 C-19.7325 13.01 -19.4025 12.02 -19.0625 11 C-18.2375 10.608125 -17.4125 10.21625 -16.5625 9.8125 C-13.18033276 8.06102054 -11.30821454 6.38734762 -8.625 3.75 C-3.93569364 -0.60549133 -3.93569364 -0.60549133 0 0 Z " fill="#EEE6DA" transform="translate(172.0625,117)"/>
<path d="M0 0 C4.84398754 2.22016095 7.62273702 4.50507845 10.875 8.75 C20.1972362 20.89390922 31.31594776 26.24724332 45.33984375 31.67358398 C51.8620411 34.24438322 57.92235414 37.50408393 64 41 C64.92554688 41.50144531 65.85109375 42.00289062 66.8046875 42.51953125 C69 44 69 44 70 47 C69.01 47.99 68.02 48.98 67 50 C66.0409375 48.948125 66.0409375 48.948125 65.0625 47.875 C57.65642966 40.55167905 48.62337279 37.0098943 39.09423828 33.24755859 C24.78289957 27.52512308 14.29675953 20.64616943 5 8 C4.0094068 6.8253357 3.01085498 5.65727409 2 4.5 C0 2 0 2 0 0 Z " fill="#1D1C1A" transform="translate(171,20)"/>
<path d="M0 0 C1.06347656 -0.01417969 2.12695312 -0.02835938 3.22265625 -0.04296875 C5.9375 0.1875 5.9375 0.1875 7.9375 2.1875 C7.8046875 4.16796875 7.8046875 4.16796875 6.9375 6.1875 C5.1953125 7.42578125 5.1953125 7.42578125 3.0625 8.5 C-1.43808144 11.10051485 -2.51892671 13.28438484 -4.0625 18.1875 C-4.3925 19.1775 -4.7225 20.1675 -5.0625 21.1875 C-7.5375 20.1975 -7.5375 20.1975 -10.0625 19.1875 C-9.53981534 16.42473823 -8.95380413 13.8614124 -8.0625 11.1875 C-11.0325 10.6925 -11.0325 10.6925 -14.0625 10.1875 C-13.58403935 5.88135411 -12.40323619 3.93869451 -9.0625 1.1875 C-5.83852808 0.11284269 -3.38779214 0.02058197 0 0 Z " fill="#ECE5D8" transform="translate(173.0625,161.8125)"/>
<path d="M0 0 C1.65 0 3.3 0 5 0 C4.95875 0.94875 4.9175 1.8975 4.875 2.875 C4.65026182 6.10244856 4.65026182 6.10244856 7 8 C6.67 8.66 6.34 9.32 6 10 C3.62890625 10.74609375 3.62890625 10.74609375 0.5625 11.4375 C-3.30223864 12.32657133 -6.96654897 13.32742824 -10.6875 14.6875 C-20.9621203 17.80303003 -31.87539209 17.01924476 -41.640625 12.83203125 C-47.21992825 10.8644955 -52.6532568 12.9949713 -58 15 C-54.79027302 11.36284706 -51.17820589 9.28586741 -46.875 7.1875 C-46.24207031 6.86330078 -45.60914062 6.53910156 -44.95703125 6.20507812 C-43.3367588 5.40182204 -41.67045409 4.69288259 -40 4 C-39.34 4.33 -38.68 4.66 -38 5 C-38 5.99 -38 6.98 -38 8 C-37.67 8.99 -37.34 9.98 -37 11 C-29.56481088 14.71759456 -16.30342713 12.49743498 -8.5625 10.1875 C-4.84852841 8.92368437 -2.02835434 7.49857131 1 5 C0.505 2.525 0.505 2.525 0 0 Z " fill="#10100F" transform="translate(159,175)"/>
<path d="M0 0 C4.64035911 0.0502566 7.35711629 1.87445393 10.87109375 4.76953125 C12.85805065 6.88531827 13.4375 8.53944702 13.4375 11.4375 C12.1175 12.4275 10.7975 13.4175 9.4375 14.4375 C2.6875 11.5625 2.6875 11.5625 0.4375 10.4375 C0.4375 12.0875 0.4375 13.7375 0.4375 15.4375 C-0.2225 14.7775 -0.8825 14.1175 -1.5625 13.4375 C-1.78512303 20.1656627 -1.51271536 25.97741163 0.4375 32.4375 C-2.47131318 29.78162709 -3.44576372 27.82003892 -3.78369141 23.81787109 C-3.92363154 20.48289322 -4.06176975 17.14804953 -4.1875 13.8125 C-4.2390625 12.64203125 -4.290625 11.4715625 -4.34375 10.265625 C-4.40949219 8.59886719 -4.40949219 8.59886719 -4.4765625 6.8984375 C-4.5173291 5.87540527 -4.5580957 4.85237305 -4.60009766 3.79833984 C-4.53946097 -0.00917152 -3.93490396 0.48323382 0 0 Z " fill="#050505" transform="translate(20.5625,17.5625)"/>
<path d="M0 0 C0 0.99 0 1.98 0 3 C-4.00382687 1.94636135 -7.11987631 0.34894613 -10.5625 -1.875 C-19.82590017 -7.47421077 -28.72229294 -9.35385697 -39.4375 -9.5 C-40.29005371 -9.51853027 -41.14260742 -9.53706055 -42.02099609 -9.55615234 C-47.49587233 -9.50106876 -50.66742128 -8.63591599 -55 -5 C-57.32277416 -2.3908613 -57.32277416 -2.3908613 -59 0 C-59.48137536 -6.25787966 -59.48137536 -6.25787966 -57.5 -9.3125 C-40.10355775 -21.05509852 -15.35071172 -9.66615128 0 0 Z " fill="#131211" transform="translate(226,17)"/>
<path d="M0 0 C1.86974253 3.18824623 2.21293287 5.58173737 2.3125 9.25 C2.76366326 14.88202133 4.0624342 18.86702151 8 23 C16.30472565 29.06118321 26.77130825 29.2536721 36.64453125 29.65625 C39.68945275 29.96818608 41.44148492 30.40173366 44 32 C14.7925302 32.54993144 14.7925302 32.54993144 4 25 C-0.56638832 20.43361168 -1.20096062 13.20348204 -1.25 7 C-1.17058824 2.34117647 -1.17058824 2.34117647 0 0 Z " fill="#080807" transform="translate(19,29)"/>
<path d="M0 0 C9.24241461 0.86647637 16.1985915 8.4160274 22 15 C24.5064479 18.23173893 26.79931293 21.55396289 29 25 C29.44730469 25.69867188 29.89460938 26.39734375 30.35546875 27.1171875 C31.5 29 31.5 29 33 32 C32 34 32 34 29 36 C28.29037109 34.44152344 28.29037109 34.44152344 27.56640625 32.8515625 C21.45246596 19.79751614 14.04618009 11.05277962 2.30859375 2.71484375 C1.54675781 2.14894531 0.78492188 1.58304688 0 1 C0 0.67 0 0.34 0 0 Z " fill="#E7DFD3" transform="translate(160,43)"/>
<path d="M0 0 C0.99 0 1.98 0 3 0 C3.07476563 0.64066406 3.14953125 1.28132813 3.2265625 1.94140625 C4.19098181 8.28577252 5.7723705 13.00240097 11 17 C17.1203669 20.4357151 22.5251612 20.36289441 29.4375 20.1875 C30.96407227 20.16719727 30.96407227 20.16719727 32.52148438 20.14648438 C35.01488214 20.1113661 37.50715512 20.06218559 40 20 C40.495 20.99 40.495 20.99 41 22 C32.6425695 24.78581017 20.76815734 26.13278172 12.4375 22.5625 C7.0207355 19.12747861 2.90871173 14.1340458 1.12109375 7.96875 C0.63120427 5.31032875 0.24646733 2.69102079 0 0 Z " fill="#100F0E" transform="translate(27,31)"/>
<path d="M0 0 C0.33 0.66 0.66 1.32 1 2 C2.97888961 2.72693904 4.97954558 3.39816251 7 4 C4 6 4 6 0 6 C0.33 7.65 0.66 9.3 1 11 C-0.28913487 11.67154933 -1.58140204 12.33708859 -2.875 13 C-3.59429687 13.37125 -4.31359375 13.7425 -5.0546875 14.125 C-7 15 -7 15 -9 15 C-9 14.01 -9 13.02 -9 12 C-10.32 11.34 -11.64 10.68 -13 10 C-11.54845769 6.37114422 -9.7599362 4.84567327 -6.5 2.75 C-5.30890625 1.96882813 -5.30890625 1.96882813 -4.09375 1.171875 C-2 0 -2 0 0 0 Z " fill="#070706" transform="translate(99,33)"/>
<path d="M0 0 C8.39341947 2.2891144 13.15162644 10.21502764 17.42578125 17.2265625 C20.92459507 23.3907258 23.39594142 28.90231173 24 36 C23.01 36 22.02 36 21 36 C20.74347656 35.14019531 20.48695313 34.28039062 20.22265625 33.39453125 C16.19025532 20.94432365 10.3128466 11.33804619 0 3 C0 2.01 0 1.02 0 0 Z " fill="#100F0E" transform="translate(167,50)"/>
<path d="M0 0 C0.99 0 1.98 0 3 0 C3.67244522 11.64077386 2.9049235 21.38446089 -3.6328125 31.53515625 C-5.15638126 34.28193306 -5.41801012 36.13647622 -5.5625 39.25 C-5.69140625 41.890625 -5.69140625 41.890625 -6 44 C-6.99 44.495 -6.99 44.495 -8 45 C-8 42.69 -8 40.38 -8 38 C-10.97 38.495 -10.97 38.495 -14 39 C-13.34 36.69 -12.68 34.38 -12 32 C-11.278125 32 -10.55625 32 -9.8125 32 C-5.46406782 30.45389078 -3.95160501 27.03331701 -2 23 C0.12387416 17.92751703 0.24391467 13.52189675 0.125 8.125 C0.11597656 7.34125 0.10695312 6.5575 0.09765625 5.75 C0.07428063 3.83319945 0.03841653 1.91655809 0 0 Z " fill="#090808" transform="translate(188,86)"/>
<path d="M0 0 C3.0625 2.5 3.0625 2.5 5 5 C4.67 5.66 4.34 6.32 4 7 C3.195625 6.505 2.39125 6.01 1.5625 5.5 C-3.81557238 3.23554847 -8.19934163 2.9040902 -13.6953125 5.0546875 C-17.30180159 6.83164568 -20.65437416 8.76958277 -24 11 C-25.97265625 11.046875 -25.97265625 11.046875 -28.0625 10.75 C-28.75472656 10.66234375 -29.44695312 10.5746875 -30.16015625 10.484375 C-32 10 -32 10 -34 8 C-33.40574219 7.91363281 -32.81148437 7.82726562 -32.19921875 7.73828125 C-26.10340294 6.70493145 -20.99036756 4.84512226 -15.4453125 2.12109375 C-10.51870162 -0.13759207 -5.37279173 -0.898652 0 0 Z " fill="#131211" transform="translate(95,88)"/>
<path d="M0 0 C0.495 1.485 0.495 1.485 1 3 C-0.29744141 2.566875 -0.29744141 2.566875 -1.62109375 2.125 C-11.80235683 -0.87623211 -21.14032494 -1.33471592 -31.74389648 -1.02734375 C-32.78489502 -1.00027344 -33.82589355 -0.97320313 -34.8984375 -0.9453125 C-35.83349121 -0.90937988 -36.76854492 -0.87344727 -37.73193359 -0.83642578 C-40 -1 -40 -1 -42 -3 C-30.14237681 -6.95254106 -10.80960174 -7.02118991 0 0 Z " fill="#0E0E0D" transform="translate(171,20)"/>
<path d="M0 0 C0.33 0 0.66 0 1 0 C1.51924 17.30799985 -3.44824155 27.99886361 -15 41 C-15.9879597 42.01189705 -16.98233352 43.01798425 -18 44 C-18.66 43.01 -19.32 42.02 -20 41 C-19.2575 40.46375 -18.515 39.9275 -17.75 39.375 C-6.93626241 30.03586299 -1.62508345 13.67980691 0 0 Z " fill="#171615" transform="translate(204,116)"/>
<path d="M0 0 C0.66 0 1.32 0 2 0 C3.87181618 3.74363237 3.31428147 8.19192006 3.375 12.3125 C3.41238281 13.26318359 3.44976562 14.21386719 3.48828125 15.19335938 C3.5767759 22.22868443 3.5767759 22.22868443 0.6953125 26.08203125 C-3.36004784 28.96780216 -6.95556483 30.26099172 -11.9375 29.625 C-12.9584375 29.315625 -12.9584375 29.315625 -14 29 C-14 28.67 -14 28.34 -14 28 C-13.22914062 27.81824219 -12.45828125 27.63648438 -11.6640625 27.44921875 C-10.66117187 27.19785156 -9.65828125 26.94648438 -8.625 26.6875 C-7.12839844 26.32205078 -7.12839844 26.32205078 -5.6015625 25.94921875 C-2.6915014 25.17806142 -2.6915014 25.17806142 -1 22 C-0.6336141 19.58286521 -0.6336141 19.58286521 -0.5859375 16.89453125 C-0.54726562 15.91162109 -0.50859375 14.92871094 -0.46875 13.91601562 C-0.4378125 12.89185547 -0.406875 11.86769531 -0.375 10.8125 C-0.33632812 9.77673828 -0.29765625 8.74097656 -0.2578125 7.67382812 C-0.16351704 5.11606378 -0.07791798 2.55830713 0 0 Z " fill="#11100F" transform="translate(130,113)"/>
<path d="M0 0 C0.495 0.99 0.495 0.99 1 2 C0.03578125 2.04898438 -0.9284375 2.09796875 -1.921875 2.1484375 C-3.18515625 2.22320312 -4.4484375 2.29796875 -5.75 2.375 C-7.62945312 2.47941406 -7.62945312 2.47941406 -9.546875 2.5859375 C-13.85761516 3.10283621 -15.96047235 3.96047235 -19 7 C-19.33 7.33 -19.66 7.66 -20 8 C-22.02910711 7.74672551 -24.04962145 7.42269932 -26.0625 7.0625 C-27.16722656 6.86785156 -28.27195312 6.67320313 -29.41015625 6.47265625 C-30.69212891 6.23869141 -30.69212891 6.23869141 -32 6 C-32 5.34 -32 4.68 -32 4 C-21.08837733 1.00831888 -11.33920764 -0.59419429 0 0 Z " fill="#D9D3C7" transform="translate(131,35)"/>
<path d="M0 0 C5.95955056 5.80674157 5.95955056 5.80674157 6.125 10.6875 C6.08275286 14.53903058 5.63273596 18.20358423 5 22 C1.86101934 18.86101934 2.70443545 15.13464455 2.63671875 10.84765625 C2.26747406 7.86956341 2.26747406 7.86956341 -0.0859375 6.1953125 C-3.51824954 4.78742043 -6.6318129 4.25968628 -10.3125 3.8125 C-11.56675781 3.65394531 -12.82101563 3.49539062 -14.11328125 3.33203125 C-15.06589844 3.22246094 -16.01851563 3.11289063 -17 3 C-17 2.67 -17 2.34 -17 2 C-11.39 2 -5.78 2 0 2 C0 1.34 0 0.68 0 0 Z " fill="#060605" transform="translate(128,93)"/>
<path d="M0 0 C1.16208984 0.01353516 1.16208984 0.01353516 2.34765625 0.02734375 C4.23190843 0.05060612 6.11599832 0.0864636 8 0.125 C7.360625 0.434375 6.72125 0.74375 6.0625 1.0625 C4.06389179 1.9595163 4.06389179 1.9595163 3 3.125 C0.77235418 3.25777359 -1.45739181 3.35593909 -3.6875 3.4375 C-9.49861599 3.82097466 -12.76919893 4.11687267 -17 8.125 C-19.32277416 10.7341387 -19.32277416 10.7341387 -21 13.125 C-21.48137536 6.86712034 -21.48137536 6.86712034 -19.5 3.8125 C-13.63794285 -0.14438857 -6.82849587 -0.15384826 0 0 Z " fill="#262522" transform="translate(188,3.875)"/>
<path d="M0 0 C2.625 0.375 2.625 0.375 5 1 C4.319375 1.556875 3.63875 2.11375 2.9375 2.6875 C0.74489119 4.81682712 0.74489119 4.81682712 0.9375 7.5 C2.3454717 10.8128746 3.97970347 12.07799311 7 14 C9.68507329 14.78946609 9.68507329 14.78946609 12 15 C12 15.66 12 16.32 12 17 C12.99 17.33 13.98 17.66 15 18 C8.98668603 18.53690303 5.72875836 17.75322252 0.6640625 14.484375 C-1.25731261 12.77047232 -2.11079747 11.41093057 -3 9 C-2.55555556 2.55555556 -2.55555556 2.55555556 0 0 Z " fill="#21201E" transform="translate(221,100)"/>
<path d="M0 0 C-6.1610363 4.56373059 -12.47398164 8.21102842 -20 10 C-20.99 9.67 -21.98 9.34 -23 9 C-22.34 9 -21.68 9 -21 9 C-21 8.34 -21 7.68 -21 7 C-23.64 7.33 -26.28 7.66 -29 8 C-25.69595559 5.79730373 -22.60200288 4.99503675 -18.8125 4.0625 C-14.53288301 2.9782415 -10.34579503 1.85644078 -6.25 0.1875 C-3 -1 -3 -1 0 0 Z " fill="#CEC7BC" transform="translate(89,47)"/>
<path d="M0 0 C6.90214389 3.16348262 10.55262398 7.96703774 15 14 C15.85851562 15.1446875 15.85851562 15.1446875 16.734375 16.3125 C17.15203125 16.869375 17.5696875 17.42625 18 18 C16.68 18.33 15.36 18.66 14 19 C13.40832031 18.27554688 12.81664062 17.55109375 12.20703125 16.8046875 C11.02173828 15.35449219 11.02173828 15.35449219 9.8125 13.875 C8.99523437 12.87339844 8.17796875 11.87179688 7.3359375 10.83984375 C5.56066256 8.68160817 3.76278025 6.55292595 1.9375 4.4375 C0 2 0 2 0 0 Z " fill="#282724" transform="translate(171,20)"/>
<path d="M0 0 C0.66 0.33 1.32 0.66 2 1 C0.7814634 4.6556098 -0.04895698 4.94054049 -3.375 6.6875 C-8.979817 9.39271514 -13.88128968 9.52346381 -20 9 C-16.77208445 6.8480563 -15.71599191 6.79913557 -12 7 C-12 6.34 -12 5.68 -12 5 C-10.04578965 4.13644222 -8.08648653 3.28440066 -6.125 2.4375 C-5.03445312 1.96183594 -3.94390625 1.48617187 -2.8203125 0.99609375 C-1.88960937 0.66738281 -0.95890625 0.33867187 0 0 Z " fill="#1D1C1A" transform="translate(100,188)"/>
<path d="M0 0 C0.33 0 0.66 0 1 0 C2.58636638 10.65624372 2.58636638 10.65624372 0.5 15.4375 C-6.63231036 22.74811812 -6.63231036 22.74811812 -11.9375 23.3125 C-12.618125 23.209375 -13.29875 23.10625 -14 23 C-14 22.34 -14 21.68 -14 21 C-13.46890625 20.76925781 -12.9378125 20.53851563 -12.390625 20.30078125 C-7.06461875 17.8418769 -3.69677033 15.39354066 -1 10 C-0.77377919 8.29636178 -0.59111527 6.58671299 -0.4375 4.875 C-0.35371094 3.96492188 -0.26992187 3.05484375 -0.18359375 2.1171875 C-0.12300781 1.41851562 -0.06242188 0.71984375 0 0 Z " fill="#0C0B0B" transform="translate(247,94)"/>
<path d="M0 0 C0.99 0 1.98 0 3 0 C3.07476563 0.64066406 3.14953125 1.28132813 3.2265625 1.94140625 C4.2085141 8.40110749 5.93083973 12.73123346 11 17 C12.31117797 17.70924929 13.64069781 18.38801979 15 19 C14.67 20.32 14.34 21.64 14 23 C7.75081369 19.04580023 3.69555716 14.97328917 1 8 C0.39351568 5.27082056 0.15304444 2.80581475 0 0 Z " fill="#111110" transform="translate(27,31)"/>
<path d="M0 0 C3.25785133 0.83340383 4.58982762 2.10574937 6.6875 4.6875 C3.6875 5.6875 3.6875 5.6875 0.4375 4.875 C-3.77553505 4.66434825 -4.2275142 5.00101638 -7.25 7.625 C-8.28893691 8.62740286 -9.31618079 9.64272758 -10.3125 10.6875 C-10.9725 9.6975 -11.6325 8.7075 -12.3125 7.6875 C-4.57839157 0.95023221 -4.57839157 0.95023221 0 0 Z " fill="#201F1D" transform="translate(171.3125,113.3125)"/>
<path d="M0 0 C0.33 0.66 0.66 1.32 1 2 C-7.58 2.33 -16.16 2.66 -25 3 C-18.538071 -3.461929 -8.50224358 -1.37132961 0 0 Z " fill="#1D1C1A" transform="translate(138,38)"/>
<path d="M0 0 C0.33 1.32 0.66 2.64 1 4 C-5.5 7 -5.5 7 -10 7 C-9.67226629 3.96846314 -9.35865103 2.38426897 -7.25 0.125 C-4.40525065 -1.29737468 -2.98383376 -0.91172698 0 0 Z " fill="#E0D9CD" transform="translate(87,142)"/>
<path d="M0 0 C1.85521991 3.17087387 2.21251853 5.54080728 2.3125 9.1875 C2.7244612 15.08171404 4.75033151 19.14348435 8 24 C6.68 23.34 5.36 22.68 4 22 C4 21.34 4 20.68 4 20 C3.01 19.67 2.02 19.34 1 19 C-1.65664791 13.68670419 -1.40807093 7.8078932 -1 2 C-0.67 1.34 -0.34 0.68 0 0 Z " fill="#10100F" transform="translate(19,29)"/>
<path d="M0 0 C0.33 0 0.66 0 1 0 C3.64481714 9.46743461 3.64481714 9.46743461 2.16015625 12.99609375 C-0.08100382 15.72772046 -2.61956439 17.94361387 -6 19 C-8.75 19.125 -8.75 19.125 -11 19 C-8.14788651 15.98943576 -5.7563292 13.74400999 -2 12 C-0.78306124 9.56612247 -0.68040104 7.58161154 -0.4375 4.875 C-0.35371094 3.96492187 -0.26992187 3.05484375 -0.18359375 2.1171875 C-0.12300781 1.41851562 -0.06242188 0.71984375 0 0 Z " fill="#080807" transform="translate(129,163)"/>
<path d="M0 0 C3.85691628 1.85054064 7.54423295 3.99343074 11.25 6.125 C11.8996875 6.49753906 12.549375 6.87007812 13.21875 7.25390625 C14.81306224 8.16829121 16.4066079 9.08401256 18 10 C17.67 10.66 17.34 11.32 17 12 C12.74585371 11.42658137 9.90132256 9.94573928 6.3125 7.625 C5.35988281 7.01914062 4.40726563 6.41328125 3.42578125 5.7890625 C1 4 1 4 -1 1 C-0.67 0.67 -0.34 0.34 0 0 Z " fill="#181715" transform="translate(188,38)"/>
<path d="M0 0 C0.66 0 1.32 0 2 0 C4.84613188 9.89369653 5.35396698 18.78739713 5 29 C1.61423092 25.61423092 1.94965072 21.27905628 1.90234375 16.6953125 C1.90891042 15.17184408 1.92071689 13.64839012 1.9375 12.125 C1.94201172 11.34125 1.94652344 10.5575 1.95117188 9.75 C1.96285907 7.83329986 1.98079092 5.91663952 2 4 C1.34 3.67 0.68 3.34 0 3 C0 2.01 0 1.02 0 0 Z " fill="#050505" transform="translate(245,73)"/>
<path d="M0 0 C1.98 0 3.96 0 6 0 C6.66 1.98 7.32 3.96 8 6 C9.98 6 11.96 6 14 6 C14.33 6.66 14.66 7.32 15 8 C14.34 8.66 13.68 9.32 13 10 C10.8359375 9.7578125 10.8359375 9.7578125 8.375 9.125 C7.55773437 8.92132813 6.74046875 8.71765625 5.8984375 8.5078125 C5.27195313 8.34023437 4.64546875 8.17265625 4 8 C2.875 4.25 2.875 4.25 4 2 C2.68 1.34 1.36 0.68 0 0 Z " fill="#2D2C29" transform="translate(151,166)"/>
<path d="M0 0 C3.78010855 1.49192754 5.49429699 3.58559193 7.8125 6.875 C8.43769531 7.73867188 9.06289062 8.60234375 9.70703125 9.4921875 C11 12 11 12 10.69921875 14.3203125 C10.46847656 14.87460937 10.23773438 15.42890625 10 16 C8.65407903 14.34348188 7.32481269 12.67344761 6 11 C5.47148437 10.33742188 4.94296875 9.67484375 4.3984375 8.9921875 C3.85445312 8.29351562 3.31046875 7.59484375 2.75 6.875 C2.22921875 6.21242188 1.7084375 5.54984375 1.171875 4.8671875 C0 3 0 3 0 0 Z " fill="#1C1C1A" transform="translate(229,45)"/>
<path d="M0 0 C-0.125 1.8125 -0.125 1.8125 -1 4 C-5.33407408 6.88938272 -8.83985056 7.58416786 -14 7 C-15.9375 5.5 -15.9375 5.5 -17 4 C-14 3 -14 3 -10.5625 3.125 C-5.93821952 2.96274454 -4.38759046 0 0 0 Z " fill="#10100F" transform="translate(70,199)"/>
<path d="M0 0 C0.66 0 1.32 0 2 0 C1.20019402 4.6211012 0.73553599 6.36040349 -2.875 9.5 C-7.97023176 12.05302483 -13.56712083 10.82073052 -19 10 C-19 9.67 -19 9.34 -19 9 C-18.33613281 8.96261719 -17.67226562 8.92523438 -16.98828125 8.88671875 C-11.85776831 8.50473895 -8.28275411 8.07822952 -4 5 C-3.34 5 -2.68 5 -2 5 C-1.34 3.35 -0.68 1.7 0 0 Z " fill="#1D1C1A" transform="translate(179,127)"/>
<path d="M0 0 C2.70771972 -0.41026056 4.46147132 -0.32935767 6.8203125 1.11328125 C8.04574232 2.0233808 9.25625306 2.95399357 10.44921875 3.90625 C11.95611769 5.19211996 11.95611769 5.19211996 14 5 C13.67 6.65 13.34 8.3 13 10 C10 10 10 10 7.625 7.8125 C6.75875 6.884375 5.8925 5.95625 5 5 C4.071875 4.071875 3.14375 3.14375 2.1875 2.1875 C1.465625 1.465625 0.74375 0.74375 0 0 Z " fill="#1A1918" transform="translate(227,59)"/>
<path d="M0 0 C0 0.33 0 0.66 0 1 C-12.375 1.99 -12.375 1.99 -25 3 C-25.33 2.34 -25.66 1.68 -26 1 C-17.08858673 -2.98442997 -9.28144399 -1.60064605 0 0 Z " fill="#2A2826" transform="translate(125,97)"/>
<path d="M0 0 C1.32 0.66 2.64 1.32 4 2 C2.8803014 3.00593243 1.7540588 4.0045849 0.625 5 C-0.31472656 5.8353125 -0.31472656 5.8353125 -1.2734375 6.6875 C-3 8 -3 8 -5 8 C-5.66 9.65 -6.32 11.3 -7 13 C-7.66 13 -8.32 13 -9 13 C-8.58286812 8.1334614 -6.54534674 6.20769467 -3 3 C-2.401875 2.401875 -1.80375 1.80375 -1.1875 1.1875 C-0.795625 0.795625 -0.40375 0.40375 0 0 Z " fill="#32302D" transform="translate(69,158)"/>
<path d="M0 0 C0.66 0.33 1.32 0.66 2 1 C1.96519531 1.92232422 1.96519531 1.92232422 1.9296875 2.86328125 C1.91164063 3.67152344 1.89359375 4.47976562 1.875 5.3125 C1.84019531 6.51326172 1.84019531 6.51326172 1.8046875 7.73828125 C1.84182678 10.28388576 1.84182678 10.28388576 4 13 C3.625 15.1875 3.625 15.1875 3 17 C2.40251953 16.15115234 2.40251953 16.15115234 1.79296875 15.28515625 C1.26316406 14.55167969 0.73335938 13.81820312 0.1875 13.0625 C-0.33457031 12.33160156 -0.85664062 11.60070312 -1.39453125 10.84765625 C-2.95867127 8.73116774 -2.95867127 8.73116774 -6 8 C-6 7.34 -6 6.68 -6 6 C-4.02 6 -2.04 6 0 6 C0 4.02 0 2.04 0 0 Z " fill="#151413" transform="translate(97,145)"/>
<path d="M0 0 C0.33 0 0.66 0 1 0 C2.80424144 5.06905927 2.80424144 5.06905927 3 8 C0.56247785 11.61696836 -1.45751374 12.7868804 -5.5 14.375 C-8.81940932 14.96775166 -10.81024462 14.96659254 -14 14 C-14 13.67 -14 13.34 -14 13 C-13.22914062 12.81824219 -12.45828125 12.63648438 -11.6640625 12.44921875 C-10.66117187 12.19785156 -9.65828125 11.94648438 -8.625 11.6875 C-7.12839844 11.32205078 -7.12839844 11.32205078 -5.6015625 10.94921875 C-2.6915014 10.17806142 -2.6915014 10.17806142 -1 7 C-0.60612212 4.67612053 -0.26513915 2.34206251 0 0 Z " fill="#151513" transform="translate(130,128)"/>
<path d="M0 0 C4.26411282 1.99556715 7.85389297 4.47304844 11 8 C11.9375 11.375 11.9375 11.375 12 14 C11.01 14.495 11.01 14.495 10 15 C8.32742872 12.87941855 6.66184582 10.75395924 5 8.625 C4.28457031 7.72007812 4.28457031 7.72007812 3.5546875 6.796875 C0 2.2265625 0 2.2265625 0 0 Z " fill="#121110" transform="translate(53,127)"/>
<path d="M0 0 C5.75 1.75 5.75 1.75 8 4 C6.35 4.33 4.7 4.66 3 5 C2.67 8.63 2.34 12.26 2 16 C-0.65450267 13.34549733 -0.41639121 11.69774614 -0.6875 8 C-0.77386719 6.9275 -0.86023438 5.855 -0.94921875 4.75 C-1 2 -1 2 0 0 Z " fill="#080707" transform="translate(130,157)"/>
<path d="M0 0 C5.01284859 1.36714052 9.09773479 4.7277214 12 9 C11.6953125 11.2265625 11.6953125 11.2265625 11 13 C10.29875 12.278125 9.5975 11.55625 8.875 10.8125 C6.91684726 8.83190425 4.88108536 7.08922704 2.6875 5.375 C1.800625 4.59125 0.91375 3.8075 0 3 C0 2.01 0 1.02 0 0 Z " fill="#232220" transform="translate(167,50)"/>
<path d="M0 0 C6.06738846 -0.39569925 11.34403994 0.74588795 17 3 C17.66 3.66 18.32 4.32 19 5 C15.85178538 6.04940487 15.0650509 5.98606526 11.98828125 5.22265625 C10.85229492 4.94711914 10.85229492 4.94711914 9.69335938 4.66601562 C8.90767578 4.46685547 8.12199219 4.26769531 7.3125 4.0625 C6.11657227 3.76956055 6.11657227 3.76956055 4.89648438 3.47070312 C2.92919611 2.98771618 0.96434946 2.4948037 -1 2 C-0.67 1.34 -0.34 0.68 0 0 Z " fill="#0C0C0B" transform="translate(192,5)"/>
<path d="M0 0 C0.33 0 0.66 0 1 0 C1.602537 6.02536998 1.602537 6.02536998 -0.11328125 8.80078125 C-1.34621853 10.25599455 -2.66808933 11.63479157 -4 13 C-6.01920337 11.69593116 -8.01924973 10.36176581 -10 9 C-10 8.67 -10 8.34 -10 8 C-8.906875 7.79375 -7.81375 7.5875 -6.6875 7.375 C-2.7714341 6.34336062 -2.7714341 6.34336062 -1.0625 2.875 C-0.711875 1.92625 -0.36125 0.9775 0 0 Z " fill="#2E2D2A" transform="translate(166,82)"/>
<path d="M0 0 C-3.24491633 2.16327755 -5.16719281 2.60889723 -9 3 C-9.56332031 2.85304687 -10.12664063 2.70609375 -10.70703125 2.5546875 C-14.01824538 1.75367829 -17.36064306 1.63291661 -20.75 1.4375 C-21.44738281 1.39431641 -22.14476562 1.35113281 -22.86328125 1.30664062 C-24.57531922 1.20110404 -26.28763561 1.1001009 -28 1 C-28 0.67 -28 0.34 -28 0 C-24.6464024 -0.19875508 -21.29212319 -0.38195217 -17.9375 -0.5625 C-16.99455078 -0.61857422 -16.05160156 -0.67464844 -15.08007812 -0.73242188 C-9.87592806 -1.00441578 -5.12646927 -0.95987982 0 0 Z " fill="#2D2B29" transform="translate(72,58)"/>
<path d="M0 0 C1.31871094 -0.01417969 2.63742188 -0.02835938 3.99609375 -0.04296875 C7.33542352 0.17282584 8.74296064 0.62375767 11.5625 2.1875 C8.27176338 2.41281972 4.98000581 2.61485982 1.6875 2.8125 C0.28177734 2.90917969 0.28177734 2.90917969 -1.15234375 3.0078125 C-2.49619141 3.08515625 -2.49619141 3.08515625 -3.8671875 3.1640625 C-4.69460449 3.21643066 -5.52202148 3.26879883 -6.37451172 3.32275391 C-8.4375 3.1875 -8.4375 3.1875 -10.4375 1.1875 C-6.90252138 0.00917379 -3.67856929 0.00352691 0 0 Z " fill="#000000" transform="translate(118.4375,32.8125)"/>
<path d="M0 0 C3.72433382 1.2125738 7.37802806 2.50859979 11 4 C10.34 5.32 9.68 6.64 9 8 C5.37 6.35 1.74 4.7 -2 3 C-1.34 2.01 -0.68 1.02 0 0 Z " fill="#DFD7CC" transform="translate(209,26)"/>
<path d="M0 0 C0.33 0 0.66 0 1 0 C1 3.3 1 6.6 1 10 C-3.29 9.34 -7.58 8.68 -12 8 C-12 7.67 -12 7.34 -12 7 C-10.02 7 -8.04 7 -6 7 C-6 6.34 -6 5.68 -6 5 C-5.01 5 -4.02 5 -3 5 C-2.67 4.01 -2.34 3.02 -2 2 C-1.67 3.32 -1.34 4.64 -1 6 C-0.67 4.02 -0.34 2.04 0 0 Z " fill="#464440" transform="translate(171,178)"/>
<path d="M0 0 C1.17514114 2.35028228 2.3441341 4.70260711 3.5 7.0625 C4.96835739 10.07779265 4.96835739 10.07779265 7 13 C6.01 13.66 5.02 14.32 4 15 C-0.92466368 8.43946188 -0.92466368 8.43946188 -1.109375 4.91015625 C-0.8125 3 -0.8125 3 0 0 Z " fill="#21201E" transform="translate(148,77)"/>
<path d="M0 0 C1.485 0.99 1.485 0.99 3 2 C3 3.32 3 4.64 3 6 C3.29435951 8.3310091 3.6291709 10.65289866 3.9765625 12.9765625 C3.98429688 13.64429687 3.99203125 14.31203125 4 15 C3.34 15.66 2.68 16.32 2 17 C-0.1663492 10.91708727 -1.5197276 6.3552245 0 0 Z " fill="#151513" transform="translate(244,71)"/>
<path d="M0 0 C1.32 0.33 2.64 0.66 4 1 C3.67 3.64 3.34 6.28 3 9 C0.525 8.01 0.525 8.01 -2 7 C-1.125 2.25 -1.125 2.25 0 0 Z " fill="#E0D9CD" transform="translate(165,174)"/>
<path d="M0 0 C0.66 0 1.32 0 2 0 C1.85691406 0.83789062 1.71382813 1.67578125 1.56640625 2.5390625 C0.97619612 6.1454499 0.44952065 9.75672076 -0.0625 13.375 C-0.23910156 14.62023437 -0.41570312 15.86546875 -0.59765625 17.1484375 C-0.73042969 18.08945313 -0.86320312 19.03046875 -1 20 C-1.33 20 -1.66 20 -2 20 C-2.05407567 17.41638482 -2.093707 14.83390745 -2.125 12.25 C-2.14175781 11.52039063 -2.15851563 10.79078125 -2.17578125 10.0390625 C-2.21072239 6.1955376 -2.17499684 3.25393228 0 0 Z " fill="#141413" transform="translate(88,108)"/>
<path d="M0 0 C2.49118953 3.7367843 2.2065226 5.74451819 2.125 10.1875 C2.10695312 11.45980469 2.08890625 12.73210937 2.0703125 14.04296875 C2.03550781 15.50669922 2.03550781 15.50669922 2 17 C1.01 16.34 0.02 15.68 -1 15 C-1.328125 12.03125 -1.328125 12.03125 -1.25 8.5 C-1.23453125 7.3346875 -1.2190625 6.169375 -1.203125 4.96875 C-1 2 -1 2 0 0 Z " fill="#292825" transform="translate(204,106)"/>
<path d="M0 0 C2.625 0.375 2.625 0.375 5 1 C4.38125 1.556875 3.7625 2.11375 3.125 2.6875 C0.93893621 5.06645178 0.01214301 6.96357096 -1 10 C-1.66 9.67 -2.32 9.34 -3 9 C-2.25 2.25 -2.25 2.25 0 0 Z " fill="#1C1B19" transform="translate(221,100)"/>
<path d="M0 0 C1.75 0.0625 1.75 0.0625 4 1 C5.77493909 3.14801546 7.23200671 5.3120235 8 8 C7.1015625 10.23046875 7.1015625 10.23046875 6 12 C4.99466333 10.37829621 3.99588093 8.75252763 3 7.125 C2.443125 6.22007813 1.88625 5.31515625 1.3125 4.3828125 C0 2 0 2 0 0 Z " fill="#121110" transform="translate(186,63)"/>
<path d="M0 0 C0.33 0.99 0.66 1.98 1 3 C0.0409375 3.7734375 0.0409375 3.7734375 -0.9375 4.5625 C-3.55791681 7.65935623 -3.69389817 10.02067623 -4 14 C-4.66 13.67 -5.32 13.34 -6 13 C-6.48929664 5.78287462 -6.48929664 5.78287462 -4.125 2 C-2 0 -2 0 0 0 Z " fill="#161514" transform="translate(175,171)"/>
<path d="M0 0 C1.97909398 -0.02686553 3.95828971 -0.04633375 5.9375 -0.0625 C7.03964844 -0.07410156 8.14179688 -0.08570313 9.27734375 -0.09765625 C12 0 12 0 13 1 C14.51469448 1.23192865 16.03754562 1.41215238 17.5625 1.5625 C18.38878906 1.64628906 19.21507812 1.73007813 20.06640625 1.81640625 C20.70449219 1.87699219 21.34257812 1.93757812 22 2 C22 2.33 22 2.66 22 3 C14.81126761 5.35492958 14.81126761 5.35492958 11 3.6875 C10.01 3.130625 9.02 2.57375 8 2 C5.32447919 1.46489584 2.72534335 1.23494339 0 1 C0 0.67 0 0.34 0 0 Z " fill="#494743" transform="translate(133,161)"/>
<path d="M0 0 C0.33 0 0.66 0 1 0 C1.19818283 6.70518586 1.30844801 12.65176798 -1 19 C-1.66 18.67 -2.32 18.34 -3 18 C-2 12 -1 6 0 0 Z " fill="#0D0C0C" transform="translate(204,116)"/>
<path d="M0 0 C-2.15002097 1.67223853 -4.28145317 3.16753165 -6.625 4.5625 C-9.07611371 5.91692163 -9.07611371 5.91692163 -11 8 C-11.66 6.68 -12.32 5.36 -13 4 C-8.09626665 0.73084444 -5.94946451 -0.22450809 0 0 Z " fill="#171615" transform="translate(101,125)"/>
<path d="M0 0 C3.21043882 1.38188453 5.04936365 2.92421903 7.25 5.625 C8.03117188 6.57246094 8.03117188 6.57246094 8.828125 7.5390625 C9.40820312 8.26222656 9.40820312 8.26222656 10 9 C9.34 9.66 8.68 10.32 8 11 C6.65772182 9.73861805 5.32641323 8.46555441 4 7.1875 C3.2575 6.47980469 2.515 5.77210937 1.75 5.04296875 C0 3 0 3 0 0 Z " fill="#0B0A0A" transform="translate(220,36)"/>
<path d="M0 0 C0.66 0.99 1.32 1.98 2 3 C1.67 3.33 1.34 3.66 1 4 C1.928125 3.938125 2.85625 3.87625 3.8125 3.8125 C7 4 7 4 8.875 5.5 C9.24625 5.995 9.6175 6.49 10 7 C6.41608962 8.19463679 4.92081925 7.97360642 1.25 6.75 C-2 5 -2 5 -3 2 C-2.01 1.34 -1.02 0.68 0 0 Z " fill="#1F1E1C" transform="translate(101,30)"/>
<path d="M0 0 C0.70640625 0.05220703 1.4128125 0.10441406 2.140625 0.15820312 C3.88579987 0.28791207 5.63045725 0.42454954 7.375 0.5625 C5.375 2.5625 5.375 2.5625 2.40625 2.828125 C1.2409375 2.82296875 0.075625 2.8178125 -1.125 2.8125 C-2.2903125 2.81765625 -3.455625 2.8228125 -4.65625 2.828125 C-7.625 2.5625 -7.625 2.5625 -9.625 0.5625 C-6.5270403 -0.98647985 -3.36283448 -0.26989539 0 0 Z " fill="#F7F0E2" transform="translate(49.625,55.4375)"/>
<path d="M0 0 C0.33 0.99 0.66 1.98 1 3 C1.66 3.33 2.32 3.66 3 4 C3.625 6.0625 3.625 6.0625 4 8 C2.68 8 1.36 8 0 8 C0.33 7.34 0.66 6.68 1 6 C-0.65 6 -2.3 6 -4 6 C-4.33 4.68 -4.66 3.36 -5 2 C-2 0 -2 0 0 0 Z " fill="#0F0F0E" transform="translate(87,41)"/>
<path d="M0 0 C0.86625 0.37125 0.86625 0.37125 1.75 0.75 C1.75 1.41 1.75 2.07 1.75 2.75 C0.27295788 4.00227484 -1.20827399 5.25166522 -2.7421875 6.43359375 C-4.51762944 7.86764091 -4.51762944 7.86764091 -6.25 10.75 C-6.73514851 4.44306931 -6.73514851 4.44306931 -4.5 1.25 C-2.25 -0.25 -2.25 -0.25 0 0 Z " fill="#1A1A18" transform="translate(173.25,6.25)"/>
<path d="M0 0 C0.33 0.66 0.66 1.32 1 2 C1.66 2 2.32 2 3 2 C4.35432675 3.31200404 5.68733482 4.64631404 7 6 C7.66 6.33 8.32 6.66 9 7 C9 7.99 9 8.98 9 10 C5.49849196 9.70820766 4.21713533 9.21713533 1.6875 6.6875 C0 4 0 4 0 0 Z " fill="#1D1C1A" transform="translate(129,70)"/>
<path d="M0 0 C4.85963179 0.60745397 8.7405518 2.72758967 13 5 C11.328125 6.1484375 11.328125 6.1484375 9 7 C6.421875 6.1015625 6.421875 6.1015625 3.75 4.625 C2.85796875 4.14289062 1.9659375 3.66078125 1.046875 3.1640625 C0.37140625 2.77992187 -0.3040625 2.39578125 -1 2 C-0.67 1.34 -0.34 0.68 0 0 Z " fill="#151413" transform="translate(217,53)"/>
<path d="M0 0 C0 0.66 0 1.32 0 2 C-4.95 3.485 -4.95 3.485 -10 5 C-10.66 4.01 -11.32 3.02 -12 2 C-10.75579353 1.4654744 -9.50429064 0.94791389 -8.25 0.4375 C-7.55390625 0.14746094 -6.8578125 -0.14257812 -6.140625 -0.44140625 C-3.69987216 -1.07831803 -2.3596345 -0.80248831 0 0 Z " fill="#1C1B19" transform="translate(131,18)"/>
<path d="M0 0 C0.33 0 0.66 0 1 0 C1.25060425 1.89311883 1.47460633 3.78977039 1.6875 5.6875 C1.81511719 6.74324219 1.94273437 7.79898438 2.07421875 8.88671875 C1.98881298 12.46926591 1.070838 14.13063834 -1 17 C-1.66 16.67 -2.32 16.34 -3 16 C-2.5359375 14.824375 -2.5359375 14.824375 -2.0625 13.625 C-0.73664193 9.10148422 -0.35188915 4.68568186 0 0 Z " fill="#1D1C1B" transform="translate(247,94)"/>
<path d="M0 0 C1.32 0.66 2.64 1.32 4 2 C4 4.64 4 7.28 4 10 C1.13275314 9.42655063 0.1385485 9.1385485 -2 7 C-1.34 4.69 -0.68 2.38 0 0 Z " fill="#080706" transform="translate(127,62)"/>
<path d="M0 0 C0.66 0 1.32 0 2 0 C2.99 1.98 3.98 3.96 5 6 C3.35 5.67 1.7 5.34 0 5 C-0.66 6.65 -1.32 8.3 -2 10 C-2.66 9.34 -3.32 8.68 -4 8 C-2.68 5.36 -1.36 2.72 0 0 Z " fill="#1B1A19" transform="translate(161,153)"/>
<path d="M0 0 C1.32 0.33 2.64 0.66 4 1 C0.00386479 4.71069698 -2.37082652 6.59791618 -8 7 C-8.33 6.34 -8.66 5.68 -9 5 C-3.375 2 -3.375 2 0 2 C0 1.34 0 0.68 0 0 Z " fill="#1A1917" transform="translate(68,149)"/>
<path d="M0 0 C0.33 0 0.66 0 1 0 C1.06058594 0.61488281 1.12117188 1.22976562 1.18359375 1.86328125 C1.26738281 2.67152344 1.35117188 3.47976562 1.4375 4.3125 C1.51871094 5.11300781 1.59992188 5.91351563 1.68359375 6.73828125 C1.95265693 9.16087179 1.95265693 9.16087179 3 12 C2.01 12.33 1.02 12.66 0 13 C-2.09429461 9.59677126 -2.33706208 6.96047946 -2 3 C-1.34 2.01 -0.68 1.02 0 0 Z " fill="#292826" transform="translate(71,119)"/>
<path d="M0 0 C2.5625718 -0.02710123 5.12485365 -0.04688771 7.6875 -0.0625 C8.40873047 -0.07087891 9.12996094 -0.07925781 9.87304688 -0.08789062 C13.71555382 -0.10543632 17.26639526 0.06475779 21 1 C21 1.33 21 1.66 21 2 C13.5810058 3.23649903 7.34514411 2.50382815 0 1 C0 0.67 0 0.34 0 0 Z " fill="#252422" transform="translate(118,32)"/>
<path d="M0 0 C1 3 1 3 0 5.1875 C-2 7 -2 7 -5.6875 7.25 C-6.780625 7.1675 -7.87375 7.085 -9 7 C-8.67 6.01 -8.34 5.02 -8 4 C-6.0625 3.4375 -6.0625 3.4375 -4 3 C-3.34 2.34 -2.68 1.68 -2 1 C-1.34 1.33 -0.68 1.66 0 2 C0 1.34 0 0.68 0 0 Z " fill="#050404" transform="translate(244,21)"/>
<path d="M0 0 C1.95825873 -0.02694851 3.91662226 -0.04637218 5.875 -0.0625 C6.96554688 -0.07410156 8.05609375 -0.08570313 9.1796875 -0.09765625 C12 0 12 0 14 1 C13.67 1.66 13.34 2.32 13 3 C10.06406867 3 7.23443584 2.77500573 4.3125 2.5 C3.31863281 2.4071875 2.32476562 2.314375 1.30078125 2.21875 C0.54152344 2.1465625 -0.21773437 2.074375 -1 2 C-0.67 1.34 -0.34 0.68 0 0 Z " fill="#020201" transform="translate(169,160)"/>
<path d="M0 0 C3.03852705 1.40976705 5.5939595 3.08870228 8.25 5.125 C8.95640625 5.66382813 9.6628125 6.20265625 10.390625 6.7578125 C10.92171875 7.16773438 11.4528125 7.57765625 12 8 C11.34 9.32 10.68 10.64 10 12 C9.46375 11.278125 8.9275 10.55625 8.375 9.8125 C6.52526856 7.62202856 4.95216984 6.06588641 2.75 4.3125 C1.8425 3.549375 0.935 2.78625 0 2 C0 1.34 0 0.68 0 0 Z " fill="#1E1D1B" transform="translate(119,148)"/>
<path d="M0 0 C-1 1.5625 -1 1.5625 -3 3 C-5.74861744 3.06745073 -8.35411443 2.74713966 -11 2 C-11.66 1.34 -12.32 0.68 -13 0 C-4.57142857 -1.28571429 -4.57142857 -1.28571429 0 0 Z " fill="#090808" transform="translate(74,96)"/>
<path d="M0 0 C5.35048061 0.37328935 7.50912907 1.9957657 11 6 C10.34 6.66 9.68 7.32 9 8 C7.68121422 7.23997083 6.3701316 6.46656347 5.0625 5.6875 C4.33160156 5.25824219 3.60070312 4.82898437 2.84765625 4.38671875 C1 3 1 3 0 0 Z " fill="#131312" transform="translate(157,44)"/>
<path d="M0 0 C2.31 0 4.62 0 7 0 C6.360625 0.28875 5.72125 0.5775 5.0625 0.875 C2.84793921 1.82823451 2.84793921 1.82823451 2 4 C3.65 3.67 5.3 3.34 7 3 C7.33 3.66 7.66 4.32 8 5 C4.56484998 5.62457273 1.50935186 6 -2 6 C-2 4 -2 4 0 2 C0 1.34 0 0.68 0 0 Z " fill="#1B1A18" transform="translate(233,24)"/>
<path d="M0 0 C1.11375 0.598125 2.2275 1.19625 3.375 1.8125 C4.00148437 2.14894531 4.62796875 2.48539063 5.2734375 2.83203125 C7 4 7 4 9 7 C8.01 7.66 7.02 8.32 6 9 C4.99406757 7.8803014 3.9954151 6.7540588 3 5.625 C2.443125 4.99851562 1.88625 4.37203125 1.3125 3.7265625 C0 2 0 2 0 0 Z " fill="#2B2A27" transform="translate(171,20)"/>
<path d="M0 0 C1.32 0.33 2.64 0.66 4 1 C1.03 4.96 1.03 4.96 -2 9 C-2.66 8.67 -3.32 8.34 -4 8 C-3.40072174 4.64404172 -2.15377564 2.62198774 0 0 Z " fill="#1F1E1C" transform="translate(32,164)"/>
<path d="M0 0 C0.66 0.33 1.32 0.66 2 1 C2.6328125 3.28515625 2.6328125 3.28515625 3.125 6.0625 C3.29257813 6.98160156 3.46015625 7.90070313 3.6328125 8.84765625 C3.75398437 9.55792969 3.87515625 10.26820312 4 11 C3.01 11 2.02 11 1 11 C-1.42857143 3.57142857 -1.42857143 3.57142857 0 0 Z " fill="#1A1A18" transform="translate(187,75)"/>
<path d="M0 0 C4.12751449 0.60698743 7.3321148 2.03810791 11 4 C10.34 5.32 9.68 6.64 9 8 C7.49712782 6.85793642 5.99776716 5.71125043 4.5 4.5625 C3.6646875 3.92441406 2.829375 3.28632812 1.96875 2.62890625 C1.3190625 2.09136719 0.669375 1.55382813 0 1 C0 0.67 0 0.34 0 0 Z " fill="#D1CBC0" transform="translate(160,43)"/>
<path d="M0 0 C0.99 0 1.98 0 3 0 C3.13277344 0.69867187 3.26554687 1.39734375 3.40234375 2.1171875 C3.57894531 3.02726562 3.75554688 3.93734375 3.9375 4.875 C4.19853516 6.23238281 4.19853516 6.23238281 4.46484375 7.6171875 C4.89963701 9.99956317 4.89963701 9.99956317 6 12 C4.68 11.67 3.36 11.34 2 11 C1.34 7.37 0.68 3.74 0 0 Z " fill="#282724" transform="translate(27,31)"/>
<path d="M0 0 C2.01032007 0.50970881 3.98562129 1.15275918 5.953125 1.80859375 C5.953125 2.13859375 5.953125 2.46859375 5.953125 2.80859375 C5.33824219 2.92976563 4.72335938 3.0509375 4.08984375 3.17578125 C3.28160156 3.34335938 2.47335938 3.5109375 1.640625 3.68359375 C0.84011719 3.84601563 0.03960937 4.0084375 -0.78515625 4.17578125 C-3.29988618 4.75338374 -3.29988618 4.75338374 -6.046875 6.80859375 C-6.046875 3.80859375 -6.046875 3.80859375 -4.546875 1.49609375 C-2.046875 -0.19140625 -2.046875 -0.19140625 0 0 Z " fill="#242321" transform="translate(61.046875,96.19140625)"/>
<path d="M0 0 C0.66 0 1.32 0 2 0 C3.625 2.6875 3.625 2.6875 5 6 C4.1875 8.875 4.1875 8.875 3 11 C0.87953208 7.46588679 0.46800711 4.05606165 0 0 Z " fill="#21201E" transform="translate(193,73)"/>
<path d="M0 0 C5.35048061 0.37328935 7.50912907 1.9957657 11 6 C7.80389448 6 6.58282374 5.45328458 3.8125 4 C3.09707031 3.62875 2.38164062 3.2575 1.64453125 2.875 C1.10183594 2.58625 0.55914062 2.2975 0 2 C0 1.34 0 0.68 0 0 Z " fill="#131211" transform="translate(163,42)"/>
<path d="M0 0 C2.0625 1.625 2.0625 1.625 4 4 C3.75 7.25 3.75 7.25 3 10 C2.01 9.67 1.02 9.34 0 9 C0 6.03 0 3.06 0 0 Z M-2 9 C-1.34 9 -0.68 9 0 9 C-0.33 9.66 -0.66 10.32 -1 11 C-1.33 10.34 -1.66 9.68 -2 9 Z " fill="#1A1918" transform="translate(241,13)"/>
<path d="M0 0 C2.475 0.99 2.475 0.99 5 2 C3 4 3 4 0.3984375 4.1953125 C-0.59929687 4.17210937 -1.59703125 4.14890625 -2.625 4.125 C-4.12933594 4.09792969 -4.12933594 4.09792969 -5.6640625 4.0703125 C-6.43492188 4.04710937 -7.20578125 4.02390625 -8 4 C-4.77208445 1.8480563 -3.71599191 1.79913557 0 2 C0 1.34 0 0.68 0 0 Z " fill="#272523" transform="translate(88,193)"/>
<path d="M0 0 C1.31896465 0.92838287 2.62998689 1.86805732 3.9375 2.8125 C4.66839844 3.33457031 5.39929688 3.85664062 6.15234375 4.39453125 C8 6 8 6 9 9 C2.39484979 7.53218884 2.39484979 7.53218884 0.5625 5.0625 C0 3 0 3 0 0 Z " fill="#1C1B19" transform="translate(124,85)"/>
<path d="M0 0 C1.17949219 0.10183594 2.35898438 0.20367187 3.57421875 0.30859375 C4.47785156 0.39238281 5.38148437 0.47617188 6.3125 0.5625 C6.3125 0.8925 6.3125 1.2225 6.3125 1.5625 C-2.5975 2.5525 -2.5975 2.5525 -11.6875 3.5625 C-8.44192471 -1.30586293 -5.41318624 -0.48236313 0 0 Z " fill="#B7B1A8" transform="translate(103.6875,136.4375)"/>
<path d="M0 0 C2.66666667 1.33333333 5.33333333 2.66666667 8 4 C8 4.66 8 5.32 8 6 C2.25 5.25 2.25 5.25 0 3 C0 2.01 0 1.02 0 0 Z " fill="#100F0E" transform="translate(26,187)"/>
<path d="M0 0 C0.99 0 1.98 0 3 0 C2.40072174 3.35595828 1.15377564 5.37801226 -1 8 C-1.66 7.01 -2.32 6.02 -3 5 C-1.6875 2.5 -1.6875 2.5 0 0 Z " fill="#1F1E1D" transform="translate(25,142)"/>
<path d="M0 0 C1.9375 0.8125 1.9375 0.8125 4 2 C4.33 2.99 4.66 3.98 5 5 C5.66 5.33 6.32 5.66 7 6 C5.02 6.99 5.02 6.99 3 8 C0 3.375 0 3.375 0 0 Z " fill="#11110F" transform="translate(72,131)"/>
<path d="M0 0 C0.33 0 0.66 0 1 0 C0.67 4.29 0.34 8.58 0 13 C-2 11 -2 11 -2.25 7.625 C-2.02515633 4.36476676 -1.7239511 2.69367359 0 0 Z " fill="#040403" transform="translate(133,102)"/>
<path d="M0 0 C2.79908133 2.79908133 2.72362983 5.13081763 3 9 C2.34 9.66 1.68 10.32 1 11 C0.63890458 9.35567294 0.28629924 7.7094792 -0.0625 6.0625 C-0.25972656 5.14597656 -0.45695313 4.22945313 -0.66015625 3.28515625 C-0.77230469 2.53105469 -0.88445312 1.77695313 -1 1 C-0.67 0.67 -0.34 0.34 0 0 Z " fill="#080707" transform="translate(145,70)"/>
<path d="M0 0 C1.35158203 0.15275391 1.35158203 0.15275391 2.73046875 0.30859375 C3.41753906 0.39238281 4.10460937 0.47617187 4.8125 0.5625 C4.8125 0.8925 4.8125 1.2225 4.8125 1.5625 C3.02241533 1.78401549 1.23031838 1.98932213 -0.5625 2.1875 C-1.56023437 2.30351562 -2.55796875 2.41953125 -3.5859375 2.5390625 C-4.44445312 2.54679687 -5.30296875 2.55453125 -6.1875 2.5625 C-6.8475 1.9025 -7.5075 1.2425 -8.1875 0.5625 C-4.98734144 -0.50421952 -3.30205706 -0.38595472 0 0 Z " fill="#070706" transform="translate(137.1875,16.4375)"/>
<path d="M0 0 C-0.33 1.32 -0.66 2.64 -1 4 C-2.98 4.33 -4.96 4.66 -7 5 C-5.64703851 0.94111554 -4.27479763 0 0 0 Z " fill="#1E1D1B" transform="translate(70,199)"/>
<path d="M0 0 C0.99 0 1.98 0 3 0 C1.8141763 3.37503669 0.72426311 5.64722731 -2 8 C-2.66 7.01 -3.32 6.02 -4 5 C-2.1875 2.5 -2.1875 2.5 0 0 Z " fill="#1D1C1A" transform="translate(76,167)"/>
<path d="M0 0 C0.66 0.33 1.32 0.66 2 1 C2.75 4.4375 2.75 4.4375 3 8 C2.34 8.66 1.68 9.32 1 10 C0.63883954 8.5225254 0.28624952 7.04295325 -0.0625 5.5625 C-0.25972656 4.73878906 -0.45695313 3.91507812 -0.66015625 3.06640625 C-0.82837891 2.04353516 -0.82837891 2.04353516 -1 1 C-0.67 0.67 -0.34 0.34 0 0 Z " fill="#131211" transform="translate(197,81)"/>
<path d="M0 0 C2 1 2 1 5 4 C1.7 4.33 -1.6 4.66 -5 5 C-3.35 3.35 -1.7 1.7 0 0 Z " fill="#DED7CB" transform="translate(106,30)"/>
<path d="M0 0 C0.53625 0.226875 1.0725 0.45375 1.625 0.6875 C-0.94589417 2.79930592 -3.00560567 4.35056057 -6.375 4.6875 C-7.035 4.0275 -7.695 3.3675 -8.375 2.6875 C-2.95961538 -0.38942308 -2.95961538 -0.38942308 0 0 Z " fill="#090808" transform="translate(119.375,21.3125)"/>
<path d="M0 0 C0.66 0.33 1.32 0.66 2 1 C2 1.99 2 2.98 2 4 C1.34 4 0.68 4 0 4 C0 4.66 0 5.32 0 6 C-0.66 6 -1.32 6 -2 6 C-2.66 4.68 -3.32 3.36 -4 2 C-2.125 0.9375 -2.125 0.9375 0 0 Z M-6 3 C-5.34 3.33 -4.68 3.66 -4 4 C-5.32 4.33 -6.64 4.66 -8 5 C-7.34 4.34 -6.68 3.68 -6 3 Z " fill="#030304" transform="translate(119,179)"/>
<path d="M0 0 C1.65 0 3.3 0 5 0 C5 2.31 5 4.62 5 7 C4.01 7.33 3.02 7.66 2 8 C1.34 5.36 0.68 2.72 0 0 Z " fill="#060505" transform="translate(159,175)"/>
<path d="M0 0 C1.99609375 0.05078125 1.99609375 0.05078125 4.4375 0.3125 C5.64212891 0.43044922 5.64212891 0.43044922 6.87109375 0.55078125 C9 1 9 1 11 3 C9.37536158 3.05395478 7.75021459 3.09277195 6.125 3.125 C5.22007812 3.14820313 4.31515625 3.17140625 3.3828125 3.1953125 C1 3 1 3 -1 1 C-0.67 0.67 -0.34 0.34 0 0 Z " fill="#010101" transform="translate(158,136)"/>
<path d="M0 0 C0.33 0 0.66 0 1 0 C1 3.96 1 7.92 1 12 C0.34 12 -0.32 12 -1 12 C-2.09898702 8.70303895 -1.87124444 7.59505097 -1.0625 4.3125 C-0.86785156 3.50425781 -0.67320313 2.69601563 -0.47265625 1.86328125 C-0.31667969 1.24839844 -0.16070312 0.63351563 0 0 Z " fill="#B8B3A9" transform="translate(84,116)"/>
<path d="M0 0 C2.1875 0.3125 2.1875 0.3125 4 1 C2.35 2.65 0.7 4.3 -1 6 C-1.66 5.01 -2.32 4.02 -3 3 C-1.75 1.4375 -1.75 1.4375 0 0 Z " fill="#3C3A36" transform="translate(162,118)"/>
<path d="M0 0 C0.33 0 0.66 0 1 0 C1.36923077 6.52307692 1.36923077 6.52307692 -0.5 8.9375 C-0.995 9.288125 -1.49 9.63875 -2 10 C-2.66 9.01 -3.32 8.02 -4 7 C-3.525625 6.401875 -3.05125 5.80375 -2.5625 5.1875 C-0.83534256 2.99617076 -0.83534256 2.99617076 0 0 Z " fill="#181716" transform="translate(166,82)"/>
<path d="M0 0 C1.65 0 3.3 0 5 0 C4.67 1.65 4.34 3.3 4 5 C3.01 5 2.02 5 1 5 C0.67 3.35 0.34 1.7 0 0 Z " fill="#2C2B28" transform="translate(236,64)"/>
<path d="M0 0 C1.65 1.65 3.3 3.3 5 5 C4.01 5.99 3.02 6.98 2 8 C0.4375 5.6875 0.4375 5.6875 -1 3 C-0.67 2.01 -0.34 1.02 0 0 Z " fill="#181716" transform="translate(179,61)"/>
<path d="M0 0 C0.8353125 0.37125 0.8353125 0.37125 1.6875 0.75 C-0.5625 2.8125 -0.5625 2.8125 -3.3125 4.75 C-5.625 4.5 -5.625 4.5 -7.3125 3.75 C-2.88173077 -0.31153846 -2.88173077 -0.31153846 0 0 Z " fill="#21201E" transform="translate(87.3125,49.25)"/>
<path d="M0 0 C5.75 1.75 5.75 1.75 8 4 C6.3125 4.6875 6.3125 4.6875 4 5 C1.25 3.5625 1.25 3.5625 -1 2 C-0.67 1.34 -0.34 0.68 0 0 Z " fill="#121110" transform="translate(198,45)"/>
<path d="M0 0 C3.68754757 0.49831724 5.60490662 1.10067643 8 4 C6 5 6 5 3.4375 4.25 C1 3 1 3 0 0 Z " fill="#201F1D" transform="translate(219,15)"/>
<path d="M0 0 C1.6875 2.5 1.6875 2.5 3 5 C2.01 5.495 2.01 5.495 1 6 C-1.03144641 5.06553465 -3.03533587 4.06775224 -5 3 C-5 2.34 -5 1.68 -5 1 C-3 0 -3 0 0 0 Z " fill="#141312" transform="translate(117,143)"/>
<path d="M0 0 C0.66 0 1.32 0 2 0 C1.34 2.31 0.68 4.62 0 7 C-0.99 7 -1.98 7 -3 7 C-3.33 6.34 -3.66 5.68 -4 5 C-3.34 5 -2.68 5 -2 5 C-1.34 3.35 -0.68 1.7 0 0 Z " fill="#272624" transform="translate(179,127)"/>
<path d="M0 0 C0.33 0 0.66 0 1 0 C1.34833144 4.87664009 0.41685712 7.77050005 -2 12 C-2.66 11.67 -3.32 11.34 -4 11 C-3.71125 10.29875 -3.4225 9.5975 -3.125 8.875 C-1.97866412 5.94547497 -0.97374346 2.99078347 0 0 Z " fill="#191917" transform="translate(187,105)"/>
<path d="M0 0 C0 0.66 0 1.32 0 2 C-3.21451269 3.60725635 -6.43612536 3.05748185 -10 3 C-9.67 2.34 -9.34 1.68 -9 1 C-5.85554549 0.15014743 -3.29227921 0 0 0 Z " fill="#FBF3E5" transform="translate(68,54)"/>
<path d="M0 0 C1.8454602 3.11421408 2.46369062 5.38321316 2 9 C0.48046875 10.65234375 0.48046875 10.65234375 -1 12 C-1.02698189 10.37509046 -1.04638757 8.75005367 -1.0625 7.125 C-1.07410156 6.22007813 -1.08570312 5.31515625 -1.09765625 4.3828125 C-1 2 -1 2 0 0 Z " fill="#21211E" transform="translate(19,29)"/>
<path d="M0 0 C1.134375 0.020625 2.26875 0.04125 3.4375 0.0625 C3.1075 0.7225 2.7775 1.3825 2.4375 2.0625 C0.1234378 2.79325648 -2.21078869 3.46388258 -4.5625 4.0625 C-4.5625 -0.28271095 -4.43767807 0.077854 0 0 Z " fill="#0E0E0D" transform="translate(169.5625,114.9375)"/>
<path d="M0 0 C1.67542976 0.28604898 3.34385343 0.61781233 5 1 C5 2.32 5 3.64 5 5 C4.01 5.33 3.02 5.66 2 6 C1.01 4.35 0.02 2.7 -1 1 C-0.67 0.67 -0.34 0.34 0 0 Z " fill="#131211" transform="translate(154,90)"/>
<path d="M0 0 C0.99 0.33 1.98 0.66 3 1 C3.1875 3.3125 3.1875 3.3125 3 6 C2.01 6.99 1.02 7.98 0 9 C0 6.03 0 3.06 0 0 Z " fill="#20201D" transform="translate(117,70)"/>
<path d="M0 0 C2.875 0.3125 2.875 0.3125 6 1 C6.66 1.99 7.32 2.98 8 4 C7.38125 4.103125 6.7625 4.20625 6.125 4.3125 C3.63473516 4.87525373 3.63473516 4.87525373 2 8 C2 6.35 2 4.7 2 3 C1.34 2.67 0.68 2.34 0 2 C0 1.34 0 0.68 0 0 Z " fill="#232220" transform="translate(128,61)"/>
<path d="M0 0 C1.32 0.33 2.64 0.66 4 1 C3.01 2.32 2.02 3.64 1 5 C-0.32 4.67 -1.64 4.34 -3 4 C-3 3.34 -3 2.68 -3 2 C-2.01 2 -1.02 2 0 2 C0 1.34 0 0.68 0 0 Z " fill="#E5DED2" transform="translate(72,51)"/>
<path d="M0 0 C-1.0625 1.5625 -1.0625 1.5625 -3 3 C-6.6875 2.6875 -6.6875 2.6875 -10 2 C-6.3558226 -0.4294516 -4.28758728 -0.16179575 0 0 Z " fill="#1C1B19" transform="translate(107,41)"/>
<path d="M0 0 C0 0.99 0 1.98 0 3 C-2.64 3 -5.28 3 -8 3 C-8 2.34 -8 1.68 -8 1 C-5.10765685 0.17361624 -3.11257569 0 0 0 Z " fill="#BCB6AC" transform="translate(107,38)"/>
<path d="M0 0 C2.8992226 0.46761655 3.86675182 0.86675182 6 3 C5.01 4.485 5.01 4.485 4 6 C2.35 4.35 0.7 2.7 -1 1 C-0.67 0.67 -0.34 0.34 0 0 Z " fill="#1D1C1A" transform="translate(215,33)"/>
<path d="M0 0 C2.0625 1.75 2.0625 1.75 4 4 C3.75 6.25 3.75 6.25 3 8 C0.9375 5.6875 0.9375 5.6875 -1 3 C-0.67 2.01 -0.34 1.02 0 0 Z " fill="#11100F" transform="translate(179,27)"/>
<path d="M0 0 C0.33 0 0.66 0 1 0 C1.38885039 1.78871178 1.76069196 3.58112874 2.125 5.375 C2.33382812 6.37273437 2.54265625 7.37046875 2.7578125 8.3984375 C2.83773437 9.25695312 2.91765625 10.11546875 3 11 C2.34 11.66 1.68 12.32 1 13 C-1.30143236 9.54785147 -1.13833854 8.76520676 -0.625 4.8125 C-0.51414063 3.91144531 -0.40328125 3.01039063 -0.2890625 2.08203125 C-0.19367188 1.39496094 -0.09828125 0.70789063 0 0 Z " fill="#403F3B" transform="translate(129,163)"/>
<path d="M0 0 C0.66 0.66 1.32 1.32 2 2 C0.625 4.5 0.625 4.5 -1 7 C-1.66 7 -2.32 7 -3 7 C-2.25 2.25 -2.25 2.25 0 0 Z " fill="#131311" transform="translate(63,164)"/>
<path d="M0 0 C1.37562854 1.28965176 2.70766393 2.62689293 4 4 C4 4.66 4 5.32 4 6 C1.36 5.67 -1.28 5.34 -4 5 C-2.68 4.67 -1.36 4.34 0 4 C0 2.68 0 1.36 0 0 Z " fill="#CAC4B9" transform="translate(62,140)"/>
<path d="M0 0 C0.33 0 0.66 0 1 0 C1 1.65 1 3.3 1 5 C-1.31 5.33 -3.62 5.66 -6 6 C-5.67 5.01 -5.34 4.02 -5 3 C-4.34 3 -3.68 3 -3 3 C-2.67 2.34 -2.34 1.68 -2 1 C-2 1.66 -2 2.32 -2 3 C-1.34 3 -0.68 3 0 3 C0 2.01 0 1.02 0 0 Z " fill="#10100E" transform="translate(180,119)"/>
<path d="M0 0 C1.32 0.66 2.64 1.32 4 2 C4 2.99 4 3.98 4 5 C3.01 5 2.02 5 1 5 C0.34 3.68 -0.32 2.36 -1 1 C-0.67 0.67 -0.34 0.34 0 0 Z " fill="#2D2C2A" transform="translate(220,109)"/>
<path d="M0 0 C-4.75 4 -4.75 4 -7 4 C-7.33 3.01 -7.66 2.02 -8 1 C-3.375 -1.125 -3.375 -1.125 0 0 Z " fill="#C2BCB1" transform="translate(89,47)"/>
<path d="M0 0 C0.33 1.32 0.66 2.64 1 4 C0.01 4.33 -0.98 4.66 -2 5 C-4.1875 3.5625 -4.1875 3.5625 -6 2 C-2.25 0 -2.25 0 0 0 Z " fill="#1F1E1C" transform="translate(82,44)"/>
<path d="M0 0 C-2.35968744 2.09749995 -3.54616994 2.96905704 -6.75 3.1875 C-7.86375 3.0946875 -7.86375 3.0946875 -9 3 C-6.07868595 -0.19953443 -4.37453972 -1.45817991 0 0 Z " fill="#151413" transform="translate(127,179)"/>
<path d="M0 0 C2.31 0 4.62 0 7 0 C4.61426621 1.89213369 2.92824652 3.02391783 0 4 C0 2.68 0 1.36 0 0 Z " fill="#100F0E" transform="translate(94,125)"/>
<path d="M0 0 C0.66 0.66 1.32 1.32 2 2 C0.35 3.32 -1.3 4.64 -3 6 C-3.99 5.34 -4.98 4.68 -6 4 C-4.02 2.68 -2.04 1.36 0 0 Z " fill="#171615" transform="translate(159,122)"/>
<path d="M0 0 C0.66 0 1.32 0 2 0 C2.66 1.65 3.32 3.3 4 5 C2.68 5.33 1.36 5.66 0 6 C-0.38218767 4.34385343 -0.71395102 2.67542976 -1 1 C-0.67 0.67 -0.34 0.34 0 0 Z " fill="#D8D1C6" transform="translate(186,66)"/>
<path d="M0 0 C0.66 0 1.32 0 2 0 C2.66 0.99 3.32 1.98 4 3 C6.05003955 4.19232613 6.05003955 4.19232613 8 5 C5.6875 5.6875 5.6875 5.6875 3 6 C1.1875 4.75 1.1875 4.75 0 3 C0 2.01 0 1.02 0 0 Z " fill="#282724" transform="translate(21,49)"/>
<path d="M0 0 C2.31 0 4.62 0 7 0 C7 0.99 7 1.98 7 3 C4.36 2.67 1.72 2.34 -1 2 C-0.67 1.34 -0.34 0.68 0 0 Z " fill="#040404" transform="translate(192,5)"/>
<path d="M0 0 C3.3 0 6.6 0 10 0 C10 0.33 10 0.66 10 1 C8.88625 1.309375 7.7725 1.61875 6.625 1.9375 C3.2054845 2.82326483 3.2054845 2.82326483 1 4 C0.67 2.68 0.34 1.36 0 0 Z " fill="#D8D2C6" transform="translate(98,144)"/>
<path d="M0 0 C0.33 0 0.66 0 1 0 C1.38922918 1.28745036 1.76098036 2.58019597 2.125 3.875 C2.33382812 4.59429687 2.54265625 5.31359375 2.7578125 6.0546875 C2.83773437 6.69664062 2.91765625 7.33859375 3 8 C2.34 8.66 1.68 9.32 1 10 C0.34 9.67 -0.32 9.34 -1 9 C-0.67 6.03 -0.34 3.06 0 0 Z " fill="#353330" transform="translate(130,128)"/>
<path d="M0 0 C1.65 0 3.3 0 5 0 C5 0.66 5 1.32 5 2 C2.04335481 3.4783226 -0.74229737 3.06032783 -4 3 C-2.68 2.67 -1.36 2.34 0 2 C0 1.34 0 0.68 0 0 Z " fill="#111110" transform="translate(94,134)"/>
<path d="M0 0 C2 1.375 2 1.375 4 3 C4 3.66 4 4.32 4 5 C2 6.625 2 6.625 0 8 C0 5.36 0 2.72 0 0 Z " fill="#030303" transform="translate(151,123)"/>
<path d="M0 0 C0.99 0.99 1.98 1.98 3 3 C2.34 4.98 1.68 6.96 1 9 C0.67 9 0.34 9 0 9 C0 6.03 0 3.06 0 0 Z " fill="#272623" transform="translate(131,97)"/>
<path d="M0 0 C2.5625 0.25 2.5625 0.25 5 1 C5.33 1.66 5.66 2.32 6 3 C3.6875 3.625 3.6875 3.625 1 4 C0.01 3.34 -0.98 2.68 -2 2 C-1.34 1.34 -0.68 0.68 0 0 Z " fill="#2B2A27" transform="translate(105,34)"/>
<path d="M0 0 C0 0.66 0 1.32 0 2 C-2.875 2.125 -2.875 2.125 -6 2 C-6.66 1.34 -7.32 0.68 -8 0 C-4.71023192 -1.09658936 -3.28696233 -0.79953138 0 0 Z " fill="#11100F" transform="translate(116,34)"/>
<path d="M0 0 C2.31 1.65 4.62 3.3 7 5 C6.67 5.66 6.34 6.32 6 7 C3.00675737 5.9024777 2.15389099 5.32317108 0.75 2.375 C0.5025 1.59125 0.255 0.8075 0 0 Z " fill="#242321" transform="translate(197,21)"/>
<path d="M0 0 C2.33944736 0.28730055 4.6739143 0.61936779 7 1 C7 1.33 7 1.66 7 2 C5.02 2 3.04 2 1 2 C0.67 3.32 0.34 4.64 0 6 C-0.33 6 -0.66 6 -1 6 C-1.042721 4.33388095 -1.04063832 2.66617115 -1 1 C-0.67 0.67 -0.34 0.34 0 0 Z " fill="#181716" transform="translate(17,18)"/>
</svg>