<svg xmlns="http://www.w3.org/2000/svg"
 viewBox="0 0 13790.497018235374 13790.497018235374"
width="13790.497018235374mm" height="13790.497018235374mm">
<defs><style>.seam{stroke: #000; stroke-width:1px; fill:white} .sewinguide{stroke-width:1px;}</style></defs>
<g><path class="seam" d="M 264.70951098688226,7204.692690975746 73.49739719355655,7562.604786501976 408.3220342012733,7770.865571382717 1110.2035316709782,8053.482456838759 2545.059681656675,8044.90059891198 3838.9291931745233,7479.698474140422 4408.396971095932,6679.524577927269 4552.834066353411,5701.2766159974 4408.396971095932,4723.028654067531 3838.9300151521993,3922.8547578543767 2545.060298139932,3357.653044071657 1110.2039426598162,3349.07077515604 408.32221400888994,3631.6864276455685 73.497564157772,3839.947623515147 264.70994766252267,4197.859719041377 355.6629591101435,4555.452065251624 303.71854223473275,5054.264286095298 257.40379908897,5701.2766159974 303.7186192951399,6348.2889458995005 355.66293342334114,6847.100344765499 264.70951098688226,7204.692690975746 "/><path class="sewinguide" stroke="#ffbb00" d="M -60.17433350112893,7596.511278945998 207.16912788824203,7528.698294057954 "/>
<path class="sewinguide" stroke="#0dff00" d="M -60.17433350112893,7596.511278945998 207.16912788824203,7528.698294057954 "/>
<path class="sewinguide" stroke="#ff0004" d="M -60.17416653691348,3806.0412081315317 207.16929485245748,3873.8540388987617 "/>
<path class="sewinguide" stroke="#ff6200" d="M -60.17416653691348,3806.0412081315317 207.16929485245748,3873.8540388987617 "/>
</g>
<g><path class="seam" d="M 12353.254256067272,13716.706894241934 12650.150948700459,13701.729850922784 12868.501920543526,13682.74405458605 13076.90942843944,13668.702376910336 13335.436203154706,13658.352830304413 13320.98419165443,13205.655432223606 13339.097291723823,12782.170118964252 13393.965123577704,12375.784869662166 13482.52828630582,11974.22945843733 13573.391342571518,11657.104922668697 13324.500612152564,11569.492993606187 13126.953073312596,11377.917739065964 13142.173633939976,10832.188059945565 13181.981190813305,10409.770649808212 13264.50446157782,10171.840991699357 13415.404767302065,9983.943059787352 13238.789711960335,9823.140388999758 13127.591749966885,9671.947048234002 13071.051193542246,9532.01562360778 13033.103772149814,9359.128237026927 12740.885776448693,9425.029064237562 12484.368737151364,9500.990898203025 12119.133642509223,9611.046722215606 11632.818770252183,9660.746780420173 11146.503076017465,9611.046722215606 10781.267981375324,9500.991309191862 10524.751764055673,9425.028653248724 10232.534590332227,9359.128237026927 10194.587168939794,9532.015212618942 10138.046612515156,9671.946226256327 10026.847006566355,9823.13997801092 9850.231951224625,9983.942237809677 10001.133078926545,10171.84016972168 10083.65634969106,10409.770033324954 10123.464728542065,10832.18723796789 10138.651588084727,11377.93520609158 9941.136928351802,11569.49258261735 9692.24537595517,11657.104717174278 9783.108432220868,11974.228430965235 9871.671594948984,12375.784355926118 9926.539426802865,12782.170221711462 9944.651704894583,13205.654918487558 9930.199693394306,13658.352817461013 10188.726468109573,13668.702877802983 10397.133976005487,13682.743039957355 10615.484947848554,13701.730852708077 10912.38164048174,13716.707401556281 11260.582069765464,13717.359949083853 11632.817948274507,13712.55146316108 12005.053826783549,13717.359949083853 12353.254256067272,13716.706894241934 "/><path class="sewinguide" stroke="#f7ff00" d="M 13457.431073104268,13722.65681175851 13213.441333205144,13594.048386487873 "/>
<path class="sewinguide" stroke="#0009ff" d="M 13701.85174764346,11606.948092111721 13444.930937499577,11707.261753225674 "/>
<path class="sewinguide" stroke="#ff00d2" d="M 13701.85174764346,11606.948092111721 13444.930937499577,11707.261753225674 "/>
<path class="sewinguide" stroke="#ff005e" d="M 13279.856384512554,10840.013546697703 13004.490883367398,10824.362162204588 "/>
<path class="sewinguide" stroke="#ff6f00" d="M 13279.856384512554,10840.013546697703 13004.490883367398,10824.362162204588 "/>
<path class="sewinguide" stroke="#00ff59" d="M 13552.93627398225,9973.800867485477 13277.873260621878,9994.08525208923 "/>
<path class="sewinguide" stroke="#00ffbf" d="M 13552.93627398225,9973.800867485477 13277.873260621878,9994.08525208923 "/>
<path class="sewinguide" stroke="#ffbb00" d="M 13075.614315917868,9227.938930287512 12990.59322838176,9490.317543766343 "/>
<path class="sewinguide" stroke="#dbff00" d="M 13075.614315917868,9227.938930287512 12990.59322838176,9490.317543766343 "/>
<path class="sewinguide" stroke="#ff006b" d="M 10190.024001612268,9227.938955974314 10275.045179052186,9490.31751807954 "/>
<path class="sewinguide" stroke="#ff0004" d="M 10190.024001612268,9227.938955974314 10275.045179052186,9490.31751807954 "/>
<path class="sewinguide" stroke="#ceff00" d="M 9712.700444544438,9973.800034269825 9987.76345790481,9994.084441349529 "/>
<path class="sewinguide" stroke="#67ff00" d="M 9712.700444544438,9973.800034269825 9987.76345790481,9994.084441349529 "/>
<path class="sewinguide" stroke="#1100ff" d="M 9985.781977969487,10840.012612340268 10261.147479114643,10824.361452606672 "/>
<path class="sewinguide" stroke="#7800ff" d="M 9985.781977969487,10840.012612340268 10261.147479114643,10824.361452606672 "/>
<path class="sewinguide" stroke="#00c9ff" d="M 9563.78509931724,11606.947799924343 9820.7056525931,11707.26204541305 "/>
<path class="sewinguide" stroke="#0062ff" d="M 9563.78509931724,11606.947799924343 9820.7056525931,11707.26204541305 "/>
<path class="sewinguide" stroke="#ff00bf" d="M 9808.204759227738,13722.6567025896 10052.194627560873,13594.048495656783 "/>
</g>
<g><path class="seam" d="M 10763.568336076982,8508.125707259995 11132.829477376406,8506.352701412758 11518.408519500737,8502.355834962975 11903.988383602742,8506.352701412758 12273.249524902167,8508.12447429348 12653.895057014857,8502.397344835616 13022.284901977671,8494.166882365347 13332.929993220436,8488.023832203402 13620.659168832659,8481.511303076073 13608.750356262075,8003.727737118736 13614.617632913707,7561.000697067168 13638.518277800154,7134.69471603885 13676.669549656246,6710.804116411599 13717.142908447173,6371.204861530043 13439.140194675627,6322.77064894659 13142.162126252511,6152.95499294113 13090.600288611697,5591.953585083015 13118.448070298526,5138.864694447187 13214.390948602202,4875.398655876548 13372.25833710863,4672.304411678608 13181.93022819739,4506.536173750007 13057.688302462733,4353.752717169937 12990.007482594618,4213.416468538261 12937.407487148954,4038.0245159784904 12642.276402563919,4130.515088042764 12387.985278813328,4241.173832680726 12017.162379929412,4396.290883883097 11518.408519500737,4479.381319244086 11019.653837094385,4396.290883883097 10648.832582165822,4241.174654658403 10394.540636437556,4130.514266065088 10099.408729874844,4038.0228720231385 10046.80873442918,4213.416468538261 9979.127092583387,4353.752717169937 9854.886810804084,4506.536173750007 9664.556235959817,4672.306055633961 9822.425268421597,4875.398655876548 9918.368146725272,5138.865516424863 9946.216750389778,5591.953585083015 9894.651624838258,6152.9566368964815 9597.676844325848,6322.7698269689145 9319.672486598947,6371.204039552367 9360.147489345227,6710.804938389276 9398.29876120132,7134.695538016526 9422.201050043119,7561.001108056006 9428.066682739398,8003.728559096411 9416.157870168814,8481.510481098398 9703.887867758714,8488.023421214564 10014.532959001479,8494.167293354185 10382.922803964293,8502.397344835616 10763.568336076982,8508.125707259995 "/><path class="sewinguide" stroke="#ff00bf" d="M 13740.492173277209,8549.759191215155 13500.826164388109,8413.262592959318 "/>
<path class="sewinguide" stroke="#00ffcd" d="M 13834.761029826606,6299.206546123179 13599.524787067741,6443.203176936907 "/>
<path class="sewinguide" stroke="#00c9ff" d="M 13834.761029826606,6299.206546123179 13599.524787067741,6443.203176936907 "/>
<path class="sewinguide" stroke="#00ff74" d="M 13228.467573172547,5588.72961946588 12952.733004050844,5595.17755070015 "/>
<path class="sewinguide" stroke="#00bbff" d="M 13228.467573172547,5588.72961946588 12952.733004050844,5595.17755070015 "/>
<path class="sewinguide" stroke="#67ff00" d="M 13509.632358003444,4660.21488442618 13234.884316213813,4684.393938931036 "/>
<path class="sewinguide" stroke="#00ff00" d="M 13509.632358003444,4660.21488442618 13234.884316213813,4684.393938931036 "/>
<path class="sewinguide" stroke="#ff006b" d="M 12969.388933562474,3903.8791977083893 12905.426040735434,4172.1698342485915 "/>
<path class="sewinguide" stroke="#ffc900" d="M 12969.388933562474,3903.8791977083893 12905.426040735434,4172.1698342485915 "/>
<path class="sewinguide" stroke="#dbff00" d="M 10067.427354100031,3903.877528066235 10131.390105649658,4172.168215980042 "/>
<path class="sewinguide" stroke="#74ff00" d="M 10067.427354100031,3903.877528066235 10131.390105649658,4172.168215980042 "/>
<path class="sewinguide" stroke="#00ff59" d="M 9527.182215065002,4660.216528381532 9801.930256854632,4684.395582886388 "/>
<path class="sewinguide" stroke="#0070ff" d="M 9527.182215065002,4660.216528381532 9801.930256854632,4684.395582886388 "/>
<path class="sewinguide" stroke="#d200ff" d="M 9808.349465828927,5588.729731243606 10084.084034950629,5595.177438922425 "/>
<path class="sewinguide" stroke="#ff00c4" d="M 9808.349465828927,5588.729731243606 10084.084034950629,5595.177438922425 "/>
<path class="sewinguide" stroke="#0009ff" d="M 9202.054223942103,6299.205942483323 9437.290749255793,6443.20213662141 "/>
<path class="sewinguide" stroke="#5d00ff" d="M 9202.054223942103,6299.205942483323 9437.290749255793,6443.20213662141 "/>
<path class="sewinguide" stroke="#f7ff00" d="M 9296.32503268848,8549.75947376998 9535.990707649149,8413.26231040449 "/>
</g>
<g><path class="seam" d="M 1678.1264025502546,8299.262001753872 1247.6229925191976,8482.519047706908 1352.58902801448,8759.982955111805 1421.6461467539293,9194.361578896593 1474.6523019187705,9877.30501895178 1513.1113016673328,10555.029928236158 1527.048549647984,10984.080287230381 1523.721286762551,11311.160822105725 1510.4797401374651,11710.257492607083 1462.8025689936528,12064.106757975027 1361.449639120649,12251.572946112687 1275.2490457279139,12404.487919120924 1247.5398700267071,12594.021894849891 1304.2318758381568,12776.861581637915 1414.412332215869,12912.492008074216 1549.7188994478067,13066.885770295268 1671.436737233738,13335.178615900475 1800.1346039502498,13560.43296725583 1923.9881452329728,13664.071611551506 2079.573107227434,13717.113882360489 2136.901734748983,13522.112419372079 2154.470685596833,13234.899599861228 2126.800656582448,12875.450508827997 2106.7308386552218,12538.528126995701 2096.932248273473,12182.014729232476 2116.2998917709347,11754.466123452392 2149.4960767013904,11350.394844055592 2178.9089038834163,11021.72028897197 2212.502515020241,10558.622587163743 2252.2868510242215,9799.593194514011 2275.105567794571,9024.1694571155 2266.1114880632535,8521.24447096972 2247.532737640379,8200.210403879384 1965.2830707111104,8223.93843345386 1678.1264025502546,8299.262001753872 "/><path class="sewinguide" stroke="#00ffdb" d="M 1134.9962278303572,8402.938546926453 1360.2497572080379,8562.098726509688 "/>
<path class="sewinguide" stroke="#00bbff" d="M 1134.9962278303572,8402.938546926453 1360.2497572080379,8562.098726509688 "/>
<path class="sewinguide" stroke="#ff0050" d="M 2156.0752823459875,13831.853823220436 2003.0709321088805,13602.374455236588 "/>
<path class="sewinguide" stroke="#ff1600" d="M 2156.0752823459875,13831.853823220436 2003.0709321088805,13602.374455236588 "/>
<path class="sewinguide" stroke="#00ff00" d="M 2344.4702795707785,8102.124244472216 2150.595195709979,8298.296563286553 "/>
<path class="sewinguide" stroke="#00ff66" d="M 2344.4702795707785,8102.124244472216 2150.595195709979,8298.296563286553 "/>
</g>
<g><path class="seam" d="M 3128.210921951255,13703.46708789771 3407.071780416596,13717.147050444057 3414.294703750449,13397.261279745459 3403.1527963516182,12896.674486159603 3345.9112984637304,12125.880640768644 3271.952624094797,11372.077382183224 3217.1166438758637,10912.500005267093 3171.2733049273147,10586.636202846717 3112.7382196717463,10187.91558713215 3053.6756302425742,9765.564962680975 3007.7418737496596,9402.933482327717 2964.6381863953784,9058.87047767638 2901.9013567542715,8700.520268048818 2801.6059011615034,8429.428742577482 2687.8912490184134,8259.891737004202 2554.822721503935,8357.615018954197 2468.003384415555,8495.0916072509 2421.770428048559,8758.325437128056 2437.747413632323,9117.03731693308 2470.298962570338,9461.927642115357 2501.946130570281,9825.961827372794 2530.570681160977,10251.682560295765 2553.7991538028364,10654.863432374987 2570.748538977365,10979.78339892884 2576.016799397576,11407.352143161987 2568.362337783798,12083.745551358375 2546.8316600318158,12766.095215289828 2500.8633804765072,13201.476857333811 2421.833103846358,13478.413029383884 2853.5456430388817,13638.70932339283 3128.210921951255,13703.46708789771 "/><path class="sewinguide" stroke="#ceff00" d="M 3507.840046559008,13811.29338736782 3306.303514274184,13623.000649303289 "/>
<path class="sewinguide" stroke="#00ff66" d="M 3507.840046559008,13811.29338736782 3306.303514274184,13623.000649303289 "/>
<path class="sewinguide" stroke="#ff00b7" d="M 2726.423186442324,8127.479250422419 2649.3593115945027,8392.304223585983 "/>
<path class="sewinguide" stroke="#ff0050" d="M 2726.423186442324,8127.479250422419 2649.3593115945027,8392.304223585983 "/>
<path class="sewinguide" stroke="#0054ff" d="M 2314.4951104894258,13564.994031476414 2529.1710972032897,13391.831256687283 "/>
<path class="sewinguide" stroke="#7800ff" d="M 2314.4951104894258,13564.994031476414 2529.1710972032897,13391.831256687283 "/>
</g>
<g><path class="seam" d="M 9023.707916650399,8722.886691602922 8457.27077042058,8704.531108119094 8457.280634152692,8976.02170375215 8505.644156656004,9389.130422202681 8572.67232624934,10047.705512073748 8634.205575078293,10705.559727522923 8677.347073405672,11121.371725055555 8722.014984277474,11436.338569424563 8778.297439711832,11828.501447239618 8832.39836639396,12243.981263043916 8871.603413630744,12600.722245876197 8906.249772676169,12939.21044380776 8959.508994218022,13287.84544241409 9054.425222404314,13532.595049301113 9164.377066240875,13648.422286818857 9311.275984638118,13717.10243246833 9388.3816005398,13532.008902157684 9433.125133357797,13251.647960120357 9424.984266454218,12894.411787111863 9400.666878886013,12554.692215247975 9375.537377373874,12196.533115430093 9351.781400558411,11778.257650802345 9333.21867870022,11382.434300901428 9323.068898356378,11068.773784554081 9323.352480654616,10682.245769202755 9345.443952676082,10094.627696722111 9390.077340485488,9509.482749574277 9457.326622073679,9155.936177485537 9545.473864097714,8932.683341771359 9283.566295200862,8832.746884928603 9023.707916650399,8722.886691602922 "/><path class="sewinguide" stroke="#0054ff" d="M 8401.004536201923,8578.627233427278 8513.537004639238,8830.435804788587 "/>
<path class="sewinguide" stroke="#1100ff" d="M 8401.004536201923,8578.627233427278 8513.537004639238,8830.435804788587 "/>
<path class="sewinguide" stroke="#df00ff" d="M 9374.869154475151,13839.46965188344 9247.682814801083,13594.735611198656 "/>
<path class="sewinguide" stroke="#ff00b7" d="M 9374.869154475151,13839.46965188344 9247.682814801083,13594.735611198656 "/>
<path class="sewinguide" stroke="#0062ff" d="M 9666.93687596067,8867.379636390468 9424.01085223476,8997.986225174573 "/>
<path class="sewinguide" stroke="#0400ff" d="M 9666.93687596067,8867.379636390468 9424.01085223476,8997.986225174573 "/>
</g>
<g><path class="seam" d="M 4700.165345008255,13717.17012361429 5264.988127082316,13710.213675168292 5564.153889090234,13539.139995173042 5814.50239691766,13416.936676822193 5716.7433589387565,13207.261936217838 5628.404185127364,12855.898023100634 5550.956626512445,12270.554979332872 5496.5080032733495,11681.845012256808 5475.332625371839,11293.880385422168 5469.716873889079,10978.428574224294 5473.13383508841,10578.953793991954 5493.384488104367,10158.60797309266 5535.8647053913655,9810.584269009287 5586.614018099407,9482.695730078387 5646.883476251437,9133.471116610308 5656.208812986201,8850.764224598737 5618.108092757187,8654.629254395059 5460.94555010797,8692.172673759713 5330.165613938028,8782.1644336888 5183.417117455503,8990.730172287354 5039.524171419567,9242.057244538115 4892.8496529278855,9380.65706532914 4772.4981475339655,9503.211881883706 4700.129588979347,9676.90192966522 4709.733165157454,9864.938775804476 4779.954307033397,10022.54066552154 4861.788349516546,10215.354845913986 4875.407697630985,10565.909830250748 4849.221954805124,10957.27230730375 4823.393772268344,11276.465760882997 4803.338749939287,11696.228183126716 4777.629754165533,12359.800075290479 4744.670915289036,13023.701785996758 4708.369093204053,13438.652633479718 4700.165345008255,13717.17012361429 "/><path class="sewinguide" stroke="#00ff74" d="M 4639.697398512561,13841.111179832711 4760.633291503948,13593.228887588255 "/>
<path class="sewinguide" stroke="#00ffdb" d="M 4639.697398512561,13841.111179832711 4760.633291503948,13593.228887588255 "/>
<path class="sewinguide" stroke="#00ffcd" d="M 5939.7984191180385,13474.545001513121 5689.206374717281,13359.328865867315 "/>
<path class="sewinguide" stroke="#0400ff" d="M 5939.7984191180385,13474.545001513121 5689.206374717281,13359.328865867315 "/>
<path class="sewinguide" stroke="#df00ff" d="M 5705.049910940998,8547.583005317818 5531.166274573375,8761.675503472297 "/>
<path class="sewinguide" stroke="#ff1600" d="M 5705.049910940998,8547.583005317818 5531.166274573375,8761.675503472297 "/>
<path class="sewinguide" stroke="#00ff74" d="M 4639.697398512561,13841.111179832711 4760.633291503948,13593.228887588255 "/>
<path class="sewinguide" stroke="#00ffdb" d="M 4639.697398512561,13841.111179832711 4760.633291503948,13593.228887588255 "/>
</g>
<g><path class="seam" d="M 6510.80872805236,13710.213392613467 7075.630688148745,13717.169808950963 7067.427350941786,13438.652376611695 7031.124706879126,13023.701683249548 6998.166689980305,12359.800383532109 6972.456872228876,11696.227772137878 6952.401438910981,11276.465760882997 6926.5732563742,10957.273334775846 6900.386691570663,10565.909830250748 6914.006861662779,10215.355667891661 6995.841315134765,10022.54066552154 7066.062046021871,9864.938364815636 7075.666855166492,9676.902340654058 7003.296652656521,9503.213936827897 6882.945147262601,9380.658709284491 6736.271039759757,9242.05806651579 6592.378915701497,8990.73099426503 6445.629597241295,8782.166077644151 6314.848839093678,8692.174317715064 6157.685885455624,8654.630076372734 6119.5863981931225,8850.765457565252 6128.912967894401,9133.471527599146 6189.1816040687545,9482.696141067225 6239.930916776797,9810.585090986962 6282.411545052633,10158.609206059173 6302.66219806859,10578.955848936143 6306.079159267922,10978.429190707551 6300.462996796324,11293.879768938912 6279.288029883651,11681.84480676239 6224.838995655718,12270.555184827292 6147.391848029636,12855.898228595053 6059.0530852070815,13207.261525229 5961.295691183531,13416.936342893763 6211.642555055604,13539.139892425832 6510.80872805236,13710.213392613467 "/><path class="sewinguide" stroke="#6b00ff" d="M 7136.098628222738,13841.111179832711 7015.162748074752,13593.228887588255 "/>
<path class="sewinguide" stroke="#d200ff" d="M 7136.098628222738,13841.111179832711 7015.162748074752,13593.228887588255 "/>
<path class="sewinguide" stroke="#c0ff00" d="M 6070.743823247189,8547.58401352481 6244.627947664058,8761.676139220657 "/>
<path class="sewinguide" stroke="#59ff00" d="M 6070.743823247189,8547.58401352481 6244.627947664058,8761.676139220657 "/>
<path class="sewinguide" stroke="#5d00ff" d="M 5835.999643296349,13474.544128161839 6086.591739070712,13359.328095263245 "/>
<path class="sewinguide" stroke="#c400ff" d="M 5835.999643296349,13474.544128161839 6086.591739070712,13359.328095263245 "/>
</g>
<g><path class="seam" d="M 4894.378531405335,5505.126439206712 4816.637937748905,6155.463668808427 4894.378531405335,6805.801720387819 4969.450985525314,7305.463866148527 4887.996696728498,7664.800859976186 4700.314122967619,8023.6800122382865 5036.013915754004,8229.272246593737 5738.092585118751,8507.89144362232 7170.58554928581,8496.133463955292 8461.315722564412,7930.445961366027 9029.043373745628,7131.6106557983185 9172.974130754661,6155.464490786104 9029.04255176795,5179.317503796214 8461.315722564412,4380.482609217342 7170.586371263486,3814.795106628078 5738.092585118751,3803.0367159722114 5036.014326742843,4081.6559130007945 4700.313711978782,4287.248969333921 4887.996696728498,4646.127710607183 4969.451396514151,5005.465115423681 4894.378531405335,5505.126439206712 "/><path class="sewinguide" stroke="#ff6200" d="M 4566.919103351535,8058.659243344857 4833.709142583704,7988.700781131716 "/>
<path class="sewinguide" stroke="#ffc900" d="M 4566.919103351535,8058.659243344857 4833.709142583704,7988.700781131716 "/>
<path class="sewinguide" stroke="#74ff00" d="M 4566.918692362698,4252.269693275447 4833.708731594867,4322.228245392395 "/>
<path class="sewinguide" stroke="#0dff00" d="M 4566.918692362698,4252.269693275447 4833.708731594867,4322.228245392395 "/>
</g>
<g><path class="seam" d="M 1100.8202455100522,8482.518225729233 670.3170409734141,8299.261179776197 383.160552620175,8223.937611476185 100.9108535824038,8200.209992890546 82.33207747272643,8521.243648992044 73.33813259712166,9024.168635137825 96.15716403080037,9799.593194514011 135.94142939607423,10558.622176174906 169.53480935167767,11021.719261499875 198.9477264375117,11350.394227572335 232.14398842837446,11754.465095980297 251.51194016746504,12182.014318243639 241.71293879687778,12538.527305018024 221.64360891889686,12875.449584103111 193.97346431390125,13234.898572389133 211.54219682393108,13522.111443273589 268.87123533431804,13717.113394311244 424.45606889476727,13664.071894106331 548.3098156719093,13560.432915882227 677.0072200259783,13335.179078262918 798.7250578119097,13066.885718921663 934.032344274314,12912.491699832586 1044.211773179931,12776.8603486714 1100.9036762441713,12594.021894849891 1073.1951170262216,12404.487919120924 986.994626380696,12251.572021387801 885.641902002111,12064.105730502932 837.9639602542273,11710.257081618245 824.7226191235607,11311.158972655954 821.3950479964993,10984.079876241542 835.3328097131978,10555.02910625848 873.7916553409459,9877.303785985265 926.79719402253,9194.360345930078 995.8542100147698,8759.98213313413 1100.8202455100522,8482.518225729233 "/><path class="sewinguide" stroke="#6b00ff" d="M 1213.447035885695,8402.938572613255 988.1934551344096,8562.098700822886 "/>
<path class="sewinguide" stroke="#ff00c4" d="M 1213.447035885695,8402.938572613255 988.1934551344096,8562.098700822886 "/>
<path class="sewinguide" stroke="#00d7ff" d="M 3.9732602783994113,8102.124308689222 197.84844688640817,8298.296499069545 "/>
<path class="sewinguide" stroke="#0070ff" d="M 3.9732602783994113,8102.124308689222 197.84844688640817,8298.296499069545 "/>
<path class="sewinguide" stroke="#59ff00" d="M 192.36873913073475,13831.852795748342 345.37373153790134,13602.37383875333 "/>
<path class="sewinguide" stroke="#00ff0d" d="M 192.36873913073475,13831.852795748342 345.37373153790134,13602.37383875333 "/>
<path class="sewinguide" stroke="#6b00ff" d="M 1213.447035885695,8402.938572613255 988.1934551344096,8562.098700822886 "/>
<path class="sewinguide" stroke="#ff00c4" d="M 1213.447035885695,8402.938572613255 988.1934551344096,8562.098700822886 "/>
</g>
<g><path class="seam" d="M 3568.1882411820225,13717.147249516775 3847.0486886585254,13703.46742824784 4121.7141730653175,13638.709721538266 4553.426712257841,13478.412644081847 4474.396435627692,13201.47716557544 4428.428156072384,12766.095729025876 4406.89768381482,12083.745448611166 4399.242194728948,11407.353170634082 4404.511071632415,10979.785042884192 4421.461484279039,10654.865692813595 4444.688518459965,10251.682971284603 4473.312658061823,9825.96264935047 4504.960031556186,9461.92928607071 4537.512402471876,9117.038960888432 4553.490004538898,8758.328314049922 4507.255815205387,8495.094484172767 4420.436478117007,8357.616662909548 4287.367334119272,8259.893380959553 4173.653709448277,8429.43120851051 4073.35804836109,8700.522733981847 4010.621424214402,9058.871299654058 3967.517325871283,9402.935537271906 3921.5839803672065,9765.565784658651 3862.5215964324534,10187.917231087504 3803.986511176885,10586.63743581323 3758.1431722283355,10912.501238233606 3703.3069865149832,11372.07840965532 3629.34831214605,12125.880538021434 3572.107019752581,12896.674897148443 3560.9651123537506,13397.261973289123 3568.1882411820225,13717.147249516775 "/><path class="sewinguide" stroke="#00ffbf" d="M 3467.4200842085206,13811.293477271627 3668.956398155524,13623.000559399481 "/>
<path class="sewinguide" stroke="#00d7ff" d="M 3467.4200842085206,13811.293477271627 3668.956398155524,13623.000559399481 "/>
<path class="sewinguide" stroke="#ff0800" d="M 4660.764686349672,13564.994031476414 4446.088738166011,13391.831256687283 "/>
<path class="sewinguide" stroke="#ff6f00" d="M 4660.764686349672,13564.994031476414 4446.088738166011,13391.831256687283 "/>
<path class="sewinguide" stroke="#ffd600" d="M 4248.834927911218,8127.481022811783 4325.899740327326,8392.305739107323 "/>
<path class="sewinguide" stroke="#00ff0d" d="M 4248.834927911218,8127.481022811783 4325.899740327326,8392.305739107323 "/>
<path class="sewinguide" stroke="#00ffbf" d="M 3467.4200842085206,13811.293477271627 3668.956398155524,13623.000559399481 "/>
<path class="sewinguide" stroke="#00d7ff" d="M 3467.4200842085206,13811.293477271627 3668.956398155524,13623.000559399481 "/>
</g>
<g><path class="seam" d="M 7222.3232901493,13717.172300570794 7788.761258356795,13698.817063858798 8048.619636907259,13588.956607243392 8310.525561848759,13489.018853217116 8222.378319824722,13265.766351431368 8155.1273942811795,12912.219727969024 8110.4948284494485,12327.075089062819 8088.402534450306,11739.457427571013 8088.118130174394,11352.927562769915 8098.268732495911,11039.267868400244 8116.830632376426,10643.444929488165 8140.58660919189,10225.169259366 8165.713644771001,9867.009748559278 8190.031032339205,9527.290484937019 8198.17107726511,9170.053233082825 8153.43001038014,8889.691854369858 8076.323572500781,8704.598921277367 7929.423832125862,8773.278855010722 7819.472810266977,8889.107428242187 7724.55576010301,9133.857035129213 7671.2973605388315,9482.491879614727 7636.651001493408,9820.981464633618 7597.446776234299,10177.721419993803 7543.345027574495,10593.20174953415 7487.0642160954885,10985.36380537153 7442.395483246012,11300.331060729375 7399.254806896309,11716.143880239682 7337.724024000383,12373.99737645839 7270.6958544070485,13032.573493801554 7222.333153881413,13445.682340686095 7222.3232901493,13717.172300570794 "/><path class="sewinguide" stroke="#ff005e" d="M 7166.057126569348,13843.07682385437 7278.5894537292515,13591.268175432653 "/>
<path class="sewinguide" stroke="#ff0800" d="M 7166.057126569348,13843.07682385437 7278.5894537292515,13591.268175432653 "/>
<path class="sewinguide" stroke="#c400ff" d="M 8431.98875351933,13554.321576077817 8189.062370178186,13423.715667993974 "/>
<path class="sewinguide" stroke="#ff00d2" d="M 8431.98875351933,13554.321576077817 8189.062370178186,13423.715667993974 "/>
<path class="sewinguide" stroke="#ffd600" d="M 8139.91603595075,8582.23152847634 8012.731109050812,8826.966314078394 "/>
<path class="sewinguide" stroke="#c0ff00" d="M 8139.91603595075,8582.23152847634 8012.731109050812,8826.966314078394 "/>
<path class="sewinguide" stroke="#ff005e" d="M 7166.057126569348,13843.07682385437 7278.5894537292515,13591.268175432653 "/>
<path class="sewinguide" stroke="#ff0800" d="M 7166.057126569348,13843.07682385437 7278.5894537292515,13591.268175432653 "/>
</g>
</svg>