<svg xmlns="http://www.w3.org/2000/svg" version="1.0" preserveAspectRatio="xMidYMid meet" viewBox="2.7 278.5 1018.18 423.17">

<g transform="translate(0.000000,1024.000000) scale(0.100000,-0.100000)" fill="#000000" stroke="none">
<path d="M5116 7405 c-27 -179 -68 -284 -127 -326 -31 -22 -31 -24 -25 -81 10 -98 58 -168 126 -183 27 -6 30 -11 30 -44 0 -27 -7 -44 -25 -61 -15 -14 -25 -35 -25 -52 0 -29 30 -68 53 -68 44 0 64 92 27 125 -13 12 -20 31 -20 56 0 34 3 39 33 48 67 23 117 106 117 196 0 37 -6 48 -44 86 -50 50 -79 128 -100 271 l-13 83 -7 -50z"/>
<path d="M4483 6950 c-24 -12 -57 -40 -74 -62 -36 -45 -78 -141 -79 -178 0 -24 0 -24 16 5 24 47 52 71 107 97 44 19 68 23 152 23 114 -1 156 -16 224 -84 76 -76 155 -252 207 -466 48 -196 54 -261 64 -705 5 -234 12 -447 16 -473 15 -118 26 -8 35 372 9 423 24 612 59 776 47 215 123 404 197 486 75 83 186 114 318 89 76 -14 136 -54 167 -110 l20 -35 -6 39 c-13 95 -99 212 -173 237 -20 6 -63 9 -98 6 -164 -13 -313 -167 -409 -421 -41 -109 -94 -328 -97 -399 -1 -18 -5 -1 -10 36 -12 89 -51 245 -89 350 -64 177 -191 342 -310 402 -77 39 -177 45 -237 15z"/>
<path d="M4555 6481 c-55 -23 -126 -137 -128 -204 -1 -43 27 -84 75 -108 39 -20 40 -21 36 -69 -3 -47 -2 -49 39 -75 64 -40 150 -141 189 -220 18 -38 45 -112 58 -164 l24 -93 -30 6 c-17 3 -45 6 -63 6 -32 0 -33 1 -40 57 -10 80 -42 140 -89 165 -17 10 -18 7 -12 -46 5 -36 4 -56 -3 -56 -9 0 -71 118 -71 135 0 13 -50 75 -61 75 -16 0 -10 -54 10 -93 10 -20 17 -37 15 -37 -2 0 -20 10 -39 23 -28 18 -38 33 -52 82 -14 49 -27 71 -74 118 -32 31 -62 57 -69 57 -24 0 11 -110 48 -153 25 -28 7 -30 -45 -4 -26 13 -69 32 -95 42 -43 16 -47 20 -53 59 -4 22 -14 57 -22 76 -16 40 -90 120 -111 120 -11 0 -12 -10 -7 -42 6 -36 16 -63 54 -143 2 -5 -21 13 -53 41 -80 72 -150 104 -223 103 -95 -1 -101 -8 -45 -51 75 -56 124 -77 228 -98 53 -11 98 -20 101 -20 2 0 2 -4 -1 -8 -3 -5 -31 -10 -63 -11 -32 -1 -74 -7 -94 -12 -41 -13 -87 -45 -77 -54 4 -4 51 -7 105 -8 88 -2 104 1 159 26 l61 28 104 -46 c131 -59 142 -69 64 -61 -66 8 -143 -10 -176 -40 -27 -24 -24 -29 21 -31 22 -1 66 -3 98 -4 41 -2 71 4 106 19 27 12 55 22 63 22 17 0 163 -99 163 -110 0 -4 -18 -2 -40 3 -33 9 -47 8 -86 -9 -26 -10 -53 -28 -60 -39 -12 -19 -11 -20 34 -22 151 -6 217 -16 244 -36 l29 -21 -36 -19 c-41 -21 -75 -70 -75 -108 0 -71 88 -130 146 -98 25 13 28 12 65 -29 55 -63 82 -139 83 -237 1 -68 -3 -88 -27 -137 -51 -104 -141 -162 -252 -163 -115 0 -182 48 -192 137 -6 50 21 116 57 141 21 14 20 15 -11 26 -75 26 -160 -2 -200 -65 -36 -58 -34 -158 4 -236 55 -113 150 -164 287 -156 219 13 397 222 377 443 -11 118 -86 251 -167 297 -47 27 -47 42 0 46 54 5 117 -17 165 -60 135 -119 139 -338 10 -558 l-26 -45 41 44 c48 52 103 163 119 239 25 118 8 270 -39 363 -28 55 -86 117 -130 139 l-37 19 -6 93 c-10 167 -78 373 -174 526 -25 40 -42 76 -39 80 13 13 78 -33 110 -77 96 -132 167 -353 182 -566 5 -62 11 -94 18 -92 38 13 52 310 21 452 -58 272 -159 466 -270 516 -41 19 -115 24 -150 10z"/>
<path d="M5554 6479 c-114 -33 -232 -258 -280 -532 -26 -148 -5 -456 30 -444 6 2 14 48 18 105 14 216 80 425 172 551 35 47 99 92 112 78 4 -4 -5 -24 -19 -45 -104 -158 -187 -412 -187 -574 l0 -73 -46 -24 c-106 -57 -184 -212 -184 -367 0 -76 27 -198 57 -258 28 -57 102 -160 109 -153 3 3 -11 31 -31 63 -78 129 -101 299 -56 416 39 102 158 187 246 176 37 -4 43 -25 11 -38 -40 -15 -112 -94 -140 -153 -76 -162 -48 -342 75 -472 73 -77 156 -117 258 -123 57 -3 93 0 128 12 112 37 185 141 185 264 1 37 -5 79 -12 93 -39 76 -108 109 -190 89 l-48 -11 25 -25 c28 -28 53 -83 53 -116 0 -43 -39 -103 -83 -129 -64 -36 -163 -34 -235 6 -60 32 -101 75 -134 138 -19 35 -23 58 -23 132 0 81 3 97 32 155 18 36 46 78 62 94 28 27 33 28 55 16 36 -19 90 -5 120 31 48 57 27 137 -45 174 -16 9 -29 19 -29 23 0 18 62 42 112 43 29 0 84 6 122 13 l70 12 -24 22 c-34 32 -96 47 -138 34 -33 -10 -33 -10 -17 8 10 11 46 38 81 60 l63 42 78 -27 c72 -25 83 -27 140 -16 33 6 69 8 78 4 35 -13 9 22 -35 46 -36 20 -56 24 -124 24 l-81 -1 95 45 c140 66 131 64 186 39 68 -31 111 -38 199 -30 64 6 73 9 63 21 -24 29 -75 47 -153 53 -73 6 -78 7 -52 18 15 6 56 16 92 22 81 13 135 37 208 91 l59 44 -34 8 c-88 23 -192 -12 -285 -97 -29 -26 -53 -46 -53 -43 0 3 11 27 25 54 32 64 44 133 23 133 -29 0 -103 -92 -117 -145 -7 -27 -16 -60 -20 -73 -5 -18 -28 -32 -103 -61 l-96 -38 23 36 c25 38 52 127 42 138 -10 9 -75 -45 -107 -88 -16 -22 -34 -62 -41 -89 -10 -38 -21 -55 -43 -70 -17 -11 -42 -27 -56 -37 -21 -15 -20 -12 8 20 24 29 32 47 32 77 0 22 -4 40 -10 40 -14 0 -57 -67 -74 -117 -31 -87 -74 -121 -60 -47 3 18 3 41 0 50 -6 15 -10 14 -32 -7 -38 -35 -65 -94 -71 -154 -3 -28 -11 -52 -17 -52 -6 0 -32 -3 -58 -7 -27 -4 -48 -4 -48 1 1 26 34 147 56 202 44 113 116 203 208 265 38 26 40 29 37 76 -2 48 -2 49 39 70 26 13 47 33 57 55 16 33 16 39 0 89 -21 65 -66 130 -110 156 -34 21 -90 25 -143 9z"/>
<path d="M2947 6107 c3 -15 -9 -50 -31 -91 -20 -37 -36 -80 -36 -94 0 -24 -2 -23 -19 14 -20 45 -54 74 -84 74 -14 0 -17 -3 -9 -12 20 -26 24 -78 8 -103 -9 -13 -16 -32 -16 -42 0 -27 34 -78 70 -103 l33 -23 -8 49 c-4 27 -13 64 -21 83 -8 19 -12 36 -10 38 10 11 48 -73 60 -134 9 -43 14 -57 15 -38 5 97 10 135 20 174 17 58 23 47 11 -19 -15 -80 -14 -87 11 -64 67 60 86 237 32 296 -22 24 -31 23 -26 -5z"/>
<path d="M7264 6109 c-26 -29 -33 -169 -10 -223 22 -52 20 -54 -11 -24 -43 40 -95 68 -126 68 l-28 0 20 -26 c11 -14 30 -55 42 -92 12 -37 28 -77 36 -89 12 -19 121 -79 128 -71 2 2 -19 40 -47 86 -28 46 -48 85 -45 88 5 6 79 -81 96 -114 24 -45 22 -14 -2 44 -29 68 -46 161 -28 150 6 -4 11 -16 11 -27 0 -11 11 -46 25 -79 14 -33 26 -72 26 -87 1 -15 5 -3 9 27 7 54 48 165 57 156 3 -3 -2 -26 -10 -53 -8 -26 -18 -63 -21 -81 -5 -29 -4 -31 12 -23 56 30 99 106 78 137 -24 35 -27 73 -10 105 l16 32 -29 -7 c-15 -4 -34 -13 -41 -19 -25 -20 -51 -85 -60 -148 -6 -37 -10 -50 -11 -32 0 18 4 55 10 84 11 50 10 54 -26 125 -23 44 -35 82 -32 94 7 26 -5 26 -29 -1z"/>
<path d="M3060 5911 c-65 -35 -111 -93 -131 -165 -8 -31 -8 -31 24 8 67 82 68 84 60 61 -3 -11 -24 -47 -45 -79 -21 -33 -38 -64 -38 -68 0 -16 28 -7 66 22 21 16 44 30 50 30 13 0 29 35 45 103 7 27 23 62 36 78 l25 29 -29 0 c-15 -1 -44 -9 -63 -19z"/>
<path d="M3238 5815 c-45 -16 -166 -94 -190 -121 -34 -39 -56 -110 -68 -218 -6 -59 -9 -111 -6 -114 4 -3 6 7 6 21 0 56 101 234 150 265 25 15 25 8 1 -26 -28 -41 -103 -192 -99 -203 6 -17 127 51 158 89 28 35 40 74 55 184 3 26 16 67 29 92 25 49 22 52 -36 31z"/>
<path d="M6950 5826 c0 -3 9 -20 20 -38 10 -18 27 -76 36 -128 18 -107 41 -159 81 -188 38 -26 133 -74 133 -66 0 13 -80 176 -101 205 -33 46 -12 49 28 4 36 -42 108 -182 116 -225 12 -67 5 54 -7 138 -10 66 -21 104 -40 132 -27 41 -131 121 -187 144 -48 19 -79 28 -79 22z"/>
<path d="M2433 5812 c-18 -2 -33 -6 -33 -10 0 -4 19 -18 42 -32 63 -39 104 -109 128 -220 55 -260 128 -413 238 -497 l36 -27 -23 38 c-72 116 -92 186 -101 356 -6 104 -14 159 -27 196 -53 138 -147 209 -260 196z"/>
<path d="M7689 5790 c-109 -58 -169 -192 -169 -380 0 -100 -30 -214 -80 -307 -45 -84 -31 -86 40 -6 85 97 145 231 184 416 13 63 32 129 41 146 24 48 81 107 116 121 22 10 27 15 17 21 -24 15 -112 9 -149 -11z"/>
<path d="M2064 5732 c-89 -81 -128 -192 -127 -357 0 -168 41 -268 157 -393 136 -145 357 -255 716 -357 91 -25 199 -58 240 -73 l75 -27 -90 -7 c-433 -35 -590 -81 -792 -235 -180 -136 -283 -338 -283 -558 0 -96 16 -162 60 -244 87 -162 303 -277 483 -255 177 21 371 144 432 275 35 76 33 105 -4 48 -37 -59 -130 -121 -215 -144 -295 -80 -576 183 -513 480 33 152 81 236 187 324 160 134 350 206 610 232 196 19 353 5 710 -65 96 -18 246 -44 333 -57 136 -20 160 -21 167 -9 5 8 6 18 2 21 -4 4 -72 17 -152 29 -125 19 -438 81 -479 96 -36 12 4 12 94 -1 55 -8 111 -14 125 -15 46 0 0 18 -75 30 -103 17 -508 98 -600 121 -301 76 -663 284 -844 486 -158 177 -236 338 -236 488 0 59 5 81 32 135 17 36 31 66 29 67 -1 1 -20 -14 -42 -35z"/>
<path d="M2231 5712 c-56 -56 -84 -127 -84 -212 0 -94 54 -164 122 -158 41 4 52 23 18 32 -67 16 -74 222 -11 335 27 50 28 51 14 51 -6 0 -33 -22 -59 -48z"/>
<path d="M7959 5708 c71 -126 58 -338 -21 -338 -17 0 -18 -2 -8 -15 33 -40 123 -1 150 65 20 49 9 156 -23 222 -25 51 -93 118 -119 118 -5 0 5 -24 21 -52z"/>
<path d="M8158 5713 c34 -62 42 -182 17 -268 -53 -185 -220 -401 -430 -557 -141 -105 -385 -224 -590 -287 -91 -29 -397 -96 -550 -121 -153 -26 -167 -29 -161 -38 3 -5 51 -2 108 5 111 13 154 16 146 8 -7 -8 -404 -83 -533 -101 -124 -17 -148 -25 -127 -46 8 -8 36 -8 114 1 107 13 378 59 508 86 254 53 534 63 719 25 334 -68 561 -226 637 -444 78 -220 -10 -448 -211 -547 -65 -32 -76 -34 -170 -34 -80 1 -111 5 -157 23 -63 26 -150 98 -175 146 -30 58 -25 6 6 -60 19 -41 51 -85 86 -119 184 -180 454 -211 662 -76 148 96 223 238 223 421 0 175 -63 328 -187 460 -192 204 -445 300 -843 320 l-135 6 36 17 c20 9 114 39 210 67 247 72 336 104 484 175 144 69 227 127 307 213 104 113 148 231 148 397 0 107 -14 174 -49 243 -23 44 -97 132 -112 132 -4 0 4 -21 19 -47z"/>
<path d="M7351 5654 c0 -11 3 -14 6 -6 3 7 2 16 -1 19 -3 4 -6 -2 -5 -13z"/>
<path d="M3613 5614 c-89 -45 -162 -115 -199 -191 -25 -51 -28 -69 -29 -158 0 -68 6 -118 17 -155 56 -178 255 -383 483 -497 l90 -46 -80 84 c-91 96 -142 169 -190 272 -89 193 -104 435 -39 619 14 40 30 77 35 83 13 13 11 25 -3 25 -7 0 -46 -16 -85 -36z"/>
<path d="M6530 5646 c0 -2 11 -28 25 -57 59 -131 76 -319 42 -474 -37 -171 -133 -347 -261 -478 -64 -65 -65 -67 -28 -52 109 46 260 151 356 248 78 80 140 178 172 273 23 68 26 91 22 169 -4 73 -9 100 -32 143 -34 67 -84 122 -146 162 -45 29 -150 75 -150 66z"/>
<path d="M1210 5611 c-24 -12 -44 -36 -63 -73 -24 -46 -29 -68 -29 -134 -1 -98 12 -148 57 -214 19 -28 29 -47 22 -43 -32 19 65 -86 135 -148 152 -134 246 -194 425 -272 129 -57 200 -80 219 -73 11 4 -7 18 -56 42 -85 43 -188 136 -242 218 -80 124 -113 316 -69 411 27 59 76 98 119 93 28 -4 35 0 42 18 12 32 -7 92 -39 124 -69 70 -239 30 -308 -72 -34 -51 -56 -152 -49 -224 13 -125 69 -241 174 -361 34 -40 60 -73 58 -73 -13 0 -178 103 -224 139 -87 69 -123 112 -160 188 -19 41 -33 76 -30 78 2 3 22 -22 44 -55 21 -33 41 -60 44 -60 8 0 30 101 30 136 0 17 -16 62 -35 101 -27 56 -35 83 -35 128 0 64 10 90 48 122 l27 23 -35 0 c-19 0 -51 -8 -70 -19z"/>
<path d="M8926 5621 c-4 -6 -1 -11 8 -11 8 0 24 -16 37 -36 33 -53 30 -122 -10 -211 -18 -42 -31 -88 -31 -113 0 -45 19 -130 29 -130 3 0 23 28 43 63 47 77 51 48 7 -38 -54 -103 -153 -191 -324 -286 l-60 -33 53 59 c123 138 182 270 182 407 0 182 -99 298 -257 298 -54 0 -67 -4 -93 -27 -35 -32 -54 -92 -40 -129 8 -19 15 -23 37 -18 39 7 87 -26 114 -78 64 -125 7 -356 -122 -501 -51 -57 -158 -135 -224 -163 -24 -9 -34 -19 -28 -25 17 -17 253 76 393 156 146 82 343 249 396 335 72 117 79 137 79 245 0 85 -4 107 -23 147 -13 27 -37 57 -53 69 -35 24 -103 37 -113 20z"/>
<path d="M2442 5390 c-46 -28 -72 -89 -72 -171 0 -94 39 -170 144 -275 123 -124 290 -224 497 -299 64 -23 296 -85 316 -85 4 0 -26 15 -67 34 -230 101 -394 209 -541 356 -87 87 -113 120 -147 189 -23 46 -42 93 -42 105 0 12 14 32 31 47 l32 26 -45 46 c-24 26 -51 47 -59 47 -8 0 -29 -9 -47 -20z"/>
<path d="M3160 5400 c-101 -29 -161 -108 -178 -231 l-8 -64 -19 59 c-11 32 -21 54 -22 49 -6 -18 49 -157 90 -227 50 -87 170 -213 259 -272 122 -82 287 -143 477 -178 129 -25 149 -17 26 10 -325 70 -552 203 -641 375 -34 66 -39 164 -11 216 27 50 80 85 137 91 l50 5 0 41 c0 89 -78 150 -160 126z"/>
<path d="M6982 5387 c-34 -20 -52 -52 -59 -107 l-6 -50 37 0 c45 0 107 -30 135 -66 109 -138 -20 -371 -277 -502 -115 -59 -218 -94 -373 -127 -88 -19 -100 -23 -54 -19 146 13 338 65 457 125 156 78 291 198 364 321 36 61 105 228 103 251 0 7 -10 -15 -23 -48 l-23 -59 -6 56 c-6 64 -37 141 -70 176 -51 55 -151 79 -205 49z"/>
<path d="M7691 5363 c-36 -44 -38 -58 -11 -73 48 -25 -1 -157 -105 -282 -126 -154 -392 -338 -617 -429 -32 -12 -56 -24 -55 -26 7 -7 280 71 362 104 279 110 493 273 575 436 50 100 40 215 -25 280 -42 41 -85 37 -124 -10z"/>
<path d="M2901 5344 c0 -11 3 -14 6 -6 3 7 2 16 -1 19 -3 4 -6 -2 -5 -13z"/>
<path d="M938 5290 c33 -20 62 -71 62 -109 0 -16 -5 -18 -38 -14 -28 4 -43 0 -62 -16 -23 -18 -23 -20 -5 -21 10 0 60 -20 110 -45 90 -44 167 -64 200 -51 14 5 12 12 -17 46 -54 66 -78 102 -78 118 0 11 9 7 30 -13 50 -48 33 -10 -20 45 -58 59 -101 80 -167 80 l-48 0 33 -20z m226 -226 c36 -6 60 -24 33 -24 -21 0 -81 21 -92 33 -7 7 -4 8 7 4 9 -3 33 -9 52 -13z"/>
<path d="M9195 5294 c-35 -18 -88 -66 -118 -108 -21 -29 -10 -28 26 2 42 37 -7 -53 -61 -111 -62 -66 53 -60 185 9 45 24 93 44 105 44 21 0 21 1 5 18 -12 11 -32 17 -62 16 -42 -1 -45 1 -45 25 0 38 21 72 59 98 l34 23 -49 0 c-27 0 -62 -7 -79 -16z m-60 -224 c-6 -10 -69 -30 -94 -30 -25 0 -4 11 46 25 26 7 49 14 51 14 2 1 1 -3 -3 -9z"/>
<path d="M2911 5284 c0 -11 3 -14 6 -6 3 7 2 16 -1 19 -3 4 -6 -2 -5 -13z"/>
<path d="M2921 5244 c0 -11 3 -14 6 -6 3 7 2 16 -1 19 -3 4 -6 -2 -5 -13z"/>
<path d="M7311 5244 c0 -11 3 -14 6 -6 3 7 2 16 -1 19 -3 4 -6 -2 -5 -13z"/>
<path d="M340 5121 c-177 -58 -313 -260 -313 -466 1 -260 180 -532 438 -664 99 -51 194 -72 320 -72 229 0 446 80 770 283 323 202 522 287 786 334 103 19 350 24 479 10 112 -12 80 1 -51 21 -163 24 -464 24 -579 0 -214 -46 -389 -125 -690 -312 -436 -270 -688 -331 -950 -228 -289 114 -506 465 -437 703 37 127 115 201 217 208 54 4 61 2 84 -23 14 -15 26 -34 26 -41 0 -21 18 -16 25 7 8 26 51 42 91 35 36 -7 80 -50 89 -89 18 -71 -31 -157 -90 -157 -44 0 -85 47 -85 96 0 49 -33 42 -73 -16 -51 -74 22 -180 125 -180 44 1 115 34 156 73 50 47 74 103 80 178 4 56 1 75 -20 121 -33 72 -75 118 -140 153 -46 25 -65 30 -143 32 -49 1 -101 -1 -115 -6z"/>
<path d="M9700 5121 c-88 -29 -165 -96 -201 -175 -29 -64 -26 -168 7 -234 44 -88 124 -142 212 -142 110 0 176 128 103 201 -38 38 -47 37 -56 -8 -10 -54 -22 -73 -57 -88 -40 -16 -62 -10 -93 27 -30 35 -34 111 -10 158 35 68 129 77 165 17 14 -23 20 -27 20 -14 0 10 13 32 29 48 57 57 161 33 239 -56 55 -62 77 -129 76 -230 -1 -214 -171 -465 -389 -573 -114 -57 -157 -67 -300 -67 -223 0 -347 46 -707 262 -128 77 -269 158 -313 181 -234 117 -522 175 -760 151 -124 -12 -314 -44 -324 -55 -3 -4 11 -4 31 0 146 26 407 24 558 -4 261 -49 438 -127 805 -355 187 -116 369 -196 529 -232 97 -22 282 -22 366 0 309 80 558 375 577 683 4 58 1 110 -7 145 -32 136 -139 281 -247 334 -48 23 -73 29 -143 32 -47 1 -96 -1 -110 -6z"/>
<path d="M5102 4743 c-31 -60 -37 -112 -19 -174 9 -30 22 -63 30 -73 13 -18 16 -14 36 44 27 82 26 133 -3 195 l-23 50 -21 -42z"/>
<path d="M1278 4737 c-59 -23 -124 -64 -154 -99 -28 -34 -69 -116 -61 -124 2 -2 42 14 88 35 161 75 333 108 518 97 64 -3 132 -9 151 -12 59 -9 15 11 -135 62 -128 42 -150 47 -255 51 -82 2 -126 -1 -152 -10z"/>
<path d="M8655 4726 c-96 -25 -288 -96 -281 -103 2 -2 24 1 47 8 58 17 315 17 399 0 94 -19 216 -58 293 -96 64 -32 68 -32 61 -12 -12 42 -54 105 -91 137 -101 89 -254 112 -428 66z"/>
<path d="M4110 4717 c-14 -7 -33 -29 -44 -51 -16 -33 -17 -43 -6 -79 56 -187 425 -243 664 -103 48 28 146 130 146 152 0 19 -1 19 -59 -20 -90 -61 -153 -80 -266 -80 -141 0 -196 23 -292 121 -75 76 -94 84 -143 60z"/>
<path d="M6049 4715 c-15 -8 -36 -30 -47 -49 -51 -86 -188 -142 -326 -133 -92 6 -165 30 -242 82 -30 19 -56 35 -59 35 -14 0 28 -60 71 -103 105 -103 296 -162 452 -140 183 27 292 104 292 208 0 47 -22 88 -55 103 -33 15 -54 15 -86 -3z"/>
<path d="M4949 4576 c6 -7 14 -35 17 -62 8 -62 15 -74 79 -154 68 -84 77 -103 86 -175 l8 -60 -4 70 c-15 254 -35 312 -129 365 -55 32 -75 38 -57 16z m137 -188 c8 -16 13 -28 10 -28 -5 0 -46 69 -46 78 0 8 15 -13 36 -50z"/>
<path d="M5229 4551 c-44 -27 -70 -65 -84 -123 -10 -38 -3 -35 30 12 41 60 41 42 0 -33 -25 -45 -35 -76 -33 -97 3 -29 4 -28 61 46 32 43 62 86 66 98 13 34 22 126 13 126 -4 0 -28 -13 -53 -29z"/>
<path d="M2524 4500 c-238 -25 -425 -92 -634 -227 -112 -73 -199 -143 -350 -284 -209 -194 -331 -272 -498 -318 -219 -60 -458 -21 -520 84 -19 34 -22 49 -17 101 5 56 3 62 -21 85 -38 35 -125 34 -181 -3 -55 -36 -76 -84 -71 -162 5 -82 38 -145 115 -216 108 -101 241 -150 412 -150 121 0 201 20 326 80 138 66 249 156 455 365 270 274 417 389 639 500 119 60 247 105 386 134 94 20 80 24 -41 11z"/>
<path d="M7683 4475 c262 -57 481 -160 697 -326 52 -40 194 -172 315 -294 229 -230 340 -319 478 -380 204 -90 432 -88 616 4 115 59 209 173 226 277 23 144 -137 263 -252 188 -20 -13 -23 -23 -23 -88 0 -60 -4 -79 -23 -107 -62 -92 -257 -131 -458 -93 -184 35 -340 123 -525 295 -399 373 -638 497 -1036 539 -136 14 -138 12 -15 -15z"/>
<path d="M7288 4413 c6 -2 18 -2 25 0 6 3 1 5 -13 5 -14 0 -19 -2 -12 -5z"/>
<path d="M2815 4390 c-151 -39 -273 -101 -365 -186 -163 -151 -175 -366 -25 -435 83 -38 193 -10 220 55 8 20 15 46 15 59 0 36 -36 75 -81 89 -48 14 -79 50 -79 90 0 105 161 253 355 324 72 27 56 29 -40 4z"/>
<path d="M7405 4378 c106 -44 160 -77 225 -135 138 -123 148 -234 27 -273 -92 -29 -95 -144 -4 -201 41 -25 126 -22 182 7 81 42 108 161 64 281 -46 121 -214 247 -421 316 -124 42 -167 44 -73 5z"/>
<path d="M3250 4344 c-353 -75 -552 -230 -552 -429 0 -48 5 -72 21 -98 39 -64 63 -62 168 9 101 68 155 126 308 329 66 87 128 169 138 182 18 22 18 23 0 22 -10 0 -47 -7 -83 -15z"/>
<path d="M5325 4355 c-5 -2 -22 -6 -38 -9 -38 -9 -104 -71 -116 -109 -12 -41 -23 -117 -16 -117 10 0 36 74 30 87 -2 8 -1 11 4 8 5 -3 12 4 16 15 3 11 10 20 15 20 5 0 -4 -36 -20 -81 -34 -90 -33 -89 -21 -89 16 0 92 119 111 174 10 30 26 66 35 80 10 14 16 26 14 25 -2 0 -8 -2 -14 -4z"/>
<path d="M6900 4353 c0 -5 14 -22 31 -39 17 -16 83 -98 146 -182 64 -85 142 -183 175 -218 68 -72 169 -144 203 -144 58 0 104 87 92 175 -24 172 -208 314 -497 383 -127 31 -150 34 -150 25z"/>
<path d="M4939 4322 c11 -16 23 -41 27 -58 15 -63 96 -184 124 -184 10 0 11 3 4 8 -13 8 -57 142 -50 150 5 5 34 -58 47 -103 6 -22 7 -13 4 29 -3 34 -15 77 -28 100 -23 43 -86 86 -125 86 l-23 0 20 -28z"/>
<path d="M4460 4322 c-115 -30 -188 -87 -226 -177 -21 -52 -17 -52 19 1 25 38 48 57 101 84 67 34 73 35 180 35 135 -1 219 -27 321 -100 114 -81 176 -177 235 -363 27 -86 31 -105 19 -113 -23 -14 -32 -5 -45 46 -7 27 -30 83 -50 125 -101 203 -355 340 -538 289 -78 -22 -146 -111 -146 -193 0 -93 110 -150 177 -92 24 21 26 27 15 43 -41 59 -40 81 5 110 38 25 159 22 233 -6 108 -41 214 -140 271 -253 35 -70 36 -81 5 -101 -29 -19 -56 -75 -56 -116 0 -46 35 -108 73 -127 42 -22 106 -22 144 1 38 22 73 82 73 124 0 42 -24 97 -49 113 -12 7 -21 21 -21 31 0 37 74 159 130 217 116 117 302 168 408 111 30 -16 33 -62 6 -92 -33 -37 2 -79 68 -79 48 0 105 47 114 94 15 81 -39 168 -128 206 -101 43 -249 11 -383 -84 -35 -25 -79 -64 -98 -87 -45 -52 -100 -158 -122 -231 -16 -58 -26 -66 -55 -48 -13 8 -13 13 -2 31 7 11 29 65 48 119 45 131 90 204 168 278 153 143 373 190 539 115 58 -26 127 -92 127 -121 0 -9 3 -12 6 -9 11 10 -17 69 -53 114 -21 27 -57 54 -99 74 -59 29 -77 33 -172 37 -96 4 -115 2 -185 -22 -186 -63 -302 -189 -350 -383 l-22 -88 -5 77 c-8 106 -20 110 -21 7 l-1 -84 -19 75 c-60 233 -220 382 -451 420 -83 13 -111 12 -188 -8z"/>
<path d="M3742 4310 c-82 -12 -168 -49 -217 -92 -58 -51 -75 -85 -75 -149 0 -45 4 -55 33 -84 42 -42 79 -53 111 -31 22 14 24 20 19 76 -5 52 -3 64 18 95 13 19 41 46 61 60 51 34 169 72 251 80 72 8 85 24 28 36 -61 13 -176 17 -229 9z"/>
<path d="M6297 4300 c-38 -7 -54 -16 -46 -25 3 -2 39 -9 80 -15 149 -21 260 -74 295 -142 12 -23 15 -47 11 -89 -7 -84 25 -108 98 -73 73 34 88 148 28 222 -40 50 -119 96 -198 116 -66 16 -199 20 -268 6z"/>
<path d="M4111 4066 c-32 -18 -50 -53 -51 -99 0 -85 101 -128 168 -72 56 47 51 128 -10 165 -38 23 -73 25 -107 6z"/>
<path d="M6045 4066 c-51 -22 -69 -89 -40 -146 19 -37 43 -50 93 -50 46 0 87 34 97 80 9 40 -17 96 -54 114 -36 19 -56 19 -96 2z"/>
</g>
</svg>