<svg xmlns="http://www.w3.org/2000/svg" version="1.0" preserveAspectRatio="xMidYMid meet" viewBox="27.38 6.09 512.82 179.94">

<g transform="translate(0.000000,200.000000) scale(0.100000,-0.100000)" fill="#000000" stroke="none">
<path d="M2074 1921 c-72 -33 -114 -109 -114 -206 l0 -52 -37 -7 c-69 -11 -80 -8 -93 24 -16 39 -46 60 -85 60 -36 0 -75 -35 -75 -67 0 -40 -123 -58 -222 -32 -20 5 -53 25 -73 43 -30 28 -35 40 -35 78 0 47 13 68 42 68 23 0 35 -27 19 -43 -15 -15 -14 -27 2 -27 22 0 47 34 47 63 0 29 -32 57 -66 57 -34 0 -82 -46 -95 -91 -23 -75 35 -170 112 -186 83 -16 -15 -38 -171 -38 -109 1 -150 13 -219 67 -64 50 -90 127 -55 162 34 34 76 7 54 -35 -14 -25 -29 -24 -40 4 l-9 22 0 -22 c-1 -32 35 -50 59 -28 23 21 29 45 19 73 -19 51 -99 43 -126 -12 -34 -73 35 -171 153 -216 93 -35 190 -52 253 -44 l56 7 -65 -48 c-36 -26 -85 -67 -110 -90 -69 -63 -268 -174 -284 -158 -3 4 -6 16 -6 28 0 34 -36 60 -80 59 -28 -1 -56 -14 -111 -52 -154 -107 -311 -103 -366 8 -26 51 -25 160 3 196 35 48 70 67 119 67 101 0 163 -106 87 -148 -17 -9 -21 -14 -11 -15 9 0 28 9 43 21 55 43 24 147 -54 179 -18 7 -55 11 -90 8 -70 -5 -120 -39 -154 -104 -32 -60 -29 -182 6 -249 47 -90 98 -126 205 -146 31 -6 82 -8 111 -4 51 6 54 5 47 -12 -18 -40 -16 -88 4 -120 28 -44 51 -43 51 1 0 51 38 90 119 121 80 30 106 60 98 111 -5 30 -3 33 26 40 48 10 106 42 162 89 60 50 115 89 115 80 0 -3 -11 -22 -23 -43 -49 -77 -108 -199 -122 -252 -8 -30 -15 -92 -15 -138 l0 -83 -22 15 c-59 41 -156 6 -221 -81 -97 -129 -139 -163 -203 -163 -40 0 -94 30 -115 64 -46 75 0 195 64 170 31 -11 30 -38 -3 -65 -26 -22 -28 -27 -15 -33 29 -11 45 -7 70 19 33 33 32 70 -4 106 -58 57 -155 28 -193 -58 -25 -57 -20 -119 16 -195 75 -156 219 -235 328 -180 30 16 38 17 54 5 24 -17 88 -17 122 1 58 31 142 139 142 184 0 2 -19 -24 -41 -58 -69 -103 -164 -145 -218 -96 -21 19 -22 19 -60 -2 -79 -45 -165 -19 -252 76 -29 31 -61 76 -71 100 -23 50 -25 129 -6 168 16 33 72 74 102 74 17 -1 15 -3 -10 -14 -130 -57 -94 -263 52 -294 88 -19 148 12 221 116 85 122 122 152 189 152 28 0 44 -7 68 -33 l31 -33 2 91 c1 105 32 254 67 331 14 30 27 54 30 54 2 0 -5 -30 -16 -67 -27 -91 -33 -174 -18 -239 11 -43 11 -56 0 -69 -9 -10 -11 -31 -6 -64 8 -58 0 -66 -59 -66 -34 0 -40 -3 -43 -24 -2 -14 8 -40 26 -65 16 -22 32 -58 35 -80 3 -21 15 -55 25 -75 93 -179 152 -254 227 -293 37 -19 34 -14 -45 72 -123 133 -128 141 -160 235 l-29 85 41 0 c31 0 46 6 66 28 l27 28 21 -25 c37 -45 54 -89 80 -202 36 -160 77 -232 147 -258 41 -16 79 5 94 49 l12 35 0 -38 c2 -82 -44 -112 -158 -105 -186 11 -343 153 -385 349 l-14 64 -1 -51 c-2 -138 97 -287 239 -357 60 -30 72 -32 168 -32 l103 0 35 37 c36 40 45 88 23 131 -15 29 -50 57 -72 57 -15 0 -13 -4 9 -23 31 -27 36 -74 8 -94 -24 -17 -39 -16 -70 3 -39 26 -70 90 -104 214 -17 63 -42 137 -55 164 -22 41 -23 47 -8 41 70 -28 125 -25 164 11 16 15 25 15 58 6 156 -47 301 64 301 231 0 93 -40 149 -107 149 -29 0 -43 -7 -65 -31 -27 -30 -37 -78 -21 -95 4 -4 15 3 25 16 14 19 21 21 35 12 43 -26 20 -83 -44 -110 -70 -30 -127 -17 -228 53 l-50 35 45 -42 c77 -72 151 -99 223 -79 51 14 107 68 107 103 0 37 -44 79 -71 71 -29 -10 -21 13 14 39 74 55 150 -62 118 -180 -27 -99 -96 -154 -196 -154 -34 0 -72 7 -89 15 -37 20 -41 19 -70 -10 -45 -45 -134 -26 -200 44 -39 41 -52 39 -60 -9 -11 -67 -59 -79 -112 -26 -43 43 -43 56 1 56 51 0 70 32 53 93 -9 37 -9 48 2 62 10 12 13 50 11 148 -2 129 -1 133 28 192 31 62 89 138 75 100 -3 -11 -8 -42 -11 -70 -7 -91 59 -166 148 -167 48 0 89 26 103 66 8 21 6 32 -11 54 -25 33 -56 39 -90 17 -33 -22 -45 -10 -51 53 -6 70 26 139 95 202 60 55 78 62 67 28 -34 -106 -42 -172 -23 -184 6 -3 39 23 74 61 58 62 65 67 96 63 69 -10 126 23 146 86 10 31 26 38 87 36 50 -1 53 -4 61 -40 4 -16 11 -33 17 -37 8 -4 9 0 5 11 -17 43 -29 147 -23 189 9 60 20 60 24 -1 3 -67 53 -163 121 -231 31 -33 121 -101 205 -155 143 -93 270 -204 335 -291 22 -30 22 -30 -1 15 -38 75 -199 227 -337 320 -123 82 -230 174 -218 186 8 8 216 -87 270 -124 65 -45 327 -383 327 -422 0 -3 -14 -11 -31 -17 -28 -11 -35 -9 -63 12 -47 36 -99 55 -150 55 -63 0 -74 -6 -102 -61 -42 -84 -101 -100 -168 -46 -26 21 -28 26 -16 48 7 13 22 34 33 47 22 24 20 25 -33 22 -39 -2 -84 -22 -116 -52 -22 -19 -22 -19 -38 3 -46 66 18 129 132 129 34 0 43 3 32 10 -8 5 -30 10 -47 10 -40 0 -43 20 -9 55 20 20 29 22 57 15 19 -4 66 -15 104 -25 39 -9 81 -23 93 -31 36 -23 37 -10 2 19 -17 15 -63 36 -103 47 -169 49 -226 80 -258 141 -34 67 -18 87 45 54 33 -18 36 -18 36 -6 0 30 -119 67 -135 41 -17 -28 106 -189 156 -205 24 -8 25 -25 1 -25 -23 0 -52 -30 -52 -54 0 -9 -16 -30 -35 -47 -56 -50 -63 -125 -15 -173 20 -20 20 -20 47 6 36 32 82 62 88 56 3 -3 -1 -18 -10 -34 -23 -45 -18 -58 28 -76 86 -36 152 -16 208 61 l31 44 53 -6 c53 -5 155 -43 155 -57 0 -4 -7 -13 -16 -21 -21 -17 -54 -83 -54 -109 0 -18 -6 -20 -52 -20 -114 0 -189 -48 -239 -154 -52 -110 -45 -231 17 -306 50 -59 131 -78 196 -44 35 18 40 15 59 -46 21 -66 81 -124 152 -145 38 -11 68 -14 90 -9 30 7 28 8 -26 15 -41 4 -72 16 -100 35 -159 110 -111 404 66 404 37 0 53 -6 81 -31 l35 -30 16 24 c19 30 56 47 101 47 155 0 222 -235 105 -371 -42 -50 -100 -78 -161 -79 -41 -1 -43 -2 -20 -11 14 -6 42 -8 63 -4 99 15 180 92 201 191 l7 31 37 -18 c123 -63 241 27 250 191 10 169 -108 310 -259 310 -57 0 -57 0 -63 34 -4 18 -20 53 -38 77 -29 41 -30 43 -12 56 42 31 164 54 189 35 6 -4 23 -24 38 -45 51 -68 116 -84 201 -48 44 19 45 21 36 51 -5 18 -14 38 -21 46 -25 31 27 6 80 -37 27 -22 38 -26 49 -17 26 22 44 70 38 100 -7 38 -41 85 -65 93 -13 4 -17 12 -14 24 5 21 -28 61 -52 61 -25 0 -16 13 35 52 82 62 141 165 106 185 -15 8 -15 13 0 55 14 44 17 46 57 50 47 5 87 -8 87 -28 0 -24 61 -83 94 -92 17 -5 45 -7 62 -5 33 5 69 -23 125 -97 49 -65 64 -9 30 113 -10 37 -16 67 -14 67 3 0 24 -14 48 -31 46 -33 86 -84 104 -132 15 -40 13 -120 -3 -142 -14 -19 -15 -19 -33 -2 -63 56 -146 -44 -86 -104 42 -43 133 -41 180 2 45 43 56 76 50 152 l-5 70 44 -68 c24 -38 48 -84 54 -104 13 -46 13 -186 0 -231 -5 -18 -6 -36 -1 -39 17 -12 28 -47 20 -66 -12 -31 -10 -81 4 -93 7 -6 30 -12 52 -14 l39 -3 -33 -38 c-18 -20 -44 -40 -58 -43 -32 -8 -63 20 -63 58 0 46 -26 46 -73 1 -53 -52 -76 -63 -125 -63 -29 0 -46 7 -66 27 -26 26 -27 26 -62 10 -42 -20 -132 -22 -177 -4 -46 20 -101 86 -116 140 -35 123 46 238 127 181 27 -18 30 -44 4 -37 -10 2 -29 -4 -42 -15 -18 -15 -24 -29 -23 -58 2 -74 100 -127 191 -104 48 12 115 53 147 91 19 22 18 22 -15 -2 -60 -44 -117 -69 -161 -69 -81 0 -148 55 -128 108 10 27 35 29 51 2 19 -30 28 -24 28 16 0 48 -15 73 -56 90 -29 12 -39 12 -68 0 -54 -23 -71 -58 -71 -146 0 -68 4 -82 30 -126 57 -92 179 -138 267 -101 34 14 38 14 54 -4 34 -38 95 -43 167 -14 17 7 16 2 -7 -42 -14 -28 -37 -97 -51 -153 -30 -118 -63 -189 -101 -219 -33 -26 -56 -27 -77 -3 -24 27 -21 59 9 87 37 34 6 34 -35 -1 -57 -48 -47 -142 21 -184 49 -32 190 -25 271 13 148 68 234 189 253 356 l6 59 36 -40 c19 -22 48 -46 63 -54 34 -17 89 -18 123 -3 20 9 32 8 60 -5 47 -22 111 -20 163 5 92 45 193 197 193 292 0 95 -48 157 -128 165 -41 3 -53 0 -76 -20 -56 -47 -25 -144 42 -136 32 4 40 24 12 31 -43 11 -35 72 10 72 35 0 63 -45 62 -100 -1 -74 -44 -122 -120 -132 -61 -8 -111 24 -182 117 -33 43 -76 91 -95 106 -45 34 -110 42 -154 20 l-32 -17 7 49 c14 106 -30 244 -135 420 l-31 53 29 -17 c16 -10 55 -39 86 -66 67 -57 95 -73 159 -89 33 -8 44 -15 37 -22 -32 -32 13 -107 77 -128 98 -31 142 -73 142 -134 0 -34 22 -32 44 6 14 24 17 44 13 86 l-6 54 44 -7 c69 -10 178 13 233 49 69 47 114 138 114 233 0 38 -5 81 -11 95 -15 40 -71 100 -108 115 -70 30 -171 10 -212 -42 -25 -31 -18 -111 11 -136 23 -21 88 -24 106 -6 19 19 14 33 -6 15 -39 -36 -102 -11 -102 39 0 40 19 65 66 85 37 17 50 18 86 9 81 -22 125 -107 107 -206 -18 -95 -74 -138 -179 -137 -75 0 -134 22 -211 78 -60 45 -100 57 -139 43 -33 -11 -50 -34 -50 -67 0 -20 -1 -20 -42 -3 -96 39 -172 86 -250 154 -46 39 -100 82 -120 96 -21 13 -38 27 -38 29 0 3 24 2 53 -1 102 -13 264 37 342 105 67 59 82 127 40 177 -32 38 -74 48 -113 28 -51 -26 -60 -94 -16 -122 38 -25 79 -9 79 30 0 17 -6 31 -15 34 -13 5 -13 3 -1 -12 12 -15 12 -19 -1 -32 -22 -22 -58 -2 -58 32 0 51 86 58 108 8 28 -60 -33 -151 -133 -195 -41 -19 -68 -23 -155 -23 -157 -1 -254 21 -169 38 17 3 44 15 60 27 83 59 77 202 -9 238 -80 33 -141 -58 -69 -103 21 -13 34 -1 18 17 -15 19 -3 47 20 47 10 0 26 -11 35 -25 35 -54 -21 -142 -104 -164 -94 -25 -212 -7 -212 31 0 11 -11 30 -25 43 -43 43 -108 27 -140 -35 -12 -23 -20 -28 -47 -26 -18 2 -45 4 -60 5 -27 1 -28 2 -28 64 0 77 -24 133 -75 174 -65 54 -151 52 -195 -4 -45 -57 -1 -153 70 -153 35 0 90 46 90 76 0 15 -4 14 -27 -8 -40 -37 -66 -42 -94 -19 l-24 19 21 29 c32 43 69 58 105 42 54 -22 72 -87 48 -174 -14 -52 -36 -75 -69 -75 -15 0 -92 -33 -171 -73 l-145 -72 14 50 c22 84 2 178 -52 243 -44 51 -51 43 -52 -55 0 -105 -21 -170 -89 -279 -71 -114 -145 -295 -145 -355 0 -30 26 -22 40 11 17 40 22 33 9 -11 -10 -32 -14 -34 -52 -35 -23 0 -78 -2 -121 -4 l-79 -3 -14 44 c-17 60 -16 61 12 9 13 -25 24 -38 25 -30 0 13 1 13 10 0 16 -24 12 3 -15 94 -31 106 -67 186 -132 293 -63 102 -87 186 -81 282 4 80 -5 89 -48 46 -57 -57 -84 -191 -55 -268 6 -16 11 -30 11 -31 0 -2 -55 25 -122 60 -134 70 -169 84 -204 84 -30 0 -51 33 -66 102 -10 48 -9 59 8 94 33 67 91 77 144 24 28 -28 26 -58 -6 -70 -29 -11 -60 0 -86 34 -23 29 -33 14 -14 -21 15 -30 53 -53 86 -53 10 0 32 12 49 26 26 21 31 33 31 68 0 47 -23 76 -73 95 -39 15 -55 14 -103 -8z m139 -53 c29 -39 18 -39 -23 1 -25 24 -29 32 -16 30 11 -2 28 -16 39 -31z m1297 29 c0 -1 -13 -15 -30 -30 -33 -31 -42 -19 -10 13 17 17 40 27 40 17z m177 -232 c-9 -100 -24 -142 -56 -150 -28 -7 -71 -42 -71 -58 0 -6 8 -3 18 6 10 9 33 20 50 23 28 6 32 4 32 -15 0 -47 -45 -103 -107 -135 -17 -8 -77 -29 -134 -45 -101 -30 -148 -54 -157 -80 -3 -10 3 -10 24 3 33 18 179 56 217 56 24 0 53 -24 59 -49 2 -8 -8 -15 -26 -18 -60 -9 -58 -20 4 -26 39 -3 73 -13 89 -25 32 -24 40 -75 16 -102 -17 -19 -18 -18 -54 10 -39 32 -129 56 -146 39 -5 -6 -5 -9 2 -9 13 0 53 -61 53 -81 0 -16 -70 -59 -95 -59 -36 0 -77 32 -95 75 -10 24 -28 48 -39 54 -51 28 -171 1 -216 -49 -16 -18 -18 -18 -51 -2 -18 9 -34 20 -34 23 -1 29 214 313 292 385 24 22 75 55 113 74 140 66 195 89 195 81 0 -19 -124 -123 -238 -200 -140 -95 -214 -160 -276 -240 -52 -68 -82 -124 -35 -66 51 63 161 167 220 206 30 20 99 66 155 102 167 109 258 227 271 353 6 58 7 59 16 24 5 -19 7 -66 4 -105z m-1181 51 c2 -103 21 -161 119 -361 100 -204 127 -271 77 -194 -16 25 -75 106 -130 179 -56 74 -108 153 -116 178 -19 54 -21 150 -4 189 17 38 39 73 47 73 3 0 7 -29 7 -64z m707 5 c29 -66 28 -151 -5 -221 -14 -30 -60 -100 -102 -155 -43 -55 -95 -127 -117 -159 -21 -33 -39 -56 -39 -51 0 18 75 181 121 263 62 109 89 194 96 299 6 91 14 95 46 24z m-1408 -31 c73 -81 -67 -207 -156 -141 -32 24 -35 22 -16 -10 10 -18 9 -23 -3 -27 -8 -3 -32 -22 -54 -44 -21 -21 -40 -38 -42 -38 -2 0 -4 11 -4 25 0 52 61 141 115 171 19 10 35 24 35 31 0 7 9 22 20 33 27 27 81 26 105 0z m2167 3 c10 -9 18 -24 18 -33 0 -10 13 -23 30 -30 57 -24 120 -116 120 -175 0 -33 -12 -32 -33 4 -9 16 -31 35 -47 43 -31 13 -37 23 -20 33 6 3 10 13 10 21 0 12 -5 11 -26 -5 -45 -36 -122 -20 -158 31 -24 34 -21 94 6 112 29 21 77 20 100 -1z m-3382 -158 c13 -14 21 -25 18 -25 -2 0 -15 11 -28 25 -13 14 -21 25 -18 25 2 0 15 -11 28 -25z m4498 -5 c-22 -30 -35 -41 -22 -17 9 16 36 47 41 47 2 0 -6 -13 -19 -30z m-3724 -95 c-31 -76 -9 -190 41 -213 22 -10 25 -9 31 13 7 29 47 43 69 25 16 -13 20 -57 7 -76 -12 -18 -49 -34 -77 -34 -98 0 -155 137 -104 249 30 68 60 100 33 36z m2977 -29 c22 -49 25 -133 5 -181 -17 -41 -68 -75 -112 -75 -64 0 -107 66 -68 104 24 25 52 19 69 -14 13 -26 19 -29 35 -20 47 25 69 119 47 192 -18 57 -3 53 24 -6z m-3463 -108 c7 -7 12 -29 12 -49 0 -46 -33 -77 -117 -110 -49 -20 -76 -24 -178 -24 -137 0 -178 14 -234 82 -40 49 -40 66 0 25 81 -83 251 -62 389 47 54 43 103 54 128 29z m3658 -156 c33 -130 45 -267 28 -309 -25 -63 -69 -30 -51 38 7 31 6 44 -7 63 -11 18 -13 32 -7 48 23 61 22 123 -4 223 -14 55 -25 102 -25 105 2 22 46 -91 66 -168z m347 157 c12 -7 38 -25 57 -42 107 -93 284 -113 370 -41 44 37 37 11 -10 -36 -55 -55 -124 -74 -249 -67 -158 8 -271 65 -271 136 0 53 50 77 103 50z m-3963 -104 c0 -29 -62 -83 -135 -118 -42 -20 -78 -44 -81 -52 -12 -30 -24 -14 -24 30 0 44 0 44 43 55 83 22 128 43 155 75 27 32 42 36 42 10z m3963 -63 c32 -12 67 -22 78 -22 25 0 44 -40 35 -76 l-7 -27 -22 21 c-12 11 -54 37 -93 56 -72 37 -111 69 -114 96 -5 35 2 36 33 6 17 -18 58 -43 90 -54z m-1939 -114 c50 -15 119 -82 135 -131 11 -32 10 -39 -10 -67 -13 -17 -23 -45 -23 -63 0 -31 -3 -34 -42 -43 -37 -9 -44 -7 -62 13 -19 22 -26 23 -108 18 -68 -4 -93 -10 -109 -25 -14 -13 -25 -16 -35 -10 -8 5 -25 10 -37 10 -19 0 -23 5 -23 34 0 22 -9 45 -25 64 -22 27 -24 33 -13 63 18 53 54 101 95 126 32 19 52 23 127 23 49 0 107 -6 130 -12z m2244 -111 c31 -28 52 -77 52 -120 0 -47 -53 -148 -106 -202 -79 -82 -160 -103 -241 -64 -39 19 -46 20 -61 6 -27 -23 -60 -29 -96 -17 -39 13 -118 93 -143 144 -16 35 -16 37 6 81 18 37 20 49 11 60 -7 8 -19 15 -26 15 -18 0 -17 4 1 40 19 37 43 50 91 50 49 0 92 -30 140 -99 56 -78 113 -140 148 -158 38 -20 114 -20 154 1 112 58 123 228 18 278 l-41 19 35 -5 c19 -4 45 -16 58 -29z m-137 -10 c-10 -9 -11 -8 -5 6 3 10 9 15 12 12 3 -3 0 -11 -7 -18z m-2475 -85 c51 -41 57 -88 12 -97 -38 -8 -68 -32 -68 -52 0 -11 7 -9 29 6 58 41 75 43 125 9 25 -16 46 -33 46 -38 0 -4 -18 -10 -40 -14 -76 -12 -143 -95 -156 -193 -8 -60 -27 -73 -106 -73 -48 0 -55 3 -93 43 -94 98 -91 270 6 351 83 70 198 97 245 58z m663 3 c105 -37 181 -130 181 -220 0 -87 -46 -187 -101 -219 -31 -18 -107 -21 -142 -5 -19 9 -26 21 -31 55 -13 101 -96 194 -171 194 -14 0 -25 4 -25 8 0 13 41 49 75 66 28 15 32 14 82 -14 29 -17 53 -26 53 -22 0 17 -41 51 -70 57 -24 5 -30 12 -30 33 0 15 12 38 27 54 31 33 84 37 152 13z m-317 -111 c26 -13 26 -16 14 -45 -7 -16 -26 -37 -42 -45 -16 -9 -36 -22 -45 -30 -15 -13 -17 -13 -22 0 -3 8 -24 24 -45 35 -51 26 -61 58 -26 89 22 19 32 21 82 16 31 -4 69 -13 84 -20z m1522 -36 c6 -4 28 -8 49 -8 20 0 37 -1 37 -2 0 -2 -11 -38 -25 -81 -27 -90 -47 -118 -164 -239 -46 -49 -80 -88 -75 -88 20 0 113 71 141 107 33 43 113 182 130 228 6 17 14 48 18 69 l7 40 18 -41 c26 -59 13 -152 -34 -248 -68 -138 -199 -225 -351 -233 -76 -4 -83 -3 -112 22 -34 29 -49 72 -37 108 7 21 9 20 14 -11 7 -48 46 -76 86 -61 75 28 116 101 153 268 23 104 41 149 77 191 l27 32 15 -23 c9 -13 21 -26 26 -30z"/>
<path d="M470 1422 c0 -15 38 -35 53 -28 8 3 7 5 -2 5 -8 1 -23 8 -33 18 -10 9 -18 11 -18 5z"/>
</g>
</svg>