<svg xmlns="http://www.w3.org/2000/svg" version="1.0" preserveAspectRatio="xMidYMid meet" viewBox="0.84 78.04 298.35 143.46">
<metadata>
Created by potrace 1.10, written by Peter Selinger 2001-2011
</metadata>
<g transform="translate(0.000000,300.000000) scale(0.100000,-0.100000)" fill="#000000" stroke="none">
<path d="M1474 2205 c-8 -19 3 -35 26 -35 19 0 34 25 24 41 -8 14 -44 10 -50 -6z"/>
<path d="M1416 2171 c-4 -5 -1 -11 6 -13 10 -4 21 -78 12 -78 -1 0 -14 4 -28 10 -19 7 -30 5 -48 -10 l-23 -19 34 -1 c19 0 31 -3 28 -7 -13 -12 26 -43 55 -43 27 0 31 6 29 40 0 11 1 11 5 2 5 -10 9 -10 20 -1 12 10 14 7 12 -12 -3 -20 2 -25 25 -27 35 -4 75 26 55 40 -8 6 1 8 25 6 43 -5 47 5 13 27 -17 11 -30 13 -47 6 -23 -8 -24 -7 -25 30 -1 27 3 39 15 42 14 3 14 5 -2 12 -19 8 -57 -19 -57 -41 0 -7 -9 -12 -20 -11 -11 1 -20 6 -20 13 0 14 -33 44 -48 44 -6 0 -13 -4 -16 -9z"/>
<path d="M898 1984 c-9 -19 -9 -33 -1 -55 11 -28 10 -29 -15 -23 -15 4 -37 13 -49 20 -32 20 -29 0 3 -33 19 -19 21 -24 7 -18 -29 11 -133 22 -133 13 0 -15 60 -38 101 -38 l42 0 -39 -34 c-27 -24 -46 -33 -60 -29 -12 2 -25 0 -28 -5 -3 -5 2 -9 11 -8 12 1 17 -7 17 -29 1 -23 6 -30 21 -30 16 0 20 7 20 32 0 41 18 61 39 44 11 -9 20 -10 35 -1 25 13 27 5 5 -17 -17 -17 -15 -54 3 -60 6 -2 14 5 18 16 3 11 9 20 13 18 4 -1 21 3 37 10 17 6 45 15 63 19 30 8 32 11 19 28 -8 11 -34 23 -58 27 l-44 8 51 -3 c34 -2 51 1 50 8 -3 19 -68 95 -80 93 -19 -4 -19 46 0 60 16 12 15 13 -9 13 -20 0 -31 -7 -39 -26z m97 -120 c29 -13 15 -13 -34 1 -22 7 -49 -29 -31 -40 16 -10 12 -25 -7 -25 -22 0 -53 29 -53 49 0 37 61 44 125 15z"/>
<path d="M2054 1997 c20 -14 19 -64 -1 -60 -6 2 -26 -15 -43 -37 -18 -22 -30 -40 -28 -40 1 0 23 6 48 14 38 11 49 11 73 0 31 -17 32 -22 12 -50 -13 -19 -12 -22 11 -35 21 -11 27 -11 33 0 15 24 46 -3 46 -41 0 -26 4 -33 20 -33 15 0 20 7 21 30 0 22 5 30 17 29 9 -1 14 3 11 8 -3 5 -16 7 -28 5 -14 -4 -33 5 -60 29 l-39 34 42 0 c41 0 101 23 101 38 0 9 -104 -2 -133 -13 -14 -6 -12 -1 7 18 32 33 35 53 4 33 -13 -7 -35 -16 -50 -20 -26 -6 -27 -5 -16 18 16 38 -6 86 -40 86 -24 0 -24 -1 -8 -13z"/>
<path d="M1227 1960 c-35 -27 -43 -70 -22 -114 10 -20 21 -34 25 -31 5 3 11 -1 14 -7 3 -7 3 1 0 19 -3 17 0 34 5 38 16 9 13 35 -2 35 -8 0 -19 -10 -25 -22 -10 -22 -11 -22 -11 -2 -1 28 18 44 51 44 30 0 39 25 16 48 -16 16 -21 15 -51 -8z"/>
<path d="M1457 1950 c-17 -29 -17 -31 3 -72 11 -25 18 -32 15 -18 -16 73 -17 85 -6 70 8 -12 11 -8 11 18 0 17 -1 32 -3 32 -1 0 -11 -13 -20 -30z"/>
<path d="M1723 1973 c-7 -2 -13 -15 -13 -28 0 -19 6 -24 33 -27 30 -3 32 -6 34 -43 0 -22 -1 -29 -4 -15 -6 31 -18 44 -33 35 -8 -5 -8 -10 1 -21 7 -8 9 -29 6 -50 -5 -30 -4 -34 8 -24 8 7 12 17 8 23 -3 6 -1 7 5 3 15 -9 32 26 32 69 0 25 -8 43 -25 60 -24 25 -30 27 -52 18z"/>
<path d="M1027 1923 c-5 -35 -1 -41 41 -80 49 -45 80 -59 45 -20 -12 12 -33 48 -47 80 -14 31 -27 57 -29 57 -3 0 -7 -17 -10 -37z"/>
<path d="M1931 1905 c-12 -33 -32 -70 -43 -82 -36 -38 -6 -25 45 20 l48 42 -14 40 -14 40 -22 -60z"/>
<path d="M1532 1906 c-7 -27 -11 -50 -9 -53 8 -8 29 56 25 78 -2 17 -6 10 -16 -25z"/>
<path d="M1334 1875 c-22 -34 -6 -75 30 -75 32 0 53 26 39 48 -14 23 -37 21 -41 -2 -3 -15 0 -18 19 -13 20 6 21 5 6 -10 -13 -13 -19 -14 -31 -3 -23 18 -20 37 8 56 19 12 29 13 43 5 10 -6 14 -11 9 -11 -5 0 -4 -6 2 -12 20 -25 42 -123 43 -192 1 -39 5 -82 10 -96 5 -16 7 14 5 86 -3 84 -8 121 -24 157 -12 26 -18 47 -15 47 3 0 -2 9 -12 20 -26 29 -71 26 -91 -5z"/>
<path d="M1574 1886 c-10 -8 -16 -17 -12 -21 3 -4 -3 -28 -15 -53 -16 -36 -21 -72 -23 -157 -3 -90 -2 -103 7 -70 5 22 8 48 5 58 -6 26 12 142 29 183 8 19 15 38 15 42 5 28 54 22 70 -8 12 -23 -13 -52 -37 -43 -13 5 -12 8 6 15 25 9 24 31 -1 36 -19 4 -31 -37 -16 -55 16 -19 56 -16 68 6 29 54 -44 105 -96 67z"/>
<path d="M1491 1669 c-1 -193 -2 -207 -21 -224 -11 -10 -20 -26 -20 -37 0 -10 9 -27 20 -38 16 -16 20 -33 20 -81 0 -37 4 -58 10 -54 6 3 10 32 10 63 0 45 4 61 20 75 24 20 25 36 6 63 -13 17 -12 22 12 47 28 29 64 35 107 15 24 -11 29 -8 62 24 l36 36 -63 -5 c-46 -5 -61 -3 -56 5 13 21 -19 13 -54 -13 -40 -29 -41 -30 -34 -10 4 8 10 12 15 9 5 -3 6 3 3 13 -5 15 -4 16 6 3 9 -12 10 -11 5 7 -4 14 0 32 9 45 21 29 21 77 0 85 -24 9 -38 -11 -24 -34 10 -15 9 -29 -3 -69 -19 -62 -42 -122 -48 -128 -2 -2 -3 73 -1 168 2 96 -1 189 -6 207 -8 25 -10 -21 -11 -172z m29 -284 c-18 -21 -38 -18 -51 8 -11 20 -11 21 4 8 21 -16 47 -8 48 16 1 17 2 17 6 0 3 -10 -1 -24 -7 -32z"/>
<path d="M2017 1860 c-16 -5 -34 -7 -40 -6 -7 1 -9 1 -4 -1 4 -3 5 -8 2 -12 -2 -5 19 -7 48 -5 l52 3 -44 -8 c-24 -4 -50 -16 -58 -27 -12 -17 -11 -20 14 -27 79 -22 99 -31 114 -50 17 -20 39 -16 39 7 0 26 -41 66 -67 66 -24 0 -25 1 -10 18 13 14 13 20 3 35 -7 9 -15 17 -17 16 -2 0 -17 -5 -32 -9z"/>
<path d="M1132 1825 c2 -17 12 -35 23 -42 32 -19 40 -15 18 10 -11 12 -26 31 -32 42 -10 18 -11 17 -9 -10z"/>
<path d="M1838 1810 c-29 -41 -27 -48 7 -27 16 9 36 68 23 67 -2 -1 -15 -19 -30 -40z"/>
<path d="M1045 1821 c-9 -16 3 -31 26 -31 14 0 19 6 17 17 -4 20 -33 29 -43 14z"/>
<path d="M1917 1823 c-14 -13 -6 -33 12 -33 19 0 35 23 24 34 -8 8 -28 8 -36 -1z"/>
<path d="M1190 1795 c22 -26 -1 -38 -41 -21 -31 13 -42 13 -104 -4 -48 -13 -77 -27 -92 -45 -26 -30 -30 -81 -9 -110 17 -23 46 -13 46 15 0 12 -4 18 -10 15 -23 -14 1 37 33 73 62 67 234 35 350 -65 25 -22 15 -9 -23 31 -66 69 -135 126 -153 126 -5 0 -4 -7 3 -15z"/>
<path d="M1780 1793 c-38 -25 -127 -108 -157 -145 l-28 -33 42 37 c114 101 288 134 350 66 32 -36 56 -87 33 -73 -5 3 -10 -3 -10 -15 0 -28 29 -38 46 -15 34 47 -1 127 -63 145 -66 19 -128 23 -152 10 -30 -15 -51 1 -31 25 17 20 1 19 -30 -2z"/>
<path d="M642 1768 c-7 -7 -12 -29 -12 -50 0 -21 -4 -38 -10 -38 -5 0 -10 7 -10 15 0 8 -5 15 -11 15 -8 0 -10 -20 -6 -66 4 -59 3 -63 -10 -45 -17 25 -55 27 -73 6 -10 -12 -9 -15 7 -15 25 0 75 -53 103 -108 l21 -44 -44 26 c-24 14 -47 23 -50 19 -4 -3 -7 -2 -7 4 0 13 -72 7 -162 -14 -88 -20 -127 -12 -135 29 -5 26 -7 28 -16 13 -12 -23 7 -59 40 -74 35 -16 99 -14 136 5 l32 17 -33 -37 c-17 -20 -32 -47 -32 -59 0 -25 -48 -70 -67 -63 -7 3 -13 1 -13 -4 0 -6 12 -10 27 -10 25 0 25 -1 10 -18 -25 -28 -20 -34 13 -17 16 8 32 14 36 13 13 -7 23 31 15 59 -19 66 48 133 130 133 l44 -1 -32 -14 c-31 -13 -43 -38 -24 -49 4 -3 17 1 27 9 27 20 64 18 99 -6 17 -12 21 -18 10 -13 -93 35 -172 -16 -135 -87 11 -20 64 -27 75 -9 4 6 -5 7 -23 4 -60 -12 -70 62 -12 86 46 19 102 -2 164 -60 68 -64 108 -82 186 -86 l65 -4 -55 13 c-78 18 -122 48 -154 107 -22 41 -27 59 -21 88 10 59 15 72 31 72 8 0 14 5 14 10 0 13 -36 13 -60 0 -10 -5 -23 -25 -30 -44 -14 -45 3 -88 62 -152 26 -29 35 -43 21 -36 -63 34 -145 181 -151 274 -3 33 -1 63 4 68 5 5 9 -15 10 -48 0 -31 6 -75 14 -97 l13 -40 14 50 c8 28 25 64 38 81 13 17 21 34 18 38 -4 3 3 6 15 6 26 0 29 15 5 24 -10 4 -28 -1 -44 -13 l-28 -21 5 38 c3 20 7 45 9 55 6 29 -15 19 -31 -15 l-14 -33 6 40 c7 43 33 80 41 57 3 -6 9 -10 13 -7 5 3 7 12 3 20 -6 18 -54 20 -71 3z"/>
<path d="M2287 1765 c-4 -8 -2 -17 3 -20 4 -3 10 1 13 7 8 23 34 -14 40 -57 l5 -40 -16 33 c-8 17 -18 32 -21 32 -8 0 -4 -71 5 -95 7 -19 6 -19 -12 -3 -19 16 -37 22 -61 19 -21 -2 -14 -21 7 -21 11 0 19 -3 18 -7 -2 -5 8 -25 21 -46 13 -21 29 -57 36 -80 l12 -41 18 67 c10 38 15 79 12 97 -4 19 -3 29 3 25 15 -9 12 -89 -6 -141 -20 -60 -14 -65 16 -11 31 56 79 107 103 107 16 0 17 3 7 15 -16 19 -49 19 -71 0 -16 -15 -16 -13 -12 29 3 25 3 53 -1 62 -6 16 -8 16 -21 -2 -13 -18 -14 -16 -15 22 0 22 -5 45 -12 52 -17 17 -65 15 -71 -3z"/>
<path d="M296 1724 c-10 -10 -15 -29 -13 -56 3 -36 8 -45 40 -65 l38 -24 -7 28 c-13 54 -24 74 -35 67 -8 -5 -10 4 -7 30 5 41 5 41 -16 20z"/>
<path d="M2688 1702 c3 -24 1 -33 -7 -28 -11 7 -22 -13 -35 -67 l-7 -28 38 24 c30 19 38 31 40 58 2 42 -4 66 -20 72 -9 3 -12 -5 -9 -31z"/>
<path d="M1059 1691 c-21 -21 -29 -39 -29 -65 0 -35 20 -63 20 -29 1 10 8 29 16 43 8 14 13 17 10 8 -7 -24 5 -23 48 7 39 26 42 25 25 -7 -15 -28 -3 -35 23 -12 12 10 18 13 14 6 -7 -11 1 -12 37 -7 62 9 100 -1 152 -41 59 -44 57 -30 -2 28 -66 65 -141 98 -221 98 -57 0 -67 -3 -93 -29z"/>
<path d="M1725 1692 c-33 -16 -80 -50 -105 -76 -52 -54 -48 -58 14 -15 49 35 120 48 155 30 18 -10 21 -9 21 6 1 17 1 17 11 1 16 -29 32 -21 25 12 l-6 30 22 -20 c12 -11 25 -20 29 -20 4 0 15 -3 25 -7 13 -5 15 -3 9 8 -6 11 -5 11 5 2 7 -6 13 -23 13 -38 0 -15 4 -24 11 -22 6 2 10 23 9 47 -3 65 -27 84 -110 88 -59 3 -76 -1 -128 -26z"/>
<path d="M1399 1684 c-10 -13 -8 -24 14 -70 30 -61 32 -68 15 -58 -7 4 -8 3 -4 -5 4 -6 12 -9 17 -6 5 4 9 1 9 -6 0 -7 2 -10 5 -7 3 3 -2 25 -10 49 -10 28 -14 58 -10 82 5 29 3 37 -8 37 -8 0 -20 -7 -28 -16z"/>
<path d="M383 1639 c-6 -8 -13 -25 -15 -39 -2 -20 -9 -25 -33 -25 -36 -1 -55 -11 -55 -30 0 -23 18 -27 44 -10 14 9 30 14 36 10 11 -7 32 -10 140 -20 47 -5 61 -4 50 4 -8 6 -31 11 -50 11 -47 0 -58 9 -83 65 -18 38 -25 45 -34 34z"/>
<path d="M2580 1600 c-15 -32 -31 -52 -44 -55 -12 -2 -39 -7 -61 -12 l-40 -7 34 -4 c52 -5 97 6 130 34 18 15 32 20 36 14 3 -5 -6 -15 -21 -20 -15 -6 -25 -13 -22 -16 3 -2 18 0 33 6 22 8 33 7 52 -5 25 -17 43 -13 43 10 0 19 -17 28 -54 29 -26 1 -32 5 -34 28 -6 53 -27 52 -52 -2z"/>
<path d="M1007 1633 c-12 -11 -7 -63 8 -93 17 -33 80 -70 119 -70 31 0 86 45 86 71 0 25 -37 44 -56 28 -18 -15 -18 -29 1 -29 25 0 17 -18 -15 -35 -36 -19 -60 -20 -35 -2 26 20 10 37 -29 30 -47 -7 -80 25 -74 73 4 37 4 37 -5 27z"/>
<path d="M1988 1594 c-10 -47 -35 -67 -75 -61 -38 7 -54 -10 -28 -30 25 -18 1 -17 -35 2 -32 17 -40 35 -15 35 22 0 18 18 -6 31 -28 15 -54 -9 -46 -43 9 -34 56 -57 122 -60 50 -3 59 0 73 20 l16 24 -35 -21 c-46 -28 -71 -27 -29 2 48 32 72 69 68 103 l-3 29 -7 -31z"/>
<path d="M857 1560 c-19 -16 -40 -43 -47 -60 -15 -36 -9 -155 8 -172 9 -9 9 -4 2 23 -29 99 12 195 95 224 l40 14 -32 1 c-22 0 -43 -10 -66 -30z"/>
<path d="M2085 1575 c87 -31 122 -127 90 -242 -3 -10 1 -4 9 12 19 38 20 116 2 158 -19 47 -70 87 -109 87 l-32 -1 40 -14z"/>
<path d="M32 1557 c-34 -36 -31 -106 7 -146 16 -17 43 -34 60 -37 31 -7 31 -7 11 -21 -30 -21 -24 -67 10 -71 20 -2 22 -1 10 7 -13 9 -12 14 9 33 13 13 21 17 17 11 -10 -18 22 -17 56 1 23 12 26 12 21 0 -6 -16 13 -19 22 -4 3 6 10 10 15 10 5 0 -2 -16 -15 -36 -18 -26 -25 -50 -25 -83 0 -40 5 -50 35 -79 38 -34 66 -40 84 -18 10 12 8 13 -8 9 -24 -6 -54 14 -47 32 2 7 -1 18 -7 24 -8 8 -7 11 6 11 25 0 21 18 -9 43 l-26 23 18 39 c9 22 16 43 16 47 -1 4 14 20 34 36 l35 29 -52 -5 c-48 -4 -54 -3 -75 23 -21 27 -44 27 -44 1 0 -24 28 -38 75 -38 58 0 54 -5 -14 -18 -44 -8 -55 -7 -68 6 -11 10 -26 14 -44 10 -22 -4 -32 0 -49 21 -15 20 -17 29 -9 39 9 11 7 15 -6 21 -12 4 -23 0 -31 -12 -13 -18 -14 -17 -14 6 0 30 17 49 42 49 24 0 34 26 18 45 -17 21 -33 19 -58 -8z"/>
<path d="M2910 1565 c-16 -19 -6 -45 18 -45 25 0 42 -19 42 -49 0 -23 -1 -24 -14 -6 -8 12 -19 16 -31 12 -14 -6 -15 -10 -5 -22 11 -13 9 -20 -10 -40 -15 -16 -30 -23 -41 -20 -10 3 -29 3 -44 -1 -20 -5 -24 -9 -13 -16 15 -11 -72 -1 -106 12 -15 6 -8 8 27 8 49 0 77 14 77 38 0 26 -23 26 -48 -1 -22 -24 -31 -27 -72 -23 l-47 5 33 -29 c19 -16 33 -33 32 -36 -1 -4 6 -23 15 -42 16 -37 9 -66 -19 -77 -19 -7 -18 -33 3 -33 14 0 14 -3 -3 -22 -10 -12 -13 -18 -6 -14 6 4 12 3 12 -3 0 -15 -39 -34 -56 -27 -8 3 -14 1 -14 -3 0 -10 24 -21 45 -21 8 0 30 15 50 32 30 28 35 39 35 76 0 47 -10 73 -44 111 l-21 25 27 -17 c34 -21 42 -21 34 -2 -5 14 -4 14 16 0 28 -19 72 -21 62 -2 -4 6 4 2 17 -11 21 -19 22 -24 9 -33 -12 -8 -10 -9 10 -7 34 4 40 50 10 71 -20 14 -20 14 11 21 17 3 44 20 60 37 39 41 41 114 6 147 -27 26 -40 27 -57 7z"/>
<path d="M912 1554 c-23 -16 -29 -39 -13 -49 9 -5 45 54 38 61 -2 2 -13 -3 -25 -12z"/>
<path d="M1360 1559 c11 -8 -1 -9 -47 -6 -69 6 -74 -4 -21 -43 25 -19 34 -20 55 -11 40 18 75 13 105 -16 25 -24 28 -25 28 -7 0 10 -4 24 -8 29 -15 20 -89 65 -108 65 -16 0 -17 -2 -4 -11z"/>
<path d="M2072 1535 c12 -26 38 -34 38 -12 0 17 -20 37 -37 37 -10 0 -10 -5 -1 -25z"/>
<path d="M2215 1521 c-3 -5 5 -11 17 -13 15 -2 23 -10 24 -23 1 -11 4 -32 8 -47 9 -31 -20 -103 -52 -132 -12 -10 -19 -24 -15 -30 3 -6 3 -8 -2 -4 -4 4 -17 2 -29 -4 -11 -7 -46 -18 -76 -25 l-55 -13 65 4 c78 4 116 22 188 87 64 59 122 80 160 58 58 -33 54 -85 -7 -83 -17 1 -28 -2 -25 -7 3 -5 19 -9 35 -9 22 0 32 7 41 26 29 62 -55 115 -127 81 -44 -21 -45 -13 -2 13 39 24 74 26 98 4 10 -9 23 -13 28 -9 21 12 11 36 -20 49 l-31 13 28 6 c41 9 112 -29 134 -71 14 -25 16 -41 9 -64 -5 -19 -5 -37 1 -47 5 -9 10 -12 10 -7 0 5 8 2 18 -6 9 -8 25 -18 36 -22 18 -6 18 -5 2 19 -16 24 -16 25 3 25 11 0 23 4 26 10 3 5 0 7 -8 5 -19 -8 -67 37 -67 62 0 12 -12 36 -27 54 -23 27 -25 31 -8 24 33 -14 111 -18 134 -6 31 17 53 55 44 77 -6 17 -8 16 -13 -6 -3 -14 -18 -31 -32 -39 -23 -13 -34 -13 -100 2 -109 26 -186 21 -242 -16 -11 -8 -24 -14 -28 -13 -3 1 -25 -27 -48 -61 -23 -35 -56 -72 -73 -84 -32 -22 -32 -22 5 17 54 57 81 123 67 163 -6 17 -19 36 -29 41 -24 13 -57 13 -65 1z"/>
<path d="M1021 1489 c12 -23 31 -32 53 -27 10 2 1 11 -24 25 -38 20 -39 20 -29 2z"/>
<path d="M1298 1454 c-38 -19 -68 -41 -68 -49 0 -17 16 -20 25 -5 3 6 12 10 18 10 19 -1 -25 -30 -44 -30 -25 0 -53 -30 -40 -43 7 -7 16 -6 27 4 15 12 17 12 12 -1 -7 -22 -56 -43 -114 -48 -65 -5 -94 9 -94 48 0 30 -22 42 -35 20 -13 -21 8 -53 48 -71 49 -22 23 -26 -28 -5 -19 8 -40 26 -47 40 -12 29 -28 34 -28 11 0 -8 -4 -15 -9 -15 -12 0 -33 55 -29 77 4 23 38 30 38 8 0 -21 34 -16 38 6 9 46 -69 65 -106 26 -35 -38 -30 -98 12 -145 34 -37 35 -37 113 -37 43 0 92 3 108 8 28 7 29 6 11 -8 -80 -62 -102 -103 -72 -133 15 -15 16 -14 16 10 0 17 6 27 19 31 11 3 27 21 35 41 16 39 27 48 19 16 -9 -36 11 -21 45 33 18 28 32 43 30 33 -7 -44 21 -22 52 41 27 54 35 63 40 48 5 -16 8 -12 14 17 4 23 18 46 37 62 34 29 58 33 79 14 12 -11 12 -10 1 5 -19 25 -47 21 -123 -19z"/>
<path d="M1583 1483 c-7 -2 -13 -10 -13 -16 0 -8 4 -7 12 1 31 31 88 -6 113 -73 9 -22 13 -30 11 -17 -7 36 9 17 43 -53 18 -36 36 -65 42 -65 16 0 10 36 -12 64 -11 14 -16 26 -10 26 5 0 13 -4 16 -10 10 -17 25 -11 25 9 0 19 -18 31 -49 31 -10 0 -26 10 -37 22 l-19 21 26 -16 c24 -16 39 -14 39 5 0 11 -136 78 -157 77 -10 0 -24 -3 -30 -6z"/>
<path d="M1374 1452 c4 -8 2 -10 -7 -6 -18 6 -27 -7 -38 -53 -9 -41 -3 -63 17 -63 11 0 14 11 11 48 -3 26 -2 36 0 22 3 -14 9 -31 15 -37 15 -18 47 -16 55 2 8 22 -6 33 -18 15 -8 -13 -12 -12 -24 5 -19 24 -15 37 16 52 13 7 19 13 12 13 -6 0 -19 3 -29 7 -12 4 -15 3 -10 -5z"/>
<path d="M1595 1450 c-19 -7 -19 -7 3 -14 14 -5 22 -15 22 -31 0 -24 -26 -42 -32 -23 -3 7 -10 8 -17 4 -9 -6 -9 -11 0 -22 15 -18 34 -18 53 2 15 14 16 13 16 -10 0 -16 6 -26 15 -26 24 0 20 73 -6 101 -11 13 -18 17 -14 9 5 -12 4 -12 -7 1 -8 10 -20 14 -33 9z"/>
<path d="M2040 1445 c-6 -8 -10 -22 -8 -32 4 -23 38 -30 38 -8 0 22 34 15 38 -8 4 -21 -16 -77 -28 -77 -4 0 -10 10 -14 23 -6 21 -7 21 -22 -10 -9 -17 -31 -39 -49 -47 -47 -23 -67 -19 -23 4 50 27 65 80 22 80 -9 0 -14 -11 -14 -30 0 -20 -7 -33 -21 -41 -23 -12 -109 -8 -143 6 -18 8 -18 6 3 -31 33 -58 50 -78 58 -70 4 4 2 17 -5 29 -12 20 -11 20 8 -2 11 -13 20 -29 20 -37 0 -7 11 -21 25 -30 14 -9 25 -26 25 -38 1 -21 1 -21 15 -2 8 11 12 29 9 40 -6 21 -64 81 -100 103 -12 7 0 6 30 -3 76 -22 156 -18 197 9 60 40 77 111 38 161 -23 30 -78 36 -99 11z"/>
<path d="M1082 1398 c-17 -17 -15 -24 9 -47 l22 -20 -28 2 c-16 1 -30 -4 -33 -12 -4 -11 2 -12 24 -6 16 5 39 9 51 9 11 1 18 5 15 11 -4 6 -7 24 -7 40 0 22 -5 31 -20 33 -11 1 -26 -3 -33 -10z"/>
<path d="M1860 1395 c-10 -12 -10 -18 0 -30 11 -13 10 -18 -6 -30 -29 -22 -4 -18 34 5 24 15 32 27 30 43 -4 27 -39 35 -58 12z"/>
<path d="M2580 1377 c0 -10 -7 -28 -16 -41 -16 -26 -5 -43 21 -32 17 6 20 53 5 76 -8 13 -10 12 -10 -3z"/>
<path d="M404 1366 c-10 -25 0 -61 19 -64 21 -4 23 24 2 45 -8 8 -13 19 -10 24 4 5 4 9 0 9 -3 0 -8 -6 -11 -14z"/>
<path d="M532 1333 c5 -25 28 -28 28 -4 0 12 -6 21 -16 21 -9 0 -14 -7 -12 -17z"/>
<path d="M1471 1343 c0 -7 -16 -16 -33 -21 -18 -5 -32 -14 -31 -20 4 -15 -35 -35 -54 -28 -9 4 -13 1 -11 -6 8 -24 57 -34 86 -17 31 17 56 61 49 87 -3 9 -5 12 -6 5z"/>
<path d="M2434 1339 c-10 -17 13 -36 27 -22 12 12 4 33 -11 33 -5 0 -12 -5 -16 -11z"/>
<path d="M1520 1321 c0 -11 12 -33 26 -50 31 -37 72 -41 100 -10 19 21 19 22 -2 15 -30 -9 -54 3 -54 27 0 11 -3 18 -6 14 -4 -3 -19 0 -35 9 -27 14 -29 13 -29 -5z"/>
<path d="M1902 1331 c-10 -6 -8 -10 9 -14 26 -7 42 0 34 14 -8 11 -26 11 -43 0z"/>
<path d="M1268 1300 c-18 -58 4 -100 51 -100 25 0 39 26 22 43 -8 8 -11 7 -11 -6 0 -20 -23 -23 -38 -4 -6 7 -12 30 -14 52 -3 35 -4 37 -10 15z"/>
<path d="M1718 1288 c3 -24 -2 -40 -13 -52 -19 -19 -42 -16 -37 5 3 11 1 11 -9 2 -18 -18 -3 -43 25 -43 45 0 72 65 43 104 -12 16 -13 14 -9 -16z"/>
<path d="M1441 1228 c-18 -21 -40 -38 -47 -38 -8 0 -14 -5 -14 -11 0 -6 7 -9 14 -6 27 11 1 -36 -32 -59 -25 -17 -29 -23 -16 -28 57 -22 119 21 129 88 4 23 5 53 3 67 -3 24 -4 23 -37 -13z"/>
<path d="M1520 1222 c0 -92 37 -142 102 -142 42 0 52 16 20 29 -16 7 -34 24 -41 37 -14 32 -14 35 4 28 8 -4 15 -1 15 5 0 6 -6 11 -14 11 -7 0 -30 18 -50 40 l-36 40 0 -48z"/>
<path d="M1231 1249 c-1 -9 -8 -22 -16 -29 -32 -26 -8 -68 30 -54 8 4 15 14 15 23 -1 23 -28 80 -29 60z"/>
<path d="M1750 1226 c-5 -15 -10 -33 -10 -41 0 -19 25 -26 45 -11 16 11 16 14 -4 46 l-20 34 -11 -28z"/>
<path d="M995 1224 c-27 -8 -80 -16 -116 -17 -41 -1 -65 -6 -62 -12 2 -7 -19 -10 -59 -9 l-62 1 25 -19 c18 -16 34 -19 67 -15 32 3 41 2 33 -6 -38 -38 19 -35 62 3 41 35 54 39 33 8 -18 -25 -21 -74 -6 -83 6 -3 10 2 10 12 0 28 31 68 40 53 6 -9 16 0 33 27 14 21 35 46 48 56 29 19 19 20 -46 1z"/>
<path d="M1968 1215 c17 -14 32 -32 32 -39 0 -7 11 -23 26 -37 22 -21 24 -21 19 -4 -6 16 -3 15 14 -5 12 -14 19 -33 17 -43 -3 -11 0 -17 7 -14 19 6 20 43 2 76 -19 38 -14 39 21 6 41 -38 106 -49 76 -13 -8 10 -1 12 31 10 29 -2 49 3 66 16 l24 19 -66 -2 c-52 -2 -64 0 -60 11 4 11 -2 13 -23 8 -27 -5 -151 15 -199 31 -13 5 -8 -2 13 -20z"/>
<path d="M1466 1092 c-10 -23 -29 -51 -42 -63 -13 -12 -24 -28 -24 -35 0 -14 -28 -27 -41 -18 -5 3 -9 1 -9 -5 0 -23 40 -33 71 -17 l31 15 -4 -44 c-3 -49 -2 -52 21 -31 15 14 16 11 13 -22 -2 -20 1 -48 6 -62 l10 -25 12 30 c6 17 9 45 6 64 -5 33 -5 33 16 15 l21 -19 -5 46 -5 47 31 -13 c23 -9 38 -10 56 -2 l25 10 -23 5 c-13 2 -26 11 -29 20 -4 9 -17 28 -31 42 -14 14 -33 43 -43 65 l-19 40 6 -55 c3 -30 11 -60 16 -67 10 -13 5 -26 -20 -55 -14 -16 -16 -16 -34 7 -18 23 -18 27 -3 86 20 75 15 95 -9 41z"/>
<path d="M1490 1071 c0 -10 -3 -26 -6 -35 -4 -11 -1 -16 10 -16 18 0 23 54 6 65 -5 3 -10 -3 -10 -14z"/>
</g>
</svg>