<svg xmlns="http://www.w3.org/2000/svg" version="1.0" preserveAspectRatio="xMidYMid meet" viewBox="0.09 89 300.07 119.83">
<metadata>
Created by potrace 1.10, written by Peter Selinger 2001-2011
</metadata>
<g transform="translate(0.000000,300.000000) scale(0.100000,-0.100000)" fill="#000000" stroke="none">
<path d="M1475 2074 c-13 -28 -14 -41 -6 -66 15 -42 15 -43 -16 -23 l-26 17 6 -36 c3 -20 15 -48 26 -62 11 -14 23 -41 27 -60 7 -39 24 -46 24 -10 0 13 11 39 24 59 14 20 28 53 32 73 l7 36 -27 -17 c-30 -20 -30 -19 -15 23 8 25 7 38 -6 66 -10 20 -21 36 -25 36 -4 0 -15 -16 -25 -36z m35 -128 c0 -8 -4 -18 -10 -21 -5 -3 -10 3 -10 14 0 12 5 21 10 21 6 0 10 -6 10 -14z"/>
<path d="M1387 1943 c-4 -6 -2 -24 3 -42 5 -17 8 -31 7 -31 -1 0 -29 14 -61 30 -139 71 -296 12 -296 -111 0 -70 78 -127 118 -87 29 29 -1 79 -35 59 -16 -9 -16 -10 5 -11 14 0 22 -5 20 -12 -6 -18 -48 -22 -62 -8 -8 9 -6 11 12 5 l24 -7 -21 21 c-27 27 -28 46 -2 31 29 -15 29 -14 24 34 -6 49 10 88 32 80 8 -4 12 -11 9 -16 -4 -6 -10 -5 -15 3 -11 18 -10 0 1 -26 7 -16 9 -17 9 -3 1 20 47 58 70 58 13 -1 12 -3 -4 -12 -22 -13 -46 -41 -39 -47 2 -3 15 6 28 18 13 12 38 23 57 25 19 2 25 1 14 -1 -24 -6 -55 -32 -55 -47 0 -6 5 -3 11 6 13 23 67 32 104 18 17 -6 43 -23 59 -38 20 -19 27 -22 23 -9 -12 32 3 17 28 -30 l25 -48 -6 45 c-9 66 -73 176 -87 153z"/>
<path d="M1573 1907 c-30 -42 -53 -104 -53 -142 1 -14 7 -7 21 20 22 45 44 72 33 40 -6 -17 -2 -16 22 7 16 15 42 32 59 38 37 14 91 5 104 -18 6 -9 11 -12 11 -6 0 13 -29 40 -50 47 -8 2 -2 3 15 1 16 -3 39 -13 50 -24 25 -24 37 -26 29 -5 -4 9 -18 22 -33 30 -17 9 -20 14 -10 15 23 0 69 -38 69 -58 0 -15 2 -15 10 -2 5 8 10 22 10 30 0 12 -2 12 -9 2 -7 -11 -9 -11 -14 1 -8 22 23 15 35 -7 6 -10 8 -38 5 -62 -5 -47 2 -54 27 -28 22 22 21 -4 -1 -36 -16 -22 -16 -23 1 -17 10 4 15 3 11 -3 -8 -13 -52 -13 -60 0 -3 6 4 14 16 18 20 8 21 9 4 16 -30 11 -51 -17 -37 -49 28 -62 122 -5 122 74 0 123 -157 182 -296 111 -32 -16 -59 -30 -59 -30 0 0 1 18 3 40 2 22 2 40 0 40 -3 0 -18 -19 -35 -43z"/>
<path d="M883 1845 c-65 -30 -92 -75 -75 -124 6 -17 8 -31 3 -31 -9 0 -41 66 -41 85 0 27 -18 16 -25 -15 -10 -44 3 -85 39 -134 l33 -42 -36 18 c-70 36 -151 13 -151 -43 0 -17 4 -19 18 -13 31 16 144 9 180 -10 47 -24 36 -28 -27 -9 -46 13 -64 14 -127 3 -74 -13 -104 -10 -104 11 0 6 7 9 15 5 9 -3 15 0 15 10 0 22 -44 14 -48 -9 -2 -10 5 -25 15 -32 16 -13 15 -14 -19 -15 -47 0 -68 8 -68 27 0 13 3 13 15 3 12 -10 15 -9 15 8 0 11 -7 23 -16 26 -20 8 -44 -10 -44 -33 0 -14 -2 -14 -10 -1 -5 8 -10 32 -10 53 0 40 17 49 40 22 15 -18 40 -20 40 -2 0 43 -77 51 -115 12 -14 -13 -25 -31 -25 -40 0 -25 28 -72 52 -89 12 -9 18 -16 12 -16 -15 0 -61 52 -69 78 -4 13 -9 22 -11 19 -2 -2 1 -18 7 -35 10 -28 8 -33 -30 -72 -39 -40 -41 -41 -41 -18 0 37 -36 76 -81 88 -50 14 -71 7 -104 -31 -34 -42 -34 -98 1 -136 20 -22 24 -23 19 -8 -25 69 -10 120 41 141 47 20 66 16 24 -4 -41 -20 -66 -63 -51 -89 9 -16 10 -15 11 8 0 14 10 35 23 47 23 22 71 30 81 14 3 -5 -8 -9 -24 -9 -32 0 -60 -18 -60 -39 0 -10 6 -8 20 6 26 26 76 26 90 0 6 -11 8 -25 4 -31 -3 -6 20 10 52 34 45 34 63 43 76 36 9 -5 27 -9 39 -9 18 0 20 -2 9 -15 -10 -12 -10 -19 -2 -27 15 -15 43 -2 36 17 -3 8 -2 15 4 15 6 0 18 3 28 7 14 5 16 3 11 -11 -5 -11 5 -8 31 13 20 16 54 34 75 41 74 23 198 10 226 -24 7 -9 -8 -6 -47 7 -136 46 -292 -21 -295 -129 -1 -43 20 -82 55 -100 36 -19 57 -18 96 6 42 26 46 70 6 70 -20 0 -24 -4 -19 -19 3 -11 2 -22 -3 -25 -12 -7 -52 4 -52 16 0 5 5 6 11 2 8 -5 8 -1 0 14 -16 30 -14 84 5 110 23 33 35 27 17 -9 -22 -44 -5 -79 39 -79 28 0 30 1 14 13 -39 28 12 103 77 114 28 4 51 -2 103 -26 37 -17 64 -34 61 -37 -3 -3 -15 0 -27 6 -15 8 -43 9 -83 5 l-61 -7 24 -20 c18 -14 36 -19 67 -16 l42 3 -24 -26 c-17 -17 -25 -37 -25 -60 l0 -34 20 33 c11 18 32 37 46 42 31 12 91 12 119 0 15 -7 10 -9 -23 -9 -88 -2 -147 -49 -145 -118 1 -47 7 -50 43 -19 17 14 35 26 40 26 5 0 30 18 55 40 39 34 53 40 91 40 41 0 44 -2 34 -19 -5 -11 -10 -41 -10 -66 0 -38 5 -52 29 -76 16 -16 39 -29 51 -29 20 0 80 26 80 34 0 3 -20 4 -44 3 -62 -3 -96 29 -96 89 0 24 3 45 8 48 4 2 6 -14 4 -35 -4 -39 17 -79 41 -79 6 0 2 9 -7 19 -23 25 -24 78 -1 99 16 16 17 16 6 -5 -6 -12 -11 -31 -11 -42 0 -24 33 -61 55 -61 10 0 6 8 -10 25 -14 13 -25 29 -25 34 0 32 24 62 73 89 55 31 90 64 51 47 -10 -4 -46 -14 -78 -23 -58 -15 -61 -15 -142 12 -100 32 -166 76 -216 141 -62 82 -70 173 -20 229 11 12 22 37 26 56 3 19 18 47 33 62 33 34 23 35 -44 3z m93 -578 c-17 -17 -26 -21 -26 -12 0 14 40 48 48 41 2 -2 -8 -15 -22 -29z"/>
<path d="M2078 1836 c20 -23 32 -47 32 -65 0 -15 9 -36 20 -46 26 -24 41 -80 33 -127 -8 -54 -69 -136 -132 -180 -30 -21 -91 -50 -137 -65 l-82 -27 -76 20 c-41 12 -73 17 -70 12 3 -5 30 -23 61 -40 49 -27 73 -57 73 -89 0 -5 -11 -21 -25 -34 -16 -17 -19 -25 -10 -25 20 0 55 40 55 63 0 10 -5 28 -12 40 -10 20 -10 21 5 8 22 -18 22 -79 0 -103 -9 -10 -12 -18 -6 -18 19 0 41 35 46 70 4 35 4 35 5 -6 3 -57 -32 -89 -94 -88 -24 0 -44 -1 -44 -2 0 -8 61 -34 80 -34 12 0 35 13 51 29 24 24 29 38 29 76 0 25 -5 55 -10 66 -10 17 -7 19 34 19 38 0 52 -6 91 -40 25 -22 50 -40 55 -40 5 0 22 -11 38 -25 33 -28 43 -22 44 25 2 63 -58 109 -144 111 -33 0 -38 2 -23 9 28 12 88 12 119 0 14 -5 35 -24 46 -42 l20 -33 0 32 c0 19 -10 43 -24 60 l-24 28 38 -3 c38 -4 80 11 80 28 0 15 -105 23 -130 10 -12 -6 -24 -9 -27 -6 -3 3 24 20 61 37 82 38 127 36 169 -11 31 -35 35 -64 10 -79 -15 -9 -12 -10 15 -11 41 0 62 35 44 75 -17 38 -14 43 8 16 21 -25 28 -95 10 -106 -15 -9 -12 -27 3 -20 6 4 3 -1 -8 -9 -24 -21 -41 -15 -38 13 2 17 -3 21 -23 21 -39 0 -30 -48 14 -73 66 -39 145 12 145 93 0 106 -152 178 -288 136 -60 -19 -72 -12 -19 10 48 21 157 21 205 1 18 -7 49 -26 67 -41 23 -20 30 -23 25 -10 -5 14 -3 16 11 11 10 -4 22 -7 28 -7 6 0 7 -7 4 -15 -7 -19 21 -32 36 -17 8 8 8 15 -2 27 -11 13 -9 15 11 15 13 0 30 4 38 9 10 7 25 2 47 -15 28 -22 32 -30 29 -62 -2 -20 -11 -56 -19 -79 -16 -45 -12 -55 10 -25 7 9 14 12 14 6 0 -17 -51 -65 -85 -80 -24 -10 -27 -14 -13 -19 19 -7 52 7 87 39 l24 21 -11 -21 c-18 -34 -62 -57 -111 -57 -44 0 -44 0 -22 -18 12 -10 29 -15 38 -12 12 5 14 3 8 -6 -7 -13 -38 -11 -92 5 -18 5 -23 2 -23 -11 0 -17 -1 -17 -20 0 -19 18 -20 17 -20 -2 0 -44 24 -48 168 -31 13 2 32 13 42 26 12 15 20 18 22 10 8 -23 32 35 39 92 l6 55 2 -59 c1 -67 10 -68 22 -4 10 57 -6 131 -38 168 -14 17 -20 30 -14 30 5 0 13 -5 17 -11 4 -8 12 -2 21 15 21 41 90 32 106 -14 4 -10 6 -8 6 6 1 28 -23 47 -59 47 -16 0 -27 4 -24 9 3 4 18 8 33 8 32 0 67 -33 74 -70 3 -19 5 -16 6 11 1 47 -27 73 -77 72 -33 -1 -34 0 -13 8 37 14 88 -7 107 -43 15 -29 15 -60 0 -103 -6 -15 -2 -13 18 8 39 43 36 99 -8 143 -37 37 -59 41 -110 20 -39 -16 -66 -51 -66 -85 0 -24 -2 -23 -40 15 -35 34 -39 43 -35 74 5 32 4 33 -5 10 -12 -27 -49 -70 -61 -70 -4 0 6 13 22 29 57 57 32 141 -41 141 -41 0 -60 -10 -60 -31 0 -23 17 -24 41 -3 10 9 23 13 28 9 12 -7 15 -54 5 -80 -6 -14 -8 -13 -18 7 -16 31 -50 30 -54 -2 -3 -21 -2 -22 12 -11 13 11 16 11 16 -2 0 -19 -21 -27 -67 -27 -35 0 -36 0 -18 20 9 10 15 26 12 35 -7 16 -47 21 -47 5 0 -5 7 -10 15 -10 17 0 20 -16 4 -25 -5 -4 -47 -2 -92 5 -69 10 -90 9 -132 -4 -59 -18 -69 -14 -23 10 36 19 149 26 181 10 13 -6 17 -4 17 13 0 57 -82 79 -153 41 l-37 -20 34 45 c38 50 51 91 41 135 -7 31 -25 42 -25 15 0 -19 -40 -99 -46 -93 -2 3 1 19 7 37 22 61 -24 116 -121 146 -24 8 -23 6 8 -29z m-30 -580 c3 -12 -4 -9 -22 9 -32 32 -34 42 -3 23 12 -9 23 -23 25 -32z"/>
<path d="M1346 1814 c-25 -25 -20 -54 9 -54 31 0 59 -27 76 -74 16 -43 39 -48 39 -8 0 35 -29 136 -37 128 -3 -3 -18 1 -34 9 -35 18 -34 18 -53 -1z"/>
<path d="M1600 1816 c-14 -8 -29 -12 -34 -9 -5 4 -6 1 -2 -5 4 -7 3 -12 -2 -12 -11 0 -32 -76 -32 -114 0 -38 24 -32 39 10 17 47 45 74 76 74 29 0 34 29 9 54 -19 19 -22 19 -54 2z"/>
<path d="M889 1717 c-77 -59 -35 -199 85 -282 58 -40 158 -75 214 -75 58 0 147 30 186 62 44 36 62 69 71 128 13 90 -59 170 -153 170 -67 0 -121 -38 -122 -86 0 -30 41 -64 78 -64 37 0 52 21 45 67 -4 25 -1 32 16 38 44 14 122 -58 120 -110 -1 -20 -1 -20 -7 0 -18 54 -59 83 -92 65 -20 -11 -28 -50 -10 -50 19 0 50 -40 50 -65 0 -66 -59 -112 -154 -122 -89 -8 -160 47 -191 152 -5 16 -8 17 -15 5 -6 -8 -10 -29 -10 -47 0 -25 9 -39 43 -69 l42 -37 -55 29 c-65 35 -100 82 -100 136 0 38 20 47 20 10 1 -15 2 -15 15 2 23 31 19 49 -10 44 -14 -3 -25 -2 -25 2 0 11 68 70 81 70 18 0 23 -32 6 -42 -10 -5 -17 -14 -17 -19 0 -18 42 -5 57 17 13 20 12 24 -9 48 -19 20 -35 26 -83 30 -38 3 -66 1 -76 -7z m25 -24 c-13 -14 -27 -38 -30 -52 -10 -44 -12 -47 -13 -14 -1 30 39 93 59 93 5 0 -2 -12 -16 -27z m338 -38 c-2 -15 0 -25 8 -25 17 0 8 -44 -10 -47 -8 -2 -22 2 -30 7 -13 9 -13 12 1 23 9 6 14 18 11 25 -2 7 2 19 8 27 17 20 18 19 12 -10z m148 -162 c-11 -17 -11 -17 -6 0 3 10 7 31 7 45 l2 27 4 -27 c2 -15 -1 -35 -7 -45z"/>
<path d="M2020 1723 c-25 -3 -53 -12 -62 -20 -21 -19 -23 -54 -6 -71 17 -17 48 -15 48 3 0 8 -7 15 -16 15 -18 0 -16 31 3 37 11 4 83 -53 83 -67 0 -4 -11 -5 -25 -2 -29 5 -33 -13 -10 -44 13 -17 14 -17 15 -1 0 33 20 17 20 -17 0 -48 -37 -97 -100 -130 l-55 -29 43 37 c33 30 42 44 42 69 0 56 -15 62 -33 15 -44 -113 -145 -155 -258 -107 -53 23 -79 57 -79 104 0 25 31 65 50 65 18 0 10 39 -10 50 -33 18 -74 -11 -92 -65 -6 -20 -6 -20 -7 0 -2 52 76 124 120 110 17 -6 20 -13 16 -38 -7 -46 8 -67 47 -67 37 0 76 34 76 66 -1 45 -56 84 -120 84 -50 0 -89 -19 -123 -59 -35 -42 -41 -81 -23 -145 18 -62 70 -115 132 -137 62 -21 179 -17 246 10 109 42 207 156 208 239 0 57 -35 106 -73 100 -7 -1 -32 -3 -57 -5z m84 -34 c14 -17 26 -37 26 -44 0 -7 3 -21 7 -31 4 -11 2 -15 -4 -11 -6 4 -13 20 -17 37 -3 17 -17 42 -30 55 -14 14 -21 25 -16 25 4 0 20 -14 34 -31z m-337 -50 c-3 -10 2 -20 11 -24 14 -5 14 -7 0 -22 -9 -9 -24 -13 -32 -10 -18 7 -22 47 -5 47 7 0 9 10 7 25 -4 21 -3 23 9 13 8 -6 12 -20 10 -29z m-164 -118 c4 -29 2 -40 -4 -30 -8 13 -14 88 -5 78 2 -2 6 -24 9 -48z"/>
<path d="M635 1701 c-18 -7 -17 -10 15 -30 35 -21 101 -44 108 -37 2 2 -9 18 -25 35 -30 33 -66 45 -98 32z"/>
<path d="M1487 1704 c-16 -16 -7 -44 14 -44 15 0 20 5 17 22 -3 22 -19 33 -31 22z"/>
<path d="M2310 1703 c-21 -8 -50 -34 -61 -56 -9 -16 -7 -17 18 -11 15 3 48 18 73 32 38 22 42 26 25 33 -24 9 -35 9 -55 2z"/>
<path d="M1484 1629 c-10 -17 13 -36 27 -22 12 12 4 33 -11 33 -5 0 -12 -5 -16 -11z"/>
<path d="M1494 1578 c-18 -8 -20 -16 -16 -57 4 -41 1 -51 -18 -64 -22 -15 -22 -15 -2 -26 34 -18 102 -11 102 10 0 5 -15 18 -32 29 -18 11 -28 20 -22 20 7 0 14 12 17 28 3 15 8 37 12 50 8 24 -5 28 -41 10z"/>
<path d="M1089 1524 c-32 -39 50 -104 131 -104 49 0 83 18 101 53 l12 22 -24 -22 c-51 -46 -114 -38 -149 19 -16 27 -20 29 -21 13 0 -19 -1 -19 -9 1 -12 31 -26 36 -41 18z"/>
<path d="M1884 1532 c-5 -4 -15 -23 -22 -42 -8 -24 -10 -26 -7 -7 3 15 1 27 -5 27 -5 0 -10 -6 -10 -13 0 -22 -35 -47 -72 -53 -28 -5 -40 -1 -68 22 -28 24 -31 25 -21 7 40 -75 186 -68 231 10 13 23 13 28 0 41 -8 9 -20 12 -26 8z"/>
<path d="M86 1515 c-33 -25 -56 -69 -56 -107 0 -76 88 -134 169 -109 54 16 64 42 11 28 -78 -21 -150 25 -150 95 0 22 5 33 38 87 15 25 14 25 -12 6z"/>
<path d="M2903 1500 c51 -61 43 -135 -18 -164 -38 -18 -73 -20 -110 -6 -20 8 -26 7 -23 -2 3 -7 21 -19 41 -27 96 -36 197 47 173 143 -6 24 -63 86 -79 86 -5 0 2 -13 16 -30z"/>
<path d="M380 1421 c-18 -34 -12 -86 13 -109 32 -30 70 -37 91 -17 33 33 10 70 -25 39 -16 -14 -22 -15 -32 -5 -6 7 -7 12 -2 11 20 -4 33 0 38 13 4 10 -3 12 -23 9 -32 -5 -55 25 -45 58 8 26 -1 26 -15 1z"/>
<path d="M2600 1414 c0 -37 -22 -59 -50 -51 -11 3 -20 1 -20 -4 0 -11 35 -30 44 -24 3 3 2 0 -4 -7 -7 -9 -14 -7 -29 6 -22 20 -41 14 -41 -14 0 -30 36 -44 71 -29 56 22 74 77 44 129 l-14 25 -1 -31z"/>
<path d="M2981 1405 c-4 -90 -104 -148 -198 -115 l-28 10 22 -19 c12 -10 20 -20 18 -23 -3 -2 16 -14 40 -26 25 -12 45 -18 45 -13 0 12 -21 28 -45 34 -16 4 -15 5 6 6 15 0 32 -6 39 -14 7 -8 19 -15 28 -15 13 0 13 2 -1 18 -16 17 -15 19 18 30 28 11 36 21 50 62 9 27 14 60 12 72 -3 18 -5 17 -6 -7z"/>
<path d="M11 1397 c-1 -35 24 -96 47 -113 9 -7 26 -14 37 -14 19 -1 19 -1 3 -14 -10 -7 -18 -16 -18 -20 0 -12 28 -6 40 9 7 8 24 15 39 14 24 -1 24 -1 -6 -10 -18 -5 -33 -16 -33 -24 0 -12 9 -10 45 7 24 12 43 24 40 26 -2 3 6 13 18 23 l22 19 -28 -10 c-90 -32 -176 12 -197 103 -8 31 -8 31 -9 4z"/>
<path d="M303 1389 c-32 -53 -46 -106 -39 -152 8 -54 30 -88 23 -37 -2 19 -1 46 4 60 5 20 7 15 8 -23 1 -47 30 -124 38 -100 3 8 14 1 30 -18 14 -16 28 -28 31 -25 3 3 -1 13 -9 22 -10 12 -4 11 21 -5 24 -14 52 -21 86 -21 56 0 81 17 69 47 -6 17 -7 17 -17 0 -9 -18 -10 -18 -23 -1 -11 16 -17 16 -39 6 -34 -15 -63 -15 -72 0 -4 7 -3 8 4 4 12 -7 52 10 52 22 0 4 -17 8 -38 8 -43 1 -87 26 -104 58 l-11 21 24 -21 c35 -32 68 -46 87 -39 13 5 10 9 -15 20 -38 16 -83 58 -83 77 0 8 5 6 11 -4 16 -29 30 -21 17 10 -6 15 -16 49 -22 76 l-12 50 -21 -35z"/>
<path d="M1391 1400 c-19 -11 -9 -45 14 -45 13 0 21 8 23 21 3 23 -17 37 -37 24z"/>
<path d="M1571 1391 c-13 -23 10 -47 34 -37 20 7 19 42 -1 50 -22 8 -22 8 -33 -13z"/>
<path d="M1514 1375 c-3 -13 -4 -45 -2 -69 2 -36 0 -46 -14 -50 -25 -6 -23 -36 2 -36 11 0 20 5 20 11 0 6 16 -3 35 -20 59 -51 125 -38 125 25 0 16 -1 16 -18 1 -26 -24 -29 -21 -24 14 4 29 3 30 -17 19 -48 -25 -95 18 -93 85 0 50 -4 57 -14 20z"/>
<path d="M1468 1346 c-2 -40 -8 -53 -30 -69 -24 -18 -31 -19 -54 -8 -26 11 -26 11 -22 -19 5 -34 2 -36 -24 -13 -17 15 -18 15 -18 -1 0 -82 111 -72 155 14 17 32 20 107 5 130 -6 10 -10 0 -12 -34z"/>
<path d="M215 1370 c-8 -13 20 -24 40 -16 8 3 15 10 15 16 0 13 -47 13 -55 0z"/>
<path d="M2732 1368 c7 -20 48 -23 48 -4 0 11 -9 16 -26 16 -16 0 -24 -5 -22 -12z"/>
<path d="M10 1276 c-6 -8 -10 -25 -8 -36 2 -17 5 -14 14 14 12 40 12 42 -6 22z"/>
<path d="M2975 1275 c18 -42 18 -105 -1 -133 l-17 -27 21 19 c29 25 32 126 5 147 -15 13 -16 12 -8 -6z"/>
<path d="M234 1232 c-10 -25 -22 -34 -60 -46 l-49 -15 40 -1 c37 -1 39 -2 21 -15 -29 -22 -71 -18 -103 10 -15 13 -22 25 -15 25 21 0 13 30 -8 30 -11 0 -20 7 -20 15 0 8 -4 15 -10 15 -5 0 -10 -18 -10 -41 0 -53 42 -99 92 -99 72 0 142 61 136 120 l-3 33 -11 -31z"/>
<path d="M2745 1241 c-18 -31 37 -103 92 -122 77 -25 143 18 143 92 0 22 -4 39 -10 39 -5 0 -10 -7 -10 -15 0 -8 -8 -15 -18 -15 -26 0 -34 -11 -20 -27 28 -34 -68 -69 -107 -39 -19 15 -18 15 20 16 l40 1 -50 17 c-31 11 -54 26 -61 40 -7 15 -14 20 -19 13z"/>
<path d="M1436 1185 c-38 -34 -53 -39 -106 -36 l-25 2 24 -19 24 -19 -24 -17 -23 -16 22 0 c13 0 32 5 44 11 18 10 19 8 13 -11 -6 -19 -5 -21 13 -11 11 6 25 24 30 40 6 16 20 39 31 50 17 17 30 63 19 61 -2 -1 -21 -16 -42 -35z"/>
<path d="M1520 1207 c0 -24 22 -67 31 -62 4 3 13 -11 19 -30 14 -41 57 -74 45 -33 -6 19 -5 21 6 11 7 -7 24 -13 38 -13 23 0 24 1 6 20 -16 18 -16 20 -1 26 21 8 21 26 -1 23 -45 -4 -66 4 -103 37 -28 25 -40 31 -40 21z"/>
<path d="M1 1179 c-1 -15 8 -34 21 -45 17 -14 19 -15 10 -2 -8 9 -17 29 -22 45 l-8 28 -1 -26z"/>
<path d="M1490 1177 c0 -13 -12 -41 -26 -62 -14 -21 -28 -54 -31 -73 l-6 -34 26 17 27 17 -11 -30 c-8 -23 -7 -38 5 -66 19 -45 33 -46 51 -1 11 25 12 41 5 60 -14 38 -13 39 17 20 l26 -17 -6 34 c-3 19 -17 52 -31 73 -14 21 -26 46 -26 56 0 10 -4 21 -10 24 -6 3 -10 -4 -10 -18z m20 -107 c0 -11 -4 -20 -10 -20 -5 0 -10 9 -10 20 0 11 5 20 10 20 6 0 10 -9 10 -20z"/>
</g>
</svg>