<svg xmlns="http://www.w3.org/2000/svg" version="1.0" preserveAspectRatio="xMidYMid meet" viewBox="3.37 289 1016.51 430">

<g transform="translate(0.000000,1024.000000) scale(0.100000,-0.100000)" fill="#000000" stroke="none">
<path d="M5080 7318 c-30 -49 -41 -94 -47 -184 -4 -67 -1 -99 21 -185 29 -112 46 -154 61 -154 15 0 76 211 82 286 9 108 -40 269 -82 269 -8 0 -24 -15 -35 -32z"/>
<path d="M4860 6985 c-17 -20 -8 -71 24 -141 l25 -55 -22 7 c-61 19 -126 54 -145 79 l-22 28 0 -24 c0 -34 21 -61 89 -114 145 -111 269 -349 296 -568 8 -62 25 -51 25 17 0 172 134 427 291 552 71 56 89 79 89 111 0 16 -2 15 -18 -4 -22 -29 -182 -101 -170 -77 31 63 42 97 46 141 4 44 2 54 -14 60 -13 5 -25 -2 -42 -23 -22 -28 -122 -237 -158 -331 -30 -78 -51 -77 -83 2 -45 112 -141 311 -160 333 -23 26 -34 27 -51 7z"/>
<path d="M4589 6804 c67 -35 202 -146 190 -158 -3 -3 -23 1 -44 9 -80 28 -216 14 -256 -26 -27 -27 -20 -43 20 -49 l32 -5 -28 -12 c-35 -16 -63 -61 -63 -102 0 -36 3 -36 60 -16 92 32 229 12 308 -45 43 -31 59 -60 23 -40 -22 11 -71 13 -96 4 -19 -8 -45 -55 -45 -84 0 -18 6 -20 53 -20 109 -1 193 -68 221 -177 7 -25 17 -48 23 -50 24 -8 46 48 51 126 4 66 0 89 -25 162 -48 140 -183 347 -275 422 -50 41 -137 84 -189 92 -27 5 -18 -2 40 -31z"/>
<path d="M5617 6816 c-106 -44 -168 -98 -259 -226 -109 -154 -169 -300 -169 -415 -1 -74 9 -113 34 -133 19 -16 32 0 41 50 17 92 115 168 219 168 l60 0 -7 33 c-3 17 -18 43 -33 55 -23 21 -32 23 -82 17 l-56 -7 26 21 c15 11 51 33 80 48 69 35 202 44 263 19 53 -22 56 -21 56 21 0 43 -39 99 -72 106 -14 3 -8 5 15 6 34 1 38 4 35 23 -2 13 -18 31 -38 42 -47 28 -198 30 -247 3 -43 -23 -42 -7 3 42 43 48 123 103 190 130 37 15 43 20 24 20 -14 0 -51 -10 -83 -23z"/>
<path d="M3797 6624 c-87 -27 -166 -133 -182 -245 -4 -27 -3 -55 4 -67 10 -19 9 -19 -27 -6 -78 28 -184 9 -259 -46 -42 -31 -84 -101 -99 -164 l-7 -30 34 32 c30 28 82 52 114 52 44 0 91 -28 157 -92 40 -39 68 -73 61 -75 -87 -31 -135 -193 -89 -298 l17 -40 13 30 c34 79 113 136 188 134 40 -1 41 -1 16 -10 -36 -14 -42 -35 -17 -60 47 -47 170 3 241 96 21 28 44 62 51 78 15 35 33 34 132 -6 106 -43 190 -102 302 -210 205 -198 373 -463 523 -821 45 -110 69 -141 91 -119 21 21 -174 411 -318 633 -202 311 -429 498 -677 555 -77 18 -104 11 -182 -49 -55 -42 -85 -45 -130 -11 -38 29 -49 56 -34 85 10 18 20 20 138 20 l127 0 -75 48 c-136 87 -170 151 -170 316 0 113 16 147 22 47 4 -81 24 -116 80 -144 32 -16 37 -23 48 -80 18 -93 75 -177 120 -177 18 0 50 81 50 126 0 51 -56 168 -106 220 -34 37 -34 37 -96 17 -39 -12 -31 135 12 235 l19 42 -22 -1 c-12 0 -44 -7 -70 -15z"/>
<path d="M6360 6598 c26 -60 44 -160 36 -204 -8 -38 -18 -40 -69 -19 -41 17 -146 -142 -155 -235 -3 -37 1 -60 18 -94 12 -25 26 -46 31 -46 41 0 103 86 114 160 11 74 15 81 59 100 54 23 76 65 77 152 1 97 17 41 18 -63 2 -156 -30 -216 -162 -309 l-71 -50 116 0 c93 0 120 -3 132 -16 25 -24 19 -49 -19 -83 -48 -42 -79 -40 -145 9 -55 41 -118 66 -132 52 -11 -11 60 -118 108 -164 67 -64 150 -86 194 -50 25 20 20 44 -13 60 -20 9 -17 11 18 11 65 1 144 -55 176 -124 l18 -40 17 40 c28 63 24 150 -11 213 -16 29 -43 61 -61 72 l-32 20 67 65 c64 61 120 95 158 95 39 0 90 -21 121 -49 37 -35 39 -30 12 41 -23 62 -86 129 -143 153 -56 23 -145 29 -192 13 l-41 -14 4 62 c5 78 -26 152 -88 212 -41 41 -71 55 -142 67 l-37 6 19 -43z"/>
<path d="M4584 6145 c21 -80 26 -125 26 -231 0 -135 13 -193 59 -266 35 -55 49 -61 43 -18 -2 16 1 72 7 123 13 114 3 189 -39 272 -32 64 -105 155 -96 120z"/>
<path d="M5611 6123 c-46 -55 -88 -141 -101 -207 -10 -47 -10 -83 0 -167 7 -60 10 -118 7 -129 -12 -45 19 -11 56 61 37 74 37 75 42 219 2 80 10 171 18 203 8 31 13 57 11 57 -1 0 -16 -16 -33 -37z"/>
<path d="M2370 5991 c-79 -24 -137 -80 -179 -171 -21 -46 -25 -70 -26 -145 0 -82 3 -96 33 -157 70 -143 251 -258 406 -258 40 0 39 0 -44 -43 -245 -123 -483 -323 -582 -489 -59 -99 -77 -169 -88 -342 -6 -83 -15 -182 -21 -221 -10 -74 -43 -155 -62 -156 -27 -1 31 -18 66 -18 48 -1 92 21 110 55 l14 27 17 -54 c46 -142 125 -249 347 -471 93 -92 173 -177 179 -188 10 -19 8 -20 -38 -20 -38 0 -53 -5 -70 -23 -22 -23 -28 -60 -16 -92 16 -41 118 -59 172 -31 87 46 143 170 112 251 l-10 26 27 -19 c16 -11 57 -34 92 -51 35 -18 74 -43 88 -57 30 -30 33 -30 33 2 0 20 4 24 18 20 47 -14 202 -36 259 -36 90 0 205 26 291 66 55 25 92 52 146 106 104 105 156 222 156 354 0 106 -71 209 -178 256 -69 31 -162 23 -224 -20 -132 -91 -107 -272 38 -272 47 0 74 23 74 63 0 30 12 33 72 17 21 -6 42 -19 48 -30 46 -85 -80 -280 -223 -345 -143 -66 -380 -60 -602 15 -385 130 -628 354 -721 667 -34 115 -39 289 -10 400 30 121 111 234 225 315 48 34 45 27 -20 -50 -52 -60 -106 -168 -130 -259 -25 -93 -30 -294 -10 -388 41 -190 171 -335 392 -439 159 -75 283 -90 431 -50 29 7 68 14 86 14 37 0 40 12 13 56 -20 34 -109 84 -148 84 -37 0 -26 17 15 24 50 8 114 55 135 99 41 86 7 191 -88 269 l-33 28 5 -40 c4 -27 0 -47 -10 -64 -37 -56 -208 -75 -324 -36 -115 40 -229 158 -284 297 -19 48 -23 78 -24 168 0 106 1 113 34 180 80 163 319 332 615 434 128 44 404 116 413 108 3 -3 -15 -11 -38 -17 -173 -43 -375 -131 -514 -222 -102 -67 -244 -203 -279 -269 -50 -91 -24 -204 57 -245 36 -19 110 -21 159 -5 34 11 35 13 46 89 19 126 75 226 191 343 154 155 279 226 491 277 207 51 241 51 85 2 -151 -48 -313 -150 -387 -244 -101 -128 -140 -287 -103 -414 30 -99 98 -149 218 -159 66 -6 70 -5 63 13 -99 254 15 573 262 738 91 60 137 70 283 63 335 -18 649 -150 835 -350 50 -54 78 -78 89 -74 8 4 15 12 15 19 0 22 -89 117 -185 196 -275 229 -569 357 -965 419 -163 25 -437 23 -630 -6 -172 -25 -308 -28 -350 -6 -15 8 -38 27 -50 42 l-23 28 7 -43 c8 -53 36 -110 77 -156 l30 -35 -26 -7 c-14 -4 -62 -4 -106 -2 -152 9 -261 91 -288 218 -16 75 1 142 51 196 51 55 105 75 142 50 34 -22 43 -20 62 9 38 58 -19 153 -109 180 -55 16 -69 17 -107 6z"/>
<path d="M7764 5991 c-105 -26 -166 -129 -115 -192 19 -23 19 -23 53 -5 30 16 40 17 71 7 38 -13 102 -76 117 -117 18 -47 11 -135 -14 -189 -50 -105 -137 -156 -281 -162 -118 -5 -132 4 -84 54 45 47 57 70 68 129 l9 46 -27 -25 c-14 -14 -37 -30 -51 -38 -37 -19 -163 -15 -340 12 -223 33 -478 32 -680 -4 -347 -62 -603 -168 -842 -347 -155 -116 -267 -233 -254 -265 10 -28 33 -15 80 44 118 151 394 293 671 347 55 10 143 17 225 18 132 1 136 0 189 -29 130 -72 265 -221 311 -343 52 -135 58 -303 15 -404 l-15 -38 48 0 c165 0 253 91 253 259 0 205 -123 377 -346 487 -85 41 -253 94 -302 94 -14 0 -23 6 -23 15 0 17 5 17 155 -12 251 -48 451 -156 617 -332 103 -109 167 -246 168 -358 0 -26 5 -33 31 -42 56 -19 142 -14 179 12 71 48 91 147 46 235 -34 67 -153 182 -266 258 -149 99 -287 159 -560 242 l-35 11 40 -6 c152 -20 456 -118 610 -195 275 -138 428 -308 442 -490 14 -191 -106 -404 -272 -483 -109 -52 -292 -45 -350 13 -22 22 -26 34 -23 69 l3 42 -48 -47 c-101 -99 -115 -204 -39 -286 31 -33 96 -65 132 -66 32 0 15 -14 -35 -28 -57 -17 -102 -47 -125 -84 -11 -18 -20 -36 -20 -39 0 -4 21 -9 48 -12 26 -3 85 -13 132 -22 139 -26 257 -3 423 82 104 54 231 167 276 246 16 29 40 86 53 127 20 66 23 94 22 230 0 142 -3 162 -28 235 -35 100 -54 132 -170 283 l-20 25 23 -12 c52 -28 178 -167 209 -231 87 -177 79 -437 -20 -633 -115 -230 -276 -374 -548 -490 -220 -94 -448 -129 -621 -97 -151 28 -288 146 -334 288 -15 45 -15 53 -1 80 16 30 58 52 103 52 20 0 22 -4 17 -24 -9 -38 26 -66 81 -66 35 0 51 6 79 31 61 53 58 132 -7 206 -89 101 -245 97 -355 -10 -80 -77 -102 -152 -78 -267 42 -201 177 -350 380 -417 71 -24 96 -27 211 -27 87 1 153 6 198 17 38 9 70 17 73 17 2 0 4 -14 4 -31 l0 -32 23 25 c12 13 58 44 102 68 44 23 88 50 98 58 21 18 21 14 2 -30 -18 -44 -7 -87 38 -155 46 -68 87 -93 154 -93 47 0 59 4 84 29 36 37 37 70 3 105 -26 26 -42 30 -96 26 -16 -1 -28 2 -28 6 0 3 87 95 194 204 214 216 287 314 336 448 22 61 30 73 36 57 4 -11 14 -28 22 -37 16 -20 90 -33 127 -24 l25 6 -20 28 c-26 36 -47 141 -55 277 -14 255 -34 336 -114 454 -115 169 -321 335 -569 460 -45 23 -82 43 -82 44 0 2 13 2 28 -1 92 -13 246 52 338 143 95 93 133 191 120 308 -19 180 -163 313 -302 278z"/>
<path d="M5061 5977 c-55 -28 -66 -59 -66 -181 0 -111 0 -112 -18 -89 -46 58 -137 5 -137 -79 0 -35 8 -50 48 -97 26 -31 57 -72 69 -91 61 -103 112 -293 142 -525 15 -116 19 -136 20 -90 1 33 8 105 16 160 39 261 94 411 199 540 61 73 68 102 41 155 -29 56 -89 67 -130 23 l-25 -28 10 35 c17 60 12 159 -10 206 -31 63 -102 91 -159 61z"/>
<path d="M6068 5916 c-138 -49 -246 -124 -380 -264 -142 -150 -345 -474 -468 -751 -52 -115 -60 -151 -35 -151 19 0 37 30 73 120 208 526 545 940 855 1050 28 10 45 19 37 19 -8 0 -45 -10 -82 -23z"/>
<path d="M1145 5756 c-113 -50 -127 -243 -28 -399 45 -72 140 -156 216 -193 63 -30 68 -34 39 -34 -17 0 -93 20 -168 45 -153 51 -209 56 -260 24 -31 -19 -38 -39 -13 -39 6 0 65 -27 132 -59 139 -68 223 -95 351 -116 135 -22 244 -19 361 9 148 36 139 22 -20 -32 -248 -85 -426 -91 -650 -22 -131 40 -196 47 -266 27 -94 -28 -148 -108 -120 -179 14 -36 63 -61 103 -53 25 6 35 2 61 -23 18 -17 45 -36 60 -41 53 -20 151 -13 247 18 49 16 90 25 90 20 0 -12 -299 -161 -388 -193 -85 -30 -222 -56 -296 -56 -151 1 -311 59 -360 129 -110 158 -51 381 115 436 119 40 232 -25 217 -124 -3 -19 0 -27 7 -24 18 6 55 78 55 104 0 57 -71 125 -156 148 -99 28 -231 -2 -307 -70 -138 -120 -175 -378 -82 -565 78 -160 277 -273 480 -275 l70 0 -50 -24 c-27 -14 -120 -58 -205 -99 -155 -75 -230 -124 -230 -152 0 -32 33 -24 112 26 97 63 228 126 358 173 133 48 224 96 319 168 82 61 175 160 220 232 30 49 38 41 17 -19 -20 -59 -21 -144 -2 -189 23 -54 43 -45 51 23 8 71 27 132 59 186 52 90 268 266 417 342 27 13 94 33 151 44 126 24 207 50 323 105 187 86 225 131 88 104 -100 -20 -378 -18 -467 4 -231 58 -464 214 -511 342 -24 66 -39 81 -84 89 -40 6 -61 34 -61 82 0 35 25 90 47 103 27 16 -5 13 -42 -3z"/>
<path d="M9048 5748 c33 -36 46 -91 32 -134 -11 -34 -22 -40 -79 -46 -20 -2 -29 -14 -47 -60 -30 -79 -56 -111 -139 -177 -177 -141 -333 -197 -575 -207 -100 -5 -161 -2 -232 10 -119 19 -118 19 -118 2 0 -19 139 -95 256 -140 51 -20 145 -46 211 -60 67 -13 143 -36 174 -51 168 -85 381 -271 431 -376 15 -31 32 -87 38 -125 6 -38 15 -73 20 -78 15 -15 50 55 50 99 0 22 -8 71 -19 108 -10 37 -16 67 -12 67 3 0 23 -26 44 -58 20 -32 70 -90 110 -129 119 -115 223 -177 430 -257 134 -52 232 -100 338 -167 44 -27 85 -49 93 -49 34 0 28 25 -14 63 -38 33 -144 88 -410 214 l-45 22 75 0 c262 3 488 171 529 395 23 123 5 243 -51 348 -37 70 -82 112 -158 147 -134 62 -312 23 -365 -80 -20 -37 -19 -55 5 -105 30 -61 45 -62 45 -4 0 136 192 163 311 44 109 -108 92 -339 -29 -423 -135 -92 -369 -104 -596 -29 -114 38 -421 191 -408 204 2 2 41 -10 88 -26 138 -49 260 -40 318 24 19 20 34 26 67 26 57 0 72 7 90 42 36 69 -19 157 -114 184 -72 21 -147 14 -270 -25 -181 -58 -327 -64 -517 -20 -97 23 -245 77 -245 90 0 4 30 -1 68 -12 38 -12 113 -23 173 -26 191 -10 360 28 566 128 68 32 127 59 132 59 25 0 18 20 -13 39 -51 32 -114 27 -247 -19 -64 -22 -138 -43 -165 -46 l-49 -6 73 37 c125 63 223 177 262 304 47 149 3 271 -106 297 l-29 7 23 -25z"/>
<path d="M1615 5615 c24 -184 113 -296 275 -346 65 -20 241 -39 228 -24 -5 5 -36 20 -70 35 -133 56 -229 133 -351 280 -39 47 -74 90 -79 95 -6 6 -7 -9 -3 -40z"/>
<path d="M8535 5558 c-115 -146 -218 -223 -410 -304 -38 -16 78 -16 156 0 145 31 247 102 298 211 19 40 48 181 39 190 -2 2 -39 -42 -83 -97z"/>
<path d="M4240 5628 c-49 -14 -85 -42 -100 -78 -7 -17 -11 -32 -9 -35 2 -2 31 6 64 17 73 24 121 21 255 -21 52 -17 115 -33 140 -37 l45 -7 -35 37 c-48 52 -135 102 -205 121 -66 17 -104 18 -155 3z"/>
<path d="M5838 5625 c-75 -20 -130 -51 -189 -106 l-54 -50 41 5 c22 3 84 19 137 36 151 46 212 47 311 5 29 -13 11 34 -29 72 -53 51 -125 64 -217 38z"/>
<path d="M3924 5245 c-74 -16 -112 -34 -181 -87 -108 -82 -196 -263 -162 -332 21 -43 61 -68 117 -74 60 -5 111 10 143 44 57 61 11 174 -72 174 -24 0 -39 -5 -43 -15 -8 -23 -25 -18 -32 10 -9 35 29 107 81 153 66 58 138 92 232 111 65 13 80 19 62 24 -35 10 -75 7 -145 -8z"/>
<path d="M6156 5252 c-15 -6 0 -12 56 -21 41 -6 102 -25 136 -41 113 -53 202 -161 186 -225 -7 -27 -34 -35 -34 -10 0 11 -11 15 -39 15 -53 0 -91 -43 -91 -104 0 -74 52 -116 145 -116 53 0 95 19 124 56 78 99 -87 353 -276 424 -59 22 -177 34 -207 22z"/>
<path d="M5584 4839 c-106 -13 -227 -73 -301 -151 -71 -75 -135 -212 -149 -324 -18 -141 50 -320 164 -433 103 -103 218 -151 362 -151 252 0 462 173 515 425 18 88 18 122 0 209 -59 279 -308 458 -591 425z m199 -119 c129 -40 246 -159 283 -288 26 -88 16 -210 -23 -295 -124 -264 -455 -335 -662 -142 -106 99 -145 196 -139 344 3 85 8 106 36 164 93 188 305 279 505 217z"/>
<path d="M5569 4487 c-136 -72 -136 -272 0 -344 155 -82 338 71 277 232 -24 61 -52 94 -100 116 -57 26 -123 24 -177 -4z m189 -92 c36 -30 47 -66 32 -111 -15 -44 -54 -74 -97 -74 -68 0 -113 42 -113 105 0 91 108 139 178 80z"/>
<path d="M4420 4822 c-126 -42 -216 -109 -283 -209 -147 -221 -122 -499 62 -682 197 -196 528 -203 725 -14 177 169 221 411 116 632 -53 110 -127 184 -245 242 -85 42 -88 43 -203 46 -93 2 -128 -1 -172 -15z m282 -102 c242 -75 362 -349 255 -583 -35 -76 -126 -170 -200 -207 -260 -126 -562 34 -607 320 -32 210 115 431 317 479 67 16 167 12 235 -9z"/>
<path d="M4475 4487 c-91 -52 -130 -169 -83 -256 13 -25 41 -58 62 -75 34 -28 44 -31 110 -31 62 0 78 4 114 28 54 35 86 96 86 163 1 144 -164 242 -289 171z m118 -78 c37 -19 57 -52 57 -94 0 -91 -108 -139 -178 -80 -73 61 -29 185 66 185 18 0 43 -5 55 -11z"/>
<path d="M1610 4733 c-146 -110 -248 -260 -296 -438 -22 -80 -16 -76 19 12 64 156 144 265 270 364 75 60 95 89 60 89 -10 0 -34 -12 -53 -27z"/>
<path d="M8550 4745 c0 -8 17 -27 37 -42 138 -104 253 -250 304 -385 29 -79 37 -60 9 23 -46 138 -140 275 -248 365 -65 53 -102 68 -102 39z"/>
<path d="M1809 4633 c-112 -115 -160 -191 -193 -302 -29 -100 -13 -249 34 -311 l20 -25 0 31 c0 45 33 167 74 273 20 51 48 141 62 199 14 59 37 128 50 155 14 26 23 47 21 47 -1 0 -32 -30 -68 -67z"/>
<path d="M8375 4649 c14 -30 36 -102 51 -160 14 -57 44 -151 66 -208 49 -125 68 -193 68 -246 0 -35 2 -38 15 -24 29 29 55 125 55 204 0 139 -60 261 -203 410 l-77 80 25 -56z"/>
<path d="M1060 4116 c-69 -20 -108 -43 -125 -76 -27 -53 -16 -70 45 -70 38 0 54 -22 46 -65 -13 -69 -95 -135 -166 -135 -42 0 -67 15 -91 53 l-19 32 6 -35 c9 -47 37 -100 66 -126 98 -90 263 -84 320 12 11 18 22 34 25 34 3 0 2 -23 -2 -51 -9 -66 9 -129 48 -169 58 -59 113 -75 220 -65 l71 7 -45 23 c-84 43 -165 159 -146 209 11 27 52 30 85 6 90 -67 169 85 102 196 -71 117 -179 238 -197 220 -13 -13 18 -132 49 -193 27 -52 30 -66 21 -86 -16 -34 -60 -43 -92 -19 -44 33 -48 91 -15 252 3 14 -11 -2 -31 -37 -69 -118 -119 -149 -165 -103 -36 36 -24 51 88 110 92 48 118 67 108 77 -13 14 -159 13 -206 -1z"/>
<path d="M8970 4120 c-18 -12 -17 -13 110 -81 89 -47 103 -66 80 -108 -13 -25 -56 -28 -87 -6 -12 9 -41 46 -63 83 l-41 67 8 -55 c4 -30 8 -81 8 -113 0 -52 -3 -62 -28 -83 -35 -30 -49 -30 -84 0 l-27 24 37 78 c36 79 60 194 40 194 -17 0 -107 -102 -158 -179 -43 -64 -50 -80 -53 -137 -4 -60 -3 -65 26 -94 35 -35 71 -39 97 -10 21 23 44 25 69 7 14 -10 16 -21 11 -50 -11 -59 -57 -118 -124 -158 l-60 -36 46 -7 c104 -14 165 -1 220 47 55 48 75 103 67 180 l-6 62 23 -34 c41 -58 72 -75 148 -79 55 -3 76 0 112 18 57 29 86 56 110 102 21 41 28 111 7 73 -29 -53 -86 -69 -151 -41 -73 30 -133 142 -92 172 9 7 35 16 57 19 38 7 40 8 34 38 -10 52 -46 78 -141 103 -59 16 -174 18 -195 4z"/>
<path d="M5098 3898 c-4 -66 -16 -128 -41 -213 -20 -66 -39 -140 -42 -165 -12 -87 49 -301 91 -317 26 -10 50 27 80 120 38 121 36 200 -11 352 -26 84 -39 148 -44 214 -8 127 -27 131 -33 9z"/>
<path d="M3905 3928 c-13 -55 -7 -121 15 -181 44 -118 187 -222 319 -234 56 -5 161 12 161 26 0 4 -31 11 -68 17 -180 29 -335 167 -392 349 -17 56 -27 62 -35 23z"/>
<path d="M6291 3918 c-31 -106 -109 -222 -186 -277 -61 -44 -155 -81 -229 -90 l-61 -8 37 -16 c108 -49 319 18 401 126 56 74 71 118 72 204 0 97 -15 125 -34 61z"/>
<path d="M4940 3828 c-34 -75 -156 -193 -245 -239 -75 -39 -144 -64 -216 -78 l-44 -9 60 -1 c171 -3 411 124 477 252 20 40 22 117 3 124 -6 2 -21 -21 -35 -49z"/>
<path d="M5236 3857 c-14 -59 41 -158 122 -219 102 -77 267 -139 367 -137 l50 1 -70 18 c-172 46 -340 167 -414 299 -19 34 -38 61 -42 61 -4 0 -9 -10 -13 -23z"/>
<path d="M104 3079 c-3 -6 -2 -15 3 -20 6 -6 1960 -9 4999 -9 2744 0 4995 0 5002 0 6 0 12 9 12 20 0 20 -7 20 -5004 20 -3593 0 -5007 -3 -5012 -11z"/>
</g>
</svg>