<svg xmlns="http://www.w3.org/2000/svg" version="1.0" preserveAspectRatio="xMidYMid meet" viewBox="8.12 75.1 1009.83 604.96">

<g transform="translate(0.000000,1024.000000) scale(0.100000,-0.100000)" fill="#000000" stroke="none">
<path d="M5051 9468 c-47 -31 -71 -76 -78 -142 l-6 -55 -24 19 c-61 48 -150 50 -179 4 -37 -56 8 -211 88 -302 72 -83 129 -208 127 -281 0 -23 -2 -22 -13 9 -23 62 -67 143 -111 205 -49 69 -120 115 -179 115 -82 0 -68 -88 33 -202 63 -71 111 -132 111 -140 0 -3 -18 12 -40 33 -37 36 -141 79 -188 79 -9 0 -29 12 -45 28 l-29 27 20 -40 c11 -22 69 -86 131 -143 97 -91 116 -113 151 -185 88 -178 132 -460 170 -1087 19 -318 9 -308 -20 20 -57 642 -106 916 -193 1070 -17 30 -73 97 -124 148 -108 108 -132 150 -141 241 -7 64 -8 66 -42 78 -47 16 -94 16 -133 -1 -54 -22 -71 -50 -75 -122 l-4 -64 -38 52 c-64 88 -164 141 -268 142 -52 1 -66 -3 -78 -18 -19 -26 -18 -76 2 -104 14 -21 14 -22 -11 -22 -88 0 -187 -133 -156 -208 23 -56 56 -77 119 -77 31 0 75 4 97 9 l39 9 -26 -31 c-31 -37 -52 -94 -46 -126 4 -19 -5 -28 -59 -56 -106 -55 -165 -147 -179 -282 -17 -168 69 -344 255 -521 76 -73 175 -121 247 -121 63 0 126 37 151 89 15 31 15 36 -1 59 -19 30 -43 32 -110 10 -44 -15 -53 -15 -113 0 -36 8 -107 34 -159 57 -160 70 -211 149 -202 308 11 186 135 316 321 337 28 3 70 1 92 -3 39 -9 37 -10 -37 -16 -113 -10 -182 -39 -250 -107 -48 -48 -60 -68 -79 -129 -36 -122 -13 -219 70 -294 23 -20 43 -37 46 -37 2 0 2 20 -2 45 -4 36 -1 55 21 99 35 71 53 86 64 55 8 -22 9 -21 15 8 8 38 102 143 160 176 65 39 153 60 242 61 66 0 90 -5 138 -27 141 -65 234 -195 318 -447 46 -140 48 -122 9 75 -40 196 -92 371 -140 470 -101 209 -345 398 -532 412 -70 5 -90 1 -173 -32 -20 -8 -20 -8 -1 13 32 36 98 55 173 50 192 -14 442 -196 546 -397 89 -171 183 -593 207 -926 12 -171 12 -165 1 -165 -5 0 -11 19 -15 43 -12 74 -75 359 -96 432 -48 169 -129 278 -250 334 -75 34 -181 35 -257 2 -64 -28 -133 -99 -134 -138 -4 -86 8 -104 65 -101 36 3 41 0 44 -19 2 -14 -5 -27 -22 -39 -54 -35 -126 31 -126 117 0 129 130 231 295 232 81 0 133 -14 194 -55 24 -16 46 -27 48 -24 10 10 -96 105 -144 129 -75 38 -130 43 -210 18 -172 -52 -269 -204 -218 -337 32 -85 101 -144 168 -144 38 0 82 29 92 60 6 19 8 19 69 -4 88 -32 143 -65 204 -127 103 -103 158 -265 149 -436 -6 -104 -5 -105 59 -78 147 61 400 59 572 -5 30 -11 56 -19 58 -17 2 2 -1 31 -7 65 -18 102 11 255 71 372 47 93 171 190 302 236 36 12 38 12 49 -9 45 -88 168 -69 233 37 23 37 31 63 34 112 5 79 -19 134 -84 194 -104 96 -244 122 -351 67 -60 -31 -113 -75 -145 -120 l-23 -32 36 27 c47 37 100 58 172 69 233 38 443 -181 315 -327 -33 -37 -61 -43 -96 -18 -26 18 -28 36 -7 54 13 11 20 10 41 0 37 -20 59 6 59 69 0 71 -37 121 -122 163 -59 29 -77 33 -143 32 -168 -1 -294 -107 -361 -302 -24 -70 -84 -344 -99 -447 -14 -105 -30 -121 -30 -29 0 172 49 515 105 738 62 247 117 356 238 475 85 83 171 142 266 182 66 29 88 33 167 33 84 1 93 -1 128 -28 20 -15 35 -30 33 -32 -2 -2 -26 5 -52 17 -41 18 -61 21 -124 16 -89 -6 -158 -31 -250 -91 -135 -88 -241 -206 -301 -339 -58 -128 -134 -429 -144 -574 -3 -37 -3 -59 0 -48 98 367 222 529 432 566 75 13 186 -6 269 -47 65 -32 144 -108 178 -172 19 -38 24 -42 25 -23 0 23 1 23 19 7 32 -29 64 -115 58 -158 -6 -44 2 -47 44 -17 81 57 112 199 69 313 -31 82 -114 166 -193 195 -33 12 -93 24 -135 28 -71 6 -74 7 -42 16 46 12 138 3 203 -19 36 -13 70 -37 113 -79 79 -78 108 -147 108 -260 1 -138 -49 -210 -189 -275 -156 -72 -199 -79 -339 -54 -44 7 -66 -10 -66 -53 0 -35 65 -101 112 -114 106 -28 238 43 374 200 120 139 174 262 174 396 0 157 -72 281 -194 336 -37 16 -40 21 -43 59 -3 42 -23 91 -52 124 -15 18 -15 19 14 12 91 -19 133 -19 167 2 75 47 77 135 5 210 -37 39 -77 62 -107 62 -17 0 -19 3 -10 19 5 11 10 38 10 60 0 72 -54 88 -172 51 -78 -24 -146 -73 -184 -135 -16 -25 -31 -45 -34 -45 -3 0 -4 19 -2 43 5 55 -18 110 -54 134 -33 21 -136 24 -171 5 -18 -10 -23 -21 -23 -56 0 -87 -25 -131 -146 -257 -89 -92 -120 -132 -148 -191 -79 -164 -128 -465 -173 -1058 -16 -206 -18 -223 -21 -141 -4 124 33 640 58 811 36 243 81 395 145 486 19 27 78 88 132 135 87 75 143 144 143 174 0 6 -11 -4 -25 -21 -19 -25 -35 -33 -72 -39 -65 -9 -131 -39 -172 -78 -53 -51 -21 -1 53 81 78 86 93 108 106 153 30 103 -113 104 -201 1 -44 -52 -114 -173 -139 -243 -24 -67 -27 -33 -4 54 21 83 56 148 112 210 53 58 97 154 107 233 6 41 3 53 -14 76 -28 36 -76 44 -127 23 -21 -8 -46 -23 -56 -32 -17 -15 -18 -14 -18 18 0 56 -20 109 -54 147 -29 32 -40 36 -92 40 -50 3 -65 0 -93 -20z m89 -1033 c16 -586 18 -648 30 -797 12 -159 13 -468 2 -468 -5 0 -14 134 -21 298 -6 163 -15 313 -20 332 -7 32 -8 29 -14 -35 -4 -38 -10 -188 -14 -333 -4 -168 -10 -261 -16 -259 -17 5 -17 30 -4 307 6 146 12 316 12 378 0 61 3 112 6 112 3 0 5 15 5 33 0 96 19 907 21 877 1 -19 7 -219 13 -445z m-895 5 l30 -12 -33 -15 c-22 -9 -61 -13 -115 -11 l-82 3 28 29 c27 27 33 28 85 23 32 -3 71 -11 87 -17z m1929 -1 c14 -11 26 -25 26 -30 0 -12 -136 -11 -184 2 -43 12 -39 22 14 37 60 17 115 14 144 -9z m-1659 -705 c129 -33 229 -122 301 -268 61 -124 102 -294 75 -311 -11 -6 -17 11 -26 75 -17 122 -90 281 -166 364 -73 80 -193 136 -291 136 -21 0 -38 5 -38 10 0 15 78 12 145 -6z m1365 6 c0 -5 -13 -10 -30 -10 -54 0 -135 -22 -193 -53 -133 -70 -230 -236 -268 -459 -14 -87 -34 -81 -25 7 7 72 40 174 84 260 59 119 175 220 284 249 62 17 148 20 148 6z"/>
<path d="M2955 7961 c-22 -10 -55 -33 -72 -51 -32 -32 -73 -122 -73 -158 0 -15 -2 -15 -10 -2 -5 8 -10 25 -10 37 0 50 -87 34 -128 -24 -38 -54 -53 -151 -33 -220 9 -30 8 -33 -25 -43 -19 -6 -38 -19 -43 -27 -6 -11 -25 -17 -61 -18 -66 -2 -110 29 -110 78 -1 77 -73 166 -151 187 -73 20 -135 -11 -163 -81 -36 -91 40 -157 108 -94 28 26 32 45 16 76 -9 15 -7 19 7 19 27 0 78 -34 107 -73 32 -41 32 -45 4 -49 -13 -2 -23 -10 -23 -18 0 -8 7 -14 15 -12 29 7 -43 -57 -107 -95 -86 -50 -166 -137 -188 -203 -35 -105 -4 -230 87 -347 51 -66 84 -87 175 -107 101 -22 104 -21 37 22 -32 21 -74 56 -93 77 -34 39 -91 148 -91 174 0 8 12 -10 27 -40 35 -71 133 -169 203 -201 104 -49 174 -63 320 -62 223 1 415 45 679 158 250 108 398 147 596 159 l80 5 -107 -18 c-152 -26 -263 -59 -429 -131 -182 -78 -252 -102 -394 -134 -428 -96 -794 -88 -1006 20 -47 24 -132 92 -120 97 6 1 -15 35 -45 73 -52 66 -144 239 -144 270 0 27 70 19 102 -12 l27 -26 11 27 c20 54 13 95 -24 132 -29 29 -41 34 -81 34 -79 0 -125 -20 -186 -80 -70 -68 -99 -138 -99 -239 0 -300 294 -528 705 -548 135 -6 276 6 464 42 69 13 127 22 129 21 1 -2 -51 -29 -115 -60 -73 -36 -150 -65 -205 -78 -49 -11 -86 -24 -83 -29 8 -13 -92 -39 -181 -47 l-79 -7 59 -63 c67 -71 169 -128 252 -141 57 -9 64 -4 -97 -64 -247 -93 -416 -122 -644 -114 -107 4 -180 13 -255 30 -266 62 -506 185 -542 276 l-16 41 25 -6 c25 -7 25 -7 8 19 -49 75 -165 21 -165 -77 0 -89 94 -188 255 -267 124 -60 255 -99 360 -104 69 -4 74 -3 36 5 -234 50 -505 200 -561 311 -29 56 -24 60 9 7 70 -110 315 -232 583 -289 63 -14 149 -22 268 -26 151 -5 193 -2 305 17 168 28 395 103 565 186 73 35 135 63 137 61 7 -8 -90 -65 -181 -107 -191 -90 -463 -165 -691 -190 -181 -20 -500 -4 -630 31 -291 78 -489 190 -549 310 -36 73 -35 134 2 97 9 -9 12 -7 12 9 0 31 -38 73 -66 73 -37 0 -102 -65 -118 -119 l-14 -46 -38 80 c-34 70 -39 89 -39 150 1 75 26 148 68 194 l22 24 -23 -12 c-34 -18 -81 -88 -98 -150 -27 -93 -9 -186 54 -281 l24 -35 -35 38 c-58 63 -72 101 -72 197 0 70 4 93 24 130 62 119 177 179 266 138 29 -13 30 -15 9 -56 -15 -30 -13 -82 5 -110 13 -21 120 3 153 35 45 43 61 132 36 204 -42 124 -161 199 -317 199 -162 0 -270 -63 -356 -205 -192 -320 -10 -668 442 -845 436 -171 923 -213 1480 -129 206 31 504 109 629 164 l52 23 21 -29 c33 -45 150 -65 218 -38 l28 12 -35 9 c-33 9 -100 63 -100 80 0 4 28 29 62 56 34 26 80 63 103 83 l40 37 0 -127 c1 -91 6 -142 19 -186 29 -98 93 -210 155 -272 182 -183 510 -184 633 -1 67 99 38 240 -55 267 -31 9 -31 9 13 10 26 1 59 10 78 21 26 16 32 26 32 53 0 51 -32 75 -115 86 -92 13 -171 54 -209 109 -39 55 -48 149 -20 220 20 54 98 135 165 171 52 28 44 19 -27 -32 -173 -124 -177 -330 -8 -413 114 -56 229 -31 255 55 10 33 8 45 -10 86 l-21 49 -38 -37 c-28 -27 -46 -37 -70 -37 -105 0 -141 95 -83 215 44 89 48 93 43 33 -5 -70 21 -108 76 -108 34 0 45 9 133 100 75 78 109 106 160 129 124 58 299 50 436 -20 77 -38 155 -97 148 -110 -4 -6 -17 -1 -33 11 -78 60 -186 111 -262 123 -38 6 -38 6 75 -40 80 -32 182 -104 194 -136 5 -12 7 -24 5 -26 -2 -2 -25 16 -51 39 -92 81 -268 150 -383 150 -147 0 -258 -108 -235 -228 8 -43 49 -86 76 -79 20 5 26 -7 9 -18 -5 -3 -10 -28 -10 -55 0 -42 4 -52 31 -74 40 -34 93 -35 142 -2 l36 25 43 -42 c30 -30 50 -61 66 -107 30 -89 29 -96 -15 -103 -53 -9 -81 -31 -94 -78 -10 -30 -16 -38 -28 -33 -27 11 -108 17 -145 10 -37 -7 -96 -50 -96 -70 0 -6 19 -18 42 -26 38 -14 43 -19 54 -64 7 -28 21 -61 32 -75 44 -60 170 -118 276 -128 113 -10 270 50 365 140 l43 42 -17 -35 c-28 -56 -101 -155 -137 -185 -105 -89 -258 -100 -312 -24 -23 33 -43 17 -57 -45 l-12 -55 -36 29 c-20 16 -56 36 -79 46 l-44 17 -24 -29 c-16 -20 -23 -42 -24 -69 0 -42 29 -101 55 -111 28 -11 15 -24 -22 -24 -40 0 -95 28 -123 62 -27 34 -54 17 -47 -28 11 -69 97 -151 195 -186 61 -22 216 -24 297 -3 33 9 93 32 132 52 87 42 176 132 218 217 15 31 29 56 31 56 6 0 -29 -106 -47 -142 -27 -54 -122 -152 -191 -198 -95 -63 -176 -83 -311 -78 -155 7 -222 35 -361 151 -82 70 -166 56 -166 -25 0 -46 41 -129 91 -182 39 -43 40 -46 18 -46 -46 0 -205 112 -239 168 -23 37 -59 49 -101 32 -86 -36 -55 -157 64 -252 70 -55 117 -77 211 -98 l81 -19 -90 6 c-191 10 -339 47 -435 108 -50 32 -117 99 -143 144 l-18 31 26 0 c18 0 40 13 62 35 32 32 35 40 30 76 -16 118 -174 152 -268 58 -124 -124 -33 -368 180 -479 72 -38 26 -29 -80 15 -155 65 -327 198 -425 329 -81 107 -157 285 -179 415 -13 79 -80 116 -125 71 -29 -29 -26 -101 5 -169 14 -30 24 -58 23 -63 -2 -5 -34 27 -71 71 -91 107 -155 164 -229 200 -60 31 -91 37 -122 25 -19 -7 -21 -58 -6 -100 6 -15 9 -29 6 -31 -2 -2 -26 7 -53 20 -121 61 -433 155 -643 193 -146 27 -438 25 -595 -4 -234 -44 -223 -40 -227 -70 -5 -43 -83 -77 -175 -77 -66 0 -75 3 -100 28 -28 27 -28 28 -10 58 27 48 22 86 -17 125 -29 29 -41 34 -80 34 -139 0 -218 -152 -150 -288 30 -61 82 -96 166 -113 l55 -11 -21 -39 c-19 -36 -20 -41 -6 -66 19 -34 45 -40 70 -18 14 13 28 16 54 11 25 -5 38 -2 51 10 22 23 15 45 -22 69 -18 11 -31 24 -29 30 1 5 36 22 77 38 41 15 130 52 199 81 110 47 221 86 247 86 4 0 -35 -24 -88 -53 -216 -119 -450 -326 -564 -497 -268 -403 -217 -951 113 -1225 154 -128 349 -195 564 -195 330 0 610 174 742 462 83 179 86 386 8 552 -51 109 -167 198 -298 230 l-59 14 95 1 c225 2 438 -58 950 -269 516 -212 716 -263 1030 -263 270 -1 462 31 742 123 237 77 497 229 637 374 l45 45 31 -32 31 -32 -30 -41 c-17 -23 -39 -56 -49 -74 l-18 -33 -67 7 c-67 7 -69 6 -80 -19 -28 -62 -2 -117 71 -151 29 -13 62 -24 75 -24 47 0 18 -24 -56 -45 -44 -13 -109 5 -168 45 -56 38 -58 39 -93 24 -49 -19 -87 -67 -101 -125 -32 -134 57 -208 262 -217 122 -5 207 15 291 67 26 17 47 29 47 27 0 -2 -7 -20 -15 -41 -44 -103 -36 -196 20 -263 59 -68 129 -79 194 -31 39 29 81 112 81 160 0 32 -20 110 -45 174 -8 19 -7 19 16 -1 67 -60 183 -95 309 -95 139 0 237 41 274 116 17 34 18 45 8 92 -13 62 -42 107 -82 128 -42 22 -66 19 -113 -14 -82 -55 -157 -63 -231 -24 l-31 17 46 7 c55 8 84 22 122 57 22 21 27 34 27 71 0 69 -6 74 -87 66 l-70 -7 -30 53 c-17 30 -40 63 -52 73 l-21 19 24 22 c12 11 27 29 32 38 9 15 21 7 91 -60 162 -156 359 -273 594 -351 264 -88 484 -125 744 -125 319 -1 497 45 1075 278 498 201 644 243 870 251 l135 5 -76 -24 c-97 -29 -153 -63 -212 -126 -159 -170 -170 -480 -25 -725 50 -84 160 -197 248 -254 301 -195 724 -173 1007 53 198 158 296 382 295 675 -1 322 -120 566 -402 823 -115 105 -236 190 -344 243 -49 24 -91 46 -94 49 -3 2 28 -5 69 -16 88 -24 472 -182 476 -195 1 -5 -12 -18 -30 -29 -55 -35 -44 -79 19 -77 21 1 48 -5 61 -13 28 -19 38 -19 57 1 22 21 20 76 -3 105 l-18 24 46 1 c81 2 163 59 195 136 51 122 -30 268 -149 268 -96 0 -159 -84 -115 -155 l21 -33 -24 -27 c-18 -21 -35 -29 -74 -32 -59 -6 -149 17 -184 47 -22 19 -20 19 21 -2 64 -33 185 -38 220 -10 24 19 24 21 7 40 -25 28 -90 43 -126 29 -24 -9 -34 -6 -75 22 l-47 33 6 -36 c7 -36 -1 -46 -22 -25 -5 5 -84 24 -174 41 -145 27 -186 31 -354 31 -157 1 -213 -3 -320 -22 -195 -34 -451 -112 -622 -187 -49 -22 -55 -23 -48 -7 13 30 18 71 11 98 -9 35 -53 33 -131 -4 -72 -34 -136 -90 -235 -205 -40 -47 -75 -84 -77 -82 -2 2 10 32 27 67 38 82 40 140 5 174 -29 30 -55 32 -85 7 -16 -13 -30 -49 -51 -133 -18 -68 -48 -151 -74 -205 -112 -225 -333 -417 -576 -499 -74 -25 -107 -28 -47 -5 52 21 153 96 187 139 84 106 99 254 35 338 -34 44 -78 65 -135 65 -61 0 -109 -27 -132 -75 -16 -31 -17 -42 -7 -72 13 -38 52 -75 81 -75 33 0 21 -27 -41 -93 -102 -110 -239 -165 -459 -187 -94 -10 -273 -1 -288 13 -2 3 30 7 72 9 135 9 268 94 336 213 16 29 37 59 44 65 27 22 17 -32 -13 -81 -56 -86 -127 -141 -244 -189 -32 -13 -56 -25 -54 -27 9 -9 132 18 179 40 63 29 171 126 198 178 32 64 24 110 -22 134 -48 25 -65 18 -150 -65 -82 -79 -162 -130 -206 -130 -21 0 -20 3 17 36 44 40 100 143 100 184 0 15 -9 39 -21 54 -32 41 -76 36 -139 -16 -92 -76 -139 -106 -196 -127 -83 -31 -179 -42 -271 -31 -201 25 -403 200 -438 380 -6 30 -2 26 24 -25 77 -151 225 -248 419 -275 177 -24 351 48 404 168 32 72 5 107 -43 56 -33 -36 -72 -54 -115 -54 l-36 0 30 35 c50 56 54 124 12 173 -18 22 -22 23 -57 12 -21 -7 -56 -26 -77 -41 -52 -38 -63 -37 -58 4 2 22 -3 41 -16 57 l-21 25 -33 -33 c-44 -42 -88 -54 -145 -41 -117 26 -212 111 -288 259 -18 34 -18 34 37 -15 97 -89 241 -142 353 -132 76 8 164 38 215 74 44 32 90 97 90 128 0 33 28 64 65 71 19 3 35 11 35 16 0 20 -62 68 -96 74 -36 7 -111 1 -151 -11 -19 -6 -23 -4 -23 17 0 45 -59 98 -110 98 -49 0 -4 144 66 207 l46 43 30 -21 c16 -12 49 -24 72 -26 35 -4 47 -1 74 22 27 22 32 34 32 69 0 23 -7 52 -16 65 -16 22 -16 23 5 16 16 -5 29 1 52 25 30 29 31 34 27 94 -5 76 -35 124 -101 158 -35 19 -58 22 -132 22 -141 -1 -266 -47 -379 -139 -69 -56 -76 -34 -8 24 52 45 135 92 215 122 28 10 39 17 22 14 -83 -16 -142 -41 -216 -91 -81 -55 -111 -64 -71 -21 31 33 124 87 197 113 84 31 173 39 264 25 107 -17 175 -57 262 -153 39 -43 84 -85 100 -93 68 -35 114 -5 114 76 0 27 1 49 2 49 2 0 16 -24 33 -52 39 -69 47 -125 25 -171 -30 -64 -120 -79 -170 -27 -16 17 -32 30 -37 30 -14 0 -38 -59 -38 -96 0 -48 53 -103 102 -105 98 -5 152 10 207 57 128 107 80 301 -101 413 -44 26 -51 38 -10 17 64 -33 152 -108 177 -149 51 -89 43 -201 -21 -276 -43 -50 -101 -78 -189 -90 -59 -9 -74 -15 -97 -41 -16 -17 -28 -38 -28 -48 0 -34 45 -64 107 -72 32 -4 48 -8 35 -9 -12 0 -39 -16 -59 -35 -35 -32 -37 -38 -41 -102 -3 -62 0 -74 27 -121 87 -148 323 -193 517 -98 131 64 240 212 280 380 10 42 17 112 17 177 l0 107 56 -42 c109 -81 141 -110 141 -127 0 -26 -54 -68 -98 -76 l-37 -7 30 -13 c68 -29 207 -5 232 41 9 15 22 12 134 -25 242 -80 458 -127 739 -162 140 -17 617 -17 730 0 304 46 610 144 777 248 136 85 251 218 294 342 23 66 27 193 9 263 -18 66 -78 174 -127 229 -27 31 -69 62 -109 81 -56 28 -78 33 -162 37 -83 3 -106 1 -155 -18 -126 -47 -197 -138 -197 -252 0 -107 45 -160 147 -171 45 -5 53 -4 58 13 12 39 7 101 -9 119 -15 16 -15 20 -2 30 20 17 86 25 131 17 51 -10 122 -78 156 -151 56 -116 32 -253 -56 -335 l-38 -35 32 41 c96 123 93 294 -9 406 l-40 43 34 -67 c48 -93 56 -164 27 -248 -13 -36 -32 -80 -44 -99 l-20 -33 -19 49 c-20 55 -60 98 -98 108 -33 8 -80 -27 -80 -59 0 -31 11 -39 26 -18 12 16 13 15 14 -4 1 -64 -57 -153 -139 -215 -111 -83 -343 -173 -530 -206 -137 -24 -507 -24 -646 0 -262 46 -544 143 -707 244 -86 53 -53 53 45 0 176 -95 431 -181 633 -212 145 -23 396 -16 538 14 255 55 489 164 575 268 17 21 31 32 31 26 0 -22 -103 -124 -160 -157 -90 -53 -230 -113 -331 -142 -125 -35 -147 -45 -84 -38 304 33 578 171 644 325 28 63 21 98 -25 139 -41 35 -85 39 -114 10 -26 -26 -26 -43 0 -35 20 6 21 6 5 -32 -22 -54 -74 -96 -200 -157 -118 -58 -248 -103 -385 -132 -133 -29 -430 -27 -568 4 -107 24 -287 83 -381 125 l-55 24 48 5 c77 9 184 68 252 140 l59 63 -81 7 c-88 7 -197 35 -189 48 2 4 -34 17 -81 29 -77 19 -330 129 -320 138 2 3 60 -7 127 -21 430 -87 748 -46 975 126 172 130 248 357 175 523 -26 59 -92 129 -146 154 -83 39 -194 21 -215 -35 -13 -32 -13 -104 0 -124 7 -12 13 -10 34 13 18 19 35 27 60 27 19 0 37 -4 40 -8 2 -4 -13 -49 -35 -98 -47 -106 -130 -216 -209 -275 -30 -22 -57 -43 -60 -46 -13 -14 43 21 85 52 65 50 67 38 2 -14 -111 -91 -237 -133 -455 -152 -287 -25 -683 48 -1008 187 -208 88 -304 118 -460 144 l-119 19 95 -5 c186 -11 340 -52 566 -150 277 -120 475 -167 709 -168 165 -1 215 9 329 66 75 38 164 126 199 197 37 75 34 42 -3 -37 -33 -70 -105 -145 -184 -193 -28 -16 -42 -28 -31 -25 11 3 52 13 90 22 98 24 118 36 180 111 71 86 99 156 99 248 0 128 -51 201 -215 311 -90 60 -116 84 -89 84 16 0 12 28 -6 38 -21 12 -8 38 41 81 41 36 93 44 75 12 -16 -30 -12 -50 15 -76 29 -30 75 -33 98 -7 10 11 17 36 17 60 0 34 -7 49 -36 81 -19 22 -48 42 -64 46 -44 10 -107 -12 -152 -53 -46 -42 -68 -85 -68 -136 0 -26 -7 -40 -31 -60 -17 -14 -36 -26 -42 -26 -7 0 3 13 22 28 33 28 33 29 18 58 -8 16 -31 44 -51 62 -40 36 -43 49 -21 92 20 39 2 39 -35 0 -27 -29 -40 -67 -40 -120 0 -27 26 -58 68 -79 30 -16 28 -28 -9 -36 -25 -6 -36 -2 -57 18 -15 14 -36 27 -47 29 -17 3 -19 9 -15 43 15 121 -13 219 -72 255 -58 35 -98 19 -98 -39 0 -12 -4 -21 -10 -21 -5 0 -10 8 -10 18 0 78 -81 187 -156 210 -64 19 -144 15 -182 -8 -41 -25 -66 -81 -57 -126 8 -45 17 -48 60 -23 20 12 54 22 76 23 35 1 46 -5 74 -36 43 -46 58 -104 53 -194 -5 -80 -41 -158 -92 -200 -45 -39 -135 -81 -222 -104 -62 -17 -119 -23 -268 -27 -207 -6 -216 -13 -58 -43 143 -27 236 -33 336 -20 250 31 446 148 508 303 9 23 17 35 17 27 1 -24 -43 -112 -75 -149 -65 -77 -248 -172 -389 -202 -94 -19 -265 -15 -375 10 -52 11 -126 28 -165 36 -249 55 -475 30 -673 -76 -96 -51 -169 -108 -266 -208 -43 -45 -81 -80 -83 -77 -2 2 23 39 55 82 134 178 336 298 566 339 47 8 151 17 233 20 166 7 328 40 400 81 207 118 179 434 -40 452 -124 10 -203 -89 -152 -188 26 -50 95 -52 117 -4 11 23 12 23 29 8 28 -25 33 -74 14 -122 l-17 -42 -17 32 c-9 18 -25 34 -36 36 -19 3 -19 2 -2 -11 9 -8 17 -26 17 -41 0 -89 -105 -133 -370 -155 -243 -20 -389 -57 -530 -133 -218 -116 -348 -264 -406 -458 -35 -118 -38 -122 -42 -62 -4 67 30 203 63 253 l24 37 -35 7 c-20 3 -48 4 -63 0 -36 -8 -77 -72 -92 -144 -21 -101 -29 -120 -22 -56 8 81 27 142 55 174 19 22 18 21 -10 -4 -25 -22 -40 -51 -62 -120 -22 -68 -29 -82 -29 -57 -1 18 -8 49 -17 70 l-17 37 -8 -40 c-4 -22 -9 -60 -10 -85 -1 -27 -3 -35 -6 -20 -12 75 -48 172 -75 202 -29 32 -29 32 -10 3 11 -16 25 -54 31 -83 16 -78 12 -86 -8 -16 -35 121 -78 158 -160 137 l-33 -8 22 -27 c29 -37 57 -122 71 -218 11 -73 9 -103 -7 -87 -3 3 -17 45 -31 94 -34 121 -76 195 -161 284 -108 114 -268 215 -412 260 -79 24 -271 55 -400 64 -166 11 -275 45 -319 101 -27 35 -27 69 1 88 l22 16 -22 0 c-16 0 -27 -9 -37 -32 -7 -18 -11 -36 -9 -40 3 -5 2 -8 -1 -8 -13 0 -35 71 -35 113 0 30 6 49 18 60 17 16 20 15 40 -13 63 -85 168 24 116 119 -24 45 -86 81 -140 81 -23 0 -61 -11 -92 -26 -148 -74 -146 -293 5 -407 20 -15 80 -41 133 -58 81 -27 118 -32 255 -40 336 -18 469 -55 653 -182 74 -51 160 -137 213 -214 49 -70 33 -61 -59 33 -182 186 -361 278 -596 304 -112 13 -243 0 -415 -41 -180 -43 -290 -54 -398 -39 -224 29 -434 150 -498 286 -36 76 -31 89 6 16 54 -109 177 -195 354 -248 127 -37 312 -39 469 -5 62 14 102 27 95 31 -8 4 -88 10 -179 13 -109 3 -187 11 -230 22 -221 59 -323 165 -323 335 0 112 40 191 105 205 21 5 44 -1 85 -20 64 -32 73 -27 73 41 0 47 -25 86 -70 109 -40 21 -136 19 -185 -4z m-565 -530 c7 -14 7 -27 -2 -45 -15 -35 -22 -33 -37 10 -11 30 -11 38 0 45 21 13 27 11 39 -10z m5520 4 c10 -12 9 -20 -6 -42 l-18 -28 -12 30 c-7 17 -13 36 -14 43 0 17 35 15 50 -3z m-5237 -51 c30 -57 136 -162 195 -194 l37 -20 -50 6 c-96 11 -213 34 -270 54 -32 11 -61 18 -64 15 -9 -10 104 -109 155 -137 88 -48 185 -69 346 -75 172 -7 241 2 453 58 203 53 282 68 402 79 205 18 416 -19 573 -100 68 -36 206 -137 198 -146 -2 -1 -51 15 -108 36 -368 140 -697 145 -1007 14 -292 -122 -366 -139 -593 -131 -363 12 -581 132 -659 365 -20 59 -28 161 -14 176 4 3 12 -8 17 -26 10 -29 16 -33 48 -36 29 -3 43 2 63 22 14 14 25 35 25 48 0 17 3 19 12 10 22 -22 92 -15 123 14 20 18 36 24 59 22 26 -3 35 -11 59 -54z m5039 21 c31 -26 52 -28 100 -10 13 5 20 0 27 -18 13 -34 49 -57 87 -57 26 0 34 6 44 30 37 89 38 -49 1 -153 -78 -224 -292 -342 -644 -354 -221 -8 -320 12 -557 113 -210 89 -371 121 -570 111 -136 -6 -309 -43 -460 -97 -58 -20 -114 -41 -125 -44 -28 -10 35 45 109 96 168 115 405 170 651 148 130 -11 210 -27 385 -75 204 -56 294 -68 465 -62 241 8 354 48 467 165 29 30 45 52 35 49 -99 -35 -350 -84 -365 -72 -2 1 18 15 43 29 66 39 149 124 180 185 26 52 28 53 61 48 19 -3 49 -18 66 -32z m-6037 -193 c-25 -71 -29 -142 -11 -210 23 -93 52 -140 127 -214 83 -82 222 -154 374 -195 91 -24 117 -27 290 -27 160 -1 208 3 304 22 62 13 115 21 117 19 6 -6 -157 -43 -271 -63 -144 -26 -331 -15 -465 26 -237 71 -403 187 -472 328 -30 61 -33 74 -33 162 1 77 5 105 24 148 28 62 36 64 16 4z m6932 -41 c10 -37 14 -80 11 -135 -3 -68 -10 -91 -38 -144 -78 -147 -235 -253 -486 -328 -120 -35 -317 -44 -449 -20 -120 23 -267 57 -263 62 3 2 51 -6 109 -18 86 -18 138 -22 299 -22 179 0 203 3 295 27 229 61 400 178 473 325 35 72 37 81 36 167 0 56 -7 107 -17 135 -13 37 -13 42 -1 25 8 -11 22 -44 31 -74z m-605 -125 c-81 -168 -216 -257 -441 -291 -53 -8 -118 -15 -146 -14 -38 1 -23 5 65 18 134 21 214 43 285 78 60 31 140 92 177 137 29 35 88 145 89 167 0 11 2 11 6 1 3 -7 -13 -50 -35 -96z m-5683 -73 c23 -29 72 -72 109 -96 102 -67 183 -93 387 -123 l90 -13 -105 5 c-127 5 -249 33 -332 75 -109 55 -220 189 -243 294 -4 18 5 5 23 -30 16 -33 48 -83 71 -112z m1856 -14 c-139 -10 -264 -32 -305 -55 -19 -11 -20 -14 -5 -10 193 45 456 58 592 30 78 -16 198 -59 262 -95 42 -24 30 -20 -59 17 -120 50 -196 65 -350 71 -109 4 -166 1 -231 -11 -202 -38 -372 -123 -512 -256 -113 -107 -159 -172 -243 -343 -65 -133 -68 -141 -72 -226 -11 -227 135 -448 328 -497 127 -32 270 1 312 73 28 47 34 34 8 -17 -54 -105 -264 -130 -422 -49 -91 47 -193 186 -232 319 -22 72 -22 212 0 276 9 27 33 81 54 119 44 80 63 125 52 125 -4 0 -52 -55 -107 -121 -94 -116 -162 -177 -232 -213 -59 -30 -59 -16 0 16 72 39 146 118 230 246 36 54 80 111 98 127 l34 28 -30 -7 c-37 -9 -143 -78 -208 -136 -27 -24 -88 -88 -135 -144 -48 -55 -106 -120 -130 -142 -47 -46 -149 -104 -178 -103 -18 0 -17 1 1 9 35 14 62 53 90 130 15 44 39 88 58 108 17 17 28 32 26 32 -3 0 -32 -9 -64 -20 -79 -27 -208 -41 -284 -30 -69 10 -158 37 -166 51 -4 5 0 7 7 4 35 -14 161 -21 228 -14 149 17 224 55 460 233 211 159 336 239 505 322 201 100 313 135 510 158 17 1 77 3 135 3 l105 0 -130 -8z m2066 -4 c161 -19 273 -55 464 -150 154 -77 315 -182 523 -341 200 -154 284 -194 444 -214 83 -10 200 -2 229 16 7 4 9 3 6 -4 -10 -16 -94 -41 -171 -53 -87 -12 -203 3 -294 37 l-66 24 36 -34 c26 -25 43 -57 63 -115 20 -60 35 -88 61 -111 39 -34 32 -38 -23 -13 -74 33 -131 84 -239 209 -113 132 -225 231 -324 283 -70 37 -86 39 -43 6 17 -14 70 -81 118 -150 93 -133 166 -208 237 -244 23 -12 32 -19 18 -15 -79 20 -165 96 -294 257 -43 54 -80 96 -83 94 -2 -3 23 -62 58 -132 59 -121 62 -130 67 -218 8 -165 -45 -303 -163 -423 -88 -89 -151 -117 -270 -118 -44 -1 -101 5 -127 13 -58 17 -115 66 -124 106 l-6 30 26 -36 c42 -60 103 -84 216 -84 88 0 101 3 162 33 117 58 215 187 253 337 29 116 16 217 -46 339 -87 172 -133 239 -229 336 -116 118 -236 193 -390 244 -145 48 -228 59 -400 53 -128 -4 -157 -8 -245 -37 -55 -18 -113 -39 -130 -47 -27 -13 -28 -12 -11 1 34 27 177 76 270 92 136 24 332 13 576 -32 20 -3 18 -1 -8 11 -52 24 -164 44 -297 54 -106 7 -111 8 -45 10 41 0 132 -6 201 -14z m-1904 -1 c-3 -3 -12 -4 -19 -1 -8 3 -5 6 6 6 11 1 17 -2 13 -5z m14 -125 c224 -22 468 -144 595 -296 60 -72 61 -71 -4 -69 -56 2 -58 2 -124 68 -104 104 -215 171 -353 214 -48 15 -91 19 -215 19 -148 -1 -159 -2 -250 -33 -229 -78 -401 -215 -485 -387 -31 -64 -57 -175 -41 -175 4 0 17 12 30 27 l23 27 7 -39 c22 -114 152 -273 256 -313 30 -11 47 -21 37 -21 -31 -1 -67 -47 -67 -84 0 -38 15 -57 44 -57 20 -1 20 -1 -3 -20 -28 -24 -96 -27 -145 -6 -19 8 -58 30 -87 50 l-54 36 35 0 c19 1 45 6 58 13 22 13 20 14 -37 42 -111 52 -178 147 -188 266 -7 69 7 127 53 233 127 288 385 469 719 506 39 4 75 8 81 9 7 0 58 -4 115 -10z m1756 0 c199 -22 383 -103 514 -227 94 -88 146 -161 200 -279 54 -116 65 -170 50 -253 -22 -121 -96 -212 -209 -256 -43 -17 -43 -18 -20 -30 12 -7 39 -14 58 -14 l35 0 -25 -20 c-96 -74 -203 -100 -251 -61 l-24 19 28 7 c58 15 39 119 -25 132 l-32 6 41 12 c53 16 122 64 172 122 47 52 101 158 101 195 0 38 12 41 38 11 l23 -28 -5 60 c-8 91 -61 189 -154 283 -88 89 -164 142 -272 189 -133 57 -189 68 -355 68 -144 0 -154 -2 -249 -34 -136 -47 -255 -128 -346 -236 -22 -27 -32 -30 -88 -32 l-62 -1 29 36 c119 151 328 278 518 316 43 8 98 17 123 19 25 2 55 4 68 5 12 1 66 -3 119 -9z m-5420 -31 c24 -11 53 -34 65 -51 l23 -32 -44 37 c-60 51 -128 65 -212 43 -34 -8 -77 -24 -95 -35 -48 -30 -103 -96 -133 -159 -22 -48 -26 -69 -26 -151 0 -86 3 -101 31 -160 29 -60 100 -142 174 -198 36 -28 163 -94 252 -132 43 -19 76 -35 74 -37 -8 -8 -162 59 -255 110 -126 70 -220 157 -266 249 -32 65 -35 78 -35 157 0 122 26 195 97 271 103 111 232 144 350 88z m9068 17 c111 -29 203 -113 247 -227 16 -39 21 -77 22 -143 1 -83 -2 -96 -33 -159 -35 -71 -108 -153 -183 -203 -102 -70 -259 -144 -330 -157 -18 -4 4 9 49 28 103 43 216 100 268 136 67 46 144 136 176 205 29 61 31 72 27 158 -3 74 -8 103 -30 149 -58 125 -172 202 -298 202 -73 0 -117 -19 -164 -68 -21 -22 -26 -25 -17 -9 18 34 77 75 129 89 62 17 68 17 137 -1z m-4478 -187 c-2 -18 -4 -4 -4 32 0 36 2 50 4 33 2 -18 2 -48 0 -65z m-977 62 c-58 -4 -123 -12 -144 -18 -26 -7 -36 -8 -29 -1 15 15 98 27 193 26 l85 0 -105 -7z m1810 -14 c19 -9 27 -14 17 -11 -63 17 -162 27 -236 23 -77 -5 -113 -14 -246 -62 -11 -4 -3 2 18 14 77 42 172 61 297 56 79 -2 126 -9 150 -20z m-1657 7 c-7 -2 -21 -2 -30 0 -10 3 -4 5 12 5 17 0 24 -2 18 -5z m140 -41 c31 -14 56 -27 53 -29 -2 -3 -15 1 -28 8 -12 7 -52 23 -88 36 -36 13 -49 20 -30 17 19 -4 61 -18 93 -32z m-1676 -28 c-3 -3 -12 -4 -19 -1 -8 3 -5 6 6 6 11 1 17 -2 13 -5z m4450 0 c-3 -3 -12 -4 -19 -1 -8 3 -5 6 6 6 11 1 17 -2 13 -5z m-1008 -206 c1 -45 -20 -68 -62 -67 -31 2 -31 2 -4 6 41 6 59 41 53 104 -4 40 -3 46 3 24 5 -16 9 -47 10 -67z m-3659 47 c-25 -13 -49 -24 -55 -24 -5 0 10 11 35 24 25 13 50 24 55 24 6 0 -10 -11 -35 -24z m4918 -30 c4 -3 -6 -2 -21 4 -37 14 -87 41 -87 46 0 5 98 -40 108 -50z m-3701 6 c-11 -53 1 -71 47 -72 37 0 39 -1 16 -10 -33 -13 -67 -4 -75 22 -7 22 2 89 12 89 3 0 3 -13 0 -29z m578 -20 l30 -7 -35 -7 c-27 -6 -32 -10 -20 -17 8 -5 29 -10 45 -11 37 -1 34 -2 -124 -60 -90 -34 -119 -40 -140 -33 -50 18 -31 97 31 127 34 17 153 21 213 8z m1511 -34 c41 -45 44 -78 8 -97 -23 -13 -33 -12 -87 9 -34 13 -90 33 -125 46 -35 12 -65 25 -68 27 -2 3 10 9 28 13 l33 8 -27 4 c-16 3 -28 8 -28 13 0 14 39 19 139 16 l93 -2 34 -37z m307 6 c-7 -2 -19 -2 -25 0 -7 3 -2 5 12 5 14 0 19 -2 13 -5z m-1336 -81 c45 -55 66 -112 79 -217 7 -51 9 -55 12 -25 4 35 -15 239 -25 274 -3 11 -1 16 5 12 17 -10 53 -131 61 -204 l7 -67 12 45 c33 120 63 210 74 216 8 5 9 0 4 -17 -3 -13 -8 -82 -11 -154 l-5 -130 15 83 c17 94 40 146 92 202 45 51 64 52 26 3 -60 -79 -87 -143 -97 -238 l-5 -50 24 70 24 70 -5 -55 c-8 -77 19 -172 58 -205 16 -14 34 -25 39 -25 6 0 7 -10 4 -22 -13 -44 -59 -100 -104 -126 -40 -24 -57 -27 -131 -27 -97 0 -145 19 -196 77 -28 32 -61 96 -53 101 2 1 18 9 34 17 51 26 70 80 70 194 0 92 1 96 12 60 6 -21 12 -50 12 -64 1 -14 6 -32 12 -40 8 -11 9 4 4 54 -6 74 -27 122 -83 200 -47 64 -19 54 35 -12z m-166 -71 c21 -23 47 -68 59 -97 21 -58 27 -139 10 -149 -6 -4 -10 11 -10 36 0 24 -8 70 -17 103 -14 50 -27 71 -72 116 -31 30 -65 61 -76 68 -11 7 0 2 24 -10 24 -13 61 -43 82 -67z m665 14 c-45 -44 -59 -67 -76 -121 -11 -36 -20 -84 -20 -106 0 -26 -4 -37 -11 -32 -17 10 -5 102 21 162 13 31 43 71 75 102 72 67 79 64 11 -5z m-4762 -149 c80 -98 226 -168 476 -227 83 -20 31 -23 -63 -4 -88 18 -235 71 -306 113 -101 58 -165 138 -176 224 l-6 43 19 -52 c10 -28 35 -72 56 -97z m8901 107 c-17 -94 -85 -175 -193 -232 -109 -56 -272 -109 -357 -115 l-70 -6 60 14 c163 38 359 113 422 162 52 40 112 122 124 170 14 53 24 58 14 7z m-5165 12 c0 -14 -52 -85 -76 -104 -36 -28 -68 -27 -93 5 -23 29 -29 56 -9 36 7 -7 24 -12 40 -12 20 0 31 8 43 30 8 16 23 34 32 39 19 11 63 15 63 6z m1350 -31 c10 -29 10 -41 -1 -60 -15 -30 -42 -31 -81 -3 -87 62 -235 13 -292 -98 -14 -27 -25 -44 -26 -40 -1 22 85 169 109 186 35 25 108 44 140 36 14 -4 45 -24 69 -46 36 -34 46 -38 59 -28 11 9 14 24 10 51 -6 48 -2 48 13 2z m73 27 c14 -6 28 -19 32 -31 4 -11 18 -28 31 -37 23 -14 26 -14 44 2 29 27 25 -1 -5 -30 -29 -30 -40 -31 -82 -5 -27 16 -83 87 -83 105 0 8 37 6 63 -4z m-1191 -11 c51 -14 91 -51 126 -113 40 -70 51 -115 13 -52 -31 53 -77 89 -132 105 -54 16 -88 12 -146 -17 l-55 -28 -18 22 c-11 14 -16 31 -12 45 5 22 6 22 15 -5 11 -34 26 -34 63 0 56 52 83 60 146 43z m-31 -265 c32 -68 45 -115 33 -115 -22 1 -35 21 -49 75 -9 32 -25 79 -35 104 l-20 46 22 -25 c11 -14 34 -52 49 -85z m993 38 c-13 -32 -26 -77 -30 -100 -5 -37 -10 -43 -30 -43 -23 0 -23 1 -10 38 25 69 77 162 91 162 2 0 -8 -26 -21 -57z m-838 -35 c34 -68 55 -128 44 -128 -4 0 -16 24 -26 53 -9 28 -25 69 -36 90 -10 20 -16 37 -13 37 2 0 16 -23 31 -52z m658 20 c-10 -18 -25 -58 -34 -88 -10 -30 -22 -56 -28 -58 -6 -2 -2 20 9 49 23 61 57 129 64 129 3 0 -2 -15 -11 -32z m-933 -234 c27 -14 36 -14 87 2 43 12 78 15 140 11 46 -4 93 -2 105 2 12 4 36 11 52 15 58 13 3 -13 -84 -40 -77 -24 -93 -26 -187 -19 -81 5 -109 11 -129 27 -14 11 -25 25 -24 31 0 8 2 8 6 -1 3 -7 18 -19 34 -28z m858 15 c33 -10 52 -10 96 1 50 12 62 11 135 -9 84 -23 107 -20 138 18 11 14 11 13 2 -6 -18 -38 -48 -46 -180 -47 -109 0 -133 3 -185 23 -53 21 -108 54 -64 38 10 -3 35 -11 58 -18z m-409 -16 c0 -18 -44 -78 -88 -121 -59 -58 -122 -82 -218 -82 -58 0 -81 5 -130 30 -36 18 -66 41 -77 60 -35 59 8 68 74 15 86 -68 188 -81 277 -36 21 11 63 47 93 80 51 57 69 70 69 54z m320 -2 c0 -20 91 -108 133 -129 97 -48 191 -39 276 28 68 54 114 55 87 1 -31 -58 -91 -92 -190 -106 -63 -10 -169 23 -223 70 -39 33 -103 118 -103 137 0 4 5 8 10 8 6 0 10 -4 10 -9z m25 -96 c41 -54 107 -102 158 -116 23 -6 76 -9 117 -7 113 7 188 52 259 155 28 41 56 50 82 27 10 -9 19 -23 19 -31 0 -27 -92 -105 -166 -140 -63 -30 -89 -36 -162 -41 -118 -6 -180 12 -254 75 -57 50 -128 141 -128 165 0 7 11 0 23 -17 12 -16 36 -48 52 -70z m-345 26 c-36 -57 -103 -117 -170 -152 -40 -21 -58 -24 -155 -24 -106 0 -113 1 -187 37 -97 46 -170 111 -166 147 2 20 9 27 31 29 23 3 40 -9 105 -76 93 -95 145 -117 265 -110 113 6 202 61 275 171 14 20 27 35 30 33 2 -3 -10 -28 -28 -55z m40 -106 c-59 -179 -137 -331 -208 -403 -149 -150 -409 -205 -578 -122 -63 31 -114 81 -114 113 0 10 17 -2 46 -33 61 -66 126 -90 237 -90 129 0 254 42 342 115 l30 25 -40 -16 c-22 -9 -56 -23 -75 -32 -24 -12 -61 -17 -120 -17 -72 0 -94 5 -148 29 -52 24 -67 37 -84 70 l-21 41 45 -42 c25 -23 59 -48 76 -57 45 -23 160 -40 202 -29 32 9 29 10 -31 11 -66 1 -141 23 -168 48 -9 8 1 7 30 -4 30 -11 75 -16 139 -16 83 0 101 3 146 26 69 36 144 123 198 228 40 78 59 122 112 265 36 99 24 15 -16 -110z m219 62 c89 -238 185 -383 292 -441 85 -47 224 -46 324 1 l30 14 -23 -20 c-13 -11 -49 -28 -80 -37 -104 -30 -110 -34 -47 -28 74 7 168 47 200 86 14 16 25 23 25 16 0 -27 -65 -77 -130 -98 -89 -30 -174 -24 -266 19 -37 17 -69 30 -71 27 -2 -2 23 -22 57 -44 207 -138 469 -129 567 20 31 46 40 44 20 -4 -46 -110 -241 -166 -426 -123 -206 49 -326 170 -430 435 -52 131 -95 270 -83 270 4 0 22 -42 41 -93z m-5064 -84 c-46 -111 -3 -214 102 -243 82 -23 215 12 469 124 144 64 235 86 369 91 l120 4 -100 -9 c-124 -11 -233 -42 -411 -119 -219 -94 -273 -112 -351 -118 -55 -4 -83 -2 -118 11 -99 38 -140 148 -93 251 13 28 24 35 13 8z m9934 -48 c24 -94 -31 -191 -121 -216 -86 -23 -148 -8 -404 94 -266 107 -328 126 -459 137 l-90 9 115 -4 c134 -4 217 -26 405 -105 188 -80 238 -98 309 -111 108 -18 184 10 222 83 16 31 18 105 4 143 -5 14 -6 24 -1 21 5 -3 14 -26 20 -51z m-8458 -86 c74 -10 171 -30 215 -43 93 -28 247 -86 242 -92 -3 -2 -58 8 -124 22 -254 54 -385 63 -576 43 -151 -16 -277 -52 -408 -116 -104 -50 -123 -64 -210 -152 -155 -157 -221 -300 -224 -481 -1 -114 19 -181 69 -233 121 -125 364 -63 382 97 6 50 -3 58 -31 27 -54 -59 -169 -22 -216 69 -18 34 -15 128 5 192 33 101 77 171 166 260 76 76 99 93 200 142 63 31 111 56 108 56 -3 0 -33 -9 -66 -20 -304 -100 -501 -314 -520 -567 -9 -116 14 -175 92 -227 69 -47 176 -31 228 35 15 19 27 29 27 22 0 -20 -58 -80 -90 -93 -18 -7 -56 -11 -95 -8 -78 5 -127 38 -163 110 -29 58 -32 178 -7 265 49 168 184 329 352 416 264 137 628 198 904 151 199 -34 359 -109 584 -273 59 -42 61 -46 -90 151 l-109 143 207 -199 c189 -181 206 -195 189 -155 -10 24 -29 76 -42 114 -12 39 -33 91 -47 118 -32 63 -39 126 -19 152 16 20 16 20 31 1 8 -11 27 -58 41 -105 33 -111 92 -230 155 -313 131 -176 357 -331 600 -412 224 -75 511 -75 744 1 203 65 466 219 601 350 128 125 246 302 300 450 15 40 29 72 31 70 2 -3 -10 -42 -26 -87 -101 -277 -376 -567 -684 -721 -114 -58 -263 -104 -412 -129 -112 -19 -155 -22 -305 -17 -368 11 -569 84 -1035 373 -380 237 -518 304 -695 341 -187 39 -392 -24 -455 -139 -16 -30 -17 -39 -6 -52 20 -24 47 -20 136 20 122 55 198 74 290 73 l80 -1 -54 -14 c-68 -19 -96 -38 -111 -74 -29 -70 16 -109 102 -90 76 16 187 12 274 -10 82 -21 191 -72 499 -235 260 -136 477 -210 735 -250 95 -14 95 -14 20 -9 -158 11 -403 72 -587 145 -43 17 -180 80 -305 140 -244 118 -398 175 -493 184 l-60 5 85 -24 c108 -31 158 -52 405 -166 551 -254 806 -319 1208 -307 160 4 195 8 292 34 61 17 140 42 178 56 37 14 67 24 67 21 0 -10 -147 -72 -241 -102 -269 -87 -608 -94 -969 -22 -180 36 -341 87 -630 200 -303 118 -382 146 -535 185 -236 60 -443 68 -550 21 -27 -13 -74 -33 -103 -46 -58 -26 -116 -83 -138 -136 -22 -53 -18 -128 9 -159 31 -36 106 -44 152 -15 18 11 35 26 38 34 16 40 89 19 177 -50 71 -55 95 -96 104 -174 l7 -55 -25 70 c-44 126 -130 172 -197 106 -25 -25 -29 -37 -29 -84 0 -30 7 -87 16 -126 9 -40 13 -83 9 -98 l-7 -28 -14 35 c-18 42 -49 77 -86 96 -35 18 -52 18 -93 -2 -41 -19 -86 -101 -63 -115 10 -7 10 -15 -5 -41 -35 -65 -113 -97 -237 -98 -103 0 -149 21 -76 34 52 10 115 61 138 112 16 38 18 50 8 80 -17 50 -47 74 -91 74 -29 0 -42 -6 -59 -27 -11 -15 -19 -31 -17 -37 6 -16 -99 -13 -159 4 -65 19 -129 83 -177 181 -20 41 -37 79 -37 83 0 5 16 -6 35 -23 28 -24 45 -31 78 -31 50 0 87 22 87 52 0 12 -14 43 -32 70 -39 61 -46 121 -24 205 24 90 77 213 132 301 62 100 208 245 299 298 145 84 327 141 495 153 85 6 91 8 56 16 -95 20 -348 -11 -490 -60 -182 -63 -467 -280 -603 -460 -166 -219 -189 -502 -53 -673 75 -95 180 -142 319 -142 83 0 89 1 95 23 5 18 8 20 16 7 7 -11 10 -12 10 -2 0 23 45 9 48 -15 4 -29 -18 -39 -100 -48 -136 -14 -288 43 -378 142 -220 240 -146 608 183 902 220 197 430 308 673 355 147 29 223 28 455 -5z m7394 9 c369 -55 789 -357 936 -671 47 -101 62 -177 57 -293 -3 -96 -6 -106 -46 -187 -49 -100 -106 -156 -205 -204 -98 -48 -208 -61 -323 -37 -27 5 -38 32 -23 50 16 20 39 17 40 -3 1 -17 2 -17 6 0 6 22 8 21 43 -4 25 -19 38 -21 114 -17 72 4 96 10 159 41 41 21 89 53 105 72 109 123 137 296 81 483 -39 128 -111 233 -255 373 -272 263 -535 372 -889 368 l-90 -2 95 -13 c209 -30 397 -94 526 -180 169 -112 324 -336 384 -558 28 -102 24 -158 -18 -224 -18 -27 -32 -58 -32 -70 0 -64 139 -70 182 -8 5 7 8 6 8 -3 0 -30 -75 -153 -120 -195 -53 -50 -98 -66 -182 -66 -54 0 -57 2 -77 35 -18 31 -25 35 -61 35 -46 0 -85 -30 -96 -75 -17 -69 54 -164 141 -187 25 -7 45 -15 45 -19 0 -9 -65 -19 -125 -19 -109 1 -189 36 -222 98 -13 24 -15 35 -6 40 15 10 -15 79 -47 107 -53 48 -154 11 -191 -69 l-19 -41 0 45 c0 25 7 78 15 118 25 118 -9 192 -87 192 -59 0 -114 -55 -139 -140 l-19 -65 4 52 c3 28 14 69 25 91 24 46 150 147 198 157 27 5 36 1 66 -29 40 -39 66 -49 117 -42 19 3 38 5 43 5 4 1 16 16 27 34 25 41 26 109 1 162 -22 50 -100 120 -149 136 -21 6 -62 23 -92 38 -51 24 -65 26 -180 25 -259 -2 -407 -42 -1010 -274 -219 -84 -370 -130 -546 -164 -341 -66 -661 -59 -924 20 -80 24 -284 113 -277 120 2 2 42 -12 88 -30 185 -75 349 -101 584 -93 347 11 584 79 1105 317 198 90 321 138 445 174 11 3 -3 3 -31 0 -108 -10 -233 -55 -479 -174 -222 -107 -306 -143 -442 -190 -121 -42 -371 -100 -425 -99 -18 0 21 11 87 25 271 56 458 132 808 326 223 124 357 165 511 155 50 -4 103 -9 118 -13 21 -5 33 0 52 19 34 34 33 59 -4 101 -22 25 -46 38 -88 49 l-57 15 80 1 c96 1 168 -16 273 -65 98 -46 136 -53 150 -27 15 26 -24 91 -76 127 -204 141 -491 86 -917 -176 -344 -211 -422 -257 -518 -305 -126 -63 -269 -113 -417 -145 -91 -19 -133 -22 -315 -22 -177 0 -226 4 -312 22 -359 77 -653 270 -892 586 -53 69 -156 269 -167 321 -3 17 10 -4 29 -46 134 -299 288 -474 565 -643 241 -147 468 -216 713 -216 195 0 332 34 547 136 301 142 484 350 582 662 34 106 52 125 71 75 13 -34 5 -69 -38 -165 -18 -42 -42 -105 -53 -140 -11 -35 -29 -79 -41 -98 -12 -19 77 60 197 175 237 228 237 229 26 -37 -29 -38 -50 -68 -46 -68 3 0 23 13 43 29 107 84 267 172 401 219 141 49 261 66 424 59 251 -11 430 -53 625 -148 111 -54 132 -69 210 -147 132 -132 191 -261 191 -416 0 -138 -56 -222 -163 -246 -82 -18 -159 15 -194 83 -14 28 -11 27 24 -12 37 -42 43 -45 101 -49 76 -5 110 8 156 58 78 87 74 226 -11 400 -53 109 -176 230 -298 292 -90 45 -222 94 -231 85 -3 -2 8 -8 23 -12 15 -3 59 -22 97 -41 123 -62 215 -143 287 -253 117 -177 120 -370 6 -422 -23 -10 -55 -19 -70 -19 -32 0 -87 25 -87 40 0 6 -4 10 -10 10 -17 0 -11 -59 10 -99 39 -78 117 -117 215 -109 148 12 220 110 219 298 0 146 -47 272 -150 409 -194 259 -635 399 -1058 336 -55 -8 -153 -26 -216 -39 -63 -14 -116 -23 -118 -21 -15 14 258 101 391 125 219 39 339 43 502 18z m-3869 -282 c25 -76 75 -182 123 -260 40 -67 41 -70 24 -89 -28 -31 -96 -57 -166 -64 -78 -7 -165 16 -207 55 l-29 27 44 72 c66 106 109 215 156 393 l12 45 13 -64 c7 -35 21 -87 30 -115z m-570 139 c32 -4 66 -1 99 9 43 13 47 13 30 0 -22 -17 -80 -34 -113 -34 -26 0 -89 27 -98 42 -4 6 1 6 13 0 11 -6 42 -14 69 -17z m982 2 c44 -10 61 -9 99 5 l45 16 -23 -24 c-31 -33 -97 -32 -164 1 -27 14 -41 23 -30 19 11 -3 44 -11 73 -17z m-1177 -37 c8 0 20 -4 27 -9 10 -6 6 -10 -14 -14 -20 -3 -33 1 -51 19 -30 30 -30 54 0 26 13 -12 30 -22 38 -22z m1490 11 c-19 -26 -63 -46 -76 -33 -5 5 74 60 88 61 5 1 -1 -12 -12 -28z m-1850 -256 c127 -114 229 -156 379 -159 52 0 113 2 135 6 l40 7 -50 -24 c-122 -60 -296 -71 -390 -25 -67 32 -135 103 -168 172 -15 31 -27 59 -27 62 0 18 36 0 81 -39z m2222 -1 c-32 -93 -123 -181 -215 -209 -70 -20 -159 -19 -251 4 -65 17 -188 70 -132 57 65 -15 167 -16 244 -2 107 19 189 59 276 136 84 74 100 77 78 14z m-2845 -276 c133 -118 349 -166 639 -139 191 17 357 84 566 227 115 79 138 91 85 46 -157 -136 -389 -249 -608 -297 -113 -25 -328 -30 -420 -11 -167 36 -296 128 -357 256 -49 102 -49 122 1 39 24 -42 67 -96 94 -121z m305 124 c17 -31 51 -76 75 -99 53 -52 165 -108 252 -127 59 -13 61 -14 25 -15 -55 -1 -197 50 -262 95 -76 53 -143 143 -143 194 0 31 17 16 53 -48z m2104 -156 c185 -92 344 -124 563 -113 262 14 430 97 519 256 19 33 37 59 39 56 3 -2 -12 -38 -31 -80 -91 -192 -288 -285 -576 -272 -201 9 -352 50 -541 149 -95 49 -289 182 -306 209 -2 5 52 -30 121 -76 68 -47 164 -104 212 -129z m-739 -207 c5 -14 13 -52 18 -85 l7 -59 24 90 c13 50 26 112 30 140 5 38 8 45 14 30 13 -34 10 -87 -11 -165 -11 -41 -27 -131 -37 -200 l-18 -125 -8 80 c-4 44 -17 123 -28 175 -26 121 -33 192 -23 227 7 25 8 22 15 -27 3 -30 11 -67 17 -81z m-3671 86 c102 -47 188 -162 223 -301 24 -94 25 -143 4 -215 -66 -225 -284 -400 -564 -453 -121 -23 -230 -21 -346 9 -228 58 -396 182 -493 365 -38 70 -91 229 -90 266 0 21 4 14 15 -26 25 -92 80 -216 129 -289 134 -203 385 -313 621 -272 127 22 208 76 254 168 31 62 38 144 16 178 -27 40 -41 31 -54 -35 -14 -76 -39 -112 -100 -142 -61 -30 -206 -32 -296 -5 -32 10 -56 20 -54 22 2 3 20 0 39 -5 19 -6 82 -11 141 -11 94 -1 113 1 155 22 58 29 89 73 98 140 8 55 23 68 60 51 40 -19 58 -66 53 -146 -6 -121 -70 -216 -172 -255 -62 -24 -49 -27 25 -5 112 33 217 126 271 242 49 102 47 194 -7 317 -17 40 -17 40 3 22 11 -10 31 -42 43 -70 19 -43 23 -69 23 -147 0 -82 -3 -103 -27 -155 -16 -33 -35 -67 -44 -77 -54 -60 83 11 152 79 34 33 67 80 92 129 34 69 38 88 41 164 3 72 0 98 -21 158 -35 100 -81 168 -149 217 -96 72 -196 82 -275 28 l-38 -25 25 27 c55 60 156 73 247 30z m7619 -1 c15 -11 34 -31 43 -44 14 -22 11 -21 -21 7 -100 86 -273 29 -369 -120 -87 -135 -103 -298 -43 -427 37 -79 120 -171 188 -211 60 -34 88 -39 63 -11 -31 34 -68 130 -73 194 -8 76 15 175 52 231 14 22 27 37 29 35 3 -2 -7 -33 -22 -68 -40 -100 -38 -184 8 -280 63 -131 192 -237 309 -255 28 -4 30 -3 10 3 -121 41 -201 150 -202 276 -1 49 4 71 21 100 34 54 91 62 91 13 0 -81 56 -157 130 -177 48 -13 170 -16 240 -6 l45 6 -40 -16 c-26 -11 -72 -17 -136 -18 -88 -1 -100 1 -154 29 -66 34 -98 81 -101 149 -2 48 -15 55 -44 26 -45 -45 -12 -179 63 -258 87 -92 278 -127 451 -82 246 63 418 254 496 553 10 40 19 63 19 51 2 -43 -42 -183 -84 -269 -93 -191 -256 -323 -477 -386 -113 -32 -313 -33 -432 0 -163 44 -325 148 -413 265 -62 82 -92 158 -100 246 -14 170 98 378 239 446 67 31 171 31 214 -2z m-2238 -211 c-10 -2 -26 -2 -35 0 -10 3 -2 5 17 5 19 0 27 -2 18 -5z m-6651 -70 c-3 -10 -5 -4 -5 12 0 17 2 24 5 18 2 -7 2 -21 0 -30z m5317 -74 c49 -13 143 -13 179 0 40 15 33 2 -8 -15 -73 -30 -210 -5 -273 52 l-27 24 45 -25 c25 -14 63 -30 84 -36z m-584 36 c0 -2 -23 -16 -51 -31 -81 -41 -198 -45 -245 -9 -17 14 -17 14 11 4 16 -6 60 -10 97 -10 60 0 99 11 186 50 1 0 2 -1 2 -4z"/>
<path d="M2544 7325 c-8 -20 4 -35 27 -35 23 0 26 35 3 44 -22 8 -24 8 -30 -9z"/>
<path d="M7671 7331 c-19 -12 -6 -41 17 -41 26 0 33 10 21 31 -11 21 -18 23 -38 10z"/>
<path d="M1654 5221 c-118 -19 -228 -74 -264 -133 -22 -37 -26 -94 -9 -132 20 -43 37 -39 63 12 65 129 196 189 396 179 119 -5 219 -31 394 -102 61 -25 111 -43 113 -41 13 13 -187 128 -287 165 -124 46 -301 68 -406 52z"/>
<path d="M596 4187 c-24 -18 -17 -58 13 -74 34 -16 61 0 61 35 0 48 -36 67 -74 39z"/>
<path d="M8400 5220 c-141 -20 -376 -117 -462 -191 l-33 -29 73 30 c103 41 276 96 349 110 90 18 244 8 314 -19 71 -27 140 -87 167 -145 12 -24 25 -47 30 -50 16 -10 44 31 49 72 20 146 -226 258 -487 222z"/>
<path d="M9592 4188 c-7 -7 -12 -21 -12 -33 0 -12 5 -26 12 -33 7 -7 21 -12 33 -12 12 0 26 5 33 12 7 7 12 21 12 33 0 12 -5 26 -12 33 -7 7 -21 12 -33 12 -12 0 -26 -5 -33 -12z"/>
<path d="M2495 7690 c23 -45 18 -64 -26 -99 -51 -42 -66 -77 -43 -102 16 -18 54 -26 54 -12 0 3 -8 16 -17 27 -10 12 -11 15 -3 9 41 -37 110 8 110 71 -1 41 -33 112 -58 125 -31 17 -34 14 -17 -19z"/>
<path d="M3140 7697 c-53 -28 -80 -75 -80 -140 0 -118 107 -224 260 -256 30 -7 136 -16 235 -21 231 -11 244 -5 50 20 -291 39 -439 95 -502 189 -37 54 -27 54 27 0 74 -74 192 -124 372 -158 27 -4 45 -5 42 0 -3 5 -14 9 -25 9 -42 0 -237 71 -286 105 -57 38 -77 69 -86 130 l-6 40 23 -50 c25 -55 83 -113 146 -145 37 -19 212 -71 235 -69 6 0 -8 8 -30 17 -101 43 -140 83 -185 187 -14 34 -28 49 -50 56 -26 10 -30 16 -30 48 0 65 -36 78 -110 38z"/>
<path d="M7023 7713 c-7 -2 -13 -21 -13 -42 0 -40 -14 -61 -42 -61 -12 0 -27 -20 -46 -63 -37 -81 -85 -134 -147 -164 l-50 -24 40 6 c169 25 299 105 329 204 13 40 15 42 15 17 1 -49 -34 -108 -86 -143 -58 -40 -135 -68 -257 -93 -89 -19 -90 -20 -26 -14 186 16 372 102 423 196 9 18 17 26 17 17 0 -8 -13 -36 -29 -61 -50 -78 -149 -123 -356 -163 -66 -13 -155 -26 -198 -30 -120 -11 -99 -20 41 -17 260 6 365 28 456 98 67 51 99 112 99 186 -1 73 -20 103 -83 136 -44 22 -63 25 -87 15z"/>
<path d="M4421 7463 c30 -32 55 -72 69 -111 12 -34 29 -67 36 -73 19 -15 61 -3 74 22 35 64 -64 164 -200 204 -22 7 -19 1 21 -42z"/>
<path d="M5815 7492 c-94 -40 -144 -81 -164 -135 -23 -60 35 -111 80 -71 10 9 19 22 19 29 0 27 64 137 91 157 27 21 38 39 22 37 -5 0 -26 -8 -48 -17z"/>
<path d="M4632 7208 c7 -19 38 -22 38 -4 0 10 -9 16 -21 16 -12 0 -19 -5 -17 -12z"/>
<path d="M5580 7205 c0 -8 9 -15 20 -15 11 0 20 7 20 15 0 8 -9 15 -20 15 -11 0 -20 -7 -20 -15z"/>
<path d="M1887 7103 c-13 -12 -7 -64 8 -69 22 -9 62 4 69 22 10 26 -12 54 -43 54 -15 0 -31 -3 -34 -7z"/>
<path d="M8302 7098 c-33 -33 16 -91 57 -68 39 20 21 80 -24 80 -12 0 -26 -5 -33 -12z"/>
<path d="M1990 6856 c0 -10 66 -54 90 -60 18 -5 15 -1 -11 13 -19 11 -41 27 -48 35 -13 15 -31 22 -31 12z"/>
<path d="M561 5494 c-37 -26 -61 -30 -77 -14 -13 13 -116 -19 -121 -37 -3 -6 5 -21 16 -32 38 -38 197 -24 238 21 17 19 17 20 0 29 -13 8 -15 14 -7 29 21 38 2 40 -49 4z"/>
</g>
</svg>