<svg xmlns="http://www.w3.org/2000/svg" version="1.0" preserveAspectRatio="xMidYMid meet" viewBox="11.28 15.07 278.72 70.79">
<metadata>
Created by potrace 1.10, written by Peter Selinger 2001-2011
</metadata>
<g transform="translate(0.000000,125.000000) scale(0.100000,-0.100000)" fill="#000000" stroke="none">
<path d="M1481 1091 c-9 -6 -10 -11 -2 -15 16 -11 13 -26 -4 -20 -20 8 -19 -3 4 -32 l19 -25 16 23 c15 20 15 23 1 26 -17 4 -20 18 -5 27 6 4 8 11 5 16 -8 11 -16 11 -34 0z"/>
<path d="M1417 1020 c4 -13 14 -20 30 -20 21 0 22 3 13 20 -6 11 -19 20 -29 20 -14 0 -18 -5 -14 -20z"/>
<path d="M1547 1033 c-4 -3 -7 -15 -7 -26 0 -13 5 -17 16 -13 9 3 18 6 20 6 2 0 4 6 4 14 0 8 6 17 13 19 6 3 0 6 -14 6 -14 1 -29 -2 -32 -6z"/>
<path d="M1473 983 c-13 -5 -18 -43 -7 -43 4 0 13 8 20 18 13 16 15 16 28 0 17 -23 26 -23 26 2 0 11 -6 20 -14 20 -8 0 -20 2 -28 4 -7 3 -19 2 -25 -1z"/>
<path d="M1435 920 c-4 -6 -1 -17 5 -25 6 -8 9 -19 5 -26 -5 -7 -15 -3 -32 15 -29 31 -66 33 -93 6 -26 -26 -25 -72 0 -129 24 -52 24 -51 5 -51 -8 0 -14 5 -12 11 1 6 -4 14 -10 16 -22 8 -14 -21 8 -36 16 -9 24 -10 29 -1 5 8 11 6 20 -5 10 -12 10 -15 0 -15 -7 0 -1 -9 13 -20 14 -11 28 -20 31 -20 12 0 58 -46 78 -78 l20 -33 17 29 c24 44 53 75 86 94 17 9 30 20 31 25 0 4 13 33 27 63 32 66 35 129 9 153 -23 21 -62 22 -88 1 -10 -8 -12 -12 -4 -8 10 5 9 1 -4 -14 -10 -12 -23 -19 -27 -16 -14 8 -10 34 6 40 19 8 9 24 -14 24 -10 0 -21 -9 -24 -20 -3 -11 -2 -20 2 -20 16 0 27 -37 19 -67 -7 -26 -14 -33 -33 -33 -14 0 -25 -5 -25 -11 0 -7 10 -9 27 -5 15 4 29 3 33 -3 4 -7 14 -4 27 8 16 15 23 17 33 8 10 -10 12 -8 6 6 -3 10 -6 21 -6 23 0 2 -9 4 -21 4 -29 0 -19 22 19 40 33 16 41 34 20 44 -7 3 -2 3 12 0 32 -8 50 -31 50 -63 0 -32 -55 -151 -70 -151 -14 0 -13 7 5 33 8 12 21 42 30 66 13 37 13 42 0 37 -8 -3 -17 -1 -20 4 -4 6 -16 10 -28 10 -21 0 -21 -1 3 -13 19 -10 24 -20 23 -42 -4 -50 -61 -145 -86 -145 -6 0 0 11 13 25 l23 25 -31 0 c-26 0 -32 -4 -33 -22 l0 -23 -16 23 c-9 13 -26 22 -41 22 l-25 0 23 -25 c18 -19 20 -25 8 -25 -20 0 -40 25 -66 81 -29 60 -29 97 1 109 25 10 4 13 -30 4 -19 -5 -21 -11 -16 -38 3 -17 14 -46 24 -64 22 -38 23 -46 8 -36 -18 11 -59 106 -59 137 0 16 5 37 10 48 13 23 40 26 40 4 0 -8 8 -15 19 -15 10 0 26 -12 35 -26 13 -18 14 -25 4 -23 -29 4 -38 -2 -37 -23 0 -13 3 -17 6 -10 4 10 10 10 29 -3 22 -14 25 -14 30 0 3 8 2 27 -4 43 -7 21 -6 35 5 56 15 28 12 56 -6 56 -5 0 -13 -5 -16 -10z"/>
<path d="M1474 856 c-8 -35 4 -68 24 -64 21 4 28 53 11 74 -17 20 -28 17 -35 -10z"/>
<path d="M1223 785 c-4 -12 2 -24 18 -36 29 -23 38 -23 46 -4 8 22 -4 30 -22 15 -13 -11 -15 -9 -13 10 4 27 -19 39 -29 15z"/>
<path d="M1737 794 c-3 -3 -3 -12 0 -20 3 -10 0 -12 -10 -8 -20 7 -30 -11 -14 -24 16 -14 74 29 63 46 -8 13 -29 16 -39 6z"/>
<path d="M954 760 c-79 -9 -137 -34 -206 -91 -42 -35 -50 -38 -74 -29 -15 6 -33 9 -40 6 -8 -3 -14 6 -16 25 -3 28 -4 29 -23 16 -16 -13 -18 -20 -9 -44 9 -25 15 -28 51 -27 30 0 40 -3 36 -13 -12 -31 -109 -29 -145 4 -12 11 -18 26 -15 41 5 26 -11 25 -27 -1 -9 -13 -5 -22 15 -43 40 -39 105 -47 169 -20 12 5 16 -1 18 -26 3 -41 11 -68 20 -68 4 0 6 20 4 45 -3 37 -1 44 11 39 10 -3 18 5 25 26 8 21 23 35 46 45 54 23 60 18 21 -16 -34 -30 -46 -71 -25 -84 6 -3 10 0 10 8 0 30 120 130 137 114 2 -3 20 1 38 9 21 8 65 14 112 13 70 -1 74 -2 42 -11 -56 -15 -91 -57 -97 -118 -4 -43 -1 -55 18 -75 34 -36 56 -33 29 4 -16 22 -19 36 -14 60 16 73 89 119 168 107 66 -10 71 -20 19 -38 -47 -17 -47 -17 -22 2 28 22 18 25 -29 9 -17 -6 -36 -20 -42 -30 -9 -18 -7 -19 15 -13 24 6 26 3 26 -24 0 -25 5 -30 31 -36 36 -7 73 10 65 29 -3 9 0 12 10 8 14 -5 14 -3 2 16 -15 25 -44 24 -40 -2 2 -12 -4 -17 -20 -18 -22 0 -22 -1 -3 -10 20 -9 20 -9 0 -6 -24 3 -22 35 3 55 43 33 99 1 126 -73 l15 -40 0 33 c1 39 -13 70 -43 95 -20 17 -20 17 19 2 22 -9 52 -24 67 -35 20 -15 26 -16 22 -5 -19 47 -207 145 -325 169 -42 9 -83 17 -90 19 -8 3 -46 1 -85 -3z m-63 -70 c-96 -24 -120 -35 -145 -61 -17 -17 -24 -28 -16 -25 8 4 6 0 -4 -8 -14 -12 -23 -13 -30 -5 -8 7 -2 18 19 36 57 48 175 91 250 91 29 0 9 -7 -74 -28z"/>
<path d="M1397 753 c-13 -12 -7 -25 8 -19 10 4 15 -1 15 -14 0 -23 25 -27 34 -5 3 8 0 15 -6 15 -6 0 -19 7 -28 15 -9 8 -20 12 -23 8z"/>
<path d="M1850 744 c-80 -17 -210 -80 -268 -129 -24 -21 -41 -39 -39 -41 2 -3 24 7 48 21 56 32 64 31 39 -2 -11 -16 -23 -43 -26 -60 -6 -28 -3 -34 17 -43 l24 -10 -24 3 c-38 3 -48 30 -28 72 17 35 16 35 -2 25 -11 -5 -33 -23 -49 -40 -17 -16 -36 -30 -42 -30 -6 0 -25 14 -42 30 -16 17 -38 35 -48 40 -18 10 -18 9 -4 -25 16 -38 6 -75 -20 -75 -20 0 -39 27 -30 42 5 10 4 10 -5 2 -23 -21 -9 -49 27 -52 28 -3 34 1 47 30 8 18 14 26 15 17 0 -9 7 -22 15 -29 8 -7 12 -17 8 -23 -3 -6 -1 -7 5 -3 9 5 9 13 1 29 -9 17 -9 19 1 11 6 -6 15 -28 20 -48 l8 -36 -445 0 c-332 0 -442 3 -437 12 4 6 -1 17 -11 25 -18 12 -18 13 -1 13 11 0 16 5 13 14 -4 10 0 12 14 9 18 -5 19 -2 13 22 -6 23 -4 27 9 22 14 -5 34 20 23 30 -8 8 -47 -18 -75 -49 -30 -34 -102 -49 -140 -29 -24 14 -28 36 -6 45 8 3 15 12 15 20 0 18 -30 30 -44 16 -16 -16 -30 -12 -16 5 7 8 19 15 27 15 8 0 13 5 11 12 -8 22 -27 20 -52 -5 -20 -20 -26 -22 -30 -10 -9 21 -9 20 29 33 27 9 35 17 35 36 0 34 -34 32 -71 -5 -37 -37 -37 -54 0 -87 17 -15 31 -36 33 -48 2 -11 10 -21 18 -21 8 0 26 -8 40 -18 27 -19 62 -22 89 -7 15 8 17 6 13 -15 -4 -26 12 -35 21 -12 4 9 8 8 16 -3 9 -13 -19 -15 -235 -18 -189 -2 -245 -5 -241 -15 3 -9 303 -13 1395 -15 1233 -2 1392 0 1392 13 0 13 -34 15 -249 15 -244 0 -249 0 -244 20 4 14 0 20 -12 20 -12 0 -16 -6 -12 -20 5 -20 0 -20 -434 -20 l-439 0 0 33 c0 25 3 29 11 17 8 -12 10 -10 5 10 -4 23 -4 23 8 7 12 -16 14 -14 21 15 6 26 9 29 12 13 8 -30 23 -45 48 -45 29 0 50 24 40 47 -8 17 -8 17 -12 1 -5 -20 -23 -24 -23 -5 0 6 10 30 23 52 19 33 28 40 57 43 34 3 34 2 11 -10 -14 -7 -26 -19 -29 -27 -3 -8 0 -11 7 -7 6 4 11 1 11 -8 0 -32 97 -30 108 2 6 18 -44 62 -78 69 -44 8 -24 23 41 29 40 4 63 1 89 -13 63 -33 93 -121 55 -163 -16 -17 -16 -20 -2 -20 23 0 57 48 57 82 0 36 -21 88 -43 107 -9 7 -34 19 -54 27 -38 13 -38 13 37 13 76 1 160 -25 160 -49 0 -5 5 -10 12 -10 6 0 1 12 -13 26 l-24 27 33 -17 c44 -22 110 -82 117 -107 4 -11 11 -17 16 -14 19 12 8 48 -25 81 -19 19 -30 34 -25 34 24 0 59 -26 75 -56 10 -19 22 -34 26 -34 13 0 9 12 -9 32 -9 10 -11 18 -6 18 21 0 35 -31 36 -80 1 -33 4 -47 11 -40 5 5 9 24 9 41 0 25 3 29 11 18 6 -8 18 -14 26 -14 9 0 15 -9 15 -25 0 -19 5 -24 19 -22 10 2 15 -1 12 -7 -4 -5 3 -15 14 -21 11 -6 20 -17 20 -24 0 -7 7 -13 16 -13 11 0 14 7 11 23 -3 20 -1 22 14 14 27 -15 62 -12 89 7 14 10 31 18 39 18 7 0 22 26 33 60 24 74 15 109 -34 130 -18 7 -34 12 -36 10 -6 -6 20 -50 42 -70 12 -11 17 -17 12 -12 -6 4 -19 7 -30 7 -18 0 -17 -4 11 -25 20 -16 30 -31 26 -40 -4 -12 -9 -10 -24 10 -12 14 -26 22 -34 18 -21 -7 -19 -20 5 -26 28 -7 25 -32 -7 -57 -37 -29 -114 -24 -144 9 -11 12 -24 19 -29 16 -6 -3 -7 0 -4 8 3 9 -6 19 -27 28 -18 7 -54 32 -81 56 -47 42 -65 49 -203 83 -48 13 -61 18 -40 19 74 2 211 -49 264 -98 17 -16 44 -34 61 -41 58 -24 160 7 160 50 0 19 -39 54 -49 43 -3 -3 0 -8 7 -10 18 -7 15 -51 -5 -61 -37 -19 -84 -22 -119 -7 -44 18 -44 28 1 19 43 -8 65 8 65 47 0 19 -7 32 -21 40 -21 11 -21 10 -15 -27 7 -34 6 -37 -9 -24 -11 9 -19 10 -23 3 -16 -25 -50 -17 -105 25 -80 62 -140 82 -240 81 -45 0 -111 -7 -147 -15z m-80 -153 c0 -5 3 -16 6 -25 8 -20 -6 -21 -31 -3 -10 8 -15 19 -11 25 9 14 36 16 36 3z"/>
<path d="M1689 733 c-1 -5 -1 -11 0 -15 0 -5 -6 -8 -14 -8 -8 0 -15 -4 -15 -10 0 -5 3 -10 8 -10 13 1 42 27 42 39 0 12 -19 16 -21 4z"/>
<path d="M694 703 c-17 -17 -17 -18 5 -21 27 -4 47 11 37 27 -10 16 -22 14 -42 -6z"/>
<path d="M2262 703 c4 -22 48 -31 48 -10 0 14 -20 27 -42 27 -5 0 -8 -8 -6 -17z"/>
<path d="M1771 617 c48 -33 69 -39 69 -22 0 17 -50 45 -81 45 -19 0 -17 -3 12 -23z"/>
<path d="M2725 565 c-5 -2 -23 -6 -39 -10 -15 -3 -26 -8 -23 -11 6 -6 -57 -65 -88 -82 -36 -20 5 -13 47 9 24 12 50 18 64 15 26 -7 43 12 23 25 -10 7 -8 8 8 6 11 -2 28 -8 35 -15 14 -11 28 -7 28 9 0 7 -27 18 -75 29 -29 7 -28 7 10 9 48 1 109 -27 113 -52 3 -15 0 -18 -17 -12 -25 7 -30 -19 -6 -29 15 -5 45 18 45 35 0 44 -78 90 -125 74z"/>
<path d="M185 535 c-28 -27 -32 -57 -11 -74 14 -12 46 -5 46 9 0 16 -22 22 -31 9 -6 -10 -9 -6 -9 13 0 22 7 29 45 43 29 12 58 16 82 12 26 -5 33 -3 23 3 -8 5 -39 10 -68 10 -43 0 -58 -5 -77 -25z"/>
<path d="M270 529 c0 -5 -9 -9 -20 -9 -12 0 -20 -7 -20 -16 0 -14 3 -14 16 -3 13 11 14 9 8 -16 -5 -21 -4 -26 7 -23 8 3 13 11 11 18 -3 15 16 40 32 40 6 0 3 -5 -7 -11 -25 -15 -10 -31 21 -24 17 3 41 -2 64 -15 49 -26 73 -26 31 0 -18 11 -33 24 -33 30 0 5 -9 14 -21 21 -26 14 -89 19 -89 8z"/>
<path d="M2730 488 c0 -18 5 -28 15 -28 19 0 19 11 0 36 -14 18 -14 18 -15 -8z"/>
</g>
</svg>