<?xml version="1.0" encoding="UTF-8"?>
<!DOCTYPE svg PUBLIC "-//W3C//DTD SVG 1.1//EN" "http://www.w3.org/Graphics/SVG/1.1/DTD/svg11.dtd">
<svg xmlns="http://www.w3.org/2000/svg" version="1.1" width="814px" height="339px" style="shape-rendering:geometricPrecision; text-rendering:geometricPrecision; image-rendering:optimizeQuality; fill-rule:evenodd; clip-rule:evenodd" xmlns:xlink="http://www.w3.org/1999/xlink">
<g><path style="opacity:1" fill="#fcfefd" d="M 4.5,-0.5 C 274.167,-0.5 543.833,-0.5 813.5,-0.5C 813.5,112.5 813.5,225.5 813.5,338.5C 542.833,338.5 272.167,338.5 1.5,338.5C 1.33333,226.833 1.5,115.166 2,3.5C 2.66218,2.01608 3.49551,0.682751 4.5,-0.5 Z"/></g>
<g><path style="opacity:1" fill="#131313" d="M 404.5,41.5 C 406.199,41.3398 407.866,41.5065 409.5,42C 410.022,42.5613 410.355,43.228 410.5,44C 409.349,45.8231 408.182,47.6564 407,49.5C 406.202,51.2588 406.369,52.9255 407.5,54.5C 410.167,51.8333 412.833,51.8333 415.5,54.5C 412.592,57.9038 409.592,61.0704 406.5,64C 407.609,65.813 406.942,66.6463 404.5,66.5C 403.462,61.9405 400.962,58.2739 397,55.5C 396.517,54.552 396.351,53.552 396.5,52.5C 399.785,52.2693 402.285,53.6026 404,56.5C 404.706,54.0288 404.373,51.6954 403,49.5C 401.22,47.7071 399.387,46.0404 397.5,44.5C 399.881,43.362 402.214,42.362 404.5,41.5 Z"/></g>
<g><path style="opacity:1" fill="#171717" d="M 381.5,55.5 C 388.271,54.6982 393.104,57.3648 396,63.5C 396.711,67.4984 395.711,68.165 393,65.5C 386.736,67.8843 384.069,65.8843 385,59.5C 382.929,58.8971 381.762,57.5638 381.5,55.5 Z"/></g>
<g><path style="opacity:1" fill="#ebecee" d="M -0.5,-0.5 C 1.16667,-0.5 2.83333,-0.5 4.5,-0.5C 3.49551,0.682751 2.66218,2.01608 2,3.5C 1.5,115.166 1.33333,226.833 1.5,338.5C 0.833333,338.5 0.166667,338.5 -0.5,338.5C -0.5,225.5 -0.5,112.5 -0.5,-0.5 Z"/></g>
<g><path style="opacity:1" fill="#131313" d="M 421.5,56.5 C 424.898,56.1796 428.232,56.513 431.5,57.5C 429.285,59.6257 428.118,62.2924 428,65.5C 424.715,65.9786 421.881,67.3119 419.5,69.5C 418.065,68.0715 417.065,66.4048 416.5,64.5C 417.366,61.3075 419.032,58.6408 421.5,56.5 Z"/></g>
<g><path style="opacity:1" fill="#141414" d="M 416.5,82.5 C 414.95,83.4408 413.284,84.1075 411.5,84.5C 411.392,82.7909 411.225,80.7909 411,78.5C 407.893,73.2289 404.726,73.2289 401.5,78.5C 401.028,80.5313 400.028,82.1979 398.5,83.5C 394.527,79.7866 394.527,75.9533 398.5,72C 403.921,71.1608 409.254,71.4941 414.5,73C 417.468,75.7027 418.135,78.8694 416.5,82.5 Z"/></g>
<g><path style="opacity:1" fill="#676767" d="M 401.5,78.5 C 401.5,80.5 401.5,82.5 401.5,84.5C 400.209,84.7373 399.209,84.404 398.5,83.5C 400.028,82.1979 401.028,80.5313 401.5,78.5 Z"/></g>
<g><path style="opacity:1" fill="#121212" d="M 419.5,88.5 C 420.473,88.9867 421.473,89.4867 422.5,90C 422.057,91.5185 422.724,92.6852 424.5,93.5C 422.058,95.1261 419.391,96.4594 416.5,97.5C 415.5,98.1667 414.5,98.8333 413.5,99.5C 412,95.8743 411.667,92.2076 412.5,88.5C 413.167,89.1667 413.833,89.8333 414.5,90.5C 415.842,88.9951 417.508,88.3285 419.5,88.5 Z"/></g>
<g><path style="opacity:1" fill="#101010" d="M 396.5,88.5 C 398.799,91.3715 398.799,94.3715 396.5,97.5C 395.833,97.1667 395.167,96.8333 394.5,96.5C 392.254,96.0639 390.087,95.3972 388,94.5C 386.589,89.7363 388.422,87.4029 393.5,87.5C 394.584,87.685 395.584,88.0183 396.5,88.5 Z"/></g>
<g><path style="opacity:1" fill="#6e6e70" d="M 366.5,92.5 C 368.292,93.3091 370.292,93.8091 372.5,94C 370.08,94.2904 367.746,94.7904 365.5,95.5C 365.265,94.9033 364.765,94.5699 364,94.5C 361.915,95.1242 360.082,96.1242 358.5,97.5C 358.5,97.1667 358.5,96.8333 358.5,96.5C 358.953,95.5416 359.619,94.7083 360.5,94C 362.586,93.6847 364.586,93.1847 366.5,92.5 Z"/></g>
<g><path style="opacity:1" fill="#cbcbcc" d="M 365.5,95.5 C 361.515,96.9148 358.682,99.5815 357,103.5C 356.591,101.305 357.091,99.3049 358.5,97.5C 360.082,96.1242 361.915,95.1242 364,94.5C 364.765,94.5699 365.265,94.9033 365.5,95.5 Z"/></g>
<g><path style="opacity:1" fill="#f2f3f3" d="M 368.5,96.5 C 370.099,96.2322 371.432,96.5655 372.5,97.5C 370.832,99.4786 370.166,101.812 370.5,104.5C 381.174,104.677 387.341,110.01 389,120.5C 387.258,117.254 384.758,114.921 381.5,113.5C 377.332,111.908 373.332,112.408 369.5,115C 371.019,114.669 372.352,114.836 373.5,115.5C 370.72,118.106 367.887,118.106 365,115.5C 363.804,129.691 368.304,142.191 378.5,153C 376.402,153.678 374.402,153.511 372.5,152.5C 364.052,140.832 358.718,127.832 356.5,113.5C 355.917,104.439 359.917,98.7725 368.5,96.5 Z"/></g>
<g><path style="opacity:1" fill="#f0f1f1" d="M 442.5,96.5 C 445.792,96.6469 448.792,97.6469 451.5,99.5C 455.198,104.871 456.365,110.871 455,117.5C 452.541,130.414 447.374,142.081 439.5,152.5C 437.167,153.833 434.833,153.833 432.5,152.5C 440.668,142.23 446.001,130.564 448.5,117.5C 445.935,117.965 443.268,117.965 440.5,117.5C 439.922,113.688 437.589,112.021 433.5,112.5C 431.667,112.585 430.334,113.252 429.5,114.5C 428.078,114.709 426.745,115.209 425.5,116C 424.402,116.77 424.402,117.603 425.5,118.5C 424.153,119.028 422.819,119.195 421.5,119C 425.676,109.978 432.676,105.145 442.5,104.5C 442.834,101.812 442.168,99.4786 440.5,97.5C 440.842,96.6618 441.508,96.3284 442.5,96.5 Z"/></g>
<g><path style="opacity:1" fill="#3e3f40" d="M 435.5,92.5 C 441.523,92.9286 447.189,94.7619 452.5,98C 451.944,98.3826 451.611,98.8826 451.5,99.5C 448.792,97.6469 445.792,96.6469 442.5,96.5C 439.334,95.4043 436.001,94.9043 432.5,95C 433.167,95.3333 433.833,95.6667 434.5,96C 427.51,97.6499 422.177,101.483 418.5,107.5C 417.58,106.933 417.246,107.599 417.5,109.5C 416.774,106.029 415.44,102.696 413.5,99.5C 414.5,98.8333 415.5,98.1667 416.5,97.5C 416.248,100.32 416.748,102.986 418,105.5C 422.586,99.4035 428.42,95.0702 435.5,92.5 Z"/></g>
<g><path style="opacity:1" fill="#bbbcbe" d="M 442.5,96.5 C 441.508,96.3284 440.842,96.6618 440.5,97.5C 430.009,97.4586 422.843,102.459 419,112.5C 418.506,110.866 418.34,109.199 418.5,107.5C 422.177,101.483 427.51,97.6499 434.5,96C 433.833,95.6667 433.167,95.3333 432.5,95C 436.001,94.9043 439.334,95.4043 442.5,96.5 Z"/></g>
<g><path style="opacity:1" fill="#b8b8b8" d="M 368.5,96.5 C 380.031,94.0191 388.197,98.3524 393,109.5C 393.232,108.263 393.732,107.263 394.5,106.5C 394.635,108.554 393.968,110.221 392.5,111.5C 389.745,105.576 385.411,101.076 379.5,98C 377.19,97.5034 374.857,97.3367 372.5,97.5C 371.432,96.5655 370.099,96.2322 368.5,96.5 Z"/></g>
<g><path style="opacity:1" fill="#909091" d="M 381.5,113.5 C 378.487,113.107 375.82,113.774 373.5,115.5C 372.352,114.836 371.019,114.669 369.5,115C 373.332,112.408 377.332,111.908 381.5,113.5 Z"/></g>
<g><path style="opacity:1" fill="#ededed" d="M 416.5,82.5 C 416.489,84.0174 415.823,85.1841 414.5,86C 416.175,86.9853 417.842,87.8186 419.5,88.5C 417.508,88.3285 415.842,88.9951 414.5,90.5C 413.833,89.8333 413.167,89.1667 412.5,88.5C 411.667,92.2076 412,95.8743 413.5,99.5C 415.44,102.696 416.774,106.029 417.5,109.5C 417.5,111.5 417.5,113.5 417.5,115.5C 415.873,119.315 414.54,123.315 413.5,127.5C 411.61,127.703 410.11,127.037 409,125.5C 408.632,126.91 407.799,127.91 406.5,128.5C 404.316,129.108 402.316,128.441 400.5,126.5C 399.718,128.329 400.384,129.829 402.5,131C 403.667,131.167 404.833,131.333 406,131.5C 409.26,130.378 412.593,129.378 416,128.5C 416.21,130.058 416.71,131.391 417.5,132.5C 417.517,134.028 418.184,134.528 419.5,134C 421.833,132.757 422.5,131.091 421.5,129C 423.5,128.667 425.5,128.333 427.5,128C 428.09,126.491 428.756,124.991 429.5,123.5C 431.121,125.624 432.954,127.624 435,129.5C 436.606,124.485 435.106,120.819 430.5,118.5C 429.391,117.71 428.058,117.21 426.5,117C 430.731,116.081 434.731,116.581 438.5,118.5C 441.217,121.637 442.051,125.304 441,129.5C 439.586,136.318 437.086,142.651 433.5,148.5C 432.167,145.5 432.167,142.5 433.5,139.5C 436.316,136.795 435.649,134.795 431.5,133.5C 430.252,134.04 429.085,134.707 428,135.5C 427.308,136.437 427.475,137.103 428.5,137.5C 430.36,142.193 431.026,147.193 430.5,152.5C 427.896,159.604 423.063,164.604 416,167.5C 414.743,167.15 414.409,166.483 415,165.5C 419.444,162.893 422.61,159.226 424.5,154.5C 421.68,153.306 418.847,153.306 416,154.5C 414.715,154.05 413.548,153.383 412.5,152.5C 409.856,155.109 407.689,158.109 406,161.5C 404.75,158.084 402.583,155.417 399.5,153.5C 395.504,153.835 391.504,154.169 387.5,154.5C 389.919,159.085 392.919,163.252 396.5,167C 389.303,165.649 384.303,161.483 381.5,154.5C 381.053,149.949 381.719,145.616 383.5,141.5C 384.172,142.949 384.839,144.282 385.5,145.5C 386.706,148.139 388.706,148.972 391.5,148C 393.16,145.688 393.993,143.188 394,140.5C 392.951,139.483 391.784,139.316 390.5,140C 391.609,141.813 390.942,142.646 388.5,142.5C 388.768,140.901 388.434,139.568 387.5,138.5C 387.167,137.5 386.5,136.833 385.5,136.5C 381.797,132.264 378.797,132.597 376.5,137.5C 376.453,139.038 377.12,140.038 378.5,140.5C 379.777,141.694 380.444,143.36 380.5,145.5C 380.493,147.369 380.16,149.036 379.5,150.5C 373.86,141.272 371.027,131.272 371,120.5C 374.366,115.391 378.866,114.224 384.5,117C 376.702,118.106 374.202,122.273 377,129.5C 378.667,127.167 380.333,124.833 382,122.5C 381.453,127.637 383.453,129.303 388,127.5C 388.541,130.209 390.041,132.209 392.5,133.5C 393.429,132.311 393.762,130.978 393.5,129.5C 394.5,129.5 395.5,129.5 396.5,129.5C 396.663,127.143 396.497,124.81 396,122.5C 394.143,119.046 392.977,115.379 392.5,111.5C 393.968,110.221 394.635,108.554 394.5,106.5C 394.873,103.426 395.539,100.426 396.5,97.5C 398.799,94.3715 398.799,91.3715 396.5,88.5C 397.629,86.9522 399.795,86.2855 403,86.5C 404.707,86.5085 406.207,86.8418 407.5,87.5C 409.404,87.2624 410.738,86.2624 411.5,84.5C 413.284,84.1075 414.95,83.4408 416.5,82.5 Z"/></g>
<g><path style="opacity:1" fill="#888889" d="M 406.5,100.5 C 405.542,100.047 404.708,99.3805 404,98.5C 403.623,99.9423 402.79,100.942 401.5,101.5C 400.194,100.533 399.527,99.1993 399.5,97.5C 402.144,97.8399 404.477,97.1733 406.5,95.5C 408.889,95.9788 410.556,97.3121 411.5,99.5C 409.785,99.5951 408.119,99.9284 406.5,100.5 Z"/></g>
<g><path style="opacity:1" fill="#1f1f1f" d="M 407.5,87.5 C 408.728,89.0098 408.728,90.5098 407.5,92C 405.049,92.3058 402.716,91.8058 400.5,90.5C 402.071,87.9066 404.404,86.9066 407.5,87.5 Z"/></g>
<g><path style="opacity:1" fill="#0d0d0d" d="M 360.5,155.5 C 375.093,163.253 387.426,173.753 397.5,187C 390.845,182.826 383.845,178.826 376.5,175C 372.714,173.607 369.048,171.941 365.5,170C 364.167,169.333 362.833,169.333 361.5,170C 374.09,177.683 379.257,188.849 377,203.5C 376.184,204.823 375.017,205.489 373.5,205.5C 373.682,192.741 368.682,182.741 358.5,175.5C 352.263,174.114 345.929,174.281 339.5,176C 340.5,176.167 341.5,176.333 342.5,176.5C 345.999,175.406 349.332,175.406 352.5,176.5C 354.03,179.548 355.363,182.714 356.5,186C 354.61,189.416 353.277,189.249 352.5,185.5C 352.013,184.527 351.513,183.527 351,182.5C 350.502,185.482 350.335,188.482 350.5,191.5C 343.729,197.983 336.895,197.983 330,191.5C 329.517,192.448 329.351,193.448 329.5,194.5C 326.298,194.463 324.632,192.797 324.5,189.5C 324.824,185.445 324.491,181.445 323.5,177.5C 322.893,177.624 322.56,177.957 322.5,178.5C 319.398,178.154 316.565,178.821 314,180.5C 314.305,174.822 317.138,170.655 322.5,168C 329.673,165.363 337.007,164.863 344.5,166.5C 340.704,168.269 336.704,169.769 332.5,171C 327.258,176.18 327.591,176.513 333.5,172C 337.715,170.766 341.715,169.266 345.5,167.5C 347.527,167.662 349.527,167.495 351.5,167C 339.051,160.909 326.051,159.242 312.5,162C 294.167,169.508 286.334,183.008 289,202.5C 291.45,207.284 294.95,211.117 299.5,214C 289.556,213.068 282.723,207.902 279,198.5C 275.923,172.238 287.423,156.738 313.5,152C 310.183,151.502 306.85,151.335 303.5,151.5C 299.849,150.835 296.015,150.501 292,150.5C 285.926,150.341 280.092,151.007 274.5,152.5C 263.258,153.53 254.425,158.53 248,167.5C 247.365,165.365 247.699,163.365 249,161.5C 251.906,158.963 255.073,156.796 258.5,155C 241.087,160.05 227.254,170.217 217,185.5C 217.106,193.967 215.106,194.634 211,187.5C 210.333,184.833 210.333,182.167 211,179.5C 215.833,170.667 222.667,163.833 231.5,159C 225.744,159.691 220.077,161.024 214.5,163C 212.273,163.941 210.273,165.108 208.5,166.5C 203.313,169.173 198.813,172.84 195,177.5C 193.991,179.025 193.491,180.692 193.5,182.5C 191.97,185.695 191.304,189.195 191.5,193C 191.309,196.698 191.976,200.198 193.5,203.5C 192.132,204.594 190.965,204.26 190,202.5C 188.295,200.423 187.128,198.09 186.5,195.5C 185.375,189.468 187.041,184.468 191.5,180.5C 195.902,171.929 202.235,165.096 210.5,160C 230.029,153.117 250.029,147.783 270.5,144C 245.426,143.867 222.093,150.201 200.5,163C 194.792,167.195 189.459,171.862 184.5,177C 186.315,177.757 187.981,178.59 189.5,179.5C 188.287,182.225 186.454,184.559 184,186.5C 182.798,188.677 182.298,191.011 182.5,193.5C 181.167,193.5 179.833,193.5 178.5,193.5C 177.732,192.737 177.232,191.737 177,190.5C 174.243,192.204 172.91,194.538 173,197.5C 176.144,199.762 176.311,202.262 173.5,205C 170.407,205.07 167.407,204.736 164.5,204C 169.274,206.106 169.607,208.606 165.5,211.5C 161.576,210.997 159.243,212.664 158.5,216.5C 156.208,218.451 155.875,220.784 157.5,223.5C 156.833,224.167 156.167,224.833 155.5,225.5C 155.665,221.818 155.499,218.152 155,214.5C 154.71,216.92 154.21,219.254 153.5,221.5C 151.847,222.799 150.347,222.466 149,220.5C 148.333,218.167 148.333,215.833 149,213.5C 150.289,211.945 150.956,210.279 151,208.5C 137.364,216.751 125.53,214.751 115.5,202.5C 113.408,205.152 110.742,205.986 107.5,205C 106.138,200.203 104.638,195.37 103,190.5C 98.9659,187.978 95.2992,184.978 92,181.5C 89.7415,175.618 90.0749,169.951 93,164.5C 95.8688,161.296 99.0354,158.463 102.5,156C 107.095,154.607 111.761,154.274 116.5,155C 116.043,155.414 115.709,155.914 115.5,156.5C 118.692,161.978 117.359,166.145 111.5,169C 108.101,170.077 104.767,171.244 101.5,172.5C 96.4707,173.929 95.4707,176.596 98.5,180.5C 100.926,184.708 102.259,184.375 102.5,179.5C 105.692,173.568 110.692,170.735 117.5,171C 119.227,172.389 120.561,174.056 121.5,176C 121.355,176.772 121.022,177.439 120.5,178C 117.624,178.438 114.957,179.438 112.5,181C 110.789,182.133 110.289,183.633 111,185.5C 111.833,184.667 112.667,183.833 113.5,183C 117.537,182.393 121.537,182.56 125.5,183.5C 125.297,185.39 125.963,186.89 127.5,188C 125.021,191.647 122.021,194.813 118.5,197.5C 117.417,198.365 117.251,199.365 118,200.5C 125.335,208.943 134.502,211.777 145.5,209C 148.912,207.545 152.079,205.712 155,203.5C 155.333,204.167 155.667,204.833 156,205.5C 160.506,200.661 165.339,196.161 170.5,192C 169.167,192 167.833,192 166.5,192C 173.023,187.99 179.69,184.157 186.5,180.5C 185.562,179.447 184.395,178.78 183,178.5C 169.429,185.837 155.596,186.337 141.5,180C 136.95,177.117 133.45,173.284 131,168.5C 130.403,162.239 133.236,158.239 139.5,156.5C 135.811,165.573 138.477,172.74 147.5,178C 158.233,182.557 168.9,182.557 179.5,178C 181.692,174.308 184.692,171.474 188.5,169.5C 188.333,169.167 188.167,168.833 188,168.5C 182.097,170.412 176.264,172.412 170.5,174.5C 164.828,174.418 160.994,171.752 159,166.5C 155.353,158.303 157.52,152.636 165.5,149.5C 166.167,155.679 166.833,162.012 167.5,168.5C 168.298,168.043 168.631,167.376 168.5,166.5C 169.797,162.842 172.463,161.176 176.5,161.5C 176.5,163.167 176.5,164.833 176.5,166.5C 179.833,166.5 183.167,166.5 186.5,166.5C 187.601,167.598 188.934,167.765 190.5,167C 202.265,155.95 215.265,146.617 229.5,139C 245.009,132.918 261.009,129.751 277.5,129.5C 279.833,130.667 282.167,131.833 284.5,133C 311.279,135.915 336.612,143.415 360.5,155.5 Z"/></g>
<g><path style="opacity:1" fill="#121212" d="M 333.5,122.5 C 336.505,122.253 339.005,123.253 341,125.5C 339.822,128.617 339.489,131.95 340,135.5C 342.09,130.311 345.423,129.311 350,132.5C 350.667,133.5 350.667,134.5 350,135.5C 348.257,137.321 346.757,139.321 345.5,141.5C 341.07,138.078 336.57,134.744 332,131.5C 329.636,127.835 330.136,124.835 333.5,122.5 Z"/></g>
<g><path style="opacity:1" fill="#151515" d="M 473.5,122.5 C 481.665,122.913 483.332,126.413 478.5,133C 474.401,135.141 470.567,137.641 467,140.5C 463.319,138.501 461.985,135.501 463,131.5C 467.639,129.318 470.639,130.651 472,135.5C 472.638,134.391 473.138,133.225 473.5,132C 472.277,130.28 471.277,128.447 470.5,126.5C 470.787,124.557 471.787,123.223 473.5,122.5 Z"/></g>
<g><path style="opacity:1" fill="#a9a9a9" d="M 553.5,132.5 C 546.454,132.494 539.454,132.661 532.5,133C 533.167,132.667 533.833,132.333 534.5,132C 534.272,131.601 533.938,131.435 533.5,131.5C 534.878,130.766 536.378,130.099 538,129.5C 543.054,131.107 548.221,132.107 553.5,132.5 Z"/></g>
<g><path style="opacity:1" fill="#0d0d0d" d="M 533.5,131.5 C 533.938,131.435 534.272,131.601 534.5,132C 533.833,132.333 533.167,132.667 532.5,133C 539.454,132.661 546.454,132.494 553.5,132.5C 568.086,133.586 581.753,137.752 594.5,145C 603.938,151.935 612.938,159.435 621.5,167.5C 625.878,163.897 630.545,163.564 635.5,166.5C 634.659,164.621 634.325,162.621 634.5,160.5C 638.426,160.047 641.592,161.38 644,164.5C 644.198,159.112 643.698,153.779 642.5,148.5C 642.833,148.167 643.167,147.833 643.5,147.5C 644.874,148.711 646.374,149.711 648,150.5C 649.649,149.102 650.982,149.436 652,151.5C 656.119,159.012 654.952,165.512 648.5,171C 646.13,172.036 643.63,172.536 641,172.5C 635.067,171.219 629.234,170.053 623.5,169C 627.167,172 630.833,175 634.5,178C 644.111,181.163 653.778,181.163 663.5,178C 666.783,176.439 669.617,174.273 672,171.5C 673.472,165.924 672.305,161.091 668.5,157C 670.635,156.365 672.635,156.699 674.5,158C 682.871,165.426 682.205,172.093 672.5,178C 658.072,185.07 643.572,185.236 629,178.5C 627.774,178.645 626.607,178.978 625.5,179.5C 624.167,180.167 624.167,180.833 625.5,181.5C 630.628,183.233 635.628,185.233 640.5,187.5C 640.389,188.117 640.056,188.617 639.5,189C 641.66,190.332 643.66,191.832 645.5,193.5C 652.46,198.626 658.627,204.626 664,211.5C 664.667,214.5 664.667,217.5 664,220.5C 661.546,222.013 659.879,221.346 659,218.5C 658.51,219.793 658.343,221.127 658.5,222.5C 657.596,223.209 657.263,224.209 657.5,225.5C 656.833,224.5 656.167,223.5 655.5,222.5C 656.555,219.927 656.722,217.261 656,214.5C 654.605,215.815 653.605,215.481 653,213.5C 653.619,216.877 653.453,220.21 652.5,223.5C 650.5,223.5 648.5,223.5 646.5,223.5C 643.789,217.133 645.789,213.133 652.5,211.5C 650.138,210.729 647.804,209.895 645.5,209C 644.35,205.595 645.684,203.429 649.5,202.5C 648.833,202.167 648.167,201.833 647.5,201.5C 645.063,203.227 642.396,204.06 639.5,204C 638.257,202.846 637.257,201.512 636.5,200C 638.377,197.769 639.21,195.269 639,192.5C 637.104,190.47 634.937,188.803 632.5,187.5C 632.193,188.887 632.193,190.554 632.5,192.5C 631.167,192.5 629.833,192.5 628.5,192.5C 628.607,188.714 627.107,185.714 624,183.5C 626.9,191.083 625.4,197.75 619.5,203.5C 618.374,202.192 618.374,200.858 619.5,199.5C 620.804,192.776 620.471,186.109 618.5,179.5C 612.924,171.856 605.59,166.356 596.5,163C 591.179,161.219 585.846,159.885 580.5,159C 587.571,163.07 593.738,168.237 599,174.5C 604.042,180.756 603.542,186.422 597.5,191.5C 596.173,185.344 593.173,180.177 588.5,176C 579.169,166.999 568.502,159.999 556.5,155C 555.5,154.333 554.5,154.333 553.5,155C 557.241,156.738 560.408,159.238 563,162.5C 564.187,164.044 564.52,165.711 564,167.5C 561.117,162.95 557.284,159.45 552.5,157C 534.969,150.479 516.969,148.812 498.5,152C 522.866,156.359 534.699,170.859 534,195.5C 531.958,205.293 526.125,211.293 516.5,213.5C 516.167,213.333 515.833,213.167 515.5,213C 524.285,205.633 526.785,196.467 523,185.5C 518.058,172.101 508.558,163.935 494.5,161C 483.323,159.641 472.657,161.308 462.5,166C 475.324,162.272 486.824,164.772 497,173.5C 497.991,175.447 498.325,177.447 498,179.5C 494.397,178.865 490.897,178.198 487.5,177.5C 484.959,173.293 481.292,170.627 476.5,169.5C 480.252,172.041 483.585,175.041 486.5,178.5C 490.376,183.074 490.376,187.574 486.5,192C 484.934,192.765 483.601,192.598 482.5,191.5C 482.665,188.482 482.498,185.482 482,182.5C 480.11,187.047 476.61,189.547 471.5,190C 474.711,190.798 477.711,190.298 480.5,188.5C 481.386,189.325 481.719,190.325 481.5,191.5C 475.355,195.242 469.022,195.409 462.5,192C 460.609,188.967 460.109,185.8 461,182.5C 460.059,184.061 458.892,185.395 457.5,186.5C 456.28,186.113 455.613,185.28 455.5,184C 456.223,181.447 457.556,179.28 459.5,177.5C 459.376,176.893 459.043,176.56 458.5,176.5C 461.977,175.677 465.644,175.177 469.5,175C 469.167,174.667 468.833,174.333 468.5,174C 463.648,173.185 458.981,173.352 454.5,174.5C 451.944,175.543 449.777,177.21 448,179.5C 442.865,187.033 440.032,195.366 439.5,204.5C 447.104,203.879 448.437,200.546 443.5,194.5C 445.718,193.812 447.218,194.812 448,197.5C 448.801,200.367 448.634,203.034 447.5,205.5C 444.403,205.429 441.07,205.262 437.5,205C 435.083,202.521 434.083,199.521 434.5,196C 435.275,186.116 439.275,177.783 446.5,171C 434.683,174.328 424.183,180.162 415,188.5C 418.39,180.921 423.557,174.588 430.5,169.5C 436.184,164.665 442.184,160.331 448.5,156.5C 463.803,148.519 479.803,142.186 496.5,137.5C 499.152,137.59 501.485,136.924 503.5,135.5C 513.467,133.886 523.467,132.552 533.5,131.5 Z"/></g>
<g><path style="opacity:1" fill="#696969" d="M 503.5,135.5 C 501.485,136.924 499.152,137.59 496.5,137.5C 498.515,136.076 500.848,135.41 503.5,135.5 Z"/></g>
<g><path style="opacity:1" fill="#101010" d="M 457.5,138.5 C 465.359,138.853 466.192,141.187 460,145.5C 456.377,144.243 455.544,141.91 457.5,138.5 Z"/></g>
<g><path style="opacity:1" fill="#151515" d="M 350.5,138.5 C 356.02,139.044 357.354,141.544 354.5,146C 348.392,146.078 347.059,143.578 350.5,138.5 Z"/></g>
<g><path style="opacity:1" fill="#1f2020" d="M 366.5,92.5 C 376.951,91.8117 385.451,95.4784 392,103.5C 392.847,101.146 393.68,98.8123 394.5,96.5C 395.167,96.8333 395.833,97.1667 396.5,97.5C 395.539,100.426 394.873,103.426 394.5,106.5C 393.732,107.263 393.232,108.263 393,109.5C 388.197,98.3524 380.031,94.0191 368.5,96.5C 359.917,98.7725 355.917,104.439 356.5,113.5C 358.718,127.832 364.052,140.832 372.5,152.5C 371.833,153.167 371.167,153.833 370.5,154.5C 361.901,142.59 356.067,129.257 353,114.5C 351.15,107.224 352.984,101.224 358.5,96.5C 358.5,96.8333 358.5,97.1667 358.5,97.5C 357.091,99.3049 356.591,101.305 357,103.5C 358.682,99.5815 361.515,96.9148 365.5,95.5C 367.746,94.7904 370.08,94.2904 372.5,94C 370.292,93.8091 368.292,93.3091 366.5,92.5 Z"/></g>
<g><path style="opacity:1" fill="#161616" d="M 613.5,144.5 C 618.05,143.884 622.05,145.051 625.5,148C 626.747,149.494 626.747,150.994 625.5,152.5C 620.867,154.152 616.534,153.652 612.5,151C 611.144,148.586 611.478,146.419 613.5,144.5 Z"/></g>
<g><path style="opacity:1" fill="#191919" d="M 191.5,144.5 C 194.685,144.02 197.519,144.686 200,146.5C 200.604,150.588 198.77,153.088 194.5,154C 191.77,154.728 189.103,154.562 186.5,153.5C 185.386,152.277 185.219,150.944 186,149.5C 187.812,147.7 189.645,146.033 191.5,144.5 Z"/></g>
<g><path style="opacity:1" fill="#dfe0e0" d="M 191.5,180.5 C 190.833,180.167 190.167,179.833 189.5,179.5C 187.981,178.59 186.315,177.757 184.5,177C 189.459,171.862 194.792,167.195 200.5,163C 222.093,150.201 245.426,143.867 270.5,144C 250.029,147.783 230.029,153.117 210.5,160C 202.235,165.096 195.902,171.929 191.5,180.5 Z"/></g>
<g><path style="opacity:1" fill="#171717" d="M 357.5,145.5 C 361.485,145.629 362.818,147.463 361.5,151C 356.728,151.81 355.395,149.977 357.5,145.5 Z"/></g>
<g><path style="opacity:1" fill="#121212" d="M 451.5,145.5 C 453.167,145.5 454.833,145.5 456.5,145.5C 456.859,149.987 455.026,151.654 451,150.5C 450.36,148.735 450.527,147.068 451.5,145.5 Z"/></g>
<g><path style="opacity:1" fill="#e1e1e1" d="M 189.5,149.5 C 190.978,149.238 192.311,149.571 193.5,150.5C 192.833,150.833 192.167,151.167 191.5,151.5C 190.287,151.253 189.62,150.586 189.5,149.5 Z"/></g>
<g><path style="opacity:1" fill="#c5c5c5" d="M 618.5,148.5 C 620.346,148.222 621.68,148.889 622.5,150.5C 620.167,151.941 618.834,151.275 618.5,148.5 Z"/></g>
<g><path style="opacity:1" fill="#acadac" d="M 303.5,151.5 C 293.815,151.422 284.148,151.755 274.5,152.5C 280.092,151.007 285.926,150.341 292,150.5C 296.015,150.501 299.849,150.835 303.5,151.5 Z"/></g>
<g><path style="opacity:1" fill="#fafafa" d="M 303.5,151.5 C 306.85,151.335 310.183,151.502 313.5,152C 287.423,156.738 275.923,172.238 279,198.5C 282.723,207.902 289.556,213.068 299.5,214C 294.95,211.117 291.45,207.284 289,202.5C 286.334,183.008 294.167,169.508 312.5,162C 326.051,159.242 339.051,160.909 351.5,167C 349.527,167.495 347.527,167.662 345.5,167.5C 345.5,166.833 345.167,166.5 344.5,166.5C 337.007,164.863 329.673,165.363 322.5,168C 317.138,170.655 314.305,174.822 314,180.5C 316.565,178.821 319.398,178.154 322.5,178.5C 323.167,182.167 323.833,185.833 324.5,189.5C 324.632,192.797 326.298,194.463 329.5,194.5C 329.351,193.448 329.517,192.448 330,191.5C 336.895,197.983 343.729,197.983 350.5,191.5C 351.167,189.5 351.833,187.5 352.5,185.5C 353.277,189.249 354.61,189.416 356.5,186C 355.363,182.714 354.03,179.548 352.5,176.5C 354.435,175.85 356.435,175.517 358.5,175.5C 368.682,182.741 373.682,192.741 373.5,205.5C 366.43,204.593 364.763,201.093 368.5,195C 367.833,194.333 367.167,194.333 366.5,195C 362.59,199.739 362.59,204.406 366.5,209C 367.448,209.483 368.448,209.649 369.5,209.5C 380.758,212.116 386.925,207.45 388,195.5C 390.038,198.243 391.538,201.243 392.5,204.5C 392.502,208.165 393.835,211.165 396.5,213.5C 397.5,213.5 398.5,213.5 399.5,213.5C 400.259,208.205 398.926,203.538 395.5,199.5C 396.274,198.289 397.107,198.289 398,199.5C 402.825,207.146 405.325,215.479 405.5,224.5C 325.665,224.833 245.998,224.499 166.5,223.5C 168.458,219.216 167.458,215.883 163.5,213.5C 164.167,212.833 164.833,212.167 165.5,211.5C 169.607,208.606 169.274,206.106 164.5,204C 167.407,204.736 170.407,205.07 173.5,205C 176.311,202.262 176.144,199.762 173,197.5C 172.91,194.538 174.243,192.204 177,190.5C 177.232,191.737 177.732,192.737 178.5,193.5C 179.919,194.451 181.585,194.784 183.5,194.5C 183.34,192.801 183.506,191.134 184,189.5C 185.019,191.502 185.852,193.502 186.5,195.5C 187.128,198.09 188.295,200.423 190,202.5C 190.965,204.26 192.132,204.594 193.5,203.5C 191.976,200.198 191.309,196.698 191.5,193C 191.304,189.195 191.97,185.695 193.5,182.5C 194.391,183.11 195.391,183.443 196.5,183.5C 197.824,184.85 198.824,184.683 199.5,183C 201.06,179.6 202.393,176.1 203.5,172.5C 205.914,171.089 207.581,169.089 208.5,166.5C 210.273,165.108 212.273,163.941 214.5,163C 220.077,161.024 225.744,159.691 231.5,159C 222.667,163.833 215.833,170.667 211,179.5C 210.333,182.167 210.333,184.833 211,187.5C 215.106,194.634 217.106,193.967 217,185.5C 227.254,170.217 241.087,160.05 258.5,155C 255.073,156.796 251.906,158.963 249,161.5C 247.699,163.365 247.365,165.365 248,167.5C 254.425,158.53 263.258,153.53 274.5,152.5C 284.148,151.755 293.815,151.422 303.5,151.5 Z"/></g>
<g><path style="opacity:1" fill="#f9faf9" d="M 618.5,179.5 C 618.954,186.159 619.287,192.826 619.5,199.5C 618.374,200.858 618.374,202.192 619.5,203.5C 625.4,197.75 626.9,191.083 624,183.5C 627.107,185.714 628.607,188.714 628.5,192.5C 629.833,192.5 631.167,192.5 632.5,192.5C 632.193,190.554 632.193,188.887 632.5,187.5C 634.937,188.803 637.104,190.47 639,192.5C 639.21,195.269 638.377,197.769 636.5,200C 637.257,201.512 638.257,202.846 639.5,204C 642.396,204.06 645.063,203.227 647.5,201.5C 648.167,201.833 648.833,202.167 649.5,202.5C 645.684,203.429 644.35,205.595 645.5,209C 647.804,209.895 650.138,210.729 652.5,211.5C 645.789,213.133 643.789,217.133 646.5,223.5C 567.668,224.499 488.668,224.833 409.5,224.5C 409.5,221.167 409.5,217.833 409.5,214.5C 410.003,208.491 412.17,203.157 416,198.5C 415.626,201.275 414.626,203.942 413,206.5C 413.009,214.5 413.676,214.5 415,206.5C 415.667,205.833 416.333,205.167 417,204.5C 418.159,211.778 419.159,211.111 420,202.5C 421.586,200.33 422.92,197.996 424,195.5C 425.077,200.823 427.577,205.323 431.5,209C 432.448,209.483 433.448,209.649 434.5,209.5C 438.074,210.774 441.741,210.607 445.5,209C 446.823,208.184 447.489,207.017 447.5,205.5C 448.634,203.034 448.801,200.367 448,197.5C 447.218,194.812 445.718,193.812 443.5,194.5C 448.437,200.546 447.104,203.879 439.5,204.5C 440.032,195.366 442.865,187.033 448,179.5C 449.777,177.21 451.944,175.543 454.5,174.5C 456.199,174.527 457.533,175.194 458.5,176.5C 459.043,176.56 459.376,176.893 459.5,177.5C 457.556,179.28 456.223,181.447 455.5,184C 455.613,185.28 456.28,186.113 457.5,186.5C 458.892,185.395 460.059,184.061 461,182.5C 460.109,185.8 460.609,188.967 462.5,192C 469.022,195.409 475.355,195.242 481.5,191.5C 481.833,191.5 482.167,191.5 482.5,191.5C 483.601,192.598 484.934,192.765 486.5,192C 490.376,187.574 490.376,183.074 486.5,178.5C 486.5,177.833 486.833,177.5 487.5,177.5C 490.897,178.198 494.397,178.865 498,179.5C 498.325,177.447 497.991,175.447 497,173.5C 486.824,164.772 475.324,162.272 462.5,166C 472.657,161.308 483.323,159.641 494.5,161C 508.558,163.935 518.058,172.101 523,185.5C 526.785,196.467 524.285,205.633 515.5,213C 515.833,213.167 516.167,213.333 516.5,213.5C 526.125,211.293 531.958,205.293 534,195.5C 534.699,170.859 522.866,156.359 498.5,152C 516.969,148.812 534.969,150.479 552.5,157C 557.284,159.45 561.117,162.95 564,167.5C 564.52,165.711 564.187,164.044 563,162.5C 560.408,159.238 557.241,156.738 553.5,155C 554.5,154.333 555.5,154.333 556.5,155C 568.502,159.999 579.169,166.999 588.5,176C 593.173,180.177 596.173,185.344 597.5,191.5C 603.542,186.422 604.042,180.756 599,174.5C 593.738,168.237 587.571,163.07 580.5,159C 585.846,159.885 591.179,161.219 596.5,163C 605.59,166.356 612.924,171.856 618.5,179.5 Z"/></g>
<g><path style="opacity:1" fill="#0e0f0f" d="M 435.5,92.5 C 453.138,90.635 460.638,98.3016 458,115.5C 455.612,129.436 450.112,141.936 441.5,153C 442.793,153.49 444.127,153.657 445.5,153.5C 446.706,154.88 446.373,156.047 444.5,157C 440.553,159.28 436.887,161.947 433.5,165C 431.287,165.626 429.12,165.459 427,164.5C 420.898,168.397 421.065,169.064 427.5,166.5C 428.298,166.957 428.631,167.624 428.5,168.5C 418.465,175.248 411.298,184.248 407,195.5C 401.861,184.07 394.027,174.903 383.5,168C 384.094,167.536 384.761,167.369 385.5,167.5C 387.402,168.511 389.402,168.678 391.5,168C 389.564,167.187 387.564,166.687 385.5,166.5C 377.007,165.413 370.674,161.08 366.5,153.5C 367.959,153.433 369.292,153.766 370.5,154.5C 371.167,153.833 371.833,153.167 372.5,152.5C 374.402,153.511 376.402,153.678 378.5,153C 368.304,142.191 363.804,129.691 365,115.5C 367.887,118.106 370.72,118.106 373.5,115.5C 375.82,113.774 378.487,113.107 381.5,113.5C 384.758,114.921 387.258,117.254 389,120.5C 387.341,110.01 381.174,104.677 370.5,104.5C 370.166,101.812 370.832,99.4786 372.5,97.5C 374.857,97.3367 377.19,97.5034 379.5,98C 385.411,101.076 389.745,105.576 392.5,111.5C 392.977,115.379 394.143,119.046 396,122.5C 396.497,124.81 396.663,127.143 396.5,129.5C 395.5,129.5 394.5,129.5 393.5,129.5C 393.762,130.978 393.429,132.311 392.5,133.5C 390.041,132.209 388.541,130.209 388,127.5C 383.453,129.303 381.453,127.637 382,122.5C 380.333,124.833 378.667,127.167 377,129.5C 374.202,122.273 376.702,118.106 384.5,117C 378.866,114.224 374.366,115.391 371,120.5C 371.027,131.272 373.86,141.272 379.5,150.5C 379.989,151.995 380.655,153.329 381.5,154.5C 384.303,161.483 389.303,165.649 396.5,167C 392.919,163.252 389.919,159.085 387.5,154.5C 391.504,154.169 395.504,153.835 399.5,153.5C 402.583,155.417 404.75,158.084 406,161.5C 407.689,158.109 409.856,155.109 412.5,152.5C 413.548,153.383 414.715,154.05 416,154.5C 418.847,153.306 421.68,153.306 424.5,154.5C 422.61,159.226 419.444,162.893 415,165.5C 414.409,166.483 414.743,167.15 416,167.5C 423.063,164.604 427.896,159.604 430.5,152.5C 431.488,151.205 432.488,149.872 433.5,148.5C 437.086,142.651 439.586,136.318 441,129.5C 442.051,125.304 441.217,121.637 438.5,118.5C 438.5,117.833 438.833,117.5 439.5,117.5C 439.833,117.5 440.167,117.5 440.5,117.5C 443.268,117.965 445.935,117.965 448.5,117.5C 446.001,130.564 440.668,142.23 432.5,152.5C 434.833,153.833 437.167,153.833 439.5,152.5C 447.374,142.081 452.541,130.414 455,117.5C 456.365,110.871 455.198,104.871 451.5,99.5C 451.611,98.8826 451.944,98.3826 452.5,98C 447.189,94.7619 441.523,92.9286 435.5,92.5 Z"/></g>
<g><path style="opacity:1" fill="#8a8b8d" d="M 428.5,137.5 C 430.553,137.402 432.22,138.069 433.5,139.5C 432.167,142.5 432.167,145.5 433.5,148.5C 432.488,149.872 431.488,151.205 430.5,152.5C 431.026,147.193 430.36,142.193 428.5,137.5 Z"/></g>
<g><path style="opacity:1" fill="#191919" d="M 406.5,139.5 C 407.5,139.5 408.5,139.5 409.5,139.5C 409.5,140.833 409.5,142.167 409.5,143.5C 410.5,143.5 411.5,143.5 412.5,143.5C 411.759,148.436 409.926,148.77 407,144.5C 406.506,142.866 406.34,141.199 406.5,139.5 Z"/></g>
<g><path style="opacity:1" fill="#1d1d1d" d="M 403.5,140.5 C 404.622,142.288 404.789,144.288 404,146.5C 402.644,147.38 401.144,147.714 399.5,147.5C 399.961,144.697 401.295,142.363 403.5,140.5 Z"/></g>
<g><path style="opacity:1" fill="#161616" d="M 417.5,140.5 C 418.5,140.5 419.5,140.5 420.5,140.5C 420.281,141.675 420.614,142.675 421.5,143.5C 422.107,143.376 422.44,143.043 422.5,142.5C 427.871,138.678 428.871,140.011 425.5,146.5C 422.104,148.13 419.271,147.463 417,144.5C 416.235,142.934 416.402,141.601 417.5,140.5 Z"/></g>
<g><path style="opacity:1" fill="#131313" d="M 387.5,138.5 C 388.434,139.568 388.768,140.901 388.5,142.5C 390.942,142.646 391.609,141.813 390.5,140C 391.784,139.316 392.951,139.483 394,140.5C 393.993,143.188 393.16,145.688 391.5,148C 388.706,148.972 386.706,148.139 385.5,145.5C 384.99,142.612 385.656,140.279 387.5,138.5 Z"/></g>
<g><path style="opacity:1" fill="#909090" d="M 417.5,140.5 C 418.568,139.566 419.901,139.232 421.5,139.5C 421.263,140.791 421.596,141.791 422.5,142.5C 422.44,143.043 422.107,143.376 421.5,143.5C 420.614,142.675 420.281,141.675 420.5,140.5C 419.5,140.5 418.5,140.5 417.5,140.5 Z"/></g>
<g><path style="opacity:1" fill="#b5b5b5" d="M 385.5,136.5 C 386.5,136.833 387.167,137.5 387.5,138.5C 385.656,140.279 384.99,142.612 385.5,145.5C 384.839,144.282 384.172,142.949 383.5,141.5C 381.719,145.616 381.053,149.949 381.5,154.5C 380.655,153.329 379.989,151.995 379.5,150.5C 380.16,149.036 380.493,147.369 380.5,145.5C 380.444,143.36 379.777,141.694 378.5,140.5C 379.952,139.698 381.618,139.198 383.5,139C 384.381,138.292 385.047,137.458 385.5,136.5 Z"/></g>
<g><path style="opacity:1" fill="#1a1a1a" d="M 433.5,139.5 C 432.22,138.069 430.553,137.402 428.5,137.5C 427.475,137.103 427.308,136.437 428,135.5C 429.085,134.707 430.252,134.04 431.5,133.5C 435.649,134.795 436.316,136.795 433.5,139.5 Z"/></g>
<g><path style="opacity:1" fill="#282829" d="M 406.5,134.5 C 408.337,134.639 408.67,135.306 407.5,136.5C 406.702,136.043 406.369,135.376 406.5,134.5 Z"/></g>
<g><path style="opacity:1" fill="#101010" d="M 385.5,136.5 C 385.047,137.458 384.381,138.292 383.5,139C 381.618,139.198 379.952,139.698 378.5,140.5C 377.12,140.038 376.453,139.038 376.5,137.5C 378.797,132.597 381.797,132.264 385.5,136.5 Z"/></g>
<g><path style="opacity:1" fill="#272728" d="M 417.5,115.5 C 417.014,117.807 417.014,119.973 417.5,122C 416.196,122.804 415.529,123.971 415.5,125.5C 416.894,127.646 417.56,129.979 417.5,132.5C 416.71,131.391 416.21,130.058 416,128.5C 412.593,129.378 409.26,130.378 406,131.5C 404.833,131.333 403.667,131.167 402.5,131C 400.384,129.829 399.718,128.329 400.5,126.5C 402.316,128.441 404.316,129.108 406.5,128.5C 407.799,127.91 408.632,126.91 409,125.5C 410.11,127.037 411.61,127.703 413.5,127.5C 414.54,123.315 415.873,119.315 417.5,115.5 Z"/></g>
<g><path style="opacity:1" fill="#a9abab" d="M 440.5,117.5 C 440.167,117.5 439.833,117.5 439.5,117.5C 436.712,115.024 433.378,114.024 429.5,114.5C 430.334,113.252 431.667,112.585 433.5,112.5C 437.589,112.021 439.922,113.688 440.5,117.5 Z"/></g>
<g><path style="opacity:1" fill="#464648" d="M 429.5,114.5 C 433.378,114.024 436.712,115.024 439.5,117.5C 438.833,117.5 438.5,117.833 438.5,118.5C 434.731,116.581 430.731,116.081 426.5,117C 428.058,117.21 429.391,117.71 430.5,118.5C 428.833,118.5 427.167,118.5 425.5,118.5C 424.402,117.603 424.402,116.77 425.5,116C 426.745,115.209 428.078,114.709 429.5,114.5 Z"/></g>
<g><path style="opacity:1" fill="#0c0c0c" d="M 406.5,100.5 C 413.244,106.997 414.244,114.33 409.5,122.5C 406.56,124.963 403.727,124.963 401,122.5C 397.616,115.318 397.783,108.318 401.5,101.5C 402.79,100.942 403.623,99.9423 404,98.5C 404.708,99.3805 405.542,100.047 406.5,100.5 Z"/></g>
<g><path style="opacity:1" fill="#0c0c0c" d="M 440.5,97.5 C 442.168,99.4786 442.834,101.812 442.5,104.5C 432.676,105.145 425.676,109.978 421.5,119C 422.819,119.195 424.153,119.028 425.5,118.5C 427.167,118.5 428.833,118.5 430.5,118.5C 435.106,120.819 436.606,124.485 435,129.5C 432.954,127.624 431.121,125.624 429.5,123.5C 428.756,124.991 428.09,126.491 427.5,128C 425.5,128.333 423.5,128.667 421.5,129C 422.5,131.091 421.833,132.757 419.5,134C 418.184,134.528 417.517,134.028 417.5,132.5C 417.56,129.979 416.894,127.646 415.5,125.5C 415.529,123.971 416.196,122.804 417.5,122C 417.014,119.973 417.014,117.807 417.5,115.5C 417.5,113.5 417.5,111.5 417.5,109.5C 417.246,107.599 417.58,106.933 418.5,107.5C 418.34,109.199 418.506,110.866 419,112.5C 422.843,102.459 430.009,97.4586 440.5,97.5 Z"/></g>
<g><path style="opacity:1" fill="#c4c4c4" d="M 445.5,153.5 C 446.9,154.1 447.9,155.1 448.5,156.5C 442.184,160.331 436.184,164.665 430.5,169.5C 430.633,166.075 429.967,165.742 428.5,168.5C 428.631,167.624 428.298,166.957 427.5,166.5C 421.065,169.064 420.898,168.397 427,164.5C 429.12,165.459 431.287,165.626 433.5,165C 436.887,161.947 440.553,159.28 444.5,157C 446.373,156.047 446.706,154.88 445.5,153.5 Z"/></g>
<g><path style="opacity:1" fill="#424242" d="M 168.5,166.5 C 168.631,167.376 168.298,168.043 167.5,168.5C 166.833,162.012 166.167,155.679 165.5,149.5C 165.783,148.711 166.283,148.044 167,147.5C 167.172,154.013 167.672,160.347 168.5,166.5 Z"/></g>
<g><path style="opacity:1" fill="#e4e5e4" d="M 542.5,144.5 C 574.702,143.976 603.035,154.309 627.5,175.5C 625.771,177.451 623.771,178.618 621.5,179C 615.585,169.083 607.252,162.083 596.5,158C 578.773,152.368 560.773,147.868 542.5,144.5 Z"/></g>
<g><path style="opacity:1" fill="#989898" d="M 176.5,161.5 C 177.434,162.568 177.768,163.901 177.5,165.5C 180.713,165.19 183.713,165.523 186.5,166.5C 183.167,166.5 179.833,166.5 176.5,166.5C 176.5,164.833 176.5,163.167 176.5,161.5 Z"/></g>
<g><path style="opacity:1" fill="#888888" d="M 476.5,169.5 C 473.262,168.367 469.929,167.533 466.5,167C 470.406,166.031 473.739,166.864 476.5,169.5 Z"/></g>
<g><path style="opacity:1" fill="#8a8a8a" d="M 635.5,166.5 C 637.686,166.511 638.519,167.511 638,169.5C 636.955,168.627 636.122,167.627 635.5,166.5 Z"/></g>
<g><path style="opacity:1" fill="#909090" d="M 344.5,166.5 C 345.167,166.5 345.5,166.833 345.5,167.5C 341.715,169.266 337.715,170.766 333.5,172C 327.591,176.513 327.258,176.18 332.5,171C 336.704,169.769 340.704,168.269 344.5,166.5 Z"/></g>
<g><path style="opacity:1" fill="#939393" d="M 704.5,170.5 C 706.017,170.511 707.184,171.177 708,172.5C 709.751,174.212 710.418,176.212 710,178.5C 707.154,171.668 702.321,169.668 695.5,172.5C 694.957,172.44 694.624,172.107 694.5,171.5C 697.768,170.513 701.102,170.18 704.5,170.5 Z"/></g>
<g><path style="opacity:1" fill="#e5e5e5" d="M 366.5,153.5 C 370.674,161.08 377.007,165.413 385.5,166.5C 385.5,166.833 385.5,167.167 385.5,167.5C 384.761,167.369 384.094,167.536 383.5,168C 394.027,174.903 401.861,184.07 407,195.5C 411.298,184.248 418.465,175.248 428.5,168.5C 429.967,165.742 430.633,166.075 430.5,169.5C 423.557,174.588 418.39,180.921 415,188.5C 424.183,180.162 434.683,174.328 446.5,171C 439.275,177.783 435.275,186.116 434.5,196C 434.083,199.521 435.083,202.521 437.5,205C 441.07,205.262 444.403,205.429 447.5,205.5C 443.649,208.161 439.316,209.161 434.5,208.5C 430.243,206.655 428.576,203.321 429.5,198.5C 429.561,195.097 430.061,191.764 431,188.5C 433.019,184.809 434.686,181.142 436,177.5C 430.56,180.609 425.393,184.109 420.5,188C 416.759,191.498 413.759,195.498 411.5,200C 408.167,200.667 404.833,200.667 401.5,200C 395.128,189.28 386.128,181.947 374.5,178C 382.437,186.244 384.77,195.744 381.5,206.5C 377.96,209.115 373.96,210.115 369.5,209.5C 363.899,205.042 364.232,204.042 370.5,206.5C 371.726,206.48 372.726,206.147 373.5,205.5C 375.017,205.489 376.184,204.823 377,203.5C 379.257,188.849 374.09,177.683 361.5,170C 362.833,169.333 364.167,169.333 365.5,170C 369.048,171.941 372.714,173.607 376.5,175C 383.845,178.826 390.845,182.826 397.5,187C 387.426,173.753 375.093,163.253 360.5,155.5C 362.718,155.386 364.718,154.72 366.5,153.5 Z"/></g>
<g><path style="opacity:1" fill="#787878" d="M 385.5,167.5 C 385.5,167.167 385.5,166.833 385.5,166.5C 387.564,166.687 389.564,167.187 391.5,168C 389.402,168.678 387.402,168.511 385.5,167.5 Z"/></g>
<g><path style="opacity:1" fill="#a9a9a9" d="M 476.5,169.5 C 481.292,170.627 484.959,173.293 487.5,177.5C 486.833,177.5 486.5,177.833 486.5,178.5C 483.585,175.041 480.252,172.041 476.5,169.5 Z"/></g>
<g><path style="opacity:1" fill="#a9a9a9" d="M 358.5,175.5 C 356.435,175.517 354.435,175.85 352.5,176.5C 349.332,175.406 345.999,175.406 342.5,176.5C 341.5,176.333 340.5,176.167 339.5,176C 345.929,174.281 352.263,174.114 358.5,175.5 Z"/></g>
<g><path style="opacity:1" fill="#848484" d="M 454.5,174.5 C 458.981,173.352 463.648,173.185 468.5,174C 468.833,174.333 469.167,174.667 469.5,175C 465.644,175.177 461.977,175.677 458.5,176.5C 457.533,175.194 456.199,174.527 454.5,174.5 Z"/></g>
<g><path style="opacity:1" fill="#919191" d="M 101.5,172.5 C 102.686,173.961 102.686,175.295 101.5,176.5C 101.294,174.451 100.461,174.117 99,175.5C 98.5065,177.134 98.3398,178.801 98.5,180.5C 95.4707,176.596 96.4707,173.929 101.5,172.5 Z"/></g>
<g><path style="opacity:1" fill="#141414" d="M 101.5,176.5 C 101.5,177.5 101.5,178.5 101.5,179.5C 100.895,181.481 99.8946,181.815 98.5,180.5C 98.3398,178.801 98.5065,177.134 99,175.5C 100.461,174.117 101.294,174.451 101.5,176.5 Z"/></g>
<g><path style="opacity:1" fill="#c6c7c7" d="M 208.5,166.5 C 207.581,169.089 205.914,171.089 203.5,172.5C 203.565,172.062 203.399,171.728 203,171.5C 199.923,174.409 197.423,177.742 195.5,181.5C 195.863,182.183 196.196,182.85 196.5,183.5C 195.391,183.443 194.391,183.11 193.5,182.5C 193.491,180.692 193.991,179.025 195,177.5C 198.813,172.84 203.313,169.173 208.5,166.5 Z"/></g>
<g><path style="opacity:1" fill="#1e1e1e" d="M 203.5,172.5 C 202.393,176.1 201.06,179.6 199.5,183C 198.824,184.683 197.824,184.85 196.5,183.5C 196.196,182.85 195.863,182.183 195.5,181.5C 197.423,177.742 199.923,174.409 203,171.5C 203.399,171.728 203.565,172.062 203.5,172.5 Z"/></g>
<g><path style="opacity:1" fill="#191919" d="M 601.5,168.5 C 601.56,167.957 601.893,167.624 602.5,167.5C 608.925,170.729 612.758,175.729 614,182.5C 612.644,183.38 611.144,183.714 609.5,183.5C 609.709,176.916 607.042,171.916 601.5,168.5 Z"/></g>
<g><path style="opacity:1" fill="#101111" d="M 434.5,208.5 C 434.5,208.833 434.5,209.167 434.5,209.5C 433.448,209.649 432.448,209.483 431.5,209C 427.577,205.323 425.077,200.823 424,195.5C 422.92,197.996 421.586,200.33 420,202.5C 419.159,211.111 418.159,211.778 417,204.5C 416.333,205.167 415.667,205.833 415,206.5C 413.676,214.5 413.009,214.5 413,206.5C 414.626,203.942 415.626,201.275 416,198.5C 412.17,203.157 410.003,208.491 409.5,214.5C 408.518,217.962 408.185,221.629 408.5,225.5C 407.5,225.5 406.5,225.5 405.5,225.5C 405.5,225.167 405.5,224.833 405.5,224.5C 405.325,215.479 402.825,207.146 398,199.5C 397.107,198.289 396.274,198.289 395.5,199.5C 398.926,203.538 400.259,208.205 399.5,213.5C 398.5,213.5 397.5,213.5 396.5,213.5C 398.186,209.797 397.686,206.464 395,203.5C 394.667,204.833 394.333,206.167 394,207.5C 393.768,206.263 393.268,205.263 392.5,204.5C 391.538,201.243 390.038,198.243 388,195.5C 386.925,207.45 380.758,212.116 369.5,209.5C 373.96,210.115 377.96,209.115 381.5,206.5C 384.77,195.744 382.437,186.244 374.5,178C 386.128,181.947 395.128,189.28 401.5,200C 404.833,200.667 408.167,200.667 411.5,200C 413.759,195.498 416.759,191.498 420.5,188C 425.393,184.109 430.56,180.609 436,177.5C 434.686,181.142 433.019,184.809 431,188.5C 430.061,191.764 429.561,195.097 429.5,198.5C 428.576,203.321 430.243,206.655 434.5,208.5 Z"/></g>
<g><path style="opacity:1" fill="#919191" d="M 101.5,179.5 C 101.833,179.5 102.167,179.5 102.5,179.5C 102.259,184.375 100.926,184.708 98.5,180.5C 99.8946,181.815 100.895,181.481 101.5,179.5 Z"/></g>
<g><path style="opacity:1" fill="#dfdfdf" d="M 473.5,176.5 C 475.757,175.197 477.59,175.864 479,178.5C 479.533,185.287 476.533,187.287 470,184.5C 468.794,181.153 469.794,178.82 473,177.5C 473.273,179.101 473.773,180.601 474.5,182C 475.965,182.601 476.965,182.101 477.5,180.5C 476.479,178.812 475.145,177.479 473.5,176.5 Z"/></g>
<g><path style="opacity:1" fill="#141414" d="M 695.5,172.5 C 702.321,169.668 707.154,171.668 710,178.5C 710.418,176.212 709.751,174.212 708,172.5C 707.184,171.177 706.017,170.511 704.5,170.5C 702.205,167.703 699.705,165.036 697,162.5C 695.733,158.131 693.567,154.297 690.5,151C 709.048,150.887 716.881,160.054 714,178.5C 712.277,183.613 710.277,188.613 708,193.5C 707.374,195.713 707.541,197.88 708.5,200C 706.113,206.245 702.446,207.078 697.5,202.5C 690.303,211.583 680.97,214.75 669.5,212C 665.467,210.651 662.134,208.318 659.5,205C 673.806,212.656 686.639,210.49 698,198.5C 700.311,193.888 699.477,189.888 695.5,186.5C 693.253,185.626 690.92,185.292 688.5,185.5C 689.571,182.51 691.737,180.51 695,179.5C 700.654,181.821 704.654,185.821 707,191.5C 707.97,189.726 708.804,187.893 709.5,186C 707.408,179.939 703.075,176.772 696.5,176.5C 696.567,175.041 696.234,173.708 695.5,172.5 Z"/></g>
<g><path style="opacity:1" fill="#606162" d="M 336.5,180.5 C 337.007,181.859 338.007,182.859 339.5,183.5C 338.833,183.833 338.167,184.167 337.5,184.5C 335.462,183.338 334.128,181.672 333.5,179.5C 333.811,178.522 334.478,177.855 335.5,177.5C 335.593,178.472 335.926,179.472 336.5,180.5 Z"/></g>
<g><path style="opacity:1" fill="#858585" d="M 322.5,178.5 C 322.56,177.957 322.893,177.624 323.5,177.5C 324.491,181.445 324.824,185.445 324.5,189.5C 323.833,185.833 323.167,182.167 322.5,178.5 Z"/></g>
<g><path style="opacity:1" fill="#e0e0e0" d="M 333.5,179.5 C 334.128,181.672 335.462,183.338 337.5,184.5C 338.167,184.167 338.833,183.833 339.5,183.5C 338.007,182.859 337.007,181.859 336.5,180.5C 341.821,179.344 343.488,181.511 341.5,187C 334.857,188.187 332.191,185.687 333.5,179.5 Z"/></g>
<g><path style="opacity:1" fill="#bababa" d="M 189.5,179.5 C 190.167,179.833 190.833,180.167 191.5,180.5C 187.041,184.468 185.375,189.468 186.5,195.5C 185.852,193.502 185.019,191.502 184,189.5C 183.506,191.134 183.34,192.801 183.5,194.5C 181.585,194.784 179.919,194.451 178.5,193.5C 179.833,193.5 181.167,193.5 182.5,193.5C 182.298,191.011 182.798,188.677 184,186.5C 186.454,184.559 188.287,182.225 189.5,179.5 Z"/></g>
<g><path style="opacity:1" fill="#191919" d="M 734.5,185.5 C 745.387,183.96 755.387,186.127 764.5,192C 770.607,197.012 772.44,203.179 770,210.5C 766.346,214.804 762.179,215.471 757.5,212.5C 755.449,207.383 757.115,205.549 762.5,207C 763.227,208.399 763.727,209.899 764,211.5C 769.07,205.322 768.236,199.822 761.5,195C 754.006,190.96 746.006,189.127 737.5,189.5C 731.241,189.27 725.241,190.103 719.5,192C 724.443,189.525 729.443,187.359 734.5,185.5 Z"/></g>
<g><path style="opacity:1" fill="#161616" d="M 93.5,192.5 C 83.8251,189.033 74.1585,188.7 64.5,191.5C 58.0186,192.16 52.5186,194.827 48,199.5C 45.4325,204.663 46.4325,208.997 51,212.5C 50.3879,207.917 52.2213,206.084 56.5,207C 59.1754,211.72 57.6754,214.553 52,215.5C 43.8699,212.48 41.5365,206.813 45,198.5C 54.1394,186.945 65.9728,183.112 80.5,187C 85.2202,188.176 89.5535,190.01 93.5,192.5 Z"/></g>
<g><path style="opacity:1" fill="#6d6f6e" d="M 352.5,185.5 C 351.833,187.5 351.167,189.5 350.5,191.5C 350.335,188.482 350.502,185.482 351,182.5C 351.513,183.527 352.013,184.527 352.5,185.5 Z"/></g>
<g><path style="opacity:1" fill="#acacac" d="M 482.5,191.5 C 482.167,191.5 481.833,191.5 481.5,191.5C 481.719,190.325 481.386,189.325 480.5,188.5C 477.711,190.298 474.711,190.798 471.5,190C 476.61,189.547 480.11,187.047 482,182.5C 482.498,185.482 482.665,188.482 482.5,191.5 Z"/></g>
<g><path style="opacity:1" fill="#9e9e9e" d="M 329.5,184.5 C 333.417,190.414 338.584,191.747 345,188.5C 345.167,188.833 345.333,189.167 345.5,189.5C 340.678,193.422 335.844,193.422 331,189.5C 329.991,187.975 329.491,186.308 329.5,184.5 Z"/></g>
<g><path style="opacity:1" fill="#d3d3d3" d="M 93.5,192.5 C 95.4456,193.035 96.4456,194.368 96.5,196.5C 88.5815,193.507 80.5815,192.841 72.5,194.5C 71.9569,194.44 71.6236,194.107 71.5,193.5C 74.4465,192.679 77.4465,192.179 80.5,192C 75.2564,190.783 69.9231,190.616 64.5,191.5C 74.1585,188.7 83.8251,189.033 93.5,192.5 Z"/></g>
<g><path style="opacity:1" fill="#878887" d="M 640.5,187.5 C 642.386,188.361 644.22,189.361 646,190.5C 646.47,191.577 646.303,192.577 645.5,193.5C 643.66,191.832 641.66,190.332 639.5,189C 640.056,188.617 640.389,188.117 640.5,187.5 Z"/></g>
<g><path style="opacity:1" fill="#131313" d="M 739.5,202.5 C 738.373,199.255 736.039,197.422 732.5,197C 728.262,196.177 724.262,196.844 720.5,199C 725.117,198.524 729.783,198.524 734.5,199C 736.919,200.509 737.919,202.675 737.5,205.5C 734.292,209.211 730.626,209.377 726.5,206C 724.167,205.333 721.833,205.333 719.5,206C 713.221,208.473 707.221,211.473 701.5,215C 699.553,215.991 697.553,216.325 695.5,216C 698.167,214.333 700.833,212.667 703.5,211C 708.061,205.527 713.061,200.527 718.5,196C 726.51,192.664 734.843,191.664 743.5,193C 742.672,193.915 741.672,194.581 740.5,195C 744.211,195.844 747.877,196.844 751.5,198C 752.428,198.388 753.095,199.055 753.5,200C 752.464,201.901 751.298,203.735 750,205.5C 747.833,203.333 745.667,201.167 743.5,199C 742.241,198.018 740.908,197.685 739.5,198C 745.756,201.996 747.923,207.496 746,214.5C 744.644,213.62 743.144,213.286 741.5,213.5C 740.047,210.014 739.381,206.347 739.5,202.5 Z"/></g>
<g><path style="opacity:1" fill="#818181" d="M 618.5,179.5 C 620.471,186.109 620.804,192.776 619.5,199.5C 619.287,192.826 618.954,186.159 618.5,179.5 Z"/></g>
<g><path style="opacity:1" fill="#2f2f2f" d="M 671.5,189.5 C 672.239,189.369 672.906,189.536 673.5,190C 672.072,192.185 670.405,194.185 668.5,196C 667.365,196.749 666.365,196.583 665.5,195.5C 667.854,193.812 669.854,191.812 671.5,189.5 Z"/></g>
<g><path style="opacity:1" fill="#bcbcbc" d="M 642.5,195.5 C 646.051,196.186 646.217,197.186 643,198.5C 642.517,197.552 642.351,196.552 642.5,195.5 Z"/></g>
<g><path style="opacity:1" fill="#282828" d="M 142.5,193.5 C 145.473,194.987 148.473,196.487 151.5,198C 147.077,199.122 144.077,197.622 142.5,193.5 Z"/></g>
<g><path style="opacity:1" fill="#727272" d="M 739.5,202.5 C 738.833,203.5 738.167,204.5 737.5,205.5C 737.919,202.675 736.919,200.509 734.5,199C 729.783,198.524 725.117,198.524 720.5,199C 724.262,196.844 728.262,196.177 732.5,197C 736.039,197.422 738.373,199.255 739.5,202.5 Z"/></g>
<g><path style="opacity:1" fill="#151515" d="M 96.5,196.5 C 100.939,201.113 105.273,205.946 109.5,211C 112.339,212.92 115.339,214.587 118.5,216C 117.667,216.167 116.833,216.333 116,216.5C 108.938,213.717 102.104,210.551 95.5,207C 92.5,206.333 89.5,206.333 86.5,207C 81.4814,211.15 77.8147,210.317 75.5,204.5C 76.4649,201.872 78.1315,199.872 80.5,198.5C 84.8211,198.228 88.9878,198.894 93,200.5C 93.5,200.333 94,200.167 94.5,200C 89.5517,197.505 84.5517,197.005 79.5,198.5C 77.629,198.859 76.129,199.859 75,201.5C 75.0952,206.521 73.9285,211.188 71.5,215.5C 69.9291,214.691 68.2624,214.357 66.5,214.5C 65.4286,207.809 67.7619,202.642 73.5,199C 69.6341,199.821 66.4675,201.987 64,205.5C 61.9987,203.198 61.4987,200.698 62.5,198C 66.4686,197.147 70.4686,196.481 74.5,196C 73.5842,195.722 72.9175,195.222 72.5,194.5C 80.5815,192.841 88.5815,193.507 96.5,196.5 Z"/></g>
<g><path style="opacity:1" fill="#737373" d="M 79.5,198.5 C 84.5517,197.005 89.5517,197.505 94.5,200C 94,200.167 93.5,200.333 93,200.5C 88.9878,198.894 84.8211,198.228 80.5,198.5C 80.1667,198.5 79.8333,198.5 79.5,198.5 Z"/></g>
<g><path style="opacity:1" fill="#aaaaaa" d="M 167.5,197.5 C 169.332,198.14 169.665,199.14 168.5,200.5C 167.614,199.675 167.281,198.675 167.5,197.5 Z"/></g>
<g><path style="opacity:1" fill="#2a2b2b" d="M 373.5,205.5 C 372.726,206.147 371.726,206.48 370.5,206.5C 364.232,204.042 363.899,205.042 369.5,209.5C 368.448,209.649 367.448,209.483 366.5,209C 362.59,204.406 362.59,199.739 366.5,195C 367.167,194.333 367.833,194.333 368.5,195C 364.763,201.093 366.43,204.593 373.5,205.5 Z"/></g>
<g><path style="opacity:1" fill="#555557" d="M 447.5,205.5 C 447.489,207.017 446.823,208.184 445.5,209C 441.741,210.607 438.074,210.774 434.5,209.5C 434.5,209.167 434.5,208.833 434.5,208.5C 439.316,209.161 443.649,208.161 447.5,205.5 Z"/></g>
<g><path style="opacity:1" fill="#bdbdbd" d="M 396.5,213.5 C 393.835,211.165 392.502,208.165 392.5,204.5C 393.268,205.263 393.768,206.263 394,207.5C 394.333,206.167 394.667,204.833 395,203.5C 397.686,206.464 398.186,209.797 396.5,213.5 Z"/></g>
<g><path style="opacity:1" fill="#0d0d0d" d="M 163.5,213.5 C 167.458,215.883 168.458,219.216 166.5,223.5C 164.833,223.5 163.167,223.5 161.5,223.5C 160.833,223.5 160.5,223.167 160.5,222.5C 160.336,219.813 160.503,217.146 161,214.5C 161.671,213.748 162.504,213.414 163.5,213.5 Z"/></g>
<g><path style="opacity:1" fill="#7a7a7a" d="M 165.5,211.5 C 164.833,212.167 164.167,212.833 163.5,213.5C 162.504,213.414 161.671,213.748 161,214.5C 160.503,217.146 160.336,219.813 160.5,222.5C 159.833,220.5 159.167,218.5 158.5,216.5C 159.243,212.664 161.576,210.997 165.5,211.5 Z"/></g>
<g><path style="opacity:1" fill="#e9e9e9" d="M 158.5,216.5 C 159.167,218.5 159.833,220.5 160.5,222.5C 160.5,223.167 160.833,223.5 161.5,223.5C 160.791,224.404 159.791,224.737 158.5,224.5C 158.5,223.833 158.167,223.5 157.5,223.5C 155.875,220.784 156.208,218.451 158.5,216.5 Z"/></g>
<g><path style="opacity:1" fill="#dcdcdc" d="M 655.5,222.5 C 655.167,223.167 654.833,223.833 654.5,224.5C 653.508,224.672 652.842,224.338 652.5,223.5C 653.453,220.21 653.619,216.877 653,213.5C 653.605,215.481 654.605,215.815 656,214.5C 656.722,217.261 656.555,219.927 655.5,222.5 Z"/></g>
<g><path style="opacity:1" fill="#060706" d="M 655.5,222.5 C 656.167,223.5 656.833,224.5 657.5,225.5C 700.337,225.168 743.003,225.501 785.5,226.5C 784.659,228.379 784.325,230.379 784.5,232.5C 533.5,232.5 282.5,232.5 31.5,232.5C 31.7845,230.585 31.4511,228.919 30.5,227.5C 30.5,226.833 30.5,226.167 30.5,225.5C 72.1667,225.5 113.833,225.5 155.5,225.5C 156.167,224.833 156.833,224.167 157.5,223.5C 158.167,223.5 158.5,223.833 158.5,224.5C 240.665,225.499 322.998,225.833 405.5,225.5C 406.5,225.5 407.5,225.5 408.5,225.5C 490.668,225.833 572.668,225.499 654.5,224.5C 654.833,223.833 655.167,223.167 655.5,222.5 Z"/></g>
<g><path style="opacity:1" fill="#868686" d="M 155.5,225.5 C 113.833,225.5 72.1667,225.5 30.5,225.5C 71.6633,224.501 112.997,224.168 154.5,224.5C 154.737,223.209 154.404,222.209 153.5,221.5C 154.21,219.254 154.71,216.92 155,214.5C 155.499,218.152 155.665,221.818 155.5,225.5 Z"/></g>
<g><path style="opacity:1" fill="#838383" d="M 161.5,223.5 C 163.167,223.5 164.833,223.5 166.5,223.5C 245.998,224.499 325.665,224.833 405.5,224.5C 405.5,224.833 405.5,225.167 405.5,225.5C 322.998,225.833 240.665,225.499 158.5,224.5C 159.791,224.737 160.791,224.404 161.5,223.5 Z"/></g>
<g><path style="opacity:1" fill="#858585" d="M 409.5,214.5 C 409.5,217.833 409.5,221.167 409.5,224.5C 488.668,224.833 567.668,224.499 646.5,223.5C 648.5,223.5 650.5,223.5 652.5,223.5C 652.842,224.338 653.508,224.672 654.5,224.5C 572.668,225.499 490.668,225.833 408.5,225.5C 408.185,221.629 408.518,217.962 409.5,214.5 Z"/></g>
<g><path style="opacity:1" fill="#888888" d="M 658.5,222.5 C 700.825,224.164 743.492,225.164 786.5,225.5C 786.376,226.107 786.043,226.44 785.5,226.5C 743.003,225.501 700.337,225.168 657.5,225.5C 657.263,224.209 657.596,223.209 658.5,222.5 Z"/></g>
<g><path style="opacity:1" fill="#cbcccc" d="M 30.5,227.5 C 31.4511,228.919 31.7845,230.585 31.5,232.5C 282.5,232.5 533.5,232.5 784.5,232.5C 533.431,233.167 282.264,233.834 31,234.5C 30.5034,232.19 30.3367,229.857 30.5,227.5 Z"/></g>
</svg>
