<?xml version="1.0" standalone="no"?>
<!DOCTYPE svg PUBLIC "-//W3C//DTD SVG 20010904//EN"
 "http://www.w3.org/TR/2001/REC-SVG-20010904/DTD/svg10.dtd">
<svg version="1.0" xmlns="http://www.w3.org/2000/svg"
 width="1024.000000pt" height="1024.000000pt" viewBox="0 0 1024.000000 1024.000000"
 preserveAspectRatio="xMidYMid meet">

<g transform="translate(0.000000,1024.000000) scale(0.100000,-0.100000)"
fill="#000000" stroke="none">
<path d="M5032 10081 c-76 -165 -100 -291 -71 -368 9 -26 7 -25 -29 13 -63 65
-142 94 -216 80 -43 -8 -45 -17 -8 -34 38 -16 66 -69 91 -169 20 -84 38 -126
73 -175 23 -33 16 -35 -22 -8 -16 11 -48 27 -71 35 -112 40 -249 -11 -249 -93
0 -19 4 -23 18 -16 9 4 35 9 57 12 36 3 44 -1 79 -35 21 -21 58 -67 81 -103
76 -118 149 -171 259 -188 58 -9 76 -3 52 17 -7 6 -26 39 -41 74 -49 109 -45
247 12 360 13 26 25 47 27 47 3 0 24 -37 49 -82 63 -117 80 -175 75 -258 -3
-58 -9 -77 -36 -115 -28 -40 -30 -46 -15 -52 9 -4 46 -1 81 5 80 13 120 43
184 138 84 123 102 146 138 170 40 28 69 30 110 9 29 -15 30 -15 30 6 0 34
-30 76 -74 100 -77 44 -198 25 -273 -43 l-22 -21 19 50 c10 28 26 90 35 139
26 140 56 190 130 218 19 8 19 9 -5 18 -37 15 -120 13 -161 -4 -19 -9 -51 -30
-71 -47 -20 -17 -37 -31 -39 -31 -2 0 -3 30 -1 67 3 67 2 71 -67 210 -39 78
-71 146 -71 152 0 31 -21 2 -58 -78z"/>
<path d="M5062 9473 c-27 -72 -32 -103 -32 -194 0 -107 22 -190 61 -224 23
-22 34 -14 68 50 25 47 28 142 7 201 -15 43 -86 194 -91 194 -1 0 -7 -12 -13
-27z"/>
<path d="M5038 8958 c-65 -67 -88 -108 -88 -159 0 -45 52 -94 110 -104 40 -7
42 -9 22 -16 -50 -19 -67 -135 -26 -180 24 -27 75 -25 102 4 17 18 22 36 22
76 0 45 -4 57 -29 82 l-29 29 26 5 c57 12 76 21 96 48 32 44 26 97 -19 163
-33 48 -102 114 -119 114 -3 0 -34 -28 -68 -62z"/>
<path d="M4470 8629 c-137 -24 -275 -123 -328 -237 -35 -74 -37 -176 -5 -237
46 -87 145 -153 244 -162 47 -5 66 -1 110 20 30 14 61 32 70 39 19 16 69 87
69 99 0 4 -19 2 -41 -6 -57 -20 -126 -18 -177 5 -33 15 -47 29 -62 62 -26 58
-25 94 6 157 81 162 404 204 530 69 l29 -31 -46 27 c-106 61 -226 19 -288
-101 l-11 -22 52 24 c29 14 71 27 94 31 84 12 183 -36 250 -124 l36 -47 -7 69
c-15 143 -52 214 -147 279 -109 75 -253 108 -378 86z"/>
<path d="M5595 8633 c-109 -16 -198 -56 -267 -121 -74 -69 -106 -143 -124
-287 l-6 -50 36 52 c89 128 223 169 350 105 31 -16 56 -26 56 -23 0 12 -38 67
-66 95 -61 60 -139 72 -218 32 l-48 -24 27 28 c80 84 272 102 403 39 156 -76
184 -265 50 -335 -32 -16 -135 -19 -174 -4 -15 6 -28 9 -30 7 -2 -2 9 -24 25
-49 82 -129 265 -141 394 -28 182 161 81 448 -189 538 -61 21 -167 33 -219 25z"/>
<path d="M5018 8428 c7 -9 26 -21 42 -28 35 -15 37 -21 10 -45 -27 -24 -25
-51 5 -71 33 -21 72 -11 87 22 11 24 9 29 -16 51 -16 13 -27 25 -25 27 2 1 18
8 36 15 18 7 37 19 43 26 9 11 3 11 -32 3 -40 -9 -109 -4 -147 10 -13 5 -14 3
-3 -10z"/>
<path d="M5060 8121 c-47 -15 -88 -40 -114 -72 -24 -28 -25 -34 -13 -53 19
-28 76 -66 111 -73 l28 -6 -31 -24 c-53 -42 -63 -137 -25 -229 18 -42 13 -55
-6 -19 -7 13 -31 37 -53 52 -36 25 -49 28 -122 28 -72 0 -86 -3 -123 -28 -23
-15 -42 -31 -42 -36 0 -5 25 -21 55 -35 80 -36 141 -84 175 -134 16 -24 30
-48 32 -53 2 -6 24 -1 48 10 62 28 187 29 249 1 24 -11 44 -20 46 -20 1 0 8
14 15 30 24 59 148 152 244 184 18 6 18 7 1 26 -79 88 -262 75 -335 -24 -14
-19 -26 -33 -28 -32 -1 2 6 23 17 47 19 44 24 77 22 153 -1 30 -8 46 -35 71
l-35 32 37 11 c41 13 102 63 102 85 0 61 -144 132 -220 108z"/>
<path d="M5084 7249 c-10 -11 -40 -36 -65 -55 -82 -60 -96 -151 -40 -269 40
-85 39 -95 -3 -51 -18 20 -49 43 -69 51 -35 14 -157 21 -169 9 -3 -3 19 -28
48 -56 62 -59 122 -169 126 -233 3 -38 2 -40 -28 -43 -27 -3 -38 4 -71 43
l-39 46 -19 -21 c-14 -16 -20 -40 -23 -88 -3 -59 0 -74 27 -125 17 -32 58 -96
91 -142 65 -90 139 -222 166 -295 9 -25 29 -94 44 -155 16 -60 31 -103 33 -95
3 8 15 60 27 115 44 198 93 305 229 493 108 151 132 236 89 315 -9 17 -14 15
-54 -27 -35 -37 -50 -46 -78 -46 -42 0 -49 16 -32 74 27 90 122 188 196 203
76 15 -4 39 -104 31 -58 -5 -109 -25 -164 -64 -21 -15 -20 -12 10 51 23 51 32
86 35 139 5 84 -12 120 -77 161 -23 14 -43 32 -47 40 -7 20 -16 19 -39 -6z
m46 -626 c14 -10 36 -30 49 -46 20 -23 26 -26 39 -15 13 11 14 11 7 -1 -4 -8
-12 -28 -16 -45 -7 -31 -7 -31 -8 -4 -1 36 -63 105 -101 113 -60 13 -138 -57
-141 -126 -1 -21 -2 -21 -6 -4 -3 11 -17 33 -31 49 -26 28 -14 28 19 0 13 -12
18 -9 32 21 31 65 107 93 157 58z"/>
<path d="M4230 7048 c-50 -34 -72 -71 -78 -127 -7 -73 4 -113 43 -158 l34 -40
-46 0 c-38 0 -50 -5 -70 -27 -22 -26 -40 -72 -31 -81 3 -3 30 0 61 6 116 24
248 -22 354 -123 36 -35 63 -56 60 -48 -39 101 -49 155 -45 248 5 111 25 168
78 219 27 27 30 33 17 39 -24 9 -81 -13 -107 -41 -26 -28 -42 -33 -34 -11 9
23 -31 101 -62 123 -34 23 -88 43 -119 43 -12 0 -37 -10 -55 -22z"/>
<path d="M5845 7051 c-22 -10 -51 -30 -63 -44 -28 -29 -45 -96 -36 -135 6 -24
3 -22 -24 14 -29 39 -83 74 -116 74 -23 0 -20 -13 8 -39 63 -59 91 -210 62
-334 -9 -38 -16 -70 -16 -73 0 -2 36 14 80 36 136 68 237 85 336 55 65 -20 63
-21 52 25 -6 24 -23 51 -41 66 -26 22 -38 25 -76 21 l-46 -5 28 20 c71 51 93
175 47 256 -44 78 -114 101 -195 63z"/>
<path d="M5470 6826 c0 -4 12 -25 27 -47 53 -81 40 -222 -31 -328 -19 -28 -30
-51 -25 -51 44 0 138 93 175 173 22 49 26 69 22 123 -3 56 -8 69 -35 96 -24
24 -42 32 -82 36 -28 2 -51 2 -51 -2z"/>
<path d="M4620 6807 c-76 -38 -78 -175 -5 -318 27 -52 106 -172 110 -167 2 2
-7 44 -21 93 -44 161 -31 301 35 359 16 15 18 22 10 33 -14 17 -95 17 -129 0z"/>
<path d="M5869 6460 c-121 -19 -210 -69 -319 -180 -128 -129 -201 -277 -220
-449 -12 -108 -8 -166 17 -243 23 -73 31 -65 16 15 -11 55 -12 92 -4 157 12
108 39 181 94 250 120 153 287 183 413 77 39 -33 44 -33 44 -4 0 56 -23 103
-73 151 l-52 49 75 -5 c84 -5 138 -28 184 -76 l28 -31 -21 -27 c-28 -35 -27
-56 5 -93 46 -55 135 -38 191 36 23 30 28 48 31 109 7 131 -42 209 -153 243
-77 24 -182 32 -256 21z"/>
<path d="M4062 6442 c-120 -43 -178 -164 -141 -297 14 -51 77 -112 124 -121
94 -17 152 70 89 133 l-26 26 23 19 c69 54 111 71 187 76 l76 5 -50 -49 c-49
-48 -64 -80 -64 -140 0 -30 5 -30 44 3 45 38 88 53 151 53 66 0 113 -18 171
-65 128 -105 188 -305 150 -499 -9 -44 -14 -81 -12 -83 2 -3 15 22 27 54 21
51 24 75 23 193 0 112 -4 148 -23 210 -66 216 -231 412 -396 471 -88 31 -279
37 -353 11z"/>
<path d="M4401 6027 c-34 -17 -45 -39 -37 -78 10 -55 19 -64 47 -46 65 41 153
27 210 -33 46 -49 63 -108 57 -207 -6 -106 -41 -176 -133 -268 -122 -122 -263
-179 -450 -179 -130 0 -239 22 -340 68 -85 40 -124 72 -166 137 -18 27 -35 49
-39 49 -11 0 -30 -49 -30 -78 0 -30 31 -85 63 -114 45 -40 126 -69 222 -81
104 -13 116 -27 24 -27 -79 0 -162 28 -241 83 -75 51 -116 63 -182 53 -56 -9
-102 -39 -139 -93 -38 -53 -32 -93 24 -157 31 -35 53 -50 95 -62 77 -22 121
-12 210 48 75 52 184 88 262 88 58 0 34 -16 -45 -29 -158 -27 -245 -81 -271
-169 -14 -46 -9 -74 18 -109 l17 -22 17 43 c32 85 148 167 283 201 325 82 688
18 808 -144 36 -49 52 -53 29 -8 -36 69 -91 132 -167 188 -43 33 -86 63 -95
69 -15 8 -12 13 18 36 86 67 171 164 205 237 94 197 79 424 -34 537 -69 69
-178 99 -240 67z"/>
<path d="M5605 6012 c-135 -65 -199 -210 -175 -398 24 -189 115 -333 273 -431
l58 -36 -70 -33 c-82 -38 -162 -108 -202 -179 -44 -77 -35 -82 27 -16 163 176
483 220 823 114 111 -35 189 -88 240 -164 l40 -60 16 30 c28 55 15 114 -38
169 -38 39 -113 64 -244 82 -51 7 -93 17 -93 21 0 17 49 21 119 10 94 -15 154
-36 223 -78 123 -76 252 -43 314 79 31 61 24 87 -40 146 -84 77 -193 78 -291
2 -92 -71 -254 -131 -307 -114 -30 9 -21 23 20 29 187 29 292 86 328 180 16
43 16 45 -6 79 -12 20 -26 36 -30 36 -5 0 -18 -20 -29 -44 -55 -126 -244 -220
-466 -232 -121 -7 -220 11 -315 58 -87 42 -224 179 -266 263 -26 54 -29 70
-29 161 0 94 2 104 30 149 17 26 46 56 65 66 48 26 129 25 163 -1 14 -11 27
-20 30 -20 9 0 28 58 29 89 1 45 -22 64 -84 68 -43 3 -64 -1 -113 -25z"/>
<path d="M3747 5826 c-49 -18 -64 -32 -89 -80 -16 -30 -21 -60 -21 -111 0
-128 31 -160 244 -250 75 -31 98 -33 64 -5 -14 12 -66 82 -142 194 -42 61 -43
89 -3 106 45 18 80 65 80 105 0 54 -52 70 -133 41z"/>
<path d="M6298 5830 c-39 -24 -10 -105 49 -137 60 -32 53 -74 -31 -180 -93
-118 -134 -180 -105 -157 8 6 46 24 84 39 193 76 225 111 225 244 0 81 -29
146 -77 174 -38 22 -122 32 -145 17z"/>
<path d="M4517 5801 c-37 -16 -37 -16 -30 -61 32 -196 -90 -322 -312 -324
-118 -1 -175 43 -175 134 0 34 6 48 32 72 37 34 28 48 -33 48 -67 0 -119 -65
-119 -148 0 -42 36 -102 85 -140 81 -64 241 -84 345 -42 111 44 235 153 280
244 26 54 27 147 2 195 -21 42 -26 44 -75 22z"/>
<path d="M5585 5796 c-23 -35 -30 -126 -15 -182 32 -112 176 -245 305 -279 95
-26 186 -17 273 26 91 46 132 100 132 172 0 86 -44 138 -116 140 -49 1 -64
-17 -35 -44 28 -26 41 -60 41 -106 0 -28 -8 -44 -38 -73 -113 -113 -350 -56
-435 105 -22 42 -30 152 -14 207 8 29 -2 39 -55 52 -22 5 -31 1 -43 -18z"/>
<path d="M5051 5615 c-17 -20 -31 -45 -31 -56 0 -16 -5 -18 -25 -13 -18 4 -32
1 -45 -11 -24 -21 -26 -55 -5 -55 18 0 105 -77 105 -93 0 -6 -11 0 -25 13 -31
29 -74 29 -115 0 -29 -21 -39 -40 -21 -40 21 0 135 -118 164 -169 l31 -54 18
43 c26 61 90 133 143 161 25 13 44 28 42 34 -2 5 -19 20 -38 33 -36 25 -70 23
-101 -5 -27 -24 -21 1 7 36 14 16 41 35 60 41 19 6 35 16 35 21 0 20 -42 49
-71 49 -16 0 -28 4 -25 8 6 10 -51 92 -64 92 -4 0 -22 -16 -39 -35z"/>
<path d="M4820 5217 c-19 -7 -52 -25 -73 -40 l-39 -26 47 -50 c77 -83 135 -89
253 -26 34 18 62 28 62 22 0 -13 -45 -92 -78 -135 -14 -18 -45 -44 -69 -58
-23 -14 -43 -30 -43 -34 0 -5 12 -18 26 -29 40 -31 86 -27 131 12 l37 32 -21
-35 c-13 -22 -39 -44 -72 -60 -28 -14 -51 -28 -51 -31 0 -19 39 -51 62 -51 19
0 28 -8 37 -34 7 -18 24 -43 38 -54 l26 -20 25 22 c30 28 55 75 47 88 -4 6 6
7 25 4 22 -5 36 -2 50 11 29 26 25 38 -22 60 -25 12 -50 35 -62 55 -19 34 -19
35 0 19 31 -26 61 -31 92 -15 55 29 57 41 10 69 -45 26 -102 94 -136 163 -11
22 -36 52 -54 66 -101 76 -181 100 -248 75z"/>
<path d="M5220 5194 c-45 -26 -100 -72 -100 -84 0 -13 159 -70 195 -70 45 0
69 12 117 58 l38 36 -37 30 c-55 47 -74 55 -123 56 -30 0 -60 -9 -90 -26z"/>
<path d="M5803 4999 c-157 -30 -294 -157 -343 -318 -43 -138 -20 -311 54 -397
77 -90 215 -127 272 -73 22 21 25 30 19 64 -9 59 -19 66 -62 44 -135 -69 -268
57 -248 235 10 89 48 160 135 246 152 152 331 190 472 101 89 -57 113 -165 49
-223 -37 -33 -32 -55 14 -64 42 -8 90 17 115 59 22 35 27 109 10 151 -14 38
-89 115 -133 138 -82 41 -246 59 -354 37z"/>
<path d="M4151 4989 c-169 -30 -276 -139 -256 -260 13 -77 88 -132 146 -108
36 14 36 20 -1 57 -26 27 -30 38 -30 86 0 47 4 60 31 90 47 54 124 79 226 74
69 -4 93 -10 156 -41 142 -70 250 -210 263 -343 18 -177 -106 -296 -246 -237
l-48 20 -11 -24 c-34 -74 6 -123 98 -123 105 1 191 63 232 167 31 80 37 224
14 313 -34 132 -128 249 -243 303 -55 26 -76 30 -170 33 -59 2 -131 -1 -161
-7z"/>
<path d="M6249 4903 c104 -124 154 -198 165 -246 6 -25 3 -29 -48 -51 -48 -22
-56 -29 -67 -66 -17 -58 -5 -74 57 -78 133 -8 221 124 184 278 -16 67 -45 89
-201 157 -68 29 -125 53 -127 53 -2 0 15 -21 37 -47z"/>
<path d="M3855 4896 c-188 -78 -209 -101 -210 -226 0 -118 46 -183 148 -211
61 -16 101 -2 105 38 5 50 -21 89 -73 108 -40 16 -45 21 -45 50 0 20 11 46 30
71 16 21 48 66 71 99 23 33 53 72 67 88 33 35 28 34 -93 -17z"/>
<path d="M5845 4826 c-183 -58 -295 -207 -265 -352 14 -67 25 -76 76 -63 21 6
40 12 41 13 2 2 -2 27 -7 57 -34 182 93 320 310 337 54 4 68 8 50 13 -41 12
-162 9 -205 -5z"/>
<path d="M4135 4816 c-29 -14 -29 -14 36 -15 136 -2 253 -62 301 -155 23 -44
30 -134 15 -192 -8 -31 -7 -32 39 -48 26 -9 49 -16 51 -16 1 0 9 13 18 30 21
41 19 145 -4 196 -26 58 -113 139 -189 176 -54 27 -78 32 -151 35 -60 2 -95
-1 -116 -11z"/>
<path d="M5359 4668 c-22 -48 -24 -67 -24 -193 0 -119 4 -150 23 -209 57 -171
157 -304 316 -424 85 -63 138 -77 291 -77 220 0 314 71 315 237 0 80 -11 112
-52 155 -55 57 -133 67 -174 22 -25 -28 -24 -91 1 -119 l20 -22 -30 -25 c-54
-43 -105 -64 -174 -70 -82 -7 -95 5 -43 38 44 29 82 98 82 151 0 21 -3 38 -6
38 -3 0 -26 -17 -50 -39 -99 -87 -230 -77 -344 25 -119 108 -172 293 -136 474
10 45 15 84 13 86 -2 3 -15 -19 -28 -48z"/>
<path d="M4784 4695 c21 -82 26 -121 26 -195 0 -147 -35 -244 -124 -338 -111
-119 -249 -135 -351 -41 -23 21 -46 39 -50 39 -12 0 3 -88 22 -127 9 -19 34
-48 56 -64 l39 -28 -26 -7 c-48 -12 -147 13 -203 52 -29 20 -53 40 -53 44 0 4
9 15 19 24 43 39 28 113 -29 136 -58 24 -137 -18 -177 -93 -24 -46 -22 -149 4
-208 51 -113 218 -164 413 -125 110 22 171 59 271 164 89 94 148 187 187 294
25 68 27 85 27 233 0 156 -1 161 -28 210 -15 28 -25 41 -23 30z"/>
<path d="M5097 4470 c-3 -8 -13 -49 -23 -90 -38 -165 -96 -294 -207 -460 -100
-148 -127 -240 -96 -329 13 -36 25 -40 34 -11 10 31 54 60 93 60 33 0 34 -1
28 -31 -16 -84 -142 -269 -182 -269 -8 0 -14 -4 -14 -9 0 -25 136 -28 183 -5
18 9 47 30 65 47 17 17 32 28 32 25 0 -3 -14 -35 -30 -71 -36 -76 -47 -150
-31 -200 8 -23 37 -58 86 -101 65 -59 74 -64 80 -47 3 11 25 30 47 43 68 38
83 67 83 161 0 72 -4 91 -32 150 l-32 68 29 -21 c58 -41 113 -60 182 -60 37 0
79 5 95 11 l28 12 -42 9 c-53 11 -143 90 -172 151 -27 56 -28 113 -2 122 34
10 70 -6 105 -48 19 -23 38 -38 43 -34 4 5 9 39 11 77 4 61 0 77 -25 132 -17
35 -60 104 -96 153 -107 144 -165 275 -212 480 -13 55 -25 93 -28 85z m-130
-753 c-8 -12 -30 -31 -48 -41 -33 -18 -33 -18 9 21 23 22 42 46 43 54 0 11 2
11 6 1 3 -7 -2 -23 -10 -35z m280 -29 c20 -23 6 -24 -19 -1 -10 9 -18 28 -17
42 l0 26 10 -25 c6 -13 17 -33 26 -42z m-212 -54 c42 -27 89 -23 127 12 18 16
26 20 18 9 -48 -68 -104 -74 -161 -16 -22 21 -39 47 -39 57 1 13 5 8 15 -13 7
-17 26 -39 40 -49z"/>
<path d="M4770 3933 c0 -5 -32 -41 -70 -79 -101 -99 -139 -157 -152 -236 -10
-57 -9 -72 6 -112 23 -60 53 -80 107 -73 59 8 66 19 36 59 -32 42 -50 119 -42
178 7 49 41 123 94 208 19 29 31 55 28 59 -4 3 -7 2 -7 -4z"/>
<path d="M5470 3892 c0 -11 13 -63 30 -116 50 -164 49 -230 -4 -309 -20 -30
-22 -36 -9 -41 51 -20 123 8 146 57 37 78 16 158 -84 318 -68 108 -79 121 -79
91z"/>
<path d="M5593 3820 c51 -66 77 -117 94 -184 14 -57 15 -79 5 -142 -13 -82
-50 -164 -84 -188 l-22 -16 29 0 c34 0 77 26 112 67 l24 28 -5 -31 c-13 -82
43 -160 135 -186 51 -14 54 -14 97 10 99 56 113 219 26 312 l-23 25 44 0 c53
1 90 30 105 84 5 19 8 36 7 37 -2 2 -21 -3 -42 -11 -77 -27 -190 -14 -283 34
-23 12 -80 54 -125 93 -118 103 -126 108 -94 68z"/>
<path d="M4492 3750 c-73 -83 -172 -132 -280 -138 -57 -3 -87 0 -116 12 -22 9
-41 14 -44 12 -11 -11 22 -78 51 -102 27 -23 38 -26 84 -22 55 5 57 1 22 -37
-32 -36 -62 -117 -62 -170 0 -59 20 -102 63 -139 42 -34 73 -41 123 -26 86 26
127 79 127 165 l0 47 39 -35 c37 -33 104 -58 118 -44 3 3 -11 21 -31 40 -43
41 -82 122 -97 200 -12 69 1 154 37 235 13 30 23 56 21 58 -2 2 -27 -23 -55
-56z"/>
<path d="M4920 2776 c0 -33 -100 -123 -177 -161 -43 -21 -80 -40 -82 -41 -8
-7 24 -36 59 -54 96 -49 188 -34 266 44 l51 52 -19 -44 c-44 -99 -31 -203 31
-240 l30 -18 -43 -12 c-42 -11 -116 -68 -116 -90 0 -20 52 -73 91 -92 45 -23
125 -26 172 -6 37 15 97 73 97 94 0 25 -69 81 -117 95 l-47 14 31 11 c18 6 38
23 47 41 22 42 20 130 -4 193 l-20 52 31 -37 c45 -55 102 -81 174 -81 65 1 94
12 138 52 l27 26 -81 42 c-88 46 -129 80 -161 134 -12 19 -23 37 -24 39 -2 2
-25 -7 -51 -20 -66 -33 -179 -33 -241 -1 -50 26 -62 27 -62 8z"/>
<path d="M4331 2224 c-69 -18 -111 -44 -159 -99 -112 -128 -70 -327 95 -445
148 -106 347 -119 515 -34 71 36 152 115 176 173 20 45 47 209 37 219 -3 3 -5
0 -5 -7 0 -16 -86 -107 -124 -131 -77 -47 -181 -45 -258 5 -46 31 -52 31 -37
3 65 -125 173 -167 283 -112 l51 26 -29 -31 c-53 -55 -117 -76 -237 -76 -101
0 -109 1 -175 35 -89 45 -126 96 -132 177 -3 48 0 64 20 93 38 57 78 72 181
67 48 -3 87 -1 87 2 0 25 -68 93 -113 115 -70 33 -111 37 -176 20z"/>
<path d="M5747 2226 c-54 -15 -111 -56 -144 -106 -30 -43 -29 -52 3 -40 37 14
140 12 177 -4 18 -7 43 -26 57 -41 22 -23 25 -36 25 -94 0 -57 -4 -74 -28
-109 -90 -136 -350 -166 -493 -57 -19 14 -34 31 -34 37 0 7 7 5 18 -4 78 -65
197 -43 267 50 51 66 45 76 -23 40 -128 -65 -242 -30 -345 107 l-30 40 7 -66
c12 -122 52 -208 128 -273 148 -129 368 -152 550 -60 68 34 153 120 183 186
19 41 25 69 25 123 0 88 -21 136 -84 193 -80 74 -171 101 -259 78z"/>
<path d="M5061 1914 c-23 -29 -17 -52 20 -78 20 -14 19 -15 -25 -35 -52 -23
-64 -46 -15 -29 17 6 60 8 97 5 l67 -5 -24 19 c-13 10 -31 19 -40 19 -30 0
-30 10 0 40 35 34 36 54 7 74 -33 23 -64 19 -87 -10z"/>
<path d="M5055 1705 c-29 -29 -34 -98 -10 -144 40 -77 123 -41 133 58 4 46 2
53 -26 81 -37 36 -65 38 -97 5z"/>
<path d="M5014 1466 c-50 -23 -77 -64 -71 -112 4 -42 60 -139 102 -178 l24
-22 -58 4 c-94 7 -145 -28 -231 -158 -102 -154 -152 -185 -230 -145 -27 14
-30 14 -30 -1 0 -35 32 -82 72 -104 76 -42 207 -22 275 42 26 25 29 19 9 -20
-7 -15 -26 -79 -40 -142 -15 -62 -36 -128 -47 -146 -21 -35 -59 -64 -84 -64
-23 0 -18 -18 8 -26 71 -23 174 6 240 68 29 28 36 31 30 15 -4 -12 -8 -48 -7
-80 0 -50 8 -72 56 -165 30 -59 61 -125 68 -147 7 -22 15 -43 19 -47 8 -9 84
149 112 231 26 74 33 148 20 195 l-10 39 37 -36 c64 -62 155 -91 230 -71 29 8
28 16 -7 36 -42 24 -61 58 -88 161 -13 50 -37 115 -53 144 -17 29 -30 55 -30
57 0 3 27 -9 60 -26 79 -41 150 -48 213 -20 47 21 87 69 87 105 0 16 -2 16
-30 2 -71 -37 -125 -6 -210 120 -54 80 -104 128 -155 149 -70 29 -175 32 -175
5 0 -6 11 -25 24 -42 89 -116 87 -245 -5 -388 l-32 -50 -54 101 c-43 79 -56
115 -60 159 -10 107 42 200 142 254 30 17 51 41 83 97 37 65 43 81 39 119 -3
29 -13 52 -30 69 -22 22 -36 26 -104 29 -53 2 -88 -1 -109 -11z"/>
<path d="M5051 1064 c-57 -87 -55 -165 10 -291 23 -45 46 -83 49 -83 4 0 23
35 43 78 47 99 50 169 11 252 -28 61 -51 90 -70 90 -6 0 -26 -21 -43 -46z"/>
</g>
</svg>
