<svg xmlns="http://www.w3.org/2000/svg" version="1.1" viewBox="0 0 1024 1024">
<path d="M0 0 C337.92 0 675.84 0 1024 0 C1024 337.92 1024 675.84 1024 1024 C686.08 1024 348.16 1024 0 1024 C0 686.08 0 348.16 0 0 Z " fill="#FCFCFD" transform="translate(0,0)"/>
<path d="M0 0 C-1.44159908 4.43882204 -3.88735144 7.5036418 -6.9375 10.9375 C-10.88537058 15.4773887 -14.65739877 20.09707222 -18.3125 24.875 C-24.37726211 32.71848101 -31.11672528 39.87513623 -38 47 C-38.50063965 47.52255371 -39.0012793 48.04510742 -39.51708984 48.58349609 C-51.16733436 60.71039569 -64.34569263 70.29332817 -78 80 C-77.08863281 79.5153125 -76.17726563 79.030625 -75.23828125 78.53125 C-52.00539705 66.41279694 -22.74856541 54.54098734 4 56 C3.04480299 64.52096383 -5.56933596 71.06527469 -11.84375 76.34375 C-23.45206828 85.26028433 -34.95804313 89.29350058 -49.1875 92.1875 C-50.41919922 92.44724609 -51.65089844 92.70699219 -52.91992188 92.97460938 C-75.82013034 97.75217308 -75.82013034 97.75217308 -82.0625 94.3125 C-84.37645346 91.55068458 -84.1788055 90.47805529 -84 87 C-85.01707031 87.8353125 -85.01707031 87.8353125 -86.0546875 88.6875 C-90.69704202 92.49397351 -95.34838099 96.28266609 -100.0625 100 C-108.49913459 106.76248992 -116.21916504 114.12816579 -123.875 121.75 C-124.98210327 122.85009399 -124.98210327 122.85009399 -126.11157227 123.97241211 C-129.63081972 127.50214431 -132.99741185 131.00702937 -136 135 C-135.46745605 134.80889648 -134.93491211 134.61779297 -134.38623047 134.42089844 C-111.9748297 126.40545878 -89.25486256 120.08640987 -65.75 116.125 C-64.68894043 115.94505493 -64.68894043 115.94505493 -63.60644531 115.76147461 C-59.70279164 115.14347565 -55.94990704 114.88959887 -52 115 C-53.30350272 118.95103155 -54.63729293 120.92609462 -57.9375 123.4375 C-58.82308594 124.11554688 -59.70867187 124.79359375 -60.62109375 125.4921875 C-61.7464091 126.32945284 -62.87283756 127.16522295 -64 128 C-64.71559082 128.53399414 -65.43118164 129.06798828 -66.16845703 129.61816406 C-71.05436507 133.26117451 -75.96551673 136.86766446 -80.89306641 140.45410156 C-82.57250677 141.68633984 -84.23301658 142.94436723 -85.88671875 144.2109375 C-99.92020321 154.74200734 -119.97544571 162.07154758 -137.6015625 161.5078125 C-142.00031343 160.85052788 -145.35633083 159.37809196 -149.14453125 157.09375 C-150.92818151 155.83072917 -150.92818151 155.83072917 -153 156 C-158.8158337 163.14591226 -163.50034665 171.3151301 -168.25 179.1875 C-168.74483887 180.00573242 -169.23967773 180.82396484 -169.74951172 181.66699219 C-173.11600227 187.31437338 -176.13651624 193.08249947 -179 199 C-177.90945312 197.85724609 -177.90945312 197.85724609 -176.796875 196.69140625 C-155.88651956 175.07794538 -127.08372262 161.28500419 -97 158 C-95.00019649 157.97196537 -92.99968865 157.96471138 -91 158 C-91.59007127 161.35355637 -92.66722113 163.07729357 -94.9921875 165.5390625 C-95.91729126 166.52567871 -95.91729126 166.52567871 -96.86108398 167.53222656 C-97.52567627 168.2228418 -98.19026855 168.91345703 -98.875 169.625 C-99.55828369 170.34139648 -100.24156738 171.05779297 -100.94555664 171.79589844 C-119.04404421 190.61815571 -153.41240558 222.07956856 -181.25 223.4375 C-185.1424472 222.98338116 -187.65880297 222.00471822 -191 220 C-191.25136719 220.79535156 -191.50273437 221.59070313 -191.76171875 222.41015625 C-193.28406011 226.8235055 -195.04819976 231.11652938 -196.8125 235.4375 C-202.29764771 249.04879248 -206.6406321 262.71799457 -210 277 C-205.43969243 275.0262318 -202.97954195 273.22486117 -200.1875 269.125 C-199.51074219 268.15175781 -198.83398438 267.17851562 -198.13671875 266.17578125 C-197.0540246 264.56658501 -195.97144219 262.95730815 -194.89306641 261.34521484 C-182.44221828 242.75822514 -168.47118588 233.24038041 -146.75 228.25390625 C-142.12835083 227.34339113 -137.72832965 226.74441461 -133 227 C-134.43389908 236.26684032 -145.9551849 245.30065313 -152.234375 252.01171875 C-154.35522467 254.28476557 -156.38392158 256.61171149 -158.375 259 C-165.93071018 267.66899114 -174.71200613 275.29271595 -183.9375 282.125 C-184.53949219 282.57399658 -185.14148438 283.02299316 -185.76171875 283.4855957 C-191.17259154 287.38438692 -196.42223897 290.47682667 -203.3125 290.1875 C-204.15425781 290.16042969 -204.99601562 290.13335937 -205.86328125 290.10546875 C-206.92095703 290.05326172 -206.92095703 290.05326172 -208 290 C-208.66 290 -209.32 290 -210 290 C-209.9175 291.258125 -209.835 292.51625 -209.75 293.8125 C-209.74309024 297.71651337 -209.74309024 297.71651337 -211.8125 300 C-214 301 -214 301 -217 301 C-219.78948562 320.29686453 -222.56442581 339.5447558 -224 359 C-223.34 359 -222.68 359 -222 359 C-221.65775391 358.05060547 -221.65775391 358.05060547 -221.30859375 357.08203125 C-209.22251053 328.61659944 -184.72271548 292.12148117 -157 277 C-156.34 277 -155.68 277 -155 277 C-157.15418276 305.36846305 -168.98653464 329.43964795 -188.9152832 349.12109375 C-190.43697015 350.62447652 -191.95045323 352.13575534 -193.46289062 353.6484375 C-212.79988706 372.91516137 -212.79988706 372.91516137 -219.68359375 373.09765625 C-220.77800781 373.06542969 -221.87242187 373.03320312 -223 373 C-221.81403501 395.95999303 -219.20978244 418.37521845 -215 441 C-214.87995605 440.38705078 -214.75991211 439.77410156 -214.63623047 439.14257812 C-208.03799414 405.94655942 -194.04012458 376.58139543 -165.66796875 356.3359375 C-160.4963338 353 -160.4963338 353 -158 353 C-157.37447395 361.75736474 -159.66390954 369.64945443 -162 378 C-162.21430664 378.78906738 -162.42861328 379.57813477 -162.64941406 380.39111328 C-166.03841686 392.80019122 -170.3397944 404.44734753 -176 416 C-176.32226562 416.65838867 -176.64453125 417.31677734 -176.9765625 417.99511719 C-184.59360915 433.32984221 -193.97116466 449.72764619 -208 460 C-208.66 460 -209.32 460 -210 460 C-204.8508375 478.77545133 -198.82187623 497.15325076 -191 515 C-191.0721875 514.34257813 -191.144375 513.68515625 -191.21875 513.0078125 C-193.926163 485.25682922 -189.22977572 458.34563113 -171.5 436 C-161.03499606 423.93192316 -161.03499606 423.93192316 -153 423 C-152.38334678 456.19649821 -153.34084992 505.04500333 -177.7421875 530.90625 C-178.85980469 531.94265625 -178.85980469 531.94265625 -180 533 C-178.07535785 539.26724833 -175.02259595 544.45465276 -171.6875 550.0625 C-171.11837891 551.04283203 -170.54925781 552.02316406 -169.96289062 553.03320312 C-167.0405395 557.97536525 -164.25471773 562.0827254 -160 566 C-158.97384581 567.40434369 -157.99036454 568.84136404 -157.0625 570.3125 C-154.23075756 574.69618441 -151.17879143 578.86306222 -148 583 C-148.14427444 581.0415512 -148.29051838 579.08324748 -148.4375 577.125 C-148.51871094 576.03445313 -148.59992188 574.94390625 -148.68359375 573.8203125 C-148.8473181 571.84349263 -149.01600497 569.866263 -149.25170898 567.89672852 C-150.11045788 560.55685591 -150.18613495 553.2398602 -150.18530273 545.8605957 C-150.18748556 543.70178378 -150.20569692 541.54348748 -150.22460938 539.38476562 C-150.27180531 527.84775186 -149.6189432 516.70755015 -145 506 C-141 506 -141 506 -139.5078125 507.40625 C-136.25212234 512.33576956 -133.85769643 517.37802329 -131.75 522.875 C-131.5039502 523.50986328 -131.25790039 524.14472656 -131.00439453 524.79882812 C-127.12193006 535.46287823 -126.63127249 546.11236454 -126.6875 557.375 C-126.68832581 558.0736618 -126.68915161 558.77232361 -126.69000244 559.49215698 C-126.7254521 572.56617588 -126.93765663 586.31735584 -131.328125 598.765625 C-132.36083445 601.97444203 -132.36083445 601.97444203 -130.6484375 604.44921875 C-129.52308594 605.55716797 -129.52308594 605.55716797 -128.375 606.6875 C-127.53453125 607.53570313 -126.6940625 608.38390625 -125.828125 609.2578125 C-124.42820312 610.61519531 -124.42820312 610.61519531 -123 612 C-122.03296376 612.994008 -121.0694822 613.99148517 -120.109375 614.9921875 C-114.5860858 620.70492989 -108.86066211 625.92078669 -102.62890625 630.8671875 C-100.0899645 632.92701246 -97.70412166 635.08457865 -95.3125 637.3125 C-88.63724233 643.41435628 -81.28483652 648.6583891 -74 654 C-74.82951257 652.23970968 -75.65906167 650.47943656 -76.48876953 648.71923828 C-77.21403292 647.17801235 -77.9376246 645.63599881 -78.65966797 644.09326172 C-80.36817393 640.44561269 -82.08560236 636.8060409 -83.87890625 633.19921875 C-92.92779814 614.67631924 -98.86259167 594.73414792 -98 574 C-97.01 573.67 -96.02 573.34 -95 573 C-78.23816407 581.51931844 -67.55405163 598.59918282 -61.68798828 615.86572266 C-58.01924972 627.24688394 -55.90277562 637.96922255 -55.66381836 649.953125 C-55.88251079 660.80089955 -55.88251079 660.80089955 -51.7890625 670.40625 C-48.78654827 672.61464838 -45.95787448 674.18311589 -42.58789062 675.73046875 C-39.48594615 677.25217736 -36.58781482 679.00922825 -33.640625 680.8125 C-3.51271872 699.22953702 27.93160528 715.16229226 61.4375 726.4375 C62.18001007 726.68930023 62.92252014 726.94110046 63.68753052 727.20053101 C81.97300663 733.58159173 81.97300663 733.58159173 101 736 C99.83597656 735.12601563 99.83597656 735.12601563 98.6484375 734.234375 C86.76718965 725.24482005 75.57770992 715.5558394 64.65234375 705.43359375 C62.53177714 703.48791923 60.38466194 701.60695622 58.1875 699.75 C54.08918444 696.18662247 50.2344223 692.38034276 46.375 688.5625 C45.74102295 687.94149414 45.1070459 687.32048828 44.45385742 686.68066406 C40.22795998 682.46305161 36.1836823 678.07662275 33 673 C33 672.34 33 671.68 33 671 C53.83681818 669.01343895 71.30267395 681.36531452 86.625 693.96484375 C97.71820055 703.20868907 104.94406527 711.83361454 111 725 C111.41507812 725.89976562 111.83015625 726.79953125 112.2578125 727.7265625 C113.93790678 731.44766021 115.49388025 735.20510439 117 739 C119.7302389 739.1083667 122.45614543 739.18746694 125.1875 739.25 C125.95642578 739.28351562 126.72535156 739.31703125 127.51757812 739.3515625 C131.15844422 739.41406664 133.48708901 739.26078995 136.7734375 737.58984375 C139.96180819 733.88126521 141.59535009 729.81077303 143.4375 725.3125 C147.42932114 715.67582511 151.92151325 707.23339722 159.8125 700.25 C160.36454102 699.75467773 160.91658203 699.25935547 161.48535156 698.74902344 C176.65995088 685.35079908 194.61134412 670.33193276 216.0625 670.875 C217.00222656 670.89304687 217.94195313 670.91109375 218.91015625 670.9296875 C219.94462891 670.96449219 219.94462891 670.96449219 221 671 C220.42534633 674.84508497 218.70722006 676.76868998 216.09765625 679.58203125 C214.8758667 680.90001709 214.8758667 680.90001709 213.62939453 682.24462891 C209.29338763 686.78837765 204.88815992 691.25617677 200.4375 695.6875 C199.54353516 696.58533203 198.64957031 697.48316406 197.72851562 698.40820312 C192.64736957 703.48191517 187.4665868 708.34592524 182 713 C180.87022925 713.98468609 179.7412933 714.97033096 178.61328125 715.95703125 C172.25366913 721.47185908 165.81081951 726.81099522 159.0871582 731.87817383 C156.93166729 733.50273546 154.9119231 735.0880769 153 737 C202.99916752 726.57933182 249.1480927 705.7411135 291.71875 677.68359375 C294.34787541 675.97080275 296.8821605 674.54399527 299.78125 673.34765625 C303.59615077 671.56282768 305.53090904 670.44492655 308 667 C309.78343696 659.80157506 309.69441103 652.28823166 309.87695312 644.91308594 C310.12337592 639.07912413 311.47069224 633.62519291 313 628 C313.16338867 627.35192383 313.32677734 626.70384766 313.49511719 626.03613281 C318.5393346 606.07371234 327.31978523 588.78467872 344 576 C347.1171875 574.18359375 347.1171875 574.18359375 350 573 C350.99 573.33 351.98 573.66 353 574 C353.11200727 579.98944149 352.83341371 585.60109299 351.8125 591.5 C351.6786792 592.27408203 351.5448584 593.04816406 351.40698242 593.84570312 C347.50675999 615.24369226 338.36466548 634.04609786 328 653 C334.78650283 648.84392462 340.74164128 643.95885983 346.75 638.78125 C349.57319404 636.34906171 352.46160362 634.01128045 355.375 631.6875 C372.16263944 618.22001821 372.16263944 618.22001821 386 602 C385.76009804 598.73727733 385.76009804 598.73727733 385 595 C379.98690421 567.32586674 377.0653318 533.32648385 393.3125 508.6875 C394.19528683 507.44893007 395.08590731 506.21564905 396 505 C397.8984375 505.26171875 397.8984375 505.26171875 400 506 C406.13236598 516.32690431 405.32209952 531.16766512 405.26074219 542.77954102 C405.25009394 545.16644147 405.26065637 547.55257648 405.2734375 549.93945312 C405.29661349 576.40677302 405.29661349 576.40677302 402 583 C402.66 583 403.32 583 404 583 C404.25265625 582.28585937 404.5053125 581.57171875 404.765625 580.8359375 C406.10977816 577.74778814 407.74921664 575.33148602 409.75 572.625 C410.40484375 571.73039063 411.0596875 570.83578125 411.734375 569.9140625 C413.37513608 567.80370428 415.01703624 565.88121597 416.80859375 563.9140625 C421.05518106 559.00734219 424.10413609 553.36379342 427.3125 547.75 C427.94478516 546.66203125 428.57707031 545.5740625 429.22851562 544.453125 C432.51350577 538.91085118 432.51350577 538.91085118 435 533 C434.26652344 532.33355469 433.53304687 531.66710937 432.77734375 530.98046875 C429.61831062 527.80809229 427.61700559 524.26270223 425.5625 520.3125 C424.98109253 519.19862915 424.98109253 519.19862915 424.38793945 518.06225586 C409.62610623 488.86622189 407.26525908 455.12890159 408 423 C413.92432763 423 416.74863067 426.09998351 421 430 C437.17317813 447.08348835 446.01662547 471.05326114 446.125 494.3125 C446.12967285 494.98716309 446.1343457 495.66182617 446.13916016 496.35693359 C446.1200035 502.60053006 445.57425194 508.78591381 445 515 C456.42393597 488.12291654 456.42393597 488.12291654 464 460 C463.319375 459.814375 462.63875 459.62875 461.9375 459.4375 C440.08529881 448.74386963 426.34249309 410.63680969 418.99609375 389.28125 C410.71229735 364.37271657 410.71229735 364.37271657 411 353 C425.43810034 355.58979378 440.78186524 375.77342857 448.97387695 387.42626953 C459.33860124 402.74631159 466.20551251 419.69756638 467.75830078 438.25439453 C467.82464306 440.02579062 467.82464306 440.02579062 469 441 C469.11069824 440.33057373 469.22139648 439.66114746 469.33544922 438.97143555 C469.84773876 435.87664162 470.36136321 432.7820706 470.875 429.6875 C471.04902344 428.63498047 471.22304688 427.58246094 471.40234375 426.49804688 C471.57636719 425.45068359 471.75039063 424.40332031 471.9296875 423.32421875 C472.10612793 422.2571167 472.28256836 421.19001465 472.46435547 420.09057617 C472.79643539 418.17453256 473.15063799 416.26201017 473.53955078 414.35668945 C475.25628243 405.90206661 475.66988352 397.40491346 476.125 388.8125 C476.21161391 387.27275114 476.29884916 385.73303709 476.38671875 384.19335938 C476.59829885 380.46261307 476.80150746 376.73146824 477 373 C475.81921875 373.10828125 474.6384375 373.2165625 473.421875 373.328125 C468.28538597 373.31457226 465.85772549 371.17395254 462.25 367.75 C461.35873413 366.94550415 461.35873413 366.94550415 460.44946289 366.12475586 C454.42648024 360.62871412 448.68708858 354.83964833 443 349 C440.71717832 346.6931847 438.44310323 344.40330354 436.04296875 342.21875 C422.43487604 329.61335885 417.38919038 312.32572496 412.6875 294.9375 C412.32534807 293.63333063 411.96271951 292.32929353 411.59960938 291.02539062 C409 281.5231994 409 281.5231994 409 277 C424.93188039 279.62077952 442.9486085 305.10251466 451.94140625 317.546875 C460.93395776 330.43746033 468.87971806 343.9960618 476 358 C476.27918194 348.524358 475.56085344 339.37011821 474.40087891 329.98730469 C474.12376093 327.73995148 473.85987632 325.49132278 473.59765625 323.2421875 C472.39849353 312.50578316 472.39849353 312.50578316 470 302 C467.06550592 299.98958997 467.06550592 299.98958997 464 299 C462.63047327 296.26094655 462.87378639 294.02912668 463 291 C463.33 290.34 463.66 289.68 464 289 C463.360625 289.350625 462.72125 289.70125 462.0625 290.0625 C456.65838065 291.71682225 452.35690544 291.05154243 447.20703125 288.75390625 C438.92934099 284.19406895 431.98792986 278.28234848 425 272 C424.44103027 271.50274414 423.88206055 271.00548828 423.30615234 270.49316406 C416.06456855 264.03540946 409.37379447 257.32809641 403 250 C401.48084386 248.33180444 399.95999551 246.66514841 398.4375 245 C386 231.13919454 386 231.13919454 386 227 C404.65318818 227.07582597 423.69362175 234.17155272 437.23046875 246.953125 C442.16257504 252.12560787 445.94513252 258.26243768 449.83984375 264.22509766 C451.29336 266.44880622 452.7747786 268.6460748 454.3125 270.8125 C454.70050781 271.37582031 455.08851563 271.93914062 455.48828125 272.51953125 C457.67869675 274.66466684 460.23572473 275.73033977 463 277 C459.17002051 257.76975335 453.00840131 238.4515696 444 221 C443.360625 221.33 442.72125 221.66 442.0625 222 C433.36828947 224.83892589 426.92926887 222.17419136 419.0625 218.1875 C418.05977051 217.69193604 417.05704102 217.19637207 416.02392578 216.68579102 C401.70304769 209.48896416 388.36395959 201.20541513 376 191 C375.17387207 190.32614258 375.17387207 190.32614258 374.33105469 189.63867188 C350.36858217 170.00446362 350.36858217 170.00446362 344 160 C344 159.34 344 158.68 344 158 C369.42076381 158.50202586 400.00255227 168.86378871 419 186 C419.886875 186.79148437 420.77375 187.58296875 421.6875 188.3984375 C423.39156004 189.92911934 425.08788464 191.46849319 426.7734375 193.01953125 C428.78111323 194.80530597 430.8417251 196.40380535 433 198 C424.544314 183.56791865 415.94550879 169.4644039 406 156 C405.40832031 156.29648437 404.81664062 156.59296875 404.20703125 156.8984375 C391.29992609 163.34056786 380.19379584 161.864416 366.875 157.4375 C352.9765378 152.58095941 341.76831422 146.10779861 330.1484375 137.1328125 C325.36338888 133.46374381 320.37241952 130.11033832 315.31518555 126.82910156 C311.07270138 124.0026061 308.01206079 121.13510449 305 117 C305 116.34 305 115.68 305 115 C313.53742929 115.58637392 321.84982577 116.88748327 330.25 118.5 C330.91053375 118.62638855 331.5710675 118.7527771 332.25161743 118.88299561 C351.92452712 122.69160279 371.04069783 128.55588786 390 135 C377.68713127 121.40310772 365.3137407 108.25090303 350.60595703 97.21679688 C348.07303945 95.29766321 345.60087881 93.30434625 343.125 91.3125 C342.32320312 90.66925781 341.52140625 90.02601563 340.6953125 89.36328125 C340.13585937 88.91339844 339.57640625 88.46351563 339 88 C338.34 88.99 337.68 89.98 337 91 C332.40445587 95.88276564 332.40445587 95.88276564 328.671875 96.19433594 C320.46989579 96.30672937 312.98028131 95.06211628 305 93.25 C303.22882813 92.87101562 303.22882813 92.87101562 301.421875 92.484375 C280.37736876 87.8490212 261.40936994 78.43156418 249 60 C249 58.68 249 57.36 249 56 C276.67570346 57.1250286 307.44793693 66.43727398 331 81 C329.70219012 79.70219012 328.26546112 78.68595716 326.7890625 77.59375 C303.43254572 60.24757912 282.65202214 41.30476031 264.33886719 18.65234375 C263.37074005 17.45754352 262.3996604 16.26513365 261.42675781 15.07421875 C259.75884916 13.03251898 258.09763921 10.98551991 256.4375 8.9375 C255.90036377 8.28193115 255.36322754 7.6263623 254.80981445 6.95092773 C251 2.22784828 251 2.22784828 251 0 C258.71079818 1.85561428 265.73577306 4.36789002 272.875 7.8125 C274.35069458 8.52176636 274.35069458 8.52176636 275.85620117 9.24536133 C290.21417935 16.35605561 303.90774226 25.47235971 316 36 C316.81082031 36.67933594 317.62164063 37.35867187 318.45703125 38.05859375 C333.48132577 51.00579686 342.60077484 66.35388691 349.59204102 84.62866211 C352.04544382 90.74801598 355.02016043 94.70243182 360 99 C360.68707031 99.62648438 361.37414062 100.25296875 362.08203125 100.8984375 C362.93861328 101.62933594 362.93861328 101.62933594 363.8125 102.375 C364.81990234 103.24898437 364.81990234 103.24898437 365.84765625 104.140625 C367.33299065 105.42378139 368.82008006 106.70490808 370.30859375 107.984375 C380.86943888 117.24412401 390.08972221 127.39050406 398 139 C396.21783219 133.59985272 394.38351505 128.22134373 392.51171875 122.8515625 C386.71960741 106.10507015 381.85983172 89.60735495 378.48974609 72.18188477 C378.08505405 69.96971879 378.08505405 69.96971879 377 68 C376.960008 66.00039988 376.95653201 63.99952758 377 62 C382.39051985 62.59894665 385.26576609 67.10450911 388.5078125 71.05859375 C389.3840079 72.18194254 390.25624413 73.30838791 391.125 74.4375 C392.08926504 75.68534324 393.0541262 76.93272602 394.01953125 78.1796875 C394.51018066 78.81358398 395.00083008 79.44748047 395.50634766 80.10058594 C396.95959115 81.94861378 398.44617638 83.76266021 399.94921875 85.5703125 C411.19537017 99.18397466 415.53621464 113.46318509 420.22021484 130.28662109 C421.19189737 133.66773556 422.30839046 136.98102839 423.4375 140.3125 C425.50577405 146.98981579 426.33538619 153.48582581 423.8125 160.125 C421.58981306 162.42433132 420.09079084 162.50425941 417 163 C417.31114746 163.48130371 417.62229492 163.96260742 417.94287109 164.45849609 C425.02275431 175.44595522 431.71962317 186.55373718 437.94091797 198.04931641 C438.8988198 199.81363997 439.87233472 201.56946478 440.84765625 203.32421875 C444.41153794 209.74270839 447.27497352 216.18743379 450 223 C449.70210417 215.26960325 448.48521184 208.04210032 446.54785156 200.58032227 C443.73438072 189.52874084 442.61079139 178.57885609 442.625 167.1875 C442.62516113 165.97006104 442.62532227 164.75262207 442.62548828 163.49829102 C442.75238595 153.45801424 443.26392935 142.60410597 449 134 C453.11267587 135.37089196 453.47781357 137.21843152 455.46875 141.01953125 C455.79033081 141.63334152 456.11191162 142.24715179 456.4432373 142.87956238 C457.12382447 144.18595155 457.799351 145.4949876 458.47021484 146.80639648 C459.4808017 148.77510018 460.51432924 150.73036517 461.55078125 152.68554688 C467.9393549 164.92284486 470.58877864 175.91147877 470.5625 189.75 C470.5615332 191.00047119 470.56056641 192.25094238 470.55957031 193.53930664 C470.31522772 206.75305264 468.98452714 224.45518284 460 235 C457.87207031 235.65014648 457.87207031 235.65014648 456 236 C456.28721924 236.87624023 456.57443848 237.75248047 456.87036133 238.65527344 C457.95278464 241.96426526 459.03142067 245.27444521 460.10766602 248.58544922 C460.57071548 250.00747781 461.03519018 251.42904324 461.5012207 252.85009766 C464.336484 261.49932929 466.95150711 270.12214209 469 279 C472.95856819 263.09275824 475.83924056 247.0537665 478.58813477 230.90234375 C478.73310394 230.05364212 478.87807312 229.20494049 479.0274353 228.33052063 C479.2985788 226.73943345 479.56757747 225.14797847 479.83389282 223.55607605 C480.72206503 218.32949093 481.80647906 213.16520332 483 208 C483.99 208.33 484.98 208.66 486 209 C487.02734375 211.11035156 487.02734375 211.11035156 487.9375 213.890625 C488.44216797 215.41018799 488.44216797 215.41018799 488.95703125 216.96044922 C489.30121094 218.04600098 489.64539063 219.13155273 490 220.25 C490.35449219 221.35230957 490.70898438 222.45461914 491.07421875 223.59033203 C492.06873363 226.7212978 493.03989839 229.85833418 494 233 C494.21785156 233.69899414 494.43570313 234.39798828 494.66015625 235.11816406 C498.51010136 247.77307624 498.82514555 262.59733713 494 275 C493.75830078 275.62680664 493.51660156 276.25361328 493.26757812 276.89941406 C486.40754297 294.39497136 486.40754297 294.39497136 478 300 C477.01 300 476.02 300 475 300 C475.18175781 301.05832031 475.36351562 302.11664063 475.55078125 303.20703125 C479.0388934 324.05382357 481.65156868 344.83608407 481 366 C481.66 366 482.32 366 483 366 C483.08636719 365.44852295 483.17273438 364.8970459 483.26171875 364.32885742 C484.66745023 356.36922531 487.26860306 348.89243001 490 341.3125 C490.24332062 340.63225769 490.48664124 339.95201538 490.73733521 339.25115967 C495.27987241 326.58253019 500.3356667 314.21211359 506 302 C506.74564209 300.38544922 506.74564209 300.38544922 507.50634766 298.73828125 C509.0741619 295.36070312 510.65789592 291.99119117 512.25 288.625 C512.73331787 287.59648926 513.21663574 286.56797852 513.71459961 285.50830078 C519.97343199 272.47629951 519.97343199 272.47629951 524 268 C524.99 268 525.98 268 527 268 C529.52972332 275.1082816 530.51711824 281.47038912 530.4375 289 C530.42614014 290.54445801 530.42614014 290.54445801 530.41455078 292.12011719 C529.78376408 322.66492724 522.61437579 352.9988995 501.5625 375.9375 C497.33568066 379.92895121 491.77761644 383.85884351 485.8046875 384.08203125 C483.875 383.8125 483.875 383.8125 481 383 C481.02247803 383.68932617 481.04495605 384.37865234 481.06811523 385.08886719 C481.22097868 393.62386053 480.27688476 401.812337 479.0625 410.25 C478.87749494 411.57281056 478.69324696 412.89572723 478.50976562 414.21875 C478.16169779 416.7197756 477.81110733 419.22045195 477.45751953 421.72070312 C476.93351328 425.47654727 476.45388774 429.23512061 476 433 C476.37697021 432.44650879 476.75394043 431.89301758 477.14233398 431.32275391 C489.7954415 412.81211862 501.54747675 396.09214623 524 389 C524.99 389 525.98 389 527 389 C524.73386992 409.06674603 512.22612377 426.17982121 497.03515625 438.60742188 C480.43630008 451.56617801 480.43630008 451.56617801 471 451 C470.78085937 451.99515625 470.56171875 452.9903125 470.3359375 454.015625 C467.05294716 468.59726436 462.78801558 482.84523077 458 497 C458.70125 496.14277344 459.4025 495.28554688 460.125 494.40234375 C468.62933868 484.10008269 476.62426022 476.96399327 488.41796875 470.5390625 C494.41228351 467.25699422 500.23887327 463.69833921 506.08496094 460.16137695 C508.38728855 458.76970961 510.69212995 457.38245486 513 456 C513.68433105 455.58959473 514.36866211 455.17918945 515.07373047 454.75634766 C519.76206357 452 519.76206357 452 522 452 C519.72901985 466.92358385 506.1761945 477.7428487 495.28125 486.9296875 C492.61646081 489.34807495 490.12211967 491.90337255 487.60717773 494.47607422 C468.86895839 513.60895245 468.86895839 513.60895245 457.64672852 514.10375977 C456.85709717 514.09143311 456.06746582 514.07910645 455.25390625 514.06640625 C454.45412354 514.05681885 453.65434082 514.04723145 452.83032227 514.03735352 C452.22631592 514.02502686 451.62230957 514.0127002 451 514 C450.65855957 514.66829834 450.31711914 515.33659668 449.96533203 516.02514648 C443.56093523 528.53034807 437.08517136 540.93052267 429.828125 552.96484375 C428.83490633 554.61384141 427.86089217 556.27821567 427 558 C428.0003125 557.42894531 429.000625 556.85789062 430.03125 556.26953125 C449.45910299 545.47879316 470.40046827 537.54245782 491.3125 530.125 C492.7341748 529.61525635 492.7341748 529.61525635 494.18457031 529.09521484 C495.47959473 528.64976318 495.47959473 528.64976318 496.80078125 528.1953125 C497.54497314 527.93766113 498.28916504 527.68000977 499.0559082 527.41455078 C501 527 501 527 504 528 C499.40634705 534.58381866 494.60438044 540.7544495 489.16015625 546.65625 C487.18597823 548.79821531 485.27367764 550.97874749 483.375 553.1875 C482.25409845 554.46194971 481.12923291 555.73292645 480 557 C479.47148438 557.59554687 478.94296875 558.19109375 478.3984375 558.8046875 C466.15746685 571.85785525 446.62894791 580.32515593 428.75390625 581.3125 C418.85089363 581.56726242 418.85089363 581.56726242 415 579 C414.3125 576.875 414.3125 576.875 414 575 C413.6596875 575.53367187 413.319375 576.06734375 412.96875 576.6171875 C409.5621493 581.85393007 405.89024839 586.74980974 401.9375 591.5859375 C400.208771 593.73987807 398.59885381 595.93693947 397 598.1875 C394.37726259 601.72712935 391.38372568 604.45559528 388.015625 607.27734375 C384.82647073 610.00295816 381.9353689 613.00721557 379 616 C378.0925 616.886875 377.185 617.77375 376.25 618.6875 C374.28699604 620.70503185 372.65866841 622.73601295 371 625 C372.01477417 624.57871826 372.01477417 624.57871826 373.05004883 624.14892578 C439.52653832 596.62485648 439.52653832 596.62485648 465.5 596.9375 C466.22703125 596.94201172 466.9540625 596.94652344 467.703125 596.95117188 C469.46878681 596.96278807 471.2344053 596.98071559 473 597 C472.68452872 601.17623892 471.28703366 603.11516891 468.20556641 605.89282227 C467.68397949 606.34069092 467.16239258 606.78855957 466.625 607.25 C466.08407715 607.72816162 465.5431543 608.20632324 464.98583984 608.69897461 C463.33598155 610.14735473 461.67101463 611.57611434 460 613 C458.63875 614.16982422 458.63875 614.16982422 457.25 615.36328125 C435.48905261 633.59455116 415.95612496 643.12737454 387.0625 643.25 C385.24588867 643.2809375 385.24588867 643.2809375 383.39257812 643.3125 C367.10592832 643.38304315 367.10592832 643.38304315 360.97680664 638.33300781 C359.11053584 636.77623588 359.11053584 636.77623588 356.93945312 637.16210938 C353.633933 638.59017396 351.14819244 641.11597275 348.5 643.5 C342.22613881 649.02261414 335.72441882 654.033332 329 659 C324.05345322 662.71320157 324.05345322 662.71320157 321 668 C320.34 668 319.68 668 319 668 C319 668.66 319 669.32 319 670 C319.680625 669.82984375 320.36125 669.6596875 321.0625 669.484375 C323.16268385 668.95932904 325.26295399 668.43462821 327.36328125 667.91015625 C329.73629498 667.3162656 332.10872094 666.72001996 334.48046875 666.12109375 C337.81296088 665.28182545 341.14706333 664.4498215 344.48291016 663.62402344 C346.32158538 663.16818892 348.1597292 662.71020938 349.99755859 662.25097656 C353.28829012 661.43090301 356.58139737 660.62095833 359.875 659.8125 C360.92067139 659.55041748 361.96634277 659.28833496 363.04370117 659.01831055 C374.27497277 656.28208765 385.11914873 655.81343081 396.63378906 655.81469727 C398.89146056 655.81248386 401.14866278 655.79418758 403.40625 655.77539062 C404.85156085 655.7724606 406.29687399 655.77047319 407.7421875 655.76953125 C409.0401123 655.76542236 410.33803711 655.76131348 411.67529297 655.75708008 C414.75414343 655.98203647 416.43386239 656.36446202 419 658 C417.64623426 662.06129721 415.02104942 663.18144985 411.5 665.25 C410.83581055 665.6433252 410.17162109 666.03665039 409.48730469 666.44189453 C383.02773861 681.6681609 352.70859219 684.84682912 322.984375 678.33984375 C317.79366462 676.91783776 313.62539384 674.7214787 309 672 C308.20722656 672.54785156 307.41445313 673.09570312 306.59765625 673.66015625 C292.18907586 683.49303881 277.14605657 692.35733574 262 701 C263.01332901 700.78806 264.02665802 700.57612 265.07069397 700.35775757 C275.94436295 698.19570993 286.36874391 697.5541272 297.43359375 697.6015625 C299.13086573 697.5995349 300.82813685 697.59661781 302.52540588 697.59286499 C306.04054254 697.58849191 309.55544733 697.59472022 313.07055664 697.60888672 C317.57984793 697.62617553 322.08861113 697.61598351 326.59788418 697.59816933 C330.08335917 697.58736294 333.56870719 697.59075984 337.05418587 697.5985527 C338.71881232 697.60055325 340.38345029 697.59810053 342.04806328 697.59111404 C344.35714662 697.58352972 346.66534804 697.59505088 348.97436523 697.61181641 C350.28654526 697.61420319 351.59872528 697.61658997 352.95066833 697.61904907 C354.46008751 697.80761978 354.46008751 697.80761978 356 698 C356.66 698.99 357.32 699.98 358 701 C338.42946481 711.08999911 319.63875133 717.17876608 297.54858398 717.24023438 C295.46621605 717.24986716 293.38486882 717.28093383 291.30273438 717.3125 C279.18570489 717.40900573 267.69070548 715.84109769 256.375 711.25 C251.92726755 709.4460246 249.62185737 708.77257015 245 710 C243.44081684 710.66361442 241.90543755 711.38514209 240.39453125 712.15234375 C239.50717285 712.59416992 238.61981445 713.03599609 237.70556641 713.49121094 C236.27349854 714.20712402 236.27349854 714.20712402 234.8125 714.9375 C210.80350138 726.63330671 185.49707467 736.0304008 159 740 C160.79016347 741.79016347 163.49983195 741.40750624 165.9296875 741.61328125 C167.8159082 741.78017456 167.8159082 741.78017456 169.74023438 741.95043945 C170.41401123 742.00898102 171.08778809 742.06752258 171.78198242 742.12783813 C224.72633832 746.79899026 224.72633832 746.79899026 242 760 C241.67 761.32 241.34 762.64 241 764 C218.6411328 769.39696794 193.077333 771.56266088 171 764 C170.36642578 763.78569336 169.73285156 763.57138672 169.08007812 763.35058594 C159.06747558 759.88701195 147.44451698 755.16037552 139.6796875 747.80078125 C135.78719712 745.18498232 132.35012318 745.27317125 127.75 745.3125 C126.89172607 745.31830078 126.03345215 745.32410156 125.14916992 745.33007812 C119.06645026 745.55753459 115.7591969 746.61132754 111.3359375 750.9296875 C92.78993951 767.36677602 63.30068469 769.18123704 40 768 C17.76917586 766.2126456 17.76917586 766.2126456 12 763 C14.81168272 756.00838253 23.15378495 753.19125648 29.6875 750.375 C50.31245569 742.80196432 74.2212022 741.90844601 96 741 C94.61167969 740.70609375 94.61167969 740.70609375 93.1953125 740.40625 C65.3879544 734.30677724 38.13586817 724.80311721 12.90844727 711.55297852 C8.5041777 709.32822515 5.92010709 708.48920625 1 710 C-1.07573117 710.75629524 -3.13767337 711.55107456 -5.1875 712.375 C-39.02510437 724.65047162 -71.4601296 716.07241301 -103 702 C-102.67 700.68 -102.34 699.36 -102 698 C-88.31942229 697.26902128 -74.69903257 696.77790015 -61 697 C-59.68112793 697.01788574 -58.36225586 697.03577148 -57.00341797 697.05419922 C-53.19422173 697.10841659 -49.3856725 697.18165188 -45.57699585 697.26446533 C-44.05252257 697.29593405 -42.52795612 697.32322978 -41.00332642 697.34588623 C-31.71364573 697.491156 -23.0400807 698.3127224 -13.96777344 700.36791992 C-11.0166914 701.10415454 -11.0166914 701.10415454 -8 701 C-8.86443726 700.52711548 -8.86443726 700.52711548 -9.74633789 700.04467773 C-22.40066496 693.08935156 -34.69371293 685.85205244 -46.54711914 677.58764648 C-47.45196045 676.97348877 -48.35680176 676.35933105 -49.2890625 675.7265625 C-50.08006348 675.17564941 -50.87106445 674.62473633 -51.68603516 674.05712891 C-54.59011484 672.73040755 -56.00597145 673.02003312 -59 674 C-59.61875 674.474375 -60.2375 674.94875 -60.875 675.4375 C-74.04490653 685.1212548 -103.66312908 682.82542368 -119.05908203 680.54736328 C-124.94769112 679.30593521 -130.470929 677.35267257 -136 675 C-136.83515137 674.64663574 -137.67030273 674.29327148 -138.53076172 673.92919922 C-147.44987512 670.07069493 -156.24825027 665.93602457 -164 660 C-163.67 659.01 -163.34 658.02 -163 657 C-160.04167928 655.52083964 -157.02618826 655.81740266 -153.78125 655.796875 C-153.05638901 655.78967941 -152.33152802 655.78248383 -151.58470154 655.77507019 C-145.98473004 655.73223508 -140.3849957 655.74789579 -134.78515625 655.80078125 C-134.04386475 655.80571594 -133.30257324 655.81065063 -132.53881836 655.81573486 C-116.45067034 656.03080025 -101.36055085 660.58755113 -85.96264648 664.86303711 C-78.99166747 666.78622664 -72.24967642 668.52701774 -65 669 C-65.66 668.21625 -66.32 667.4325 -67 666.625 C-69 664 -69 664 -69 662 C-69.6909375 661.77183594 -70.381875 661.54367187 -71.09375 661.30859375 C-74.65058889 659.70706011 -77.48924908 657.49591601 -80.5 655.0625 C-81.10440918 654.58248535 -81.70881836 654.1024707 -82.33154297 653.60791016 C-85.49147382 651.08177162 -88.59941102 648.50416825 -91.6640625 645.86328125 C-92.24607422 645.3623999 -92.82808594 644.86151855 -93.42773438 644.34545898 C-94.53678231 643.3846138 -95.63995044 642.41692817 -96.73632812 641.44165039 C-100.38739433 638.10426282 -100.38739433 638.10426282 -105 637 C-105.6077124 637.46043701 -106.2154248 637.92087402 -106.84155273 638.39526367 C-114.14514717 643.82525194 -123.62905396 643.43466441 -132.3125 643.3125 C-133.44623047 643.31572266 -134.57996094 643.31894531 -135.74804688 643.32226562 C-160.1506835 643.16931463 -177.75605902 634.40723065 -196 619 C-197.06234753 618.11179678 -198.12485694 617.22378714 -199.1875 616.3359375 C-205.55387425 610.99702429 -211.82929339 605.56479743 -218 600 C-217.67 599.01 -217.34 598.02 -217 597 C-183.03727235 594.19144366 -148.73864484 611.41286149 -118 624 C-120.69896484 620.50926671 -123.5369081 617.37555163 -126.703125 614.3046875 C-127.60160156 613.42296875 -128.50007812 612.54125 -129.42578125 611.6328125 C-131.28888467 609.81351649 -133.15599459 607.99831325 -135.02734375 606.1875 C-140.34205317 600.9561883 -144.98575223 595.65035736 -149.23730469 589.51831055 C-151.59507709 586.149831 -154.16290351 582.97079097 -156.75 579.77734375 C-158 578 -158 578 -158 576 C-158.66 576 -159.32 576 -160 576 C-160.2165625 576.9590625 -160.2165625 576.9590625 -160.4375 577.9375 C-161 580 -161 580 -162 581 C-182.83587801 582.49352357 -202.74166998 575.62236819 -219.09765625 562.609375 C-224.82233 557.46256199 -229.96127382 551.81149634 -235 546 C-235.45068848 545.48050781 -235.90137695 544.96101562 -236.36572266 544.42578125 C-241.1158688 538.89754703 -245.32010333 533.29143624 -249 527 C-240.29472288 529.21057876 -231.83499132 531.99485906 -223.375 535 C-222.70579529 535.23688538 -222.03659058 535.47377075 -221.34710693 535.71783447 C-204.74539229 541.62026162 -188.27624236 548.15386894 -173 557 C-173.65742188 555.86691406 -173.65742188 555.86691406 -174.328125 554.7109375 C-178.75494441 547.02698673 -183.06424007 539.28416709 -187.3125 531.5 C-187.82780273 530.55688965 -188.34310547 529.6137793 -188.87402344 528.64208984 C-196 515.55132044 -196 515.55132044 -196 513 C-196.99 513.33 -197.98 513.66 -199 514 C-207.72307584 514.91821851 -213.63849829 511.75840284 -220.375 506.37109375 C-228.36672745 499.71634035 -235.74862592 492.43284298 -243.01391602 485.00097656 C-246.31490444 481.63074223 -249.64165254 478.39984788 -253.234375 475.33984375 C-256.38465583 472.62694136 -258.91010627 469.85456934 -261.3125 466.4375 C-261.94800781 465.54933594 -262.58351563 464.66117188 -263.23828125 463.74609375 C-268 456.32372506 -268 456.32372506 -268 452 C-262.65804908 453.4820146 -258.49852076 455.99182871 -253.875 458.9375 C-248.08864127 462.57305969 -242.2548618 465.97404664 -236.20092773 469.14477539 C-222.00049966 476.61578063 -213.03638497 485.53667716 -203 498 C-203.28198242 497.16976318 -203.56396484 496.33952637 -203.85449219 495.48413086 C-204.92443207 492.32623089 -205.98994231 489.16690131 -207.05273438 486.0065918 C-207.50872103 484.65348014 -207.96633691 483.30091614 -208.42578125 481.94897461 C-209.09572568 479.97660531 -209.76022287 478.00250952 -210.421875 476.02734375 C-210.64253632 475.37177994 -210.86319763 474.71621613 -211.09054565 474.04078674 C-212.2172743 470.62524868 -213.2233964 467.21747616 -214.06689453 463.72045898 C-214.23481506 463.03186295 -214.4027356 462.34326691 -214.57574463 461.63380432 C-215.02885802 459.72594402 -215.45638024 457.81205851 -215.88232422 455.89794922 C-216.70689286 452.87823292 -216.70689286 452.87823292 -219.14306641 451.70678711 C-220.75946174 451.33071263 -222.3926004 451.02438464 -224.03125 450.76171875 C-234.94764624 447.96080129 -245.151003 436.73491274 -253 429 C-254.1446875 427.87464844 -254.1446875 427.87464844 -255.3125 426.7265625 C-263.5083525 418.12712635 -273 401.33507113 -273 389 C-259.21320004 390.89335164 -245.37755884 401.363406 -236.71484375 411.73828125 C-233.23368187 416.32960865 -230.13325264 421.16834874 -227 426 C-225.00638445 429.00427215 -223.00433693 432.00287235 -221 435 C-221.11069824 434.39752441 -221.22139648 433.79504883 -221.33544922 433.17431641 C-227.62258631 398.70301015 -227.62258631 398.70301015 -227 383 C-228.485 383.37125 -228.485 383.37125 -230 383.75 C-235.92799741 384.53406379 -239.82513861 381.63642483 -244.4140625 378.18359375 C-265.11451315 360.78367935 -272.72390467 333.34536688 -275.80371094 307.41015625 C-276.24673441 301.97044517 -276.22709395 296.51700258 -276.25 291.0625 C-276.2809375 289.22655273 -276.2809375 289.22655273 -276.3125 287.35351562 C-276.34321951 280.21506966 -275.71336653 274.61918624 -273 268 C-263.7995721 271.86602596 -259.8885512 284.81268563 -255.8125 293.3125 C-255.48740448 293.98685089 -255.16230896 294.66120178 -254.82736206 295.35598755 C-244.46526559 316.91829821 -236.25282611 339.21353715 -229 362 C-228.27396025 357.97606144 -227.8080352 354.03793758 -227.5703125 349.95703125 C-227.4986084 348.80944336 -227.4269043 347.66185547 -227.35302734 346.47949219 C-227.27777832 345.26938477 -227.2025293 344.05927734 -227.125 342.8125 C-226.5111678 333.45852049 -225.67339028 324.2596052 -223.96533203 315.03833008 C-223.08908664 310.22236363 -222.58478062 305.86844724 -223 301 C-224.46051391 299.14622118 -224.46051391 299.14622118 -226.625 298.125 C-236.57582462 291.54376678 -239.855292 278.62061202 -242.6015625 267.58203125 C-244.62836994 254.44752424 -242.82090791 242.43281749 -239.25 229.75 C-238.90267822 228.51314453 -238.55535645 227.27628906 -238.19750977 226.00195312 C-236.31804772 219.6354871 -234.2104401 213.81349964 -231 208 C-230.34 208 -229.68 208 -229 208 C-223.81720519 231.17307294 -219.9898472 254.59924131 -216 278 C-214.71922898 274.21599847 -213.5148698 270.42601105 -212.4140625 266.5859375 C-211.98009155 265.08063477 -211.98009155 265.08063477 -211.53735352 263.54492188 C-211.23627686 262.49884766 -210.9352002 261.45277344 -210.625 260.375 C-208.25507579 252.18608197 -205.83894439 244.0407369 -203 236 C-203.61875 235.73445312 -204.2375 235.46890625 -204.875 235.1953125 C-209.51490307 232.58536703 -210.71809409 226.97919968 -212.10546875 222.16015625 C-221.12614914 187.65846143 -213.74970526 163.84696417 -197 134 C-196.01 134 -195.02 134 -194 134 C-193.34735571 136.01864397 -192.70321254 138.04003727 -192.0625 140.0625 C-191.70285156 141.18785156 -191.34320313 142.31320312 -190.97265625 143.47265625 C-184.94373846 165.33656295 -189.2154085 191.22495881 -195.484375 212.6328125 C-196.1015531 215.46622107 -196.08379164 218.10918826 -196 221 C-195.55011719 220.08863281 -195.10023438 219.17726563 -194.63671875 218.23828125 C-192.44515933 213.81506227 -190.22568638 209.40612815 -188 205 C-187.3817334 203.77216797 -187.3817334 203.77216797 -186.75097656 202.51953125 C-179.8569763 188.89001349 -172.22295202 175.8694224 -164 163 C-164.598125 162.9175 -165.19625 162.835 -165.8125 162.75 C-168.72670569 161.75084376 -169.51800443 160.68443352 -171 158 C-172.34479284 149.07822014 -170.28404395 141.09267246 -167.3125 132.75 C-166.5695973 130.56709175 -165.8287169 128.38349422 -165.08984375 126.19921875 C-164.72874512 125.14524902 -164.36764648 124.0912793 -163.99560547 123.00537109 C-162.86601867 119.59555904 -161.89275778 116.16281291 -160.95458984 112.6965332 C-158.09497883 102.16752735 -153.38982248 94.43425058 -146.48828125 86.05859375 C-142.50825209 81.16634441 -138.68183139 76.15428932 -134.8359375 71.15625 C-133.96388672 70.02896484 -133.96388672 70.02896484 -133.07421875 68.87890625 C-132.55432373 68.2041626 -132.03442871 67.52941895 -131.4987793 66.83422852 C-128.61182339 63.30112871 -128.61182339 63.30112871 -127 62 C-125.68 62 -124.36 62 -123 62 C-123.73282516 69.92876109 -125.63061465 77.59034251 -127.5 85.3125 C-127.67340912 86.0329953 -127.84681824 86.7534906 -128.02548218 87.49581909 C-132.20023613 104.72295066 -137.69513808 121.43233445 -144 138 C-143.45085937 137.25169922 -143.45085937 137.25169922 -142.890625 136.48828125 C-132.23421239 122.35584833 -119.36006457 108.91932673 -105.78125 97.5625 C-105.1934375 97.046875 -104.605625 96.53125 -104 96 C-103.19304687 95.319375 -102.38609375 94.63875 -101.5546875 93.9375 C-98.12771694 89.99700786 -96.53551341 85.81727801 -94.625 81 C-93.83736586 79.10118685 -93.04570023 77.20404094 -92.25 75.30859375 C-91.86585938 74.39319824 -91.48171875 73.47780273 -91.0859375 72.53466797 C-76.46930889 38.41824751 -43.15437281 16.07297314 -10 2 C-6.25906322 0.59488969 -4.04048131 0 0 0 Z " fill="#030303" transform="translate(381,132)"/>
<path d="M0 0 C21.18670641 16.94385493 34.7107527 43.28505567 37.76416016 70.19287109 C39.9706476 96.45601044 38.4693647 122.46199888 21.5625 143.9375 C11.85802377 155.09357016 0.02592224 161.98769731 -12.953125 168.87109375 C-14.9309103 169.83834861 -14.9309103 169.83834861 -16 171 C-16.492168 175.6263792 -15.9143874 178.5085834 -14 182.75 C-11.72677308 188.16950476 -10.52640626 193.19281993 -12 199 C-13.81126783 201.38434796 -15.76427525 203.20816545 -18.0234375 205.16796875 C-23.14944081 209.91914573 -23.82331234 216.82221303 -24.10583496 223.50247192 C-24.16525696 226.48245889 -24.19064478 229.46085042 -24.203125 232.44140625 C-24.21013931 233.54901306 -24.21715363 234.65661987 -24.22438049 235.79779053 C-24.24191356 239.38606821 -24.24824013 242.97418095 -24.25 246.5625 C-24.25067474 247.78617279 -24.25134949 249.00984558 -24.25204468 250.27059937 C-24.23583683 268.73679157 -23.62567715 286.70295846 -21 305 C-20.83371094 306.24136719 -20.66742187 307.48273438 -20.49609375 308.76171875 C-18.14656631 326.25264525 -14.99879758 343.54310531 -11.54403687 360.84680176 C-9.0089098 373.55186493 -6.68593262 386.27168744 -4.625 399.0625 C-4.50375763 399.80947144 -4.38251526 400.55644287 -4.25759888 401.3260498 C-0.93706192 421.86982062 1.1974856 442.22373867 1.29516602 463.05957031 C1.30674676 464.77352107 1.32729346 466.48743409 1.35668945 468.20117188 C1.58575013 481.64281077 0.98175006 493.37333804 -8.15234375 504.09765625 C-15.94471447 512.12066796 -26.04376591 515.01999741 -37.0625 515.375 C-46.05615129 515.29351732 -54.85270962 512.18964273 -61.47265625 505.92578125 C-68.59992611 496.93922359 -71.3012466 486.34897085 -71.3359375 475.12109375 C-71.34422577 474.28403397 -71.35251404 473.44697418 -71.36105347 472.58454895 C-71.38036518 469.86868621 -71.38036625 467.15342085 -71.375 464.4375 C-71.37518127 463.03981384 -71.37518127 463.03981384 -71.37536621 461.6138916 C-71.34373724 444.43347426 -69.8716946 427.94812617 -67 411 C-66.85046875 410.08186523 -66.7009375 409.16373047 -66.546875 408.21777344 C-65.12890918 399.5819677 -63.39917396 391.00812024 -61.69468689 382.42538452 C-52.75001132 337.35982954 -44.7925511 293.26070297 -44.6875 247.1875 C-44.68364288 246.12143524 -44.67978577 245.05537048 -44.67581177 243.95700073 C-43.84458022 223.49728985 -43.84458022 223.49728985 -51 205 C-52.23798239 203.82058882 -53.48862024 202.65435359 -54.75 201.5 C-57.19342217 199.10923779 -57.92957347 198.29344388 -58.75 194.875 C-57.80979806 190.01728995 -56.0532059 185.71755699 -54.09375 181.18359375 C-52.92073398 177.76927927 -52.4125814 175.56856802 -53 172 C-56.51735234 168.27894 -61.05200636 166.38898966 -65.625 164.25 C-84.13053915 155.2576194 -98.07576561 141.64782096 -105.875 122.5 C-109.94524577 110.61678656 -111.53585648 99.22717038 -111.4375 86.6875 C-111.43445862 86.01090332 -111.43141724 85.33430664 -111.42828369 84.63720703 C-111.22881936 54.55975947 -98.3266419 25.50738679 -77.73828125 3.57421875 C-70.61135272 -3.12570407 -62.27632112 -8.77112669 -53 -12 C-52.3709375 -12.22300781 -51.741875 -12.44601562 -51.09375 -12.67578125 C-33.27283486 -18.04396675 -14.2818865 -10.55617697 0 0 Z " fill="#010101" transform="translate(661,278)"/>
<path d="M0 0 C1.98 0 3.96 0 6 0 C6.03536362 0.83699432 6.07072723 1.67398865 6.10716248 2.53634644 C6.4441388 10.50694178 6.78227384 18.47748701 7.12164211 26.44798088 C7.29598584 30.54358249 7.46991449 34.63920077 7.64282227 38.73486328 C7.81036739 42.7031099 7.97909713 46.67130469 8.14857674 50.63946915 C8.21235591 52.13734346 8.27574057 53.63523464 8.33868217 55.13314438 C8.6797299 63.24279179 9.06472953 71.34747813 9.52734375 79.45117188 C9.87700115 85.58377382 10.17314085 91.7100999 10.31640625 97.8515625 C10.33718735 98.64734711 10.35796844 99.44313171 10.37937927 100.26303101 C10.44290865 102.7169651 10.50280606 105.17096996 10.5625 107.625 C10.60587416 109.32552712 10.64949302 111.02604801 10.69335938 112.7265625 C10.79837566 116.81764257 10.90014393 120.90879087 11 125 C12.32 125.66 13.64 126.32 15 127 C16.02173078 122.70831284 16.22459038 118.48353161 16.359375 114.09375 C16.42058123 112.41558216 16.48255541 110.73744221 16.54516602 109.05932617 C16.59436691 107.70754776 16.59436691 107.70754776 16.64456177 106.32846069 C17.4386553 85.02629834 18.83446915 63.77995377 20.39149475 42.5227356 C20.56217311 40.19196399 20.73188406 37.86112336 20.90148926 35.53027344 C21.17230463 31.81619644 21.44619564 28.10235887 21.72284508 24.38871193 C21.82547373 23.01051334 21.9276111 21.63227805 22.02921486 20.25400352 C22.53059985 13.47676454 23.06826136 6.73275081 24 0 C25.98 0 27.96 0 30 0 C31.00630309 3.40632307 31.21837974 6.64076689 31.37304688 10.18286133 C31.42980591 11.43549271 31.48656494 12.68812408 31.54504395 13.97871399 C31.60297918 15.346485 31.6608803 16.71425746 31.71875 18.08203125 C31.78178284 19.49771393 31.8452256 20.9133784 31.90905762 22.32902527 C32.0765457 26.0631559 32.23943087 29.79747213 32.40106201 33.53186035 C32.65859763 39.46836621 32.92243233 45.40459208 33.18751526 51.340765 C33.27834297 53.39139881 33.3668213 55.44212308 33.45495605 57.49287415 C33.73929136 63.94165022 34.07913774 70.37957704 34.52514648 76.81933594 C34.92968333 82.69274571 35.19636729 88.54814042 35.31640625 94.43359375 C35.33718735 95.32240738 35.35796844 96.21122101 35.37937927 97.12696838 C35.44346368 99.89708661 35.5030844 102.66727814 35.5625 105.4375 C35.60582038 107.34440787 35.64943828 109.251309 35.69335938 111.15820312 C35.79899416 115.77206516 35.90063331 120.38599889 36 125 C37.32 125 38.64 125 40 125 C41.09967677 121.7009697 41.25765001 118.99480364 41.43310547 115.52050781 C41.46750355 114.86319514 41.50190163 114.20588247 41.53734207 113.52865124 C41.65114365 111.33698869 41.75907935 109.14507516 41.8671875 106.953125 C41.94690442 105.40224517 42.02706257 103.85138796 42.1076355 102.30055237 C42.27859246 98.99870093 42.44727926 95.69674501 42.61413574 92.39468384 C43.04715256 83.83418146 43.49569407 75.27448781 43.9453125 66.71484375 C43.98979523 65.86600302 44.03427795 65.01716228 44.08010864 64.14259911 C44.87379439 49.02615659 45.76245652 33.91765627 46.75 18.8125 C46.81475525 17.82100952 46.8795105 16.82951904 46.94622803 15.8079834 C47.29163312 10.53825341 47.64261687 5.2689308 48 0 C50.31 0 52.62 0 55 0 C60.00246037 76.19980212 60.00246037 76.19980212 60.65869141 111.89257812 C60.67489029 112.69056824 60.69108917 113.48855835 60.70777893 114.31072998 C60.7377875 115.80613533 60.76382799 117.30162736 60.78526306 118.79718018 C60.81125514 122.52354217 60.81125514 122.52354217 62 126 C62.99 126 63.98 126 65 126 C66.6452418 122.70951641 66.36940451 119.02982103 66.54077148 115.40478516 C66.60932343 114.06729721 66.60932343 114.06729721 66.67926025 112.70278931 C66.83059862 109.73173718 66.97572334 106.7604121 67.12109375 103.7890625 C67.22650318 101.70663096 67.3323916 99.62422361 67.43873596 97.5418396 C67.71952347 92.02567564 67.99545846 86.50928094 68.26989746 80.99279785 C68.75643808 71.21627259 69.24832417 61.44002241 69.74609375 51.6640625 C69.79908001 50.6207502 69.85206627 49.5774379 69.90665817 48.50251007 C70.73244366 32.31780929 71.70486933 16.15463617 73 0 C74.65 0 76.3 0 78 0 C81.59993732 8.28894707 84.69410497 16.64118506 87.4375 25.25 C87.82437988 26.46147705 88.21125977 27.6729541 88.60986328 28.92114258 C93.9711857 45.9773646 98.4382427 63.28885779 101 81 C101.0942627 81.62777344 101.18852539 82.25554687 101.28564453 82.90234375 C102.21071699 89.89251558 102.22118449 96.91517007 102.24023438 103.95410156 C102.24988759 106.10001191 102.28097479 108.24494021 102.3125 110.390625 C102.47602572 131.71021464 96.89075341 151.44416017 83 168 C81.80525306 169.16148846 80.57613387 170.28885768 79.3125 171.375 C78.62285156 171.96796875 77.93320312 172.5609375 77.22265625 173.171875 C74.93993285 175.04940497 72.6055147 176.8399312 70.25 178.625 C64.80359247 182.83613984 60.95446274 187.26954681 59 194 C58.71265711 198.05773581 59.02317865 202.09531179 59.29296875 206.1484375 C59.52097442 212.37398358 59.52097442 212.37398358 56.59765625 215.88671875 C55.31181641 216.93279297 55.31181641 216.93279297 54 218 C49.59561532 226.31939329 48.69095173 235.44556411 48.6640625 244.73828125 C48.65563828 245.64411957 48.64721405 246.54995789 48.63853455 247.48324585 C48.61888938 250.42651419 48.61883862 253.3691771 48.625 256.3125 C48.62631424 257.84071884 48.62631424 257.84071884 48.62765503 259.39981079 C48.68336154 279.16174402 50.14281771 298.45642084 53 318 C53.1235083 318.84584656 53.2470166 319.69169312 53.37426758 320.56317139 C56.48844589 341.70297521 60.23030797 362.69330632 64.50610352 383.62670898 C70.78457893 414.39709591 75.23542809 445.06658356 75.3125 476.5 C75.31617584 477.22505737 75.31985168 477.95011475 75.32363892 478.69714355 C75.35775566 491.47760415 74.26412322 504.49814184 64.8515625 514.21875 C54.87033877 522.25823396 44.62902131 523.9620821 32 523 C22.69013304 520.9324534 15.181682 516.44882289 9.6875 508.625 C4.28122322 499.88387314 2.85674579 491.25044926 2.76171875 481.1328125 C2.75183426 480.27427673 2.74194977 479.41574097 2.73176575 478.53118896 C2.42966227 445.31956183 6.88643423 414.26333601 13.43893433 381.78956604 C18.49998537 356.66402524 23.22553893 331.49453234 26 306 C26.0864679 305.22611938 26.17293579 304.45223877 26.26202393 303.65490723 C27.78697144 289.73753927 28.31658471 275.95173308 28.26074219 261.95458984 C28.24986735 258.71042811 28.26079734 255.46680305 28.2734375 252.22265625 C28.27211801 250.12239463 28.26956001 248.02213334 28.265625 245.921875 C28.26967346 244.97068787 28.27372192 244.01950073 28.27789307 243.03948975 C28.21447468 233.89285656 27.19611226 224.77718762 22 217 C21.30519531 216.47535156 20.61039062 215.95070313 19.89453125 215.41015625 C16.47439511 211.05917893 17.52761916 205.39918993 17.59960938 200.06054688 C17.50757163 192.49720966 15.69704006 186.94183856 10.45141602 181.34887695 C8.85274304 179.89878224 7.21150311 178.56440262 5.5 177.25 C4.38365398 176.36158542 3.269047 175.47098094 2.15625 174.578125 C1.62281982 174.15233154 1.08938965 173.72653809 0.53979492 173.2878418 C-1.79131708 171.33816432 -3.88947467 169.18317681 -6 167 C-6.928125 166.071875 -7.85625 165.14375 -8.8125 164.1875 C-27.11392269 142.43387097 -26.45145239 111.72229408 -24.81396484 84.95947266 C-24.29468525 79.53929357 -23.23356256 74.29748887 -22 69 C-21.77957031 68.0011377 -21.55914062 67.00227539 -21.33203125 65.97314453 C-16.28001921 43.30257463 -9.1567383 21.3479489 0 0 Z " fill="#020202" transform="translate(350,270)"/>
<path d="M0 0 C1.11117691 -0.01268417 2.22235382 -0.02536835 3.36720276 -0.03843689 C5.15951576 -0.03403343 5.15951576 -0.03403343 6.98803711 -0.02954102 C8.21824081 -0.03478287 9.44844452 -0.04002472 10.71592712 -0.04542542 C13.31581874 -0.0518478 15.9157394 -0.05050587 18.515625 -0.04199219 C21.18486641 -0.03628972 23.85161408 -0.03977527 26.52050781 -0.0625 C30.36412287 -0.0930858 34.20682025 -0.09659136 38.05053711 -0.09204102 C39.84588646 -0.10889198 39.84588646 -0.10889198 41.67750549 -0.12608337 C42.78553024 -0.11670242 43.89355499 -0.10732147 45.03515625 -0.09765625 C46.49931725 -0.097407 46.49931725 -0.097407 47.99305725 -0.09715271 C50.45288086 0.40405273 50.45288086 0.40405273 52.3032074 2.21665955 C54.03839336 5.51806127 53.27766838 7.85112189 52.45288086 11.40405273 C52.10225586 12.04342773 51.75163086 12.68280273 51.39038086 13.34155273 C49.90372366 16.61219858 49.98439135 19.9073557 50.45288086 23.40405273 C51.43645438 25.412182 52.43596822 27.41259882 53.45288086 29.40405273 C53.82894608 33.84162237 53.94744003 35.66221398 51.45288086 39.40405273 C48.00217031 69.00039825 52.88968986 101.4417636 54.94429016 131.12892151 C55.14284143 134.00215963 55.33958737 136.87551705 55.53601074 139.74890137 C57.33977499 166.07320269 59.34860216 192.3731256 61.70288086 218.65405273 C61.76548977 219.35310352 61.82809868 220.05215431 61.89260483 220.77238846 C63.18967112 235.22184695 64.5467409 249.66521368 66.0144043 264.09838867 C66.08487976 264.7938681 66.15535522 265.48934753 66.22796631 266.2059021 C66.39030362 267.79246847 66.55577283 269.37871546 66.72320557 270.9647522 C68.51705957 288.2316511 70.47185017 307.71006775 59.40600586 322.21655273 C56.42560629 325.55460025 53.25240237 328.06076807 49.45288086 330.40405273 C48.87280273 330.78174805 48.29272461 331.15944336 47.69506836 331.54858398 C35.91860549 338.35446187 19.03203014 339.23703589 5.83959961 336.71264648 C-4.11088325 333.91809254 -14.3492807 328.98324895 -20.54711914 320.40405273 C-29.58125315 302.75815982 -26.85225567 283.9451286 -24.26873779 264.97601318 C-23.69966654 260.78994779 -23.1603565 256.60018102 -22.61895752 252.41046143 C-22.33908403 250.2457074 -22.05795412 248.08111545 -21.77557373 245.91668701 C-20.40275844 235.38087283 -19.12812255 224.83520428 -17.92211914 214.27905273 C-17.82027313 213.38878387 -17.71842712 212.49851501 -17.61349487 211.58126831 C-15.6544072 194.32512529 -14.13393718 177.03761921 -12.68338013 159.73239136 C-12.5656575 158.32849655 -12.5656575 158.32849655 -12.44555664 156.89624023 C-12.36844452 155.97634308 -12.2913324 155.05644592 -12.21188354 154.1086731 C-11.57778629 146.61370964 -10.83387213 139.13461984 -10.04711914 131.65405273 C-8.06131279 112.61789237 -6.66560066 93.52634499 -5.1796875 74.44604492 C-4.78790533 69.42236584 -4.3807302 64.40076493 -3.94555664 59.38061523 C-3.59605129 55.21472467 -3.35465263 51.08481942 -3.29711914 46.90405273 C-3.27133789 45.75936523 -3.24555664 44.61467773 -3.21899414 43.43530273 C-3.58590563 40.04573945 -4.49486108 39.01156364 -6.54711914 36.40405273 C-6.69165039 34.22045898 -6.69165039 34.22045898 -6.35961914 31.96655273 C-6.24360352 31.17764648 -6.12758789 30.38874023 -6.00805664 29.57592773 C-5.47091328 27.04498103 -4.51742552 24.79747515 -3.54711914 22.40405273 C-2.79467413 19.57645384 -2.79467413 19.57645384 -3.54711914 16.40405273 C-5.27703181 13.982175 -7.12268846 11.76453127 -9.11352539 9.55249023 C-10.54711914 7.40405273 -10.54711914 7.40405273 -10.51196289 5.31811523 C-8.21540512 0.76219091 -4.80466264 0.02657328 0 0 Z " fill="#030303" transform="translate(484.547119140625,474.595947265625)"/>
<path d="M0 0 C3.1359157 1.77984405 3.84102736 2.52308207 5 6 C5.08902616 7.37016104 5.12376408 8.74426239 5.12304783 10.11731243 C5.12503888 10.95930052 5.12702993 11.8012886 5.12908131 12.66879147 C5.12616847 13.59388054 5.12325563 14.51896961 5.12025452 15.47209167 C5.12110894 16.45470752 5.12196337 17.43732336 5.12284368 18.44971544 C5.1244967 21.75710397 5.11897998 25.06444228 5.11352539 28.37182617 C5.11324345 30.73677062 5.11340138 33.10171515 5.1139679 35.46665955 C5.11422571 41.23146099 5.10988106 46.99624586 5.10353024 52.76104351 C5.09638804 59.46802617 5.09488562 66.17500645 5.09374207 72.88199238 C5.09155266 84.84312538 5.08489558 96.80425156 5.07543945 108.76538086 C5.06626246 120.3854977 5.05918303 132.00561269 5.05493164 143.62573242 C5.05466892 144.34182319 5.05440619 145.05791396 5.05413551 145.79570445 C5.05283049 149.38806963 5.05156677 152.98043483 5.05032361 156.57280004 C5.03995446 186.38187147 5.0222649 216.19093494 5 246 C-3.31000792 246.04628625 -11.61996221 246.0818502 -19.93006706 246.10362434 C-23.78854797 246.11407343 -27.64694085 246.128253 -31.50537109 246.15087891 C-35.22712192 246.1725674 -38.94878794 246.18456014 -42.67059708 246.18975449 C-44.09241191 246.19345745 -45.51422197 246.20068819 -46.93600082 246.21146011 C-48.92327114 246.22592119 -50.91062631 246.22681646 -52.89794922 246.22705078 C-54.03046112 246.231492 -55.16297302 246.23593323 -56.32980347 246.24050903 C-59 246 -59 246 -61 244 C-64.87386226 228.17539928 -64.17398304 210.92071595 -64.23828125 194.72265625 C-64.24235678 193.83188322 -64.2464323 192.94111019 -64.25063133 192.02334404 C-64.27131297 187.2962456 -64.28568338 182.56917453 -64.29516602 177.84204102 C-64.30395433 174.01928421 -64.32468403 170.19689937 -64.35668945 166.37426758 C-64.78138272 114.44366066 -62.93631389 52.25178628 -24.65234375 12.56640625 C-18.03247771 6.39019966 -9.41915922 -0.75353274 0 0 Z " fill="#030303" transform="translate(531,224)"/>
<path d="M0 0 C1.32 0.33 2.64 0.66 4 1 C4.78002341 6.77576359 5.28210369 12.51234408 5.61669922 18.32958984 C5.67054779 19.22889725 5.72439636 20.12820465 5.77987671 21.05476379 C5.89613652 23.00193955 6.01120714 24.94918661 6.12520981 26.89649582 C6.30847942 30.02568158 6.49504805 33.15465622 6.68240356 36.28359985 C7.08281947 42.98056332 7.47918879 49.67776302 7.875 56.375 C10.23447884 96.29429472 12.64890088 136.20374063 16.19775391 176.03833008 C16.50530303 179.49713985 16.80565131 182.95652789 17.10546875 186.41601562 C18.23137097 199.25613978 19.5020267 212.06870188 21.02197266 224.86875916 C24.26731268 252.78464826 24.26731268 252.78464826 18 262 C17.443125 262.9075 16.88625 263.815 16.3125 264.75 C7.48267161 273.34118438 -4.55330237 275.5619522 -16.4375 275.4375 C-17.44941406 275.42992676 -18.46132813 275.42235352 -19.50390625 275.41455078 C-29.03276384 275.20372173 -37.49393656 273.66153758 -44.5625 266.796875 C-52.22385648 257.2201794 -50.64629341 244.52653566 -49.40209961 233.06396484 C-48.73279161 227.37809121 -47.99279596 221.7019775 -47.23641968 216.02709961 C-46.40835551 209.80989059 -45.61332533 203.58845275 -44.81640625 197.3671875 C-44.65787674 196.13494446 -44.49934723 194.90270142 -44.33601379 193.63311768 C-42.78136182 181.46597662 -41.46664089 169.27995065 -40.24316406 157.07568359 C-39.55983792 150.27146124 -38.82756805 143.48140713 -37.953125 136.69921875 C-37.12395642 130.2462744 -36.52246013 123.80157782 -36.0625 117.3125 C-35.39615132 108.48103364 -34.57538226 99.6801972 -33.625 90.875 C-31.47640575 70.80194636 -29.88378076 50.67695225 -28.21282959 30.55969238 C-27.91040737 26.92247322 -27.60561275 23.28545553 -27.30078125 19.6484375 C-26.86413731 14.4325405 -26.43045306 9.21641146 -26 4 C-24.68 4 -23.36 4 -22 4 C-22.53399386 23.02136968 -24.03194359 41.92098964 -25.6751709 60.8704834 C-25.94027491 63.94436199 -26.19957561 67.01871824 -26.45884132 70.09309387 C-27.82368936 86.25714802 -29.2838933 102.40428203 -31.01535034 118.53373718 C-31.74961991 125.39148216 -32.3672449 132.24686996 -32.875 139.125 C-33.75451921 150.30132941 -35.01681156 161.42829959 -36.3125 172.5625 C-36.41909943 173.48158142 -36.52569885 174.40066284 -36.63552856 175.34759521 C-37.81276983 185.45680019 -39.05247869 195.55376364 -40.4375 205.63671875 C-43.39230778 226.51979438 -43.39230778 226.51979438 -44.5 247.5625 C-44.50620361 248.46000977 -44.51240723 249.35751953 -44.51879883 250.28222656 C-44.39633837 256.32998117 -43.21862657 260.71611971 -38.875 265.1875 C-31.94063556 269.55916454 -25.00090077 270.4667349 -16.9375 270.3125 C-15.6680957 270.31733398 -15.6680957 270.31733398 -14.37304688 270.32226562 C-5.3540453 270.24577448 3.77206187 268.54553028 10.765625 262.46484375 C15.53947263 257.37814688 17.14420086 251.72474276 17.1171875 244.8125 C17.05236944 243.20761168 16.97016546 241.60337501 16.875 240 C16.79995239 238.57397461 16.79995239 238.57397461 16.72338867 237.11914062 C16.14381533 227.41899219 15.07984334 217.76779787 14.05981445 208.10671997 C12.03609875 188.77422448 10.55436233 169.40027871 9.0725975 150.02035522 C8.87811379 147.47820123 8.6827492 144.93611621 8.48721313 142.39404297 C7.1006187 124.34058879 5.77705057 106.28545787 4.65255737 88.21360779 C4.16898788 80.44897051 3.61037567 72.69316699 3 64.9375 C2.13996813 53.67441955 1.48078551 42.40407789 0.875 31.125 C0.83052734 30.31666718 0.78605469 29.50833435 0.74023438 28.67550659 C0.2171928 19.10474836 -0.13366798 9.58802533 0 0 Z " fill="#ECECEC" transform="translate(519,526)"/>
<path d="M0 0 C3.80615247 -0.24044076 5.84906614 0.15411416 9.01171875 2.2734375 C10.13368652 3.00820313 10.13368652 3.00820313 11.27832031 3.7578125 C12.07334961 4.29148437 12.86837891 4.82515625 13.6875 5.375 C22.90636158 11.37238751 32.30573133 16.81325753 42 22 C42.88171875 22.474375 43.7634375 22.94875 44.671875 23.4375 C78.99230369 41.8439869 114.47766712 56.42490302 153 63 C152.34 64.65 151.68 66.3 151 68 C145.375 68.25 145.375 68.25 142 66 C140.13113141 65.41986267 140.13113141 65.41986267 138.0625 65.02734375 C136.86572632 64.76920898 136.86572632 64.76920898 135.64477539 64.50585938 C134.77199951 64.31830078 133.89922363 64.13074219 133 63.9375 C107.86081295 58.17438352 82.17098063 49.05706418 59.51171875 36.55078125 C54.52773854 34.34984672 51.9647623 35.28413641 47.01953125 37.0859375 C45.43205078 37.72402344 45.43205078 37.72402344 43.8125 38.375 C9.97489563 50.65047162 -22.4601296 42.07241301 -54 28 C-53.67 26.68 -53.34 25.36 -53 24 C-39.31942229 23.26902128 -25.69903257 22.77790015 -12 23 C-10.68112793 23.01788574 -9.36225586 23.03577148 -8.00341797 23.05419922 C-4.19422173 23.10841659 -0.3856725 23.18165188 3.42300415 23.26446533 C4.94747743 23.29593405 6.47204388 23.32322978 7.99667358 23.34588623 C17.28635427 23.491156 25.9599193 24.3127224 35.03222656 26.36791992 C37.9833086 27.10415454 37.9833086 27.10415454 41 27 C40.09628662 26.5035498 40.09628662 26.5035498 39.17431641 25.99707031 C28.43964952 20.07660306 17.78551471 14.0887307 7.5625 7.3125 C6.79437988 6.8081543 6.02625977 6.30380859 5.23486328 5.78417969 C3.44999777 4.5799231 1.71812025 3.2977063 0 2 C0 1.34 0 0.68 0 0 Z " fill="#060606" transform="translate(332,806)"/>
<path d="M0 0 C1.32 0 2.64 0 4 0 C5.2681483 2.53629661 5.12701041 4.29932899 5.12939453 7.13867188 C5.13254669 8.21580444 5.13569885 9.29293701 5.13894653 10.40270996 C5.1369223 11.57950317 5.13489807 12.75629639 5.1328125 13.96875 C5.13376923 15.1916272 5.13472595 16.41450439 5.13571167 17.67443848 C5.13639444 20.28393606 5.13453348 22.89343533 5.13037109 25.50292969 C5.12513379 29.40043241 5.13025441 33.29781393 5.13671875 37.1953125 C5.14071143 49.55922558 5.02402523 61.90915676 4.57421875 74.265625 C4.53809479 75.30199097 4.50197083 76.33835693 4.4647522 77.40612793 C4.20454658 83.74539947 3.6226784 89.97455773 2.6875 96.25 C2.58319672 96.95467407 2.47889343 97.65934814 2.37142944 98.38537598 C1.42008457 103.68875841 -0.40856795 108.13824654 -4.88671875 111.35546875 C-14.24365319 114.20924728 -25.78136107 111.51837505 -35 109 C-35.99 108.34 -36.98 107.68 -38 107 C-38 106.01 -38 105.02 -38 104 C-35.48417767 102.74208884 -33.69201849 102.85794795 -30.87890625 102.82421875 C-29.86119141 102.80037109 -28.84347656 102.77652344 -27.79492188 102.75195312 C-25.64408075 102.70906626 -23.49297653 102.67777116 -21.34179688 102.65820312 C-20.32279297 102.63048828 -19.30378906 102.60277344 -18.25390625 102.57421875 C-16.85120483 102.55234497 -16.85120483 102.55234497 -15.42016602 102.5300293 C-12.89378976 102.20042378 -12.89378976 102.20042378 -11.23413086 100.27661133 C-8.59261537 95.40378602 -8.70904196 89.86556469 -8.38330078 84.43359375 C-8.32945221 83.58258087 -8.27560364 82.73156799 -8.22012329 81.85476685 C-8.10368022 80.01223987 -7.98862 78.16962508 -7.87479019 76.32693481 C-7.69358105 73.40962508 -7.5065438 70.49274595 -7.31759644 67.57592773 C-6.78063111 59.28459557 -6.24695412 50.99310574 -5.73486328 42.70019531 C-5.42093418 37.62325304 -5.09409244 32.5472835 -4.75878525 27.47171021 C-4.63358385 25.53913807 -4.51321991 23.60624619 -4.39780045 21.67306519 C-4.23590248 18.96989865 -4.05757832 16.26827709 -3.87548828 13.56640625 C-3.80986694 12.37085617 -3.80986694 12.37085617 -3.74291992 11.15115356 C-3.42621012 6.74223401 -2.93892718 3.40581405 0 0 Z " fill="#F6F6F6" transform="translate(526,337)"/>
<path d="M0 0 C0.66 0 1.32 0 2 0 C8.2597597 12.51951941 0.76896072 35.81631101 -3 48 C-9.55983684 66.83675371 -20.38929977 79.1427927 -38 88 C-42.24978653 90.01029964 -45.35859834 91.44917126 -50 90 C-47.32381283 87.13440233 -44.81335464 85.1772754 -41.375 83.3125 C-20.14415025 70.77975169 -10.42815338 48.1011305 -4.25 25.22265625 C-2.9127222 19.1108788 -2.34413421 12.83962445 -1.69628906 6.62280273 C-1.10443316 1.10443316 -1.10443316 1.10443316 0 0 Z " fill="#F5F5F5" transform="translate(686,344)"/>
<path d="M0 0 C0.84820312 0.37737305 1.69640625 0.75474609 2.5703125 1.14355469 C4.02630859 1.76580933 4.02630859 1.76580933 5.51171875 2.40063477 C6.56230469 2.86751709 7.61289062 3.33439941 8.6953125 3.81542969 C30.47542207 12.97804157 52.39971029 19.5855082 75.6953125 23.56542969 C75.0353125 25.21542969 74.3753125 26.86542969 73.6953125 28.56542969 C68.0703125 28.81542969 68.0703125 28.81542969 64.6953125 26.56542969 C62.82644391 25.98529236 62.82644391 25.98529236 60.7578125 25.59277344 C59.95939941 25.42044189 59.16098633 25.24811035 58.33837891 25.07055664 C57.46616699 24.88323975 56.59395508 24.69592285 55.6953125 24.50292969 C34.16041459 19.58977423 13.72334492 11.79058607 -6.3046875 2.56542969 C-2.98685082 -0.56319857 -2.98685082 -0.56319857 0 0 Z " fill="#131413" transform="translate(409.3046875,845.4345703125)"/>
<path d="M0 0 C0.72720245 -0.00428513 1.45440491 -0.00857025 2.2036438 -0.01298523 C3.73487309 -0.01870115 5.26612952 -0.01924909 6.79736328 -0.01489258 C9.11929485 -0.01173712 11.43994471 -0.03520859 13.76171875 -0.06054688 C15.25781091 -0.06282088 16.75390646 -0.0635229 18.25 -0.0625 C19.27539383 -0.07631462 19.27539383 -0.07631462 20.32150269 -0.09040833 C25.59652738 -0.04068035 29.4690056 1.27921919 34.2578125 3.30078125 C34.2578125 3.96078125 34.2578125 4.62078125 34.2578125 5.30078125 C21.07651935 11.47951241 -0.30719803 10.15471293 -13.7421875 5.30078125 C-13.7421875 4.31078125 -13.7421875 3.32078125 -13.7421875 2.30078125 C-9.10121403 0.49095471 -4.93069531 -0.00653517 0 0 Z " fill="#F6F6F6" transform="translate(496.7421875,479.69921875)"/>
<path d="M0 0 C1.03382813 -0.01224609 2.06765625 -0.02449219 3.1328125 -0.03710938 C10.15526203 -0.05037597 17.83258203 -0.02120899 24.25 3.1875 C23.92 4.1775 23.59 5.1675 23.25 6.1875 C16.51626381 9.14955404 9.09572148 8.48099832 1.875 8.4375 C0.59882813 8.44523437 -0.67734375 8.45296875 -1.9921875 8.4609375 C-8.84805332 8.44677249 -15.19145829 8.29409798 -21.75 6.1875 C-22.08 5.1975 -22.41 4.2075 -22.75 3.1875 C-15.31182419 -0.09404815 -7.99498476 0.00491092 0 0 Z " fill="#F4F4F5" transform="translate(505.75,501.8125)"/>
<path d="M0 0 C0.928125 0.20625 1.85625 0.4125 2.8125 0.625 C-0.40402232 3.93232142 -3.69414629 6.91582388 -7.31640625 9.76953125 C-13.28661618 14.60599221 -18.71930443 19.85990035 -24.125 25.3125 C-25.04345703 26.22322266 -25.96191406 27.13394531 -26.90820312 28.07226562 C-31.2030528 32.37962761 -34.97110052 36.47040655 -38.1875 41.625 C-40.40887754 42.53968487 -41.81148477 42.625 -44.1875 42.625 C-42.92243308 39.0251119 -41.54817228 36.59216475 -38.9140625 33.83984375 C-38.25986328 33.15003418 -37.60566406 32.46022461 -36.93164062 31.74951172 C-36.23232422 31.02779785 -35.53300781 30.30608398 -34.8125 29.5625 C-34.09513672 28.81242676 -33.37777344 28.06235352 -32.63867188 27.28955078 C-30.49778935 25.05859105 -28.34546382 22.83943105 -26.1875 20.625 C-25.59420898 20.0151123 -25.00091797 19.40522461 -24.38964844 18.77685547 C-5.42924309 -0.63873448 -5.42924309 -0.63873448 0 0 Z " fill="#131413" transform="translate(283.1875,226.375)"/>
<path d="M0 0 C3.80615247 -0.24044076 5.84906614 0.15411416 9.01171875 2.2734375 C10.13622437 3.00941162 10.13622437 3.00941162 11.28344727 3.76025391 C12.07678467 4.29312012 12.87012207 4.82598633 13.6875 5.375 C21.09099889 10.21522088 28.59921403 14.68424563 36.38745117 18.87646484 C41.81393278 21.81393278 41.81393278 21.81393278 44 24 C41.82568359 25.15722656 41.82568359 25.15722656 39 26 C36.46728516 25.10058594 36.46728516 25.10058594 33.7890625 23.484375 C32.79777344 22.89688477 31.80648438 22.30939453 30.78515625 21.70410156 C29.74230469 21.05924805 28.69945312 20.41439453 27.625 19.75 C26.55894531 19.10772461 25.49289062 18.46544922 24.39453125 17.80371094 C21.24683253 15.89396749 18.11960707 13.9552395 15 12 C14.14631836 11.46503906 13.29263672 10.93007813 12.41308594 10.37890625 C10.26410738 9.01899871 8.12765912 7.64297752 6 6.25 C5.37818848 5.84491211 4.75637695 5.43982422 4.11572266 5.02246094 C2.70455953 4.07073672 1.34495161 3.04319965 0 2 C0 1.34 0 0.68 0 0 Z " fill="#0D0E0E" transform="translate(332,806)"/>
<path d="M0 0 C0.66 0.33 1.32 0.66 2 1 C1.81176758 2.82739258 1.81176758 2.82739258 1 5 C-1.16137695 6.44799805 -1.16137695 6.44799805 -3.98828125 7.76171875 C-5.51291992 8.48004883 -5.51291992 8.48004883 -7.06835938 9.21289062 C-8.67420898 9.94282227 -8.67420898 9.94282227 -10.3125 10.6875 C-11.37146484 11.18572266 -12.43042969 11.68394531 -13.52148438 12.19726562 C-22.03220849 16.15961792 -22.03220849 16.15961792 -26 17 C-25.84350586 14.69677734 -25.84350586 14.69677734 -25 12 C-22.62329102 10.31494141 -22.62329102 10.31494141 -19.50390625 8.8515625 C-18.38822266 8.32175781 -17.27253906 7.79195312 -16.12304688 7.24609375 C-14.94806641 6.71113281 -13.77308594 6.17617188 -12.5625 5.625 C-11.39138672 5.06683594 -10.22027344 4.50867188 -9.01367188 3.93359375 C-2.66562966 0.9665342 -2.66562966 0.9665342 0 0 Z " fill="#111211" transform="translate(625,837)"/>
<path d="M0 0 C0.66 0.33 1.32 0.66 2 1 C2.33 1.99 2.66 2.98 3 4 C-6.9 10.435 -6.9 10.435 -17 17 C-17.33 16.34 -17.66 15.68 -18 15 C-16.02508966 10.68471548 -13.58714606 8.76685207 -9.5625 6.375 C-6.24328426 4.37895462 -3.055567 2.38377567 0 0 Z " fill="#101110" transform="translate(684,802)"/>
<path d="M0 0 C0.99 0.33 1.98 0.66 3 1 C2.4550762 5.75900116 0.28403087 9.29723988 -2.25 13.25 C-2.63285156 13.88679688 -3.01570312 14.52359375 -3.41015625 15.1796875 C-5.2942433 18.14129591 -6.40199519 19.80289227 -9.796875 20.921875 C-10.52390625 20.94765625 -11.2509375 20.9734375 -12 21 C-10.32508169 16.11963459 -7.63208039 12.00847052 -4.875 7.6875 C-4.40707031 6.94693359 -3.93914062 6.20636719 -3.45703125 5.44335938 C-2.30835804 3.62658032 -1.15467631 1.81296963 0 0 Z " fill="#111111" transform="translate(216,297)"/>
<path d="M0 0 C1.32 0.66 2.64 1.32 4 2 C2.62441938 4.65825709 1.22657859 7.29982884 -0.1875 9.9375 C-0.57486328 10.69224609 -0.96222656 11.44699219 -1.36132812 12.22460938 C-4.37314378 17.77531095 -4.37314378 17.77531095 -7.80078125 19.00390625 C-8.52652344 19.00261719 -9.25226562 19.00132812 -10 19 C-8.40376856 14.60616294 -6.21975667 10.71004193 -3.875 6.6875 C-3.50246094 6.04232422 -3.12992188 5.39714844 -2.74609375 4.73242188 C-1.83367787 3.15324055 -0.91724491 1.57638136 0 0 Z " fill="#0F0F0F" transform="translate(814,670)"/>
<path d="M0 0 C0.99 0.33 1.98 0.66 3 1 C2.01 1.66 1.02 2.32 0 3 C-0.27972656 3.76699219 -0.55945313 4.53398438 -0.84765625 5.32421875 C-2.3654728 8.84864022 -4.45784446 10.42640134 -7.4375 12.8125 C-8.40558594 13.60269531 -9.37367188 14.39289062 -10.37109375 15.20703125 C-13 17 -13 17 -16 17 C-13.09746162 9.87558761 -5.62269141 4.93669856 0 0 Z " fill="#0F0F0F" transform="translate(731,768)"/>
<path d="M0 0 C6.73469382 3.01288934 11.23491579 8.82526189 15 15 C14.01 16.485 14.01 16.485 13 18 C10.55717755 16.77858878 9.76674723 15.46677975 8.1875 13.25 C6.27029651 10.61207873 4.50363131 8.52521256 2.125 6.25 C0 4 0 4 0 0 Z " fill="#060707" transform="translate(760,251)"/>
<path d="M0 0 C2.03714308 3.05571461 2.81819953 5.34998123 3.75 8.875 C4.03359375 9.90367187 4.3171875 10.93234375 4.609375 11.9921875 C5.04638757 15.35718431 4.52068763 17.01372212 3 20 C0.71635001 16.57452501 -0.13400707 13.24343863 -1.125 9.3125 C-1.30675781 8.61060547 -1.48851562 7.90871094 -1.67578125 7.18554688 C-2.12227079 5.45833732 -2.5618166 3.72933544 -3 2 C-2.01 1.34 -1.02 0.68 0 0 Z " fill="#111111" transform="translate(841,383)"/>
<path d="M0 0 C4.29 0 8.58 0 13 0 C10.4345406 2.5654594 8.52313332 2.54046087 5 3 C8.96 3.33 12.92 3.66 17 4 C17 4.33 17 4.66 17 5 C11.39 5 5.78 5 0 5 C0 3.35 0 1.7 0 0 Z " fill="#1E1E1E" transform="translate(500,872)"/>
<path d="M0 0 C1.77108948 1.12459671 3.54186236 2.24969203 5.3125 3.375 C6.29863281 4.00148437 7.28476562 4.62796875 8.30078125 5.2734375 C10.21287929 6.49651613 12.1114034 7.7409356 14 9 C13.67 9.66 13.34 10.32 13 11 C8.71 8.69 4.42 6.38 0 4 C0 2.68 0 1.36 0 0 Z " fill="#DFDFDF" transform="translate(699,203)"/>
<path d="M0 0 C4.20626034 1.50223584 5.73900021 4.28550034 8 8 C7.01 9.485 7.01 9.485 6 11 C3.18480957 9.59240479 2.38708362 7.77416723 1 5 C1.33 4.01 1.66 3.02 2 2 C1.34 2 0.68 2 0 2 C0 1.34 0 0.68 0 0 Z " fill="#191919" transform="translate(767,258)"/>
<path d="M0 0 C2.45823172 3.68734758 3.01242616 6.69699971 4 11 C3.01 11.495 3.01 11.495 2 12 C1.71125 11.38125 1.4225 10.7625 1.125 10.125 C0.06279958 7.86674235 0.06279958 7.86674235 -2 6 C-2.625 3.875 -2.625 3.875 -3 2 C-2.01 1.34 -1.02 0.68 0 0 Z " fill="#161717" transform="translate(841,383)"/>
<path d="M0 0 C0.66 0.33 1.32 0.66 2 1 C2.33 1.99 2.66 2.98 3 4 C0.69 5.32 -1.62 6.64 -4 8 C-4.25 5.6875 -4.25 5.6875 -4 3 C-2 1.1875 -2 1.1875 0 0 Z " fill="#171817" transform="translate(684,802)"/>
<path d="M0 0 C0.66 0.33 1.32 0.66 2 1 C0.68884949 4.93345152 -0.84212778 5.32374076 -4.4375 7.25 C-5.92056641 8.06210938 -5.92056641 8.06210938 -7.43359375 8.890625 C-8.28050781 9.25671875 -9.12742187 9.6228125 -10 10 C-10.66 9.67 -11.32 9.34 -12 9 C-8.04 6.03 -4.08 3.06 0 0 Z " fill="#D9D9D8" transform="translate(314,203)"/>
<path d="M0 0 C0.29296875 6.0546875 0.29296875 6.0546875 0 8 C-0.99 8.66 -1.98 9.32 -3 10 C-3.6875 6.6875 -3.6875 6.6875 -4 3 C-1.87096774 0 -1.87096774 0 0 0 Z " fill="#161616" transform="translate(859,451)"/>
<path d="M0 0 C0.66 0.33 1.32 0.66 2 1 C-0.64 4.63 -3.28 8.26 -6 12 C-7 10 -7 10 -6.328125 7.87109375 C-5.97234375 7.06800781 -5.6165625 6.26492188 -5.25 5.4375 C-4.73179687 4.22900391 -4.73179687 4.22900391 -4.203125 2.99609375 C-3 1 -3 1 0 0 Z " fill="#DBDBDA" transform="translate(242,261)"/>
<path d="M0 0 C1.65 0 3.3 0 5 0 C4.04578192 1.14926266 3.08647955 2.29430541 2.125 3.4375 C1.59132812 4.07558594 1.05765625 4.71367187 0.5078125 5.37109375 C-1 7 -1 7 -3 8 C-1.125 2.25 -1.125 2.25 0 0 Z " fill="#DEDEDD" transform="translate(204,324)"/>
<path d="M0 0 C0.33 1.65 0.66 3.3 1 5 C-4.75 3.25 -4.75 3.25 -7 1 C-3.375 -1.125 -3.375 -1.125 0 0 Z " fill="#191A19" transform="translate(410,846)"/>
<path d="M0 0 C0.66 0.33 1.32 0.66 2 1 C1.8125 2.875 1.8125 2.875 1 5 C-1.5625 6.25 -1.5625 6.25 -4 7 C-4 5.35 -4 3.7 -4 2 C-2.125 0.9375 -2.125 0.9375 0 0 Z " fill="#191A19" transform="translate(625,837)"/>
<path d="M0 0 C1.98 0.66 3.96 1.32 6 2 C4 4 4 4 1 5 C0.34 4.67 -0.32 4.34 -1 4 C-0.67 2.68 -0.34 1.36 0 0 Z " fill="#1F201F" transform="translate(370,827)"/>
<path d="M0 0 C0.33 0 0.66 0 1 0 C1.33 4.62 1.66 9.24 2 14 C-1 10 -1 10 -1.07421875 7.421875 C-0.94660156 6.54015625 -0.81898438 5.6584375 -0.6875 4.75 C-0.56761719 3.85796875 -0.44773438 2.9659375 -0.32421875 2.046875 C-0.21722656 1.37140625 -0.11023438 0.6959375 0 0 Z " fill="#BFBFBE" transform="translate(189,635)"/>
<path d="M0 0 C1.99097846 2.98646769 2.94124926 5.59687262 4 9 C1.35247996 6.42215154 -0.94432065 4.08351902 -3 1 C-2.01 0.67 -1.02 0.34 0 0 Z " fill="#D7D7D7" transform="translate(175,622)"/>
<path d="M0 0 C2.475 0.99 2.475 0.99 5 2 C4.01 3.32 3.02 4.64 2 6 C1.01 5.01 0.02 4.02 -1 3 C-0.67 2.01 -0.34 1.02 0 0 Z " fill="#1C1D1C" transform="translate(355,818)"/>
</svg>