<svg xmlns="http://www.w3.org/2000/svg" version="1.0" preserveAspectRatio="xMidYMid meet" viewBox="18 23 991 982">

<g transform="translate(0.000000,1024.000000) scale(0.100000,-0.100000)" fill="#000000" stroke="none">
<path d="M180 5100 l0 -4910 4955 0 4955 0 0 4910 0 4910 -4955 0 -4955 0 0 -4910z m200 4752 l5 -24 29 23 c27 21 30 21 41 5 11 -14 17 -15 39 -5 22 10 29 10 42 -3 13 -13 13 -16 -1 -28 -9 -7 -29 -13 -45 -13 -16 0 -31 -6 -34 -14 -7 -18 -26 -16 -26 3 0 15 -2 15 -25 0 -32 -21 -55 -20 -55 3 0 10 -3 33 -6 51 -6 28 -4 32 12 28 10 -2 21 -14 24 -26z m9441 2 c13 -12 22 -13 37 -5 10 5 29 7 42 4 20 -5 22 -10 17 -51 -4 -36 -12 -52 -38 -74 -19 -15 -39 -28 -44 -28 -16 0 -66 51 -62 63 6 19 37 20 56 3 16 -15 20 -15 50 0 26 13 30 19 20 30 -7 8 -20 11 -35 8 -14 -4 -24 -2 -24 5 0 7 -8 7 -27 0 -17 -6 -30 -6 -36 0 -6 6 -18 6 -33 -1 -25 -12 -31 -32 -14 -43 21 -13 9 -34 -25 -45 -41 -14 -51 -26 -35 -45 14 -16 5 -35 -16 -35 -8 0 -14 -4 -14 -9 0 -12 45 -22 64 -15 21 8 21 34 0 34 -20 0 -13 24 8 28 20 4 48 -24 48 -47 0 -9 -9 -27 -21 -40 -20 -22 -20 -23 -3 -36 26 -19 69 -19 89 1 15 15 14 19 -9 43 -31 32 -33 66 -7 81 26 13 24 15 45 -24 15 -28 16 -40 8 -65 -15 -42 -4 -103 17 -99 10 2 15 12 13 28 -1 14 -4 37 -6 53 -2 17 2 27 11 27 8 0 13 -12 13 -33 0 -18 5 -38 12 -45 8 -8 4 -20 -16 -47 -15 -19 -32 -35 -38 -35 -5 0 -24 11 -40 25 -44 37 -47 22 -4 -21 21 -21 36 -46 36 -60 0 -28 -23 -32 -42 -8 -7 9 -30 35 -51 57 -42 45 -51 42 -83 -20 -10 -21 -28 -45 -38 -54 -18 -15 -18 -20 -7 -62 7 -25 23 -55 35 -66 l22 -21 62 24 c56 22 82 21 68 -3 -3 -4 5 -18 19 -31 17 -16 31 -21 48 -16 18 4 27 1 31 -10 12 -31 7 -36 -34 -29 -38 6 -40 6 -40 -20 0 -23 -4 -26 -20 -22 -16 4 -20 1 -16 -11 9 -34 15 -138 7 -112 -5 14 -9 38 -10 53 -1 29 -29 61 -98 114 l-33 25 -25 -30 c-28 -33 -80 -51 -98 -33 -7 7 -6 15 3 26 12 15 14 15 22 1 13 -24 34 -19 58 11 26 33 21 63 -22 116 -38 49 -35 87 16 191 41 83 46 122 16 131 -14 5 -33 -5 -67 -34 -55 -46 -90 -61 -140 -61 -20 0 -44 -6 -52 -14 -18 -16 -138 -23 -185 -11 -19 5 -31 4 -36 -6 -7 -11 -13 -10 -29 5 -11 10 -41 22 -67 27 -26 5 -53 14 -60 20 -16 13 -18 57 -5 78 8 12 13 11 29 -9 19 -24 20 -24 48 -6 l29 17 -30 -25 c-29 -25 -29 -25 -10 -46 11 -12 25 -18 34 -14 9 3 28 10 42 14 22 7 26 5 22 -9 -4 -15 7 -17 106 -19 61 0 111 0 111 2 0 11 -83 55 -93 49 -15 -9 -107 -11 -107 -2 0 3 10 13 22 21 l21 14 -31 23 c-25 17 -36 20 -51 11 -13 -7 -22 -7 -26 0 -3 6 1 13 9 16 21 8 20 24 -1 40 -17 12 -17 14 -2 29 15 16 19 16 41 1 14 -9 35 -36 48 -61 21 -41 46 -62 58 -50 3 3 -15 31 -39 62 -38 49 -52 60 -93 70 -27 7 -72 13 -100 14 -57 2 -76 7 -76 20 0 4 48 6 108 3 91 -5 113 -10 145 -30 52 -34 79 -80 74 -125 l-5 -37 54 -10 c65 -13 158 -1 194 26 17 13 26 31 28 54 3 32 -2 39 -39 67 -44 32 -74 40 -66 19 2 -7 12 -13 23 -13 23 0 32 -39 14 -61 -17 -20 -23 -18 -42 16 -19 33 -54 41 -60 13 -3 -14 -8 -9 -21 16 -9 19 -17 36 -17 37 0 2 18 7 40 10 46 7 51 24 15 48 -31 20 -32 40 -3 60 15 11 26 12 40 5 21 -11 24 -29 4 -29 -8 0 -16 -7 -20 -15 -4 -12 3 -15 34 -15 32 0 39 4 42 21 5 33 34 47 54 27 24 -24 11 -52 -21 -44 -38 10 -30 -7 21 -47 l47 -37 39 32 c22 17 42 37 45 45 9 24 -7 28 -38 10 -33 -18 -69 -23 -69 -8 0 5 11 23 25 39 21 25 31 29 72 28 26 -1 54 -5 62 -10 9 -6 17 -3 23 8 11 20 27 20 49 0z m-9165 -4 c7 0 18 -9 24 -19 20 -39 -17 -72 -39 -34 -5 10 -13 15 -17 11 -4 -4 5 -22 18 -41 14 -18 28 -41 30 -52 3 -17 6 -16 20 10 27 51 56 70 104 70 34 0 44 4 44 16 0 9 7 22 15 29 13 10 19 10 35 -5 11 -10 20 -26 20 -37 0 -14 -8 -18 -35 -18 -24 0 -35 -5 -35 -15 0 -26 4 -30 33 -27 27 3 37 -11 17 -23 -7 -4 -8 -24 -4 -51 7 -50 -6 -59 -25 -16 l-13 27 -15 -22 c-18 -26 -43 -30 -43 -8 0 9 7 30 16 47 l16 31 -29 -7 c-48 -13 -77 -30 -90 -56 -11 -22 -9 -28 14 -52 47 -50 105 -71 180 -66 73 5 93 20 93 71 0 15 5 37 11 49 9 16 7 24 -12 44 l-22 24 26 0 c21 0 27 -5 27 -21 l0 -20 26 20 c14 11 50 25 80 31 57 12 64 19 39 40 -20 16 -16 49 7 63 34 22 66 -41 36 -71 -9 -9 -4 -12 25 -12 35 0 37 2 35 28 -2 33 8 52 29 52 12 0 14 -8 11 -35 -2 -19 -2 -35 2 -36 3 0 13 -2 23 -4 15 -3 17 1 12 24 -10 48 52 80 69 35 6 -17 -10 -54 -23 -54 -5 0 -11 -10 -14 -21 -5 -18 -10 -20 -29 -13 -43 15 -151 10 -200 -10 -27 -10 -48 -23 -48 -28 0 -5 5 -6 11 -3 16 10 59 -4 59 -19 0 -8 -7 -17 -16 -20 -15 -6 -15 -8 1 -32 21 -33 16 -37 -19 -19 -16 8 -32 15 -36 15 -15 0 -21 -39 -10 -60 8 -16 8 -20 -4 -20 -12 0 -13 -5 -4 -30 13 -40 4 -64 -19 -52 -10 5 -60 12 -112 16 -51 4 -111 13 -132 20 -41 14 -199 123 -199 138 0 4 11 8 25 8 19 0 25 5 25 21 0 14 -12 25 -40 37 -42 18 -47 30 -27 63 10 17 9 23 -1 26 -29 11 -42 34 -31 55 9 16 17 19 41 14 17 -3 37 -6 44 -6z m348 -48 c-6 -9 -17 -17 -25 -17 -18 0 -24 32 -8 51 11 13 14 13 28 -1 12 -12 13 -19 5 -33z m5924 15 c2 -19 -1 -27 -13 -27 -19 0 -30 24 -21 46 9 23 31 11 34 -19z m-6178 3 c0 -11 -6 -20 -14 -20 -18 0 -29 16 -21 30 11 18 35 11 35 -10z m338 -8 c3 -16 -2 -22 -17 -22 -24 0 -35 15 -27 36 9 23 40 13 44 -14z m430 1 c-2 -17 -9 -28 -18 -28 -9 0 -16 11 -18 28 -3 22 1 27 18 27 17 0 21 -5 18 -27z m120 3 c2 -10 -1 -23 -8 -30 -17 -17 -44 22 -28 41 14 17 32 12 36 -11z m117 -1 c0 -11 -8 -21 -17 -23 -14 -3 -18 3 -18 23 0 20 4 26 18 23 9 -2 17 -12 17 -23z m110 0 c0 -10 -5 -20 -11 -22 -13 -4 -27 24 -18 38 9 15 29 4 29 -16z m115 5 c0 -11 -7 -20 -15 -20 -8 0 -15 9 -15 20 0 11 7 20 15 20 8 0 15 -9 15 -20z m117 4 c8 -20 -8 -36 -26 -25 -15 10 -8 41 9 41 6 0 13 -7 17 -16z m108 -5 c0 -7 -8 -15 -17 -17 -18 -3 -25 18 -11 32 10 10 28 1 28 -15z m110 1 c0 -7 -6 -15 -12 -17 -8 -3 -13 4 -13 17 0 13 5 20 13 18 6 -3 12 -11 12 -18z m260 10 c4 -6 1 -18 -6 -26 -11 -13 -14 -13 -27 0 -8 8 -11 19 -8 25 9 14 33 14 41 1z m90 0 c4 -6 1 -18 -6 -26 -14 -17 -31 0 -22 23 6 16 19 17 28 3z m695 -21 c0 -23 -28 -26 -37 -3 -6 16 15 37 29 28 4 -3 8 -14 8 -25z m335 6 c0 -11 -7 -21 -16 -23 -18 -3 -33 23 -23 39 10 17 39 5 39 -16z m120 6 c0 -8 -8 -19 -17 -25 -22 -13 -44 5 -34 29 7 20 51 16 51 -4z m115 -6 c0 -29 -34 -36 -44 -9 -8 21 1 34 25 34 14 0 19 -7 19 -25z m110 6 c0 -11 -5 -23 -11 -27 -14 -8 -29 14 -22 33 8 20 33 16 33 -6z m125 -6 c0 -23 -34 -33 -45 -14 -13 20 1 40 24 37 13 -2 21 -10 21 -23z m115 0 c0 -25 -23 -35 -35 -15 -10 16 2 40 20 40 9 0 15 -9 15 -25z m128 2 c2 -12 -3 -17 -17 -17 -15 0 -21 6 -21 21 0 25 33 22 38 -4z m126 14 c9 -14 -4 -41 -19 -41 -18 0 -28 17 -21 35 6 17 32 20 40 6z m124 -14 c4 -21 -27 -35 -38 -17 -12 19 0 42 19 38 9 -2 17 -11 19 -21z m117 3 c0 -8 -8 -16 -17 -18 -13 -2 -18 3 -18 18 0 15 5 20 18 18 9 -2 17 -10 17 -18z m133 -2 c-3 -25 -17 -32 -37 -19 -19 12 -6 41 19 41 16 0 21 -5 18 -22z m122 2 c0 -24 -26 -38 -42 -22 -16 16 -2 42 22 42 13 0 20 -7 20 -20z m120 -5 c0 -29 -29 -35 -50 -10 -16 19 -4 35 26 35 19 0 24 -5 24 -25z m114 16 c9 -14 -4 -41 -19 -41 -18 0 -28 17 -21 35 6 17 32 20 40 6z m243 -7 c1 -5 -2 -16 -7 -24 -12 -20 -35 2 -26 25 6 17 27 16 33 -1z m120 0 c3 -8 1 -20 -6 -27 -14 -14 -47 15 -37 32 10 16 36 13 43 -5z m113 -9 c0 -15 -6 -25 -14 -25 -16 0 -25 19 -18 38 8 22 32 13 32 -13z m247 9 c8 -21 -13 -42 -28 -27 -13 13 -5 43 11 43 6 0 13 -7 17 -16z m233 -9 c0 -27 -9 -32 -27 -14 -14 14 -6 39 13 39 8 0 14 -10 14 -25z m110 -1 c0 -16 -16 -19 -25 -4 -8 13 4 32 16 25 5 -4 9 -13 9 -21z m120 0 c0 -14 -21 -19 -33 -7 -9 9 13 34 24 27 5 -3 9 -12 9 -20z m375 1 c0 -28 -29 -25 -33 3 -3 19 0 23 15 20 10 -2 18 -12 18 -23z m402 14 c14 -14 6 -39 -12 -39 -18 0 -28 17 -21 35 6 18 18 19 33 4z m121 -16 c-3 -31 -34 -44 -44 -19 -9 24 3 46 26 46 17 0 21 -5 18 -27z m462 8 c0 -24 -18 -37 -32 -23 -8 8 -7 16 2 27 17 21 30 19 30 -4z m104 -14 c-3 -9 -10 -17 -15 -17 -11 0 -12 34 -2 44 11 11 24 -9 17 -27z m116 14 c0 -11 -5 -23 -11 -27 -15 -9 -33 12 -26 30 9 23 37 20 37 -3z m113 7 c6 -19 -3 -38 -18 -38 -7 0 -15 6 -18 13 -6 18 3 37 18 37 7 0 15 -6 18 -12z m117 -7 c0 -11 -4 -22 -8 -25 -14 -9 -35 12 -29 28 9 23 37 20 37 -3z m107 3 c8 -21 -13 -42 -28 -27 -13 13 -5 43 11 43 6 0 13 -7 17 -16z m239 -20 c-5 -13 -10 -14 -18 -6 -6 6 -8 18 -4 28 5 13 10 14 18 6 6 -6 8 -18 4 -28z m349 15 c8 -25 -11 -75 -32 -84 -23 -8 -29 3 -15 25 7 11 12 30 12 43 0 40 24 51 35 16z m125 -4 c0 -16 -6 -25 -15 -25 -9 0 -15 9 -15 25 0 16 6 25 15 25 9 0 15 -9 15 -25z m120 0 c0 -25 -23 -35 -35 -15 -10 16 2 40 20 40 9 0 15 -9 15 -25z m124 9 c8 -21 -1 -34 -25 -34 -14 0 -19 7 -19 25 0 29 34 36 44 9z m-6896 -5 c-2 -6 -8 -10 -13 -10 -5 0 -11 4 -13 10 -2 6 4 11 13 11 9 0 15 -5 13 -11z m344 -4 c0 -5 -5 -11 -11 -13 -6 -2 -11 4 -11 13 0 9 5 15 11 13 6 -2 11 -8 11 -13z m288 -1 c0 -9 -5 -14 -12 -12 -18 6 -21 28 -4 28 9 0 16 -7 16 -16z m130 1 c0 -8 -7 -15 -15 -15 -8 0 -15 7 -15 15 0 8 7 15 15 15 8 0 15 -7 15 -15z m284 7 c9 -14 -12 -35 -28 -29 -23 9 -20 37 3 37 11 0 22 -4 25 -8z m104 -9 c-4 -22 -22 -20 -26 1 -2 10 3 16 13 16 10 0 15 -7 13 -17z m1802 2 c0 -8 -7 -15 -15 -15 -8 0 -15 7 -15 15 0 8 7 15 15 15 8 0 15 -7 15 -15z m490 -6 c0 -25 -33 -22 -38 4 -2 12 3 17 17 17 15 0 21 -6 21 -21z m230 1 c0 -11 -4 -20 -10 -20 -5 0 -10 2 -10 4 0 2 -3 11 -6 20 -4 11 -1 16 10 16 9 0 16 -8 16 -20z m470 11 c0 -13 -26 -32 -33 -24 -14 13 -6 33 13 33 11 0 20 -4 20 -9z m140 -6 c0 -8 -7 -15 -15 -15 -8 0 -15 7 -15 15 0 8 7 15 15 15 8 0 15 -7 15 -15z m360 -1 c0 -9 -5 -14 -12 -12 -18 6 -21 28 -4 28 9 0 16 -7 16 -16z m380 -4 c0 -11 -7 -20 -15 -20 -8 0 -15 9 -15 20 0 11 7 20 15 20 8 0 15 -9 15 -20z m100 0 c0 -11 -6 -20 -14 -20 -18 0 -29 16 -21 30 11 18 35 11 35 -10z m148 3 c-2 -10 -10 -18 -18 -18 -8 0 -16 8 -18 18 -2 12 3 17 18 17 15 0 20 -5 18 -17z m792 4 c0 -8 -3 -17 -7 -20 -9 -9 -34 13 -27 24 8 14 34 11 34 -4z m238 -4 c-4 -22 -22 -20 -26 1 -2 10 3 16 13 16 10 0 15 -7 13 -17z m122 3 c0 -20 -19 -31 -32 -18 -6 6 -7 15 -4 21 10 16 36 13 36 -3z m-5970 -6 c0 -5 -2 -10 -4 -10 -3 0 -8 5 -11 10 -3 6 -1 10 4 10 6 0 11 -4 11 -10z m-2322 -35 c18 -39 15 -45 -23 -45 -41 0 -55 -23 -53 -87 1 -21 -2 -48 -6 -60 -6 -19 -3 -23 29 -29 38 -7 57 -25 34 -32 -8 -3 -38 -29 -66 -59 -52 -54 -53 -54 -64 -31 -5 13 -20 28 -32 33 -27 12 -36 55 -12 55 8 0 21 -11 27 -25 6 -14 14 -25 18 -25 12 0 31 28 29 42 -1 7 1 20 5 30 4 9 1 29 -8 46 -8 16 -13 32 -10 35 3 3 7 26 9 51 4 50 11 66 27 66 5 0 23 14 38 30 34 37 43 37 58 5z m-139 -41 c-16 -17 -20 -30 -15 -49 10 -39 -3 -50 -30 -24 -34 31 -31 66 6 87 16 9 30 21 30 26 0 5 7 3 15 -4 14 -12 13 -16 -6 -36z m9501 -39 c0 -14 -7 -28 -15 -32 -22 -8 -28 2 -21 32 8 33 36 33 36 0z m-9323 -41 c4 -10 -1 -20 -11 -26 -17 -9 -17 -11 0 -29 9 -10 26 -19 36 -19 15 0 17 -4 9 -18 -7 -14 -1 -33 26 -82 98 -176 100 -185 54 -201 -23 -8 -33 -21 -45 -56 -16 -46 -15 -54 12 -86 13 -15 17 -15 31 -3 14 13 19 12 39 -4 20 -17 21 -19 5 -23 -33 -9 -82 -6 -91 6 -5 7 -12 25 -16 40 l-7 28 -47 -39 c-26 -22 -60 -46 -77 -53 -24 -11 -31 -22 -36 -54 -3 -22 -7 -32 -8 -23 0 9 -6 18 -11 20 -6 2 -2 19 10 42 22 44 19 56 -16 56 -15 0 -24 6 -24 15 0 8 3 15 8 15 4 0 18 9 32 19 24 19 24 20 5 40 -33 37 -6 46 64 22 88 -30 95 -29 120 29 20 46 20 52 7 85 -8 19 -26 50 -40 68 -15 19 -26 47 -26 64 0 17 -7 36 -14 43 -8 6 -23 34 -32 62 -16 49 -16 52 2 65 24 17 33 16 41 -3z m-201 -59 c9 -14 13 -32 10 -41 -6 -15 -8 -15 -26 1 -21 19 -28 65 -10 65 5 0 17 -11 26 -25z m908 -18 c11 -42 0 -60 -44 -75 -27 -10 -28 -9 -27 24 1 20 6 34 13 34 7 0 15 14 19 31 9 39 27 32 39 -14z m8136 2 c0 -6 -4 -7 -10 -4 -5 3 -10 11 -10 16 0 6 5 7 10 4 6 -3 10 -11 10 -16z m-8294 -76 c13 -17 13 -17 14 0 0 19 13 22 41 6 23 -12 16 -29 -10 -29 -10 0 -24 -7 -31 -15 -18 -22 -27 -19 -39 16 -14 39 -14 39 0 39 7 0 18 -8 25 -17z m-556 -11 c0 -4 -20 -27 -45 -51 -54 -51 -57 -70 -13 -67 24 1 33 -4 36 -17 3 -16 -3 -17 -59 -14 -35 2 -64 8 -66 14 -5 15 30 84 54 105 31 28 93 48 93 30z m-200 -97 c0 -8 -9 -19 -20 -25 -17 -9 -20 -8 -20 8 0 10 3 22 7 25 12 12 33 7 33 -8z m602 -2 c43 -39 9 -93 -59 -93 -47 0 -53 8 -24 34 11 10 25 31 31 47 14 33 26 36 52 12z m8393 -31 c16 -26 31 -50 33 -54 2 -5 -17 -8 -42 -8 -47 0 -76 23 -76 62 0 15 35 49 50 48 3 0 18 -22 35 -48z m540 38 c4 -6 4 -18 1 -27 -5 -12 -9 -13 -21 -3 -8 7 -15 19 -15 26 0 16 26 19 35 4z m-113 -36 c17 -10 7 -24 -17 -24 -32 0 -76 21 -69 32 6 9 69 3 86 -8z m-9415 -71 c4 -10 -2 -23 -18 -35 -26 -22 -35 -12 -25 27 7 28 33 33 43 8z m9523 2 c15 -18 6 -45 -14 -45 -22 0 -38 34 -24 48 16 16 23 15 38 -3z m-9026 -31 c21 -21 20 -37 -4 -59 -25 -22 -75 -24 -97 -3 -14 15 -12 19 27 47 49 36 53 36 74 15z m8593 -10 c53 -31 55 -57 5 -62 -59 -6 -104 42 -70 76 16 16 14 16 65 -14z m-8517 -15 c0 -20 -15 -26 -25 -9 -9 15 3 43 15 35 5 -3 10 -15 10 -26z m8408 4 c5 -17 -26 -29 -40 -15 -6 6 -7 15 -3 22 9 14 37 9 43 -7z m224 -26 c22 -22 15 -37 -17 -37 -35 0 -48 31 -28 60 13 18 18 20 21 9 3 -8 13 -22 24 -32z m-8853 4 c8 -14 7 -22 -3 -30 -20 -17 -46 -2 -46 25 0 30 34 33 49 5z m4867 -50 c632 -85 1201 -298 1719 -644 508 -339 958 -809 1276 -1332 293 -484 465 -977 550 -1580 26 -182 37 -623 20 -815 -111 -1277 -768 -2386 -1827 -3083 -662 -437 -1427 -667 -2208 -667 -1002 1 -2037 413 -2761 1099 -533 506 -913 1120 -1120 1811 -185 621 -215 1310 -85 1960 215 1074 861 2021 1787 2623 579 377 1223 596 1908 651 28 2 172 2 320 0 201 -2 309 -8 421 -23z m-5228 -9 c3 -17 -2 -22 -17 -22 -14 0 -21 6 -21 18 0 38 33 41 38 4z m228 -76 c10 -8 16 -17 12 -21 -4 -4 -19 2 -34 14 -30 24 -10 30 22 7z m9090 -11 c-22 -16 -46 -20 -46 -7 0 15 13 22 39 22 25 -1 25 -1 7 -15z m-9322 -42 c-23 -17 -34 -17 -34 1 0 17 19 25 39 18 11 -4 10 -8 -5 -19z m359 -2 c16 -27 16 -29 -3 -46 -19 -17 -98 -40 -108 -31 -3 3 9 20 26 38 18 17 34 40 38 50 8 26 27 22 47 -11z m8867 4 c0 -8 13 -21 29 -29 31 -16 48 -45 28 -47 -31 -3 -64 4 -84 17 -27 17 -30 59 -6 73 20 11 33 6 33 -14z m309 16 c7 -5 10 -14 7 -20 -8 -13 -46 3 -46 19 0 12 20 13 39 1z m-9539 -120 c0 -24 -18 -37 -31 -24 -13 13 -1 43 17 43 8 0 14 -9 14 -19z m9547 3 c8 -21 -13 -42 -28 -27 -13 13 -5 43 11 43 6 0 13 -7 17 -16z m-9436 -48 c27 -29 -4 -44 -59 -30 -23 7 -23 7 10 38 25 23 34 27 36 16 2 -8 8 -19 13 -24z m9368 -3 c21 -15 11 -24 -39 -30 l-42 -6 23 41 c20 35 25 38 33 24 5 -9 17 -22 25 -29z m-9471 -75 c-7 -19 -38 -22 -38 -4 0 10 9 16 21 16 12 0 19 -5 17 -12z m9542 -2 c0 -15 -24 -28 -34 -19 -13 14 -5 33 14 33 11 0 20 -6 20 -14z m-9550 -111 c0 -16 -6 -25 -15 -25 -9 0 -15 9 -15 25 0 16 6 25 15 25 9 0 15 -9 15 -25z m9545 15 c8 -13 -3 -50 -15 -50 -12 0 -23 37 -15 50 3 5 10 10 15 10 5 0 12 -5 15 -10z m-9545 -136 c0 -15 -6 -24 -15 -24 -15 0 -21 40 -9 53 12 11 24 -3 24 -29z m9545 -4 c0 -27 -22 -39 -31 -16 -8 22 3 49 19 43 6 -2 12 -14 12 -27z m-9548 -126 c-9 -9 -28 6 -21 18 4 6 10 6 17 -1 6 -6 8 -13 4 -17z m9543 7 c0 -6 -4 -13 -10 -16 -5 -3 -10 1 -10 9 0 9 5 16 10 16 6 0 10 -4 10 -9z m-9540 -117 c0 -15 -6 -24 -15 -24 -15 0 -21 40 -9 53 12 11 24 -3 24 -29z m9545 16 c8 -13 -4 -50 -16 -50 -13 0 -22 27 -15 45 6 17 22 20 31 5z m-9548 -146 c-9 -9 -28 6 -21 18 4 6 10 6 17 -1 6 -6 8 -13 4 -17z m9543 1 c0 -8 -4 -15 -10 -15 -5 0 -10 7 -10 15 0 8 5 15 10 15 6 0 10 -7 10 -15z m-9540 -106 c0 -10 -7 -19 -15 -19 -15 0 -21 31 -9 43 11 10 24 -3 24 -24z m9540 -3 c0 -14 -4 -27 -9 -30 -12 -8 -22 20 -15 39 9 23 24 18 24 -9z m-9540 -112 c0 -15 -6 -24 -15 -24 -15 0 -21 40 -9 53 12 11 24 -3 24 -29z m9548 0 c1 -10 -2 -26 -8 -34 -15 -23 -34 3 -26 35 8 29 30 29 34 -1z m-9548 -120 c0 -8 -7 -14 -15 -14 -15 0 -21 21 -9 33 10 9 24 -2 24 -19z m9547 0 c3 -8 -1 -23 -10 -32 -15 -14 -17 -14 -23 1 -8 21 1 47 16 47 6 0 13 -7 17 -16z m-9547 -120 c0 -8 -7 -14 -15 -14 -15 0 -21 21 -9 33 10 9 24 -2 24 -19z m9550 2 c0 -13 -20 -36 -31 -36 -13 0 -19 33 -8 46 12 15 39 8 39 -10z m-9552 -118 c-4 -27 -23 -34 -32 -13 -8 21 1 35 20 35 10 0 14 -8 12 -22z m9546 3 c9 -14 -4 -41 -20 -41 -8 0 -14 10 -14 25 0 25 23 35 34 16z m-9536 -105 c4 -20 -16 -48 -29 -40 -11 6 -12 48 -2 58 11 10 28 1 31 -18z m9527 -21 c0 -10 -5 -20 -11 -22 -13 -4 -27 24 -18 38 9 15 29 4 29 -16z m-9529 -90 c8 -19 -4 -65 -16 -65 -15 0 -32 39 -25 60 7 24 33 26 41 5z m9534 -4 c14 -26 13 -44 -4 -66 -13 -18 -14 -17 -31 9 -14 22 -16 32 -7 51 14 30 28 32 42 6z m-9530 -112 c16 -29 9 -64 -14 -64 -23 0 -36 32 -25 63 10 28 25 28 39 1z m9535 -29 c18 -20 18 -21 -1 -34 -22 -16 -44 -4 -44 24 0 34 19 39 45 10z m-9537 -102 c7 -7 8 -17 1 -30 -13 -24 -26 -23 -34 2 -11 34 10 51 33 28z m9536 -14 c13 -5 14 -9 5 -20 -17 -21 -39 -17 -39 6 0 21 8 24 34 14z m-9524 -96 c11 -21 12 -31 2 -52 -26 -57 -75 -3 -51 56 14 33 28 32 49 -4z m9538 -41 c-4 -29 -36 -46 -48 -27 -13 21 -12 54 2 68 16 16 50 -15 46 -41z m-9550 -109 c-2 -13 -10 -23 -18 -23 -8 0 -16 10 -18 23 -3 17 2 22 18 22 16 0 21 -5 18 -22z m9542 10 c0 -23 -18 -41 -34 -35 -9 4 -16 16 -16 27 0 15 7 20 25 20 14 0 25 -6 25 -12z m-9537 -95 c8 -31 5 -123 -4 -129 -5 -3 -10 -58 -11 -122 l-1 -117 -7 135 c-4 74 -10 154 -15 177 -4 23 -5 49 -2 58 8 20 35 19 40 -2z m9537 2 c9 -11 9 -31 1 -84 -16 -99 -15 -271 2 -272 10 0 10 -2 0 -6 -7 -2 -13 -16 -13 -31 0 -14 -2 -23 -5 -20 -3 2 -7 54 -10 114 -3 60 -7 147 -10 193 -7 110 4 144 35 106z m-9563 -407 c-3 -8 -6 -5 -6 6 -1 11 2 17 5 13 3 -3 4 -12 1 -19z m9571 -124 c-5 -28 -28 -29 -28 -1 0 13 3 27 7 30 10 11 25 -9 21 -29z m-9558 1 c0 -14 -4 -25 -9 -25 -12 0 -23 29 -15 41 10 18 24 9 24 -16z m5 -151 c0 -10 -8 -20 -17 -22 -18 -3 -26 27 -11 42 12 11 28 0 28 -20z m9555 2 c0 -31 -14 -40 -30 -21 -15 18 -6 45 15 45 9 0 15 -9 15 -24z m-9553 -122 c8 -21 -13 -42 -28 -27 -13 13 -5 43 11 43 6 0 13 -7 17 -16z m9553 -9 c0 -15 -6 -25 -14 -25 -16 0 -25 19 -18 38 8 22 32 13 32 -13z m-9552 -109 c6 -27 -7 -68 -20 -64 -17 6 -26 41 -17 66 10 26 32 25 37 -2z m9553 0 c8 -17 8 -29 0 -45 -14 -25 -27 -27 -35 -5 -21 55 11 102 35 50z m-9556 -167 c0 -28 -29 -38 -39 -13 -7 19 11 47 28 41 6 -2 11 -14 11 -28z m9560 21 c10 -16 -5 -50 -21 -50 -17 0 -28 24 -20 45 6 17 32 20 41 5z m-9557 -149 c-2 -15 -9 -26 -18 -26 -16 0 -25 37 -16 62 10 25 38 -5 34 -36z m9562 3 c0 -6 -7 -17 -16 -25 -13 -10 -17 -10 -25 2 -12 18 -11 26 2 51 11 21 12 21 25 3 8 -10 14 -24 14 -31z m-9565 -114 c0 -36 -29 -33 -33 3 -3 23 0 28 15 25 12 -2 18 -12 18 -28z m9563 7 c5 -27 -17 -50 -34 -36 -15 12 -19 41 -7 53 12 12 38 1 41 -17z m-9562 -134 c7 -26 -4 -55 -20 -57 -14 -2 -24 38 -15 62 11 30 27 28 35 -5z m9555 3 c15 -32 -5 -73 -27 -55 -15 12 -18 37 -8 63 9 23 23 20 35 -8z m-3 -152 c-4 -23 -26 -30 -34 -10 -8 20 15 51 29 37 5 -5 7 -17 5 -27z m-9554 17 c9 -14 -4 -41 -20 -41 -8 0 -14 10 -14 25 0 25 23 35 34 16z m-4 -150 c-13 -26 -30 -19 -30 13 0 31 11 39 28 22 11 -11 11 -18 2 -35z m9555 14 c0 -32 -19 -45 -29 -19 -9 22 3 56 17 51 7 -2 12 -16 12 -32z m-9550 -130 c0 -33 -28 -47 -39 -19 -10 25 3 56 22 52 11 -2 17 -13 17 -33z m9550 -1 c0 -19 -5 -29 -15 -29 -16 0 -25 28 -16 51 10 25 31 10 31 -22z m-9555 -135 c0 -10 -7 -19 -15 -19 -15 0 -21 31 -9 43 11 10 24 -3 24 -24z m9557 15 c8 -21 -13 -42 -28 -27 -13 13 -5 43 11 43 6 0 13 -7 17 -16z m-9563 -236 c20 -454 20 -418 -3 -418 -21 0 -21 3 -21 275 0 289 14 371 24 143z m9557 -120 c0 -139 2 -263 5 -275 3 -19 -1 -23 -22 -23 -27 0 -27 0 -21 63 4 34 9 158 13 275 4 116 11 212 16 212 4 0 8 -114 9 -252z m-9543 -366 c4 -26 -26 -42 -38 -21 -11 16 7 52 23 46 7 -2 13 -13 15 -25z m9550 8 c1 -9 -4 -24 -12 -35 -20 -27 -41 -7 -32 30 7 29 38 32 44 5z m-9552 -95 c7 -30 -2 -75 -16 -75 -6 0 -16 11 -22 25 -12 27 2 75 22 75 5 0 12 -11 16 -25z m9546 0 c8 -19 8 -31 -1 -51 -22 -48 -51 -6 -37 52 8 31 23 31 38 -1z m-9552 -150 c0 -16 -6 -25 -15 -25 -15 0 -21 31 -8 43 13 14 23 6 23 -18z m9545 15 c8 -13 -3 -50 -15 -50 -12 0 -20 28 -14 45 7 17 20 20 29 5z m2 -126 c8 -20 -13 -42 -27 -28 -12 12 -3 44 11 44 5 0 12 -7 16 -16z m-9547 -14 c0 -11 -7 -20 -15 -20 -8 0 -15 9 -15 20 0 11 7 20 15 20 8 0 15 -9 15 -20z m5 -91 c9 -28 -3 -71 -18 -66 -13 4 -22 51 -13 73 8 20 24 17 31 -7z m9541 6 c8 -21 -5 -85 -17 -85 -17 0 -31 52 -20 77 12 26 29 30 37 8z m-9548 -176 c-2 -6 -8 -10 -13 -10 -5 0 -11 4 -13 10 -2 6 4 11 13 11 9 0 15 -5 13 -11z m9544 -4 c0 -5 -5 -11 -11 -13 -6 -2 -11 4 -11 13 0 9 5 15 11 13 6 -2 11 -8 11 -13z m-9542 -136 c0 -10 -7 -19 -15 -19 -15 0 -21 31 -9 43 11 10 24 -3 24 -24z m9545 1 c0 -13 -6 -25 -12 -27 -9 -3 -13 6 -13 27 0 21 4 30 13 28 6 -3 12 -15 12 -28z m-9545 -121 c0 -10 -7 -19 -15 -19 -15 0 -21 31 -9 43 11 10 24 -3 24 -24z m9550 1 c0 -26 -15 -33 -30 -15 -10 12 -10 18 0 30 15 18 30 11 30 -15z m-9550 -99 c12 -23 3 -51 -16 -51 -14 0 -20 51 -7 63 9 10 11 9 23 -12z m9548 -27 c-4 -35 -32 -39 -36 -6 -4 27 17 57 30 44 5 -5 8 -22 6 -38z m0 -120 c-4 -24 -24 -29 -32 -8 -8 20 13 49 27 35 5 -5 7 -17 5 -27z m-9550 4 c-2 -13 -7 -23 -13 -23 -5 0 -11 10 -13 23 -2 15 2 22 13 22 11 0 15 -7 13 -22z m2 -123 c0 -8 -7 -15 -15 -15 -8 0 -15 7 -15 15 0 8 7 15 15 15 8 0 15 -7 15 -15z m9545 -5 c0 -7 -6 -15 -12 -17 -8 -3 -13 4 -13 17 0 13 5 20 13 18 6 -3 12 -11 12 -18z m-9545 -121 c0 -20 -15 -26 -25 -9 -9 15 3 43 15 35 5 -3 10 -15 10 -26z m9547 15 c8 -20 -13 -42 -27 -28 -12 12 -3 44 11 44 5 0 12 -7 16 -16z m-9555 -146 c-15 -15 -26 -4 -18 18 5 13 9 15 18 6 9 -9 9 -15 0 -24z m9548 7 c0 -8 -4 -15 -10 -15 -5 0 -10 7 -10 15 0 8 5 15 10 15 6 0 10 -7 10 -15z m-9540 -115 c0 -20 -5 -30 -15 -30 -10 0 -15 10 -15 30 0 20 5 30 15 30 10 0 15 -10 15 -30z m9550 8 c0 -30 -15 -52 -29 -44 -12 8 -15 49 -4 59 14 15 33 6 33 -15z m-9559 -131 c-1 -12 -15 -9 -19 4 -3 6 1 10 8 8 6 -3 11 -8 11 -12z m9549 -7 c0 -5 -4 -10 -10 -10 -5 0 -10 5 -10 10 0 6 5 10 10 10 6 0 10 -4 10 -10z m-9540 -120 c0 -11 -7 -20 -15 -20 -8 0 -15 9 -15 20 0 11 7 20 15 20 8 0 15 -9 15 -20z m9548 -2 c-5 -32 -28 -35 -28 -4 0 17 5 26 16 26 10 0 14 -7 12 -22z m-9548 -123 c0 -8 -7 -15 -15 -15 -8 0 -15 7 -15 15 0 8 7 15 15 15 8 0 15 -7 15 -15z m9548 -2 c-5 -25 -28 -28 -28 -4 0 12 6 21 16 21 9 0 14 -7 12 -17z m-9548 -118 c0 -16 -6 -25 -15 -25 -9 0 -15 9 -15 25 0 16 6 25 15 25 9 0 15 -9 15 -25z m9545 -5 c0 -13 -6 -25 -12 -27 -9 -3 -13 6 -13 27 0 21 4 30 13 28 6 -3 12 -15 12 -28z m-9547 -122 c-2 -13 -7 -23 -13 -23 -5 0 -11 10 -13 23 -2 15 2 22 13 22 11 0 15 -7 13 -22z m9547 -3 c0 -10 -6 -20 -12 -22 -8 -3 -13 5 -13 22 0 17 5 25 13 23 6 -3 12 -13 12 -23z m-9550 -135 c-5 -8 -11 -8 -17 -2 -6 6 -7 16 -3 22 5 8 11 8 17 2 6 -6 7 -16 3 -22z m9547 5 c0 -5 -5 -11 -11 -13 -6 -2 -11 4 -11 13 0 9 5 15 11 13 6 -2 11 -8 11 -13z m-9542 -115 c0 -11 -4 -20 -9 -20 -14 0 -23 18 -16 30 10 17 25 11 25 -10z m9544 11 c8 -12 -3 -41 -15 -41 -5 0 -9 11 -9 25 0 25 14 34 24 16z m-9546 -133 c-2 -18 -7 -33 -13 -33 -5 0 -11 15 -13 33 -3 24 1 32 13 32 12 0 16 -8 13 -32z m9550 3 c2 -12 -2 -29 -9 -37 -11 -14 -13 -14 -21 0 -11 20 1 68 16 63 6 -2 12 -14 14 -26z m-9543 -126 c0 -28 -29 -25 -33 3 -3 19 0 23 15 20 10 -2 18 -12 18 -23z m9545 6 c0 -24 -18 -37 -31 -24 -13 13 -1 43 17 43 8 0 14 -9 14 -19z m-9449 -126 c-6 -24 -11 -82 -11 -128 0 -68 4 -89 19 -108 19 -23 19 -23 3 37 -15 58 -12 101 7 90 5 -4 12 -23 16 -44 7 -41 45 -92 91 -123 39 -25 41 -25 49 18 8 45 13 55 25 48 5 -3 2 -18 -6 -33 -17 -33 -18 -59 -3 -101 14 -41 27 -39 35 4 6 36 14 40 49 26 15 -6 26 -2 42 15 24 26 49 30 87 13 35 -16 41 -40 16 -61 -27 -22 -46 -23 -57 -4 -10 17 -63 33 -63 18 0 -5 -16 -19 -35 -31 -31 -18 -35 -25 -35 -59 0 -52 -45 -152 -70 -159 -15 -4 -20 -14 -20 -40 0 -19 -4 -32 -10 -28 -11 7 -43 -52 -35 -65 10 -16 33 -12 47 8 22 31 180 120 242 136 32 9 65 21 72 27 11 9 21 9 42 -1 l27 -13 -30 -9 c-16 -5 -36 -12 -44 -14 -18 -6 45 -54 70 -54 10 0 26 12 37 27 23 31 40 26 22 -6 -15 -29 6 -28 102 6 64 21 82 24 102 15 38 -17 47 -42 29 -82 l-15 -35 -10 25 c-29 73 -42 80 -112 56 -82 -28 -84 -31 -57 -60 12 -13 34 -27 47 -30 27 -7 30 -23 11 -50 -20 -27 -49 -8 -86 59 -28 50 -51 70 -51 46 0 -17 79 -129 102 -145 26 -19 207 -23 239 -6 16 9 19 7 19 -15 0 -14 9 -33 20 -42 11 -10 20 -25 20 -34 0 -21 -40 -38 -66 -28 -32 11 -38 28 -20 48 9 10 16 20 16 23 0 3 -50 8 -112 12 -61 4 -121 12 -132 18 -44 22 -96 83 -112 130 -20 62 -49 82 -108 76 -57 -7 -208 -77 -204 -95 2 -8 21 -24 43 -37 48 -29 85 -21 85 17 0 27 24 52 40 42 5 -3 10 -18 10 -32 0 -13 7 -37 16 -53 23 -38 13 -55 -39 -69 -59 -14 -102 -5 -130 29 l-22 27 -34 -26 c-28 -21 -45 -26 -97 -26 -55 0 -67 3 -89 26 -35 34 -50 96 -26 108 23 12 41 3 41 -23 0 -37 27 -64 72 -71 38 -7 44 -5 64 20 19 24 24 25 42 14 31 -20 37 -4 12 30 -23 34 -40 40 -40 15 0 -12 -9 -14 -37 -12 -35 3 -38 6 -41 35 -2 18 2 41 8 52 8 16 7 22 -9 31 -26 14 -42 6 -70 -35 -27 -40 -36 -43 -51 -15 -12 22 8 180 22 180 4 0 1 18 -7 40 -13 37 -13 41 2 47 9 4 21 -1 28 -10 15 -21 25 -22 25 -2 0 8 9 15 20 15 11 0 20 -4 20 -10 0 -5 19 -10 41 -10 35 0 40 -2 29 -15 -17 -21 -77 -30 -95 -15 -39 33 8 -57 49 -92 35 -31 48 -35 39 -12 -3 9 3 21 16 31 12 8 21 22 20 31 -1 10 4 29 11 44 9 20 10 31 2 40 -5 7 -13 30 -17 50 -8 44 -26 52 -94 43 -38 -5 -52 -3 -71 13 -23 19 -24 22 -21 165 2 91 -1 153 -8 166 -10 17 -7 22 16 35 25 13 28 13 31 -1 2 -8 -1 -35 -7 -58z m9376 60 c3 -9 -2 -24 -12 -35 -11 -12 -19 -42 -22 -82 -5 -53 -2 -69 16 -98 41 -68 21 -130 -50 -151 -59 -18 -70 1 -20 34 38 25 62 69 47 84 -3 4 -6 0 -6 -8 0 -8 -27 -38 -60 -67 -33 -29 -72 -73 -86 -98 -31 -54 -29 -89 10 -178 25 -53 29 -57 52 -52 31 8 74 35 74 47 0 4 -17 5 -37 3 l-38 -5 28 21 c15 12 39 44 53 71 28 56 54 65 54 20 0 -38 16 -48 31 -19 11 21 12 21 25 3 18 -25 18 -27 -7 -59 -20 -25 -23 -26 -37 -12 -14 14 -17 14 -33 -2 -15 -16 -15 -19 2 -54 14 -27 16 -43 10 -61 -9 -24 -5 -67 7 -67 4 0 16 12 29 28 19 23 24 25 33 12 12 -18 4 -60 -16 -80 -14 -13 -17 -13 -29 3 -13 18 -14 18 -24 -2 -6 -11 -11 -27 -11 -35 0 -20 -20 -21 -45 -2 -17 12 -17 14 -2 37 24 33 21 69 -8 104 -21 25 -28 28 -42 19 -10 -7 -16 -20 -14 -30 2 -11 4 -35 5 -54 1 -32 -1 -35 -31 -38 -24 -2 -34 2 -43 18 -9 17 -19 21 -45 18 -24 -3 -36 1 -45 15 -19 31 -116 70 -157 64 -61 -10 -108 -49 -123 -102 -9 -32 -21 -50 -40 -60 -14 -7 -32 -21 -39 -29 -8 -9 -29 -16 -50 -16 l-36 1 30 16 c44 23 62 41 95 95 36 57 22 65 -16 8 -14 -21 -38 -47 -52 -56 -25 -16 -26 -16 -49 10 -27 32 -22 49 11 40 27 -7 82 38 71 57 -4 6 -28 20 -52 31 -25 11 -42 22 -40 25 3 2 24 -5 47 -17 23 -12 55 -20 72 -18 l30 3 -22 28 c-27 34 -12 35 24 2 33 -30 51 -31 95 -4 46 28 30 40 -61 47 -72 4 -103 16 -92 33 3 5 19 2 36 -7 20 -10 45 -14 69 -11 53 7 161 -26 239 -73 70 -42 89 -47 107 -29 9 9 4 25 -17 63 -49 88 -76 206 -47 206 8 0 22 17 31 39 14 30 15 43 7 59 -17 32 -13 40 7 14 l18 -24 50 59 c27 32 59 66 72 77 22 18 23 24 21 118 -2 78 0 101 12 109 20 13 29 11 36 -6z m-9477 -50 c0 -28 -24 -34 -34 -9 -8 20 1 34 20 34 8 0 14 -10 14 -25z m9545 -5 c0 -13 -5 -25 -11 -27 -14 -5 -25 22 -17 42 8 23 28 12 28 -15z m-9541 -92 c23 -33 21 -68 -4 -68 -23 0 -44 42 -35 71 8 25 20 24 39 -3z m324 2 c35 -21 43 -58 18 -79 -12 -10 -18 -7 -31 18 -10 20 -26 33 -47 39 -52 13 -45 37 12 41 8 0 30 -8 48 -19z m8983 3 c12 -15 12 -16 -3 -11 -17 7 -68 -26 -94 -59 -12 -16 -15 -16 -24 -3 -16 24 -12 48 12 70 27 25 90 27 109 3z m239 -16 c0 -32 -23 -77 -40 -77 -18 0 -21 41 -4 75 21 45 44 46 44 2z m-9550 -126 c16 -30 12 -43 -12 -39 -17 2 -24 11 -26 31 -4 32 21 38 38 8z m9210 4 c0 -8 -6 -15 -14 -15 -17 0 -28 14 -19 24 12 12 33 6 33 -9z m40 -1 c0 -17 -22 -14 -28 4 -2 7 3 12 12 12 9 0 16 -7 16 -16z m-8882 -6 c-7 -20 -48 -23 -48 -4 0 11 9 16 26 16 16 0 24 -5 22 -12z m9186 3 c9 -14 -3 -39 -21 -46 -24 -9 -37 9 -24 34 12 22 36 28 45 12z m-396 -66 c8 -8 -16 -29 -66 -56 -39 -21 -44 -21 -58 -7 -20 19 -5 54 29 68 22 10 84 6 95 -5z m-168 -31 c0 -8 -7 -14 -15 -14 -15 0 -21 21 -9 33 10 9 24 -2 24 -19z m213 -24 c-7 -8 -22 24 -16 34 4 5 10 1 13 -10 4 -10 6 -21 3 -24z m-8613 20 c0 -5 -4 -10 -10 -10 -5 0 -10 5 -10 10 0 6 5 10 10 10 6 0 10 -4 10 -10z m-586 -16 c12 -30 7 -56 -10 -52 -23 4 -39 32 -31 52 8 21 33 21 41 0z m9544 -23 c3 -21 -22 -61 -39 -61 -17 0 -20 42 -4 66 19 29 39 27 43 -5z m-8940 -27 c29 -20 27 -70 -4 -91 -20 -13 -23 -11 -53 41 -17 31 -31 58 -31 61 0 12 67 4 88 -11z m8413 -9 c0 -15 -53 -95 -62 -95 -5 0 -16 12 -25 26 -22 33 -9 76 26 84 28 7 62 -1 61 -15z m-9011 -30 c5 -14 7 -39 3 -55 -7 -38 -31 -37 -52 1 -13 24 -13 29 2 53 22 33 35 33 47 1z m9410 5 c0 -22 -28 -27 -61 -9 -27 14 -14 29 27 29 27 0 34 -4 34 -20z m-8720 -115 c0 -8 -4 -15 -9 -15 -5 0 -18 -3 -28 -7 -17 -6 -17 -5 1 15 22 26 36 28 36 7z m8093 -25 c4 -16 0 -20 -19 -20 -17 0 -24 6 -24 19 0 18 18 32 31 25 4 -2 9 -13 12 -24z m-8788 -11 c9 -27 -2 -41 -24 -29 -24 12 -35 41 -20 51 17 10 37 0 44 -22z m795 16 c10 -12 10 -19 2 -27 -16 -16 -42 -2 -42 22 0 24 22 26 40 5z m8745 -35 c-19 -21 -45 -27 -45 -10 0 6 9 19 21 31 29 29 51 9 24 -21z m-825 0 c11 -7 9 -11 -12 -19 -18 -7 -30 -23 -40 -53 l-15 -43 -16 32 c-22 41 -21 49 3 73 21 21 55 26 80 10z m-8715 -70 c3 -5 8 -29 11 -52 2 -24 7 -49 9 -55 2 -7 0 -13 -5 -13 -6 0 -10 5 -10 11 0 6 -11 25 -25 43 -31 40 -33 76 -6 76 11 0 23 -4 26 -10z m9088 -57 l29 -47 -24 -18 c-13 -9 -20 -18 -15 -18 17 0 99 44 104 57 7 17 23 17 23 -1 0 -21 17 -28 39 -17 15 9 22 6 35 -14 10 -15 30 -27 58 -32 56 -11 63 -33 9 -33 -47 0 -81 12 -105 35 -16 17 -19 16 -46 -10 -22 -21 -42 -29 -80 -33 -45 -4 -52 -2 -57 16 -3 15 -16 22 -45 27 -35 6 -39 9 -34 31 20 76 46 105 46 50 0 -26 4 -36 16 -36 12 0 14 8 8 45 -3 25 -2 45 2 45 5 0 22 -22 37 -47z m-8463 -51 c0 -10 -6 -27 -14 -38 -21 -28 -40 -7 -27 29 12 30 41 37 41 9z m8858 -52 c11 -18 10 -20 -13 -20 -18 0 -25 5 -25 20 0 11 6 20 13 20 7 0 18 -9 25 -20z m-9478 1 c0 -5 -8 -17 -17 -27 -20 -20 -32 -1 -13 21 14 17 30 20 30 6z m8645 -10 l90 -6 -80 -5 c-73 -5 -80 -7 -81 -27 -2 -34 -12 -53 -29 -53 -14 0 -20 17 -16 48 1 8 -3 20 -9 27 -15 19 -2 38 19 29 9 -4 57 -10 106 -13z m885 -11 c0 -5 -7 -10 -15 -10 -8 0 -15 5 -15 10 0 6 7 10 15 10 8 0 15 -4 15 -10z m-7472 -31 c4 -31 -20 -53 -47 -44 -26 8 -31 35 -12 58 22 26 55 18 59 -14z m110 2 c5 -32 -5 -52 -22 -45 -19 7 -28 45 -14 61 15 19 32 11 36 -16z m-923 -30 c-8 -28 -42 -27 -51 1 -9 30 23 55 44 34 9 -8 11 -22 7 -35z m135 30 c0 -23 -25 -51 -45 -51 -26 0 -46 30 -35 51 15 27 80 27 80 0z m98 -7 c4 -28 -26 -54 -39 -33 -5 8 -9 24 -9 37 0 19 5 23 23 20 13 -2 23 -11 25 -24z m339 10 c7 -20 -8 -48 -29 -52 -19 -4 -31 24 -23 49 8 23 43 25 52 3z m111 -16 c-4 -39 -31 -49 -48 -18 -14 26 2 50 32 50 16 0 19 -6 16 -32z m486 16 c8 -20 -12 -56 -27 -51 -7 2 -13 18 -15 35 -3 26 0 32 16 32 11 0 23 -7 26 -16z m119 4 c6 -18 -11 -48 -28 -48 -15 0 -30 35 -20 50 9 14 42 12 48 -2z m765 -21 c3 -21 -1 -27 -17 -27 -23 0 -32 18 -19 43 13 25 32 16 36 -16z m126 11 c20 -33 -34 -64 -62 -36 -18 18 -15 34 11 46 27 13 37 11 51 -10z m115 5 c12 -23 -4 -53 -28 -53 -22 0 -32 30 -19 54 12 21 34 21 47 -1z m1821 2 c7 -9 10 -25 6 -41 -5 -19 -12 -25 -29 -22 -25 3 -35 41 -17 64 16 18 24 18 40 -1z m235 -16 c0 -15 -7 -25 -17 -27 -13 -3 -18 3 -18 21 0 13 3 27 7 31 13 12 28 -1 28 -25z m224 22 c19 -12 6 -41 -18 -41 -24 0 -33 13 -25 34 7 18 22 20 43 7z m241 -7 c11 -12 10 -18 -3 -31 -8 -9 -23 -13 -31 -10 -19 8 -21 43 -3 50 20 9 24 8 37 -9z m128 -12 c4 -28 -24 -40 -45 -19 -14 13 -14 19 -3 32 18 22 44 15 48 -13z m132 13 c15 -18 6 -45 -15 -45 -18 0 -30 24 -21 45 7 19 20 19 36 0z m114 0 c8 -21 -3 -45 -20 -45 -8 0 -17 7 -20 15 -8 21 2 45 20 45 7 0 16 -7 20 -15z m106 0 c7 -9 10 -25 6 -41 -5 -19 -12 -25 -29 -22 -25 3 -35 41 -17 64 16 18 24 18 40 -1z m-5415 -25 c0 -28 -29 -40 -38 -15 -9 22 3 46 22 43 10 -2 16 -13 16 -28z m455 15 c10 -12 10 -18 0 -30 -17 -21 -37 -19 -45 5 -12 37 20 55 45 25z m129 -4 c14 -26 -8 -54 -39 -49 -25 3 -36 27 -26 54 8 20 53 17 65 -5z m609 -2 c3 -19 -25 -52 -41 -46 -18 6 -31 33 -24 51 9 22 61 18 65 -5z m756 15 c22 -8 20 -41 -3 -54 -15 -7 -23 -6 -35 6 -21 20 -20 31 2 43 21 13 17 12 36 5z m119 -8 c3 -8 -1 -22 -8 -33 -13 -17 -15 -17 -31 -1 -9 9 -14 24 -11 32 8 20 43 21 50 2z m452 4 c9 -15 -4 -50 -20 -50 -16 0 -29 35 -20 50 3 5 12 10 20 10 8 0 17 -5 20 -10z m131 -5 c7 -18 -13 -45 -33 -45 -17 0 -27 24 -19 45 7 20 45 19 52 0z m112 -12 c-3 -31 -34 -44 -44 -19 -9 24 3 46 26 46 17 0 21 -5 18 -27z m110 -1 c3 -17 -2 -22 -17 -22 -14 0 -21 6 -21 18 0 38 33 41 38 4z m127 -2 c0 -13 -6 -25 -12 -27 -16 -6 -27 21 -19 43 9 23 31 11 31 -16z m135 -1 c0 -20 -24 -26 -35 -9 -8 13 14 42 26 34 5 -3 9 -14 9 -25z m110 6 c0 -16 -6 -25 -15 -25 -15 0 -21 31 -8 43 13 14 23 6 23 -18z m117 14 c14 -14 6 -39 -13 -39 -8 0 -14 10 -14 25 0 27 9 32 27 14z m131 -25 c-4 -25 -32 -24 -36 0 -4 21 18 40 31 27 5 -5 7 -17 5 -27z m128 21 c4 -8 0 -22 -7 -31 -11 -13 -14 -13 -27 0 -17 17 -9 46 13 46 9 0 18 -7 21 -15z m112 -9 c2 -10 -1 -23 -7 -29 -16 -16 -34 6 -26 33 8 24 28 22 33 -4z m252 -7 c0 -10 -7 -19 -15 -19 -15 0 -21 31 -9 43 11 10 24 -3 24 -24z m124 16 c8 -22 -4 -45 -24 -45 -20 0 -36 33 -25 50 9 15 42 12 49 -5z m473 -1 c8 -21 -13 -42 -28 -27 -13 13 -5 43 11 43 6 0 13 -7 17 -16z m229 5 c8 -14 -21 -43 -35 -35 -19 12 -13 46 8 46 11 0 23 -5 27 -11z m-5850 -11 c9 -10 -15 -48 -31 -48 -8 0 -24 9 -35 20 -11 11 -22 15 -25 10 -3 -6 -15 -15 -26 -20 -17 -9 -19 -7 -19 18 l0 29 65 -2 c35 0 67 -4 71 -7z m412 -21 c3 -23 0 -28 -15 -25 -11 2 -19 14 -21 31 -3 23 0 28 15 25 11 -2 19 -14 21 -31z m2317 13 c0 -8 -8 -16 -17 -18 -13 -2 -18 3 -18 18 0 15 5 20 18 18 9 -2 17 -10 17 -18z m155 0 c0 -24 -26 -38 -42 -22 -16 16 -2 42 22 42 13 0 20 -7 20 -20z m2015 2 c0 -18 -20 -15 -23 4 -3 10 1 15 10 12 7 -3 13 -10 13 -16z m485 -2 c0 -11 -7 -20 -15 -20 -8 0 -15 9 -15 20 0 11 7 20 15 20 8 0 15 -9 15 -20z m1188 3 c-2 -10 -10 -18 -18 -18 -8 0 -16 8 -18 18 -2 12 3 17 18 17 15 0 20 -5 18 -17z m499 6 c14 -14 6 -39 -12 -39 -18 0 -28 17 -21 35 6 18 18 19 33 4z m373 -14 c0 -19 -20 -29 -32 -17 -8 8 -7 16 2 26 14 17 30 12 30 -9z m107 9 c8 -21 -13 -42 -28 -27 -13 13 -5 43 11 43 6 0 13 -7 17 -16z m121 -7 c4 -22 -27 -35 -38 -16 -10 15 7 42 24 36 6 -2 12 -11 14 -20z m110 -5 c2 -14 -2 -22 -12 -22 -19 0 -29 17 -22 36 8 22 30 12 34 -14z m115 16 c6 -19 -3 -38 -18 -38 -18 0 -28 17 -21 35 7 18 33 20 39 3z m117 -13 c0 -27 -9 -32 -27 -14 -14 14 -6 39 13 39 8 0 14 -10 14 -25z m123 11 c6 -16 -16 -40 -26 -29 -4 3 -7 15 -7 25 0 21 25 24 33 4z m113 -22 c-5 -13 -10 -14 -18 -6 -6 6 -8 18 -4 28 5 13 10 14 18 6 6 -6 8 -18 4 -28z m127 24 c6 -19 -3 -38 -18 -38 -18 0 -28 17 -21 35 7 18 33 20 39 3z m235 -11 c4 -20 -25 -34 -40 -19 -15 15 -1 44 19 40 10 -2 19 -11 21 -21z m122 14 c0 -23 -14 -41 -31 -41 -14 0 -19 7 -19 25 0 20 5 25 25 25 14 0 25 -4 25 -9z m117 -6 c5 -17 -23 -49 -35 -41 -7 4 -12 18 -12 32 0 20 4 25 22 22 12 -2 23 -8 25 -13z m127 7 c3 -5 2 -19 -1 -31 -4 -15 -12 -21 -27 -19 -27 4 -35 44 -9 51 29 8 32 7 37 -1z m224 -20 c-5 -24 -35 -39 -55 -26 -25 15 -28 42 -6 46 32 7 64 -4 61 -20z m162 3 c0 -20 -27 -37 -50 -30 -22 7 -28 41 -8 47 21 7 58 -4 58 -17z m-9300 0 c6 -8 9 -19 5 -25 -14 -23 -62 -2 -52 24 8 20 31 21 47 1z m128 -2 c-2 -10 -10 -18 -18 -18 -8 0 -16 8 -18 18 -2 12 3 17 18 17 15 0 20 -5 18 -17z m100 -6 c2 -10 -3 -17 -12 -17 -10 0 -16 9 -16 21 0 24 23 21 28 -4z m232 3 c0 -11 -7 -20 -15 -20 -8 0 -15 9 -15 20 0 11 7 20 15 20 8 0 15 -9 15 -20z m135 11 c7 -12 -24 -43 -36 -36 -5 4 -9 15 -9 26 0 20 34 27 45 10z m153 -13 c-3 -26 -36 -37 -49 -16 -17 25 -9 38 22 38 26 0 30 -3 27 -22z m1792 12 c0 -5 -4 -10 -10 -10 -5 0 -10 5 -10 10 0 6 5 10 10 10 6 0 10 -4 10 -10z m4135 0 c3 -5 1 -10 -4 -10 -6 0 -11 5 -11 10 0 6 2 10 4 10 3 0 8 -4 11 -10z m117 -5 c0 -5 -5 -11 -11 -13 -6 -2 -11 4 -11 13 0 9 5 15 11 13 6 -2 11 -8 11 -13z m116 -2 c-5 -25 -28 -28 -28 -4 0 12 6 21 16 21 9 0 14 -7 12 -17z m242 2 c0 -8 -7 -15 -15 -15 -8 0 -15 7 -15 15 0 8 7 15 15 15 8 0 15 -7 15 -15z m120 1 c0 -8 -5 -18 -11 -22 -14 -8 -33 11 -25 25 10 16 36 13 36 -3z m1760 -6 c0 -25 -29 -38 -41 -19 -15 25 -10 39 16 39 18 0 25 -5 25 -20z m175 10 c11 -17 -6 -50 -25 -50 -19 0 -36 33 -25 50 3 5 15 10 25 10 10 0 22 -5 25 -10z m175 -15 c0 -28 -12 -32 -30 -10 -14 16 -6 35 16 35 8 0 14 -10 14 -25z m-9312 -2 c-5 -26 -38 -29 -38 -4 0 15 6 21 21 21 14 0 19 -5 17 -17z"/>
<path d="M9597 9677 c-17 -12 -17 -14 2 -32 21 -18 22 -18 36 1 26 34 -2 58 -38 31z"/>
<path d="M9707 9523 c-4 -3 -7 -15 -7 -25 0 -15 5 -17 28 -12 42 10 47 16 27 31 -21 14 -38 17 -48 6z"/>
<path d="M9734 9181 c12 -19 78 -43 89 -32 7 7 0 15 -26 26 -40 17 -71 20 -63 6z"/>
<path d="M1040 9630 c-23 -34 -39 -64 -36 -67 9 -9 56 26 56 43 0 8 7 29 16 45 28 55 7 42 -36 -21z"/>
<path d="M956 9529 c-37 -29 -23 -40 59 -46 l66 -6 -12 26 c-7 15 -21 29 -33 33 -12 3 -28 8 -37 10 -9 2 -28 -5 -43 -17z"/>
<path d="M532 9179 c-31 -9 -51 -33 -39 -46 6 -5 97 44 97 52 0 7 -20 5 -58 -6z"/>
<path d="M4980 9114 c-483 -32 -866 -115 -1265 -274 -1257 -502 -2198 -1630 -2454 -2943 -106 -540 -104 -1063 5 -1592 207 -1006 821 -1920 1674 -2489 853 -569 1872 -792 2865 -625 652 109 1279 394 1815 824 161 129 425 386 554 541 443 531 744 1171 870 1854 46 251 60 414 60 705 0 195 -5 312 -18 420 -115 977 -541 1815 -1275 2508 -411 388 -918 691 -1466 877 -225 77 -544 145 -815 175 -138 15 -451 26 -550 19z m526 -189 c1097 -115 2090 -710 2737 -1638 368 -528 583 -1085 664 -1722 25 -201 25 -694 0 -890 -96 -738 -368 -1387 -819 -1953 -125 -156 -415 -448 -563 -565 -598 -475 -1219 -735 -1975 -829 -142 -18 -650 -17 -795 0 -626 77 -1200 287 -1710 628 -692 461 -1227 1162 -1491 1950 -145 436 -201 806 -191 1284 9 438 66 769 199 1159 260 763 782 1455 1447 1917 534 371 1164 604 1796 663 157 15 544 12 701 -4z"/>
<path d="M4835 8744 c-1012 -102 -1935 -620 -2546 -1429 -490 -649 -739 -1387 -740 -2195 -1 -417 52 -753 181 -1141 302 -909 940 -1650 1795 -2084 386 -197 776 -314 1230 -371 172 -22 595 -25 760 -6 717 83 1312 330 1885 781 133 104 458 433 564 571 309 400 519 819 650 1295 140 512 164 1090 65 1620 -109 589 -355 1117 -753 1615 -123 153 -382 414 -534 538 -521 424 -1109 684 -1771 784 -110 16 -195 21 -441 23 -168 1 -323 1 -345 -1z m760 -222 c269 -42 469 -95 715 -186 791 -297 1484 -931 1874 -1716 178 -358 283 -712 333 -1120 26 -215 24 -582 -5 -798 -55 -413 -171 -785 -356 -1147 -180 -352 -369 -609 -657 -890 -521 -509 -1138 -815 -1864 -925 -202 -31 -603 -39 -814 -16 -273 30 -475 72 -708 147 -736 239 -1360 711 -1787 1354 -314 471 -492 964 -558 1540 -16 141 -16 548 0 690 77 678 311 1256 727 1795 115 148 427 460 575 574 428 331 903 555 1400 660 97 21 222 39 400 60 19 2 161 3 315 1 221 -2 307 -7 410 -23z"/>
<path d="M4855 8460 c-572 -58 -1112 -260 -1590 -595 -160 -112 -310 -242 -475 -412 -529 -543 -849 -1217 -936 -1973 -22 -184 -21 -562 0 -740 160 -1328 1077 -2426 2346 -2809 323 -98 585 -135 960 -135 293 0 409 10 652 59 517 105 1016 345 1439 695 109 90 329 311 422 424 505 608 779 1362 780 2141 0 439 -78 841 -240 1240 -113 277 -311 613 -509 860 -113 142 -388 416 -529 529 -476 380 -1032 618 -1635 701 -137 19 -555 28 -685 15z m590 -181 c359 -35 693 -133 1040 -304 331 -162 561 -330 851 -619 272 -273 452 -523 619 -861 194 -395 287 -746 316 -1202 19 -290 -6 -571 -77 -882 -199 -862 -732 -1587 -1498 -2036 -343 -201 -750 -337 -1171 -391 -158 -20 -531 -23 -685 -5 -738 85 -1379 392 -1896 906 -435 433 -744 996 -869 1586 -78 369 -85 780 -20 1165 170 1006 814 1878 1724 2333 523 262 1089 368 1666 310z"/>
<path d="M4915 8133 c-966 -87 -1834 -643 -2334 -1496 -193 -330 -321 -696 -383 -1092 -29 -190 -36 -571 -14 -765 51 -437 198 -859 433 -1239 662 -1071 1927 -1614 3154 -1355 532 112 1027 379 1426 767 259 253 433 487 588 792 529 1039 422 2269 -279 3190 -586 770 -1462 1213 -2385 1203 -91 -1 -184 -3 -206 -5z m309 -468 c25 -133 39 -573 56 -1789 10 -677 9 -751 -5 -765 -21 -21 -249 -29 -309 -11 -49 15 -56 23 -56 71 0 22 -13 61 -30 95 -25 46 -30 68 -28 108 3 48 4 50 38 59 l35 9 -35 12 c-33 10 -35 14 -38 60 -4 54 5 65 53 67 28 0 28 1 -10 13 -39 11 -40 13 -43 60 -4 54 5 65 53 67 28 0 28 1 -10 13 -39 11 -40 13 -43 61 -4 55 11 74 57 76 21 1 19 3 -14 13 -33 10 -41 18 -43 41 -6 50 5 73 40 81 l33 7 -32 9 c-35 9 -47 33 -41 84 2 23 9 30 33 35 31 6 27 10 -22 25 -9 2 -13 23 -13 58 0 50 2 54 28 61 l27 8 -25 6 c-19 5 -26 15 -31 46 -8 51 -3 64 30 72 l26 6 -32 14 c-31 12 -33 16 -33 62 0 46 2 49 33 58 l32 11 -32 7 c-32 7 -33 10 -33 55 0 45 1 48 33 55 l32 7 -32 9 c-35 10 -47 35 -41 85 2 22 10 30 38 37 l35 10 -35 12 c-37 12 -47 35 -36 80 5 18 16 26 49 33 l42 9 -43 12 -43 12 3 47 3 47 50 5 50 6 -40 7 c-65 13 -69 18 -59 73 l9 49 47 0 c54 0 54 5 -2 30 -41 19 -42 20 -36 59 9 54 11 56 64 57 l47 1 -44 15 c-40 14 -43 17 -37 46 9 47 22 56 61 47 40 -9 44 -1 15 25 -25 23 -25 37 -1 59 15 14 29 16 68 11 l48 -7 -28 19 c-26 19 -26 20 -10 35 35 31 64 40 105 33 38 -7 39 -6 29 13 -8 15 -8 22 2 25 27 11 35 6 41 -28z m-1460 -363 c2 -4 12 -246 21 -537 9 -292 18 -540 21 -552 5 -26 49 -41 73 -26 17 11 20 72 38 813 7 270 10 305 24 308 11 2 19 -7 24 -25 4 -15 6 -257 5 -538 -2 -280 -2 -518 -1 -527 2 -28 31 -48 70 -48 74 0 71 -29 73 586 3 480 5 549 18 549 20 0 27 -108 39 -658 7 -324 13 -442 22 -453 18 -22 61 -13 76 16 8 17 13 74 13 170 0 293 21 915 31 925 24 24 28 -4 54 -375 48 -696 62 -970 54 -1013 -20 -112 -98 -194 -213 -229 -93 -27 -239 -27 -342 1 -59 16 -129 66 -163 118 -53 80 -55 113 -32 516 32 540 61 969 67 979 7 10 21 10 28 0z m2621 -406 c88 -44 199 -159 254 -264 80 -155 121 -317 121 -476 -1 -247 -112 -404 -335 -472 -91 -28 -288 -25 -374 5 -163 57 -274 175 -316 338 -47 179 16 488 135 663 50 73 108 140 122 140 6 0 -6 -18 -27 -41 -134 -149 -216 -375 -219 -604 -1 -136 24 -226 84 -306 95 -127 230 -189 410 -189 164 1 283 42 370 130 129 128 158 327 89 605 -24 101 -106 266 -159 325 l-41 45 34 -50 c70 -101 116 -227 143 -386 20 -122 15 -309 -10 -379 -36 -100 -137 -193 -241 -222 -109 -30 -290 -25 -385 11 -115 44 -195 127 -231 239 -41 127 -25 343 40 533 35 104 51 136 110 219 25 36 46 69 46 75 0 12 99 72 140 85 17 5 64 8 105 7 60 -2 87 -8 135 -31z m-2450 -1284 c-17 -27 -16 -33 3 -128 48 -225 58 -422 42 -794 -13 -310 -59 -795 -87 -907 -5 -21 -2 -23 37 -23 23 0 73 -10 112 -21 50 -15 84 -20 119 -16 l48 6 7 -35 c3 -19 7 -57 8 -85 1 -44 -3 -54 -25 -71 -40 -30 -102 -33 -196 -9 -78 20 -133 27 -133 16 0 -3 -11 -57 -25 -120 -60 -278 -34 -424 87 -486 129 -66 298 -13 345 109 24 62 24 217 0 327 -32 144 -98 634 -121 895 -54 599 -45 1061 25 1274 7 23 5 36 -11 64 -12 19 -18 37 -15 40 8 8 54 -49 55 -68 0 -8 -14 -85 -32 -170 -30 -146 -32 -170 -36 -425 -4 -277 3 -418 39 -740 44 -396 92 -723 130 -868 80 -309 -21 -507 -256 -507 -120 0 -203 49 -252 148 -26 52 -28 66 -27 167 0 86 6 132 27 210 57 215 135 821 158 1217 21 378 6 618 -56 901 l-15 68 26 35 c31 41 44 38 19 -4z m2205 33 c0 -3 -9 -18 -19 -33 -20 -27 -20 -28 5 -142 63 -297 51 -873 -31 -1485 -8 -60 -17 -127 -19 -147 -2 -20 -7 -46 -11 -58 -6 -18 -2 -20 42 -20 27 0 74 -9 106 -20 62 -22 103 -25 141 -10 19 7 26 6 26 -2 0 -6 3 -9 6 -6 3 4 -4 78 -15 165 -45 345 -71 729 -71 1055 0 233 10 347 45 523 22 109 23 122 9 143 -22 34 -6 42 21 10 l23 -26 -19 -89 c-51 -239 -59 -318 -59 -593 0 -327 14 -521 76 -1020 31 -254 47 -353 81 -500 48 -204 33 -346 -45 -432 -55 -60 -103 -81 -202 -86 -81 -4 -88 -2 -150 30 -81 42 -122 103 -140 209 -14 79 -8 135 25 269 72 287 150 854 175 1255 21 363 10 582 -44 838 l-23 111 26 33 c24 30 41 42 41 28z m-2025 -103 c-39 -154 -53 -474 -36 -812 14 -278 58 -857 66 -871 9 -13 -15 -11 -71 6 -27 8 -64 15 -81 15 -20 0 -33 5 -33 13 0 6 9 98 20 202 56 549 72 1088 36 1295 -9 58 -20 121 -23 140 l-5 35 67 0 c64 0 66 -1 60 -23z m2185 21 c0 -2 -10 -60 -22 -130 -21 -116 -23 -160 -22 -453 0 -305 27 -826 54 -1050 5 -41 7 -77 5 -79 -3 -2 -31 4 -63 13 -32 9 -73 16 -92 16 l-33 0 7 47 c12 92 55 511 67 658 19 235 17 707 -3 832 -10 56 -20 112 -23 125 -6 22 -4 23 60 23 36 0 65 -1 65 -2z m-1205 -538 c66 0 137 4 158 8 36 8 37 7 37 -20 l0 -28 -185 0 -185 0 0 29 c0 26 2 28 28 20 15 -5 81 -9 147 -9z m108 -102 l107 -6 0 -27 c0 -16 -7 -30 -16 -34 -9 -3 -94 -6 -189 -6 -147 0 -176 3 -190 16 -55 55 35 73 288 57z m90 -152 c4 -1 7 -12 7 -26 0 -22 -3 -24 -19 -16 -14 8 -33 6 -68 -4 -62 -19 -141 -19 -209 1 -40 11 -58 12 -74 4 -21 -11 -23 -8 -14 25 5 19 13 20 187 18 100 0 185 -2 190 -2z m-264 -135 c58 -21 100 -20 168 4 87 30 107 27 127 -19 29 -64 21 -76 -55 -79 l-67 -3 8 -37 c4 -20 13 -102 19 -182 33 -412 82 -953 92 -1005 11 -59 35 -116 70 -167 11 -15 15 -29 10 -32 -29 -18 -171 -38 -276 -39 -129 -1 -259 18 -251 37 90 211 100 301 115 991 4 220 11 408 15 417 7 15 0 17 -56 20 -52 2 -63 6 -66 21 -6 28 6 65 28 87 20 20 27 19 119 -14z m-998 -801 c24 -8 71 -18 103 -23 33 -4 61 -13 64 -19 5 -18 -57 -17 -133 2 -33 8 -80 15 -105 15 l-45 1 24 19 c28 24 35 24 92 5z m2198 -5 c41 -11 90 -20 108 -20 23 0 33 -5 33 -15 0 -19 -45 -19 -125 0 -33 8 -79 14 -102 15 -47 0 -52 6 -25 26 22 17 24 17 111 -6z m-2241 -330 c69 -22 136 -26 176 -10 24 9 25 7 35 -45 6 -30 16 -81 23 -112 6 -32 12 -96 12 -143 0 -72 -4 -92 -24 -127 -42 -76 -147 -105 -235 -64 -74 34 -96 78 -97 188 0 53 39 334 46 333 1 0 30 -9 64 -20z m1467 -440 c33 -72 5 -139 -75 -180 -113 -57 -358 -52 -479 10 -79 40 -113 114 -76 167 l15 22 63 -28 c157 -71 341 -66 468 14 30 18 57 33 60 34 3 1 14 -17 24 -39z"/>
<path d="M3713 6630 c0 -30 2 -43 4 -27 2 15 2 39 0 55 -2 15 -4 2 -4 -28z"/>
<path d="M4352 6640 c0 -19 2 -27 5 -17 2 9 2 25 0 35 -3 9 -5 1 -5 -18z"/>
<path d="M4368 6380 c12 -335 9 -461 -10 -495 -26 -48 -69 -86 -128 -114 -50 -24 -66 -26 -185 -26 -77 0 -147 5 -172 13 -61 18 -123 70 -151 125 -29 56 -31 94 -20 452 l7 230 -14 -220 c-8 -121 -15 -269 -16 -328 -1 -98 1 -112 26 -162 53 -109 157 -158 330 -158 202 0 321 70 356 207 9 37 9 93 -1 249 -22 362 -29 437 -22 227z"/>
<path d="M3925 3661 c-17 -7 -11 -12 39 -35 92 -42 144 -51 188 -33 20 8 42 25 48 37 11 21 10 21 -32 15 -24 -3 -65 -1 -93 5 -77 17 -128 20 -150 11z"/>
<path d="M6392 3685 c0 -16 2 -22 5 -12 2 9 2 23 0 30 -3 6 -5 -1 -5 -18z"/>
<path d="M6086 3663 c-13 -4 -2 -13 45 -35 66 -32 139 -45 184 -34 25 6 65 39 65 54 0 4 -37 7 -82 8 -46 0 -108 3 -138 7 -30 3 -63 3 -74 0z"/>
<path d="M6401 3607 c-3 -85 -84 -113 -228 -78 -138 32 -136 33 -145 -14 -4 -22 -16 -83 -27 -135 -25 -114 -27 -259 -6 -319 33 -93 93 -139 195 -148 119 -11 219 47 255 147 23 65 21 212 -5 335 -12 55 -25 134 -29 175 -5 42 -9 58 -10 37z m-243 -107 c69 -22 136 -26 175 -11 25 10 25 10 46 -102 29 -152 28 -259 -1 -317 -61 -120 -254 -119 -316 0 -21 41 -23 54 -19 145 4 75 42 306 51 305 0 0 30 -9 64 -20z"/>
<path d="M520 1021 c0 -9 30 -24 36 -18 2 1 -6 8 -16 15 -11 7 -20 8 -20 3z"/>
<path d="M473 754 c20 -38 37 -52 76 -64 41 -11 41 6 0 28 -17 9 -45 28 -62 41 l-30 25 16 -30z"/>
<path d="M9677 623 c-12 -11 -8 -51 6 -56 32 -11 51 25 25 51 -14 14 -22 15 -31 5z"/>
</g>
</svg>