<svg xmlns="http://www.w3.org/2000/svg" version="1.0" preserveAspectRatio="xMidYMid meet" viewBox="0 0 1024 1024">

<g transform="translate(0.000000,1024.000000) scale(0.100000,-0.100000)" fill="#000000" stroke="none">
<path d="M0 5120 l0 -5120 5120 0 5120 0 0 5120 0 5120 -5120 0 -5120 0 0 -5120z m5128 4082 c3 -32 15 -41 27 -22 17 28 126 -4 149 -43 14 -23 -11 -43 -70 -58 -27 -7 -49 -21 -64 -41 l-22 -29 -19 22 c-26 30 -34 18 -14 -21 9 -17 15 -41 12 -53 -3 -18 -5 -16 -14 13 -6 21 -16 35 -24 34 -17 -1 -24 62 -8 72 14 9 47 -5 51 -22 3 -13 6 -13 24 1 21 14 21 16 6 49 -13 30 -18 33 -35 23 -15 -9 -21 -9 -24 1 -9 23 -31 12 -50 -27 l-19 -39 -45 15 c-54 19 -69 30 -69 54 0 39 125 81 145 49 12 -19 23 -10 29 26 9 43 30 41 34 -4z m-512 -56 c9 -36 34 -54 118 -86 100 -37 159 -73 192 -116 16 -20 33 -33 41 -30 13 5 121 -71 122 -86 1 -4 -20 -19 -45 -34 -51 -30 -96 -29 -174 2 -41 16 -42 18 -35 53 9 49 22 63 46 50 26 -14 24 -26 -7 -33 -33 -9 -26 -28 15 -40 26 -7 36 -6 49 8 16 16 16 18 -2 31 -10 7 -15 19 -11 25 9 15 -64 82 -115 105 -38 17 -41 17 -60 0 -25 -22 -55 -15 -112 28 -53 40 -84 97 -68 127 15 27 38 25 46 -4z m1044 5 c20 -39 -15 -95 -89 -143 -50 -31 -82 -36 -101 -13 -21 26 -135 -29 -162 -78 -8 -16 -6 -18 25 -12 33 6 35 5 51 -36 17 -41 17 -44 0 -56 -31 -23 -93 -34 -142 -27 -49 7 -102 29 -102 42 1 4 26 25 56 47 30 22 76 57 102 77 52 43 157 99 217 118 55 18 92 45 99 75 8 30 31 33 46 6z m-900 -15 c0 -20 12 -26 86 -42 71 -14 134 -47 134 -70 0 -8 -4 -14 -10 -14 -5 0 -10 -9 -10 -20 0 -11 5 -20 10 -20 6 0 10 -5 10 -12 0 -6 -12 0 -27 13 -40 37 -111 75 -195 105 -40 15 -86 34 -103 43 l-30 16 55 6 c30 3 61 6 68 7 6 1 12 -4 12 -12z m839 -2 c4 -4 -27 -18 -154 -70 -49 -20 -116 -55 -149 -76 -55 -37 -63 -36 -28 5 14 15 13 17 -3 17 -10 0 -24 -8 -32 -17 -12 -16 -13 -15 -11 11 3 24 13 34 58 58 30 16 73 31 95 34 75 10 85 14 85 33 0 17 6 18 68 14 37 -3 69 -7 71 -9z m-543 -131 c-8 -8 -36 5 -36 17 0 7 6 7 21 0 11 -7 18 -14 15 -17z m-610 2 c9 -22 -12 -42 -47 -47 -34 -5 -61 14 -53 37 10 26 91 34 100 10z m584 -44 c0 -25 -18 1 -25 34 l-6 30 15 -25 c8 -14 15 -32 16 -39z m824 49 c28 -10 31 -17 17 -38 -6 -11 -21 -12 -62 -5 -45 7 -55 12 -57 31 -3 20 1 22 37 22 22 0 51 -4 65 -10z m-654 -10 c0 -5 -2 -10 -4 -10 -3 0 -8 5 -11 10 -3 6 -1 10 4 10 6 0 11 -4 11 -10z m-137 -43 c-4 -26 0 -40 20 -63 21 -24 29 -27 44 -18 10 6 24 30 31 52 15 46 32 47 32 3 0 -29 -17 -49 -58 -71 -21 -10 -27 -9 -49 12 -36 33 -44 52 -37 87 9 42 24 40 17 -2z m1018 7 c46 -23 19 -64 -35 -50 -29 7 -42 27 -32 51 7 19 29 19 67 -1z m-1866 -19 c0 -15 -12 -23 -48 -33 -55 -15 -77 -11 -77 16 0 22 48 41 95 39 23 -2 30 -7 30 -22z m2112 -50 c36 -15 41 -26 18 -45 -21 -17 -115 14 -115 39 0 36 23 37 97 6z m-2359 -8 c2 -12 -7 -22 -29 -31 -39 -16 -59 -11 -59 15 0 38 81 53 88 16z m791 -3 c27 -34 26 -42 -4 -50 -50 -12 -18 -76 57 -113 28 -13 36 -21 23 -21 -43 0 -96 22 -130 54 -28 27 -35 41 -35 71 0 36 -1 37 -27 30 -32 -7 -73 -42 -73 -61 0 -27 63 -84 126 -115 60 -30 69 -31 151 -27 77 4 96 9 148 38 33 18 72 44 87 58 l27 24 29 -21 c17 -11 35 -21 40 -21 6 0 24 -12 41 -26 65 -55 189 -69 285 -34 61 23 146 93 146 120 0 20 -53 70 -74 70 -8 0 -16 -17 -20 -38 -10 -65 -95 -123 -175 -121 l-36 1 32 8 c76 18 160 119 100 120 -7 0 -19 5 -27 10 -12 8 -10 14 15 40 24 25 36 30 77 30 67 0 135 -40 150 -89 2 -9 22 -16 49 -18 68 -6 345 -69 475 -109 896 -271 1637 -854 2107 -1655 243 -415 421 -928 470 -1357 l5 -43 -36 3 -37 3 -36 180 c-104 518 -275 936 -548 1344 -233 347 -558 683 -893 924 -403 291 -902 505 -1402 603 -69 13 -93 23 -112 43 -13 14 -24 31 -24 38 0 25 -18 13 -23 -16 -15 -72 -108 -133 -229 -150 -110 -15 -218 14 -300 82 -51 43 -49 43 -118 -14 -63 -51 -136 -74 -240 -74 -78 0 -92 3 -155 35 -59 29 -74 42 -92 80 -40 77 -27 124 48 169 23 14 51 21 86 21 44 0 55 -4 72 -26z m-1004 -69 c0 -36 -106 -73 -118 -42 -8 21 6 35 48 51 50 19 70 16 70 -9z m2810 -21 c0 -23 -34 -30 -64 -14 -23 12 -28 46 -8 53 22 8 72 -18 72 -39z m-2060 -21 c-37 -58 -55 -71 -113 -78 -78 -10 -308 -67 -443 -111 -599 -193 -1154 -552 -1551 -1002 -331 -376 -567 -779 -727 -1245 -50 -146 -124 -437 -146 -577 -9 -58 -19 -108 -23 -111 -4 -4 -24 -9 -44 -12 -36 -5 -37 -5 -33 21 3 15 14 85 26 155 26 160 85 395 139 552 191 550 479 1014 880 1415 474 475 1057 801 1711 960 136 33 268 58 313 59 l28 1 -17 -27z m-985 -54 c0 -12 -13 -26 -36 -36 -31 -15 -36 -15 -44 -3 -16 25 -11 36 23 52 37 18 57 13 57 -13z m3250 11 c44 -22 48 -31 25 -50 -13 -10 -23 -9 -58 5 -54 24 -61 30 -54 49 9 22 40 20 87 -4z m-2154 -103 c127 -64 189 -75 295 -54 46 9 85 15 86 13 6 -6 -130 -45 -197 -57 -56 -10 -74 -9 -120 5 -76 22 -130 55 -157 95 -25 37 -32 71 -10 53 6 -6 53 -31 103 -55z m1104 42 c0 -12 -16 -37 -36 -55 -19 -19 -33 -34 -29 -34 3 0 30 22 58 49 l52 49 79 -14 c285 -49 656 -178 954 -331 811 -415 1458 -1177 1741 -2046 67 -208 108 -377 146 -609 3 -22 -1 -30 -23 -40 -40 -19 -79 -106 -96 -214 -12 -76 -12 -102 -1 -165 7 -40 18 -87 24 -102 8 -21 8 -26 0 -21 -13 7 -109 206 -109 224 0 5 5 10 10 10 6 0 10 9 10 19 0 50 43 154 86 206 l44 55 -10 68 c-59 375 -218 832 -401 1155 -503 886 -1301 1482 -2292 1711 l-158 37 -43 -39 c-48 -45 -121 -89 -175 -108 -28 -10 -48 -10 -79 -2 -52 13 -53 24 -5 33 44 8 161 54 168 66 3 4 -14 -1 -39 -12 -101 -44 -197 -42 -322 7 -72 29 -96 49 -33 28 116 -40 222 -27 361 46 107 55 118 58 118 29z m-1228 -41 c48 -47 147 -100 224 -120 60 -15 62 -17 44 -28 -46 -29 -181 18 -278 98 l-42 35 -63 -12 c-717 -139 -1413 -527 -1892 -1058 -470 -519 -785 -1185 -879 -1860 -6 -39 -3 -46 38 -92 29 -32 51 -70 64 -113 36 -109 37 -132 9 -180 -13 -24 -32 -67 -42 -96 -22 -70 -27 -63 -9 13 33 137 -22 395 -91 427 -31 14 -32 36 -4 189 147 821 609 1598 1259 2120 418 335 929 579 1457 694 151 33 155 32 205 -17z m649 25 c31 -18 34 -28 20 -65 -26 -73 -26 -74 43 -107 64 -30 76 -45 76 -100 l0 -24 -23 21 c-13 12 -30 22 -38 22 -8 0 -24 7 -35 15 -19 15 -19 15 1 8 18 -6 18 -5 6 10 -22 28 -31 19 -28 -30 1 -31 -2 -48 -10 -48 -6 0 -15 -3 -19 -7 -4 -5 0 -8 9 -8 21 0 22 -14 2 -30 -9 -7 -14 -19 -11 -26 3 -7 -2 -18 -10 -25 -20 -17 -37 2 -37 41 0 16 -4 30 -9 30 -5 0 -6 5 -3 10 3 6 2 10 -4 10 -12 0 -9 79 4 100 5 8 -4 2 -20 -13 -16 -15 -33 -26 -39 -24 -6 2 -19 -7 -29 -20 -10 -13 -23 -23 -28 -23 -12 0 -11 37 1 61 13 23 83 69 105 69 19 0 19 13 -1 79 -14 49 -14 54 2 72 21 23 38 24 75 2z m-1823 -29 c3 -23 -76 -71 -102 -61 -29 11 -14 39 34 63 51 26 64 26 68 -2z m3652 11 c30 -16 40 -48 19 -60 -14 -9 -66 13 -73 32 -6 14 9 43 21 43 2 0 17 -7 33 -15z m-1997 -125 c-35 -22 -77 -46 -93 -55 -29 -15 -31 -15 -39 7 -10 26 -14 24 99 61 102 33 104 32 33 -13z m307 9 c36 -10 80 -19 98 -19 l33 0 -16 -30 -16 -30 -37 15 c-20 9 -59 29 -85 45 -27 17 -52 30 -57 30 -5 0 -12 5 -16 12 -5 8 -2 9 12 4 10 -5 48 -17 84 -27z m1904 -7 c42 -29 47 -41 22 -57 -26 -17 -111 40 -100 68 9 24 33 21 78 -11z m-4089 1 c8 -21 -39 -66 -64 -61 -29 6 -25 45 6 62 37 20 49 20 58 -1z m-190 -128 c0 -11 -17 -31 -42 -49 -35 -24 -45 -27 -58 -16 -23 19 -19 27 27 60 46 34 73 35 73 5z m4476 4 c32 -23 36 -40 14 -59 -11 -9 -20 -8 -45 10 -32 23 -37 39 -18 58 15 15 15 16 49 -9z m-3218 -35 c22 -29 82 -58 97 -49 6 4 10 2 10 -3 0 -5 -11 -14 -24 -22 -14 -7 -35 -32 -48 -56 l-23 -43 -25 23 c-34 32 -63 46 -97 46 l-28 0 32 16 c34 17 73 69 73 98 0 23 9 20 33 -10z m1946 -18 c10 -24 31 -52 46 -62 l27 -18 -42 -12 c-23 -7 -55 -25 -71 -40 -26 -25 -29 -26 -29 -8 0 26 -32 72 -65 94 l-26 17 38 6 c25 4 50 18 68 37 16 16 30 30 31 30 2 0 12 -20 23 -44z m-285 18 c7 -19 -1 -34 -19 -34 -18 0 -28 17 -21 35 7 20 32 19 40 -1z m-1384 -14 c0 -13 -7 -20 -19 -20 -22 0 -35 15 -26 30 12 19 45 11 45 -10z m3134 -99 c15 -17 16 -23 6 -36 -7 -8 -17 -15 -23 -15 -18 0 -57 42 -57 61 0 35 38 30 74 -10z m-4874 9 c9 -17 6 -24 -16 -45 -30 -28 -42 -28 -58 -1 -9 14 -5 22 19 42 36 29 41 30 55 4z m1208 -63 c4 -21 -25 -34 -40 -19 -8 8 -8 16 2 27 16 19 34 15 38 -8z m2450 0 c4 -20 -25 -34 -40 -19 -15 15 -1 44 19 40 10 -2 19 -11 21 -21z m444 -64 c9 -10 26 -43 37 -73 14 -36 33 -65 57 -83 19 -16 37 -27 39 -25 3 2 0 21 -6 41 -12 46 -4 79 19 75 16 -3 37 -37 74 -123 10 -22 29 -53 42 -68 l24 -28 -5 59 c-5 58 2 78 24 64 6 -4 27 -45 47 -92 38 -88 95 -172 82 -120 -17 65 -18 96 -2 109 24 20 40 2 81 -97 20 -48 47 -100 60 -116 l23 -29 -8 44 c-9 47 3 93 23 87 16 -6 65 -95 73 -135 7 -37 11 -39 35 -17 27 25 59 3 59 -41 0 -29 4 -35 21 -35 24 0 125 -48 140 -67 6 -7 8 -20 5 -29 -6 -17 -49 -16 -106 1 l-25 8 27 -22 c15 -12 65 -43 110 -68 104 -57 122 -72 107 -90 -15 -17 -46 -17 -99 2 -24 8 -45 14 -46 12 -7 -7 95 -78 172 -120 43 -24 78 -48 77 -53 -4 -16 -70 -16 -108 0 -51 22 -53 20 -20 -13 15 -17 58 -42 94 -56 68 -28 111 -59 111 -82 0 -18 -58 -16 -90 2 -37 21 -42 18 -26 -14 31 -59 66 -89 128 -110 81 -27 140 -81 89 -81 -10 0 -49 11 -86 25 -37 14 -70 23 -73 20 -3 -3 33 -42 80 -88 78 -74 138 -160 124 -175 -3 -3 -24 9 -47 27 -22 18 -43 31 -45 28 -3 -3 3 -26 14 -51 21 -46 72 -207 72 -222 -1 -5 -22 41 -48 101 -51 121 -48 121 -69 5 l-9 -45 -18 27 c-15 22 -17 47 -17 147 1 67 -2 121 -7 121 -4 0 -13 -23 -20 -52 -14 -60 -18 -66 -35 -49 -13 13 -14 74 -2 186 5 54 3 74 -8 89 -13 18 -14 16 -21 -23 -3 -24 -14 -59 -22 -79 l-16 -37 -10 30 c-5 17 -13 77 -17 135 -5 58 -14 117 -21 130 -13 24 -14 24 -33 -33 -32 -96 -47 -73 -56 85 -5 80 -11 112 -23 124 -15 15 -16 12 -23 -34 -4 -28 -13 -59 -20 -69 -13 -17 -15 -14 -34 27 -12 27 -21 67 -21 100 0 53 -21 115 -54 162 -14 20 -15 17 -10 -43 5 -50 2 -68 -10 -84 -16 -20 -16 -20 -35 5 -20 25 -51 120 -51 154 0 15 -8 11 -40 -18 -49 -44 -91 -48 -116 -11 -13 20 -14 30 -4 60 7 20 18 39 26 42 27 10 13 23 -26 23 -54 0 -122 28 -118 48 4 20 37 30 108 31 l55 1 -25 20 c-33 26 -113 50 -167 50 -50 0 -125 27 -120 44 5 15 64 35 107 35 26 1 31 4 22 13 -6 6 -53 15 -104 18 -52 4 -111 14 -133 24 -38 16 -39 18 -21 32 12 8 43 14 78 14 65 0 73 11 26 37 -25 13 -53 17 -108 16 -66 -2 -142 7 -190 24 -22 7 45 40 100 49 l45 7 -32 13 c-25 11 -49 11 -112 3 -69 -9 -89 -8 -136 7 -96 30 -83 54 30 54 l70 0 -45 31 c-25 16 -71 43 -102 60 -32 16 -58 32 -58 34 0 3 13 -1 30 -10 35 -18 57 -19 62 -3 5 15 97 -31 164 -83 28 -21 54 -39 57 -39 3 0 -5 24 -18 53 -30 64 -33 102 -7 88 9 -5 25 -17 34 -28z m-3332 5 c0 -13 -11 -47 -25 -76 l-25 -54 28 22 c58 46 175 120 188 120 8 0 14 -7 14 -16 0 -11 6 -14 23 -9 12 4 -16 -16 -63 -44 -47 -28 -92 -51 -100 -52 -8 -1 24 -5 71 -9 108 -9 127 -19 68 -37 -32 -10 -72 -12 -144 -8 -92 6 -103 5 -125 -14 l-25 -20 31 -1 c17 0 53 -8 80 -17 l49 -17 -50 -12 c-27 -7 -82 -13 -120 -13 -79 -1 -125 -12 -164 -38 l-26 -18 73 -6 c95 -7 110 -22 51 -48 -32 -15 -66 -21 -125 -21 -51 0 -87 -5 -99 -13 -16 -13 -13 -15 29 -20 49 -7 86 -22 86 -36 0 -16 -57 -34 -132 -42 -55 -5 -93 -16 -130 -36 l-52 -28 72 -7 c76 -8 117 -23 107 -39 -11 -17 -79 -40 -123 -41 l-43 -1 24 -26 c33 -35 40 -72 21 -99 -27 -39 -88 -24 -136 33 -17 20 -17 20 -18 -11 0 -47 -27 -127 -51 -153 -22 -23 -23 -23 -37 -5 -13 19 -12 102 3 150 6 18 6 18 -10 -1 -34 -39 -57 -108 -64 -189 -15 -159 -74 -182 -80 -31 l-2 40 -16 -30 c-11 -20 -17 -58 -19 -110 -1 -80 -25 -162 -43 -151 -5 3 -15 29 -22 56 -23 89 -37 61 -49 -95 -4 -60 -12 -121 -18 -135 l-10 -25 -12 30 c-6 16 -16 52 -22 80 l-11 50 -13 -30 c-16 -37 -17 -86 -3 -157 10 -47 9 -61 -6 -92 -10 -20 -20 -34 -24 -31 -3 4 -13 34 -23 68 l-16 62 -1 -127 c-1 -116 -12 -178 -31 -178 -4 0 -13 32 -20 72 l-12 71 -46 -106 c-25 -59 -46 -106 -48 -104 -4 4 53 196 71 240 8 21 13 37 10 37 -4 0 -24 -14 -46 -32 -21 -17 -41 -29 -44 -26 -11 11 50 110 93 150 59 53 96 97 89 104 -3 3 -32 -6 -66 -20 -69 -29 -91 -32 -91 -12 0 24 49 55 120 76 66 20 68 21 99 80 34 63 32 70 -15 45 -38 -19 -94 -20 -94 -1 0 22 44 52 119 81 37 14 79 37 91 50 27 29 21 30 -35 11 -43 -15 -98 -11 -92 8 1 6 42 31 89 56 91 48 158 95 158 111 0 5 -16 2 -36 -6 -42 -17 -82 -19 -104 -5 -13 9 -11 13 10 30 14 11 59 38 100 60 41 22 86 49 100 61 l25 21 -25 -6 c-14 -3 -34 -9 -45 -12 -11 -2 -29 2 -40 11 -20 15 -19 16 13 44 19 16 57 36 87 45 44 14 52 20 48 37 -6 22 21 69 41 69 7 0 19 -7 26 -15 16 -20 30 -19 30 1 0 26 41 132 55 144 7 6 20 7 30 4 13 -6 16 -17 13 -61 -3 -47 -1 -51 11 -36 7 10 26 47 43 83 46 103 71 150 78 150 28 0 40 -73 20 -125 -8 -20 -7 -26 2 -23 7 2 39 55 70 118 32 63 62 116 67 118 15 5 24 -43 16 -86 l-7 -37 26 24 c14 13 37 54 51 91 29 76 58 111 77 92 9 -9 9 -25 1 -64 -6 -29 -10 -54 -9 -55 1 -1 16 7 33 18 22 14 43 44 68 97 21 42 42 83 47 90 17 20 38 14 38 -10z m260 2 c-8 -5 -19 -10 -25 -10 -5 0 -3 5 5 10 8 5 20 10 25 10 6 0 3 -5 -5 -10z m1615 0 c1131 -96 2126 -823 2559 -1872 171 -413 245 -810 233 -1248 -21 -778 -324 -1473 -892 -2046 -507 -512 -1135 -814 -1849 -889 -894 -94 -1795 239 -2431 896 -463 479 -769 1116 -850 1770 -20 163 -20 514 0 679 53 436 180 823 393 1195 174 305 365 542 611 758 229 202 395 313 664 449 472 236 1053 351 1562 308z m2419 -49 c21 -23 15 -51 -11 -51 -19 0 -83 58 -83 75 0 6 5 16 12 23 12 12 46 -7 82 -47z m-5220 33 c7 -18 -56 -84 -80 -84 -33 0 -28 33 11 67 43 37 60 41 69 17z m5383 -221 c-20 -20 -40 -12 -64 24 -12 18 -12 23 3 38 16 16 19 15 48 -14 29 -29 30 -32 13 -48z m-5569 44 c5 -23 -25 -57 -50 -57 -29 0 -33 28 -7 56 26 28 52 28 57 1z m-148 -142 c11 -13 8 -22 -17 -53 -32 -39 -65 -49 -71 -20 -3 16 52 88 68 88 4 0 13 -7 20 -15z m5859 -20 c34 -39 39 -62 15 -72 -29 -11 -96 70 -79 97 11 19 33 10 64 -25z m-6021 -213 c-10 -17 -25 -27 -40 -27 -33 0 -34 30 -3 61 25 25 28 25 43 10 15 -15 15 -18 0 -44z m6171 34 c28 -30 24 -61 -7 -61 -32 0 -61 47 -43 69 18 21 24 20 50 -8z m-6300 -169 c15 -19 -43 -111 -65 -103 -9 3 -18 6 -20 6 -12 0 -1 35 22 70 28 42 44 49 63 27z m6446 -24 c22 -33 33 -73 21 -73 -2 0 -11 -3 -20 -6 -22 -8 -80 84 -65 103 19 22 37 15 64 -24z m-6586 -187 c19 -22 -13 -78 -42 -74 -29 4 -32 29 -7 61 24 31 33 33 49 13z m6717 -21 c17 -32 17 -36 2 -51 -19 -20 -33 -13 -54 27 -12 24 -13 34 -3 45 19 23 34 17 55 -21z m-6827 -169 c18 -22 -16 -86 -46 -86 -29 0 -30 23 -3 68 22 35 32 39 49 18z m6930 -12 c18 -23 29 -74 17 -74 -2 0 -11 -3 -20 -6 -22 -8 -62 72 -45 92 16 20 25 18 48 -12z m-7029 -218 c0 -11 -9 -36 -20 -54 -17 -28 -23 -31 -40 -22 -19 10 -19 13 -5 47 9 20 20 42 26 49 15 18 39 6 39 -20z m7142 -12 c21 -49 15 -69 -18 -62 -21 4 -49 69 -41 93 12 29 38 15 59 -31z m98 -240 c0 -14 -7 -27 -15 -30 -37 -14 -71 60 -38 84 16 11 20 10 36 -9 9 -12 17 -32 17 -45z m-7335 45 c17 -27 -23 -93 -50 -83 -18 7 -19 34 -3 69 11 25 41 34 53 14z m-91 -205 c19 -7 20 -24 4 -76 -9 -31 -16 -38 -32 -36 -16 2 -21 10 -20 33 2 30 20 85 28 85 2 0 11 -3 20 -6z m7492 -30 c20 -47 15 -79 -11 -79 -15 0 -24 11 -34 43 -7 23 -10 49 -7 57 10 27 37 16 52 -21z m-6858 -177 c4 -20 -25 -34 -40 -19 -15 15 -1 44 19 40 10 -2 19 -11 21 -21z m6235 11 c7 -21 -4 -38 -23 -38 -10 0 -20 6 -23 13 -7 20 4 37 23 37 10 0 20 -6 23 -12z m687 -57 c15 -30 12 -71 -6 -78 -33 -12 -59 58 -32 85 17 17 26 15 38 -7z m-7610 -19 c0 -37 -22 -67 -44 -59 -33 13 -17 87 20 87 20 0 24 -5 24 -28z m620 -102 c0 -11 17 -37 38 -59 l37 -39 -35 -11 c-20 -6 -47 -22 -60 -36 -28 -30 -40 -32 -40 -6 0 24 -46 80 -74 91 -18 7 -15 9 20 19 23 6 55 24 70 39 32 30 44 31 44 2z m6440 -36 l37 -6 -43 -44 c-24 -24 -44 -53 -44 -64 0 -26 -16 -26 -30 0 -6 10 -32 27 -59 36 l-48 18 33 28 c18 16 38 44 44 62 l11 33 30 -28 c18 -17 48 -32 69 -35z m-7110 -88 c0 -53 -16 -86 -41 -86 -20 0 -21 4 -16 50 7 61 12 70 38 70 15 0 19 -7 19 -34z m7714 3 c12 -61 8 -89 -13 -89 -26 0 -31 9 -38 70 -6 48 -5 50 19 50 21 0 27 -6 32 -31z m-7109 -213 c0 -22 -14 -29 -34 -17 -19 12 -6 43 16 39 10 -2 18 -12 18 -22z m6501 13 c3 -6 0 -18 -9 -26 -18 -18 -37 -9 -37 18 0 21 34 27 46 8z m-6991 -115 c-21 -40 -20 -41 24 -47 90 -12 131 -74 139 -210 4 -74 7 -87 21 -85 13 3 17 20 19 89 4 136 -39 233 -122 269 -37 17 -39 19 -14 19 40 1 72 -14 112 -54 89 -89 95 -162 33 -370 -12 -39 -15 -44 -16 -22 -2 43 -28 32 -57 -24 -14 -28 -37 -62 -51 -75 l-26 -24 39 -43 c22 -24 47 -58 57 -76 19 -37 38 -37 48 0 l6 24 10 -25 c21 -50 43 -166 43 -221 0 -137 -66 -235 -174 -260 -44 -10 -61 -9 -86 1 -62 26 -92 138 -49 179 21 19 21 21 5 46 -9 14 -22 25 -29 26 -63 4 -73 10 -63 35 6 15 8 16 24 0 10 -9 23 -16 28 -16 21 0 64 57 64 83 0 31 -11 35 -31 11 -12 -14 -14 -14 -26 2 -7 10 -13 13 -13 7 0 -6 -9 -13 -20 -16 -24 -6 -24 -4 -6 31 7 15 17 38 21 52 l7 25 -27 -25 c-36 -34 -106 -147 -155 -253 -22 -48 -45 -85 -50 -82 -13 8 -13 102 0 110 6 3 10 0 11 -7 1 -21 18 25 18 52 2 43 83 165 139 210 29 22 52 45 52 51 0 6 -3 8 -8 5 -4 -2 -16 2 -27 10 -17 13 -15 14 23 14 35 0 42 3 42 19 0 11 -5 21 -12 23 -9 3 -9 6 -1 11 7 5 17 -2 24 -15 6 -13 28 -40 47 -61 33 -34 37 -43 40 -105 2 -40 -3 -95 -13 -137 -24 -105 -24 -119 3 -123 29 -4 58 20 83 70 45 88 33 206 -31 299 -22 32 -40 64 -40 69 0 6 15 31 34 56 69 90 83 196 38 298 -24 53 -69 83 -96 63 -17 -12 -17 -18 -1 -92 34 -162 19 -270 -40 -297 -23 -10 -31 -5 -114 81 -93 96 -125 146 -146 234 -7 29 -13 44 -14 35 -1 -10 -5 -18 -11 -18 -5 0 -10 25 -10 55 0 30 5 55 10 55 6 0 22 -25 35 -57 29 -65 117 -218 143 -248 19 -23 52 -39 52 -26 0 4 -11 29 -25 55 -30 57 -32 67 -5 33 24 -30 74 -44 95 -27 19 16 19 49 0 56 -8 3 -21 20 -30 37 -15 29 -14 32 12 59 l27 29 -27 25 c-31 28 -35 66 -13 118 15 36 46 60 59 47 4 -4 1 -21 -8 -37z m7477 6 c28 -38 28 -105 1 -132 l-22 -21 -19 23 c-17 21 -23 23 -45 13 -39 -18 -69 -86 -75 -169 -6 -89 14 -154 64 -213 l36 -42 -36 -55 c-63 -94 -83 -176 -65 -262 13 -63 59 -122 95 -122 34 0 38 18 19 84 -9 31 -14 59 -11 64 3 5 0 41 -5 81 -9 64 -8 77 8 108 11 20 28 42 39 49 18 13 28 6 115 -79 100 -96 166 -199 153 -239 -4 -13 0 -18 15 -18 19 0 21 -6 21 -56 0 -48 -2 -55 -15 -44 -8 6 -17 22 -21 33 -4 12 -33 69 -66 127 -59 104 -120 180 -145 180 -16 0 -16 -3 2 -46 16 -39 18 -37 -29 -18 -7 3 -21 -6 -30 -22 -18 -26 -17 -27 15 -60 38 -39 66 -44 78 -12 5 14 10 17 15 10 12 -21 -13 -51 -49 -58 -52 -9 -63 -28 -37 -64 25 -34 28 -67 8 -113 -28 -66 -87 -89 -169 -65 -135 40 -187 237 -112 422 24 59 30 66 36 48 12 -32 22 -27 48 19 13 23 37 56 53 75 l30 34 -37 41 c-20 23 -41 54 -47 70 -6 16 -19 34 -29 40 -25 13 -24 25 1 32 18 5 20 14 20 83 0 124 54 204 139 204 26 0 31 4 31 24 0 13 -10 36 -21 51 l-22 27 23 -4 c13 -1 32 -14 42 -28z m-7737 -12 c41 -35 69 -86 79 -141 14 -74 -21 -71 -60 5 -14 27 -43 70 -66 94 -65 70 -25 106 47 42z m7576 3 c-17 -16 -41 -51 -54 -78 -20 -43 -22 -64 -22 -199 l0 -152 -23 82 c-12 44 -25 110 -29 146 -7 81 13 127 83 189 54 47 94 58 45 12z m453 23 c24 -9 19 -26 -17 -55 -17 -14 -50 -58 -71 -97 -22 -40 -43 -72 -47 -72 -15 0 -21 47 -10 85 13 49 58 112 90 130 30 16 34 17 55 9z m-4 -134 c0 -58 -15 -83 -23 -37 -3 19 -4 19 -11 -8 -29 -123 -87 -238 -126 -250 -11 -3 -27 -16 -37 -28 -10 -12 -35 -35 -55 -50 l-38 -28 -24 24 c-14 14 -28 42 -32 63 -8 44 9 223 24 250 9 16 11 16 28 -4 10 -12 24 -22 31 -22 20 0 15 -17 -7 -23 -13 -3 -22 -17 -26 -36 -4 -18 -13 -31 -21 -31 -8 0 -13 -7 -11 -17 3 -15 13 -18 51 -16 39 2 47 0 47 -15 0 -10 -7 -27 -15 -38 -16 -21 -20 -54 -6 -54 15 0 89 86 112 131 12 24 32 59 44 79 13 19 29 53 35 75 12 37 46 95 56 95 2 0 4 -27 4 -60z m-7860 -99 c0 -13 -28 -22 -35 -11 -3 4 1 11 7 13 20 8 28 8 28 -2z m7665 -12 c9 -28 4 -29 -22 -2 -21 21 -21 23 -3 23 10 0 22 -9 25 -21z m-7844 -98 c19 -15 23 -28 24 -72 0 -48 -3 -54 -27 -68 -25 -15 -31 -15 -55 0 -25 13 -28 21 -27 62 0 35 6 53 24 72 28 30 31 30 61 6z m8051 -11 c10 -14 21 -42 25 -63 10 -63 -42 -98 -94 -62 -38 26 -36 93 5 138 20 23 40 19 64 -13z m-709 -58 c21 -19 73 -112 69 -124 -1 -5 10 -2 25 5 50 25 83 29 109 12 29 -19 31 -45 5 -76 -17 -21 -21 -22 -58 -11 -77 23 -90 18 -121 -45 -20 -42 -36 -60 -60 -70 -29 -12 -32 -11 -32 6 0 10 7 24 15 31 21 18 19 40 -5 40 -23 0 -26 19 -7 39 10 11 6 13 -20 8 -27 -5 -33 -3 -34 11 0 9 -3 12 -5 5 -6 -13 -63 -7 -79 8 -13 13 14 31 38 25 9 -2 17 2 17 9 0 12 50 25 98 25 25 0 30 25 6 34 -13 5 -14 9 -4 21 9 11 8 19 -4 37 -9 12 -16 26 -16 31 0 12 41 -2 63 -21z m-6633 10 c0 -5 -3 -12 -7 -16 -5 -4 -9 -27 -9 -51 l-1 -44 31 6 c28 6 30 5 17 -11 -18 -21 -7 -33 15 -16 13 11 17 11 24 0 4 -7 15 -10 23 -7 8 3 23 -1 34 -8 15 -11 16 -16 5 -27 -11 -11 -14 -10 -22 2 -8 13 -10 12 -10 -2 0 -21 -4 -22 -32 -7 -18 10 -20 9 -15 -5 3 -8 2 -18 -4 -21 -5 -4 -12 1 -15 9 -3 9 -12 16 -20 16 -16 0 -19 -16 -4 -25 18 -11 10 -25 -15 -25 -30 0 -30 -1 -5 -50 l20 -40 -23 0 c-36 0 -64 26 -91 85 -25 56 -44 67 -66 41 -6 -8 -18 -12 -25 -10 -8 3 -22 1 -31 -4 -13 -7 -22 -3 -41 18 -29 35 -29 41 1 69 24 23 25 23 76 6 28 -9 52 -15 54 -14 17 28 65 90 84 112 25 26 52 36 52 19z m-623 -82 c-12 -32 -15 -34 -35 -21 -10 6 -8 14 10 34 28 32 40 26 25 -13z m7858 -40 c-9 -15 -35 -12 -41 5 -4 8 -1 22 6 30 11 14 15 13 27 -5 8 -11 11 -25 8 -30z m-8027 14 c27 -6 30 -9 21 -25 -5 -11 -7 -34 -4 -53 6 -31 5 -34 -23 -38 -36 -5 -54 0 -46 14 8 13 -14 28 -43 28 -35 0 -27 17 12 30 29 9 35 16 30 31 -7 21 2 23 53 13z m8208 -12 c-5 -15 2 -21 34 -31 48 -14 45 -27 -10 -36 -32 -5 -38 -10 -30 -20 14 -17 -12 -27 -48 -19 -41 10 -43 13 -26 40 15 22 15 26 0 48 -15 23 -15 25 7 29 12 2 35 5 50 6 23 1 27 -2 23 -17z m-8106 -7 c16 -19 11 -19 -31 0 -33 14 -33 14 -8 15 15 0 32 -7 39 -15z m145 5 c4 -6 -7 -10 -25 -10 -18 0 -29 4 -25 10 3 6 15 10 25 10 10 0 22 -4 25 -10z m7695 -1 c0 -5 -10 -9 -23 -9 -13 0 -32 -6 -42 -14 -19 -13 -18 -16 20 -50 21 -20 36 -38 33 -41 -2 -3 -24 13 -47 34 -38 35 -41 41 -29 60 7 11 19 22 28 24 29 7 60 4 60 -4z m-7777 -74 c3 -38 4 -40 36 -38 l34 1 -29 -19 c-36 -23 -60 -24 -73 -2 -7 12 -5 21 7 30 13 9 14 15 5 21 -7 4 -9 13 -3 21 4 8 6 21 3 30 -4 11 -3 13 5 6 6 -6 13 -28 15 -50z m7935 30 c5 -21 -13 -34 -39 -28 -24 7 -24 22 -1 39 21 17 36 13 40 -11z m-8018 5 c0 -5 10 -10 23 -10 21 -1 22 -1 3 -15 -31 -24 -56 -19 -56 10 0 16 6 25 15 25 8 0 15 -4 15 -10z m150 -10 c-8 -5 -19 -10 -25 -10 -5 0 -3 5 5 10 8 5 20 10 25 10 6 0 3 -5 -5 -10z m7750 -11 c0 -12 -19 -21 -30 -14 -6 4 -8 10 -6 14 7 10 36 10 36 0z m30 -4 c10 -12 10 -15 -2 -15 -8 0 -15 7 -15 15 0 8 1 15 2 15 2 0 8 -7 15 -15z m-7910 -72 c15 -20 19 -35 15 -57 -8 -38 -37 -80 -58 -84 -22 -4 -67 66 -67 105 0 64 70 87 110 36z m7460 22 c0 -4 -7 -19 -15 -35 -21 -41 -37 -217 -25 -277 18 -96 72 -212 107 -231 14 -9 15 -17 4 -73 -239 -1238 -1147 -2290 -2325 -2695 -151 -52 -395 -117 -510 -135 -66 -10 -81 -10 -84 1 -3 7 -20 29 -39 49 -27 28 -30 29 -14 7 22 -30 28 -66 11 -66 -5 0 -31 13 -58 29 -26 17 -79 45 -117 63 -64 30 -77 33 -160 31 -49 0 -112 -8 -140 -17 -43 -13 -47 -13 -30 0 11 8 56 26 100 41 105 34 192 36 260 5 28 -12 41 -15 31 -7 -17 12 -63 32 -144 60 -22 8 -4 24 34 31 50 9 151 -43 228 -118 33 -32 67 -58 75 -58 40 0 345 78 486 125 565 187 1044 495 1445 929 444 480 736 1030 875 1651 15 66 29 123 32 128 3 4 -15 29 -40 56 -47 51 -84 132 -90 203 -3 24 -8 50 -12 59 -4 10 4 37 18 65 13 27 34 79 46 117 14 41 28 67 37 67 8 0 14 -2 14 -5z m460 -8 c0 -7 -6 -21 -13 -31 -13 -17 -15 -17 -43 9 -16 15 -22 25 -13 22 9 -3 22 -1 30 4 20 13 39 11 39 -4z m122 -4 c22 -20 23 -54 2 -99 -30 -63 -65 -69 -97 -15 -24 41 -21 78 8 106 28 29 61 32 87 8z m-7497 -50 c4 -26 20 -73 36 -104 27 -53 28 -61 18 -118 -15 -92 -47 -169 -92 -218 l-40 -43 17 -88 c166 -847 637 -1592 1341 -2119 376 -282 844 -499 1315 -609 80 -19 152 -34 161 -34 9 0 43 26 76 58 34 33 87 71 126 90 62 31 70 32 103 22 l36 -12 -109 -53 c-89 -44 -119 -64 -162 -111 l-53 -57 -96 18 c-480 89 -1029 334 -1437 640 -292 219 -561 493 -771 785 -287 400 -507 916 -589 1382 -13 71 -13 83 -1 90 22 12 72 106 90 168 18 60 26 307 12 349 -5 15 -5 21 2 17 5 -3 13 -27 17 -53z m7401 -281 c20 -35 49 -79 66 -97 33 -38 30 -55 -9 -55 -31 0 -88 57 -114 115 -11 23 -19 63 -19 95 l0 55 20 -25 c11 -14 36 -53 56 -88z m-7866 50 c0 -88 -77 -202 -136 -202 -37 0 -39 23 -4 60 17 18 43 54 57 79 40 71 67 111 76 111 4 0 7 -22 7 -48z m295 -254 c2 -2 15 -64 30 -138 278 -1389 1379 -2484 2799 -2784 96 -21 125 -31 148 -53 34 -32 37 -63 7 -63 -41 0 -276 51 -416 91 -396 112 -787 295 -1123 527 -328 225 -677 570 -906 892 -243 343 -450 790 -554 1200 -31 121 -70 322 -64 332 4 7 73 3 79 -4z m383 -11 c4 -20 -25 -34 -40 -19 -15 15 -1 44 19 40 10 -2 19 -11 21 -21z m6480 -5 c3 -16 -2 -22 -16 -22 -24 0 -35 23 -19 39 16 16 31 8 35 -17z m387 -157 c-145 -679 -477 -1289 -980 -1804 -535 -548 -1144 -878 -1906 -1035 -70 -14 -138 -26 -152 -26 -24 0 -25 2 -16 29 17 49 42 62 166 87 714 142 1338 482 1848 1005 498 512 832 1134 966 1801 l23 117 36 3 c32 3 35 1 38 -27 2 -17 -9 -85 -23 -150z m-7495 76 c14 -28 12 -57 -5 -71 -23 -19 -45 5 -45 51 0 32 3 39 20 39 10 0 24 -9 30 -19z m7744 2 c9 -22 -12 -83 -29 -83 -31 0 -41 52 -18 93 8 13 41 7 47 -10z m-7001 -127 l35 -7 -28 -28 c-16 -15 -34 -46 -40 -68 -12 -40 -13 -40 -32 -21 -23 23 -79 48 -107 48 -15 0 -11 7 20 39 22 21 42 53 45 70 l6 31 33 -29 c18 -15 48 -31 68 -35z m6320 25 c4 -16 22 -45 41 -64 l35 -35 -34 -6 c-18 -4 -49 -17 -68 -30 l-35 -24 -17 45 c-11 28 -29 52 -47 63 l-30 18 43 7 c27 5 52 17 68 34 31 32 37 31 44 -8z m-7013 -152 c13 -49 8 -69 -19 -69 -15 0 -22 11 -29 47 -12 53 -9 63 18 63 14 0 22 -11 30 -41z m7645 32 c3 -6 0 -30 -6 -55 -9 -39 -15 -46 -35 -46 -27 0 -32 25 -13 79 11 30 41 43 54 22z m-6936 -174 c12 -15 -3 -37 -25 -37 -17 0 -24 26 -11 39 14 14 22 14 36 -2z m6209 -10 c4 -20 -25 -34 -40 -19 -15 15 -1 44 19 40 10 -2 19 -11 21 -21z m-6852 -73 c18 -42 13 -64 -14 -64 -28 0 -56 73 -35 93 15 16 35 4 49 -29z m7512 10 c5 -34 -15 -74 -38 -74 -29 0 -36 26 -16 67 18 38 49 42 54 7z m-6788 -100 c17 -36 30 -73 30 -82 1 -29 15 7 29 71 7 31 16 57 21 57 17 0 30 -101 23 -192 -7 -102 6 -114 26 -23 14 61 22 67 39 30 15 -32 15 -67 1 -137 -10 -48 -9 -60 9 -98 22 -47 20 -49 42 48 7 28 16 52 20 52 17 0 24 -39 29 -154 7 -132 21 -159 41 -76 23 96 59 47 69 -95 4 -49 11 -99 18 -109 12 -21 12 -20 28 77 14 88 66 13 70 -103 2 -58 9 -91 26 -125 35 -71 48 -75 38 -12 -10 59 1 112 22 112 21 0 59 -77 66 -135 l6 -51 31 32 c55 56 110 61 123 12 3 -15 1 -39 -5 -55 -9 -26 -8 -28 14 -28 28 0 104 -29 104 -40 0 -4 -41 -18 -91 -30 -50 -13 -87 -26 -82 -31 5 -5 51 -23 102 -41 52 -18 96 -38 98 -44 5 -15 -30 -24 -97 -24 -50 -1 -53 -2 -36 -15 14 -11 46 -14 117 -14 82 1 104 -2 130 -19 l32 -20 -26 -17 c-14 -9 -47 -20 -74 -24 -48 -8 -48 -8 -20 -19 16 -7 64 -12 107 -12 75 0 150 -21 150 -41 0 -12 -60 -29 -104 -29 l-41 -1 30 -17 c22 -12 57 -17 130 -17 93 -1 155 -15 155 -36 0 -4 -33 -16 -72 -27 -67 -18 -71 -21 -48 -30 15 -6 45 -6 75 -1 93 15 173 11 216 -12 23 -11 38 -23 34 -27 -3 -4 -45 -9 -93 -12 l-87 -5 105 -53 c58 -30 96 -51 85 -47 -45 15 -78 18 -71 7 25 -40 -88 6 -167 68 -27 22 -51 39 -53 37 -2 -2 8 -30 21 -63 30 -72 31 -84 6 -84 -13 0 -31 23 -60 79 -35 68 -105 150 -117 138 -2 -2 2 -29 8 -60 9 -44 9 -60 0 -69 -18 -18 -36 6 -62 86 -14 42 -36 84 -57 107 -42 46 -56 50 -42 10 13 -36 8 -103 -8 -108 -6 -2 -25 32 -43 81 -18 46 -45 99 -61 118 l-28 33 6 -62 c5 -53 3 -64 -11 -69 -23 -9 -36 11 -71 105 -23 61 -70 151 -80 151 -1 0 -1 -28 -1 -62 1 -51 -2 -63 -16 -66 -21 -4 -50 50 -68 125 -12 51 -13 52 -33 38 -12 -8 -29 -15 -39 -15 -21 0 -42 35 -35 61 4 15 -5 21 -47 33 -63 19 -112 56 -103 79 8 21 44 22 92 1 90 -37 18 25 -97 84 -97 50 -118 64 -118 79 0 21 46 26 99 10 28 -8 51 -11 51 -7 0 14 -91 76 -167 114 -40 20 -73 40 -73 46 0 18 64 21 108 6 40 -14 42 -14 33 3 -15 27 -53 49 -108 62 -60 15 -93 31 -117 57 -36 40 0 53 74 27 24 -8 45 -14 47 -12 1 2 -11 29 -28 60 -23 42 -37 58 -57 62 -102 21 -152 44 -152 70 0 21 35 19 103 -4 32 -11 57 -16 57 -11 0 5 -29 34 -64 65 -60 53 -137 167 -122 182 3 3 22 -9 43 -28 51 -44 52 -27 9 94 -20 53 -33 97 -30 97 2 0 18 -30 34 -66z m6010 -54 c-40 -111 -39 -120 11 -75 22 20 43 34 46 31 3 -2 -10 -32 -28 -67 -22 -41 -49 -74 -84 -100 -45 -34 -82 -76 -73 -84 2 -2 32 6 67 17 62 19 91 19 91 -2 0 -18 -59 -47 -118 -59 -55 -11 -59 -14 -90 -65 -17 -30 -32 -56 -32 -59 0 -2 25 3 56 10 62 16 83 9 66 -24 -12 -22 -59 -46 -119 -62 -37 -10 -109 -58 -100 -67 2 -2 20 1 41 7 41 11 99 3 93 -14 -2 -6 -39 -29 -83 -51 -73 -38 -157 -96 -150 -103 2 -2 23 1 47 8 57 14 109 -2 88 -27 -7 -9 -51 -35 -98 -59 -48 -24 -99 -55 -116 -69 l-30 -25 35 9 c46 13 87 13 95 -1 14 -22 -60 -77 -127 -93 -22 -5 -27 -12 -30 -44 -2 -30 -7 -38 -26 -40 -13 -2 -31 3 -41 12 -16 15 -19 11 -38 -57 -25 -84 -56 -125 -80 -105 -11 9 -14 24 -9 60 4 27 9 56 13 66 3 9 -11 -5 -30 -32 -20 -26 -46 -78 -58 -115 -26 -78 -49 -121 -65 -121 -19 0 -26 36 -19 93 l6 52 -30 -35 c-17 -19 -42 -70 -56 -112 -31 -90 -50 -113 -64 -75 -6 15 -6 40 0 63 13 60 12 61 -31 19 -25 -25 -45 -57 -56 -89 -29 -94 -36 -106 -57 -106 -18 0 -19 4 -13 50 4 28 9 57 12 65 4 9 0 15 -9 15 -24 0 -83 -73 -102 -126 -20 -54 -51 -94 -73 -94 -19 0 -10 37 26 112 32 64 26 64 -54 -1 -61 -51 -129 -79 -153 -64 -13 8 -29 6 -64 -7 -26 -10 -47 -17 -47 -15 0 2 53 29 117 61 66 33 108 60 97 61 -10 1 -50 5 -88 8 l-69 7 34 21 c37 24 125 29 229 14 41 -6 60 -4 74 6 18 13 13 16 -53 36 -39 12 -69 26 -66 31 10 16 114 32 168 25 39 -5 63 -2 97 11 l45 19 -58 7 c-32 4 -65 12 -75 17 -14 8 -10 13 28 30 33 15 67 21 125 21 54 0 86 5 99 15 19 14 18 15 -12 15 -41 0 -112 29 -112 45 0 21 29 28 147 34 80 5 117 11 128 21 13 13 9 15 -31 12 -59 -5 -116 6 -111 21 2 6 39 23 83 37 114 37 119 39 107 51 -6 6 -43 19 -83 29 -39 10 -75 21 -78 25 -12 11 29 34 73 41 l43 6 -5 38 c-6 46 10 80 40 80 27 0 86 -35 93 -55 10 -26 21 -16 28 26 7 46 51 139 66 139 21 0 32 -44 26 -102 -3 -32 -4 -58 -1 -58 3 0 17 24 31 53 20 38 28 72 32 127 3 47 12 90 24 114 19 37 21 39 34 21 8 -10 17 -40 20 -67 4 -26 10 -48 15 -48 14 0 29 73 29 147 0 69 14 123 32 123 4 0 8 -1 8 -2 0 -2 9 -28 19 -58 17 -52 18 -54 30 -31 8 13 14 68 15 130 2 105 15 158 31 131 5 -7 16 -38 25 -68 l17 -55 18 27 c17 25 18 35 7 97 -16 92 -15 134 3 149 12 10 17 7 26 -16 6 -16 13 -41 16 -57 13 -63 22 -30 21 75 -1 109 11 176 31 164 4 -3 14 -33 21 -66 7 -34 16 -57 20 -53 3 4 17 36 31 71 13 35 25 57 27 49 2 -8 -11 -52 -28 -97z m-6650 -95 c0 -19 -17 -35 -36 -35 -3 0 -12 17 -20 37 -15 34 -15 38 3 50 16 12 20 11 36 -8 9 -12 17 -31 17 -44z m7354 39 c9 -24 -16 -69 -39 -69 -24 0 -32 34 -15 64 13 25 45 28 54 5z m-7270 -229 c10 -24 15 -49 11 -55 -13 -21 -42 -9 -58 25 -20 42 -21 62 -4 68 27 11 35 5 51 -38z m7186 24 c0 -18 -31 -83 -42 -90 -18 -11 -38 1 -38 25 0 11 9 35 19 53 15 24 25 30 40 26 12 -3 21 -9 21 -14z m-7085 -230 c19 -36 14 -59 -13 -59 -22 0 -53 55 -45 77 9 24 42 14 58 -18z m6970 20 c9 -14 -2 -55 -20 -73 -20 -20 -45 -10 -45 18 0 44 47 84 65 55z m-6861 -210 c10 -16 15 -37 12 -45 -10 -26 -42 -15 -62 21 -17 31 -17 37 -4 45 24 16 35 12 54 -21z m6754 19 c20 -26 -23 -86 -53 -74 -19 7 -19 36 1 64 17 25 36 28 52 10z m-6625 -216 c28 -39 30 -44 15 -58 -20 -20 -27 -16 -63 35 -23 34 -25 43 -15 56 18 21 28 16 63 -33z m6506 35 c8 -10 3 -25 -19 -60 -31 -50 -39 -54 -58 -35 -18 18 -15 31 16 71 29 39 43 45 61 24z m-6349 -249 c0 -40 -47 -31 -71 13 -6 13 -4 22 7 34 15 15 18 14 40 -6 13 -12 24 -31 24 -41z m6200 33 c0 -25 -29 -61 -49 -61 -32 0 -34 31 -5 61 27 29 54 29 54 0z m-6064 -187 c34 -42 36 -46 21 -61 -15 -15 -18 -15 -38 3 -12 10 -30 32 -42 48 -20 28 -20 29 -2 42 10 8 20 14 21 14 2 0 19 -20 40 -46z m5924 31 c10 -12 6 -21 -20 -52 -39 -44 -56 -56 -70 -48 -19 12 -10 40 27 77 42 43 46 44 63 23z m-5768 -192 c10 -9 18 -25 18 -35 0 -31 -29 -33 -58 -5 -21 22 -23 28 -12 41 16 20 29 20 52 -1z m5596 -6 c5 -23 -25 -57 -50 -57 -29 0 -33 28 -7 56 26 28 52 28 57 1z m-5423 -157 c36 -37 38 -41 23 -56 -15 -15 -19 -14 -57 16 -38 31 -50 57 -34 73 13 14 30 6 68 -33z m5269 14 c8 -20 -69 -95 -89 -88 -28 11 -23 34 13 69 40 38 66 44 76 19z m-3874 -145 c0 -12 -7 -19 -19 -19 -22 0 -34 23 -19 38 15 15 38 3 38 -19z m2441 -13 c-16 -19 -41 -10 -41 14 0 24 21 31 39 14 11 -10 12 -16 2 -28z m-2152 -1 c6 -19 29 -48 49 -65 33 -27 34 -30 14 -30 -29 0 -71 -22 -96 -49 l-19 -21 -17 38 c-10 21 -33 51 -51 65 -33 26 -34 27 -9 27 29 0 88 34 96 55 9 24 19 18 33 -20z m1884 1 c19 -18 50 -36 69 -40 l33 -6 -30 -20 c-30 -20 -65 -73 -65 -98 0 -7 -15 2 -33 21 -21 22 -46 38 -70 42 l-37 7 28 21 c38 30 51 48 58 80 4 15 8 27 9 27 1 0 18 -15 38 -34z m-3401 -3 c10 -9 18 -24 18 -33 0 -29 -27 -31 -55 -4 -22 20 -25 27 -15 39 16 19 29 19 52 -2z m4907 -7 c14 -17 -31 -69 -57 -64 -26 5 -27 44 0 62 28 20 42 20 57 2z m-2452 -56 c3 -16 9 -30 14 -30 14 0 11 -28 -3 -33 -9 -3 -6 -11 9 -26 19 -18 21 -25 12 -48 -6 -15 -15 -33 -21 -41 -8 -9 -8 -27 0 -65 26 -124 27 -114 -14 -120 -57 -9 -77 6 -71 56 2 23 8 52 12 63 6 18 -3 27 -53 60 -46 30 -61 46 -65 69 -2 17 -3 31 -2 33 7 8 98 -63 103 -80 2 -10 8 -18 13 -18 12 0 11 37 -1 45 -16 10 -12 43 7 54 14 8 15 12 4 25 -7 9 -9 16 -4 16 5 0 10 12 11 26 3 33 10 44 28 44 8 0 17 -13 21 -30z m-2268 -67 c72 -50 44 -95 -28 -47 -38 24 -51 51 -34 67 11 12 21 8 62 -20z m1579 -6 c4 -20 -25 -34 -40 -19 -15 15 -1 44 19 40 10 -2 19 -11 21 -21z m1370 -5 c3 -16 -2 -22 -17 -22 -24 0 -35 15 -27 36 9 23 40 13 44 -14z m1599 2 c8 -21 -36 -66 -62 -62 -29 4 -31 35 -3 58 28 23 57 25 65 4z m-2137 -32 c0 -30 -110 -115 -127 -99 -9 10 17 45 59 81 46 40 68 45 68 18z m-389 -61 c13 -10 51 -33 84 -50 33 -18 51 -29 40 -26 -11 4 -56 16 -101 27 -79 20 -81 21 -70 44 13 29 17 29 47 5z m509 -3 l18 -23 -96 -26 c-54 -14 -108 -29 -122 -33 -14 -4 20 18 75 48 55 30 102 55 103 56 2 0 12 -10 22 -22z m-2324 -31 c18 -16 25 -30 21 -40 -9 -24 -31 -21 -64 7 -24 20 -25 26 -14 40 18 21 25 20 57 -7z m4144 19 c0 -2 3 -11 6 -20 8 -21 -85 -79 -103 -64 -23 18 -14 36 30 62 38 23 67 33 67 22z m-2338 -72 c74 -19 138 -44 138 -53 0 -4 -33 3 -72 17 -121 40 -219 19 -356 -78 -60 -42 -82 -49 -82 -27 0 28 64 88 132 121 81 41 141 46 240 20z m-1602 -59 c57 -29 63 -37 47 -59 -11 -15 -16 -14 -65 11 -48 24 -64 48 -45 66 9 10 8 10 63 -18z m1618 -5 c58 -14 167 -68 198 -98 l25 -25 32 30 c78 75 222 116 324 93 159 -35 257 -145 207 -231 -28 -47 -66 -71 -121 -76 -42 -5 -53 -1 -81 22 -37 31 -41 51 -12 60 51 16 -5 86 -92 116 l-53 18 45 1 c50 0 134 -35 163 -67 10 -11 21 -39 25 -62 l7 -41 34 18 c72 36 65 73 -26 141 -124 91 -246 84 -393 -24 -26 -19 -54 -35 -61 -35 -7 0 -48 23 -91 51 -127 84 -175 94 -280 58 -76 -25 -111 -49 -149 -102 l-30 -41 28 -28 c15 -15 39 -29 53 -30 23 -3 25 1 27 35 0 21 9 47 18 57 27 30 119 60 178 59 l52 -1 -40 -8 c-58 -12 -97 -29 -122 -52 -28 -26 -29 -44 -3 -60 26 -17 25 -34 -5 -63 -29 -29 -75 -33 -133 -10 -75 30 -97 121 -48 195 30 45 80 74 164 94 70 17 104 19 160 6z m2109 -7 c7 -19 -29 -53 -57 -53 -26 0 -33 30 -14 51 21 23 62 25 71 2z m-199 -99 c2 -15 -9 -26 -47 -43 -51 -25 -71 -22 -71 8 0 12 16 25 48 39 55 24 66 23 70 -4z m-3298 1 c33 -17 33 -17 24 -39 -7 -19 -24 -20 -59 -4 -24 11 -33 37 -18 51 10 10 21 9 53 -8z m265 -105 c11 0 4 -28 -9 -39 -10 -8 -26 -6 -65 10 -51 22 -61 35 -40 56 9 9 24 7 61 -8 27 -10 51 -19 53 -19z m1273 19 c17 -6 32 -13 32 -15 0 -11 -56 -74 -65 -74 -5 0 -37 -24 -70 -53 -87 -77 -110 -91 -221 -136 -61 -25 -89 -40 -74 -40 14 -1 70 17 123 39 125 51 135 56 176 94 l34 31 -7 -27 c-5 -22 -3 -25 14 -21 28 7 25 -9 -7 -39 -43 -39 -90 -60 -155 -65 -49 -5 -58 -9 -58 -25 0 -19 -5 -20 -71 -13 -61 6 -72 5 -83 -11 -19 -26 -46 -11 -46 25 0 41 45 91 109 121 49 22 52 23 70 6 17 -16 25 -16 57 -6 39 13 142 105 131 117 -4 4 -13 1 -19 -5 -7 -7 -22 -12 -35 -12 -47 0 -58 85 -14 106 30 15 135 17 179 3z m320 -6 c34 -16 43 -48 20 -71 -17 -17 -29 -15 -22 3 8 21 -14 45 -42 45 -36 0 -36 -14 1 -63 34 -45 35 -46 10 -41 -31 6 -33 -12 -2 -22 12 -4 38 -17 57 -30 38 -26 70 -30 99 -12 16 9 27 8 60 -6 74 -34 129 -105 115 -148 -8 -28 -47 -20 -54 12 -5 19 -19 30 -65 48 -104 39 -174 75 -196 99 -12 12 -25 20 -29 18 -4 -3 -26 14 -49 36 -41 41 -52 57 -29 43 7 -4 8 -3 4 4 -10 16 -46 -3 -46 -23 0 -30 -16 -14 -18 18 -1 20 -12 40 -28 55 -30 27 -30 27 16 40 54 15 161 12 198 -5z m1203 1 c11 -14 10 -19 -10 -35 -31 -26 -71 -25 -71 0 0 20 34 51 56 51 6 0 18 -7 25 -16z m-1427 -69 c18 -17 26 -34 26 -59 0 -30 3 -33 22 -28 13 3 19 1 15 -5 -4 -6 -17 -13 -31 -15 -22 -4 -23 -2 -19 32 7 48 -25 87 -57 70 -31 -17 -53 -57 -53 -100 0 -53 42 -94 57 -55 3 9 0 15 -9 15 -8 0 -15 2 -15 4 0 2 -3 13 -7 23 -6 16 -5 17 12 3 10 -8 21 -13 24 -11 3 3 8 -7 11 -22 4 -19 9 -24 19 -18 7 5 23 7 35 4 20 -4 20 -4 -3 16 -17 15 -19 21 -8 21 8 0 21 2 29 5 9 4 13 -3 13 -20 0 -14 -3 -25 -7 -25 -4 0 -6 -9 -5 -20 1 -12 8 -20 20 -20 21 0 79 -28 88 -43 11 -16 -2 -47 -25 -62 -33 -20 -95 -28 -112 -14 -18 15 -31 3 -36 -30 -5 -41 -25 -35 -32 10 -6 35 -9 39 -21 29 -34 -29 -136 -4 -152 36 -8 21 24 52 69 66 37 11 40 10 70 -21 21 -21 37 -30 49 -26 11 4 19 2 19 -5 0 -18 49 23 50 42 0 22 -39 35 -52 17 -7 -11 -11 -11 -15 -2 -3 8 -14 11 -29 7 -21 -5 -26 -1 -40 31 -10 24 -14 57 -11 96 4 56 7 61 38 79 43 24 41 24 73 -5z m1216 -16 c0 -21 -30 -37 -88 -46 -31 -5 -34 -4 -30 18 2 19 14 28 53 41 55 18 65 16 65 -13z m-2385 -3 c12 -8 16 -19 11 -31 -5 -14 -13 -16 -38 -11 -39 8 -53 20 -45 40 8 20 47 21 72 2z m1150 -46 c3 -6 -1 -13 -10 -16 -19 -8 -30 0 -20 15 8 14 22 14 30 1z m-916 -11 c19 -7 31 -18 31 -29 0 -29 -16 -33 -75 -15 -50 14 -66 30 -48 48 10 10 56 8 92 -4z m1901 -4 c16 -19 5 -32 -36 -44 -37 -10 -54 -4 -54 19 0 36 66 54 90 25z m-848 -32 c12 -10 18 -12 18 -4 0 7 5 9 10 6 6 -4 8 -10 5 -15 -3 -4 2 -13 10 -20 12 -10 15 -9 15 4 0 20 16 21 24 1 7 -18 107 -65 189 -89 60 -18 83 -36 44 -36 -13 0 -45 -3 -71 -6 -41 -6 -46 -5 -46 13 0 17 -8 21 -58 25 -93 9 -171 63 -172 121 0 21 8 22 32 0z m-798 -23 c16 -16 -2 -40 -33 -40 -56 0 -77 20 -48 49 13 13 64 8 81 -9z m1419 6 c9 -22 -15 -36 -72 -43 -50 -6 -51 -5 -51 20 0 28 13 33 81 36 24 1 39 -4 42 -13z"/>
<path d="M4974 9139 c-3 -6 -2 -15 4 -21 15 -15 46 -5 50 15 3 12 -3 17 -22 17 -14 0 -28 -5 -32 -11z"/>
<path d="M5187 9143 c-4 -3 -7 -15 -7 -25 0 -12 7 -18 24 -18 26 0 51 24 41 40 -7 11 -48 14 -58 3z"/>
<path d="M5330 8881 c0 -6 -9 -11 -20 -11 -13 0 -20 -7 -20 -20 0 -25 27 -37 49 -23 19 12 21 55 4 61 -7 2 -13 -1 -13 -7z"/>
<path d="M4970 8079 c-942 -49 -1809 -549 -2323 -1339 -338 -520 -512 -1135 -494 -1740 10 -314 67 -614 167 -885 63 -171 70 -185 155 -355 413 -822 1173 -1412 2045 -1586 228 -45 370 -57 645 -51 308 6 454 27 728 102 184 50 301 96 502 195 311 153 559 331 806 579 402 403 665 861 799 1392 173 684 85 1407 -250 2065 -147 288 -322 529 -544 748 -408 403 -865 662 -1409 796 -288 71 -532 95 -827 79z m50 -75 c0 -22 -4 -24 -49 -24 -47 0 -61 9 -61 40 0 9 87 18 103 12 4 -2 7 -14 7 -28z m268 4 c3 -27 2 -28 -47 -28 -50 0 -51 1 -51 31 0 30 1 30 48 27 43 -3 47 -5 50 -30z m270 -3 c2 -2 1 -13 -3 -24 -4 -15 -15 -21 -33 -21 -52 0 -72 11 -72 37 0 24 1 25 53 18 28 -4 54 -9 55 -10z m-800 -21 c3 -19 -3 -23 -44 -29 -34 -5 -49 -3 -55 7 -21 33 0 47 66 44 22 -1 31 -6 33 -22z m1025 -25 c33 -9 37 -13 31 -32 -9 -30 -6 -29 -58 -16 -39 9 -46 15 -46 35 0 27 14 30 73 13z m-1280 -20 c6 -22 -15 -34 -69 -41 -25 -3 -29 1 -32 24 -3 22 1 27 25 31 61 9 71 7 76 -14z m-251 -73 c4 -26 -79 -57 -93 -35 -16 26 -9 37 34 52 45 15 53 13 59 -17z m1779 22 c33 -9 38 -15 33 -32 -9 -30 -9 -30 -59 -15 -29 9 -45 19 -45 30 0 32 13 35 71 17z m279 -122 c0 -6 -4 -17 -9 -25 -8 -13 -15 -12 -50 4 -40 18 -47 28 -35 59 5 13 12 12 50 -7 24 -11 44 -26 44 -31z m-2305 13 c4 -11 5 -21 3 -23 -27 -16 -82 -35 -89 -31 -21 14 -8 46 24 60 44 19 55 18 62 -6z m-225 -123 c0 -6 -18 -21 -41 -33 l-40 -22 -12 26 c-7 17 -8 28 -2 30 6 2 24 12 40 22 27 17 31 17 43 3 6 -9 12 -21 12 -26z m2732 20 c35 -21 37 -24 22 -44 l-15 -21 -39 20 c-41 22 -44 26 -34 53 8 21 22 20 66 -8z m-1202 -1393 l0 -1376 25 -33 c14 -18 25 -36 24 -41 0 -4 -18 -23 -40 -41 l-38 -34 -165 0 -164 -1 -48 41 -48 41 29 41 28 40 -24 26 -24 26 -3 551 c-7 1006 27 1567 108 1801 44 128 114 230 197 288 46 31 121 60 136 51 4 -2 7 -623 7 -1380z m-1752 1263 c9 -21 7 -26 -28 -49 -38 -24 -39 -25 -56 -6 -19 21 -19 22 28 55 41 29 43 29 56 0z m3175 -5 c41 -26 42 -28 23 -54 -14 -18 -16 -17 -55 9 -23 14 -41 29 -41 31 0 12 22 44 28 41 4 -2 24 -14 45 -27z m-3379 -145 c9 -14 5 -22 -24 -46 l-35 -29 -20 20 -20 20 35 29 c38 32 48 33 64 6z m3595 -16 l24 -21 -21 -21 -21 -21 -35 30 c-32 29 -33 32 -20 52 16 23 27 20 73 -19z m-3148 -552 c-18 -713 -18 -793 -2 -811 18 -22 44 -21 65 2 16 17 19 56 27 308 27 883 33 990 53 932 3 -8 9 -304 13 -659 l8 -645 43 -3 c23 -2 43 -2 43 0 1 2 4 296 8 655 4 359 10 656 14 659 4 4 10 5 13 2 8 -8 21 -322 34 -798 6 -223 13 -415 16 -428 6 -29 48 -46 76 -31 21 11 21 14 14 293 -17 749 -18 982 -3 963 15 -18 20 -50 37 -237 25 -276 59 -1004 60 -1292 0 -112 12 -108 -313 -108 -261 0 -275 1 -292 20 -17 19 -18 41 -12 373 9 500 52 1165 79 1236 25 67 29 -16 19 -431z m-635 406 c12 -17 10 -22 -22 -48 -34 -27 -36 -27 -55 -10 -20 18 -20 18 13 50 37 36 45 37 64 8z m3960 -10 c33 -25 34 -28 18 -45 -22 -25 -26 -24 -62 9 -29 27 -30 30 -14 45 21 21 17 22 58 -9z m-4134 -161 c18 -16 18 -17 -9 -45 -30 -32 -45 -35 -63 -13 -10 12 -8 20 12 44 27 35 35 37 60 14z m3395 -26 c142 -73 256 -271 314 -549 30 -143 30 -350 0 -463 -46 -175 -122 -280 -249 -342 l-76 -38 -130 0 c-130 0 -131 0 -209 37 -130 62 -220 179 -262 343 -65 248 12 655 165 873 48 69 120 131 176 153 84 32 190 27 271 -14z m911 13 c27 -35 27 -39 5 -56 -15 -11 -22 -9 -45 14 -31 28 -34 42 -16 60 19 19 32 14 56 -18z m-4455 -172 c8 -11 4 -24 -12 -47 -25 -35 -29 -36 -55 -16 -17 13 -17 15 9 50 29 37 42 40 58 13z m4605 -13 c27 -42 27 -42 1 -56 -19 -10 -25 -7 -45 17 -28 35 -29 43 -6 60 24 18 24 18 50 -21z m-4740 -221 c-22 -38 -22 -38 -49 -24 -24 13 -24 17 1 58 19 31 21 32 44 17 l25 -16 -21 -35z m4869 27 l22 -39 -21 -14 c-21 -14 -24 -13 -46 20 -22 32 -22 35 -6 53 23 26 26 25 51 -20z m-4592 -342 c20 3 20 3 1 -18 -18 -20 -18 -22 -1 -68 10 -27 34 -63 54 -81 34 -32 35 -33 10 -27 -19 5 -34 0 -57 -20 l-32 -27 0 -154 0 -154 26 0 c21 0 25 -3 19 -17 -20 -49 -19 -54 9 -42 33 15 45 5 22 -20 -16 -17 -15 -19 6 -34 22 -15 22 -17 6 -30 -16 -13 -14 -16 24 -33 24 -10 45 -18 49 -17 3 1 19 -11 35 -28 21 -22 29 -40 29 -68 0 -34 3 -40 32 -50 69 -25 101 -121 68 -206 -9 -25 -21 -45 -26 -45 -13 0 -11 7 7 35 18 27 21 97 6 135 -6 14 -21 36 -35 49 -28 26 -47 25 -129 -4 -34 -12 -55 -14 -74 -8 -47 16 -39 31 14 25 60 -5 82 13 82 68 0 54 -37 95 -103 115 -67 20 -96 19 -161 -6 -73 -27 -98 -59 -94 -118 3 -44 5 -46 41 -55 33 -8 41 -7 59 12 27 27 17 40 -17 22 -22 -12 -28 -12 -39 1 -23 23 -3 59 33 59 16 0 33 -5 37 -11 4 -6 -1 -9 -12 -8 -21 4 -44 -7 -44 -21 0 -4 15 -7 33 -6 28 1 32 -3 35 -26 2 -18 -4 -31 -20 -42 -30 -21 -56 -20 -103 4 -70 36 -124 19 -151 -46 -17 -40 -18 -76 -3 -129 l11 -39 19 26 c14 19 35 30 74 39 30 7 55 16 55 21 0 4 -5 8 -11 8 -6 0 -9 10 -7 22 4 26 29 37 26 11 -3 -44 2 -53 32 -53 23 0 30 4 30 20 0 11 -4 20 -10 20 -5 0 -10 10 -10 22 l0 23 24 -25 c13 -14 22 -35 21 -48 -2 -18 5 -24 37 -34 32 -9 48 -8 92 5 29 9 61 17 72 17 17 0 16 3 -6 21 -14 11 -20 18 -14 15 6 -3 23 -2 37 2 20 5 24 10 17 22 -6 9 -13 11 -17 5 -5 -5 -15 -11 -23 -13 -10 -2 -7 4 7 17 28 27 39 26 47 -1 9 -36 7 -48 -10 -48 -8 0 -12 -4 -9 -10 3 -5 21 -10 38 -10 34 0 97 -33 97 -50 0 -7 -9 -5 -22 4 -15 11 -45 16 -90 16 -78 0 -118 -12 -118 -37 -1 -17 -1 -17 -14 0 -8 10 -26 17 -45 17 -27 0 -31 -3 -31 -26 0 -18 -14 -41 -44 -71 -41 -40 -48 -44 -87 -41 -57 4 -79 34 -50 69 l19 24 -5 -28 c-7 -35 12 -57 49 -57 36 0 108 66 108 99 0 62 -205 78 -253 20 -17 -21 -19 -21 -35 -6 -11 12 -18 39 -20 85 -3 57 0 72 20 101 12 19 37 41 54 50 26 13 33 24 37 55 7 51 27 69 111 104 66 27 96 52 62 52 -9 0 -16 -7 -16 -15 0 -8 -7 -15 -15 -15 -22 0 -18 28 5 40 11 6 18 15 15 21 -4 5 -1 9 5 9 6 0 8 5 4 11 -4 8 -9 7 -15 -2 -10 -17 -23 -5 -16 16 4 8 15 15 27 15 15 0 19 6 17 22 -1 17 4 24 20 26 31 5 36 30 32 178 l-4 126 -33 29 c-18 16 -42 29 -55 29 -21 0 -21 1 5 23 26 22 68 95 68 118 0 7 -8 21 -17 32 -17 19 -17 20 3 15 28 -7 33 17 36 156 l2 101 6 -130 c5 -123 6 -130 25 -126z m4315 118 c4 -109 7 -122 22 -119 12 2 16 -2 12 -13 -3 -8 -10 -15 -15 -15 -24 0 18 -97 58 -135 28 -25 28 -25 5 -25 -13 0 -37 -13 -53 -29 l-29 -29 0 -155 c0 -150 1 -155 20 -150 21 6 29 -20 10 -32 -5 -3 -10 -14 -10 -23 1 -16 1 -16 14 0 8 11 20 15 34 11 29 -7 28 -33 0 -33 -22 0 -21 -1 7 -24 25 -20 28 -26 16 -40 -11 -13 -6 -18 41 -39 62 -27 88 -61 88 -112 0 -24 5 -35 15 -35 27 0 84 -61 95 -101 12 -44 5 -103 -17 -137 l-14 -23 -30 26 c-27 22 -39 25 -107 24 -42 -1 -88 -4 -102 -8 -31 -9 -37 -36 -14 -62 9 -10 15 -21 12 -24 -7 -8 -50 54 -43 64 3 5 -4 7 -14 4 -11 -3 -43 2 -73 10 -117 34 -217 30 -232 -8 -9 -24 -36 -17 -46 11 -15 38 -12 121 5 154 19 37 62 70 91 70 21 0 22 3 15 24 -10 25 6 67 36 96 10 10 8 1 -6 -25 -23 -43 -27 -80 -11 -90 6 -4 10 9 10 30 0 54 27 91 89 122 30 16 56 34 57 41 1 7 0 8 -2 3 -3 -6 -12 -7 -21 -4 -11 4 -14 2 -9 -5 4 -7 2 -12 -3 -12 -16 0 -13 16 4 30 20 17 19 40 -2 40 -14 0 -12 5 10 27 23 24 30 26 47 15 24 -14 30 -15 30 -3 0 5 -9 13 -20 16 -23 7 -27 25 -5 25 21 0 27 51 23 185 l-3 117 -33 29 c-18 16 -41 29 -52 29 -18 0 -16 4 12 33 19 18 40 52 47 75 13 38 13 44 -5 63 -19 21 -19 21 1 18 19 -4 20 2 23 125 1 71 6 125 10 122 4 -4 9 -62 12 -129z m-4696 34 c7 -11 -25 -71 -37 -71 -5 0 -17 5 -28 10 -19 11 -19 11 1 51 18 34 23 38 40 29 10 -5 21 -14 24 -19z m5093 -17 c15 -31 15 -36 3 -44 -25 -16 -39 -11 -55 21 -13 24 -14 34 -4 45 19 23 38 16 56 -22z m-5203 -177 c17 -12 17 -15 0 -50 -14 -30 -22 -36 -38 -31 -30 9 -30 10 -16 54 14 42 25 48 54 27z m5305 -31 c15 -40 15 -41 -16 -50 -19 -6 -25 -1 -38 31 -15 35 -15 38 2 50 24 19 36 12 52 -31z m-5383 -187 c8 -13 -18 -79 -31 -79 -31 1 -39 18 -27 58 10 33 16 39 32 35 11 -3 23 -9 26 -14z m5474 -50 c0 -15 -19 -29 -40 -29 -9 0 -35 69 -28 74 1 2 12 8 23 14 17 9 22 7 32 -16 7 -15 12 -34 13 -43z m65 -206 c6 -29 4 -33 -20 -39 -31 -8 -31 -8 -39 39 -6 33 -4 38 16 46 26 10 32 3 43 -46z m-5613 7 c-4 -43 -14 -54 -42 -45 -18 6 -20 12 -14 38 9 44 13 49 37 45 19 -3 21 -9 19 -38z m-56 -188 c8 -4 9 -21 5 -47 -6 -35 -9 -40 -31 -37 -33 5 -32 3 -24 51 7 41 22 51 50 33z m5718 -23 c10 -50 8 -56 -19 -61 -29 -6 -30 -5 -39 44 -5 30 -3 37 11 41 35 9 41 7 47 -24z m-5033 -39 c-2 -14 -6 -90 -10 -170 l-6 -145 -7 140 c-4 77 -10 155 -14 173 -6 31 -5 33 17 30 19 -2 23 -8 20 -28z m1053 -6 c26 -10 20 -53 -9 -64 -33 -13 -55 -3 -55 24 0 37 27 54 64 40z m2240 0 c26 -10 20 -53 -9 -64 -35 -13 -55 -3 -55 30 0 35 26 49 64 34z m-3184 -59 c30 -36 -28 -82 -62 -47 -12 12 -14 23 -7 40 10 26 50 30 69 7z m1026 -59 c36 -9 37 -35 4 -72 -33 -39 -37 -68 -15 -120 10 -25 12 -42 4 -61 -16 -43 -32 -339 -25 -483 8 -180 36 -339 74 -419 12 -25 13 -38 4 -51 -9 -14 -7 -21 8 -35 28 -25 35 -76 17 -112 -10 -19 -12 -34 -7 -44 5 -8 7 -30 4 -49 -6 -42 12 -142 56 -305 38 -143 45 -262 18 -310 -9 -17 -46 -63 -82 -102 -53 -57 -66 -77 -66 -103 0 -76 -60 -138 -120 -125 -46 10 -98 86 -89 131 4 25 -7 41 -75 113 -92 96 -102 127 -87 245 6 44 20 115 32 156 11 41 29 109 40 150 11 44 19 101 18 139 -1 39 2 66 9 69 7 2 5 12 -4 30 -21 40 -18 88 7 113 16 16 19 26 12 42 -7 16 -5 33 9 64 28 63 56 206 69 345 12 133 5 468 -12 529 -7 27 -5 45 6 72 23 56 19 89 -15 122 -16 16 -30 31 -30 34 1 19 23 35 55 40 42 7 148 5 181 -3z m2258 -5 c23 -19 20 -33 -14 -66 -34 -33 -39 -72 -15 -119 12 -23 13 -36 5 -60 -17 -46 -29 -392 -20 -541 9 -141 30 -258 61 -342 12 -30 18 -62 14 -74 -5 -13 -1 -25 9 -32 25 -18 32 -82 12 -112 -9 -14 -14 -30 -10 -36 4 -6 8 -46 9 -89 2 -51 14 -120 38 -206 44 -157 61 -262 52 -319 -7 -47 -34 -90 -113 -176 -41 -45 -52 -64 -52 -91 0 -82 -75 -146 -136 -116 -39 18 -74 74 -74 117 0 29 -8 44 -40 76 -66 65 -109 125 -121 168 -15 55 3 179 48 330 26 87 37 146 39 206 2 46 8 88 13 95 6 7 4 20 -4 36 -21 37 -18 87 5 110 14 14 18 27 14 50 -4 16 -2 36 4 42 19 24 62 220 73 337 14 136 6 511 -11 555 -8 23 -8 38 5 68 25 62 20 97 -17 129 -28 23 -31 30 -22 46 6 10 20 19 30 20 10 2 13 0 7 -3 -23 -10 -14 -43 17 -59 27 -14 30 -20 30 -63 0 -26 -7 -56 -15 -66 -20 -26 -19 -81 2 -136 15 -38 18 -83 17 -290 0 -213 -3 -261 -23 -368 -13 -68 -21 -125 -19 -128 9 -8 49 222 59 341 7 86 7 179 0 311 -8 137 -8 191 0 201 9 10 8 13 -5 13 -24 0 -20 19 7 29 20 8 20 10 4 16 -19 8 -19 21 -1 147 5 34 4 36 -27 43 -53 12 -14 23 71 22 48 -2 83 -7 94 -16z m-4104 -82 c0 -42 -10 -53 -40 -44 -20 6 -25 30 -14 71 4 16 11 20 30 16 20 -4 24 -10 24 -43z m5770 37 c0 -7 3 -28 6 -45 6 -29 5 -31 -25 -31 -30 0 -31 1 -31 45 0 41 2 45 25 45 15 0 25 -6 25 -14z m-5199 -109 c-7 -7 -15 -6 -26 3 -24 20 -18 31 10 18 17 -8 22 -15 16 -21z m4376 -96 c1 -11 -5 -25 -14 -32 -15 -12 -15 -12 -6 5 6 10 8 28 5 40 -3 12 -1 18 3 13 5 -4 10 -16 12 -26z m-4322 9 c-3 -5 -12 -10 -18 -10 -7 0 -6 4 3 10 19 12 23 12 15 0z m4268 3 c-7 -2 -19 -2 -25 0 -7 3 -2 5 12 5 14 0 19 -2 13 -5z m307 -17 c0 -10 -34 2 -38 13 -3 10 0 10 17 2 11 -7 21 -13 21 -15z m-353 8 c-3 -3 -12 -4 -19 -1 -8 3 -5 6 6 6 11 1 17 -2 13 -5z m275 -26 c-7 -7 -10 -5 -7 8 5 29 6 30 12 16 3 -8 1 -18 -5 -24z m-4396 -107 l25 -20 -32 -29 -32 -29 -28 31 -28 31 26 21 c20 15 27 33 32 75 l6 54 3 -57 c2 -47 7 -61 28 -77z m124 118 c0 -6 -9 -8 -21 -4 -14 5 -19 3 -15 -3 3 -6 2 -13 -4 -17 -11 -7 -14 18 -3 28 10 11 43 8 43 -4z m4188 -59 c-13 -10 3 -47 27 -60 l23 -12 -31 -33 -32 -32 -12 22 c-7 13 -20 26 -30 29 -15 6 -13 10 13 31 26 20 30 28 26 61 l-5 38 -21 -25 c-53 -62 -114 -76 -167 -38 -34 24 -37 44 -8 60 19 9 20 9 11 -7 -17 -31 13 -64 59 -64 42 0 102 43 115 83 6 19 8 18 23 -14 9 -18 14 -36 9 -39z m-4454 45 c-4 -8 -11 -15 -16 -15 -6 0 -5 6 2 15 7 8 14 15 16 15 2 0 1 -7 -2 -15z m176 -10 c14 -19 14 -19 -2 -6 -10 7 -18 18 -18 24 0 6 1 8 3 6 1 -2 9 -13 17 -24z m4137 3 c-3 -8 -6 -5 -6 6 -1 11 2 17 5 13 3 -3 4 -12 1 -19z m373 -43 c0 -28 17 -42 33 -26 7 7 14 7 24 0 18 -15 16 -46 -3 -53 -10 -4 -13 -13 -9 -26 4 -11 2 -20 -4 -20 -6 0 -11 5 -11 10 0 6 -4 10 -10 10 -5 0 -10 -9 -10 -20 0 -11 -4 -20 -10 -20 -5 0 -10 5 -10 12 0 29 -33 48 -86 48 -29 0 -55 4 -58 8 -3 5 24 8 60 8 46 -1 67 -5 74 -16 15 -24 20 -6 14 44 -4 30 -17 60 -33 79 l-26 32 33 -23 c21 -15 32 -32 32 -47z m-5290 10 c0 -41 -2 -45 -25 -45 -23 0 -25 4 -25 45 0 41 2 45 25 45 23 0 25 -4 25 -45z m930 1 c0 -31 -19 -46 -54 -45 l-31 1 29 7 c40 8 55 34 37 63 -13 21 -13 22 2 9 10 -7 17 -23 17 -35z m4880 -1 c0 -43 -1 -45 -30 -45 -29 0 -30 2 -30 45 0 43 1 45 30 45 29 0 30 -2 30 -45z m-4823 -28 c6 2 18 -6 27 -19 16 -22 15 -24 -6 -41 -18 -15 -19 -20 -8 -27 20 -12 9 -20 -18 -13 -13 3 -22 13 -22 24 0 11 -7 19 -17 19 -13 0 -14 -3 -5 -12 7 -7 12 -26 11 -42 l-1 -31 -8 29 c-11 37 -25 45 -75 47 -22 0 -49 5 -60 10 -14 6 0 8 47 5 76 -4 98 9 98 60 1 28 1 28 13 8 7 -12 17 -19 24 -17z m-508 -19 c6 -31 9 -33 56 -36 60 -4 67 -9 124 -97 25 -38 53 -72 61 -73 8 -2 56 -6 106 -9 91 -5 108 -1 196 45 11 6 38 -67 38 -105 0 -67 -53 -143 -101 -143 -14 0 -17 -6 -12 -33 3 -23 -1 -39 -17 -60 -26 -33 -87 -73 -126 -83 -24 -6 -25 -8 -11 -19 23 -17 21 -40 -5 -59 -16 -12 -19 -18 -10 -22 21 -9 13 -24 -12 -24 -19 0 -23 -4 -19 -19 3 -12 -2 -20 -16 -24 -33 -8 -61 3 -61 25 0 13 -5 18 -14 15 -24 -9 -38 14 -20 34 18 20 11 41 -11 33 -20 -8 -32 25 -14 36 16 11 19 7 -59 55 -71 43 -82 58 -82 109 0 29 -4 37 -24 42 -13 3 -37 19 -52 35 -26 27 -29 37 -29 99 0 52 4 74 17 86 15 16 16 14 1 -27 -28 -78 4 -160 70 -177 29 -8 32 -12 33 -51 0 -23 5 -46 11 -52 7 -7 10 7 8 46 -2 62 7 73 61 76 43 3 70 -9 82 -37 24 -51 9 -84 -38 -84 -30 0 -50 16 -50 41 0 23 26 43 47 34 16 -6 16 -8 -4 -16 -31 -12 -30 -39 2 -39 33 0 46 44 19 65 -23 18 -66 19 -82 3 -17 -17 -15 -83 4 -119 35 -68 172 -91 271 -45 59 28 74 50 75 108 1 68 -59 98 -109 56 -32 -26 1 -93 35 -72 28 18 26 34 -4 34 -27 0 -27 1 -11 17 31 32 72 -12 44 -48 -21 -28 -54 -32 -76 -10 -28 28 -26 53 6 91 29 35 43 36 135 10 40 -12 51 -12 73 0 36 19 59 66 58 121 -1 47 -23 105 -31 81 -12 -37 -176 -76 -210 -49 -10 8 -10 5 -4 -14 11 -30 59 -56 75 -40 8 8 8 11 -1 11 -7 0 -12 5 -12 10 0 6 7 10 15 10 10 0 15 -10 15 -30 0 -16 -4 -30 -9 -30 -5 0 -23 -3 -40 -6 -26 -6 -31 -4 -31 14 0 25 -52 82 -75 82 -15 0 -16 -15 -12 -147 2 -82 7 -158 12 -170 6 -20 4 -23 -17 -23 -31 0 -41 9 -27 26 6 7 13 79 16 161 l6 148 -121 0 -122 0 -32 34 -33 34 35 -24 c31 -21 45 -24 132 -23 54 0 101 3 104 7 17 17 -69 145 -103 153 -38 10 -78 -7 -77 -33 0 -12 -4 -19 -9 -16 -5 3 -7 16 -4 29 2 13 0 24 -4 24 -5 0 -9 -7 -9 -16 0 -8 -4 -12 -10 -9 -5 3 -10 1 -10 -4 0 -6 -4 -11 -10 -11 -5 0 -10 9 -10 20 0 12 -7 20 -16 20 -12 0 -15 6 -10 23 3 12 6 29 6 37 0 10 7 7 20 -10 l19 -25 7 33 c8 38 14 36 23 -10z m352 25 c13 -17 13 -17 -6 -3 -11 8 -22 16 -24 17 -2 2 0 3 6 3 6 0 17 -8 24 -17z m4429 -8 c-7 -8 -27 -15 -44 -14 l-31 1 32 9 c18 5 35 14 39 20 3 6 8 8 11 5 3 -3 0 -12 -7 -21z m-437 -16 c-7 -26 11 -39 57 -39 37 0 80 -23 80 -42 0 -6 -10 -2 -23 10 -13 12 -36 22 -51 22 -34 0 -69 -18 -61 -31 4 -5 2 -9 -3 -9 -6 0 -13 8 -17 18 -6 16 -7 16 -16 0 -14 -24 -28 -23 -22 2 4 15 0 20 -16 20 -22 0 -28 14 -10 25 6 4 8 13 5 20 -9 24 8 26 21 3 7 -13 12 -18 13 -11 0 16 30 44 40 38 4 -3 6 -14 3 -26z m-4028 -109 c-28 -45 -28 -59 0 -78 17 -11 17 -13 2 -8 -10 3 -25 6 -32 6 -22 0 -26 30 -5 47 11 10 20 22 20 27 0 9 29 46 37 46 2 0 -8 -18 -22 -40z m4330 -22 c-33 -70 -22 -81 77 -82 60 0 81 4 113 23 l39 23 18 -21 c50 -63 22 -188 -50 -219 -36 -15 -39 -20 -39 -55 0 -47 -22 -72 -100 -112 -32 -16 -61 -34 -64 -38 -3 -4 -12 -7 -19 -5 -7 2 -15 -3 -18 -11 -3 -9 0 -11 9 -6 7 5 3 -6 -10 -23 -12 -18 -18 -32 -12 -32 6 0 11 3 11 8 0 11 49 62 60 62 18 0 10 -28 -12 -42 -19 -13 -21 -18 -10 -31 15 -18 2 -30 -22 -21 -12 5 -16 0 -16 -20 0 -22 -4 -26 -29 -26 -17 0 -33 5 -36 10 -3 6 3 10 14 10 12 0 21 4 21 9 0 15 -18 23 -25 12 -12 -21 -35 1 -29 28 4 22 4 23 -6 8 -12 -19 -30 -14 -30 9 0 8 7 14 15 14 13 0 14 3 3 16 -31 39 -70 73 -101 88 -40 19 -67 55 -67 91 0 33 15 33 18 -1 2 -27 21 -68 28 -61 3 2 0 16 -6 31 -5 15 -10 38 -10 52 0 19 -5 24 -25 24 -90 0 -141 107 -100 207 8 20 18 34 20 31 3 -3 -2 -22 -11 -44 -22 -51 -13 -108 21 -144 35 -36 53 -40 101 -24 68 23 107 21 134 -6 25 -25 26 -72 1 -94 -28 -25 -75 -9 -79 26 -4 30 20 52 48 43 28 -9 25 -27 -4 -19 -17 4 -25 1 -30 -12 -11 -28 11 -41 30 -18 13 16 15 16 10 2 -9 -28 13 -21 26 8 11 24 9 29 -14 49 -52 45 -117 1 -104 -70 8 -43 63 -100 102 -108 53 -10 158 -1 191 16 43 23 68 62 68 108 0 51 -29 83 -69 75 -17 -4 -34 -12 -38 -19 -14 -21 -9 -67 8 -74 22 -8 48 21 40 44 -7 17 -8 17 -22 -1 -11 -16 -14 -17 -14 -4 0 8 7 21 16 28 12 11 18 11 31 -3 20 -20 10 -62 -17 -77 -48 -25 -82 19 -63 83 13 46 52 54 128 29 52 -18 62 -19 86 -6 46 23 69 61 69 115 0 47 -16 99 -30 99 -4 0 -13 -7 -21 -16 -24 -29 -68 -44 -128 -44 -54 0 -59 -2 -54 -20 3 -11 17 -23 30 -26 19 -5 21 -9 11 -15 -10 -7 -9 -9 5 -9 14 0 17 5 12 21 -5 16 -3 20 6 17 8 -3 14 -16 14 -29 0 -21 -5 -24 -42 -25 -41 -2 -43 0 -43 27 0 31 -33 69 -62 69 -15 0 -18 -9 -20 -47 l-2 -48 -3 48 c-4 47 -5 49 -31 42 -15 -4 -27 -7 -27 -8 -1 -3 -48 -92 -51 -96 -1 -1 -8 0 -13 4 -8 4 -6 11 4 21 23 23 18 33 -12 25 -18 -5 -27 -14 -25 -24 4 -25 -25 -10 -32 15 -8 32 1 38 47 32 32 -5 46 -2 56 10 12 14 6 16 -63 16 -79 0 -120 13 -147 47 -12 15 -10 15 16 -2 25 -17 47 -20 132 -20 56 0 105 3 109 8 4 4 0 23 -9 42 -23 49 -21 68 3 25 10 -19 22 -43 26 -52 4 -12 17 -18 36 -18 24 0 28 3 19 13 -11 14 10 67 39 102 21 26 20 17 -5 -37z m-4268 18 c-22 -17 -12 -46 15 -46 15 0 18 5 13 20 -4 12 -2 20 5 20 17 0 23 -29 10 -45 -17 -21 -46 -19 -69 4 -15 15 -17 22 -8 34 11 13 31 24 47 26 3 0 -3 -6 -13 -13z m4358 4 c3 -5 -1 -10 -10 -10 -9 0 -13 5 -10 10 3 6 8 10 10 10 2 0 7 -4 10 -10z m-4684 -17 c13 -16 12 -17 -3 -4 -17 13 -22 21 -14 21 2 0 10 -8 17 -17z m4378 -15 c-1 -31 -1 -31 -8 -8 -5 14 -6 28 -4 33 9 15 13 6 12 -25z m-4322 -8 c0 -34 -12 -31 -19 5 -3 15 -1 25 7 25 6 0 12 -13 12 -30z m4263 15 c0 -8 -2 -15 -4 -15 -2 0 -6 7 -10 15 -3 8 -1 15 4 15 6 0 10 -7 10 -15z m230 10 c0 -2 -7 -8 -15 -15 -12 -10 -15 -10 -15 2 0 8 7 15 15 15 8 0 15 -1 15 -2z m177 -12 c3 -7 -8 -20 -23 -29 -25 -17 -27 -17 -39 -1 -6 9 -15 14 -19 10 -4 -4 -4 0 0 10 6 16 7 17 19 1 15 -22 50 -11 41 12 -4 10 -1 14 6 12 6 -2 13 -9 15 -15z m-4630 -23 c1 -11 -4 -20 -13 -20 -8 0 -14 10 -14 25 0 29 25 25 27 -5z m-619 -26 c3 -37 0 -42 -21 -46 -22 -4 -25 -1 -30 36 -6 42 4 58 33 53 10 -1 16 -16 18 -43z m547 27 c-3 -6 -13 -11 -21 -11 -8 0 -12 5 -9 10 4 6 11 8 16 5 5 -4 9 -1 9 6 0 7 3 10 6 6 3 -3 3 -10 -1 -16z m4425 10 c0 -17 -18 -21 -24 -6 -3 9 0 15 9 15 8 0 15 -4 15 -9z m820 -36 c0 -44 -1 -45 -31 -45 -30 0 -31 2 -25 31 3 17 6 38 6 45 0 8 10 14 25 14 23 0 25 -4 25 -45z m-855 25 c3 -5 1 -10 -4 -10 -6 0 -11 5 -11 10 0 6 2 10 4 10 3 0 8 -4 11 -10z m-65 -10 c8 -5 12 -11 9 -14 -3 -3 -14 1 -25 9 -21 16 -8 20 16 5z m-4252 -129 c-7 -22 -18 -41 -25 -41 -9 0 -8 7 2 27 13 25 10 56 -4 36 -3 -6 -16 -9 -28 -8 -19 1 -22 -2 -16 -23 4 -18 2 -23 -8 -20 -14 5 -31 55 -21 62 4 2 27 4 51 4 24 1 46 3 49 6 12 13 12 -4 0 -43z m4431 -138 c1 -39 5 -83 11 -98 8 -20 7 -27 -5 -31 -8 -4 -21 -4 -29 -1 -12 5 -12 11 0 44 9 25 12 65 8 118 -3 55 -1 74 5 60 5 -11 10 -52 10 -92z m-2071 40 l-3 -38 -111 -3 c-109 -3 -112 -2 -118 20 -15 59 -16 58 115 58 l120 0 -3 -37z m-2953 -14 c8 -46 8 -46 -25 -51 -22 -3 -25 1 -31 39 -5 43 -1 51 33 52 11 1 18 -11 23 -40z m5740 -6 c-4 -27 -8 -49 -10 -51 -1 -2 -14 0 -27 3 -21 5 -24 11 -20 38 6 51 10 57 38 57 26 0 26 -1 19 -47z m-2771 -78 c26 -43 26 -46 10 -76 -14 -28 -15 -70 -11 -358 5 -356 7 -376 68 -502 l32 -67 -28 -36 -27 -35 22 -31 c21 -30 22 -32 4 -51 -23 -26 -21 -47 22 -244 45 -198 49 -301 17 -360 -12 -22 -47 -66 -77 -99 -34 -35 -56 -67 -56 -81 0 -100 -57 -155 -138 -133 -41 11 -72 59 -72 112 0 34 -8 47 -60 102 -108 112 -120 180 -74 391 14 65 32 155 41 201 16 82 15 83 -6 106 l-21 23 20 25 c25 33 25 49 -1 82 l-21 27 30 67 c17 37 38 102 46 144 40 193 48 668 14 721 -18 26 -17 27 9 72 l28 45 101 0 102 0 26 -45z m-2931 -112 c2 -5 7 -25 11 -45 7 -37 6 -38 -22 -38 -26 0 -31 4 -37 36 -4 26 -2 39 7 45 16 11 35 11 41 2z m5661 -1 c3 -5 0 -25 -6 -45 -9 -28 -17 -37 -33 -37 -31 0 -34 6 -23 50 8 32 15 40 34 40 12 0 25 -4 28 -8z m-674 -298 c0 -125 0 -126 29 -155 16 -16 40 -29 53 -29 22 -1 22 -1 -5 -18 -15 -9 -37 -36 -49 -60 -18 -38 -19 -47 -7 -70 7 -15 15 -31 17 -36 3 -4 -5 -5 -17 -1 -20 6 -21 3 -22 -87 0 -51 -4 -111 -8 -133 -7 -29 -9 -5 -10 93 -1 130 -1 133 -22 127 -20 -7 -20 -6 -4 19 15 23 16 32 5 72 -8 29 -23 53 -42 67 l-29 21 28 14 c62 32 63 34 63 179 0 87 4 132 10 128 6 -4 10 -59 10 -131z m-4316 -152 c10 -12 31 -24 46 -27 l29 -6 -29 -27 c-17 -15 -36 -43 -44 -63 -13 -31 -13 -39 0 -63 18 -36 18 -36 -6 -36 -19 0 -20 -7 -22 -127 l-2 -128 -6 130 -5 130 -24 -3 c-23 -2 -24 -1 -8 16 32 35 10 116 -38 148 l-26 17 28 12 c56 24 63 41 71 181 l7 129 5 -131 c4 -110 8 -135 24 -152z m-586 152 c-2 -1 -15 -5 -29 -9 -23 -6 -27 -2 -37 33 -16 51 -16 50 11 54 17 3 26 -5 40 -36 9 -21 16 -40 15 -42z m5511 70 c9 -8 -20 -84 -32 -84 -32 1 -39 16 -26 59 10 35 15 40 33 35 12 -4 23 -8 25 -10z m-5444 -241 c15 -35 15 -39 -1 -50 -26 -19 -32 -16 -49 23 -21 52 -20 55 27 63 4 0 15 -16 23 -36z m5354 28 c12 -8 12 -14 0 -47 -16 -43 -28 -50 -53 -31 -17 12 -17 14 0 50 18 38 28 43 53 28z m-5255 -237 c18 -38 14 -50 -17 -56 -26 -4 -58 69 -36 83 24 15 35 10 53 -27z m5160 23 c17 -12 17 -14 -1 -45 -32 -57 -84 -34 -55 24 19 37 29 41 56 21z m-5034 -254 c0 -11 -39 -39 -43 -31 -1 2 -11 18 -21 37 -19 33 -19 34 0 48 17 12 21 11 41 -14 13 -15 23 -33 23 -40z m4920 57 c19 -10 19 -11 -2 -48 -12 -20 -23 -38 -24 -40 -4 -6 -44 23 -44 31 0 11 39 67 46 67 3 0 14 -5 24 -10z m-126 -199 c12 -13 14 -21 6 -26 -6 -4 -20 -20 -29 -36 -18 -29 -18 -29 -41 -11 l-23 19 29 36 c34 43 35 43 58 18z m-4676 -27 c22 -34 23 -36 5 -50 -26 -19 -29 -18 -52 22 -17 28 -19 39 -10 50 18 22 32 17 57 -22z m172 -215 c0 -13 -30 -31 -44 -26 -8 3 -22 18 -32 32 -16 24 -16 27 1 45 18 20 19 20 46 -12 16 -18 28 -36 29 -39z m4353 49 c7 -11 3 -24 -14 -47 -25 -34 -45 -37 -63 -9 -8 14 -4 23 19 47 32 32 43 34 58 9z m-4215 -191 l32 -33 -20 -19 c-20 -19 -21 -18 -51 12 -28 27 -30 32 -18 52 18 27 19 27 57 -12z m4052 18 c11 -13 8 -21 -20 -50 -40 -41 -45 -42 -61 -13 -10 19 -8 25 22 50 39 32 42 33 59 13z m-200 -216 c-37 -31 -48 -32 -64 -6 -9 13 -4 22 24 46 l35 30 20 -20 20 -20 -35 -30z m-3679 40 c32 -23 36 -40 14 -59 -12 -10 -20 -8 -44 12 -33 25 -37 38 -19 56 15 15 15 16 49 -9z m3509 -155 c0 -13 -67 -70 -74 -63 -2 2 -8 14 -14 25 -10 19 -7 25 26 47 37 25 62 22 62 -9z m-3314 4 c16 -12 31 -23 33 -25 2 -1 -4 -12 -14 -23 -19 -21 -20 -20 -83 26 -2 1 -1 12 3 23 8 27 25 26 61 -1z m198 -129 c37 -22 42 -33 26 -59 -7 -12 -13 -12 -32 -1 -52 28 -60 38 -48 60 13 26 11 26 54 0z m2904 0 c7 -12 12 -22 10 -23 -2 -1 -21 -13 -42 -26 -38 -23 -39 -23 -52 -5 -19 26 -19 27 24 51 47 28 45 28 60 3z m-2683 -116 c39 -19 41 -22 22 -47 -13 -17 -15 -17 -55 3 -38 19 -41 23 -30 41 15 24 18 24 63 3z m2465 -2 c8 -16 4 -23 -33 -45 -38 -23 -43 -23 -54 -9 -20 26 -15 37 25 55 49 21 50 21 62 -1z m-2226 -101 c18 -7 23 -14 19 -30 -8 -30 -14 -31 -60 -10 -34 15 -41 22 -36 40 6 22 19 22 77 0z m1996 1 c14 -28 15 -28 -36 -47 -39 -15 -47 -15 -55 -3 -15 24 -6 41 31 54 48 17 48 17 60 -4z m-1779 -73 c31 -9 39 -16 39 -35 0 -26 -8 -27 -62 -12 -39 10 -43 15 -32 43 7 19 7 19 55 4z m1537 -15 c2 -16 -5 -23 -29 -32 -51 -17 -69 -14 -69 12 0 19 8 26 38 34 47 13 56 11 60 -14z m-1275 -47 c18 -4 27 -13 27 -26 0 -26 -8 -28 -57 -18 -31 7 -43 14 -43 27 0 23 10 32 29 27 9 -2 28 -7 44 -10z m1027 -11 c0 -25 -10 -30 -70 -37 -21 -3 -25 1 -25 22 0 21 6 26 35 31 58 10 60 10 60 -16z m-754 -30 c12 -30 -2 -40 -50 -37 -41 4 -46 7 -46 28 0 22 4 24 45 24 31 0 47 -5 51 -15z m504 -9 c0 -21 -5 -24 -46 -28 -48 -3 -62 7 -50 37 4 10 20 15 51 15 41 0 45 -2 45 -24z m-250 -11 c0 -23 -3 -25 -50 -25 -47 0 -50 2 -50 25 0 23 3 25 50 25 47 0 50 -2 50 -25z"/>
<path d="M5089 6650 c-4 -8 -12 -202 -18 -430 -32 -1176 -31 -1173 -52 -1201 -32 -46 -27 -49 81 -49 55 0 100 3 100 6 0 4 -16 24 -35 45 -27 30 -35 48 -35 76 0 21 -7 299 -15 618 -9 319 -16 663 -18 765 -1 102 -5 178 -8 170z"/>
<path d="M4995 4930 c-4 -6 39 -10 122 -10 86 0 123 3 113 10 -20 13 -227 13 -235 0z"/>
<path d="M4998 4893 c-10 -2 -18 -9 -18 -14 0 -5 59 -9 136 -9 104 0 135 3 132 13 -3 8 -37 12 -119 13 -63 1 -122 -1 -131 -3z"/>
<path d="M4941 4846 c-10 -12 -7 -15 17 -21 40 -8 284 -9 311 0 54 17 10 25 -133 25 -85 0 -161 2 -169 5 -7 3 -19 -1 -26 -9z"/>
<path d="M4140 5982 c0 -14 35 -42 52 -42 8 0 23 9 33 20 18 20 18 20 -12 14 -17 -3 -40 -1 -52 5 -11 7 -21 8 -21 3z"/>
<path d="M3780 5970 c0 -3 12 -13 26 -24 26 -18 26 -18 51 6 l24 24 -50 0 c-28 -1 -51 -3 -51 -6z"/>
<path d="M4250 5771 c0 -69 -5 -71 -236 -71 -209 0 -244 5 -244 38 0 15 -2 15 -10 2 -5 -8 -10 -25 -10 -37 l0 -23 255 0 255 0 0 65 c0 36 -2 65 -5 65 -3 0 -5 -18 -5 -39z"/>
<path d="M3850 5768 c0 -16 14 -18 155 -18 129 0 155 2 155 15 0 11 -28 15 -155 17 -142 3 -155 2 -155 -14z"/>
<path d="M6113 7005 c-184 -93 -335 -474 -320 -805 11 -244 100 -405 265 -483 58 -28 80 -32 164 -35 190 -7 320 69 398 233 84 177 86 447 3 709 -54 174 -130 294 -227 361 -55 38 -62 40 -144 43 -78 3 -93 0 -139 -23z m244 -32 c30 -13 70 -45 94 -71 54 -62 132 -224 163 -339 82 -308 50 -583 -85 -736 -77 -88 -239 -141 -358 -116 -229 47 -350 230 -351 530 0 298 132 635 284 724 82 48 163 51 253 8z"/>
<path d="M6190 6961 c-142 -46 -256 -230 -316 -508 -23 -109 -23 -308 0 -392 39 -143 111 -237 221 -288 49 -22 74 -27 140 -28 106 0 170 23 238 85 99 90 147 224 147 405 0 304 -129 632 -280 710 -37 19 -115 28 -150 16z m105 -90 c23 -10 59 -39 82 -65 61 -69 133 -226 104 -226 -6 0 -11 -5 -11 -11 0 -6 6 -9 14 -6 21 8 53 -139 61 -275 6 -95 5 -107 -9 -102 -9 3 -16 1 -16 -5 0 -6 6 -10 13 -9 17 4 11 -50 -13 -132 -38 -126 -125 -206 -238 -219 -78 -8 -115 -3 -108 15 3 8 1 14 -4 14 -5 0 -10 -6 -12 -13 -5 -22 -58 -2 -105 38 -49 42 -96 135 -114 223 -18 96 -6 294 25 415 50 187 141 330 231 362 51 18 52 18 100 -4z"/>
<path d="M6275 6850 c3 -5 8 -10 11 -10 2 0 4 5 4 10 0 6 -5 10 -11 10 -5 0 -7 -4 -4 -10z"/>
<path d="M6300 6830 c0 -5 5 -10 10 -10 6 0 10 5 10 10 0 6 -4 10 -10 10 -5 0 -10 -4 -10 -10z"/>
<path d="M6240 6810 c0 -5 5 -10 10 -10 6 0 10 5 10 10 0 6 -4 10 -10 10 -5 0 -10 -4 -10 -10z"/>
<path d="M6115 6790 c-3 -5 -1 -10 4 -10 6 0 11 5 11 10 0 6 -2 10 -4 10 -3 0 -8 -4 -11 -10z"/>
<path d="M6080 6759 c0 -5 5 -7 10 -4 6 3 10 8 10 11 0 2 -4 4 -10 4 -5 0 -10 -5 -10 -11z"/>
<path d="M6215 6760 c3 -5 8 -10 11 -10 2 0 4 5 4 10 0 6 -5 10 -11 10 -5 0 -7 -4 -4 -10z"/>
<path d="M6366 6745 c-11 -8 -17 -17 -14 -20 2 -3 13 4 23 15 21 23 18 25 -9 5z"/>
<path d="M6170 6740 c0 -5 5 -10 11 -10 5 0 7 5 4 10 -3 6 -8 10 -11 10 -2 0 -4 -4 -4 -10z"/>
<path d="M6393 6715 c-15 -16 -16 -25 -5 -25 4 0 13 9 20 20 14 23 3 26 -15 5z"/>
<path d="M6130 6711 c0 -6 5 -13 10 -16 6 -3 10 1 10 9 0 9 -4 16 -10 16 -5 0 -10 -4 -10 -9z"/>
<path d="M6100 6680 c0 -5 5 -10 11 -10 5 0 7 5 4 10 -3 6 -8 10 -11 10 -2 0 -4 -4 -4 -10z"/>
<path d="M6350 6670 c0 -5 5 -10 11 -10 5 0 7 5 4 10 -3 6 -8 10 -11 10 -2 0 -4 -4 -4 -10z"/>
<path d="M6410 6673 c1 -18 28 -44 35 -34 3 6 1 11 -4 11 -6 0 -11 7 -11 15 0 8 -4 15 -10 15 -5 0 -10 -3 -10 -7z"/>
<path d="M6060 6649 c0 -5 5 -7 10 -4 6 3 10 8 10 11 0 2 -4 4 -10 4 -5 0 -10 -5 -10 -11z"/>
<path d="M6015 6620 c3 -5 11 -10 16 -10 6 0 7 5 4 10 -3 6 -11 10 -16 10 -6 0 -7 -4 -4 -10z"/>
<path d="M6390 6620 c0 -5 5 -10 11 -10 5 0 7 5 4 10 -3 6 -8 10 -11 10 -2 0 -4 -4 -4 -10z"/>
<path d="M6450 6610 c0 -5 5 -10 10 -10 6 0 10 5 10 10 0 6 -4 10 -10 10 -5 0 -10 -4 -10 -10z"/>
<path d="M6040 6580 c0 -5 5 -10 10 -10 6 0 10 5 10 10 0 6 -4 10 -10 10 -5 0 -10 -4 -10 -10z"/>
<path d="M6420 6580 c0 -5 5 -10 10 -10 6 0 10 5 10 10 0 6 -4 10 -10 10 -5 0 -10 -4 -10 -10z"/>
<path d="M6020 6550 c0 -5 5 -10 10 -10 6 0 10 5 10 10 0 6 -4 10 -10 10 -5 0 -10 -4 -10 -10z"/>
<path d="M6436 6534 c-5 -14 -4 -15 9 -4 17 14 19 20 6 20 -5 0 -12 -7 -15 -16z"/>
<path d="M6001 6523 c7 -12 15 -20 18 -17 3 2 -3 12 -13 22 -17 16 -18 16 -5 -5z"/>
<path d="M6030 6489 c0 -5 5 -7 10 -4 6 3 10 8 10 11 0 2 -4 4 -10 4 -5 0 -10 -5 -10 -11z"/>
<path d="M6440 6475 c-8 -9 -8 -15 -2 -15 12 0 26 19 19 26 -2 2 -10 -2 -17 -11z"/>
<path d="M6490 6478 c0 -9 5 -20 10 -23 13 -8 13 5 0 25 -8 13 -10 13 -10 -2z"/>
<path d="M5990 6471 c0 -5 5 -13 10 -16 6 -3 10 -2 10 4 0 5 -4 13 -10 16 -5 3 -10 2 -10 -4z"/>
<path d="M5970 6432 c6 -13 14 -21 18 -18 3 4 -2 14 -12 24 -18 16 -18 16 -6 -6z"/>
<path d="M6400 6440 c0 -5 5 -10 10 -10 6 0 10 5 10 10 0 6 -4 10 -10 10 -5 0 -10 -4 -10 -10z"/>
<path d="M6045 6410 c-3 -5 -1 -10 4 -10 6 0 11 5 11 10 0 6 -2 10 -4 10 -3 0 -8 -4 -11 -10z"/>
<path d="M6440 6409 c0 -5 5 -7 10 -4 6 3 10 8 10 11 0 2 -4 4 -10 4 -5 0 -10 -5 -10 -11z"/>
<path d="M6490 6401 c0 -6 5 -13 10 -16 6 -3 10 1 10 9 0 9 -4 16 -10 16 -5 0 -10 -4 -10 -9z"/>
<path d="M5950 6390 c0 -5 5 -10 10 -10 6 0 10 5 10 10 0 6 -4 10 -10 10 -5 0 -10 -4 -10 -10z"/>
<path d="M6005 6390 c3 -5 8 -10 11 -10 2 0 4 5 4 10 0 6 -5 10 -11 10 -5 0 -7 -4 -4 -10z"/>
<path d="M6400 6379 c0 -5 5 -7 10 -4 6 3 10 8 10 11 0 2 -4 4 -10 4 -5 0 -10 -5 -10 -11z"/>
<path d="M6455 6371 c-6 -11 9 -23 19 -14 9 9 7 23 -3 23 -6 0 -12 -4 -16 -9z"/>
<path d="M6030 6360 c0 -5 5 -10 10 -10 6 0 10 5 10 10 0 6 -4 10 -10 10 -5 0 -10 -4 -10 -10z"/>
<path d="M6500 6340 c0 -5 5 -10 10 -10 6 0 10 5 10 10 0 6 -4 10 -10 10 -5 0 -10 -4 -10 -10z"/>
<path d="M5950 6332 c0 -5 7 -15 15 -22 8 -7 15 -9 15 -6 0 4 -7 14 -15 22 -8 9 -15 11 -15 6z"/>
<path d="M6420 6329 c0 -5 5 -7 10 -4 6 3 10 8 10 11 0 2 -4 4 -10 4 -5 0 -10 -5 -10 -11z"/>
<path d="M6065 6310 c3 -5 8 -10 11 -10 2 0 4 5 4 10 0 6 -5 10 -11 10 -5 0 -7 -4 -4 -10z"/>
<path d="M6470 6310 c0 -5 5 -10 10 -10 6 0 10 5 10 10 0 6 -4 10 -10 10 -5 0 -10 -4 -10 -10z"/>
<path d="M6390 6300 c-8 -5 -12 -12 -9 -15 4 -3 12 1 19 10 14 17 11 19 -10 5z"/>
<path d="M5975 6260 c-16 -16 -25 -30 -19 -29 8 0 60 59 52 59 -3 0 -17 -13 -33 -30z"/>
<path d="M6435 6280 c-3 -5 1 -10 9 -10 9 0 16 5 16 10 0 6 -4 10 -9 10 -6 0 -13 -4 -16 -10z"/>
<path d="M6510 6279 c0 -5 5 -7 10 -4 6 3 10 8 10 11 0 2 -4 4 -10 4 -5 0 -10 -5 -10 -11z"/>
<path d="M6034 6261 c4 -5 0 -11 -6 -14 -7 -2 -9 -8 -5 -13 4 -5 12 -2 17 6 13 20 12 30 -1 30 -5 0 -8 -4 -5 -9z"/>
<path d="M6475 6250 c-3 -5 -1 -10 4 -10 6 0 11 5 11 10 0 6 -2 10 -4 10 -3 0 -8 -4 -11 -10z"/>
<path d="M6400 6240 c0 -5 5 -10 10 -10 6 0 10 5 10 10 0 6 -4 10 -10 10 -5 0 -10 -4 -10 -10z"/>
<path d="M6517 6233 c-4 -3 -7 -11 -7 -17 0 -6 5 -5 12 2 6 6 9 14 7 17 -3 3 -9 2 -12 -2z"/>
<path d="M6435 6220 c-3 -5 -2 -10 4 -10 5 0 13 5 16 10 3 6 2 10 -4 10 -5 0 -13 -4 -16 -10z"/>
<path d="M5985 6210 c3 -5 8 -10 11 -10 2 0 4 5 4 10 0 6 -5 10 -11 10 -5 0 -7 -4 -4 -10z"/>
<path d="M6055 6210 c4 -6 11 -8 16 -5 14 9 11 15 -7 15 -8 0 -12 -5 -9 -10z"/>
<path d="M5950 6184 c0 -8 5 -12 10 -9 6 4 8 11 5 16 -9 14 -15 11 -15 -7z"/>
<path d="M6399 6183 c-13 -16 -12 -17 4 -4 16 13 21 21 13 21 -2 0 -10 -8 -17 -17z"/>
<path d="M6470 6190 c0 -5 5 -10 10 -10 6 0 10 5 10 10 0 6 -4 10 -10 10 -5 0 -10 -4 -10 -10z"/>
<path d="M6030 6170 c0 -5 5 -10 10 -10 6 0 10 5 10 10 0 6 -4 10 -10 10 -5 0 -10 -4 -10 -10z"/>
<path d="M6435 6170 c-3 -5 -1 -10 4 -10 6 0 11 5 11 10 0 6 -2 10 -4 10 -3 0 -8 -4 -11 -10z"/>
<path d="M5980 6166 c0 -11 30 -39 36 -34 2 3 -5 13 -16 23 -11 10 -20 15 -20 11z"/>
<path d="M6500 6160 c0 -5 5 -10 11 -10 5 0 7 5 4 10 -3 6 -8 10 -11 10 -2 0 -4 -4 -4 -10z"/>
<path d="M6060 6140 c0 -5 5 -10 11 -10 5 0 7 5 4 10 -3 6 -8 10 -11 10 -2 0 -4 -4 -4 -10z"/>
<path d="M6396 6134 c-11 -7 -18 -16 -15 -18 2 -2 13 2 23 10 11 7 18 16 15 18 -2 2 -13 -2 -23 -10z"/>
<path d="M6465 6140 c-3 -5 -1 -10 4 -10 6 0 11 5 11 10 0 6 -2 10 -4 10 -3 0 -8 -4 -11 -10z"/>
<path d="M5950 6130 c0 -5 5 -10 10 -10 6 0 10 5 10 10 0 6 -4 10 -10 10 -5 0 -10 -4 -10 -10z"/>
<path d="M6521 6124 c0 -11 3 -14 6 -6 3 7 2 16 -1 19 -3 4 -6 -2 -5 -13z"/>
<path d="M6435 6110 c-3 -5 -1 -10 4 -10 6 0 11 5 11 10 0 6 -2 10 -4 10 -3 0 -8 -4 -11 -10z"/>
<path d="M6030 6100 c0 -5 5 -10 10 -10 6 0 10 5 10 10 0 6 -4 10 -10 10 -5 0 -10 -4 -10 -10z"/>
<path d="M6490 6100 c0 -5 5 -10 10 -10 6 0 10 5 10 10 0 6 -4 10 -10 10 -5 0 -10 -4 -10 -10z"/>
<path d="M5970 6090 c0 -5 5 -10 10 -10 6 0 10 5 10 10 0 6 -4 10 -10 10 -5 0 -10 -4 -10 -10z"/>
<path d="M6080 6079 c0 -5 5 -7 10 -4 6 3 10 8 10 11 0 2 -4 4 -10 4 -5 0 -10 -5 -10 -11z"/>
<path d="M6465 6080 c-3 -5 -1 -10 4 -10 6 0 11 5 11 10 0 6 -2 10 -4 10 -3 0 -8 -4 -11 -10z"/>
<path d="M6000 6070 c0 -5 5 -10 10 -10 6 0 10 5 10 10 0 6 -4 10 -10 10 -5 0 -10 -4 -10 -10z"/>
<path d="M6400 6069 c0 -5 5 -7 10 -4 6 3 10 8 10 11 0 2 -4 4 -10 4 -5 0 -10 -5 -10 -11z"/>
<path d="M6501 6056 c-7 -8 -8 -17 -3 -20 6 -3 12 3 15 14 6 24 4 25 -12 6z"/>
<path d="M6025 6040 c-3 -5 -1 -10 4 -10 6 0 11 5 11 10 0 6 -2 10 -4 10 -3 0 -8 -4 -11 -10z"/>
<path d="M6365 6030 c-3 -5 -2 -10 4 -10 5 0 13 5 16 10 3 6 2 10 -4 10 -5 0 -13 -4 -16 -10z"/>
<path d="M6405 6021 c-6 -11 9 -23 19 -14 9 9 7 23 -3 23 -6 0 -12 -4 -16 -9z"/>
<path d="M6475 6020 c-3 -5 -1 -10 4 -10 6 0 11 5 11 10 0 6 -2 10 -4 10 -3 0 -8 -4 -11 -10z"/>
<path d="M6447 5993 c-4 -3 -7 -11 -7 -17 0 -6 5 -5 12 2 6 6 9 14 7 17 -3 3 -9 2 -12 -2z"/>
<path d="M6377 5983 c-4 -3 -7 -11 -7 -17 0 -6 5 -5 12 2 6 6 9 14 7 17 -3 3 -9 2 -12 -2z"/>
<path d="M6407 5953 c-4 -3 -7 -11 -7 -17 0 -6 5 -5 12 2 6 6 9 14 7 17 -3 3 -9 2 -12 -2z"/>
<path d="M6025 5940 c3 -5 8 -10 11 -10 2 0 4 5 4 10 0 6 -5 10 -11 10 -5 0 -7 -4 -4 -10z"/>
<path d="M6200 5936 c0 -9 5 -16 10 -16 6 0 10 4 10 9 0 6 -4 13 -10 16 -5 3 -10 -1 -10 -9z"/>
<path d="M6260 5934 c0 -8 5 -12 10 -9 6 4 8 11 5 16 -9 14 -15 11 -15 -7z"/>
<path d="M6337 5943 c-4 -3 -7 -11 -7 -17 0 -6 5 -5 12 2 6 6 9 14 7 17 -3 3 -9 2 -12 -2z"/>
<path d="M6100 5934 c0 -10 31 -36 37 -31 3 3 -2 13 -10 22 -16 15 -27 19 -27 9z"/>
<path d="M6055 5910 c3 -5 8 -10 11 -10 2 0 4 5 4 10 0 6 -5 10 -11 10 -5 0 -7 -4 -4 -10z"/>
<path d="M6366 5911 c-4 -7 -5 -15 -2 -18 9 -9 19 4 14 18 -4 11 -6 11 -12 0z"/>
<path d="M6291 5901 c-7 -5 -9 -11 -5 -14 5 -3 15 1 22 9 14 16 5 18 -17 5z"/>
<path d="M6080 5891 c0 -6 5 -13 10 -16 6 -3 10 1 10 9 0 9 -4 16 -10 16 -5 0 -10 -4 -10 -9z"/>
<path d="M6165 5890 c3 -5 8 -10 11 -10 2 0 4 5 4 10 0 6 -5 10 -11 10 -5 0 -7 -4 -4 -10z"/>
<path d="M6225 5890 c-3 -5 -1 -10 4 -10 6 0 11 5 11 10 0 6 -2 10 -4 10 -3 0 -8 -4 -11 -10z"/>
<path d="M6326 5875 c-3 -8 -1 -15 3 -15 5 0 11 7 15 15 3 8 1 15 -3 15 -5 0 -11 -7 -15 -15z"/>
<path d="M6114 5863 c10 -11 36 -12 36 -2 0 5 -10 9 -22 9 -12 0 -18 -3 -14 -7z"/>
<path d="M6202 5850 c7 -10 14 -18 15 -16 6 6 -9 36 -18 36 -5 0 -4 -9 3 -20z"/>
<path d="M6246 5854 c-9 -24 -7 -27 9 -10 17 17 19 26 6 26 -5 0 -12 -7 -15 -16z"/>
<path d="M2905 5760 c3 -5 8 -10 11 -10 2 0 4 5 4 10 0 6 -5 10 -11 10 -5 0 -7 -4 -4 -10z"/>
<path d="M2931 5763 c-1 -18 19 -27 32 -13 9 10 8 12 -5 7 -9 -3 -19 -1 -22 6 -3 9 -5 9 -5 0z"/>
<path d="M2931 5693 c-6 -12 -6 -25 0 -36 12 -21 29 -22 29 -2 0 8 -3 14 -7 14 -22 -4 -25 2 -8 14 12 9 14 16 7 21 -6 3 -15 -2 -21 -11z"/>
<path d="M2996 5653 c-11 -11 -6 -23 9 -23 8 0 15 4 15 9 0 13 -16 22 -24 14z"/>
<path d="M3121 5575 c0 -5 6 -19 14 -29 8 -11 15 -37 15 -58 0 -21 5 -38 10 -38 21 0 10 75 -15 105 -13 17 -24 26 -24 20z"/>
<path d="M2734 5525 c-18 -45 -18 -71 2 -79 14 -5 16 -1 10 25 -3 19 0 41 9 60 10 18 11 29 5 29 -6 0 -18 -16 -26 -35z"/>
<path d="M7230 5726 c0 -9 5 -16 10 -16 6 0 10 4 10 9 0 6 -4 13 -10 16 -5 3 -10 -1 -10 -9z"/>
<path d="M7260 5689 c0 -5 5 -7 10 -4 6 3 10 1 10 -4 0 -6 -4 -11 -10 -11 -5 0 -10 -4 -10 -10 0 -15 27 -12 33 4 5 14 -10 36 -25 36 -4 0 -8 -5 -8 -11z"/>
<path d="M7317 5661 c-3 -12 -1 -21 3 -21 14 0 19 15 11 29 -6 9 -10 7 -14 -8z"/>
<path d="M7355 5641 c-3 -5 -1 -12 4 -15 5 -3 11 1 15 9 6 16 -9 21 -19 6z"/>
<path d="M7252 5619 c-13 -5 -20 -14 -16 -20 4 -7 0 -9 -14 -5 -25 8 -75 -16 -96 -46 -24 -34 -21 -94 6 -112 34 -24 82 -20 101 7 13 18 16 19 16 5 1 -23 -34 -58 -56 -58 -10 0 -46 10 -81 22 -72 25 -103 20 -136 -25 -22 -30 -30 -121 -13 -161 7 -19 8 -18 30 1 12 11 32 26 44 32 30 15 117 14 183 -4 30 -8 58 -15 62 -15 4 0 9 21 11 48 l3 47 2 -47 c2 -48 9 -57 29 -37 6 6 49 13 95 16 93 6 137 -8 159 -50 12 -22 12 -22 25 8 31 73 6 171 -51 197 -20 9 -36 8 -79 -5 -66 -21 -136 -23 -136 -3 0 10 11 12 43 9 39 -5 46 -2 65 22 26 32 27 55 8 93 -22 42 -49 62 -107 78 -62 16 -66 16 -97 3z m46 -91 c-13 -51 -16 -57 -17 -30 0 18 -8 40 -16 48 -8 9 -15 23 -15 32 1 12 5 10 15 -8 l14 -25 1 26 c0 31 10 43 24 29 6 -6 4 -31 -6 -72z m-87 -8 c25 -14 24 -32 -3 -57 -44 -40 -91 5 -51 49 19 21 27 22 54 8z m204 -14 c29 -44 -17 -86 -56 -50 -24 21 -25 50 -1 63 27 16 40 13 57 -13z m-128 -68 c-3 -8 -6 -5 -6 6 -1 11 2 17 5 13 3 -3 4 -12 1 -19z m10 -90 c-3 -7 -5 -2 -5 12 0 14 2 19 5 13 2 -7 2 -19 0 -25z m110 26 c-3 -3 -12 -4 -19 -1 -8 3 -5 6 6 6 11 1 17 -2 13 -5z m48 -30 c19 -46 19 -44 -7 -44 -13 0 -30 -4 -37 -9 -9 -6 -22 -6 -33 0 -15 8 -16 14 -8 29 6 11 16 20 23 20 7 0 6 -4 -3 -10 -22 -14 0 -28 32 -21 27 6 27 7 13 35 -18 33 -18 36 -5 36 5 0 17 -16 25 -36z m-315 -3 c-15 -28 -13 -34 10 -28 11 3 23 1 26 -4 11 -18 25 -8 19 14 -11 35 11 7 24 -32 10 -30 9 -32 -5 -20 -8 7 -34 14 -57 17 -55 4 -64 15 -43 46 20 31 42 36 26 7z"/>
<path d="M7167 5504 c-16 -16 -6 -35 16 -32 12 2 22 10 22 18 0 16 -26 25 -38 14z"/>
<path d="M7370 5485 c0 -26 24 -35 32 -12 7 18 -2 37 -18 37 -8 0 -14 -10 -14 -25z"/>
<path d="M7471 5555 c14 -24 18 -65 9 -91 -14 -36 -6 -42 15 -10 19 29 15 63 -12 93 -10 10 -15 14 -12 8z"/>
<path d="M2951 5574 c0 -11 3 -14 6 -6 3 7 2 16 -1 19 -3 4 -6 -2 -5 -13z"/>
<path d="M3037 5503 c-4 -3 -7 -12 -7 -20 0 -15 26 -18 34 -4 7 11 -18 33 -27 24z"/>
<path d="M3900 5422 c0 -14 11 -27 30 -37 19 -10 33 -27 38 -48 8 -30 9 -28 15 28 3 32 4 61 2 63 -2 2 -22 6 -44 9 -37 5 -41 3 -41 -15z"/>
<path d="M4039 5434 c-19 -6 -31 -38 -19 -51 4 -4 10 -39 13 -77 6 -63 5 -68 -15 -74 -20 -5 -20 -6 -3 -18 16 -12 17 -26 5 -216 -14 -245 -4 -414 37 -596 15 -68 29 -120 31 -114 1 5 -9 65 -23 133 -46 223 -46 575 2 725 16 51 16 57 0 107 -26 83 -23 113 14 132 53 28 20 66 -42 49z"/>
<path d="M3947 5265 c-21 -44 -21 -45 1 -45 16 -1 16 -1 0 -14 -20 -14 -24 -56 -8 -72 18 -18 32 -234 26 -395 -3 -86 -15 -209 -26 -274 -24 -134 -21 -165 3 -48 34 161 39 250 34 565 -3 170 -7 311 -9 314 -3 2 -12 -12 -21 -31z"/>
<path d="M3911 4304 c0 -11 3 -14 6 -6 3 7 2 16 -1 19 -3 4 -6 -2 -5 -13z"/>
<path d="M4032 4207 c-12 -13 -22 -32 -22 -43 0 -14 5 -11 20 14 13 21 25 30 33 26 29 -17 47 -39 47 -59 0 -43 -47 -60 -82 -28 -17 15 -18 15 -18 0 0 -9 11 -24 25 -33 33 -22 78 -4 96 37 11 28 10 32 -27 70 -21 21 -41 39 -44 39 -4 0 -16 -10 -28 -23z"/>
<path d="M3895 4195 c-30 -29 -32 -68 -5 -95 22 -22 69 -27 88 -8 19 19 14 82 -8 106 -27 28 -45 28 -75 -3z m64 -17 c18 -49 -12 -98 -48 -78 -24 12 -29 68 -9 88 19 19 48 14 57 -10z"/>
<path d="M3913 4161 c-8 -12 -7 -22 2 -34 18 -25 25 -21 25 12 0 36 -12 46 -27 22z"/>
<path d="M4040 4165 c0 -11 24 -55 30 -55 4 0 10 9 13 20 3 13 0 20 -9 20 -8 0 -14 5 -14 10 0 6 -4 10 -10 10 -5 0 -10 -2 -10 -5z"/>
<path d="M3867 3953 c-3 -43 -19 -141 -37 -218 -39 -173 -46 -250 -30 -299 6 -20 42 -70 80 -110 37 -40 70 -79 72 -87 3 -8 8 -11 12 -8 4 4 -29 48 -73 99 -108 124 -111 145 -51 395 16 66 34 149 39 184 6 35 13 66 16 69 8 8 6 -39 -4 -82 l-9 -38 27 26 c37 35 80 42 126 20 55 -26 89 -87 119 -212 48 -211 45 -248 -32 -334 -58 -64 -96 -117 -89 -124 3 -3 11 4 17 16 6 12 34 46 62 77 58 64 87 123 88 173 0 19 -14 100 -31 180 -16 80 -33 191 -36 248 l-6 102 -41 0 c-23 0 -48 -5 -56 -10 -12 -8 -11 -10 6 -10 11 0 29 -7 40 -16 17 -14 17 -15 1 -10 -10 3 -53 6 -95 7 -77 0 -78 15 -2 19 l35 2 -30 8 c-16 4 -48 8 -71 9 l-41 1 -6 -77z"/>
<path d="M3985 3487 c0 -30 5 -42 15 -42 10 0 15 10 15 30 0 17 4 36 8 43 6 8 1 12 -15 12 -20 0 -23 -5 -23 -43z"/>
<path d="M3967 3423 c-16 -15 -5 -23 33 -23 29 0 40 4 40 15 0 10 -10 15 -33 15 -19 0 -37 -3 -40 -7z"/>
<path d="M3977 3382 c-9 -2 -15 -8 -12 -13 4 -5 1 -9 -6 -9 -7 0 -4 -7 7 -15 15 -11 16 -15 4 -16 -8 0 3 -5 24 -10 27 -6 43 -6 50 1 7 7 7 11 1 10 -5 -2 -20 -2 -32 -1 -38 2 -26 21 13 21 24 0 34 4 32 12 -5 14 -53 26 -81 20z"/>
<path d="M3974 3292 c22 -25 41 -28 49 -8 4 10 0 12 -14 9 -10 -3 -27 1 -37 8 -14 11 -13 9 2 -9z"/>
<path d="M3970 3196 c-15 -19 -9 -56 11 -69 25 -16 49 -1 49 31 0 46 -35 68 -60 38z m40 -36 c0 -23 -25 -27 -33 -6 -7 16 1 26 20 26 7 0 13 -9 13 -20z"/>
<path d="M6278 5433 c-14 -4 -17 -13 -14 -46 15 -137 17 -187 9 -187 -4 0 -8 -150 -8 -332 1 -282 4 -344 19 -403 9 -38 24 -97 32 -130 10 -42 13 -48 10 -20 -3 22 -12 72 -20 110 -44 193 -42 579 3 724 20 63 20 64 1 102 -11 21 -20 56 -20 78 0 35 4 43 31 56 54 28 20 66 -43 48z"/>
<path d="M6152 4300 c0 -14 2 -19 5 -12 2 6 2 18 0 25 -3 6 -5 1 -5 -13z"/>
<path d="M6272 4207 c-12 -13 -22 -30 -22 -38 1 -8 9 -3 21 14 11 15 25 27 29 27 15 0 29 -36 23 -58 l-5 -21 -19 22 c-13 16 -18 18 -18 7 0 -19 23 -50 37 -50 28 0 31 95 3 110 -26 13 -24 14 -49 -13z"/>
<path d="M6136 4199 c-50 -40 -21 -119 44 -119 48 0 68 70 34 118 -19 28 -44 28 -78 1z m64 -14 c14 -17 5 -68 -16 -86 -34 -28 -74 57 -42 89 16 16 43 15 58 -3z"/>
<path d="M6152 4157 c-7 -8 -7 -17 2 -30 19 -25 26 -21 26 13 0 32 -11 38 -28 17z"/>
<path d="M6358 4160 c2 -17 -1 -37 -8 -45 -17 -20 -59 -19 -82 2 -15 13 -18 14 -18 2 0 -46 77 -54 109 -13 24 31 27 57 8 73 -11 8 -13 5 -9 -19z"/>
<path d="M6107 3941 c-4 -47 -20 -142 -37 -211 -60 -250 -53 -304 52 -405 l61 -60 -66 77 c-43 51 -68 90 -73 113 -8 45 9 162 42 285 14 52 27 113 30 135 9 84 15 105 37 120 32 22 167 20 167 -4 0 -3 -38 -5 -85 -3 -64 3 -86 0 -89 -10 -2 -7 -8 -37 -13 -66 l-10 -53 27 26 c52 50 130 41 179 -21 48 -61 109 -306 96 -389 -6 -45 -12 -54 -112 -175 -24 -29 -43 -57 -42 -63 0 -7 8 -1 17 13 9 14 39 49 66 79 57 63 85 121 86 174 0 20 -16 116 -35 211 -20 99 -35 204 -35 244 l0 69 -129 0 -128 0 -6 -86z"/>
<path d="M6225 3487 c0 -30 5 -42 15 -42 11 0 15 12 16 43 0 32 -4 42 -15 42 -12 0 -16 -11 -16 -43z"/>
<path d="M6200 3415 c0 -11 11 -15 40 -15 29 0 40 4 40 15 0 11 -11 15 -40 15 -29 0 -40 -4 -40 -15z"/>
<path d="M6206 3382 c-15 -3 -16 -6 -5 -13 12 -7 12 -9 0 -9 -11 0 -9 -4 5 -15 19 -14 19 -14 -1 -16 -11 -1 0 -5 24 -10 25 -5 47 -6 50 -3 9 8 -21 23 -36 17 -7 -3 -13 0 -13 6 0 6 3 10 8 10 30 -5 63 3 60 13 -5 14 -62 26 -92 20z"/>
<path d="M6219 3286 c29 -31 28 -31 41 -6 8 16 8 18 -4 14 -8 -3 -25 0 -38 7 l-23 12 24 -27z"/>
<path d="M6186 3245 c4 -8 11 -15 16 -15 6 0 5 6 -2 15 -7 8 -14 15 -16 15 -2 0 -1 -7 2 -15z"/>
<path d="M6204 3185 c-16 -24 -16 -27 2 -46 26 -28 58 -21 62 14 6 55 -36 75 -64 32z m46 -19 c0 -8 -5 -18 -11 -22 -14 -8 -33 11 -25 25 10 16 36 13 36 -3z"/>
<path d="M7553 5063 c-7 -2 -13 -12 -12 -21 0 -11 2 -12 6 -4 2 6 11 12 19 12 8 0 14 5 14 10 0 11 -7 12 -27 3z"/>
<path d="M3210 5065 c0 -9 5 -15 11 -13 6 2 11 8 11 13 0 5 -5 11 -11 13 -6 2 -11 -4 -11 -13z"/>
<path d="M3066 4768 c3 -5 10 -6 15 -3 13 9 11 12 -6 12 -8 0 -12 -4 -9 -9z"/>
<path d="M3150 4640 c6 -19 5 -41 -1 -57 -12 -32 -4 -42 11 -13 14 26 9 92 -7 97 -9 3 -10 -4 -3 -27z"/>
<path d="M2907 4463 c-14 -13 -6 -23 18 -23 17 0 25 5 25 18 0 14 -2 15 -10 2 -8 -12 -12 -12 -18 -2 -5 7 -11 9 -15 5z"/>
<path d="M2975 4461 c-3 -5 -1 -12 5 -16 5 -3 10 1 10 9 0 18 -6 21 -15 7z"/>
<path d="M3006 4434 c-4 -10 -1 -14 6 -12 15 5 23 28 10 28 -5 0 -13 -7 -16 -16z"/>
<path d="M2936 4421 c-4 -7 -5 -15 -2 -18 9 -9 19 4 14 18 -4 11 -6 11 -12 0z"/>
<path d="M2936 4363 c-12 -12 -6 -33 9 -33 8 0 15 6 15 14 0 17 -14 28 -24 19z"/>
<path d="M7390 4774 c0 -8 5 -12 10 -9 6 4 8 11 5 16 -9 14 -15 11 -15 -7z"/>
<path d="M7483 4641 c4 -17 2 -43 -4 -57 -15 -42 -1 -41 16 0 18 43 17 77 -4 84 -11 4 -13 -2 -8 -27z"/>
<path d="M7250 4448 c0 -4 5 -8 11 -8 5 0 7 -5 3 -12 -4 -7 -3 -8 4 -4 17 10 15 33 -3 33 -8 0 -15 -4 -15 -9z"/>
<path d="M7276 4393 c-6 -14 -5 -15 5 -6 7 7 10 15 7 18 -3 3 -9 -2 -12 -12z"/>
<path d="M5030 4528 c0 -7 4 -20 10 -28 8 -12 10 -12 16 3 4 11 17 17 35 17 16 0 29 5 29 10 0 6 -20 10 -45 10 -29 0 -45 -4 -45 -12z"/>
<path d="M5140 4531 c0 -5 7 -11 15 -15 13 -5 15 -51 15 -333 0 -361 7 -426 51 -524 30 -64 30 -68 15 -98 -21 -41 -66 -62 -132 -64 -49 -1 -57 2 -90 33 -32 32 -35 39 -30 75 5 28 3 36 -4 25 -15 -24 -12 -62 10 -98 17 -28 18 -33 5 -38 -8 -4 -15 -12 -15 -20 0 -11 22 -14 103 -15 56 0 114 -3 128 -5 33 -5 50 25 19 33 -11 3 -20 6 -20 8 0 1 12 24 26 49 l26 47 -30 67 c-17 37 -36 99 -42 137 -12 81 -9 687 4 723 8 20 5 22 -23 22 -17 0 -31 -4 -31 -9z"/>
<path d="M5047 4175 c-3 -170 -9 -328 -11 -350 l-5 -40 10 35 c10 35 25 592 17 640 -2 14 -7 -114 -11 -285z"/>
<path d="M5016 3749 c-8 -42 0 -50 9 -9 4 17 5 34 2 36 -2 3 -7 -10 -11 -27z"/>
<path d="M5001 3693 c-1 -6 -4 -20 -7 -30 -5 -17 -5 -17 6 0 6 10 9 23 6 30 -3 9 -5 9 -5 0z"/>
<path d="M5004 3422 c-11 -7 -48 -221 -40 -229 5 -5 11 24 27 130 13 82 15 86 63 98 l31 7 -35 1 c-19 0 -40 -3 -46 -7z"/>
<path d="M5200 3417 c14 -8 27 -12 30 -10 7 6 -23 23 -40 23 -8 0 -4 -6 10 -13z"/>
<path d="M5043 3393 c-14 -3 -25 -14 -28 -29 -3 -13 -7 -36 -10 -51 -3 -16 -9 -37 -12 -48 -4 -14 5 -9 31 17 20 21 48 41 62 44 54 14 164 -56 164 -103 0 -9 2 -14 5 -11 9 8 -16 162 -27 173 -8 7 -9 5 -5 -6 3 -9 8 -38 11 -65 l6 -49 -16 55 c-8 30 -22 61 -31 68 -16 11 -101 14 -150 5z"/>
<path d="M5261 3184 c0 -11 3 -14 6 -6 3 7 2 16 -1 19 -3 4 -6 -2 -5 -13z"/>
<path d="M5271 3144 c0 -11 3 -14 6 -6 3 7 2 16 -1 19 -3 4 -6 -2 -5 -13z"/>
<path d="M4941 3124 c0 -11 3 -14 6 -6 3 7 2 16 -1 19 -3 4 -6 -2 -5 -13z"/>
<path d="M5303 2945 c0 -22 2 -30 4 -17 2 12 2 30 0 40 -3 9 -5 -1 -4 -23z"/>
<path d="M5097 2931 c-3 -20 -8 -46 -12 -58 -7 -21 -4 -23 27 -23 45 0 50 7 32 42 -8 16 -12 37 -9 47 4 13 0 20 -14 24 -16 4 -20 -2 -24 -32z"/>
<path d="M4921 2894 c0 -11 3 -14 6 -6 3 7 2 16 -1 19 -3 4 -6 -2 -5 -13z"/>
<path d="M5287 2879 c-4 -15 -38 -64 -77 -109 -38 -46 -67 -86 -64 -89 4 -3 9 0 11 7 3 7 30 41 60 75 59 67 86 112 80 130 -2 7 -7 0 -10 -14z"/>
<path d="M4930 2865 c1 -19 138 -175 155 -175 5 0 -20 30 -56 68 -37 37 -74 78 -83 92 -9 13 -16 20 -16 15z"/>
<path d="M5090 2830 c-12 -8 -12 -10 5 -10 18 -1 17 -2 -5 -15 -14 -8 -19 -15 -12 -16 6 -1 16 -2 21 -3 5 0 13 -4 17 -8 13 -14 23 -8 18 10 -5 14 -4 15 5 2 10 -13 12 -13 21 0 7 11 4 17 -13 22 -20 5 -20 6 -2 8 l20 1 -20 9 c-27 12 -37 12 -55 0z"/>
<path d="M5090 2770 c-7 -4 2 -10 21 -14 40 -8 45 -4 14 10 -13 6 -28 8 -35 4z"/>
<path d="M5100 2734 c8 -10 15 -20 16 -22 1 -2 4 1 7 5 3 5 -4 15 -16 23 -21 12 -21 12 -7 -6z"/>
<path d="M5085 2637 c-18 -28 -11 -54 17 -63 31 -10 54 19 42 53 -12 36 -39 40 -59 10z m40 -27 c0 -8 -8 -16 -17 -18 -13 -2 -18 3 -18 18 0 15 5 20 18 18 9 -2 17 -10 17 -18z"/>
<path d="M1351 5164 c0 -11 3 -14 6 -6 3 7 2 16 -1 19 -3 4 -6 -2 -5 -13z"/>
<path d="M1302 5124 c10 -10 20 -15 24 -12 3 4 -5 12 -18 18 -22 12 -22 12 -6 -6z"/>
<path d="M1558 4764 c-7 -151 -55 -234 -136 -234 -17 0 -33 -4 -36 -9 -7 -11 39 -61 57 -61 30 0 112 65 132 105 33 67 34 235 1 280 -11 16 -14 5 -18 -81z"/>
<path d="M8634 4784 c-16 -151 16 -246 98 -297 54 -34 81 -30 103 14 l16 29 -41 0 c-91 0 -132 64 -138 218 -3 75 -8 102 -17 102 -9 0 -16 -22 -21 -66z"/>
<path d="M1074 5184 c-5 -17 -2 -29 7 -35 20 -12 43 14 34 40 -9 29 -33 26 -41 -5z"/>
<path d="M9114 5196 c-9 -23 0 -51 17 -54 19 -4 32 23 24 49 -7 22 -33 25 -41 5z"/>
<path d="M1766 4917 c3 -10 9 -15 12 -12 3 3 0 11 -7 18 -10 9 -11 8 -5 -6z"/>
<path d="M1074 4905 c-9 -22 22 -53 37 -38 15 15 7 47 -14 51 -9 2 -20 -4 -23 -13z"/>
<path d="M9114 4905 c-8 -21 2 -45 20 -45 17 0 28 24 20 45 -4 8 -13 15 -20 15 -8 0 -17 -7 -20 -15z"/>
<path d="M4915 1377 c-40 -13 -55 -26 -55 -47 0 -20 23 -32 44 -24 15 6 53 71 46 77 -3 2 -18 0 -35 -6z"/>
<path d="M4984 1068 c-6 -10 20 -38 37 -38 13 0 31 29 24 40 -8 14 -52 13 -61 -2z"/>
<path d="M5194 1065 c-4 -9 -2 -21 4 -27 15 -15 54 1 50 20 -4 23 -46 28 -54 7z"/>
</g>
</svg>